<svg width="2000" height="2000" viewBox="0 0 2000 2000" fill="none" xmlns="http://www.w3.org/2000/svg">
<circle cx="604.5" cy="689.5" r="282.5" fill="#6EFFBC"/>
<path d="M431 426C573 351 730 382 741 441C743.363 453.675 710.2 439 695 451C675.999 466 628 426 598 426C568 426 629 456 605 474C592.815 483.139 572 479 542 466C512 453 539.931 508.782 506 538C470 569 482 490 454 512C419.081 539.436 454 615 391 679C362.618 707.834 373 646 362 628C344.472 599.317 366.131 802.967 262 829C194 846 278.407 506.595 431 426Z" fill="url(#paint0_linear_7_276)"/>
<path d="M255 831C219 833.656 245.166 716.833 266.5 654.5C263.166 677.5 258.8 730.8 274 750C293 774 317 609 349 589C381 569 373 598 383 625C393 652 413 510 432 494C451 478 478 493 492 510C506 527 498 482 509 448C520 414 553 451 578 456C603 461 555 424 573 403C587.4 386.2 651 431.333 681 456C658 448 619 428 603 428C587 428 623.336 459.65 611 471C586 494 558 470 537 471C516 472 536 526 501 542C466 558 486.064 518.888 460.5 524.5C440 529 442.5 621 400 678C359.541 732.262 374.499 641.5 363.499 632.5C341.465 614.472 364.999 822.885 255 831Z" fill="#82B66D"/>
<path d="M383.5 459C315.5 520 288.333 601.667 276 631C295 610.667 361.021 506.637 391.5 481C445 436 500.167 408.333 546.5 386.5C476 397.5 440.544 407.828 383.5 459Z" fill="#D3FFB9"/>
<ellipse cx="367.811" cy="521.074" rx="27.2047" ry="47" transform="rotate(35.4889 367.811 521.074)" fill="#D3FFB9"/>
<circle cx="912.5" cy="475.5" r="282.5" fill="#57CA95"/>
<path d="M606 387C606 290.667 719 182 869 177C1054.97 170.801 1258.23 297.318 1298 303C1354 311 1433 296 1450 344C1454.6 357 1419 384.946 1315 376C1222 368 1149 311 1117 290C1083.18 267.808 1164 363 1125 363C1086 363 1035 283 1006 290C977 297 1060 330 1025 355C990 380 895 295 869 311C843 327 904 355 869 387C834 419 763.345 311.519 740 344C717 376 606 462 606 387Z" fill="url(#paint1_linear_7_276)"/>
<path d="M614.5 414.5C566.1 404.1 637.5 267.5 693 238.5C681 266 655.099 327.7 645.499 360.5C633.499 401.5 711.999 311.5 740.999 300.5C769.999 289.5 820.499 353 837.499 364C854.499 375 830.499 307 851.999 288.5C873.499 270 953.999 319.5 982.499 333C1011 346.5 994.499 284.5 994.499 265C994.499 262 1080 319.5 1100.5 319.5C1116.9 319.5 1086 281.167 1068.5 262C1128.33 280.5 1259.3 320.1 1304.5 330.5C1361 343.5 1403.5 310 1406 310.5C1408.5 311 1466.71 313.867 1458 348C1454.04 363.5 1439.04 378.5 1339.5 378.5C1208.5 378.5 1124 288.5 1111.5 288.5C1094.5 288.5 1168 360.5 1124 363.5C1092.08 365.676 1038.5 290.5 1010.5 288.5C982.499 286.5 1080.5 339.5 1010.5 360.5C976.873 370.588 907.499 308 879.499 309C851.499 310 916.499 364 861.999 391.5C834.857 405.195 774.999 342.5 758.499 339.5C741.999 336.5 675 427.5 614.5 414.5Z" fill="#448761"/>
<path d="M958.5 181.5C867.5 167.5 811.333 183.167 781.5 192C802.833 194.333 894.436 190.234 949.5 200.5C1038 217 1142.5 255.5 1218 269.5C1167 242.5 1049.53 195.505 958.5 181.5Z" fill="#B5F191"/>
<ellipse cx="941.585" cy="212.466" rx="69.686" ry="31" transform="rotate(7.88421 941.585 212.466)" fill="#B5F191"/>
<ellipse cx="1508.5" cy="354" rx="31.5" ry="28" fill="#45885F"/>
<path d="M1608.36 842.635L1608.27 842.424L1608.19 842.213C1469.99 517.745 1093.68 365.784 767.542 501.84C440.917 638.101 288.837 1016.59 427.01 1341C565.065 1665.12 941.235 1819.5 1265.89 1681.32C1420.05 1617.2 1542.21 1495.05 1606.35 1340.9C1674.44 1182.51 1674.29 1002.45 1608.36 842.635Z" fill="#23262F" stroke="#3DA774" stroke-width="80"/>
<path d="M1477.02 820.968C1467.31 765.252 1437.66 714.974 1393.61 679.52C1352.56 646.156 1301.27 627.961 1248.37 628C1092.64 628 936.832 628 780.961 628C699.779 628.934 622.655 675.988 583.281 746.712C561.119 784.794 553 827.464 553 870.986C553 1012.89 553 1154.83 553 1296.79C552.716 1329.8 554.177 1361.5 564.488 1393.17C576.419 1429.8 597.155 1462.95 624.875 1489.7C652.596 1516.45 686.456 1535.98 723.484 1546.6C701.118 1528.77 691.214 1503.97 683.948 1477.13C668.889 1418.26 667.712 1357.12 670.147 1296.79C669.903 1154.69 670.147 1012.88 670.147 870.986C670.35 846.626 672.177 823.607 684.679 801.967C694.276 784.768 708.282 770.437 725.254 760.447C742.226 750.457 761.553 745.17 781.246 745.128C929.296 745.128 1077.39 745.128 1225.52 745.128C1247.88 745.128 1268.22 743.505 1289.57 751.584C1307.25 757.78 1323.06 768.373 1335.51 782.364C1347.97 796.356 1356.66 813.287 1360.77 831.564C1365.15 853.041 1363.98 876.873 1364.06 898.756V1315.3C1364.06 1335.6 1361.78 1355.9 1352.98 1374.46C1334.83 1412.42 1295.58 1438.76 1253.08 1437.99C1135.89 1437.99 1018.58 1437.99 901.437 1437.99C901.193 1399.79 901.437 1361.59 901.437 1323.34C997.124 1323.34 1092.77 1323.34 1188.38 1323.34C1208.96 1324.48 1232.66 1314.04 1242.12 1294.92C1246.82 1285.37 1249.06 1274.79 1248.61 1264.15C1248.61 1148.36 1248.61 1032.61 1248.61 916.903C1249.26 906.607 1246.92 896.343 1241.88 887.342C1236.84 878.34 1229.32 870.984 1220.2 866.155C1204.37 856.979 1187.44 859.334 1169.79 859.009C1060.19 859.293 950.593 859.009 841.24 859.212C833.68 859.176 826.191 860.663 819.218 863.584C812.245 866.505 805.932 870.801 800.655 876.216C795.379 881.63 791.246 888.052 788.504 895.098C785.762 902.144 784.467 909.671 784.696 917.228C784.249 1083.68 784.696 1250.75 784.696 1417.17C785.548 1450.21 784.493 1481.52 803.652 1510.14C818.184 1533.77 842.742 1545.78 869.167 1551.02C900.422 1556.06 930.297 1554.84 961.674 1555.08C1057.36 1555.08 1152.99 1555.08 1248.57 1555.08C1296.09 1555 1342.44 1540.33 1381.35 1513.06C1423.24 1482.17 1455.71 1439.62 1470.65 1389.44C1480.96 1355.5 1480.8 1322.53 1480.96 1287.49C1480.96 1154.87 1480.96 1022.24 1480.96 889.621C1481.34 866.671 1480.02 843.724 1477.02 820.968ZM1130.86 1206.66H901.396V976.219H1130.86V1206.66Z" fill="#45D492"/>
<path d="M239 1061C301.4 1061 404.227 1208 341 1259C292.421 1298.18 263.803 1156.8 183 1235C121 1295 517 1529 459 1555C401 1581 201 1469 291 1579C381 1689 883.203 1842.09 1113 1787C1405 1717 1827 1385 1647 1395C1589.5 1398.19 1431 1587 1395 1579C1359 1571 1547 1481 1477 1443C1407 1405 1485 1519 1103 1637C721 1755 488.987 934.608 311 923C127 911 98.9996 1063 119 1083C139 1103 161 1061 239 1061Z" fill="url(#paint2_linear_7_276)"/>
<path d="M1889.01 1231.2C1942.91 1296 1831.54 1295.73 1785 1319C1749 1337 1697 1363 1697 1363C1661.5 1391 1680.06 1304.85 1736.88 1257.58C1793.7 1210.32 1861.81 1198.5 1889.01 1231.2Z" fill="#3BAA89"/>
<path d="M1039 1649C987.716 1653.27 818.333 1544.67 783 1522C814 1560 901 1649 1022 1674C1115.52 1693.32 1192 1638 1282 1568C1221 1596 1147 1640 1039 1649Z" fill="#6DE9B0"/>
<circle cx="1803" cy="1107" r="50" fill="#3CAD8A"/>
<circle cx="126" cy="1181" r="38" fill="#3CAD8A"/>
<path d="M339 929C265 906 219.667 931.5 193 944.5C212.5 944.5 282.84 934.138 314 972C486 1181 620 1381 774 1515C627 1367 451.747 964.043 339 929Z" fill="#96FFCF"/>
<ellipse cx="500.486" cy="1219.15" rx="47.0999" ry="101.283" transform="rotate(-31.3435 500.486 1219.15)" fill="#96FFCF"/>
<ellipse cx="1682.3" cy="904.67" rx="164.778" ry="191.244" transform="rotate(12.1355 1682.3 904.67)" fill="url(#paint3_linear_7_276)"/>
<ellipse cx="1707.23" cy="900.466" rx="143.464" ry="167.018" transform="rotate(12.1355 1707.23 900.466)" fill="#37A950"/>
<ellipse cx="1715.8" cy="904.684" rx="134" ry="156" transform="rotate(12.1355 1715.8 904.684)" fill="url(#paint4_linear_7_276)"/>
<path d="M1760.98 789C1749.81 816.913 1726.99 874.413 1725.07 881.112L1686.78 789L1713.11 881.112L1612.57 859.579L1707.12 894.271L1603 926.57L1707.12 906.234L1635.31 976.813L1713.11 919.393L1678.4 1018.68L1731.06 926.57L1739.44 1045L1746.62 926.57L1799.28 976.813L1760.98 913.411H1828L1760.98 894.271L1817.23 848.813L1746.62 881.112L1760.98 789Z" fill="#3AA051"/>
<path d="M1802.74 812.875C1782.54 835.145 1741.11 881.087 1736.98 886.699L1733.19 787.015L1725.76 882.528L1639.04 827.308L1715.57 892.776L1606.72 886.762L1711.4 903.989L1619.5 945.117L1712.42 918.408L1645.29 999.377L1726.75 931.393L1693.33 1045.32L1741.33 936.815L1773.18 1002.26L1759.38 929.486L1822.2 952.844L1766.05 911.546L1834.62 888.542L1757.17 894.207L1802.74 812.875Z" fill="#3AA051"/>
<path d="M1770.28 842.647C1758.05 855.966 1732.98 883.443 1730.47 886.803L1728.66 826.843L1723.76 884.254L1671.97 850.732L1717.59 890.38L1652.29 886.367L1715.04 897.107L1659.69 921.506L1715.58 905.782L1674.91 954.229L1724.12 913.642L1703.53 982.03L1732.85 916.956L1751.66 956.428L1743.71 912.614L1781.31 926.889L1747.8 901.85L1789.06 888.266L1742.56 891.391L1770.28 842.647Z" fill="#E8FFBB"/>
<ellipse cx="1729.19" cy="900.283" rx="17.5037" ry="21.3934" transform="rotate(10.751 1729.19 900.283)" fill="#E8FFBB"/>
<ellipse cx="1709.54" cy="868.201" rx="3.5" ry="7.70215" transform="rotate(-38.6598 1709.54 868.201)" fill="#4E7657" fill-opacity="0.8"/>
<ellipse cx="1719.54" cy="864.201" rx="3.5" ry="7.70215" transform="rotate(-5.57357 1719.54 864.201)" fill="#4E7657" fill-opacity="0.8"/>
<ellipse cx="1734.18" cy="865.302" rx="3.5" ry="7.70215" transform="rotate(13.3293 1734.18 865.302)" fill="#4E7657" fill-opacity="0.8"/>
<ellipse cx="1744.18" cy="868.302" rx="3.5" ry="7.70215" transform="rotate(30.95 1744.18 868.302)" fill="#4E7657" fill-opacity="0.8"/>
<ellipse cx="1753.96" cy="878.406" rx="3.5" ry="7.70215" transform="rotate(30.95 1753.96 878.406)" fill="#4E7657" fill-opacity="0.8"/>
<ellipse cx="1760.41" cy="887.726" rx="3.5" ry="7.70215" transform="rotate(71.8462 1760.41 887.726)" fill="#4E7657" fill-opacity="0.8"/>
<ellipse cx="1767.73" cy="899.56" rx="3.5" ry="7.70215" transform="rotate(89.5533 1767.73 899.56)" fill="#4E7657" fill-opacity="0.8"/>
<ellipse cx="1763.45" cy="909.692" rx="3.5" ry="7.70215" transform="rotate(117.846 1763.45 909.692)" fill="#4E7657" fill-opacity="0.8"/>
<ellipse cx="1761.45" cy="924.692" rx="3.5" ry="7.70215" transform="rotate(117.846 1761.45 924.692)" fill="#4E7657" fill-opacity="0.8"/>
<ellipse cx="1752.31" cy="933.459" rx="3.5" ry="7.70215" transform="rotate(156.253 1752.31 933.459)" fill="#4E7657" fill-opacity="0.8"/>
<ellipse cx="1740.31" cy="939.459" rx="3.5" ry="7.70215" transform="rotate(156.253 1740.31 939.459)" fill="#4E7657" fill-opacity="0.8"/>
<ellipse cx="1727.8" cy="939.42" rx="3.5" ry="7.70215" transform="rotate(-161.139 1727.8 939.42)" fill="#4E7657" fill-opacity="0.8"/>
<ellipse cx="1713.8" cy="936.42" rx="3.5" ry="7.70215" transform="rotate(-161.139 1713.8 936.42)" fill="#4E7657" fill-opacity="0.8"/>
<ellipse cx="1705.8" cy="932.42" rx="3.5" ry="7.70215" transform="rotate(-139.658 1705.8 932.42)" fill="#4E7657" fill-opacity="0.8"/>
<ellipse cx="1697.65" cy="924.136" rx="3.5" ry="7.70215" transform="rotate(-139.658 1697.65 924.136)" fill="#4E7657" fill-opacity="0.8"/>
<ellipse cx="1692.44" cy="915.758" rx="3.5" ry="7.70215" transform="rotate(-118.578 1692.44 915.758)" fill="#4E7657" fill-opacity="0.8"/>
<ellipse cx="1689.44" cy="903.758" rx="3.5" ry="7.70215" transform="rotate(-103.189 1689.44 903.758)" fill="#4E7657" fill-opacity="0.8"/>
<ellipse cx="1690.32" cy="894.251" rx="3.5" ry="7.70215" transform="rotate(-76.0728 1690.32 894.251)" fill="#4E7657" fill-opacity="0.8"/>
<ellipse cx="1692.32" cy="885.251" rx="3.5" ry="7.70215" transform="rotate(-69.5968 1692.32 885.251)" fill="#4E7657" fill-opacity="0.8"/>
<ellipse cx="1697.33" cy="877.252" rx="3.5" ry="7.70215" transform="rotate(-55.4379 1697.33 877.252)" fill="#4E7657" fill-opacity="0.8"/>
<ellipse cx="1695.09" cy="839.597" rx="6.29607" ry="13.8552" transform="rotate(-38.6598 1695.09 839.597)" fill="#4E7657" fill-opacity="0.8"/>
<ellipse cx="1713.08" cy="832.401" rx="6.29607" ry="13.8552" transform="rotate(-5.57357 1713.08 832.401)" fill="#4E7657" fill-opacity="0.8"/>
<ellipse cx="1739.41" cy="834.381" rx="6.29607" ry="13.8552" transform="rotate(13.3293 1739.41 834.381)" fill="#4E7657" fill-opacity="0.8"/>
<ellipse cx="1757.4" cy="839.778" rx="6.29607" ry="13.8552" transform="rotate(30.95 1757.4 839.778)" fill="#4E7657" fill-opacity="0.8"/>
<ellipse cx="1775" cy="857.954" rx="6.29607" ry="13.8552" transform="rotate(30.95 1775 857.954)" fill="#4E7657" fill-opacity="0.8"/>
<ellipse cx="1786.59" cy="874.719" rx="6.29607" ry="13.8552" transform="rotate(71.8462 1786.59 874.719)" fill="#4E7657" fill-opacity="0.8"/>
<ellipse cx="1799.76" cy="896.008" rx="6.29607" ry="13.8552" transform="rotate(89.5533 1799.76 896.008)" fill="#4E7657" fill-opacity="0.8"/>
<ellipse cx="1796.19" cy="921.039" rx="6.29607" ry="13.8552" transform="rotate(117.846 1796.19 921.039)" fill="#4E7657" fill-opacity="0.8"/>
<ellipse cx="1788.46" cy="941.218" rx="6.29607" ry="13.8552" transform="rotate(117.846 1788.46 941.218)" fill="#4E7657" fill-opacity="0.8"/>
<ellipse cx="1772.01" cy="956.989" rx="6.29607" ry="13.8552" transform="rotate(156.253 1772.01 956.989)" fill="#4E7657" fill-opacity="0.8"/>
<ellipse cx="1750.43" cy="967.782" rx="6.29607" ry="13.8552" transform="rotate(156.253 1750.43 967.782)" fill="#4E7657" fill-opacity="0.8"/>
<ellipse cx="1727.94" cy="967.711" rx="6.29607" ry="13.8552" transform="rotate(-161.139 1727.94 967.711)" fill="#4E7657" fill-opacity="0.8"/>
<ellipse cx="1702.75" cy="962.315" rx="6.29607" ry="13.8552" transform="rotate(-161.139 1702.75 962.315)" fill="#4E7657" fill-opacity="0.8"/>
<ellipse cx="1688.36" cy="955.119" rx="6.29607" ry="13.8552" transform="rotate(-139.658 1688.36 955.119)" fill="#4E7657" fill-opacity="0.8"/>
<ellipse cx="1673.7" cy="940.218" rx="6.29607" ry="13.8552" transform="rotate(-139.658 1673.7 940.218)" fill="#4E7657" fill-opacity="0.8"/>
<ellipse cx="1664.32" cy="925.146" rx="6.29607" ry="13.8552" transform="rotate(-118.578 1664.32 925.146)" fill="#4E7657" fill-opacity="0.8"/>
<ellipse cx="1658.93" cy="903.56" rx="6.29607" ry="13.8552" transform="rotate(-103.189 1658.93 903.56)" fill="#4E7657" fill-opacity="0.8"/>
<ellipse cx="1660.51" cy="886.458" rx="6.29607" ry="13.8552" transform="rotate(-76.0728 1660.51 886.458)" fill="#4E7657" fill-opacity="0.8"/>
<ellipse cx="1664.11" cy="870.268" rx="6.29607" ry="13.8552" transform="rotate(-69.5968 1664.11 870.268)" fill="#4E7657" fill-opacity="0.8"/>
<ellipse cx="1673.12" cy="855.878" rx="6.29607" ry="13.8552" transform="rotate(-55.4379 1673.12 855.878)" fill="#4E7657" fill-opacity="0.8"/>
<ellipse cx="1684.44" cy="994.147" rx="6.29607" ry="13.8552" transform="rotate(-161.139 1684.44 994.147)" fill="#4E7657" fill-opacity="0.8"/>
<ellipse cx="1697.44" cy="1003.15" rx="6.29607" ry="13.8552" transform="rotate(-161.139 1697.44 1003.15)" fill="#4E7657" fill-opacity="0.8"/>
<ellipse cx="1715.44" cy="1010.15" rx="6.29607" ry="13.8552" transform="rotate(-161.139 1715.44 1010.15)" fill="#4E7657" fill-opacity="0.8"/>
<ellipse cx="1731.22" cy="1009.13" rx="5.49166" ry="13.8552" transform="rotate(176.975 1731.22 1009.13)" fill="#4E7657" fill-opacity="0.8"/>
<ellipse cx="1751.02" cy="1004.17" rx="6.29607" ry="13.8552" transform="rotate(176.975 1751.02 1004.17)" fill="#4E7657" fill-opacity="0.8"/>
<ellipse cx="1765.51" cy="996.593" rx="4.66294" ry="13.8552" transform="rotate(158.021 1765.51 996.593)" fill="#4E7657" fill-opacity="0.8"/>
<ellipse cx="1791.6" cy="979.656" rx="4.66294" ry="11.1776" transform="rotate(141.595 1791.6 979.656)" fill="#4E7657" fill-opacity="0.8"/>
<ellipse cx="1801.54" cy="966.443" rx="3.80743" ry="8.9522" transform="rotate(141.595 1801.54 966.443)" fill="#4E7657" fill-opacity="0.8"/>
<ellipse cx="1809.87" cy="957.399" rx="3.80743" ry="8.05567" transform="rotate(120.842 1809.87 957.399)" fill="#4E7657" fill-opacity="0.8"/>
<ellipse cx="1826.76" cy="896.74" rx="3.80743" ry="8.05567" transform="rotate(75.1875 1826.76 896.74)" fill="#4E7657" fill-opacity="0.8"/>
<ellipse cx="1814.61" cy="861.105" rx="3.80743" ry="8.05567" transform="rotate(49.8452 1814.61 861.105)" fill="#4E7657" fill-opacity="0.8"/>
<ellipse cx="1798.61" cy="836.105" rx="3.80743" ry="8.05567" transform="rotate(49.8452 1798.61 836.105)" fill="#4E7657" fill-opacity="0.8"/>
<ellipse cx="1804.9" cy="846.184" rx="3.80743" ry="8.05567" transform="rotate(61.5615 1804.9 846.184)" fill="#4E7657" fill-opacity="0.8"/>
<ellipse cx="1823.23" cy="882.187" rx="3.80743" ry="8.05567" transform="rotate(87.2656 1823.23 882.187)" fill="#4E7657" fill-opacity="0.8"/>
<ellipse cx="1818.9" cy="871.33" rx="3.80743" ry="9.39723" transform="rotate(80.3429 1818.9 871.33)" fill="#4E7657" fill-opacity="0.8"/>
<ellipse cx="1827.57" cy="907.076" rx="3.80743" ry="8.05567" transform="rotate(99.4347 1827.57 907.076)" fill="#4E7657" fill-opacity="0.8"/>
<ellipse cx="1824.57" cy="920.076" rx="3.80743" ry="8.05567" transform="rotate(99.4347 1824.57 920.076)" fill="#4E7657" fill-opacity="0.8"/>
<ellipse cx="1816.83" cy="941.596" rx="3.80743" ry="8.05567" transform="rotate(123.193 1816.83 941.596)" fill="#4E7657" fill-opacity="0.8"/>
<ellipse cx="1819.83" cy="931.596" rx="3.80743" ry="8.05568" transform="rotate(107.709 1819.83 931.596)" fill="#4E7657" fill-opacity="0.8"/>
<ellipse cx="1778.43" cy="989.109" rx="4.66294" ry="11.1776" transform="rotate(158.554 1778.43 989.109)" fill="#4E7657" fill-opacity="0.8"/>
<ellipse cx="1670.73" cy="984.66" rx="6.29607" ry="13.8552" transform="rotate(-139.991 1670.73 984.66)" fill="#4E7657" fill-opacity="0.8"/>
<ellipse cx="1651.86" cy="974.357" rx="6.29607" ry="13.8552" transform="rotate(-126.926 1651.86 974.357)" fill="#4E7657" fill-opacity="0.8"/>
<ellipse cx="1639.86" cy="955.357" rx="6.29607" ry="13.8552" transform="rotate(-126.926 1639.86 955.357)" fill="#4E7657" fill-opacity="0.8"/>
<ellipse cx="1632.98" cy="929.512" rx="6.29607" ry="13.8552" transform="rotate(-104.246 1632.98 929.512)" fill="#4E7657" fill-opacity="0.8"/>
<ellipse cx="1627.1" cy="901.858" rx="6.29607" ry="13.8552" transform="rotate(-92.3474 1627.1 901.858)" fill="#4E7657" fill-opacity="0.8"/>
<ellipse cx="1627.1" cy="877.858" rx="6.29607" ry="13.8552" transform="rotate(-77.8401 1627.1 877.858)" fill="#4E7657" fill-opacity="0.8"/>
<ellipse cx="1638.87" cy="851.073" rx="6.29607" ry="13.8552" transform="rotate(-64.3716 1638.87 851.073)" fill="#4E7657" fill-opacity="0.8"/>
<ellipse cx="1661.22" cy="827.67" rx="6.29607" ry="13.8552" transform="rotate(-47.671 1661.22 827.67)" fill="#4E7657" fill-opacity="0.8"/>
<ellipse cx="1676.9" cy="813.203" rx="6.29607" ry="13.8552" transform="rotate(-27.0232 1676.9 813.203)" fill="#4E7657" fill-opacity="0.8"/>
<ellipse cx="1721.05" cy="804.181" rx="6.29607" ry="13.8552" transform="rotate(-3.1543 1721.05 804.181)" fill="#4E7657" fill-opacity="0.8"/>
<ellipse cx="1746" cy="805.773" rx="4.22087" ry="11.2352" transform="rotate(9.39139 1746 805.773)" fill="#4E7657" fill-opacity="0.8"/>
<ellipse cx="1702.67" cy="805.901" rx="4.22087" ry="11.2352" transform="rotate(-13.1471 1702.67 805.901)" fill="#4E7657" fill-opacity="0.8"/>
<ellipse cx="1782.83" cy="819.657" rx="4.22087" ry="11.2352" transform="rotate(34.3654 1782.83 819.657)" fill="#4E7657" fill-opacity="0.8"/>
<ellipse cx="1769.83" cy="813.657" rx="4.22087" ry="11.2352" transform="rotate(18.9073 1769.83 813.657)" fill="#4E7657" fill-opacity="0.8"/>
<ellipse cx="1715.8" cy="904.684" rx="134" ry="156" transform="rotate(12.1355 1715.8 904.684)" fill="url(#paint5_linear_7_276)" fill-opacity="0.5"/>
<path d="M1427.95 451.538C1422.31 476.012 1420.88 501.202 1423.74 525.672C1426.6 550.141 1433.69 573.411 1444.62 594.151C1455.54 614.891 1470.08 632.697 1487.4 646.55C1504.73 660.404 1524.5 670.035 1545.58 674.893C1566.67 679.75 1588.66 679.74 1610.3 674.863C1631.94 669.985 1652.8 660.336 1671.7 646.465C1690.6 632.595 1707.16 614.775 1720.44 594.024C1733.72 573.272 1743.45 549.995 1749.09 525.522L1588.52 488.53L1427.95 451.538Z" fill="url(#paint6_linear_7_276)"/>
<path d="M1431.85 452.743C1421.9 495.908 1427.09 540.698 1446.28 577.261C1465.47 613.823 1497.08 639.162 1534.15 647.704C1571.23 656.246 1610.74 647.29 1643.99 622.808C1677.24 598.326 1701.51 560.321 1711.45 517.156L1571.65 484.949L1431.85 452.743Z" fill="#37A950"/>
<path d="M1430.35 452.548C1421.06 492.865 1425.91 534.701 1443.83 568.852C1461.75 603.002 1491.27 626.67 1525.91 634.648C1560.54 642.626 1597.44 634.262 1628.5 611.394C1659.55 588.527 1682.22 553.03 1691.51 512.712L1560.93 482.63L1430.35 452.548Z" fill="url(#paint7_linear_7_276)"/>
<path d="M1514.06 597.641C1525.64 569.895 1549.3 512.734 1551.31 506.064L1588.26 598.726L1563.28 506.239L1663.48 529.239L1569.45 493.169L1571.09 487.992L1571.44 485.573L1567.68 484.267L1559.49 482.269L1550.78 480.748L1545.87 479.819L1539.24 477.75L1529.44 475.185L1521.94 473.916L1515.44 471.722L1448.87 472.263L1515.6 492.381L1458.69 537.012L1529.77 505.749L1514.06 597.641Z" fill="#3AA051"/>
<path d="M1539.49 500.303C1535.27 505.854 1493.18 551.186 1472.66 573.158L1519.41 492.501L1441.89 497.033L1510.78 475.034L1536.07 477.277L1541.87 479.412L1549.85 482.35L1554.07 486.975L1549.49 484.134L1546.85 497.205L1549.09 491.529L1557.4 490.62L1565.32 483.389L1668.16 506.924L1560.98 494.54L1636.55 561.119L1550.64 504.638L1541.82 600.032L1539.49 500.303Z" fill="#3AA051"/>
<path d="M1505.55 543.863C1517.96 530.725 1543.44 503.617 1546 500.295L1546.93 560.274L1552.67 502.942L1603.97 537.217L1558.93 496.907L1624.16 501.873L1561.58 490.217L1554.79 487.357L1564.81 483.504L1552.19 480.812L1546.94 479.513L1544.49 479.048L1542.4 478.246L1539.94 477.782L1531.16 476.324L1494.07 466.865L1528.89 484.995L1487.43 497.975L1533.98 495.53L1505.55 543.863Z" fill="#E8FFBB"/>
<path d="M1531.09 476.529C1529.95 482.087 1530.66 487.788 1533.07 492.378C1535.48 496.968 1539.39 500.07 1543.94 501.003C1548.49 501.935 1553.3 500.621 1557.32 497.351C1561.34 494.08 1564.24 489.12 1565.38 483.561L1548.24 480.045L1531.09 476.529Z" fill="#E8FFBB"/>
<ellipse cx="1566.65" cy="519.201" rx="3.5" ry="7.70215" transform="rotate(142.178 1566.65 519.201)" fill="#4E7657" fill-opacity="0.8"/>
<ellipse cx="1556.59" cy="523.054" rx="3.5" ry="7.70215" transform="rotate(175.264 1556.59 523.054)" fill="#4E7657" fill-opacity="0.8"/>
<ellipse cx="1541.97" cy="521.739" rx="3.5" ry="7.70215" transform="rotate(-165.833 1541.97 521.739)" fill="#4E7657" fill-opacity="0.8"/>
<ellipse cx="1532.02" cy="518.594" rx="3.5" ry="7.70215" transform="rotate(-148.212 1532.02 518.594)" fill="#4E7657" fill-opacity="0.8"/>
<ellipse cx="1522.39" cy="508.348" rx="3.5" ry="7.70215" transform="rotate(-148.212 1522.39 508.348)" fill="#4E7657" fill-opacity="0.8"/>
<ellipse cx="1516.08" cy="498.934" rx="3.5" ry="7.70215" transform="rotate(-107.316 1516.08 498.934)" fill="#4E7657" fill-opacity="0.8"/>
<ellipse cx="1508.93" cy="486.994" rx="3.5" ry="7.70215" transform="rotate(-89.6091 1508.93 486.994)" fill="#4E7657" fill-opacity="0.8"/>
<ellipse cx="1513.36" cy="476.926" rx="3.5" ry="7.70215" transform="rotate(-61.3167 1513.36 476.926)" fill="#4E7657" fill-opacity="0.8"/>
<ellipse cx="1586.25" cy="493.434" rx="3.5" ry="7.70215" transform="rotate(104.765 1586.25 493.434)" fill="#4E7657" fill-opacity="0.8"/>
<ellipse cx="1584.12" cy="502.404" rx="3.5" ry="7.70215" transform="rotate(111.241 1584.12 502.404)" fill="#4E7657" fill-opacity="0.8"/>
<ellipse cx="1579" cy="510.329" rx="3.5" ry="7.70215" transform="rotate(125.4 1579 510.329)" fill="#4E7657" fill-opacity="0.8"/>
<ellipse cx="1580.68" cy="548.013" rx="6.29607" ry="13.8552" transform="rotate(142.178 1580.68 548.013)" fill="#4E7657" fill-opacity="0.8"/>
<ellipse cx="1562.59" cy="554.945" rx="6.29607" ry="13.8552" transform="rotate(175.264 1562.59 554.945)" fill="#4E7657" fill-opacity="0.8"/>
<ellipse cx="1536.29" cy="552.58" rx="6.29607" ry="13.8552" transform="rotate(-165.833 1536.29 552.58)" fill="#4E7657" fill-opacity="0.8"/>
<ellipse cx="1518.38" cy="546.921" rx="6.29607" ry="13.8552" transform="rotate(-148.212 1518.38 546.921)" fill="#4E7657" fill-opacity="0.8"/>
<ellipse cx="1501.06" cy="528.49" rx="6.29607" ry="13.8552" transform="rotate(-148.212 1501.06 528.49)" fill="#4E7657" fill-opacity="0.8"/>
<ellipse cx="1489.7" cy="511.556" rx="6.29607" ry="13.8552" transform="rotate(-107.316 1489.7 511.556)" fill="#4E7657" fill-opacity="0.8"/>
<ellipse cx="1476.85" cy="490.078" rx="6.29607" ry="13.8552" transform="rotate(-89.6091 1476.85 490.078)" fill="#4E7657" fill-opacity="0.8"/>
<ellipse cx="1615.95" cy="501.663" rx="6.29607" ry="13.8552" transform="rotate(104.765 1615.95 501.663)" fill="#4E7657" fill-opacity="0.8"/>
<ellipse cx="1612.11" cy="517.798" rx="6.29607" ry="13.8552" transform="rotate(111.241 1612.11 517.798)" fill="#4E7657" fill-opacity="0.8"/>
<ellipse cx="1602.89" cy="532.054" rx="6.29607" ry="13.8552" transform="rotate(125.4 1602.89 532.054)" fill="#4E7657" fill-opacity="0.8"/>
<ellipse cx="1449.86" cy="488.951" rx="3.80743" ry="8.05567" transform="rotate(-103.975 1449.86 488.951)" fill="#4E7657" fill-opacity="0.8"/>
<ellipse cx="1461.49" cy="524.76" rx="3.80743" ry="8.05567" transform="rotate(-129.317 1461.49 524.76)" fill="#4E7657" fill-opacity="0.8"/>
<ellipse cx="1477.12" cy="549.991" rx="3.80743" ry="8.05567" transform="rotate(-129.317 1477.12 549.991)" fill="#4E7657" fill-opacity="0.8"/>
<ellipse cx="1470.99" cy="539.821" rx="3.80743" ry="8.05567" transform="rotate(-117.601 1470.99 539.821)" fill="#4E7657" fill-opacity="0.8"/>
<ellipse cx="1453.18" cy="503.554" rx="3.80743" ry="8.05567" transform="rotate(-91.8967 1453.18 503.554)" fill="#4E7657" fill-opacity="0.8"/>
<ellipse cx="1457.35" cy="514.473" rx="3.80743" ry="9.39723" transform="rotate(-98.8195 1457.35 514.473)" fill="#4E7657" fill-opacity="0.8"/>
<ellipse cx="1449.2" cy="478.604" rx="3.80743" ry="8.05567" transform="rotate(-79.7277 1449.2 478.604)" fill="#4E7657" fill-opacity="0.8"/>
<ellipse cx="1452.39" cy="465.649" rx="3.80743" ry="8.05567" transform="rotate(-79.7277 1452.39 465.649)" fill="#4E7657" fill-opacity="0.8"/>
<ellipse cx="1649.23" cy="510.749" rx="6.29607" ry="13.8552" transform="rotate(102.998 1649.23 510.749)" fill="#4E7657" fill-opacity="0.8"/>
<ellipse cx="1637.07" cy="537.359" rx="6.29607" ry="13.8552" transform="rotate(116.466 1637.07 537.359)" fill="#4E7657" fill-opacity="0.8"/>
<ellipse cx="1614.38" cy="560.434" rx="6.29607" ry="13.8552" transform="rotate(133.167 1614.38 560.434)" fill="#4E7657" fill-opacity="0.8"/>
<ellipse cx="1598.48" cy="574.669" rx="6.29607" ry="13.8552" transform="rotate(153.814 1598.48 574.669)" fill="#4E7657" fill-opacity="0.8"/>
<ellipse cx="1554.21" cy="583.046" rx="6.29607" ry="13.8552" transform="rotate(177.683 1554.21 583.046)" fill="#4E7657" fill-opacity="0.8"/>
<ellipse cx="1529.29" cy="581.088" rx="4.22087" ry="11.2352" transform="rotate(-169.771 1529.29 581.088)" fill="#4E7657" fill-opacity="0.8"/>
<ellipse cx="1572.62" cy="581.595" rx="4.22087" ry="11.2352" transform="rotate(167.69 1572.62 581.595)" fill="#4E7657" fill-opacity="0.8"/>
<ellipse cx="1492.67" cy="566.668" rx="4.22087" ry="11.2352" transform="rotate(-144.797 1492.67 566.668)" fill="#4E7657" fill-opacity="0.8"/>
<ellipse cx="1505.58" cy="572.858" rx="4.22087" ry="11.2352" transform="rotate(-160.255 1505.58 572.858)" fill="#4E7657" fill-opacity="0.8"/>
<path d="M1430.35 452.548C1421.06 492.865 1425.91 534.701 1443.83 568.852C1461.75 603.002 1491.27 626.67 1525.91 634.648C1560.54 642.626 1597.44 634.262 1628.5 611.394C1659.55 588.527 1682.22 553.03 1691.51 512.712L1560.93 482.63L1430.35 452.548Z" fill="url(#paint8_linear_7_276)" fill-opacity="0.5"/>
<defs>
<linearGradient id="paint0_linear_7_276" x1="560" y1="400" x2="489.665" y2="829.617" gradientUnits="userSpaceOnUse">
<stop stop-color="#AEE98C"/>
<stop offset="0.576042" stop-color="#8FC476"/>
</linearGradient>
<linearGradient id="paint1_linear_7_276" x1="1030.57" y1="176.779" x2="1030.57" y2="392.215" gradientUnits="userSpaceOnUse">
<stop stop-color="#5AB465"/>
<stop offset="1" stop-color="#4B9766"/>
</linearGradient>
<linearGradient id="paint2_linear_7_276" x1="511" y1="1141" x2="1233" y2="1825" gradientUnits="userSpaceOnUse">
<stop stop-color="#42E499"/>
<stop offset="1" stop-color="#389E86"/>
</linearGradient>
<linearGradient id="paint3_linear_7_276" x1="1682.3" y1="713.426" x2="1682.3" y2="1095.91" gradientUnits="userSpaceOnUse">
<stop stop-color="#7D6860"/>
<stop offset="1" stop-color="#4A3D38"/>
</linearGradient>
<linearGradient id="paint4_linear_7_276" x1="1715.8" y1="748.684" x2="1715.8" y2="1060.68" gradientUnits="userSpaceOnUse">
<stop stop-color="#63E780"/>
<stop offset="1" stop-color="#37A950"/>
</linearGradient>
<linearGradient id="paint5_linear_7_276" x1="1715.8" y1="748.684" x2="1715.8" y2="1060.68" gradientUnits="userSpaceOnUse">
<stop stop-color="#63E780"/>
<stop offset="1" stop-color="#37A950"/>
</linearGradient>
<linearGradient id="paint6_linear_7_276" x1="1527.26" y1="649.211" x2="1761.61" y2="538.036" gradientUnits="userSpaceOnUse">
<stop stop-color="#7D6860"/>
<stop offset="1" stop-color="#3F332F"/>
</linearGradient>
<linearGradient id="paint7_linear_7_276" x1="1525.91" y1="634.648" x2="1595.95" y2="330.612" gradientUnits="userSpaceOnUse">
<stop stop-color="#63E780"/>
<stop offset="1" stop-color="#37A950"/>
</linearGradient>
<linearGradient id="paint8_linear_7_276" x1="1525.91" y1="634.648" x2="1595.95" y2="330.612" gradientUnits="userSpaceOnUse">
<stop stop-color="#63E780"/>
<stop offset="1" stop-color="#37A950"/>
</linearGradient>
</defs>
</svg>
