<svg width="24" height="24" viewBox="0 0 24 24" fill="none" xmlns="http://www.w3.org/2000/svg">
<g clip-path="url(#clip0_5094_29944)">
<path d="M23.0154 16.7681C23.6489 15.3066 24 13.6943 24 12C24 5.37258 18.6274 0 12 0C5.37258 0 0 5.37258 0 12C0 18.6274 5.37258 24 12 24C13.6943 24 15.3066 23.6489 16.7681 23.0154C16.2832 22.2973 16 21.4317 16 20.5C16 18.0147 18.0147 16 20.5 16C21.4317 16 22.2973 16.2832 23.0154 16.7681Z" fill="#B4C4FF"/>
<circle cx="20.5" cy="20.5" r="3.5" fill="#F7D65D"/>
<path d="M20.5 19V20.5H21.5" stroke="#2A2D34" stroke-linecap="round" stroke-linejoin="round"/>
<path d="M5.30071 12.4C4.91018 12.7905 4.91018 13.4236 5.30071 13.8142C5.69123 14.2047 6.32439 14.2047 6.71492 13.8142L5.30071 12.4ZM13.0789 6.03599L14.0787 6.05567C14.0839 5.78863 13.9821 5.53058 13.796 5.33904C13.6098 5.1475 13.3548 5.03839 13.0877 5.03603L13.0789 6.03599ZM9.00968 5.00004C8.45741 4.99516 8.00576 5.43891 8.00089 5.99117C7.99601 6.54344 8.43976 6.99509 8.99202 6.99996L9.00968 5.00004ZM12.001 9.98032C11.9902 10.5325 12.429 10.9889 12.9812 10.9998C13.5333 11.0107 13.9898 10.5719 14.0007 10.0197L12.001 9.98032ZM18.6429 11.6C19.0334 11.2095 19.0334 10.5764 18.6429 10.1858C18.2524 9.79531 17.6192 9.79531 17.2287 10.1858L18.6429 11.6ZM10.8647 17.964L9.8653 17.9297C9.85605 18.1992 9.95602 18.461 10.1426 18.6557C10.3291 18.8505 10.5864 18.9616 10.856 18.964L10.8647 17.964ZM14.9922 19C15.5444 19.0048 15.996 18.561 16.0008 18.0087C16.0056 17.4564 15.5618 17.0048 15.0096 17L14.9922 19ZM12.0003 14.0343C12.0192 13.4824 11.5871 13.0195 11.0352 13.0006C10.4832 12.9816 10.0204 13.4137 10.0014 13.9657L12.0003 14.0343ZM6.71492 13.8142L13.786 6.7431L12.3718 5.32889L5.30071 12.4L6.71492 13.8142ZM8.99202 6.99996L13.0701 7.03595L13.0877 5.03603L9.00968 5.00004L8.99202 6.99996ZM12.0791 6.01631L12.001 9.98032L14.0007 10.0197L14.0787 6.05567L12.0791 6.01631ZM17.2287 10.1858L10.1576 17.2569L11.5718 18.6711L18.6429 11.6L17.2287 10.1858ZM15.0096 17L10.8734 16.964L10.856 18.964L14.9922 19L15.0096 17ZM11.8641 17.9983L12.0003 14.0343L10.0014 13.9657L9.8653 17.9297L11.8641 17.9983Z" fill="#00297A"/>
</g>
<defs>
<clipPath id="clip0_5094_29944">
<rect width="24" height="24" fill="white"/>
</clipPath>
</defs>
</svg>
