<svg width="24" height="24" viewBox="0 0 24 24" fill="none" xmlns="http://www.w3.org/2000/svg">
<g clip-path="url(#clip0_5094_29925)">
<path fill-rule="evenodd" clip-rule="evenodd" d="M23.0154 16.7681C23.6489 15.3066 24 13.6943 24 12C24 5.37258 18.6274 0 12 0C5.37258 0 0 5.37258 0 12C0 18.6274 5.37258 24 12 24C13.6943 24 15.3066 23.6489 16.7681 23.0154C16.2832 22.2973 16 21.4317 16 20.5C16 18.0147 18.0147 16 20.5 16C21.4317 16 22.2973 16.2832 23.0154 16.7681Z" fill="#8EF5C3"/>
<circle cx="20.5" cy="20.5" r="3.5" fill="#D34E50"/>
<path d="M16 8L8 16M8 16H14M8 16V10" stroke="#003921" stroke-width="2.5" stroke-linecap="round" stroke-linejoin="round"/>
<path d="M19.4395 19.4395L20.5001 20.5001L21.5608 21.5608" stroke="#2A2D34" stroke-linecap="round" stroke-linejoin="round"/>
<path d="M19.5 21.5605L20.5607 20.4999L21.6213 19.4392" stroke="#2A2D34" stroke-linecap="round" stroke-linejoin="round"/>
</g>
<defs>
<clipPath id="clip0_5094_29925">
<rect width="24" height="24" fill="white"/>
</clipPath>
</defs>
</svg>
