<svg width="22" height="22" viewBox="0 0 22 22" fill="none" xmlns="http://www.w3.org/2000/svg">
<path d="M5.55104 16.4654C5.53144 16.5046 5.51184 16.5439 5.49224 16.5831C5.29624 17.0541 5.19824 17.5643 5.19824 18.0745C5.19824 18.5847 5.29624 19.095 5.49224 19.5659C5.68824 20.0369 5.98224 20.4686 6.35464 20.8219C6.72704 21.1751 7.15824 21.4695 7.62864 21.6657C8.09904 21.8619 8.62824 21.96 9.13784 21.96C9.64744 21.96 10.1766 21.8619 10.647 21.6657C11.1174 21.4695 11.5682 21.1751 11.921 20.8219L19.1926 13.6395C19.957 12.8938 20.3686 11.8734 20.3686 10.8137C20.3686 9.87174 20.0746 8.94942 19.4278 8.22334C19.1142 8.08597 18.7614 8.04672 18.4086 8.10559C18.095 8.16447 17.8206 8.34108 17.5854 8.55694L10.7058 15.5823C10.5686 15.7197 10.4314 15.8178 10.2746 15.8963C10.353 15.8374 10.451 15.7982 10.5294 15.7393H10.5098C10.5098 15.7393 10.5294 15.7393 10.5294 15.7197C10.5294 15.7197 10.549 15.7197 10.549 15.7C10.5294 15.7 10.5294 15.7197 10.5098 15.7197C9.47104 16.4065 8.21664 16.7597 6.96224 16.6812C6.47224 16.6812 6.00184 16.6027 5.55104 16.4654Z" fill="#104ADE"/>
<path d="M10.5122 15.739C10.5318 15.739 10.5318 15.7194 10.5514 15.7194C10.277 15.8175 10.0026 15.8567 9.7086 15.8371C9.4146 15.7979 9.1598 15.6997 8.9246 15.5428C8.709 15.4054 8.5522 15.2091 8.415 14.9933C8.2974 14.7774 8.219 14.5419 8.1798 14.2868C8.1602 14.0317 8.1994 13.7766 8.2778 13.5411C8.3562 13.3056 8.4934 13.0898 8.6698 12.9132L10.963 10.6172L14.3146 7.30072C14.3146 7.30072 14.3146 7.30072 14.3342 7.2811L14.3538 7.26147L14.8634 6.77088C15.1182 6.71201 15.373 6.69238 15.6474 6.69238C16.2354 6.69238 16.745 6.75125 17.235 6.88862C17.9602 7.04561 18.6266 7.39884 19.1558 7.92869C19.2538 8.02681 19.3518 8.12493 19.4302 8.24267C19.1166 8.1053 18.7442 8.06605 18.411 8.12493C18.0974 8.1838 17.823 8.36041 17.5878 8.57627L10.7082 15.582C10.571 15.7194 10.4338 15.8175 10.277 15.896C10.3554 15.8371 10.4534 15.7979 10.5318 15.739C10.5122 15.739 10.5122 15.739 10.5122 15.739Z" fill="#0038C7"/>
<path d="M16.0775 2.43415C15.9011 2.00243 15.6267 1.59033 15.2739 1.25672C14.8819 0.864242 14.4115 0.55026 13.9019 0.354021C13.3923 0.138158 12.8435 0.0400391 12.2751 0.0400391C11.7263 0.0400391 11.1579 0.157782 10.6483 0.354021C10.1387 0.569884 9.66834 0.864242 9.27634 1.25672L3.29834 7.16351C2.23994 8.20357 1.65194 9.59687 1.63234 11.0687C1.61274 12.5404 2.16154 13.9534 3.18074 15.0327L3.23954 15.0916L3.29834 15.1504C3.35714 15.2093 3.41594 15.2682 3.47474 15.3074C4.43514 16.1316 5.65034 16.6222 6.92434 16.7007C8.19834 16.7792 9.47234 16.426 10.5111 15.7195C10.2367 15.8176 9.96234 15.8569 9.66834 15.8373C9.37434 15.798 9.11954 15.6999 8.88434 15.5429C8.66874 15.4055 8.51194 15.2093 8.37474 14.9934C8.25714 14.7776 8.17874 14.5421 8.13954 14.287C8.11994 14.0319 8.15914 13.7768 8.23754 13.5413C8.31594 13.3058 8.45314 13.0899 8.62954 12.9133L10.9227 10.6173L14.2743 7.30087C14.2939 7.28125 14.2939 7.28125 14.3135 7.26163L15.2151 6.35893C15.7247 5.84871 16.0775 5.20112 16.2147 4.51428C16.4303 3.82745 16.3519 3.10136 16.0775 2.43415Z" fill="#0F75FC"/>
</svg>
