<?xml version="1.0" encoding="UTF-8" standalone="no"?>
<svg
   xmlns:dc="http://purl.org/dc/elements/1.1/"
   xmlns:cc="http://creativecommons.org/ns#"
   xmlns:rdf="http://www.w3.org/1999/02/22-rdf-syntax-ns#"
   xmlns:svg="http://www.w3.org/2000/svg"
   xmlns="http://www.w3.org/2000/svg"
   xmlns:sodipodi="http://sodipodi.sourceforge.net/DTD/sodipodi-0.dtd"
   xmlns:inkscape="http://www.inkscape.org/namespaces/inkscape"
   width="24"
   height="24"
   viewBox="0 0 24 24"
   fill="none"
   version="1.1"
   id="svg18"
   sodipodi:docname="tx-icon-anonymize.svg"
   inkscape:version="0.92.5 (2060ec1f9f, 2020-04-08)">
  <metadata
     id="metadata22">
    <rdf:RDF>
      <cc:Work
         rdf:about="">
        <dc:format>image/svg+xml</dc:format>
        <dc:type
           rdf:resource="http://purl.org/dc/dcmitype/StillImage" />
      </cc:Work>
    </rdf:RDF>
  </metadata>
  <sodipodi:namedview
     pagecolor="#ffffff"
     bordercolor="#666666"
     borderopacity="1"
     objecttolerance="10"
     gridtolerance="10"
     guidetolerance="10"
     inkscape:pageopacity="0"
     inkscape:pageshadow="2"
     inkscape:window-width="2262"
     inkscape:window-height="1263"
     id="namedview20"
     showgrid="false"
     inkscape:zoom="9.8333333"
     inkscape:cx="-15.813559"
     inkscape:cy="12"
     inkscape:window-x="1019"
     inkscape:window-y="569"
     inkscape:window-maximized="0"
     inkscape:current-layer="g8" />
  <g
     clip-path="url(#clip0_5035_57299)"
     id="g8">
    <g
       clip-path="url(#clip1_5035_57299)"
       id="g6"
       transform="matrix(1.6610229,0,0,1.7055051,-7.9831634,-8.2054918)">
      <path
         d="m 9.92728,11.6469 c 0.13122,0.5688 -0.49218,1.0145 -0.9871,0.7028 L 8.27572,11.934 6.88393,14.1606 c -0.3645,0.583 0.05479,1.3393 0.74238,1.3393 h 0.87554 c 0.48235,0 0.87446,0.3916 0.87446,0.8739 0,0.4824 -0.39211,0.8764 -0.87446,0.8764 H 7.62904 c -2.06062,0 -3.31679,-2.2651 -2.22769,-4.0141 L 6.79123,11.0098 6.12514,10.5915 C 5.62994,10.2797 5.75627,9.52505 6.32557,9.3938 L 8.8256,8.81548 C 9.06049,8.7649 9.29838,8.90709 9.35307,9.14498 Z M 12.741,7.15873 13.8689,8.96724 13.2058,9.37959 c -0.4966,0.30925 -0.3711,1.06481 0.199,1.19681 l 2.4992,0.5783 c 0.2358,0.0546 0.4712,-0.0926 0.5253,-0.3284 L 17.0046,8.32631 C 17.1356,7.75728 16.5138,7.31322 16.0183,7.62193 L 15.3522,8.03755 14.2257,6.23396 C 13.1981,4.58951 10.8023,4.58841 9.77416,6.23227 L 9.57182,6.55552 C 9.31752,6.96158 9.4433,7.50381 9.84799,7.75865 10.256,8.01456 10.7987,7.89225 11.0541,7.48412 L 11.2576,7.159 c 0.3486,-0.55754 1.1498,-0.53703 1.4834,-2.7e-4 z m 5.857,6.07957 -0.4646,-0.7454 c -0.2553,-0.4096 -0.7946,-0.5348 -1.2042,-0.2791 -0.4085,0.2548 -0.5338,0.797 -0.2784,1.2053 l 0.4646,0.7424 c 0.365,0.5829 -0.0542,1.3398 -0.7421,1.3398 h -2.6247 l 6e-4,-0.7859 c 0,-0.5846 -0.7068,-0.8774 -1.1203,-0.464 l -1.8159,1.8165 c -0.1701,0.1701 -0.1701,0.4487 2e-4,0.6188 l 1.8161,1.8139 c 0.4135,0.4129 1.1198,0.12 1.1198,-0.4643 l -7e-4,-0.7842 h 2.6212 c 2.0616,3e-4 3.3194,-2.2665 2.2284,-4.0138 z"
         id="path4"
         inkscape:connector-curvature="0"
         style="fill:#494949" />
    </g>
  </g>
  <defs
     id="defs16">
    <clipPath
       id="clip0_5035_57299">
      <rect
         width="24"
         height="24"
         fill="white"
         id="rect10" />
    </clipPath>
    <clipPath
       id="clip1_5035_57299">
      <rect
         width="14"
         height="14"
         fill="white"
         transform="translate(5 5)"
         id="rect13" />
    </clipPath>
  </defs>
</svg>
