<svg width="16" height="16" viewBox="0 0 16 16" fill="none" xmlns="http://www.w3.org/2000/svg">
<path fill-rule="evenodd" clip-rule="evenodd" d="M3.35714 2.28571C3.35714 1.29949 4.15663 0.5 5.14286 0.5L13.7143 0.5C14.1879 0.5 14.6421 0.688137 14.977 1.02302C15.3119 1.35791 15.5 1.81211 15.5 2.28571L15.5 10.8571C15.5 11.8434 14.7005 12.6429 13.7143 12.6429C12.7281 12.6429 11.9286 11.8434 11.9286 10.8571L11.9286 6.59681L3.5484 14.977C2.85104 15.6743 1.72039 15.6743 1.02302 14.977C0.325659 14.2796 0.325659 13.149 1.02302 12.4516L9.40319 4.07143H5.14286C4.15663 4.07143 3.35714 3.27194 3.35714 2.28571Z" fill="#FE805C"/>
</svg>
