<svg width="24" height="24" viewBox="0 0 24 24" fill="none" xmlns="http://www.w3.org/2000/svg">
<path d="M23.2499 2.25V9C23.2499 9.82922 22.5782 10.5 21.7499 10.5H15.7499C14.9217 10.5 14.2499 9.82922 14.2499 9C14.2499 8.17078 14.9217 7.5 15.7499 7.5H17.8302C16.514 5.64844 14.3671 4.5 11.9999 4.5C8.87806 4.5 6.13588 6.49219 5.17963 9.45938C4.9265 10.2469 4.08181 10.6828 3.2901 10.425C2.50213 10.1716 2.069 9.32484 2.324 8.53687C3.68385 4.32844 7.57025 1.5 11.9999 1.5C15.3449 1.5 18.3796 3.11812 20.2499 5.72297V2.25C20.2499 1.42078 20.9216 0.75 21.7499 0.75C22.5782 0.75 23.2499 1.42078 23.2499 2.25Z" fill="white"/>
<path d="M21.675 15.4594C20.3156 19.6734 16.425 22.5 11.9578 22.5C8.65313 22.5 5.62031 20.8828 3.75 18.2766V21.75C3.75 22.5792 3.07828 23.25 2.25 23.25C1.42172 23.25 0.75 22.5792 0.75 21.75V15C0.75 14.1708 1.42172 13.5 2.25 13.5H8.25C9.07828 13.5 9.75 14.1708 9.75 15C9.75 15.8292 9.07828 16.5 8.25 16.5H6.16875C7.48594 18.3516 9.63281 19.5 12 19.5C15.1209 19.5 17.8641 17.5064 18.8203 14.5406C19.0745 13.7541 19.9163 13.3205 20.7094 13.5755C21.4969 13.7859 21.9328 14.6719 21.675 15.4594Z" fill="white"/>
</svg>
