<svg width="16" height="16" viewBox="0 0 16 16" fill="none" xmlns="http://www.w3.org/2000/svg">
<path fill-rule="evenodd" clip-rule="evenodd" d="M12.6429 13.7143C12.6429 14.7005 11.8434 15.5 10.8571 15.5L2.28571 15.5C1.81211 15.5 1.35791 15.3119 1.02302 14.977C0.688136 14.6421 0.5 14.1879 0.5 13.7143L0.500002 5.14286C0.500002 4.15663 1.29949 3.35714 2.28572 3.35714C3.27194 3.35714 4.07143 4.15663 4.07143 5.14286L4.07143 9.40319L12.4516 1.02302C13.149 0.325658 14.2796 0.32566 14.977 1.02302C15.6743 1.72039 15.6743 2.85104 14.977 3.54841L6.59681 11.9286L10.8571 11.9286C11.8434 11.9286 12.6429 12.7281 12.6429 13.7143Z" fill="#00A578"/>
</svg>
