<svg width="25" height="24" viewBox="0 0 25 24" fill="none" xmlns="http://www.w3.org/2000/svg">
<g clip-path="url(#clip0_7503_4777)">
<path d="M24.5 10.5H0.5V6H24.5V10.5Z" fill="#424A97"/>
<path opacity="0.4" d="M21.8333 1.5C23.3042 1.5 24.5 2.84297 24.5 4.5V6H0.5V4.5C0.5 2.84297 1.69375 1.5 3.16667 1.5H21.8333ZM24.5 19.5C24.5 21.1547 23.3042 22.5 21.8333 22.5H3.16667C1.69375 22.5 0.5 21.1547 0.5 19.5V10.5H24.5V19.5ZM5.16667 16.5C4.8 16.5 4.5 16.8375 4.5 17.25C4.5 17.6625 4.8 18 5.16667 18H7.83333C8.2 18 8.5 17.6625 8.5 17.25C8.5 16.8375 8.2 16.5 7.83333 16.5H5.16667ZM10.5 18H15.8333C16.2 18 16.5 17.6625 16.5 17.25C16.5 16.8375 16.2 16.5 15.8333 16.5H10.5C10.1333 16.5 9.83333 16.8375 9.83333 17.25C9.83333 17.6625 10.1333 18 10.5 18Z" fill="#424A97"/>
</g>
<defs>
<clipPath id="clip0_7503_4777">
<rect width="24" height="24" fill="white" transform="translate(0.5)"/>
</clipPath>
</defs>
</svg>
