<svg width="20" height="20" viewBox="0 0 20 20" fill="none" xmlns="http://www.w3.org/2000/svg">
<g clip-path="url(#clip0_7035_24064)">
<path d="M0 10C0 4.47656 4.47656 0 10 0C15.5234 0 20 4.47656 20 10C20 15.5234 15.5234 20 10 20C4.47656 20 0 15.5234 0 10ZM10 14.375C10.5195 14.375 10.9375 13.957 10.9375 13.4375V10.9375H13.4375C13.957 10.9375 14.375 10.5195 14.375 10C14.375 9.48047 13.957 9.0625 13.4375 9.0625H10.9375V6.5625C10.9375 6.04297 10.5195 5.625 10 5.625C9.48047 5.625 9.0625 6.04297 9.0625 6.5625V9.0625H6.5625C6.04297 9.0625 5.625 9.48047 5.625 10C5.625 10.5195 6.04297 10.9375 6.5625 10.9375H9.0625V13.4375C9.0625 13.957 9.48047 14.375 10 14.375Z" fill="#232323"/>
</g>
<defs>
<clipPath id="clip0_7035_24064">
<rect width="20" height="20" fill="white"/>
</clipPath>
</defs>
</svg>
