<svg width="122" height="38" viewBox="0 0 122 38" fill="none" xmlns="http://www.w3.org/2000/svg">
<rect y="0.5" width="122" height="37" rx="8" fill="#FFEAA5"/>
<path d="M25.964 17.6293H24.4128C24.3532 17.2978 24.2421 17.0062 24.0797 16.7543C23.9173 16.5024 23.7185 16.2886 23.4831 16.1129C23.2478 15.9373 22.9843 15.8047 22.6926 15.7152C22.4043 15.6257 22.0977 15.581 21.7729 15.581C21.1863 15.581 20.6609 15.7285 20.1969 16.0234C19.7362 16.3184 19.3716 16.7509 19.1032 17.321C18.838 17.8911 18.7054 18.5871 18.7054 19.4091C18.7054 20.2377 18.838 20.937 19.1032 21.5071C19.3716 22.0772 19.7379 22.508 20.2019 22.7997C20.6659 23.0914 21.1879 23.2372 21.7679 23.2372C22.0894 23.2372 22.3944 23.1941 22.6827 23.108C22.9744 23.0185 23.2379 22.8875 23.4732 22.7152C23.7085 22.5429 23.9074 22.3324 24.0698 22.0838C24.2355 21.8319 24.3498 21.5436 24.4128 21.2188L25.964 21.2237C25.8811 21.7242 25.7203 22.1849 25.4817 22.6058C25.2464 23.0234 24.9431 23.3847 24.5719 23.6896C24.204 23.9912 23.7831 24.2249 23.3091 24.3906C22.8352 24.5563 22.3181 24.6392 21.758 24.6392C20.8764 24.6392 20.0908 24.4304 19.4015 24.0128C18.7121 23.5919 18.1685 22.9903 17.7708 22.2081C17.3764 21.4259 17.1792 20.4929 17.1792 19.4091C17.1792 18.322 17.378 17.389 17.7757 16.6101C18.1735 15.8279 18.717 15.228 19.4064 14.8104C20.0958 14.3894 20.8797 14.179 21.758 14.179C22.2982 14.179 22.802 14.2569 23.2694 14.4126C23.74 14.5651 24.1626 14.7905 24.5371 15.0888C24.9116 15.3838 25.2215 15.745 25.4668 16.1726C25.7121 16.5968 25.8778 17.0824 25.964 17.6293ZM30.8995 24.6541C30.1836 24.6541 29.5588 24.4901 29.0252 24.1619C28.4916 23.8338 28.0773 23.3748 27.7823 22.7848C27.4873 22.1948 27.3398 21.5054 27.3398 20.7166C27.3398 19.9245 27.4873 19.2318 27.7823 18.6385C28.0773 18.0452 28.4916 17.5845 29.0252 17.2564C29.5588 16.9283 30.1836 16.7642 30.8995 16.7642C31.6154 16.7642 32.2402 16.9283 32.7738 17.2564C33.3074 17.5845 33.7217 18.0452 34.0167 18.6385C34.3117 19.2318 34.4592 19.9245 34.4592 20.7166C34.4592 21.5054 34.3117 22.1948 34.0167 22.7848C33.7217 23.3748 33.3074 23.8338 32.7738 24.1619C32.2402 24.4901 31.6154 24.6541 30.8995 24.6541ZM30.9045 23.4062C31.3685 23.4062 31.753 23.2836 32.0579 23.0384C32.3628 22.7931 32.5882 22.4666 32.734 22.0589C32.8832 21.6513 32.9577 21.2022 32.9577 20.7116C32.9577 20.2244 32.8832 19.777 32.734 19.3693C32.5882 18.9583 32.3628 18.6286 32.0579 18.38C31.753 18.1314 31.3685 18.0071 30.9045 18.0071C30.4371 18.0071 30.0494 18.1314 29.7411 18.38C29.4362 18.6286 29.2092 18.9583 29.06 19.3693C28.9142 19.777 28.8413 20.2244 28.8413 20.7116C28.8413 21.2022 28.9142 21.6513 29.06 22.0589C29.2092 22.4666 29.4362 22.7931 29.7411 23.0384C30.0494 23.2836 30.4371 23.4062 30.9045 23.4062ZM37.6049 19.9659V24.5H36.1184V16.8636H37.5453V18.1065H37.6397C37.8154 17.7022 38.0905 17.3774 38.465 17.1321C38.8429 16.8868 39.3185 16.7642 39.8919 16.7642C40.4122 16.7642 40.868 16.8736 41.2591 17.0923C41.6502 17.3078 41.9534 17.6293 42.1689 18.0568C42.3843 18.4844 42.492 19.013 42.492 19.6428V24.5H41.0055V19.8217C41.0055 19.2682 40.8613 18.8357 40.573 18.5241C40.2846 18.2093 39.8886 18.0518 39.3848 18.0518C39.0401 18.0518 38.7335 18.1264 38.465 18.2756C38.1999 18.4247 37.9894 18.6435 37.8336 18.9318C37.6812 19.2169 37.6049 19.5616 37.6049 19.9659ZM45.9721 19.9659V24.5H44.4856V16.8636H45.9125V18.1065H46.0069C46.1826 17.7022 46.4577 17.3774 46.8322 17.1321C47.21 16.8868 47.6857 16.7642 48.2591 16.7642C48.7794 16.7642 49.2351 16.8736 49.6262 17.0923C50.0173 17.3078 50.3206 17.6293 50.536 18.0568C50.7515 18.4844 50.8592 19.013 50.8592 19.6428V24.5H49.3727V19.8217C49.3727 19.2682 49.2285 18.8357 48.9402 18.5241C48.6518 18.2093 48.2557 18.0518 47.752 18.0518C47.4073 18.0518 47.1007 18.1264 46.8322 18.2756C46.5671 18.4247 46.3566 18.6435 46.2008 18.9318C46.0484 19.2169 45.9721 19.5616 45.9721 19.9659ZM56.144 24.6541C55.3916 24.6541 54.7437 24.4934 54.2001 24.1719C53.6599 23.8471 53.2422 23.3913 52.9473 22.8047C52.6556 22.2147 52.5098 21.5237 52.5098 20.7315C52.5098 19.9493 52.6556 19.2599 52.9473 18.6634C53.2422 18.0668 53.6532 17.6011 54.1802 17.2663C54.7105 16.9316 55.3303 16.7642 56.0396 16.7642C56.4705 16.7642 56.8881 16.8355 57.2924 16.978C57.6968 17.1205 58.0597 17.3442 58.3812 17.6491C58.7027 17.9541 58.9563 18.3501 59.1419 18.8374C59.3275 19.3213 59.4203 19.9096 59.4203 20.6023V21.1293H53.35V20.0156H57.9636C57.9636 19.6245 57.8841 19.2782 57.725 18.9766C57.5659 18.6716 57.3422 18.4313 57.0538 18.2557C56.7688 18.08 56.434 17.9922 56.0495 17.9922C55.6319 17.9922 55.2673 18.0949 54.9558 18.3004C54.6475 18.5026 54.4089 18.7678 54.2399 19.0959C54.0742 19.4207 53.9913 19.7737 53.9913 20.1548V21.0249C53.9913 21.5353 54.0808 21.9695 54.2598 22.3274C54.4421 22.6854 54.6956 22.9588 55.0204 23.1477C55.3452 23.3333 55.7247 23.4261 56.1589 23.4261C56.4406 23.4261 56.6975 23.3864 56.9295 23.3068C57.1615 23.224 57.362 23.1013 57.5311 22.9389C57.7001 22.7765 57.8294 22.576 57.9189 22.3374L59.3258 22.5909C59.2131 23.0052 59.0109 23.3681 58.7193 23.6797C58.4309 23.9879 58.068 24.2282 57.6305 24.4006C57.1963 24.5696 56.7008 24.6541 56.144 24.6541ZM64.2862 24.6541C63.5471 24.6541 62.9107 24.4867 62.3771 24.152C61.8468 23.8139 61.4392 23.3482 61.1541 22.755C60.8691 22.1617 60.7266 21.4822 60.7266 20.7166C60.7266 19.9411 60.8724 19.2566 61.1641 18.6634C61.4557 18.0668 61.8667 17.6011 62.397 17.2663C62.9273 16.9316 63.5521 16.7642 64.2713 16.7642C64.8513 16.7642 65.3684 16.8719 65.8224 17.0874C66.2765 17.2995 66.6428 17.5978 66.9212 17.9822C67.2029 18.3667 67.3703 18.8158 67.4233 19.3295H65.9766C65.897 18.9716 65.7147 18.6634 65.4297 18.4048C65.148 18.1463 64.7701 18.017 64.2962 18.017C63.8819 18.017 63.5189 18.1264 63.2074 18.3452C62.8991 18.5606 62.6589 18.8688 62.4865 19.2699C62.3142 19.6676 62.228 20.1383 62.228 20.6818C62.228 21.2386 62.3125 21.7192 62.4815 22.1236C62.6506 22.5279 62.8892 22.8411 63.1974 23.0632C63.509 23.2853 63.8752 23.3963 64.2962 23.3963C64.5779 23.3963 64.8331 23.3449 65.0618 23.2422C65.2938 23.1361 65.4877 22.9853 65.6435 22.7898C65.8026 22.5942 65.9136 22.3589 65.9766 22.0838H67.4233C67.3703 22.5777 67.2095 23.0185 66.9411 23.4062C66.6726 23.794 66.313 24.099 65.8622 24.321C65.4148 24.5431 64.8894 24.6541 64.2862 24.6541ZM72.5776 16.8636V18.0568H68.4064V16.8636H72.5776ZM69.525 15.0341H71.0115V22.2578C71.0115 22.5462 71.0546 22.7633 71.1408 22.9091C71.227 23.0516 71.338 23.1494 71.4739 23.2024C71.6131 23.2521 71.7639 23.277 71.9263 23.277C72.0456 23.277 72.15 23.2687 72.2395 23.2521C72.329 23.2356 72.3986 23.2223 72.4483 23.2124L72.7168 24.4403C72.6306 24.4735 72.508 24.5066 72.3489 24.5398C72.1898 24.5762 71.9909 24.5961 71.7523 24.5994C71.3612 24.6061 70.9966 24.5365 70.6586 24.3906C70.3205 24.2448 70.0471 24.0194 69.8382 23.7145C69.6294 23.4096 69.525 23.0268 69.525 22.5661V15.0341ZM74.2219 24.5V16.8636H75.7085V24.5H74.2219ZM74.9727 15.6854C74.7141 15.6854 74.4921 15.5992 74.3065 15.4268C74.1242 15.2512 74.033 15.0424 74.033 14.8004C74.033 14.5552 74.1242 14.3464 74.3065 14.174C74.4921 13.9983 74.7141 13.9105 74.9727 13.9105C75.2312 13.9105 75.4516 13.9983 75.6339 14.174C75.8195 14.3464 75.9123 14.5552 75.9123 14.8004C75.9123 15.0424 75.8195 15.2512 75.6339 15.4268C75.4516 15.5992 75.2312 15.6854 74.9727 15.6854ZM79.1948 19.9659V24.5H77.7083V16.8636H79.1351V18.1065H79.2296C79.4052 17.7022 79.6803 17.3774 80.0549 17.1321C80.4327 16.8868 80.9083 16.7642 81.4817 16.7642C82.0021 16.7642 82.4578 16.8736 82.8489 17.0923C83.24 17.3078 83.5433 17.6293 83.7587 18.0568C83.9741 18.4844 84.0819 19.013 84.0819 19.6428V24.5H82.5953V19.8217C82.5953 19.2682 82.4512 18.8357 82.1628 18.5241C81.8745 18.2093 81.4784 18.0518 80.9746 18.0518C80.6299 18.0518 80.3233 18.1264 80.0549 18.2756C79.7897 18.4247 79.5792 18.6435 79.4235 18.9318C79.271 19.2169 79.1948 19.5616 79.1948 19.9659ZM89.2772 27.5227C88.6706 27.5227 88.1486 27.4432 87.7111 27.2841C87.2769 27.125 86.9223 26.9145 86.6472 26.6527C86.3721 26.3909 86.1666 26.1042 86.0307 25.7926L87.3084 25.2656C87.3979 25.4115 87.5172 25.5656 87.6664 25.728C87.8188 25.8937 88.0243 26.0346 88.2828 26.1506C88.5447 26.2666 88.8811 26.3246 89.2921 26.3246C89.8555 26.3246 90.3212 26.187 90.6891 25.9119C91.057 25.6402 91.2409 25.206 91.2409 24.6094V23.108H91.1465C91.057 23.2704 90.9277 23.451 90.7587 23.6499C90.593 23.8487 90.3643 24.0211 90.0726 24.1669C89.781 24.3127 89.4015 24.3857 88.9341 24.3857C88.3309 24.3857 87.7873 24.2448 87.3034 23.9631C86.8229 23.678 86.4417 23.2588 86.16 22.7053C85.8816 22.1484 85.7424 21.464 85.7424 20.652C85.7424 19.84 85.8799 19.1439 86.155 18.5639C86.4334 17.9839 86.8146 17.5398 87.2985 17.2315C87.7824 16.92 88.3309 16.7642 88.9441 16.7642C89.418 16.7642 89.8008 16.8438 90.0925 17.0028C90.3842 17.1586 90.6112 17.3409 90.7736 17.5497C90.9393 17.7585 91.0669 17.9425 91.1564 18.1016H91.2658V16.8636H92.7225V24.669C92.7225 25.3253 92.57 25.8639 92.2651 26.2848C91.9602 26.7057 91.5475 27.0173 91.0272 27.2195C90.5101 27.4216 89.9268 27.5227 89.2772 27.5227ZM89.2623 23.1527C89.6898 23.1527 90.0511 23.0533 90.3461 22.8544C90.6444 22.6522 90.8697 22.3639 91.0222 21.9893C91.178 21.6115 91.2559 21.1591 91.2559 20.6321C91.2559 20.1184 91.1796 19.666 91.0272 19.2749C90.8747 18.8838 90.651 18.5788 90.356 18.3601C90.061 18.138 89.6964 18.027 89.2623 18.027C88.8148 18.027 88.4419 18.143 88.1436 18.375C87.8453 18.6037 87.62 18.9152 87.4675 19.3097C87.3184 19.7041 87.2438 20.1449 87.2438 20.6321C87.2438 21.1326 87.32 21.5717 87.4725 21.9496C87.6249 22.3274 87.8503 22.6224 88.1486 22.8345C88.4502 23.0466 88.8214 23.1527 89.2623 23.1527ZM95.6955 24.5945C95.4237 24.5945 95.19 24.4983 94.9945 24.3061C94.7989 24.1106 94.7012 23.8752 94.7012 23.6001C94.7012 23.3284 94.7989 23.0964 94.9945 22.9041C95.19 22.7086 95.4237 22.6108 95.6955 22.6108C95.9673 22.6108 96.2009 22.7086 96.3965 22.9041C96.592 23.0964 96.6898 23.3284 96.6898 23.6001C96.6898 23.7824 96.6434 23.9498 96.5506 24.1023C96.4611 24.2514 96.3418 24.3707 96.1926 24.4602C96.0435 24.5497 95.8778 24.5945 95.6955 24.5945ZM99.6603 24.5945C99.3886 24.5945 99.1549 24.4983 98.9593 24.3061C98.7638 24.1106 98.666 23.8752 98.666 23.6001C98.666 23.3284 98.7638 23.0964 98.9593 22.9041C99.1549 22.7086 99.3886 22.6108 99.6603 22.6108C99.9321 22.6108 100.166 22.7086 100.361 22.9041C100.557 23.0964 100.655 23.3284 100.655 23.6001C100.655 23.7824 100.608 23.9498 100.515 24.1023C100.426 24.2514 100.307 24.3707 100.157 24.4602C100.008 24.5497 99.8426 24.5945 99.6603 24.5945ZM103.625 24.5945C103.353 24.5945 103.12 24.4983 102.924 24.3061C102.729 24.1106 102.631 23.8752 102.631 23.6001C102.631 23.3284 102.729 23.0964 102.924 22.9041C103.12 22.7086 103.353 22.6108 103.625 22.6108C103.897 22.6108 104.131 22.7086 104.326 22.9041C104.522 23.0964 104.619 23.3284 104.619 23.6001C104.619 23.7824 104.573 23.9498 104.48 24.1023C104.391 24.2514 104.271 24.3707 104.122 24.4602C103.973 24.5497 103.807 24.5945 103.625 24.5945Z" fill="#AF8E17"/>
</svg>
