<svg width="16" height="16" viewBox="0 0 16 16" fill="none" xmlns="http://www.w3.org/2000/svg">
<path d="M12.7616 1.3335H3.23777C2.18479 1.3335 1.33301 2.18528 1.33301 3.23826V12.7621C1.33301 13.815 2.18479 14.6668 3.23777 14.6668H12.7616C13.8146 14.6668 14.6663 13.815 14.6663 12.7621V3.23826C14.6663 2.18528 13.8152 1.3335 12.7616 1.3335ZM5.14253 11.8097C4.61813 11.8097 4.19015 11.3817 4.19015 10.8573C4.19015 10.3329 4.61813 9.90493 5.14253 9.90493C5.66694 9.90493 6.09491 10.3329 6.09491 10.8573C6.09491 11.3817 5.66634 11.8097 5.14253 11.8097ZM5.14253 6.0954C4.61872 6.0954 4.19015 5.66683 4.19015 5.14302C4.19015 4.61921 4.61813 4.19064 5.14253 4.19064C5.66694 4.19064 6.09491 4.61862 6.09491 5.14302C6.09491 5.66743 5.66634 6.0954 5.14253 6.0954ZM7.99967 8.95254C7.47587 8.95254 7.04729 8.52397 7.04729 8.00016C7.04729 7.47635 7.47527 7.04778 7.99967 7.04778C8.52408 7.04778 8.95206 7.47576 8.95206 8.00016C8.95206 8.52457 8.52348 8.95254 7.99967 8.95254ZM10.8568 11.8097C10.3324 11.8097 9.90444 11.3817 9.90444 10.8573C9.90444 10.3329 10.3324 9.90493 10.8568 9.90493C11.3812 9.90493 11.8092 10.3329 11.8092 10.8573C11.8092 11.3817 11.3806 11.8097 10.8568 11.8097ZM10.8568 6.0954C10.3324 6.0954 9.90444 5.66743 9.90444 5.14302C9.90444 4.61862 10.3324 4.19064 10.8568 4.19064C11.3812 4.19064 11.8092 4.61862 11.8092 5.14302C11.8092 5.66743 11.3806 6.0954 10.8568 6.0954Z" fill="#747778"/>
</svg>
