<svg width="125" height="38" viewBox="0 0 125 38" fill="none" xmlns="http://www.w3.org/2000/svg">
<rect y="0.5" width="125" height="37" rx="8" fill="#E0E3E3"/>
<path d="M20.6765 24.5H17.3803V14.3182H20.7809C21.7785 14.3182 22.6353 14.522 23.3512 14.9297C24.0671 15.334 24.6156 15.9157 24.9968 16.6747C25.3813 17.4304 25.5735 18.3369 25.5735 19.3942C25.5735 20.4548 25.3796 21.3662 24.9918 22.1286C24.6074 22.8909 24.0505 23.4775 23.3214 23.8885C22.5922 24.2962 21.7106 24.5 20.6765 24.5ZM18.9165 23.1577H20.592C21.3675 23.1577 22.0122 23.0118 22.5259 22.7202C23.0397 22.4252 23.4241 21.9993 23.6793 21.4425C23.9345 20.8823 24.0621 20.1996 24.0621 19.3942C24.0621 18.5954 23.9345 17.9176 23.6793 17.3608C23.4274 16.804 23.0513 16.3814 22.5508 16.093C22.0503 15.8047 21.4289 15.6605 20.6864 15.6605H18.9165V23.1577ZM27.3645 24.5V16.8636H28.851V24.5H27.3645ZM28.1152 15.6854C27.8567 15.6854 27.6346 15.5992 27.449 15.4268C27.2667 15.2512 27.1756 15.0424 27.1756 14.8004C27.1756 14.5552 27.2667 14.3464 27.449 14.174C27.6346 13.9983 27.8567 13.9105 28.1152 13.9105C28.3738 13.9105 28.5942 13.9983 28.7765 14.174C28.9621 14.3464 29.0549 14.5552 29.0549 14.8004C29.0549 15.0424 28.9621 15.2512 28.7765 15.4268C28.5942 15.5992 28.3738 15.6854 28.1152 15.6854ZM36.5732 18.728L35.2259 18.9666C35.1695 18.7943 35.08 18.6302 34.9574 18.4744C34.8381 18.3187 34.6757 18.1911 34.4702 18.0916C34.2647 17.9922 34.0078 17.9425 33.6996 17.9425C33.2786 17.9425 32.9273 18.0369 32.6456 18.2259C32.3639 18.4115 32.223 18.6518 32.223 18.9467C32.223 19.2019 32.3175 19.4074 32.5064 19.5632C32.6953 19.719 33.0002 19.8466 33.4212 19.946L34.6342 20.2244C35.3369 20.3868 35.8606 20.6371 36.2053 20.9751C36.55 21.3132 36.7223 21.7524 36.7223 22.2926C36.7223 22.75 36.5897 23.1577 36.3246 23.5156C36.0627 23.8703 35.6965 24.1487 35.2259 24.3509C34.7585 24.553 34.2166 24.6541 33.6001 24.6541C32.745 24.6541 32.0473 24.4718 31.5071 24.1072C30.9669 23.7393 30.6354 23.2173 30.5128 22.5412L31.9496 22.3224C32.0391 22.697 32.223 22.9804 32.5014 23.1726C32.7798 23.3615 33.1428 23.456 33.5902 23.456C34.0774 23.456 34.4669 23.3549 34.7585 23.1527C35.0502 22.9472 35.196 22.697 35.196 22.402C35.196 22.1634 35.1065 21.9628 34.9276 21.8004C34.7519 21.638 34.4818 21.5154 34.1172 21.4325L32.8246 21.1491C32.112 20.9867 31.585 20.7282 31.2436 20.3736C30.9055 20.0189 30.7365 19.5698 30.7365 19.0263C30.7365 18.5755 30.8625 18.1811 31.1143 17.843C31.3662 17.505 31.7143 17.2415 32.1584 17.0526C32.6025 16.8603 33.1113 16.7642 33.6847 16.7642C34.5099 16.7642 35.1596 16.9432 35.6335 17.3011C36.1075 17.6558 36.4207 18.1314 36.5732 18.728ZM41.5733 24.6541C40.8342 24.6541 40.1979 24.4867 39.6642 24.152C39.1339 23.8139 38.7263 23.3482 38.4412 22.755C38.1562 22.1617 38.0137 21.4822 38.0137 20.7166C38.0137 19.9411 38.1595 19.2566 38.4512 18.6634C38.7428 18.0668 39.1538 17.6011 39.6841 17.2663C40.2144 16.9316 40.8392 16.7642 41.5584 16.7642C42.1384 16.7642 42.6555 16.8719 43.1096 17.0874C43.5636 17.2995 43.9299 17.5978 44.2083 17.9822C44.49 18.3667 44.6574 18.8158 44.7104 19.3295H43.2637C43.1841 18.9716 43.0018 18.6634 42.7168 18.4048C42.4351 18.1463 42.0572 18.017 41.5833 18.017C41.169 18.017 40.806 18.1264 40.4945 18.3452C40.1863 18.5606 39.946 18.8688 39.7736 19.2699C39.6013 19.6676 39.5151 20.1383 39.5151 20.6818C39.5151 21.2386 39.5996 21.7192 39.7686 22.1236C39.9377 22.5279 40.1763 22.8411 40.4846 23.0632C40.7961 23.2853 41.1623 23.3963 41.5833 23.3963C41.865 23.3963 42.1202 23.3449 42.3489 23.2422C42.5809 23.1361 42.7748 22.9853 42.9306 22.7898C43.0897 22.5942 43.2007 22.3589 43.2637 22.0838H44.7104C44.6574 22.5777 44.4966 23.0185 44.2282 23.4062C43.9597 23.794 43.6001 24.099 43.1493 24.321C42.7019 24.5431 42.1766 24.6541 41.5733 24.6541ZM49.5167 24.6541C48.8008 24.6541 48.176 24.4901 47.6424 24.1619C47.1088 23.8338 46.6945 23.3748 46.3995 22.7848C46.1045 22.1948 45.957 21.5054 45.957 20.7166C45.957 19.9245 46.1045 19.2318 46.3995 18.6385C46.6945 18.0452 47.1088 17.5845 47.6424 17.2564C48.176 16.9283 48.8008 16.7642 49.5167 16.7642C50.2326 16.7642 50.8574 16.9283 51.391 17.2564C51.9246 17.5845 52.3389 18.0452 52.6339 18.6385C52.9289 19.2318 53.0763 19.9245 53.0763 20.7166C53.0763 21.5054 52.9289 22.1948 52.6339 22.7848C52.3389 23.3748 51.9246 23.8338 51.391 24.1619C50.8574 24.4901 50.2326 24.6541 49.5167 24.6541ZM49.5217 23.4062C49.9857 23.4062 50.3701 23.2836 50.6751 23.0384C50.98 22.7931 51.2054 22.4666 51.3512 22.0589C51.5004 21.6513 51.5749 21.2022 51.5749 20.7116C51.5749 20.2244 51.5004 19.777 51.3512 19.3693C51.2054 18.9583 50.98 18.6286 50.6751 18.38C50.3701 18.1314 49.9857 18.0071 49.5217 18.0071C49.0543 18.0071 48.6665 18.1314 48.3583 18.38C48.0534 18.6286 47.8263 18.9583 47.6772 19.3693C47.5314 19.777 47.4585 20.2244 47.4585 20.7116C47.4585 21.2022 47.5314 21.6513 47.6772 22.0589C47.8263 22.4666 48.0534 22.7931 48.3583 23.0384C48.6665 23.2836 49.0543 23.4062 49.5217 23.4062ZM56.2221 19.9659V24.5H54.7356V16.8636H56.1625V18.1065H56.2569C56.4326 17.7022 56.7077 17.3774 57.0822 17.1321C57.46 16.8868 57.9357 16.7642 58.5091 16.7642C59.0294 16.7642 59.4851 16.8736 59.8762 17.0923C60.2673 17.3078 60.5706 17.6293 60.786 18.0568C61.0015 18.4844 61.1092 19.013 61.1092 19.6428V24.5H59.6227V19.8217C59.6227 19.2682 59.4785 18.8357 59.1902 18.5241C58.9018 18.2093 58.5057 18.0518 58.002 18.0518C57.6573 18.0518 57.3507 18.1264 57.0822 18.2756C56.8171 18.4247 56.6066 18.6435 56.4508 18.9318C56.2984 19.2169 56.2221 19.5616 56.2221 19.9659ZM64.5893 19.9659V24.5H63.1028V16.8636H64.5297V18.1065H64.6241C64.7998 17.7022 65.0749 17.3774 65.4494 17.1321C65.8272 16.8868 66.3029 16.7642 66.8762 16.7642C67.3966 16.7642 67.8523 16.8736 68.2434 17.0923C68.6345 17.3078 68.9378 17.6293 69.1532 18.0568C69.3687 18.4844 69.4764 19.013 69.4764 19.6428V24.5H67.9899V19.8217C67.9899 19.2682 67.8457 18.8357 67.5574 18.5241C67.269 18.2093 66.8729 18.0518 66.3691 18.0518C66.0244 18.0518 65.7179 18.1264 65.4494 18.2756C65.1842 18.4247 64.9738 18.6435 64.818 18.9318C64.6655 19.2169 64.5893 19.5616 64.5893 19.9659ZM74.7612 24.6541C74.0088 24.6541 73.3609 24.4934 72.8173 24.1719C72.277 23.8471 71.8594 23.3913 71.5645 22.8047C71.2728 22.2147 71.127 21.5237 71.127 20.7315C71.127 19.9493 71.2728 19.2599 71.5645 18.6634C71.8594 18.0668 72.2704 17.6011 72.7974 17.2663C73.3277 16.9316 73.9475 16.7642 74.6568 16.7642C75.0877 16.7642 75.5053 16.8355 75.9096 16.978C76.314 17.1205 76.6769 17.3442 76.9984 17.6491C77.3199 17.9541 77.5734 18.3501 77.7591 18.8374C77.9447 19.3213 78.0375 19.9096 78.0375 20.6023V21.1293H71.9672V20.0156H76.5808C76.5808 19.6245 76.5012 19.2782 76.3422 18.9766C76.1831 18.6716 75.9593 18.4313 75.671 18.2557C75.3859 18.08 75.0512 17.9922 74.6667 17.9922C74.2491 17.9922 73.8845 18.0949 73.573 18.3004C73.2647 18.5026 73.0261 18.7678 72.8571 19.0959C72.6913 19.4207 72.6085 19.7737 72.6085 20.1548V21.0249C72.6085 21.5353 72.698 21.9695 72.877 22.3274C73.0592 22.6854 73.3128 22.9588 73.6376 23.1477C73.9624 23.3333 74.3419 23.4261 74.7761 23.4261C75.0578 23.4261 75.3147 23.3864 75.5467 23.3068C75.7787 23.224 75.9792 23.1013 76.1483 22.9389C76.3173 22.7765 76.4466 22.576 76.536 22.3374L77.943 22.5909C77.8303 23.0052 77.6281 23.3681 77.3365 23.6797C77.0481 23.9879 76.6852 24.2282 76.2477 24.4006C75.8135 24.5696 75.318 24.6541 74.7612 24.6541ZM82.9034 24.6541C82.1643 24.6541 81.5279 24.4867 80.9943 24.152C80.464 23.8139 80.0563 23.3482 79.7713 22.755C79.4863 22.1617 79.3438 21.4822 79.3438 20.7166C79.3438 19.9411 79.4896 19.2566 79.7812 18.6634C80.0729 18.0668 80.4839 17.6011 81.0142 17.2663C81.5445 16.9316 82.1693 16.7642 82.8885 16.7642C83.4685 16.7642 83.9856 16.8719 84.4396 17.0874C84.8937 17.2995 85.2599 17.5978 85.5384 17.9822C85.8201 18.3667 85.9875 18.8158 86.0405 19.3295H84.5938C84.5142 18.9716 84.3319 18.6634 84.0469 18.4048C83.7652 18.1463 83.3873 18.017 82.9134 18.017C82.4991 18.017 82.1361 18.1264 81.8246 18.3452C81.5163 18.5606 81.276 18.8688 81.1037 19.2699C80.9313 19.6676 80.8452 20.1383 80.8452 20.6818C80.8452 21.2386 80.9297 21.7192 81.0987 22.1236C81.2678 22.5279 81.5064 22.8411 81.8146 23.0632C82.1262 23.2853 82.4924 23.3963 82.9134 23.3963C83.1951 23.3963 83.4503 23.3449 83.679 23.2422C83.911 23.1361 84.1049 22.9853 84.2607 22.7898C84.4197 22.5942 84.5308 22.3589 84.5938 22.0838H86.0405C85.9875 22.5777 85.8267 23.0185 85.5582 23.4062C85.2898 23.794 84.9302 24.099 84.4794 24.321C84.032 24.5431 83.5066 24.6541 82.9034 24.6541ZM91.1948 16.8636V18.0568H87.0236V16.8636H91.1948ZM88.1422 15.0341H89.6287V22.2578C89.6287 22.5462 89.6718 22.7633 89.758 22.9091C89.8442 23.0516 89.9552 23.1494 90.0911 23.2024C90.2303 23.2521 90.3811 23.277 90.5435 23.277C90.6628 23.277 90.7672 23.2687 90.8567 23.2521C90.9462 23.2356 91.0158 23.2223 91.0655 23.2124L91.334 24.4403C91.2478 24.4735 91.1252 24.5066 90.9661 24.5398C90.807 24.5762 90.6081 24.5961 90.3695 24.5994C89.9784 24.6061 89.6138 24.5365 89.2757 24.3906C88.9377 24.2448 88.6642 24.0194 88.4554 23.7145C88.2466 23.4096 88.1422 23.0268 88.1422 22.5661V15.0341ZM96.0483 24.6541C95.2959 24.6541 94.648 24.4934 94.1044 24.1719C93.5642 23.8471 93.1465 23.3913 92.8516 22.8047C92.5599 22.2147 92.4141 21.5237 92.4141 20.7315C92.4141 19.9493 92.5599 19.2599 92.8516 18.6634C93.1465 18.0668 93.5575 17.6011 94.0845 17.2663C94.6148 16.9316 95.2346 16.7642 95.9439 16.7642C96.3748 16.7642 96.7924 16.8355 97.1967 16.978C97.6011 17.1205 97.964 17.3442 98.2855 17.6491C98.607 17.9541 98.8606 18.3501 99.0462 18.8374C99.2318 19.3213 99.3246 19.9096 99.3246 20.6023V21.1293H93.2543V20.0156H97.8679C97.8679 19.6245 97.7884 19.2782 97.6293 18.9766C97.4702 18.6716 97.2464 18.4313 96.9581 18.2557C96.6731 18.08 96.3383 17.9922 95.9538 17.9922C95.5362 17.9922 95.1716 18.0949 94.8601 18.3004C94.5518 18.5026 94.3132 18.7678 94.1442 19.0959C93.9785 19.4207 93.8956 19.7737 93.8956 20.1548V21.0249C93.8956 21.5353 93.9851 21.9695 94.1641 22.3274C94.3464 22.6854 94.5999 22.9588 94.9247 23.1477C95.2495 23.3333 95.629 23.4261 96.0632 23.4261C96.3449 23.4261 96.6018 23.3864 96.8338 23.3068C97.0658 23.224 97.2663 23.1013 97.4354 22.9389C97.6044 22.7765 97.7337 22.576 97.8232 22.3374L99.2301 22.5909C99.1174 23.0052 98.9152 23.3681 98.6236 23.6797C98.3352 23.9879 97.9723 24.2282 97.5348 24.4006C97.1006 24.5696 96.6051 24.6541 96.0483 24.6541ZM103.833 24.6491C103.216 24.6491 102.666 24.4917 102.182 24.1768C101.701 23.8587 101.324 23.4062 101.048 22.8196C100.777 22.2296 100.641 21.522 100.641 20.6967C100.641 19.8714 100.778 19.1655 101.053 18.5788C101.332 17.9922 101.713 17.5431 102.197 17.2315C102.681 16.92 103.229 16.7642 103.843 16.7642C104.316 16.7642 104.698 16.8438 104.986 17.0028C105.278 17.1586 105.503 17.3409 105.662 17.5497C105.825 17.7585 105.95 17.9425 106.04 18.1016H106.129V14.3182H107.616V24.5H106.164V23.3118H106.04C105.95 23.4742 105.821 23.6598 105.652 23.8686C105.486 24.0774 105.258 24.2597 104.966 24.4155C104.674 24.5713 104.297 24.6491 103.833 24.6491ZM104.161 23.3814C104.588 23.3814 104.95 23.2687 105.244 23.0433C105.543 22.8146 105.768 22.4981 105.921 22.0938C106.076 21.6894 106.154 21.2187 106.154 20.6818C106.154 20.1515 106.078 19.6875 105.926 19.2898C105.773 18.892 105.549 18.5821 105.254 18.3601C104.959 18.138 104.595 18.027 104.161 18.027C103.713 18.027 103.34 18.143 103.042 18.375C102.744 18.607 102.518 18.9235 102.366 19.3246C102.217 19.7256 102.142 20.178 102.142 20.6818C102.142 21.1922 102.218 21.6513 102.371 22.0589C102.523 22.4666 102.749 22.7898 103.047 23.0284C103.349 23.2637 103.72 23.3814 104.161 23.3814Z" fill="#8E9192"/>
</svg>
