<svg width="48" height="48" viewBox="0 0 48 48" fill="none" xmlns="http://www.w3.org/2000/svg">
<rect width="48" height="48" rx="24" fill="#E0E3E3"/>
<path d="M23.659 10.0005C24.8164 10.0005 25.7475 10.9367 25.7475 12.1005V13.483C26.8701 13.623 27.9926 13.973 29.089 14.2792C30.2029 14.5855 30.8555 15.7405 30.5423 16.8605C30.2377 17.9805 29.089 18.6367 27.9752 18.3217C27.1485 18.0942 26.3218 17.8492 25.4777 17.683C24.2073 17.438 22.7279 17.5517 21.5358 18.0767C20.4654 18.5405 19.5865 19.6605 20.7961 20.4392C21.9448 21.183 23.3893 21.4805 24.6772 21.8567C26.1913 22.2855 28.1144 22.8367 29.5589 23.8255C31.4386 25.1205 32.3175 27.2205 31.8998 29.478C31.5082 31.6567 29.994 33.0917 28.184 33.8267C27.4357 34.133 26.609 34.2467 25.7475 34.4217V35.9005C25.7475 37.0642 24.8164 38.0005 23.659 38.0005C22.5017 38.0005 21.5706 37.0642 21.5706 35.9005L21.4923 34.2117C20.1696 33.8967 18.7947 33.4417 17.4372 32.9955C16.3407 32.628 15.749 31.438 16.1058 30.3442C16.4713 29.2417 17.5764 28.6467 18.7425 29.0055C20.0738 29.443 21.4313 29.968 22.8063 30.178C24.4509 30.423 25.7649 30.2742 26.6264 29.9242C27.7838 29.4605 28.332 28.078 27.2007 27.2905C26.0347 26.4942 24.5379 26.1792 23.2065 25.803C21.7446 25.383 19.9259 24.8667 18.551 23.983C16.6627 22.7667 15.7055 20.7367 16.1145 18.5055C16.4974 16.3792 18.142 14.9705 19.8737 14.218C20.4045 13.9905 20.9788 13.8067 21.4923 13.6667V12.1005C21.4923 10.9367 22.5017 10.0005 23.5807 10.0005H23.659Z" fill="#232323"/>
</svg>
