<svg width="22" height="22" viewBox="0 0 22 22" fill="none" xmlns="http://www.w3.org/2000/svg">
<path fill-rule="evenodd" clip-rule="evenodd" d="M14.6833 9.7885L12.2129 7.31808L13.9985 5.5315L16.468 8.001L14.6833 9.7885ZM17.7863 6.72592L17.7853 6.725L15.2755 4.21517C14.5963 3.53775 13.4293 3.50567 12.7858 4.15192L4.5395 12.3982C4.24067 12.6962 4.0555 13.0922 4.017 13.5111L3.66959 17.3336C3.64575 17.604 3.742 17.8717 3.9345 18.0642C4.10775 18.2374 4.3415 18.3327 4.58259 18.3327C4.611 18.3327 4.6385 18.3318 4.666 18.3291L8.4885 17.9817C8.90834 17.9432 9.30342 17.7589 9.60134 17.461L17.8486 9.21375C18.5159 8.54458 18.4875 7.42808 17.7863 6.72592Z" fill="#BABABC"/>
<mask id="mask0_1801_35601" style="mask-type:alpha" maskUnits="userSpaceOnUse" x="3" y="3" width="16" height="16">
<path fill-rule="evenodd" clip-rule="evenodd" d="M14.6833 9.7885L12.2129 7.31808L13.9985 5.5315L16.468 8.001L14.6833 9.7885ZM17.7863 6.72592L17.7853 6.725L15.2755 4.21517C14.5963 3.53775 13.4293 3.50567 12.7858 4.15192L4.5395 12.3982C4.24067 12.6962 4.0555 13.0922 4.017 13.5111L3.66959 17.3336C3.64575 17.604 3.742 17.8717 3.9345 18.0642C4.10775 18.2374 4.3415 18.3327 4.58259 18.3327C4.611 18.3327 4.6385 18.3318 4.666 18.3291L8.4885 17.9817C8.90834 17.9432 9.30342 17.7589 9.60134 17.461L17.8486 9.21375C18.5159 8.54458 18.4875 7.42808 17.7863 6.72592Z" fill="white"/>
</mask>
<g mask="url(#mask0_1801_35601)">
<rect width="22" height="22" fill="#BABABC"/>
</g>
</svg>
