<svg width="6" height="20" viewBox="0 0 6 20" fill="none" xmlns="http://www.w3.org/2000/svg">
<g clip-path="url(#clip0_3961_13915)">
<path d="M3 18.4375C1.7918 18.4375 0.8125 17.457 0.8125 16.25C0.8125 15.043 1.7918 14.0625 3 14.0625C4.2082 14.0625 5.1875 15.043 5.1875 16.25C5.1875 17.457 4.2082 18.4375 3 18.4375ZM3 5.9375C1.7918 5.9375 0.8125 4.95703 0.8125 3.75C0.8125 2.5418 1.7918 1.5625 3 1.5625C4.2082 1.5625 5.1875 2.5418 5.1875 3.75C5.1875 4.95703 4.2082 5.9375 3 5.9375Z" fill="#232323"/>
<path d="M3 7.8125C4.2082 7.8125 5.1875 8.79297 5.1875 10C5.1875 11.207 4.2082 12.1875 3 12.1875C1.7918 12.1875 0.8125 11.207 0.8125 10C0.8125 8.79297 1.7918 7.8125 3 7.8125Z" fill="#232323"/>
</g>
<defs>
<clipPath id="clip0_3961_13915">
<rect width="5" height="20" fill="white" transform="translate(0.5)"/>
</clipPath>
</defs>
</svg>
