<svg width="281" height="324" viewBox="0 0 281 324" fill="none" xmlns="http://www.w3.org/2000/svg">
<path d="M253.678 72.4431C256.503 70.801 256.503 66.7288 253.678 65.1524L225.895 49.126C224.581 48.4035 223.005 48.4035 221.691 49.126L202.644 60.0949L238.966 81.0474L253.678 72.4431Z" fill="url(#paint0_linear_1901_42331)" fill-opacity="0.02"/>
<path d="M83.7588 131.031V163.806C83.7588 167.09 87.3056 169.126 90.1299 167.484L232.528 84.7253L196.206 63.7729L85.8606 127.419C84.547 128.141 83.7588 129.52 83.7588 131.031Z" fill="url(#paint1_linear_1901_42331)" fill-opacity="0.02"/>
<path d="M111.084 211.36L140.115 228.108C141.429 228.831 143.005 228.831 144.319 228.108L253.482 165.12V121.244L111.084 204.003C108.26 205.645 108.325 209.717 111.084 211.36Z" fill="url(#paint2_linear_1901_42331)" fill-opacity="0.02"/>
<path d="M278.899 150.473C280.213 149.75 281.001 148.305 281.001 146.795V112.64C281.001 109.356 277.454 107.32 274.63 108.962L259.917 117.501V161.376L278.899 150.473Z" fill="url(#paint3_linear_1901_42331)" fill-opacity="0.02"/>
<path d="M140.705 323.544H140.771L181.034 300.293V300.227L280.673 242.756V196.187L259.983 208.141L253.546 211.82L176.961 256.023L140.705 276.976L41.1313 219.504V104.561L153.973 39.405L160.344 35.7268L181.034 23.7727L140.705 0.455658L0.802734 81.2442V242.756L140.705 323.544Z" fill="url(#paint4_linear_1901_42331)" fill-opacity="0.02"/>
<defs>
<linearGradient id="paint0_linear_1901_42331" x1="196.421" y1="53.914" x2="237.656" y2="96.1208" gradientUnits="userSpaceOnUse">
<stop stop-color="#E5E5E5"/>
<stop offset="1" stop-color="#E5E5E5" stop-opacity="0.5"/>
</linearGradient>
<linearGradient id="paint1_linear_1901_42331" x1="66.3424" y1="80.8954" x2="197.987" y2="198.288" gradientUnits="userSpaceOnUse">
<stop stop-color="#E5E5E5"/>
<stop offset="1" stop-color="#E5E5E5" stop-opacity="0.5"/>
</linearGradient>
<linearGradient id="paint2_linear_1901_42331" x1="92.0746" y1="138.878" x2="226.52" y2="251.945" gradientUnits="userSpaceOnUse">
<stop stop-color="#E5E5E5"/>
<stop offset="1" stop-color="#E5E5E5" stop-opacity="0.5"/>
</linearGradient>
<linearGradient id="paint3_linear_1901_42331" x1="257.449" y1="117.082" x2="288.991" y2="124.927" gradientUnits="userSpaceOnUse">
<stop stop-color="#E5E5E5"/>
<stop offset="1" stop-color="#E5E5E5" stop-opacity="0.5"/>
</linearGradient>
<linearGradient id="paint4_linear_1901_42331" x1="-31.9616" y1="53.5001" x2="311.818" y2="239.662" gradientUnits="userSpaceOnUse">
<stop stop-color="#E5E5E5"/>
<stop offset="1" stop-color="#E5E5E5" stop-opacity="0.5"/>
</linearGradient>
</defs>
</svg>
