<svg width="24" height="24" viewBox="0 0 24 24" fill="none" xmlns="http://www.w3.org/2000/svg">
<path fill-rule="evenodd" clip-rule="evenodd" d="M14.6695 1.06575C15.1855 0.607104 15.9756 0.65358 16.4343 1.16956L20.4343 5.66956C20.8552 6.14317 20.8552 6.85686 20.4343 7.33047L16.4343 11.8305C15.9756 12.3464 15.1855 12.3929 14.6695 11.9343C14.1536 11.4756 14.1071 10.6855 14.5657 10.1696L16.7164 7.75001H6C4.48122 7.75001 3.25 8.98123 3.25 10.5C3.25 11.1904 2.69036 11.75 2 11.75C1.30964 11.75 0.75 11.1904 0.75 10.5C0.75 7.60052 3.10051 5.25001 6 5.25001H16.7164L14.5657 2.83047C14.1071 2.31449 14.1536 1.5244 14.6695 1.06575Z" fill="#232323"/>
<path opacity="0.4" fill-rule="evenodd" clip-rule="evenodd" d="M9.33045 23.4342C8.81448 23.8929 8.02439 23.8464 7.56574 23.3304L3.56574 18.8304C3.14475 18.3568 3.14475 17.6431 3.56574 17.1695L7.56574 12.6695C8.02439 12.1536 8.81448 12.1071 9.33046 12.5657C9.84643 13.0244 9.89291 13.8145 9.43426 14.3304L7.28355 16.75L18 16.75C19.5188 16.75 20.75 15.5188 20.75 14C20.75 13.3096 21.3096 12.75 22 12.75C22.6904 12.75 23.25 13.3096 23.25 14C23.25 16.8995 20.8995 19.25 18 19.25L7.28355 19.25L9.43426 21.6695C9.89291 22.1855 9.84643 22.9756 9.33045 23.4342Z" fill="#232323"/>
</svg>
