<svg width="24" height="24" viewBox="0 0 24 24" fill="none" xmlns="http://www.w3.org/2000/svg">
<rect width="24" height="24" rx="4" fill="#999999"/>
<path d="M4.11878 12.405C3.62916 12.8917 3.62678 13.6832 4.11346 14.1728C4.60014 14.6624 5.3916 14.6648 5.88122 14.1781L4.11878 12.405ZM13.2994 5.04199L14.5492 5.06674C14.5558 4.7329 14.4285 4.41028 14.1958 4.17083C13.9631 3.93137 13.6443 3.79497 13.3104 3.79204L13.2994 5.04199ZM8.52393 3.75005C7.8336 3.74399 7.26907 4.2987 7.26301 4.98903C7.25696 5.67936 7.81167 6.2439 8.502 6.24995L8.52393 3.75005ZM11.9581 9.64191C11.9444 10.3321 12.4928 10.9028 13.1831 10.9164C13.8733 10.9301 14.4439 10.3816 14.4576 9.69141L11.9581 9.64191ZM19.8812 11.595C20.3708 11.1083 20.3732 10.3168 19.8865 9.82721C19.3999 9.33759 18.6084 9.3352 18.1188 9.82189L19.8812 11.595ZM10.7006 18.958L9.45135 18.9148C9.4397 19.2518 9.56465 19.5791 9.79784 19.8226C10.031 20.0661 10.3527 20.205 10.6898 20.208L10.7006 18.958ZM15.5444 20.25C16.2348 20.2559 16.7992 19.7011 16.8052 19.0108C16.8112 18.3205 16.2564 17.756 15.5661 17.75L15.5444 20.25ZM12.1096 14.3765C12.1335 13.6866 11.5935 13.1079 10.9036 13.0841C10.2136 13.0602 9.63497 13.6002 9.61114 14.2902L12.1096 14.3765ZM5.88122 14.1781L14.1806 5.92853L12.4182 4.15545L4.11878 12.405L5.88122 14.1781ZM8.502 6.24995L13.2884 6.29194L13.3104 3.79204L8.52393 3.75005L8.502 6.24995ZM12.0496 5.01724L11.9581 9.64191L14.4576 9.69141L14.5492 5.06674L12.0496 5.01724ZM18.1188 9.82189L9.81938 18.0715L11.5818 19.8445L19.8812 11.595L18.1188 9.82189ZM15.5661 17.75L10.7114 17.708L10.6898 20.208L15.5444 20.25L15.5661 17.75ZM11.9499 19.0012L12.1096 14.3765L9.61114 14.2902L9.45135 18.9148L11.9499 19.0012Z" fill="#232323"/>
</svg>
