<svg width="22" height="22" viewBox="0 0 22 22" fill="none" xmlns="http://www.w3.org/2000/svg">
<path fill-rule="evenodd" clip-rule="evenodd" d="M17.7894 16.4938L18.981 17.6855C19.3394 18.0439 19.3394 18.6232 18.981 18.9816C18.8023 19.1604 18.5676 19.2502 18.3329 19.2502C18.0983 19.2502 17.8636 19.1604 17.6849 18.9816L15.2034 16.5002L14.6663 15.9631L13.4334 14.7301L13.3701 14.6669L11.0763 12.3731C11.0509 12.3745 11.0254 12.3752 10.9997 12.3752C10.2416 12.3752 9.62467 11.7583 9.62467 11.0002C9.62467 10.9745 9.62538 10.949 9.62679 10.9236L6.67568 7.97248L5.0706 6.3674L3.01819 4.31498C2.65977 3.95656 2.65977 3.37723 3.01819 3.01881C3.3766 2.6604 3.95594 2.6604 4.31435 3.01881L5.8846 4.58906L7.22752 5.93198L10.9229 9.62735C10.9483 9.62594 10.9739 9.62523 10.9997 9.62523C11.7578 9.62523 12.3747 10.2421 12.3747 11.0002C12.3747 11.026 12.374 11.0516 12.3726 11.077L15.9624 14.6669L17.7894 16.4938ZM7.87645 5.28408L10.4404 7.84799C10.6228 7.81591 10.808 7.79207 10.9995 7.79207C12.7687 7.79207 14.2079 9.23124 14.2079 11.0004C14.2079 11.192 14.184 11.3772 14.152 11.5596L16.6105 14.019L17.375 14.7835C18.7701 13.5112 19.6648 12.1187 20.0452 11.456C20.2065 11.1737 20.2065 10.8262 20.0452 10.5439C19.4604 9.52457 16.23 4.41508 10.752 4.58649C9.6667 4.61491 8.68404 4.84866 7.79304 5.20158L7.87645 5.28408ZM12.7853 15.3792L14.0183 16.6112L14.2062 16.7992C13.3152 17.1521 12.3334 17.3858 11.2481 17.4133C11.1729 17.4161 11.0968 17.417 11.0226 17.417C5.64817 17.417 2.53151 12.4624 1.95401 11.4559C1.79267 11.1736 1.79267 10.8262 1.95401 10.5438C2.33442 9.88199 3.22909 8.48957 4.62426 7.21724L6.02768 8.62157L7.84818 10.4412C7.81517 10.6236 7.79134 10.8087 7.79134 11.0003C7.79134 12.7695 9.23051 14.2087 10.9997 14.2087C11.1913 14.2087 11.3764 14.1848 11.5588 14.1518L12.7221 15.3151L12.7853 15.3792Z" fill="#BABABC"/>
<mask id="mask0_1801_35607" style="mask-type:alpha" maskUnits="userSpaceOnUse" x="1" y="2" width="20" height="18">
<path fill-rule="evenodd" clip-rule="evenodd" d="M17.7894 16.4938L18.981 17.6855C19.3394 18.0439 19.3394 18.6232 18.981 18.9816C18.8023 19.1604 18.5676 19.2502 18.3329 19.2502C18.0983 19.2502 17.8636 19.1604 17.6849 18.9816L15.2034 16.5002L14.6663 15.9631L13.4334 14.7301L13.3701 14.6669L11.4744 12.7712C11.3229 12.8119 11.1638 12.8336 10.9997 12.8336C9.9889 12.8336 9.16634 12.011 9.16634 11.0002C9.16634 10.8361 9.18803 10.677 9.22868 10.5255L6.67568 7.97248L5.0706 6.3674L3.01819 4.31498C2.65977 3.95656 2.65977 3.37723 3.01819 3.01881C3.3766 2.6604 3.95594 2.6604 4.31435 3.01881L5.8846 4.58906L7.22752 5.93198L10.5248 9.22926C10.6763 9.18859 10.8355 9.16689 10.9997 9.16689C12.0105 9.16689 12.833 9.98945 12.833 11.0002C12.833 11.1644 12.8113 11.3236 12.7706 11.4751L15.9624 14.6669L17.7894 16.4938ZM7.87645 5.28408L10.4404 7.84799C10.6228 7.81591 10.808 7.79207 10.9995 7.79207C12.7687 7.79207 14.2079 9.23124 14.2079 11.0004C14.2079 11.192 14.184 11.3772 14.152 11.5596L16.6105 14.019L17.375 14.7835C18.7701 13.5112 19.6648 12.1187 20.0452 11.456C20.2065 11.1737 20.2065 10.8262 20.0452 10.5439C19.4604 9.52457 16.23 4.41508 10.752 4.58649C9.6667 4.61491 8.68404 4.84866 7.79304 5.20158L7.87645 5.28408ZM12.7853 15.3792L14.0183 16.6112L14.2062 16.7992C13.3152 17.1521 12.3334 17.3858 11.2481 17.4133C11.1729 17.4161 11.0968 17.417 11.0226 17.417C5.64817 17.417 2.53151 12.4624 1.95401 11.4559C1.79267 11.1736 1.79267 10.8262 1.95401 10.5438C2.33442 9.88199 3.22909 8.48957 4.62426 7.21724L6.02768 8.62157L7.84818 10.4412C7.81517 10.6236 7.79134 10.8087 7.79134 11.0003C7.79134 12.7695 9.23051 14.2087 10.9997 14.2087C11.1913 14.2087 11.3764 14.1848 11.5588 14.1518L12.7221 15.3151L12.7853 15.3792Z" fill="white"/>
</mask>
<g mask="url(#mask0_1801_35607)">
<rect width="22" height="22" fill="#BABABC"/>
</g>
</svg>
