<svg width="24" height="24" viewBox="0 0 24 24" fill="none" xmlns="http://www.w3.org/2000/svg">
<path d="M7 3C7 3 11.2308 0.750557 17 2.99876" stroke="#232323" stroke-width="2.5" stroke-miterlimit="10" stroke-linecap="round"/>
<path d="M5 8C5 8 10.9231 3.50111 19 7.99752" stroke="#232323" stroke-width="2.5" stroke-miterlimit="10" stroke-linecap="round"/>
<path d="M14.8112 22C14.8112 22 13.1852 21.8081 11.3534 20.1185C10.4045 19.2225 9.80215 18.0577 9.64132 16.8076C9.57137 16.3404 9.61834 15.8644 9.77855 15.4169C10.5987 13.2245 13.3568 13.3774 14.0613 15.2399C14.0992 15.3403 14.1239 15.4447 14.1347 15.5508C14.1793 15.936 14.2648 16.3161 14.39 16.6856C14.39 16.6856 14.9915 18.173 16.6989 18.118C16.6989 18.118 17.8158 18.0867 18.3535 17.4516C20.1582 15.3485 17.6116 12.5433 17.6116 12.5433C14.4825 8.89181 9.91098 10.2453 9.91098 10.2453C9.91098 10.2453 6.85373 10.9355 5.54211 13.5547C4.23049 16.174 5.71124 19.586 5.71124 19.586" stroke="#232323" stroke-width="2.5" stroke-miterlimit="10" stroke-linecap="round"/>
</svg>
