<svg width="16" height="14" viewBox="0 0 16 14" fill="none" xmlns="http://www.w3.org/2000/svg">
<path d="M14.5 2.23826H8.5L6.5 0.333496H1.5C0.671875 0.333496 0 0.973377 0 1.76207V12.2383C0 13.0269 0.671875 13.6668 1.5 13.6668H14.5C15.3281 13.6668 16 13.0269 16 12.2383V3.66683C16 2.87814 15.3281 2.23826 14.5 2.23826ZM4.96875 7.44659C5.11562 7.30671 5.30625 7.23826 5.5 7.23826C5.69375 7.23826 5.88375 7.30802 6.03031 7.44751L7.25 8.61028V5.3335C7.25 4.94064 7.5875 4.61921 8 4.61921C8.4125 4.61921 8.75 4.93915 8.75 5.3335V8.61028L9.96969 7.44867C10.2627 7.16966 10.7372 7.16966 11.0303 7.44867C11.3234 7.72769 11.3233 8.17963 11.0303 8.45879L8.53031 10.8397C8.23734 11.1188 7.76281 11.1188 7.46969 10.8397L4.96969 8.45879C4.67812 8.17873 4.67812 7.72635 4.96875 7.44659Z" fill="#232323"/>
</svg>
