<svg width="200" height="162" viewBox="0 0 200 162" fill="none" xmlns="http://www.w3.org/2000/svg">
<defs>
<clipPath id="clip0_849_28937">
<rect width="200" height="162" fill="white"/>
</clipPath>
<clipPath id="clip1_849_28937">
<rect width="200" height="368.997" fill="white" transform="translate(0 -201)"/>
</clipPath>
<clipPath id="clip2_849_28937">
<rect width="200" height="162" rx="8" fill="white"/>
</clipPath>
</defs>
<g clip-path="url(#clip0_849_28937)">
<g clip-path="url(#clip1_849_28937)">
<g opacity="0.8">
<path d="M251.767 -0.724846C252.686 -3.25447 251.905 -9.96949 241.418 -16.5925C230.932 -23.2155 226.01 -30.3905 224.86 -33.1501C225.09 -35.9097 223.619 -41.7048 215.892 -42.8087C208.165 -43.9125 191.742 -55.8772 186.683 -59.7867L177.257 -64.8854C169.287 -70.884 174.641 -47.1565 143.452 -39.3592C118.616 -33.1501 117.236 1.34486 93.0897 -7.62383C73.7725 -14.7988 72.6962 -22.1117 58.5948 -22.1117C49.3019 -22.1117 42.5891 3.96647 33.7584 -7.62383C22.72 -22.1117 8.92203 -46.2582 0.64325 -42.8087C-5.5929 -40.2103 -8.24066 -35.777 -8.91269 -33.5401C-9.06287 -34.8255 -16.8224 -30.6898 -21.9509 -25.5612C-28.8499 -18.6622 -27.6426 -25.5612 -35.2315 -16.5925C-42.8204 -7.62383 -46.9598 -7.2698 -46.9598 -0.724846V148.662H251.767L251.767 -0.724846Z" fill="#D0FDEC"/>
<path d="M-45.7635 32.5656C-46.6806 30.0437 -45.9011 23.3491 -35.4466 16.7463C-24.9921 10.1435 -20.0857 2.99038 -18.9394 0.239195C-19.1686 -2.51199 -17.7013 -8.28947 -9.99801 -9.38995C-2.2947 -10.4904 9.7188 -18.5606 14.7626 -22.4581L28.5186 -31.3994C42.9623 -26.5848 31.1265 -13.7245 62.2206 -5.95097C86.9812 0.239195 88.3568 34.629 112.43 25.6876C131.688 18.5346 132.761 11.2439 146.819 11.2439C156.084 11.2439 162.776 37.2426 171.58 25.6876C182.585 11.2439 196.341 -12.8289 204.594 -9.38995C210.811 -6.79948 213.451 -2.37967 214.121 -0.149632C214.271 -1.43107 222.007 2.69203 227.12 7.80495C233.998 14.6829 232.794 7.80495 240.36 16.7463C247.925 25.6876 252.052 26.0406 252.052 32.5656V181.497H-45.7635L-45.7635 32.5656Z" fill="#BFF3DF"/>
<path d="M-42.0812 55.3395H-34.0259L-46.9632 67.3004H-39.6402L-51.8452 80.97H-46.9632L-55.0186 90.49H1.85689L-8.15124 80.97H-3.51332L-15.9625 67.3004H-8.15124L-20.1122 55.3395H-12.7891L-27.6793 41.1816L-42.0812 55.3395Z" fill="#DAFCE3"/>
<path d="M-10.9675 48.3784H-1.32186L-16.8133 62.7078H-8.04458L-22.6592 79.0843H-16.8133L-26.459 90.4893H41.6451L29.6611 79.0843H35.2147L20.3078 62.7078H29.6611L15.3388 48.3784H24.1076L6.27773 31.417L-10.9675 48.3784Z" fill="#DAFCE3"/>
<path d="M63.7268 48.3784H73.3725L57.881 62.7078H66.6498L52.0351 79.0843H57.881L48.2354 90.4893H116.339L104.355 79.0843H109.909L95.0021 62.7078H104.355L90.0331 48.3784H98.8019L80.9721 31.417L63.7268 48.3784Z" fill="#DAFCE3"/>
<path d="M101.617 54.8173H109.776L96.6717 66.9559H104.089L91.7269 80.8285H96.6717L88.5127 90.4898H146.12L135.983 80.8285H140.681L128.072 66.9559H135.983L123.869 54.8173H131.286L116.204 40.4492L101.617 54.8173Z" fill="#DAFCE3"/>
<path d="M181.438 54.8173H189.597L176.493 66.9559H183.91L171.548 80.8285H176.493L168.334 90.4898H225.942L215.805 80.8285H220.502L207.893 66.9559H215.805L203.69 54.8173H211.107L196.025 40.4492L181.438 54.8173Z" fill="#DAFCE3"/>
<path d="M207.78 47.5091H217.598L201.829 62.1346H210.755L195.879 78.8494H201.829L192.011 90.4901H261.335L249.137 78.8494H254.79L239.616 62.1346H249.137L234.558 47.5091H243.483L225.334 30.1973L207.78 47.5091Z" fill="#DAFCE3"/>
<path d="M136.035 54.8173H144.194L131.09 66.9559H138.507L126.145 80.8285H131.09L122.931 90.4898H180.538L170.401 80.8285H175.099L162.49 66.9559H170.401L158.286 54.8173H165.704L150.622 40.4492L136.035 54.8173Z" fill="#DAFCE3"/>
<path d="M27.3409 62.9968H33.633L23.5275 72.3524H29.2476L19.7141 83.0445H23.5275L17.2354 90.4907H61.6617L53.8442 83.0445H57.4669L47.7427 72.3524H53.8442L44.5013 62.9968H50.2214L38.5905 51.9229L27.3409 62.9968Z" fill="#DAFCE3"/>
<path d="M162.816 62.9968H169.109L159.003 72.3524H164.723L155.19 83.0445H159.003L152.711 90.4907H197.137L189.32 83.0445H192.942L183.218 72.3524H189.32L179.977 62.9968H185.697L174.066 51.9229L162.816 62.9968Z" fill="#DAFCE3"/>
<path d="M-6.19939 68.4957H1.85593L-11.0814 80.4567H-3.75838L-15.9634 94.1263H-11.0814L-19.1367 103.646H37.7387L27.7306 94.1263H32.3685L19.9194 80.4567H27.7306L15.7697 68.4957H23.0927L8.20255 54.3379L-6.19939 68.4957Z" fill="#DAFCE3"/>
<path d="M24.9143 61.5356H34.56L19.0685 75.865H27.8373L13.2226 92.2415H19.0685L9.42285 103.647H77.5269L65.5429 92.2415H71.0965L56.1896 75.865H65.5429L51.2206 61.5356H59.9894L42.1596 44.5742L24.9143 61.5356Z" fill="#DAFCE3"/>
<path d="M99.6087 61.5356H109.254L93.7628 75.865H102.532L87.917 92.2415H93.7628L84.1172 103.647H152.221L140.237 92.2415H145.791L130.884 75.865H140.237L125.915 61.5356H134.684L116.854 44.5742L99.6087 61.5356Z" fill="#DAFCE3"/>
<path d="M137.498 67.9736H145.657L132.554 80.1121H139.971L127.609 93.9848H132.554L124.395 103.646H182.002L171.865 93.9848H176.563L163.953 80.1121H171.865L159.75 67.9736H167.168L152.086 53.6055L137.498 67.9736Z" fill="#DAFCE3"/>
<path d="M171.916 67.9736H180.075L166.972 80.1121H174.389L162.027 93.9848H166.972L158.812 103.646H216.42L206.283 93.9848H210.981L198.371 80.1121H206.283L194.168 67.9736H201.586L186.504 53.6055L171.916 67.9736Z" fill="#DAFCE3"/>
<path d="M63.2227 76.1531H69.5149L59.4093 85.5086H65.1295L55.5959 96.2007H59.4093L53.1172 103.647H97.5435L89.726 96.2007H93.3487L83.6245 85.5086H89.726L80.3831 76.1531H86.1032L74.4723 65.0791L63.2227 76.1531Z" fill="#DAFCE3"/>
<path d="M198.698 76.1531H204.99L194.885 85.5086H200.605L191.071 96.2007H194.885L188.593 103.647H233.019L225.202 96.2007H228.824L219.1 85.5086H225.202L215.859 76.1531H221.579L209.948 65.0791L198.698 76.1531Z" fill="#DAFCE3"/>
<rect x="-16.1465" y="103.991" width="239.209" height="89.1054" fill="#EDFFF2"/>
<path d="M-6.36398 76.8678H-0.27299L-10.0555 88.8287H-4.51823L-13.747 102.498H-10.0555L-16.1465 112.018H26.8596L19.292 102.498H22.799L13.3856 88.8287H19.292L10.2478 76.8678H15.7851L4.52597 62.71L-6.36398 76.8678Z" fill="#EDFFF2"/>
<path d="M17.1621 69.9067H24.4556L12.7417 84.2361H19.3722L8.32144 100.613H12.7417L5.44824 112.018H56.9448L47.8832 100.613H52.0825L40.8107 84.2361H47.8832L37.0534 69.9067H43.6839L30.202 52.9453L17.1621 69.9067Z" fill="#EDFFF2"/>
<path d="M71.8486 69.9067H79.1421L67.4283 84.2361H74.0587L63.008 100.613H67.4283L60.1348 112.018H111.631L102.57 100.613H106.769L95.4972 84.2361H102.57L91.74 69.9067H98.3704L84.8885 52.9453L71.8486 69.9067Z" fill="#EDFFF2"/>
<path d="M102.292 76.3456H108.462L98.5532 88.4842H104.162L94.8142 102.357H98.5532L92.3838 112.018H135.944L128.279 102.357H131.831L122.296 88.4842H128.279L119.118 76.3456H124.726L113.322 61.9775L102.292 76.3456Z" fill="#EDFFF2"/>
<path d="M162.649 76.3456H168.818L158.91 88.4842H164.518L155.171 102.357H158.91L152.74 112.018H196.3L188.635 102.357H192.187L182.653 88.4842H188.635L179.474 76.3456H185.083L173.679 61.9775L162.649 76.3456Z" fill="#EDFFF2"/>
<path d="M182.566 69.0374H189.991L178.067 83.6629H184.816L173.567 100.378H178.067L170.643 112.018H223.062L213.838 100.378H218.113L206.639 83.6629H213.838L202.814 69.0374H209.563L195.84 51.7256L182.566 69.0374Z" fill="#EDFFF2"/>
<path d="M128.317 76.3456H134.486L124.578 88.4842H130.186L120.839 102.357H124.578L118.408 112.018H161.968L154.303 102.357H157.855L148.321 88.4842H154.303L145.142 76.3456H150.751L139.347 61.9775L128.317 76.3456Z" fill="#EDFFF2"/>
<path d="M46.1295 84.5241H50.8873L43.2461 93.8797H47.5713L40.3626 104.572H43.2461L38.4883 112.018H72.081L66.1699 104.572H68.9092L61.5563 93.8797H66.1699L59.1053 84.5241H63.4305L54.6359 73.4502L46.1295 84.5241Z" fill="#EDFFF2"/>
<path d="M142.588 84.5241H147.345L139.704 93.8797H144.029L136.821 104.572H139.704L134.946 112.018H168.539L162.628 104.572H165.367L158.014 93.8797H162.628L155.563 84.5241H159.889L151.094 73.4502L142.588 84.5241Z" fill="#EDFFF2"/>
</g>
</g>
<g clip-path="url(#clip2_849_28937)">
<rect x="10" y="10" width="180" height="20" rx="2" fill="#22867A"/>
<rect x="16" y="16" width="106" height="8" rx="1" fill="white"/>
<rect x="10" y="40" width="180" height="20" rx="2" fill="#BDDBCB"/>
<rect x="16" y="46" width="106" height="8" rx="1" fill="white"/>
<rect x="10" y="62" width="180" height="20" rx="2" fill="#BDDBCB"/>
<rect x="16" y="68" width="106" height="8" rx="1" fill="white"/>
<rect x="10" y="84" width="180" height="20" rx="2" fill="#BDDBCB"/>
<rect x="16" y="90" width="106" height="8" rx="1" fill="white"/>
<rect x="10" y="106" width="180" height="20" rx="2" fill="#BDDBCB"/>
<rect x="16" y="112" width="106" height="8" rx="1" fill="white"/>
<rect x="10" y="128" width="180" height="20" rx="2" fill="#BDDBCB"/>
<rect x="16" y="134" width="106" height="8" rx="1" fill="white"/>
<rect x="10" y="150" width="180" height="20" rx="2" fill="#BDDBCB"/>
<rect x="16" y="156" width="106" height="8" rx="1" fill="white"/>
</g>
</g>
</svg>
