<svg width="40" height="40" viewBox="0 0 40 40" fill="none" xmlns="http://www.w3.org/2000/svg">
<rect width="40" height="40" rx="8" fill="#E0E3E3"/>
<path d="M30.6765 16.1586C30.8183 16.5281 30.698 16.9449 30.4058 17.2156L28.5452 18.9086C28.5925 19.2652 28.6183 19.6305 28.6183 19.9613C28.6183 20.3695 28.5925 20.7348 28.5452 21.0914L30.4058 22.7844C30.698 23.0551 30.8183 23.4676 30.6765 23.8414C30.4874 24.3527 30.2597 24.8469 30.0019 25.3152L29.7999 25.6633C29.5163 26.1359 29.1984 26.5828 28.8503 27.0082C28.5925 27.3133 28.1757 27.4207 27.7976 27.3004L25.4042 26.5355C24.8284 26.9781 24.1538 27.3477 23.5136 27.6313L22.9765 30.0848C22.8906 30.4715 22.5898 30.7465 22.1945 30.8496C21.6015 30.9484 20.9913 31 20.3296 31C19.7452 31 19.1351 30.9484 18.5421 30.8496C18.1468 30.7465 17.846 30.4715 17.7601 30.0848L17.223 27.6313C16.5441 27.3477 15.9081 26.9781 15.3323 26.5355L12.9407 27.3004C12.5609 27.4207 12.1419 27.3133 11.8875 27.0082C11.5391 26.5828 11.2211 26.1359 10.9375 25.6633L10.7364 25.3152C10.4756 24.8469 10.2487 24.3527 10.0584 23.8414C9.91914 23.4719 10.0364 23.0551 10.3312 22.7844L12.19 21.0914C12.1428 20.7348 12.1183 20.3695 12.1183 20C12.1183 19.6305 12.1428 19.2652 12.19 18.9086L10.3312 17.2156C10.0364 16.9449 9.91914 16.5324 10.0584 16.1586C10.2487 15.6473 10.476 15.1531 10.7364 14.6848L10.9371 14.3367C11.2207 13.8641 11.5391 13.4172 11.8875 12.9939C12.1419 12.6867 12.5609 12.5802 12.9407 12.7013L15.3323 13.4645C15.9081 13.0202 16.5441 12.6506 17.223 12.37L17.7601 9.91652C17.846 9.52637 18.1468 9.21656 18.5421 9.15082C19.1351 9.05161 19.7452 9 20.3296 9C20.9913 9 21.6015 9.05161 22.1945 9.15082C22.5898 9.21656 22.8906 9.52637 22.9765 9.91652L23.5136 12.37C24.1538 12.6506 24.8284 13.0202 25.4042 13.4645L27.7976 12.7013C28.1757 12.5802 28.5925 12.6867 28.8503 12.9939C29.1984 13.4172 29.5163 13.8641 29.7999 14.3367L30.0019 14.6848C30.2597 15.1531 30.4874 15.6473 30.6765 16.1586ZM20.3683 23.4375C22.2675 23.4375 23.8058 21.8992 23.8058 19.9613C23.8058 18.1008 22.2675 16.5238 20.3683 16.5238C18.4691 16.5238 16.9308 18.1008 16.9308 19.9613C16.9308 21.8992 18.4691 23.4375 20.3683 23.4375Z" fill="#232323"/>
</svg>
