<svg width="40" height="40" viewBox="0 0 40 40" fill="none" xmlns="http://www.w3.org/2000/svg">
<rect width="40" height="40" rx="8" fill="#E0E3E3"/>
<path d="M26 8H12.5C10.843 8 9.5 9.34297 9.5 11V29C9.5 30.657 10.843 32 12.5 32H26C27.657 32 29 30.657 29 29V11C29 9.34297 27.6547 8 26 8ZM19.25 14C20.907 14 22.25 15.343 22.25 17C22.25 18.657 20.907 20 19.25 20C17.5934 20 16.25 18.657 16.25 17C16.25 15.343 17.5953 14 19.25 14ZM23.75 26H14.75C14.3375 26 14 25.6625 14 25.25C14 23.1781 15.6781 21.5 17.75 21.5H20.75C22.8209 21.5 24.5 23.1791 24.5 25.25C24.5 25.6625 24.1625 26 23.75 26ZM31.25 11H30.5V15.5H31.25C31.6625 15.5 32 15.1625 32 14.75V11.75C32 11.3356 31.6625 11 31.25 11ZM31.25 17H30.5V21.5H31.25C31.6625 21.5 32 21.1625 32 20.75V17.75C32 17.3375 31.6625 17 31.25 17ZM31.25 23H30.5V27.5H31.25C31.6642 27.5 32 27.1642 32 26.75V23.75C32 23.3375 31.6625 23 31.25 23Z" fill="#232323"/>
</svg>
