<svg width="200" height="162" viewBox="0 0 200 162" fill="none" xmlns="http://www.w3.org/2000/svg">
<g clip-path="url(#clip0_997_28963)">
<g clip-path="url(#clip1_997_28963)">
<rect width="360" height="640" fill="#FFF9F2"/>
<g opacity="0.25">
<circle cx="158.5" cy="258.5" r="286.5" fill="url(#paint0_radial_997_28963)"/>
<circle cx="149.5" cy="200.5" r="205.5" fill="url(#paint1_radial_997_28963)"/>
<circle cx="195.5" cy="241.5" r="127.5" fill="url(#paint2_radial_997_28963)"/>
<circle cx="-36.5" cy="-11.5" r="366.5" fill="url(#paint3_radial_997_28963)"/>
<circle cx="360" cy="-12" r="486" fill="url(#paint4_radial_997_28963)"/>
<circle cx="145" cy="-74" r="188" fill="url(#paint5_radial_997_28963)"/>
</g>
</g>
<g clip-path="url(#clip2_997_28963)">
<rect x="10" y="10" width="180" height="20" rx="2" fill="#F95369"/>
<rect x="16" y="16" width="106" height="8" rx="1" fill="white"/>
<rect x="10" y="40" width="180" height="20" rx="2" fill="#FDCBD2"/>
<rect x="16" y="46" width="106" height="8" rx="1" fill="#DB5D6F"/>
<rect x="10" y="62" width="180" height="20" rx="2" fill="#FDCBD2"/>
<rect x="16" y="68" width="106" height="8" rx="1" fill="#DB5D6F"/>
<rect x="10" y="84" width="180" height="20" rx="2" fill="#FDCBD2"/>
<rect x="16" y="90" width="106" height="8" rx="1" fill="#DB5D6F"/>
<rect x="10" y="106" width="180" height="20" rx="2" fill="#FDCBD2"/>
<rect x="16" y="112" width="106" height="8" rx="1" fill="#DB5D6F"/>
<rect x="10" y="128" width="180" height="20" rx="2" fill="#FDCBD2"/>
<rect x="16" y="134" width="106" height="8" rx="1" fill="#DB5D6F"/>
<rect x="10" y="150" width="180" height="20" rx="2" fill="#FDCBD2"/>
<rect x="16" y="156" width="106" height="8" rx="1" fill="#DB5D6F"/>
</g>
</g>
<defs>
<radialGradient id="paint0_radial_997_28963" cx="0" cy="0" r="1" gradientUnits="userSpaceOnUse" gradientTransform="translate(158.5 258.5) rotate(48.43) scale(263.308)">
<stop stop-color="#FE7160"/>
<stop offset="1" stop-color="#FBAF4A" stop-opacity="0"/>
</radialGradient>
<radialGradient id="paint1_radial_997_28963" cx="0" cy="0" r="1" gradientUnits="userSpaceOnUse" gradientTransform="translate(149.5 200.5) rotate(90) scale(205.5)">
<stop stop-color="#FED393"/>
<stop offset="1" stop-color="#FED393" stop-opacity="0"/>
</radialGradient>
<radialGradient id="paint2_radial_997_28963" cx="0" cy="0" r="1" gradientUnits="userSpaceOnUse" gradientTransform="translate(195.5 241.5) rotate(90) scale(127.5)">
<stop stop-color="#FED393"/>
<stop offset="1" stop-color="#FED393" stop-opacity="0"/>
</radialGradient>
<radialGradient id="paint3_radial_997_28963" cx="0" cy="0" r="1" gradientUnits="userSpaceOnUse" gradientTransform="translate(-36.5 -11.5) rotate(48.43) scale(336.833)">
<stop stop-color="#FE7160"/>
<stop offset="1" stop-color="#FBAF4A" stop-opacity="0"/>
</radialGradient>
<radialGradient id="paint4_radial_997_28963" cx="0" cy="0" r="1" gradientUnits="userSpaceOnUse" gradientTransform="translate(360 -12) rotate(152.509) scale(340.105)">
<stop stop-color="#F95369"/>
<stop offset="1" stop-color="#F95369" stop-opacity="0"/>
</radialGradient>
<radialGradient id="paint5_radial_997_28963" cx="0" cy="0" r="1" gradientUnits="userSpaceOnUse" gradientTransform="translate(145 -74) rotate(-56.3099) scale(191.698 179.566)">
<stop stop-color="#FED393"/>
<stop offset="1" stop-color="#FED393" stop-opacity="0"/>
</radialGradient>
<clipPath id="clip0_997_28963">
<rect width="200" height="162" rx="8" fill="white"/>
</clipPath>
<clipPath id="clip1_997_28963">
<rect width="360" height="640" fill="white"/>
</clipPath>
<clipPath id="clip2_997_28963">
<rect width="200" height="162" rx="8" fill="white"/>
</clipPath>
</defs>
</svg>
