<svg width="16" height="16" viewBox="0 0 16 16" fill="none" xmlns="http://www.w3.org/2000/svg">
<path d="M8.71914 10.398L7.78398 11.284C7.68555 11.4316 7.51875 11.5 7.34375 11.5H6.25V12.5938C6.25 12.9574 5.95742 13.25 5.59375 13.25H4.5V14.3438C4.5 14.7074 4.20742 15 3.84375 15H1.65625C1.29395 15 1 14.7074 1 14.3438V12.1562C1 11.9812 1.06915 11.8145 1.1922 11.6914L5.60195 7.28086C5.4543 6.81875 5.375 6.32383 5.375 5.8125C5.375 3.15469 7.52969 1 10.1875 1C12.8453 1 15 3.15469 15 5.8125C15 8.47031 12.8453 10.625 10.1875 10.625C9.67617 10.625 9.18125 10.5457 8.71914 10.398ZM11.2812 5.8125C11.8855 5.8125 12.375 5.32305 12.375 4.71875C12.375 4.11445 11.8855 3.625 11.2812 3.625C10.677 3.625 10.1875 4.11445 10.1875 4.71875C10.1875 5.32305 10.677 5.8125 11.2812 5.8125Z" fill="black"/>
</svg>
