<svg width="99" height="57" viewBox="0 0 99 57" fill="none" xmlns="http://www.w3.org/2000/svg">
<g clip-path="url(#clip0_6055_8386)">
<path d="M90.1893 8.04883H18.9405C14.0708 8.04883 10.123 11.9965 10.123 16.8663V47.6738C10.123 52.5436 14.0708 56.4913 18.9405 56.4913H90.1893C95.0591 56.4913 99.0068 52.5436 99.0068 47.6738V16.8663C99.0068 11.9965 95.0591 8.04883 90.1893 8.04883Z" fill="#E1E2E3"/>
<path d="M91.9528 5.84445V44.9928C91.9528 47.7275 89.7366 49.9437 87.002 49.9437H5.85138C3.11082 49.9437 0.894531 47.7275 0.894531 44.9928V5.84445C0.894531 3.10984 3.11082 0.893555 5.85138 0.893555L88.2888 1.06037C90.4038 1.63232 91.9528 3.55667 91.9528 5.84445V5.84445Z" stroke="#222222" stroke-width="3" stroke-miterlimit="10"/>
<path d="M15.9121 18.4336V32.4045" stroke="#222222" stroke-width="3" stroke-miterlimit="10" stroke-linecap="round"/>
<path d="M9.86523 21.9248L21.9595 28.9073" stroke="#222222" stroke-width="3" stroke-miterlimit="10" stroke-linecap="round"/>
<path d="M21.9595 21.9248L9.86523 28.9073" stroke="#222222" stroke-width="3" stroke-miterlimit="10" stroke-linecap="round"/>
<path d="M36.252 18.4336V32.4045" stroke="#222222" stroke-width="3" stroke-miterlimit="10" stroke-linecap="round"/>
<path d="M30.2051 21.9248L42.2993 28.9073" stroke="#222222" stroke-width="3" stroke-miterlimit="10" stroke-linecap="round"/>
<path d="M42.2993 21.9248L30.2051 28.9073" stroke="#222222" stroke-width="3" stroke-miterlimit="10" stroke-linecap="round"/>
<path d="M56.5918 18.4336V32.4045" stroke="#222222" stroke-width="3" stroke-miterlimit="10" stroke-linecap="round"/>
<path d="M50.5449 21.9248L62.6392 28.9073" stroke="#222222" stroke-width="3" stroke-miterlimit="10" stroke-linecap="round"/>
<path d="M62.6392 21.9248L50.5449 28.9073" stroke="#222222" stroke-width="3" stroke-miterlimit="10" stroke-linecap="round"/>
<path d="M76.9316 18.4336V32.4045" stroke="#222222" stroke-width="3" stroke-miterlimit="10" stroke-linecap="round"/>
<path d="M70.8848 21.9248L82.979 28.9073" stroke="#222222" stroke-width="3" stroke-miterlimit="10" stroke-linecap="round"/>
<path d="M82.979 21.9248L70.8848 28.9073" stroke="#222222" stroke-width="3" stroke-miterlimit="10" stroke-linecap="round"/>
</g>
<defs>
<clipPath id="clip0_6055_8386">
<rect width="99" height="56.4914" fill="white"/>
</clipPath>
</defs>
</svg>
