<svg width="22" height="22" viewBox="0 0 22 22" fill="none" xmlns="http://www.w3.org/2000/svg">
<path d="M17.4167 10.083H4.58333C3.57081 10.083 2.75 10.9038 2.75 11.9163V18.333C2.75 19.3455 3.57081 20.1663 4.58333 20.1663H17.4167C18.4292 20.1663 19.25 19.3455 19.25 18.333V11.9163C19.25 10.9038 18.4292 10.083 17.4167 10.083Z" fill="#D1A55C" stroke="#D1A55C" stroke-width="2" stroke-linecap="round" stroke-linejoin="round"/>
<path d="M6.41699 10.083V6.41634C6.41699 5.20077 6.89988 4.03498 7.75942 3.17544C8.61896 2.31589 9.78475 1.83301 11.0003 1.83301C12.2159 1.83301 13.3817 2.31589 14.2412 3.17544C15.1008 4.03498 15.5837 5.20077 15.5837 6.41634V10.083" stroke="#D1A55C" stroke-width="2" stroke-linecap="round" stroke-linejoin="round"/>
</svg>
