<svg width="22" height="22" viewBox="0 0 22 22" fill="none" xmlns="http://www.w3.org/2000/svg">
<g clip-path="url(#clip0_5241_16732)">
<path d="M19.25 0H2.75C1.2302 0 0 1.22977 0 2.71133V15.0477C0 16.6461 1.2302 17.8363 2.75 17.8363H6.875V21.407C6.875 21.8313 7.3584 22.0739 7.69656 21.8216L13.0625 17.8363H19.25C20.7702 17.8363 22 16.6061 22 15.125V2.71133C22 1.22977 20.7711 0 19.25 0ZM10.7035 13.75C10.1148 13.75 9.625 13.2602 9.625 12.6328C9.625 12.0055 10.1148 11.5156 10.7035 11.5156C11.3695 11.5156 11.8594 12.0055 11.8594 12.6328C11.8594 13.2602 11.3695 13.75 10.7035 13.75ZM13.2215 8.73984L11.5745 9.73371V9.8047C11.5745 10.2662 11.1806 10.6568 10.7151 10.6568C10.2498 10.6568 9.85574 10.2663 9.85574 9.8047V9.19961C9.85574 8.91563 9.99891 8.63156 10.2854 8.4541L12.3264 7.24711C12.577 7.14141 12.7188 6.89219 12.7188 6.60859C12.7188 6.1826 12.3606 5.82785 11.9311 5.82785H10.0676C9.63789 5.82785 9.27996 6.18277 9.27996 6.60859C9.27996 7.07008 8.88611 7.46066 8.42059 7.46066C7.95506 7.46066 7.5625 7.07266 7.5625 6.60859C7.5625 5.225 8.67109 4.125 10.0676 4.125H11.9294C13.3289 4.125 14.4375 5.225 14.4375 6.60859C14.4375 7.46367 13.9734 8.28008 13.2215 8.73984Z" fill="#232323"/>
</g>
<defs>
<clipPath id="clip0_5241_16732">
<rect width="22" height="22" fill="white"/>
</clipPath>
</defs>
</svg>
