<svg width="16" height="16" viewBox="0 0 16 16" fill="none" xmlns="http://www.w3.org/2000/svg">
<path d="M15 9H1C0.449375 9 0 9.44937 0 10V14C0 14.5506 0.449375 15 1 15H15C15.5506 15 16 14.5506 16 14V10C16 9.45 15.55 9 15 9ZM11 12.75C10.5859 12.75 10.25 12.4141 10.25 12C10.25 11.5859 10.5859 11.25 11 11.25C11.4141 11.25 11.75 11.5859 11.75 12C11.75 12.4141 11.4156 12.75 11 12.75ZM13 12.75C12.5859 12.75 12.25 12.4141 12.25 12C12.25 11.5859 12.5859 11.25 13 11.25C13.4141 11.25 13.75 11.5859 13.75 12C13.75 12.4141 13.4156 12.75 13 12.75ZM15 1H1C0.449375 1 0 1.44937 0 2V6C0 6.55063 0.449375 7 1 7H15C15.5506 7 16 6.55063 16 6V2C16 1.44937 15.55 1 15 1ZM11 4.75C10.5859 4.75 10.25 4.41406 10.25 4C10.25 3.58594 10.5875 3.25 11 3.25C11.4125 3.25 11.75 3.5875 11.75 4C11.75 4.4125 11.4156 4.75 11 4.75ZM13 4.75C12.5859 4.75 12.25 4.41406 12.25 4C12.25 3.58594 12.5875 3.25 13 3.25C13.4125 3.25 13.75 3.5875 13.75 4C13.75 4.4125 13.4156 4.75 13 4.75Z" fill="#232323"/>
</svg>
