<svg width="48" height="48" viewBox="0 0 48 48" fill="none" xmlns="http://www.w3.org/2000/svg">
<rect width="48" height="48" rx="24" fill="#E0E3E3"/>
<path d="M34.5 25.5H13.5C12.6741 25.5 12 26.1741 12 27V33C12 33.8259 12.6741 34.5 13.5 34.5H34.5C35.3259 34.5 36 33.8259 36 33V27C36 26.175 35.325 25.5 34.5 25.5ZM28.5 31.125C27.8789 31.125 27.375 30.6211 27.375 30C27.375 29.3789 27.8789 28.875 28.5 28.875C29.1211 28.875 29.625 29.3789 29.625 30C29.625 30.6211 29.1234 31.125 28.5 31.125ZM31.5 31.125C30.8789 31.125 30.375 30.6211 30.375 30C30.375 29.3789 30.8789 28.875 31.5 28.875C32.1211 28.875 32.625 29.3789 32.625 30C32.625 30.6211 32.1234 31.125 31.5 31.125ZM34.5 13.5H13.5C12.6741 13.5 12 14.1741 12 15V21C12 21.8259 12.6741 22.5 13.5 22.5H34.5C35.3259 22.5 36 21.8259 36 21V15C36 14.1741 35.325 13.5 34.5 13.5ZM28.5 19.125C27.8789 19.125 27.375 18.6211 27.375 18C27.375 17.3789 27.8813 16.875 28.5 16.875C29.1187 16.875 29.625 17.3812 29.625 18C29.625 18.6188 29.1234 19.125 28.5 19.125ZM31.5 19.125C30.8789 19.125 30.375 18.6211 30.375 18C30.375 17.3789 30.8813 16.875 31.5 16.875C32.1187 16.875 32.625 17.3812 32.625 18C32.625 18.6188 32.1234 19.125 31.5 19.125Z" fill="#232323"/>
</svg>
