<svg width="180" height="152" viewBox="0 0 180 152" fill="none" xmlns="http://www.w3.org/2000/svg">
<rect width="180" height="20" rx="2" fill="#77A7F9"/>
<rect x="6" y="6" width="106" height="8" rx="1" fill="black"/>
<rect y="30" width="180" height="20" rx="2" fill="#212F46"/>
<rect x="6" y="36" width="106" height="8" rx="1" fill="black"/>
<rect y="52" width="180" height="20" rx="2" fill="#212F46"/>
<rect x="6" y="58" width="106" height="8" rx="1" fill="black"/>
<rect y="74" width="180" height="20" rx="2" fill="#212F46"/>
<rect x="6" y="80" width="106" height="8" rx="1" fill="black"/>
<rect y="96" width="180" height="20" rx="2" fill="#212F46"/>
<rect x="6" y="102" width="106" height="8" rx="1" fill="black"/>
<rect y="118" width="180" height="20" rx="2" fill="#212F46"/>
<rect x="6" y="124" width="106" height="8" rx="1" fill="black"/>
<rect y="140" width="180" height="20" rx="2" fill="#212F46"/>
<rect x="6" y="146" width="106" height="8" rx="1" fill="black"/>
</svg>
