<svg width="200" height="162" viewBox="0 0 200 162" fill="none" xmlns="http://www.w3.org/2000/svg">
<g clip-path="url(#clip0_1172_22786)">
<rect width="200" height="162" rx="8" fill="white"/>
<g clip-path="url(#clip1_1172_22786)">
<g clip-path="url(#clip2_1172_22786)">
<rect x="11" y="11" width="180" height="20" rx="2" fill="#F36B43"/>
<rect x="17" y="17" width="106" height="8" rx="1" fill="white"/>
<rect x="11" y="41" width="180" height="20" rx="2" fill="#F8EAE6"/>
<rect x="17" y="47" width="106" height="8" rx="1" fill="white"/>
<rect x="11" y="63" width="180" height="20" rx="2" fill="#F8EAE6"/>
<rect x="17" y="69" width="106" height="8" rx="1" fill="white"/>
<rect x="11" y="85" width="180" height="20" rx="2" fill="#F8EAE6"/>
<rect x="17" y="91" width="106" height="8" rx="1" fill="white"/>
<rect x="11" y="107" width="180" height="20" rx="2" fill="#F8EAE6"/>
<rect x="17" y="113" width="106" height="8" rx="1" fill="white"/>
<rect x="11" y="129" width="180" height="20" rx="2" fill="#F8EAE6"/>
<rect x="17" y="135" width="106" height="8" rx="1" fill="white"/>
<rect x="11" y="151" width="180" height="20" rx="2" fill="#F8EAE6"/>
<rect x="17" y="157" width="106" height="8" rx="1" fill="white"/>
</g>
</g>
</g>
<defs>
<clipPath id="clip0_1172_22786">
<rect width="200" height="162" rx="8" fill="white"/>
</clipPath>
<clipPath id="clip1_1172_22786">
<rect width="200" height="162" fill="white" transform="translate(10 10)"/>
</clipPath>
<clipPath id="clip2_1172_22786">
<rect x="1" y="1" width="200" height="162" rx="8" fill="white"/>
</clipPath>
</defs>
</svg>
