<svg width="10" height="10" viewBox="0 0 10 10" fill="none" xmlns="http://www.w3.org/2000/svg">
<path d="M7.08398 0.376924C7.57226 -0.111318 8.36523 -0.111318 8.85351 0.376924L9.62304 1.14704C10.1113 1.63513 10.1113 2.42731 9.62304 2.9156L8.67773 3.86091L6.13867 1.32224L7.08398 0.376924ZM8.23632 4.30231L3.68164 8.85505C3.47851 9.05817 3.22656 9.20856 2.95117 9.28864L0.600972 9.98005C0.436519 10.0289 0.258589 9.98396 0.1373 9.84528C0.0160073 9.74177 -0.0293404 9.56403 0.0190581 9.39802L0.710347 7.04841C0.791597 6.77302 0.94062 6.52106 1.14394 6.31794L5.69726 1.76403L8.23632 4.30231Z" fill="#0056D2"/>
</svg>
