<svg viewBox="0 0 1000 1000" xmlns="http://www.w3.org/2000/svg"><circle cx="500" cy="500" fill="#3030d0" r="432"/><path d="m442.46 592.28-.57 268.21 198.9-5.86 11.38-321.78z" fill="#fff" stroke="#000" stroke-linecap="round" stroke-linejoin="round" stroke-width="3"/><path d="m442.09 765.51 203.95-59.38 6.13-173.28-209.71 59.43z" opacity=".22"/><path d="m299.56 684.62s-8.22-210.92 8.29-329.62c8.89-63.9 6.27-86.42 58.8-92.57 52.53-6.16 222.73-16.46 273.84-16.36s77.74 48.91 70.71 85.32c-7.03 36.4-88.37 376.37-88.37 376.37l-301.28 5.73s-18.98.58-21.98-28.86z" fill="#fff" stroke="#000" stroke-linecap="round" stroke-linejoin="round" stroke-width="3"/><path d="m416.46 801.5v70.09l245.8-2.47 5.5-66.78c1.19-14.45-9.89-26.63-23.33-25.65-29.56 2.17-77.95 5.24-108.03 4.68-30.37-.57-73.34-1.57-98.76-2.18-11.62-.28-21.18 9.79-21.18 22.31z"/><path d="m212.11 1000s22.98-177.76 322.9-169.37 367.93 169.37 367.93 169.37z"/><path d="m640.48 246.07c-24.39-.05-75.9 2.27-128.79 5.38 11.79 5.42 37.9 15.11 56.38 16.52 30.63 2.34 58.35 12.55 62.75 53.5 4.92 45.8-4.27 142.61 48.4 148.92 15.72-66.74 29.29-125.09 31.98-139.01 7.03-36.4-19.6-85.21-70.71-85.32z" fill="#737577"/><path d="m374.41 456.19s1 44.15-22.69 63.11-30.98 32.54-22.93 53.72c8.27 21.75 65.71 28.98 66.07-15.06" fill="none" stroke="#000" stroke-linecap="round" stroke-linejoin="round" stroke-width="3"/><path d="m373.02 452.24 36.19-1.69" fill="none" stroke="#000" stroke-linecap="round" stroke-linejoin="round" stroke-width="10"/><path d="m537.85 454.95 145.93-5.41" fill="none" stroke="#000" stroke-linecap="round" stroke-linejoin="round" stroke-width="10"/><circle cx="307.82" cy="449.54" fill="none" r="64.32" stroke="#000" stroke-linecap="round" stroke-linejoin="round" stroke-width="10"/><circle cx="473.53" cy="450.55" fill="none" r="64.32" stroke="#000" stroke-linecap="round" stroke-linejoin="round" stroke-width="10"/><path d="m364.36 646.64c2.67-.29 54.2 9.08 59.48-10.41" fill="none" stroke="#000" stroke-linecap="round" stroke-linejoin="round" stroke-width="3"/><path d="m321.83 450.13c-1.12 10.47 2.47 28.19 15.33 27.24s18.88-14.37 19.08-27.24-3.26-23.84-15.13-23.84-17.81 9.98-19.29 23.84z"/><path d="m504.71 453.56c1.12-10.47-2.47-28.19-15.33-27.24s-18.88 14.37-19.08 27.24 3.26 23.84 15.13 23.84 17.81-9.98 19.29-23.84z"/><g stroke-linecap="round" stroke-linejoin="round"><path d="m512.3 368.41-57.19 1.59" fill="none" stroke="#000" stroke-width="3"/><path d="m349.98 367.85h-42.16" fill="none" stroke="#000" stroke-width="3"/><path d="m436.62 797.73v49.55" fill="none" stroke="#737577" stroke-width="3"/><path d="m456.62 797.73v49.55" fill="none" stroke="#737577" stroke-width="3"/><path d="m476.62 797.73v49.55" fill="none" stroke="#737577" stroke-width="3"/><path d="m496.62 797.73v49.55" fill="none" stroke="#737577" stroke-width="3"/><path d="m606.62 797.73v49.55" fill="none" stroke="#737577" stroke-width="3"/><path d="m626.62 797.73v49.55" fill="none" stroke="#737577" stroke-width="3"/><path d="m646.62 797.73v49.55" fill="none" stroke="#737577" stroke-width="3"/><path d="m299.56 684.62s-8.22-210.92 8.29-329.62c8.89-63.9 6.27-86.42 58.8-92.57 52.53-6.16 222.73-16.46 273.84-16.36s77.74 48.91 70.71 85.32c-7.03 36.4-88.37 376.37-88.37 376.37l-301.28 5.73s-18.98.58-21.98-28.86z" fill="none" stroke="#000" stroke-width="3"/><path d="m511.69 251.45s-37.95-15.01-57.83-50.66-68.35-27.46-87.75-13.63-34.85 32.58-24.99 61.63c10.76 31.71 57.41 38.43 101.33 20.24s37.13-15.61 37.13-15.61z" fill="#737577" stroke="#000" stroke-width="3"/></g><path d="m640.62 556.81c-.42 40.78 1.06 71.9 1.06 71.9l15.01-63.14-16.08-8.76z" opacity=".22"/><path d="m657.01 461.55s5.39-27.35 26.77-25.44c21.37 1.91 25.82 15.62 26.27 21.99s-10.85 81.79-16.87 112.22c-1.78 9.02-12.6 19.12-28.76 17.53-12.39-1.22-26.41-11.7-23.93-29.01" fill="#fff" stroke="#000" stroke-linecap="round" stroke-linejoin="round" stroke-width="3"/><path d="m387.22 602.43c-11.56 2.17 4.45 17.83 11.14 17.83h63.23s-42.63-23.78-74.36-17.83z" fill="#737577"/><path d="m374.54 602.43c11.56 2.17-4.45 17.83-11.14 17.83h-63.23s42.63-23.78 74.36-17.83z" fill="#737577"/><path d="m0 0v1000h1000v-1000zm500 932c-238.59 0-432-193.41-432-432s193.41-432 432-432 432 193.41 432 432-193.41 432-432 432z" fill="#fff"/></svg>