<svg viewBox="0 0 1000 1000" xmlns="http://www.w3.org/2000/svg"><path d="m1000 500c0 177.67-92.67 333.7-232.31 422.37-77.38 49.17-169.21 77.63-267.69 77.63-84.26 0-163.66-20.84-233.3-57.65-158.61-83.83-266.7-250.46-266.7-442.35 0-276.15 223.85-500 500-500s500 223.85 500 500z" fill="#3030d0"/><path d="m433.4 606.81-.66 310.42 230.21-6.78 13.17-372.43z" fill="#fff"/><path d="m432.74 918.97c-.45 0-.89-.18-1.21-.49-.34-.33-.53-.78-.53-1.25l.66-310.43c0-.78.52-1.46 1.26-1.67l242.72-68.79c.53-.15 1.11-.04 1.55.3s.68.87.66 1.43l-13.17 372.43c-.03.91-.77 1.65-1.68 1.67l-230.21 6.78s-.03 0-.05 0zm2.39-310.85-.65 307.33 226.79-6.68 13.03-368.42-239.17 67.78z"/><path d="m432.97 807.3 236.06-68.72 7.09-200.56-242.72 68.79z" opacity=".22"/><path d="m268.01 713.68s-9.51-244.12 9.59-381.5c10.29-73.96 7.26-100.02 68.06-107.14 60.8-7.13 257.79-19.05 316.94-18.94 59.16.12 89.98 56.61 81.84 98.75-8.14 42.13-102.28 435.61-102.28 435.61l-348.7 6.63s-21.97.67-25.44-33.4h-.01z" fill="#fff"/><path d="m293.44 748.83c-1.28 0-23.56-.55-27.13-34.8-.02-.09-.03-.19-.04-.28-.09-2.44-9.3-245.85 9.61-381.81 1-7.15 1.85-13.75 2.68-20.14 3.9-30.02 6.47-49.85 15.2-63.78 8.96-14.3 23.93-21.45 51.69-24.7 62.88-7.37 258.52-19.1 317.15-18.95 25.51.05 48.33 10.73 64.25 30.06 16.46 19.99 23.85 47.1 19.29 70.75-8.05 41.69-101.35 431.75-102.3 435.69-.18.77-.86 1.32-1.66 1.33l-348.7 6.63h-.06zm-23.7-35.4s0 .06.01.08c3.25 31.92 22.83 31.84 23.67 31.84l347.37-6.61c5.99-25.04 94.15-393.83 101.95-434.23 4.38-22.66-2.74-48.68-18.56-67.89-15.26-18.52-37.13-28.75-61.58-28.8-.28 0-.57 0-.86 0-59.59 0-253.37 11.59-315.88 18.92-53.57 6.27-56.16 26.23-63.85 85.48-.83 6.39-1.69 13.01-2.69 20.17-18.65 134.09-9.88 373.16-9.59 381.02z"/><path d="m403.31 848.96v81.12l284.49-2.86 6.37-77.29c1.38-16.72-11.45-30.82-27-29.69-34.21 2.51-90.22 6.06-125.03 5.42-35.15-.66-84.88-1.82-114.31-2.52-13.45-.32-24.51 11.33-24.51 25.82z"/><path d="m767.69 922.37c-77.38 49.17-169.21 77.63-267.69 77.63-84.26 0-163.66-20.84-233.3-57.65 33.36-21.47 77.71-40.05 136.61-50.64 7.53-1.35 15.31-2.58 23.33-3.66 2.04-.28 4.1-.54 6.17-.8 5.54-.69 11.2-1.31 16.98-1.86 7.51-.72 15.23-1.31 23.15-1.78 7.53-.45 15.24-.78 23.15-1 14.19-.38 28.99-.37 44.43.06 29.53.82 57.12 2.93 82.88 6.1 7.89.96 15.6 2.03 23.15 3.18 5.75.88 11.4 1.82 16.96 2.8 2.08.37 4.14.74 6.19 1.13 6.93 1.28 13.72 2.66 20.35 4.11 28.56 6.24 54.36 13.85 77.64 22.37z"/><path d="m662.59 206.1c-28.23-.06-87.85 2.63-149.06 6.23 13.65 6.27 43.87 17.49 65.25 19.12 35.45 2.71 67.53 14.53 72.63 61.92 5.69 53.01-4.94 165.06 56.02 172.36 18.19-77.25 33.9-144.78 37.01-160.89 8.14-42.13-22.69-98.62-81.84-98.75h-.01z" fill="#737577"/><path d="m340.07 606.21c-17.79 0-35.15-8.71-39.85-21.08-9.26-24.35-2.42-40.54 27.08-64.15 26.42-21.15 25.62-71.15 25.61-71.65-.02-.96.74-1.75 1.7-1.77h.04c.94 0 1.71.75 1.73 1.7.05 2.12.86 52.21-26.91 74.44-28.02 22.43-34.59 37.62-26 60.2 4.88 12.84 26.41 21.46 45.17 18.1 17.6-3.16 27.78-15.89 27.94-34.92 0-.95.78-1.72 1.74-1.72h.01c.96 0 1.73.79 1.72 1.75-.17 20.86-11.4 34.83-30.8 38.31-3.03.54-6.11.8-9.18.8z"/><path d="m353.03 450.51c-3.07 0-5.63-2.42-5.78-5.52-.15-3.19 2.32-5.9 5.51-6.05l41.89-1.96c3.22-.12 5.9 2.32 6.05 5.51s-2.32 5.9-5.51 6.05l-41.89 1.96c-.09 0-.18 0-.27 0z"/><path d="m543.8 453.65c-3.1 0-5.66-2.45-5.78-5.57-.12-3.19 2.37-5.88 5.57-6l168.9-6.26c3.22-.11 5.88 2.38 6 5.57s-2.37 5.88-5.57 6l-168.9 6.26c-.07 0-.15 0-.22 0z"/><path d="m277.57 521.83c-44.24 0-80.23-35.99-80.23-80.23s35.99-80.23 80.23-80.23 80.23 35.99 80.23 80.23-35.99 80.23-80.23 80.23zm0-148.89c-37.86 0-68.66 30.8-68.66 68.66s30.8 68.66 68.66 68.66 68.66-30.8 68.66-68.66-30.8-68.66-68.66-68.66z"/><path d="m469.36 523c-44.24 0-80.23-35.99-80.23-80.23s35.99-80.23 80.23-80.23 80.23 35.99 80.23 80.23-35.99 80.23-80.23 80.23zm0-148.89c-37.86 0-68.66 30.8-68.66 68.66s30.8 68.66 68.66 68.66 68.66-30.8 68.66-68.66-30.8-68.66-68.66-68.66z"/><path d="m375.19 673.82c-10.8 0-21.3-1.2-27.7-1.94-2.01-.23-3.92-.47-4.32-.43-.94.03-1.78-.67-1.85-1.6s.57-1.75 1.5-1.85c.62-.07 1.78.06 5.06.44 14.22 1.63 57.47 6.59 62.29-11.21.25-.93 1.21-1.47 2.13-1.22.93.25 1.47 1.2 1.22 2.13-3.43 12.67-21.25 15.69-38.34 15.69z"/><path d="m293.78 442.28c-1.3 12.12 2.86 32.63 17.74 31.53s21.85-16.63 22.08-31.53-3.77-27.59-17.51-27.59-20.61 11.55-22.33 27.59h.01z"/><path d="m505.45 446.25c1.3-12.12-2.86-32.63-17.74-31.53s-21.85 16.63-22.08 31.53 3.77 27.59 17.51 27.59 20.61-11.55 22.33-27.59h-.01z"/><path d="m448.04 351.27c-.94 0-1.71-.75-1.73-1.69-.03-.96.73-1.76 1.69-1.78l66.19-1.84c.95-.02 1.76.73 1.78 1.69.03.96-.73 1.76-1.69 1.78l-66.19 1.84s-.03 0-.05 0z"/><path d="m326.37 348.78h-48.8c-.96 0-1.74-.78-1.74-1.74s.78-1.74 1.74-1.74h48.8c.96 0 1.74.78 1.74 1.74s-.78 1.74-1.74 1.74z"/><g fill="#737577"><path d="m426.64 903.68c-.96 0-1.74-.78-1.74-1.74v-57.35c0-.96.78-1.74 1.74-1.74s1.74.78 1.74 1.74v57.35c0 .96-.78 1.74-1.74 1.74z"/><path d="m449.79 903.68c-.96 0-1.74-.78-1.74-1.74v-57.35c0-.96.78-1.74 1.74-1.74s1.74.78 1.74 1.74v57.35c0 .96-.78 1.74-1.74 1.74z"/><path d="m472.94 903.68c-.96 0-1.74-.78-1.74-1.74v-57.35c0-.96.78-1.74 1.74-1.74s1.74.78 1.74 1.74v57.35c0 .96-.78 1.74-1.74 1.74z"/><path d="m496.09 903.68c-.96 0-1.74-.78-1.74-1.74v-57.35c0-.96.78-1.74 1.74-1.74s1.74.78 1.74 1.74v57.35c0 .96-.78 1.74-1.74 1.74z"/><path d="m623.4 903.68c-.96 0-1.74-.78-1.74-1.74v-57.35c0-.96.78-1.74 1.74-1.74s1.74.78 1.74 1.74v57.35c0 .96-.78 1.74-1.74 1.74z"/><path d="m646.55 903.68c-.96 0-1.74-.78-1.74-1.74v-57.35c0-.96.78-1.74 1.74-1.74s1.74.78 1.74 1.74v57.35c0 .96-.78 1.74-1.74 1.74z"/><path d="m669.7 903.68c-.96 0-1.74-.78-1.74-1.74v-57.35c0-.96.78-1.74 1.74-1.74s1.74.78 1.74 1.74v57.35c0 .96-.78 1.74-1.74 1.74z"/></g><path d="m293.44 748.83c-1.28 0-23.56-.55-27.13-34.8-.02-.09-.03-.19-.04-.28-.09-2.44-9.3-245.85 9.61-381.81 1-7.15 1.85-13.75 2.68-20.14 3.9-30.02 6.47-49.85 15.2-63.78 8.96-14.3 23.93-21.45 51.69-24.7 62.88-7.37 258.52-19.1 317.15-18.95 25.51.05 48.33 10.73 64.25 30.06 16.46 19.99 23.85 47.1 19.29 70.75-8.05 41.69-101.35 431.75-102.3 435.69-.18.77-.86 1.32-1.66 1.33l-348.7 6.63h-.06zm-23.7-35.4s0 .06.01.08c3.25 31.92 22.83 31.84 23.67 31.84l347.37-6.61c5.99-25.04 94.15-393.83 101.95-434.23 4.38-22.66-2.74-48.68-18.56-67.89-15.26-18.52-37.13-28.75-61.58-28.8-.28 0-.57 0-.86 0-59.59 0-253.37 11.59-315.88 18.92-53.57 6.27-56.16 26.23-63.85 85.48-.83 6.39-1.69 13.01-2.69 20.17-18.65 134.09-9.88 373.16-9.59 381.02z"/><path d="m513.53 212.33s-43.92-17.37-66.93-58.63-79.11-31.78-101.56-15.78c-22.45 16.01-40.34 37.71-28.92 71.33 12.45 36.7 66.45 44.48 117.28 23.43s42.97-18.07 42.97-18.07z" fill="#737577"/><path d="m378.7 246c-13.56 0-26.1-2.38-36.71-7.19-13.67-6.19-23.18-16.23-27.52-29.01-12.79-37.69 10.74-59.89 29.56-73.3 14.23-10.14 41.25-17.57 65.38-12.14 17.08 3.84 30.46 13.69 38.71 28.49 22.43 40.22 65.62 57.69 66.06 57.87.76.3 1.2 1.08 1.08 1.89-.13.8-.8 1.41-1.61 1.46l-36.66 2.25c-.25.12-.51.23-.77.35-1.03.45-2.81 1.22-5.82 2.49-7.2 3.04-19.42 8.13-36.33 15.13-18.79 7.78-37.91 11.72-55.36 11.72zm13.51-120.01c-18.09 0-35.74 5.9-46.17 13.34-28.47 20.3-37.46 42.34-28.29 69.36 4.02 11.85 12.9 21.18 25.67 26.96 23.04 10.44 57.26 8.69 89.31-4.58 31.57-13.08 40.25-16.77 42.5-17.78.15-.13.32-.24.52-.31.67-.25 1.18-.28 1.57-.18l29.25-1.79c-13.15-6.58-43.67-24.53-61.49-56.48-7.87-14.1-20.13-23.12-36.44-26.79-5.39-1.21-10.93-1.76-16.43-1.76z"/><path d="m662.75 565.75c-.49 47.2 1.23 83.22 1.23 83.22l17.37-73.08-18.61-10.14z" opacity=".22"/><path d="m681.72 455.5s6.24-31.66 30.98-29.44c24.73 2.21 29.88 18.08 30.41 25.45s-12.56 94.66-19.53 129.88c-2.06 10.44-14.58 22.13-33.29 20.29-14.34-1.41-30.57-13.54-27.7-33.58" fill="#fff"/><path d="m694.18 603.61c-1.32 0-2.67-.06-4.05-.2-9.15-.9-17.9-5.63-23.41-12.66-5.04-6.43-7.06-14.34-5.83-22.89.14-.95 1.02-1.61 1.96-1.47.95.14 1.61 1.01 1.47 1.96-1.09 7.59.69 14.59 5.13 20.25 4.87 6.2 12.92 10.55 21.02 11.35 18.53 1.83 29.7-10.2 31.41-18.9 7.26-36.68 19.96-122.82 19.5-129.43-.25-3.57-2.83-21.52-28.83-23.84-22.91-2.05-28.88 26.82-29.13 28.05-.19.94-1.1 1.55-2.04 1.37-.94-.19-1.55-1.1-1.37-2.04.07-.33 6.82-33.16 32.84-30.84 28.8 2.57 31.69 22.99 31.98 27.06.54 7.59-12.62 95.3-19.55 130.34-2.22 11.24-14.25 21.88-31.11 21.88z"/><path d="m369.47 618.55c-13.38 2.51 5.15 20.64 12.89 20.64h73.18s-49.34-27.52-86.06-20.64z" fill="#737577"/><path d="m354.79 618.55c13.38 2.51-5.15 20.64-12.89 20.64h-73.18s49.34-27.52 86.06-20.64z" fill="#737577"/></svg>