<svg width="24" height="24" viewBox="0 0 24 24" fill="none" xmlns="http://www.w3.org/2000/svg">
<rect x="5" y="5" width="5" height="5" stroke="#BABABC" stroke-width="2" stroke-linejoin="round"/>
<rect x="5" y="14" width="5" height="5" stroke="#BABABC" stroke-width="2" stroke-linejoin="round"/>
<rect x="14" y="5" width="5" height="5" stroke="#BABABC" stroke-width="2" stroke-linejoin="round"/>
<rect x="13" y="13" width="3" height="3" rx="1" fill="#BABABC"/>
<rect x="13" y="17" width="3" height="3" rx="1" fill="#BABABC"/>
<rect x="17" y="13" width="3" height="3" rx="1" fill="#BABABC"/>
<rect x="17" y="17" width="3" height="3" rx="1" fill="#BABABC"/>
<path d="M6 23L3 23C2.46957 23 1.96086 22.7893 1.58579 22.4142C1.21071 22.0391 1 21.5304 1 21L1 18" stroke="#BABABC" stroke-width="2" stroke-linecap="round" stroke-linejoin="round"/>
<path d="M18 1L21 1C21.5304 1 22.0391 1.21071 22.4142 1.58579C22.7893 1.96086 23 2.46957 23 3L23 6" stroke="#BABABC" stroke-width="2" stroke-linecap="round" stroke-linejoin="round"/>
<path d="M1 6L1 3C1 2.46957 1.21071 1.96086 1.58579 1.58579C1.96086 1.21071 2.46957 1 3 1L6 1" stroke="#BABABC" stroke-width="2" stroke-linecap="round" stroke-linejoin="round"/>
<path d="M23 18L23 21C23 21.5304 22.7893 22.0391 22.4142 22.4142C22.0391 22.7893 21.5304 23 21 23L18 23" stroke="#BABABC" stroke-width="2" stroke-linecap="round" stroke-linejoin="round"/>
</svg>
