<svg width="24" height="24" viewBox="0 0 24 24" fill="none" xmlns="http://www.w3.org/2000/svg">
<path fill-rule="evenodd" clip-rule="evenodd" d="M20.303 13.426C19.777 13.259 19.215 13.55 19.047 14.076C18.11 17.022 15.352 19 12.184 19C8.222 19 5 15.86 5 12C5 8.141 8.222 5 12.184 5C13.912 5 15.542 5.602 16.829 6.67L14.663 6.313C14.113 6.213 13.603 6.592 13.513 7.136C13.423 7.681 13.792 8.196 14.337 8.285L18.583 8.987C18.638 8.996 18.694 9 18.747 9C18.866 9 18.982 8.979 19.09 8.939C19.127 8.925 19.157 8.899 19.193 8.88C19.259 8.846 19.328 8.816 19.385 8.768C19.421 8.739 19.444 8.697 19.475 8.663C19.522 8.614 19.572 8.567 19.607 8.507C19.632 8.464 19.642 8.413 19.661 8.365C19.685 8.306 19.717 8.251 19.729 8.186L20.483 4.186C20.585 3.643 20.228 3.119 19.685 3.018C19.144 2.92 18.619 3.273 18.517 3.815L18.245 5.256C16.581 3.815 14.448 3 12.184 3C7.12 3 3 7.037 3 12C3 16.963 7.12 21 12.184 21C16.226 21 19.75 18.461 20.953 14.682C21.12 14.156 20.829 13.594 20.303 13.426Z" fill="#FC718A"/>
<mask id="mask0_1968_4355" style="mask-type:alpha" maskUnits="userSpaceOnUse" x="3" y="3" width="18" height="18">
<path fill-rule="evenodd" clip-rule="evenodd" d="M20.303 13.426C19.777 13.259 19.215 13.55 19.047 14.076C18.11 17.022 15.352 19 12.184 19C8.222 19 5 15.86 5 12C5 8.141 8.222 5 12.184 5C13.912 5 15.542 5.602 16.829 6.67L14.663 6.313C14.113 6.213 13.603 6.592 13.513 7.136C13.423 7.681 13.792 8.196 14.337 8.285L18.583 8.987C18.638 8.996 18.694 9 18.747 9C18.866 9 18.982 8.979 19.09 8.939C19.127 8.925 19.157 8.899 19.193 8.88C19.259 8.846 19.328 8.816 19.385 8.768C19.421 8.739 19.444 8.697 19.475 8.663C19.522 8.614 19.572 8.567 19.607 8.507C19.632 8.464 19.642 8.413 19.661 8.365C19.685 8.306 19.717 8.251 19.729 8.186L20.483 4.186C20.585 3.643 20.228 3.119 19.685 3.018C19.144 2.92 18.619 3.273 18.517 3.815L18.245 5.256C16.581 3.815 14.448 3 12.184 3C7.12 3 3 7.037 3 12C3 16.963 7.12 21 12.184 21C16.226 21 19.75 18.461 20.953 14.682C21.12 14.156 20.829 13.594 20.303 13.426Z" fill="white"/>
</mask>
<g mask="url(#mask0_1968_4355)">
<rect width="24" height="24" fill="#FC718A"/>
</g>
</svg>
