<svg width="16" height="16" viewBox="0 0 16 16" fill="none" xmlns="http://www.w3.org/2000/svg">
<path d="M13.5 3.66875V2.5C13.5 1.94781 13.9469 1.5 14.5 1.5C15.0531 1.5 15.5 1.94781 15.5 2.5V6C15.5 6.55313 15.0531 7 14.5 7H13.6812C13.6656 7 13.65 7 13.6344 7H11C10.4469 7 10 6.55313 10 6C10 5.44688 10.4469 5 11 5H12C11.0875 3.78438 9.63438 3 7.97188 3C5.825 3 3.97187 4.39062 3.28437 6.33437C3.10031 6.85312 2.52875 7.12812 2.00813 6.94375C1.4875 6.75937 1.21438 6.15938 1.39844 5.66563C2.35906 2.94938 4.95 1 7.97188 1C10.2313 1 12.1906 2.04438 13.5 3.66875ZM1.5 14.5C0.947812 14.5 0.5 14.0531 0.5 13.5V10C0.5 9.44688 0.947812 9 1.5 9H5C5.55313 9 6 9.44688 6 10C6 10.5531 5.55313 11 5 11H3.97187C4.9125 12.2156 6.36563 13 8 13C10.175 13 12.0281 11.6094 12.7156 9.66562C12.9 9.14687 13.4719 8.87187 13.9906 9.05625C14.5125 9.24062 14.7844 9.8125 14.6 10.3344C13.6406 13.05 11.05 15 8 15C5.76875 15 3.78125 13.9563 2.5 12.3313V13.5C2.5 14.0531 2.05219 14.5 1.5 14.5Z" fill="#232323"/>
</svg>
