<svg width="102" height="102" viewBox="0 0 102 102" fill="none" xmlns="http://www.w3.org/2000/svg">
<g clip-path="url(#clip0_3358_84804)">
<path d="M60.2849 13.9547C54.3472 10.5288 46.9268 14.8184 46.9268 21.6702C46.9268 28.522 50.2375 34.4598 55.6643 38.1232L78.6452 51.4454L78.7028 51.4238L101.993 37.9649L60.2849 13.9547Z" fill="#B3B3B3"/>
<path d="M55.6646 38.1228C50.2378 34.4593 46.9271 28.2913 46.9271 21.6697C46.9271 18.4094 48.6328 15.6888 51.0583 14.1486C50.9431 14.2134 51.1735 14.0838 51.0583 14.1486L14.7048 34.5745L8.8678 38.1012L4.8877 40.3899C7.39235 39.116 10.5304 39.0152 13.3301 40.6418L23.3415 46.3421L32.115 51.4161L55.4055 64.8535L78.6383 51.4305L55.6574 38.1084L55.6646 38.1228Z" fill="#666666"/>
<path d="M102 64.8678L55.4119 91.7857L46.6168 86.7116L46.5809 86.6756L8.83108 64.8678C6.24725 63.1837 4.14564 60.8877 2.663 58.3039C0.935648 55.3242 0 51.8983 0 48.3501C0 45.1545 1.605 42.513 3.93692 40.944C4.2536 40.7497 4.56308 40.5698 4.89416 40.397C7.39882 39.1231 10.5368 39.0224 13.3366 40.649L23.2904 46.3924L32.0639 51.4449L32.1215 51.4233L55.4119 64.8606L78.6448 51.4377L102 64.8606V64.8678Z" fill="#232323"/>
</g>
<defs>
<clipPath id="clip0_3358_84804">
<rect width="102" height="102" fill="white"/>
</clipPath>
</defs>
</svg>
