<svg width="16" height="16" viewBox="0 0 16 16" fill="none" xmlns="http://www.w3.org/2000/svg">
<g clip-path="url(#clip0_3564_9017)">
<path d="M10.1393 5.28377L10.2547 5.52135L10.516 5.5599L14.5077 6.14879L14.51 6.14911C14.6508 6.16923 14.773 6.27 14.8196 6.41043C14.8652 6.55034 14.8292 6.70308 14.723 6.81031L11.8306 9.64718L11.6444 9.82975L11.6876 10.0869L12.3708 14.1586C12.3708 14.1587 12.3709 14.1589 12.3709 14.1591C12.3955 14.3079 12.3341 14.4544 12.2162 14.5381L12.2143 14.5395C12.0926 14.6268 11.9327 14.6366 11.8046 14.5684L8.23825 12.6658L8.00281 12.5402L7.76741 12.6659L4.20564 14.5675C4.20535 14.5677 4.20507 14.5678 4.20479 14.568C4.07244 14.6374 3.91218 14.626 3.79152 14.5395C3.67213 14.4539 3.61195 14.3062 3.6371 14.1626L3.63768 14.1591L4.32101 10.0869L4.36416 9.82972L4.17798 9.64715L1.28495 6.81019C1.17945 6.70386 1.14302 6.55112 1.18899 6.4095C1.23483 6.27019 1.35543 6.1695 1.49865 6.14919L1.49865 6.1492L1.5015 6.14878L5.48983 5.55989L5.7509 5.52134L5.86638 5.28405L7.65527 1.60821L7.65527 1.60821L7.65624 1.60619C7.71968 1.47433 7.85502 1.38916 8.0029 1.38916C8.15445 1.38916 8.28928 1.47512 8.35234 1.60619L8.35233 1.60619L8.35318 1.60794L10.1393 5.28377Z" fill="#0056D2" stroke="#0056D2"/>
</g>
<defs>
<clipPath id="clip0_3564_9017">
<rect width="16" height="14.2222" fill="white" transform="translate(0 0.890137)"/>
</clipPath>
</defs>
</svg>
