<svg width="20" height="20" viewBox="0 0 20 20" fill="none" xmlns="http://www.w3.org/2000/svg">
<g clip-path="url(#clip0_3707_9969)">
<path d="M5.04928 6.28862C5.21962 6.45954 5.44413 6.54496 5.66798 6.54496C5.89184 6.54496 6.11751 6.45998 6.28887 6.28862C6.63066 5.94683 6.63066 5.39321 6.28887 5.05159L4.63731 3.40003C4.29664 3.05823 3.74189 3.05823 3.39991 3.40003C3.05793 3.74183 3.05811 4.29545 3.39991 4.63743L5.04928 6.28862ZM10.0003 4.75008C10.4834 4.75008 10.8753 4.35815 10.8753 3.87508V1.54175C10.8753 1.05868 10.4852 0.666748 10.0003 0.666748C9.51543 0.666748 9.12533 1.05868 9.12533 1.54175V3.87508C9.12533 4.35998 9.51908 4.75008 10.0003 4.75008ZM4.75033 10.0001C4.75033 9.51701 4.3584 9.12508 3.87533 9.12508H1.54199C1.05892 9.12508 0.666992 9.51883 0.666992 10.0001C0.666992 10.4813 1.05892 10.8751 1.54199 10.8751H3.87533C4.36022 10.8751 4.75033 10.485 4.75033 10.0001ZM14.3316 6.54383C14.5555 6.54383 14.78 6.45837 14.9503 6.28749L16.6 4.63666C16.9418 4.29486 16.9418 3.74124 16.6 3.39926C16.2582 3.05728 15.7035 3.05747 15.3626 3.39926L13.7129 5.0501C13.3711 5.39189 13.3711 5.94551 13.7129 6.28713C13.8831 6.45998 14.1092 6.54383 14.3316 6.54383ZM10.0003 15.2501C9.51725 15.2501 9.12533 15.642 9.12533 16.1251V18.4584C9.12533 18.9433 9.51908 19.3334 10.0003 19.3334C10.4816 19.3334 10.8753 18.9415 10.8753 18.4584V16.1251C10.8753 15.6438 10.4852 15.2501 10.0003 15.2501ZM5.04928 13.7115L3.39954 15.3624C3.05775 15.7042 3.05775 16.2578 3.39954 16.5998C3.57046 16.7707 3.79439 16.8561 4.01824 16.8561C4.2421 16.8561 4.46668 16.7706 4.63694 16.5998L6.28668 14.9489C6.62848 14.6071 6.62848 14.0535 6.28668 13.7119C5.94488 13.3703 5.39199 13.3688 5.04928 13.7115ZM18.4587 9.12508H16.1253C15.6423 9.12508 15.2503 9.51701 15.2503 10.0001C15.2503 10.4832 15.6423 10.8751 16.1253 10.8751H18.4587C18.9436 10.8751 19.3337 10.485 19.3337 10.0001C19.3337 9.51519 18.9436 9.12508 18.4587 9.12508ZM14.9514 13.7115C14.6107 13.3697 14.056 13.3699 13.714 13.7117C13.372 14.0535 13.3722 14.6071 13.714 14.9487L15.3637 16.5995C15.534 16.7704 15.7586 16.8559 15.9824 16.8559C16.2063 16.8559 16.4301 16.7704 16.6011 16.5995C16.9429 16.2577 16.9429 15.7041 16.6011 15.3621L14.9514 13.7115ZM10.0003 5.91675C7.74356 5.91675 5.91699 7.74331 5.91699 10.0001C5.91699 12.2554 7.74501 14.0834 10.0003 14.0834C12.2556 14.0834 14.0837 12.2554 14.0837 10.0001C14.0837 7.74331 12.2571 5.91675 10.0003 5.91675Z" fill="#232323"/>
</g>
<defs>
<clipPath id="clip0_3707_9969">
<rect width="18.6667" height="18.6667" fill="white" transform="translate(0.666992 0.666748)"/>
</clipPath>
</defs>
</svg>
