<svg width="20" height="20" viewBox="0 0 20 20" fill="none" xmlns="http://www.w3.org/2000/svg">
<path fill-rule="evenodd" clip-rule="evenodd" d="M0.876407 7.80014C0.48941 7.40612 0.495104 6.77298 0.889125 6.38598L4.68611 2.65668C4.8766 2.46958 5.13401 2.36644 5.40098 2.37022C5.66796 2.374 5.92234 2.48439 6.10746 2.6768L9.76256 6.47591C10.1455 6.8739 10.1332 7.50695 9.73524 7.88986C9.33725 8.27277 8.7042 8.26054 8.32129 7.86254L6.41035 5.87631L6.51019 16.5343C6.51536 17.0866 6.07186 17.5384 5.5196 17.5436C4.96734 17.5488 4.51545 17.1053 4.51027 16.553L4.40891 5.73227L2.29056 7.81286C1.89654 8.19985 1.2634 8.19416 0.876407 7.80014ZM14.426 2.45496C14.9783 2.44979 15.4302 2.89329 15.4353 3.44555L15.5367 14.2659L17.7086 12.1322C18.1026 11.7451 18.7357 11.7508 19.1227 12.1447C19.5098 12.5387 19.5042 13.1718 19.1102 13.5589L15.2596 17.3418C15.0673 17.5307 14.807 17.634 14.5375 17.6282C14.268 17.6225 14.0123 17.5082 13.8283 17.3114L10.2268 13.4586C9.84963 13.0552 9.87096 12.4224 10.2744 12.0452C10.6779 11.6681 11.3107 11.6894 11.6878 12.0929L13.5348 14.0686L13.4354 3.46429C13.4303 2.91203 13.8738 2.46014 14.426 2.45496Z" fill="#232323"/>
</svg>
