<svg width="48" height="48" viewBox="0 0 48 48" fill="none" xmlns="http://www.w3.org/2000/svg">
<rect width="48" height="48" rx="24" fill="#E0E3E3"/>
<path d="M19.0284 34.8483C18.826 35.4564 19.1553 36.1134 19.7627 36.3159C19.884 36.3565 20.0097 36.3759 20.1306 36.3759C20.6169 36.3759 21.0689 36.0685 21.2318 35.5826L21.8017 33.8723C21.0171 33.7401 20.2679 33.5325 19.5553 33.27L19.0284 34.8483ZM28.9671 34.8483L28.4412 33.2695C27.7286 33.5322 26.9789 33.7398 26.1948 33.8718L26.7647 35.5821C26.9272 36.0665 27.3767 36.3759 27.865 36.3759C27.9858 36.3759 28.1097 36.357 28.232 36.3162C28.8414 36.1148 29.1266 35.4139 28.9671 34.8483ZM22.8376 34.0024V35.2157C22.8376 35.8586 23.3597 36.3759 23.9978 36.3759C24.6359 36.3759 25.1579 35.8562 25.1579 35.2157V34.0033C24.776 34.0362 24.3893 34.0555 23.9978 34.0555C23.6062 34.0555 23.2195 34.0362 22.8376 34.0024Z" fill="black"/>
<path d="M30.3295 18.0837C33.1429 19.7321 34.8203 22.4053 34.8203 25.2332C34.8203 30.0971 29.9622 34.0552 23.9922 34.0552C18.0222 34.0552 13.1641 30.0962 13.1641 25.2332C13.1641 22.4053 14.8439 19.7321 17.6568 18.0837C17.657 18.0836 17.6575 18.0833 17.6582 18.0828C17.7403 18.033 20.8389 16.1495 21.8067 12.2147C21.8744 11.9329 22.0951 11.7139 22.3776 11.6467C22.6532 11.5787 22.9529 11.6746 23.1414 11.8944L23.9922 12.8833L24.8449 11.8943C25.032 11.6745 25.3356 11.5785 25.6106 11.6465C25.893 11.7137 26.1135 11.9328 26.1815 12.2145C27.1555 16.1847 30.2978 18.0656 30.3295 18.0837Z" fill="black"/>
</svg>
