<svg width="20" height="20" viewBox="0 0 20 20" fill="none" xmlns="http://www.w3.org/2000/svg">
<g clip-path="url(#clip0_7973_141964)">
<path d="M9.9375 6.875H8.125V13.125H9.93789C11.6953 13.125 13.125 11.7227 13.125 10C13.125 8.27734 11.6953 6.875 9.9375 6.875ZM10 0C4.47656 0 0 4.47656 0 10C0 15.5234 4.47656 20 10 20C15.5234 20 20 15.5234 20 10C20 4.47656 15.5234 0 10 0ZM9.9375 15H7.1875C6.67188 15 6.25 14.582 6.25 14.0625V5.9375C6.25 5.42188 6.67188 5 7.1875 5H9.93789C12.7305 5 15 7.24219 15 10C15 12.7578 12.7305 15 9.9375 15Z" fill="#F37B58" stroke="#F37B58" stroke-width="0.0371094"/>
</g>
<defs>
<clipPath id="clip0_7973_141964">
<rect width="20" height="20" fill="white"/>
</clipPath>
</defs>
</svg>
