<svg width="24" height="24" viewBox="0 0 24 24" fill="none" xmlns="http://www.w3.org/2000/svg">
<path d="M23.0154 16.7681C23.6489 15.3066 24 13.6943 24 12C24 5.37258 18.6274 0 12 0C5.37258 0 0 5.37258 0 12C0 18.6274 5.37258 24 12 24C13.6943 24 15.3066 23.6489 16.7681 23.0154C16.2832 22.2973 16 21.4317 16 20.5C16 18.0147 18.0147 16 20.5 16C21.4317 16 22.2973 16.2832 23.0154 16.7681Z" fill="#E0E3E3"/>
<circle cx="20.5" cy="20.5" r="3.5" fill="#F4C517"/>
<path fill-rule="evenodd" clip-rule="evenodd" d="M20.5 18.5C20.7761 18.5 21 18.7239 21 19V20H21.5C21.7761 20 22 20.2239 22 20.5C22 20.7761 21.7761 21 21.5 21H20.5C20.2239 21 20 20.7761 20 20.5V19C20 18.7239 20.2239 18.5 20.5 18.5Z" fill="white"/>
<g clip-path="url(#clip0_5035_57297)">
<path d="M10.0169 11.6619C10.1425 12.2062 9.54581 12.6328 9.0721 12.3345L8.43612 11.9367L7.10397 14.0678C6.7551 14.6258 7.15642 15.3497 7.81454 15.3497H8.65256C9.11423 15.3497 9.48954 15.7245 9.48954 16.1862C9.48954 16.6479 9.11423 17.025 8.65256 17.025H7.81716C5.84484 17.025 4.64251 14.8569 5.68493 13.183L7.01525 11.0521L6.3777 10.6516C5.90373 10.3533 6.02464 9.63093 6.56954 9.5053L8.96244 8.95177C9.18725 8.90335 9.41495 9.03944 9.46729 9.26714L10.0169 11.6619ZM12.71 7.36601L13.7896 9.09702L13.1549 9.49169C12.6796 9.7877 12.7998 10.5108 13.3454 10.6372L15.7375 11.1908C15.9632 11.243 16.1884 11.1021 16.2403 10.8764L16.7909 8.48355C16.9163 7.93892 16.3211 7.51389 15.8469 7.80937L15.2093 8.20718L14.1311 6.48088C13.1476 4.90691 10.8544 4.90586 9.87034 6.47927L9.67667 6.78866C9.43327 7.17732 9.55366 7.6963 9.941 7.94023C10.3315 8.18517 10.851 8.0681 11.0954 7.67746L11.2902 7.36628C11.6239 6.83263 12.3907 6.85226 12.71 7.36601ZM18.316 13.1851L17.8713 12.4716C17.627 12.0796 17.1108 11.9597 16.7187 12.2044C16.3277 12.4483 16.2079 12.9673 16.4523 13.3581L16.897 14.0686C17.2464 14.6266 16.845 15.3511 16.1867 15.3511H13.6744L13.675 14.5989C13.675 14.0393 12.9985 13.759 12.6028 14.1547L10.8647 15.8933C10.7019 16.0562 10.7019 16.3228 10.8648 16.4856L12.6031 18.2218C12.9989 18.617 13.6749 18.3366 13.6749 17.7774L13.6743 17.0268H16.1831C18.1564 17.0271 19.3603 14.8575 18.316 13.1851Z" fill="#494949"/>
</g>
<defs>
<clipPath id="clip0_5035_57297">
<rect width="13.4" height="13.4" fill="white" transform="translate(5.30078 5.2998)"/>
</clipPath>
</defs>
</svg>
