<svg width="32" height="32" viewBox="0 0 32 32" fill="none" xmlns="http://www.w3.org/2000/svg">
<path d="M16 18.667C18.2091 18.667 20 16.8761 20 14.667C20 12.4579 18.2091 10.667 16 10.667C13.7909 10.667 12 12.4579 12 14.667C12 16.8761 13.7909 18.667 16 18.667Z" fill="#767679" stroke="#767679" stroke-width="2" stroke-linecap="round" stroke-linejoin="round"/>
<path fill-rule="evenodd" clip-rule="evenodd" d="M22.6663 27.5499C20.7052 28.6844 18.4283 29.3337 15.9997 29.3337C13.5711 29.3337 11.2942 28.6844 9.33301 27.5499V26.667C9.33301 25.6061 9.6842 24.5887 10.3093 23.8386C10.9344 23.0884 11.7823 22.667 12.6663 22.667H19.333C20.2171 22.667 21.0649 23.0884 21.69 23.8386C22.3151 24.5887 22.6663 25.6061 22.6663 26.667V27.5499Z" fill="#767679"/>
<path d="M22.6663 27.5499L23.1671 28.4155C23.4761 28.2368 23.6663 27.9069 23.6663 27.5499H22.6663ZM9.33301 27.5499H8.33301C8.33301 27.9069 8.52329 28.2368 8.83228 28.4155L9.33301 27.5499ZM10.3093 23.8386L9.5411 23.1984L9.5411 23.1984L10.3093 23.8386ZM21.69 23.8386L22.4582 23.1984V23.1984L21.69 23.8386ZM15.9997 30.3337C18.6087 30.3337 21.0578 29.6356 23.1671 28.4155L22.1656 26.6843C20.3526 27.7331 18.2478 28.3337 15.9997 28.3337V30.3337ZM8.83228 28.4155C10.9415 29.6356 13.3906 30.3337 15.9997 30.3337V28.3337C13.7516 28.3337 11.6468 27.7331 9.83373 26.6843L8.83228 28.4155ZM10.333 27.5499V26.667H8.33301V27.5499H10.333ZM10.333 26.667C10.333 25.8184 10.6155 25.0332 11.0775 24.4788L9.5411 23.1984C8.75288 24.1442 8.33301 25.3939 8.33301 26.667H10.333ZM11.0775 24.4788C11.5351 23.9296 12.1125 23.667 12.6663 23.667V21.667C11.4521 21.667 10.3337 22.2472 9.5411 23.1984L11.0775 24.4788ZM12.6663 23.667H19.333V21.667H12.6663V23.667ZM19.333 23.667C19.8869 23.667 20.4642 23.9296 20.9218 24.4788L22.4582 23.1984C21.6656 22.2472 20.5472 21.667 19.333 21.667V23.667ZM20.9218 24.4788C21.3838 25.0332 21.6663 25.8184 21.6663 26.667H23.6663C23.6663 25.3939 23.2465 24.1442 22.4582 23.1984L20.9218 24.4788ZM21.6663 26.667V27.5499H23.6663V26.667H21.6663Z" fill="#767679"/>
<path d="M16.0003 29.3337C23.3641 29.3337 29.3337 23.3641 29.3337 16.0003C29.3337 8.63653 23.3641 2.66699 16.0003 2.66699C8.63653 2.66699 2.66699 8.63653 2.66699 16.0003C2.66699 23.3641 8.63653 29.3337 16.0003 29.3337Z" stroke="#767679" stroke-width="2" stroke-linecap="round" stroke-linejoin="round"/>
</svg>
