<svg width="10" height="11" viewBox="0 0 10 11" fill="none" xmlns="http://www.w3.org/2000/svg">
<path d="M4.29219 6.25098H2.70781C1.21266 6.25098 0 7.46348 0 8.95879C0 9.25879 0.2425 9.50098 0.541562 9.50098H6.45875C6.75781 9.50098 7 9.25879 7 8.95879C7 7.46348 5.7875 6.25098 4.29219 6.25098ZM3.5 5.50098C4.60469 5.50098 5.5 4.60551 5.5 3.50098C5.5 2.39645 4.60469 1.50098 3.5 1.50098C2.39531 1.50098 1.5 2.39645 1.5 3.50098C1.5 4.60551 2.39531 5.50098 3.5 5.50098ZM9.625 4.62598H7.375C7.16875 4.62598 7 4.79473 7 5.00098C7 5.20723 7.16797 5.37598 7.375 5.37598H9.625C9.83281 5.37598 10 5.20879 10 5.00098C10 4.79316 9.83281 4.62598 9.625 4.62598Z" fill="#232323"/>
</svg>
