<svg width="24" height="24" viewBox="0 0 24 24" fill="none" xmlns="http://www.w3.org/2000/svg">
<path d="M20.25 2.83008C21.0105 2.83008 21.625 3.4165 21.625 4.1396C21.625 4.8627 21.0105 5.44913 20.25 5.44913H4.4375C4.05766 5.44913 3.75 5.74377 3.75 6.10389C3.75 6.46401 4.05766 6.75865 4.4375 6.75865H20.25C21.7668 6.75865 23 7.93313 23 9.3777V18.5444C23 19.9889 21.7668 21.1634 20.25 21.1634H3.75C2.23105 21.1634 1 19.9889 1 18.5444V5.44913C1 4.00251 2.23105 2.83008 3.75 2.83008H20.25ZM18.875 15.2706C19.6355 15.2706 20.25 14.6854 20.25 13.961C20.25 13.2367 19.6355 12.6515 18.875 12.6515C18.1145 12.6515 17.5 13.2367 17.5 13.961C17.5 14.6854 18.1145 15.2706 18.875 15.2706Z" fill="#232323"/>
</svg>
