<svg width="24" height="24" viewBox="0 0 24 24" fill="none" xmlns="http://www.w3.org/2000/svg">
<path fill-rule="evenodd" clip-rule="evenodd" d="M19.4136 3.02591H20.7272C22.553 3.02591 23.909 4.59688 23.909 6.37579L23.909 20.4751C23.909 22.254 22.553 23.825 20.7272 23.825H3.27264C1.44678 23.825 0.090821 22.254 0.0908209 20.4751L0.0908203 6.37579C0.0908202 4.63768 1.38529 3.09808 3.14776 3.02837L14.8859 0.319293C16.9307 -0.152618 18.896 1.11244 19.4136 3.02591ZM17.2437 3.02591C16.8447 2.42874 16.102 2.09122 15.3357 2.26807L12.052 3.02591H17.2437ZM20.7272 5.02591C21.3113 5.02591 21.909 5.55909 21.909 6.37579L21.909 20.4751C21.909 21.2918 21.3113 21.825 20.7272 21.825H3.27264C2.68852 21.825 2.09082 21.2918 2.09082 20.4751L2.09082 6.37579C2.09082 5.5591 2.68852 5.02591 3.27264 5.02591L20.7272 5.02591ZM19.5454 13.4137C19.5454 12.8614 19.0977 12.4137 18.5454 12.4137C17.9931 12.4137 17.5454 12.8614 17.5454 13.4137V13.4254C17.5454 13.9777 17.9931 14.4254 18.5454 14.4254C19.0977 14.4254 19.5454 13.9777 19.5454 13.4254V13.4137Z" fill="#BABABC"/>
</svg>
