<svg enable-background="new 0 0 1000 1000" viewBox="0 0 1000 1000" xmlns="http://www.w3.org/2000/svg"><path d="m932 500c0 167.6-95.4 312.8-234.8 384.5-3.4 1.8-6.9 3.5-10.4 5.2-16.9 8.1-34.5 15.2-52.6 21.1-.9.3-1.8.6-2.7.9-1 .3-2 .6-3 1-1 .3-2 .6-3 .9-1.7.5-3.3 1-5 1.5-2 .6-4 1.1-6 1.7-1 .3-1.9.5-2.9.8-.1 0-.1 0-.2.1-.9.2-1.9.5-2.8.7-1.1.3-2.1.5-3.2.8-1 .3-2 .5-3 .8-1 .2-2 .5-3.1.7s-2.1.5-3.2.7c-1 .2-2 .4-2.9.6-.5.1-1 .2-1.5.3s-1 .2-1.5.3c-2.7.6-5.4 1.1-8.1 1.6-1.1.2-2.1.4-3.2.6s-2.1.4-3.2.6-2.2.4-3.2.6c-.5.1-1.1.2-1.6.3-.8.1-1.6.3-2.5.4-1 .2-2.1.3-3.2.5-.8.1-1.7.2-2.5.4-1.1.2-2.2.3-3.3.5-6.5.9-13.1 1.6-19.7 2.2-13 1.2-26.2 1.8-39.6 1.8-31.7 0-62.6-3.4-92.4-9.9-20.6-4.5-40.6-10.4-60-17.8-.5-.2-.9-.3-1.4-.5s-1-.4-1.4-.5c-11.6-4.5-23-9.4-34.1-14.9-.7-.3-1.4-.7-2.1-1-.5-.2-.9-.4-1.3-.7-5.2-2.6-10.3-5.2-15.3-8-.4-.2-.9-.5-1.3-.7-.5-.2-.9-.5-1.3-.8-20.3-11.3-39.5-24.2-57.5-38.4-.9-.7-1.8-1.4-2.7-2.1-98.3-79.2-161.3-200.7-161.3-336.8 0-238.6 193.4-432 432-432s432 193.4 432 432z" fill="#ff4b00"/><path d="m686.8 889.6c-16.9 8.1-34.5 15.2-52.6 21.1-.9.3-1.8.6-2.7.9-1 .3-2 .6-3 1-1 .3-2 .6-3 .9-1.7.5-3.3 1-5 1.5-2 .6-4 1.1-6 1.7-1 .3-1.9.5-2.9.8-.1 0-.1 0-.2.1-.9.2-1.9.5-2.8.7-1.1.3-2.1.5-3.2.8-1 .3-2 .5-3 .8-1 .2-2 .5-3.1.7s-2.1.5-3.2.7c-1 .2-2 .4-2.9.6-.5.1-1 .2-1.5.3s-1 .2-1.5.3c-2.7.6-5.4 1.1-8.1 1.6-1.1.2-2.1.4-3.2.6s-2.1.4-3.2.6-2.2.4-3.2.6c-.5.1-1.1.2-1.6.3-.8.1-1.6.3-2.5.4-1 .2-2.1.3-3.2.5-.8.1-1.7.2-2.5.4-1.1.2-2.2.3-3.3.5-6.5.9-13.1 1.6-19.7 2.2-13 1.2-26.2 1.8-39.6 1.8-31.7 0-62.6-3.4-92.4-9.9-20.6-4.5-40.6-10.4-60-17.8-.5-.2-.9-.3-1.4-.5s-1-.4-1.4-.5c-11.6-4.5-23-9.4-34.1-14.9-.7-.3-1.4-.7-2.1-1-.5-.2-.9-.4-1.3-.7-5.2-2.6-10.3-5.2-15.3-8-.4-.2-.9-.5-1.3-.7-.5-.2-.9-.5-1.3-.8-20.3-11.2-39.5-24.1-57.5-38.3 6.1-7.4 12.8-14.4 20.3-20.6 4.6-3.8 9.5-7.4 14.8-10.6 20-12.5 44.5-20.1 74.5-20h20.4 1.5 1.9 4.4c56.7.1 100.7.2 136.9 2.5 13.9.9 26.6 2.1 38.5 3.8.5.1 1 .2 1.5.2.5.1 1.1.2 1.6.2 5.2.8 10.2 1.6 15.1 2.6 19.1 3.8 36.2 9.1 52.7 16.7 4.5 2.1 9 4.3 13.5 6.7 23.3 12.6 42.4 39.8 57.2 69.2z" fill="#464547"/><path d="m418.5 725.6c-38.7-2.9-56.5-21.6-94.5-19.5s-70.9 8.5-76.4 58.2c-5.4 49.7 7.2 63.5 27.8 81.4s77.1-77.6 159.1-75.6c82 2.1 86.3 43.7 102.1 45.1s154.6 25.8 24.6-39c-58.6-29.2-52.3-43.8-142.7-50.6z" fill="#464547"/><path d="m368.9 600.9c2.2 3.1-5.4 186.8-5.4 186.8s43.5 55 108.8 54.3c85.5-.9 74.6-47.8 74.6-47.8l-23.7-185-149.5-8.3z" fill="#fff"/><path d="m471.1 843.5c-33.6 0-61.2-14.7-78.6-27.2-19-13.6-30.1-27.6-30.2-27.7-.2-.3-.3-.6-.3-1 3-71.8 6.9-180.3 5.5-186.1-.3-.6-.1-1.4.5-1.9.7-.5 1.6-.3 2.1.4.6.9 1.7 2.4-1.6 95.5-1.5 43-3.3 86.2-3.5 91.7 4.2 5.1 46.5 53.9 107.3 53.3 32.8-.3 55.9-7.8 66.7-21.5 9.3-11.8 6.5-24.3 6.5-24.4 0 0 0-.1 0-.2l-23.5-183.7-148.3-8.3c-.8 0-1.5-.8-1.4-1.6 0-.8.8-1.4 1.6-1.4l149.5 8.4c.7 0 1.3.6 1.4 1.3l23.6 184.9c.3 1.3 2.8 14.3-7 26.9-11.5 14.7-34.8 22.3-69 22.7-.5-.1-.9-.1-1.3-.1z"/><path d="m540.4 744-17.2-134.8-149.5-8.3h-4.8c1.2 1.8-2.1 115.5-4 176.1z" opacity=".22"/><path d="m320.2 356.3s-2.3 179 1.2 238.6c1.1 18.7 3.7 32.6 46.2 58.8s156.4 82.3 156.4 82.3l101-16.7s46.3-205.5 50.7-257.6 4.2-138.1 4.2-138.1 2.4-135.1-151.9-133.2c-161.1 1.9-207.3 90.5-207.8 165.9z" fill="#fff"/><path d="m524 737.5c-.2 0-.5-.1-.7-.2-1.1-.6-114.5-56.5-156.5-82.4s-45.7-39.9-46.9-59.9c-3.5-58.8-1.3-236.3-1.2-238.7.2-31 8.1-75.4 44.2-111.6s91.7-55 165.2-55.8c49.5-.6 88.1 12.7 114.9 39.6 39.1 39.3 38.6 94.6 38.6 95.1 0 .8.2 86.7-4.2 138.2-4.3 51.6-50.3 255.7-50.7 257.8-.1.6-.6 1-1.2 1.1l-101.1 16.7c-.3.1-.3.1-.4.1zm7.2-545.6c-1 0-2.1 0-3.1 0-185.1 2.2-206 115.7-206.3 164.4 0 1.8-2.2 179.7 1.2 238.5 1 16.5 1.8 30.7 45.5 57.6 40.6 25 148.1 78.3 155.8 82.1l99.6-16.5c3.5-15.5 46.3-206.9 50.4-256.4 4.3-51.4 4.2-137.1 4.2-138 0-.6.5-54.6-37.7-93-25.7-25.7-62.5-38.7-109.6-38.7z"/><path d="m556.7 566.4c-.8 0-1.5-.6-1.5-1.4s.6-1.5 1.4-1.6l64-2.8-38.2-105.1c-.3-.8.1-1.6.9-1.9s1.6.1 1.9.9l38.9 107c.2.4.1.9-.2 1.3s-.7.6-1.2.7z"/><path d="m521.7 632.3s11.7-23.9 23.6-23.1 11.1 11.1 16.5 11 7.8-6.4 16.3-6.4 12.5 22 12.5 22-9 28.3-33.9 25.7-35-29.2-35-29.2z"/><path d="m563.2 639.1c-21.8 0-36.5-3.6-36.7-3.6-.8-.2-1.3-1-1.1-1.8s1-1.3 1.8-1.1c.2.1 25.3 6.2 58.7 2.2.8-.1 1.6.5 1.7 1.3s-.5 1.6-1.3 1.7c-8.3.9-16.1 1.3-23.1 1.3z" fill="#fff"/><path d="m320.3 355.2s-.6 47.4-.7 101.5l31.1-35s15.6-12.5 30.2-34.1c36.4-53.9-3.4-90.3 86.8-144.2-9-4.3-31.3-15.8-59.4-29.8-65.8 31.9-87.6 89.9-88 141.6z"/><path d="m420 417.1c-.4 0-.9-.2-1.2-.5-.5-.6-.4-1.6.2-2.1s14.6-12 36.7-19.4c20.4-6.8 51.9-11.2 85.4 7 .7.4 1 1.3.6 2s-1.3 1-2 .6c-32.6-17.6-63.1-13.4-82.9-6.8-21.6 7.2-35.7 18.7-35.8 18.9-.3.2-.6.3-1 .3z"/><path d="m608.1 411.2c-.4 0-.8-.2-1.1-.5-.6-.6-.5-1.6.1-2.1.3-.3 29-25.3 72.3-6.8.8.3 1.1 1.2.8 2s-1.2 1.1-2 .8c-41.4-17.7-68.8 6-69.1 6.3-.2.1-.6.3-1 .3z"/><path d="m342.3 441s1.1-32.5-29.6-31.3-54.6 63.1 17.5 117.4z" fill="#fff"/><path d="m330.2 528.6c-.3 0-.6-.1-.9-.3-44.7-33.7-52.8-70.7-45.5-94.1 4.8-15.3 16.1-25.5 28.9-26 9.2-.4 16.6 2.2 21.9 7.5 9.6 9.6 9.2 24.7 9.2 25.4 0 .8-.7 1.5-1.5 1.4-.8 0-1.5-.7-1.4-1.5 0-.1.4-14.5-8.3-23.1-4.7-4.7-11.4-7-19.7-6.6-11.5.4-21.7 9.8-26.1 23.9-7 22.4 1 58.1 44.5 90.8.7.5.8 1.4.3 2.1-.5.3-1 .5-1.4.5z"/><path d="m572.3 585.3c-11.6 0-21.1-9.5-21.1-21.1s9.5-21.1 21.1-21.1c3 0 5.5 2.5 5.5 5.5s-2.5 5.5-5.5 5.5c-5.5 0-10.1 4.5-10.1 10.1s4.5 10.1 10.1 10.1 10.1-4.5 10.1-10.1h11c0 11.7-9.5 21.1-21.1 21.1z" fill="#fff"/><path d="m572.3 586.8c-12.4 0-22.6-10.1-22.6-22.6s10.1-22.6 22.6-22.6c3.9 0 7 3.1 7 7s-3.1 7-7 7c-4.7 0-8.6 3.8-8.6 8.6s3.8 8.6 8.6 8.6 8.6-3.8 8.6-8.6c0-.8.7-1.5 1.5-1.5h11c.8 0 1.5.7 1.5 1.5-.1 12.5-10.2 22.6-22.6 22.6zm0-42.1c-10.8 0-19.6 8.8-19.6 19.6s8.8 19.6 19.6 19.6c10.3 0 18.7-8 19.5-18.1h-8c-.7 5.7-5.6 10.1-11.5 10.1-6.4 0-11.6-5.2-11.6-11.6s5.2-11.6 11.6-11.6c2.2 0 4-1.8 4-4s-1.8-4-4-4z"/><path d="m422.2 439.8s4.2 64.4 45.4 66.6c71.6 3.9 77.3-49.1 76.1-49 0 0-17.4-38.9-56-44.1s-65.5 26.5-65.5 26.5z" opacity=".44"/><path d="m422.2 439.8s9.7 34.5 50.2 42.3 71.2-24.7 71.2-24.7-17.5-38.4-56-44.1c-38.4-5.7-65.4 26.5-65.4 26.5z" fill="#fff"/><path d="m484.9 484.8c-4.1 0-8.4-.4-12.8-1.2-40.9-7.9-51.3-43.1-51.4-43.4-.1-.5 0-1 .3-1.4.3-.3 28-32.8 66.8-27 38.8 5.7 57 44.6 57.2 45 .3.6.1 1.2-.3 1.7-.2.2-25.3 26.3-59.8 26.3zm-61-44.6c1.7 5 13.1 33.6 48.8 40.5 35.8 6.9 64.3-18.8 69.1-23.6-3-5.8-20.5-37.3-54.4-42.3-34.3-5.1-59.6 21-63.5 25.4z"/><path d="m522.7 430.1c-.1 0-.1 0-.2 0-10.8 1-19.6 8.8-19.8 21.3-.2 11.1.5 24.3 12.1 25.5 11.7-5 20.5-11.9 25.2-16 .6-2.1.8-4.4.9-6.9 0-.7 0-1.4-.1-2-3.3-5.4-9.3-14.1-18.1-21.9z"/><path d="m605.9 459.8s6.9 44.9 48.1 46.8c57.8 2.6 56.7-62 56.7-62s-.7-6.2-39.3-11.3c-38.7-5.1-65.5 26.5-65.5 26.5z" opacity=".44"/><path d="m710.6 444.7s-7.1 34.2-42 41.3-62.8-25.8-62.8-25.8 13.7-37.9 46.9-42.9 57.9 27.4 57.9 27.4z" fill="#fff"/><path d="m658.8 488.4c-30.5 0-53.8-27-54.1-27.3-.3-.4-.5-1-.3-1.5.1-.4 14.4-38.8 48.1-43.9s59 27.7 59.3 28 .4.8.3 1.2-7.7 35.2-43.1 42.4c-3.5.8-6.9 1.1-10.2 1.1zm-51.2-28.5c4.2 4.6 29.9 30.9 60.8 24.6 30.8-6.3 39.4-34.7 40.6-39.4-3.4-4.2-26.4-30.8-56-26.3-29.2 4.3-43.2 35.6-45.4 41.1z"/><path d="m679.5 426.7c-12.1.5-16.3 12.4-16.2 23.7 0 10.1 1 21.3 9 26.2 25.6 3.5 21.7-34.9 21.7-34.9s3.9-15-14.5-15z"/><path d="m282.8 510.3c5.8 10.1 18.6 13.6 28.7 7.9 10.1-5.8 13.6-18.6 7.9-28.7-1.5-2.6-4.9-3.6-7.5-2.1s-3.6 4.9-2.1 7.5c2.8 4.8 1.1 11-3.8 13.7s-11 1.1-13.7-3.8-1.1-11 3.8-13.7l-5.5-9.6c-10 5.8-13.6 18.7-7.8 28.8z" fill="#fff"/><path d="m301.1 522.4c-7.9 0-15.5-4.1-19.6-11.4 0 0 0-.1-.1-.1-6.1-10.8-2.3-24.5 8.5-30.7.7-.4 1.6-.2 2 .6l5.5 9.6c.4.7.2 1.6-.6 2-4.1 2.3-5.5 7.6-3.2 11.7s7.6 5.5 11.7 3.2c2-1.1 3.4-3 4-5.2s.3-4.5-.8-6.5c-.9-1.6-1.2-3.5-.7-5.3s1.7-3.3 3.3-4.2 3.5-1.2 5.3-.7 3.3 1.7 4.2 3.3c6.2 10.8 2.4 24.6-8.4 30.8-3.4 2-7.3 2.9-11.1 2.9zm-16.9-12.8c5.4 9.3 17.3 12.5 26.6 7.2 9.4-5.3 12.6-17.3 7.3-26.7-.5-.9-1.4-1.6-2.4-1.9s-2.1-.2-3 .4c-.9.5-1.6 1.4-1.9 2.4s-.2 2.1.4 3c1.5 2.7 1.9 5.8 1.1 8.8s-2.7 5.5-5.4 7c-5.5 3.2-12.6 1.2-15.8-4.3-1.5-2.7-1.9-5.8-1.1-8.8.7-2.5 2.1-4.6 4.2-6.2l-4-7c-8.4 5.7-11.1 17-6 25.9-.1.2-.1.2 0 .2z"/><path d="m263.9 473.8c1.2 11.6 11.5 20 23.1 18.9s20-11.5 18.9-23.1c-.3-3-3-5.2-6-4.9s-5.2 3-4.9 6c.5 5.5-3.5 10.5-9 11s-10.5-3.5-11-9 3.5-10.5 9-11l-1.1-11c-11.7 1.2-20.2 11.5-19 23.1z" fill="#fff"/><path d="m284.8 494.3c-11.4 0-21.3-8.7-22.4-20.3 0-.1 0-.1 0-.2-1.1-12.3 7.9-23.3 20.2-24.5.8-.1 1.6.5 1.6 1.3l1.1 11c0 .4-.1.8-.3 1.1-.3.3-.6.5-1 .5-2.3.2-4.3 1.3-5.8 3.1s-2.1 4-1.9 6.3 1.3 4.3 3.1 5.8 4 2.1 6.3 1.9 4.3-1.3 5.8-3.1 2.1-4 1.9-6.3c-.2-1.9.4-3.7 1.5-5.1 1.2-1.5 2.9-2.4 4.7-2.5 1.9-.2 3.7.4 5.1 1.5 1.5 1.2 2.4 2.9 2.5 4.7.6 6-1.2 11.9-5 16.5-3.8 4.7-9.2 7.6-15.2 8.2-.7 0-1.4.1-2.2.1zm-19.4-20.5c.6 5.1 3.1 9.7 7.1 13s9.1 4.9 14.3 4.3c5.2-.5 9.9-3 13.2-7.1 3.3-4 4.8-9.1 4.3-14.3-.1-1.1-.6-2-1.4-2.7s-1.9-1-2.9-.9c-1.1.1-2 .6-2.7 1.4s-1 1.9-.9 2.9c.3 3.1-.6 6.1-2.6 8.5s-4.7 3.9-7.8 4.2-6.1-.6-8.5-2.6-3.9-4.7-4.2-7.8.6-6.1 2.6-8.5c1.6-2 3.8-3.4 6.3-3.9l-.8-8c-10 1.8-17.1 11-16 21.2z"/><path d="m418.7 209 58.9 30.3s42.8-14.3 86.2-4.6 24.1 88.1 61.3 131.4 43.5 50.1 46 83.6c3.4 46.1-11.7 60 2.2 145s-.2 112.2-3 153.9 23.3 70.6 23.3 70.6-14.1-38.7-6-84.2c9.8-55.4 35.8-89.6 24.7-168.6-8.2-58.2 51.8-130.2 38.7-209.5-13-78.4-38-77-60.7-98.8s-38.2-44.8-57-70.8-38.8-35.2-66.7-29.3-35.7 6.4-35.7 6.4-70.3-14.5-112.2 44.6z"/><path d="m407.6 922.1c-20.6-4.5-40.6-10.4-60-17.8-.5-.2-.9-.3-1.4-.5s-1-.4-1.4-.5c-11.6-4.5-23-9.4-34.1-14.9-.7-.3-1.4-.7-2.1-1-.5-.2-.9-.4-1.3-.7-5.2-2.6-10.3-5.2-15.3-8-.4-.2-.9-.5-1.3-.7-.5-.2-.9-.5-1.3-.8-20.2-11.2-39.4-24.1-57.4-38.3-.9-.7-1.8-1.4-2.7-2.1 6.8-7 14.3-13.6 22.5-19.5 4.8-3.4 9.9-6.6 15.2-9.6 18.1-10 39.4-17.1 64.5-19.7 0 0 2.6 7.6 7.9 19.9 11.2 26.2 34.1 73.7 68.2 114.2z"/><path d="m697.2 884.5c-3.4 1.8-6.9 3.5-10.4 5.2-16.9 8.1-34.5 15.2-52.6 21.1-.9.3-1.8.6-2.7.9-1 .3-2 .6-3 1-1 .3-2 .6-3 .9-1.7.5-3.3 1-5 1.5-2 .6-4 1.1-6 1.7-1 .3-1.9.5-2.9.8-.1 0-.1 0-.2.1-.9.2-1.9.5-2.8.7-1.1.3-2.1.5-3.2.8-1 .3-2 .5-3 .8-1 .2-2 .5-3.1.7s-2.1.5-3.2.7c-1 .2-2 .4-2.9.6-.5.1-1 .2-1.5.3s-1 .2-1.5.3c-2.7.6-5.4 1.1-8.1 1.6-1.1.2-2.1.4-3.2.6s-2.1.4-3.2.6-2.2.4-3.2.6c-.5.1-1.1.2-1.6.3-.8.1-1.6.3-2.5.4-1 .2-2.1.3-3.2.5-.8.1-1.7.2-2.5.4-1.1.2-2.2.3-3.3.5-6.5.9-13.1 1.6-19.7 2.2 14.5-39 20.3-85.3 22.5-111.8 1.1-13.1 1.3-21.3 1.3-21.3h.1c4.1-2.9 25 .9 44.9 6.9 14.9 4.5 29.2 10.1 35.5 15.2 22.4 17.7 39.8 41.1 53.2 65.2z"/><path d="m164.5 1000h13.2v.2h-13.2s0-.1 0-.2z"/><path d="m737.6 1000.2h-11.7s0-.1 0-.2h11.7z"/><g fill="#fff"><path d="m354.1 876.2-6.5 28.1c-.5-.2-.9-.3-1.4-.5s-1-.4-1.4-.5l5.8-25.3-39.9 10.4-1.7.4c-.8.2-1.6-.3-1.8-1.1-.1-.4 0-.7.1-1 .2-.4.5-.7 1-.8l44-11.5c.5-.1 1 0 1.4.4.3.4.5.9.4 1.4z"/><path d="m290.7 879.5c-.1 0-.2 0-.4 0-.8-.2-1.3-1-1.1-1.8l20.1-79.8c.2-.8 1-1.3 1.8-1.1s1.3 1 1.1 1.8l-20.1 79.8c-.1.6-.7 1.1-1.4 1.1z"/><path d="m623.8 894.1c-.4.4-1 .6-1.5.5-19.3-5.2-40.7-10.5-47.6-11.3 3.6 6 11.5 23.3 18.4 38.7-.5.1-1 .2-1.5.3s-1 .2-1.5.3c-8.6-19.4-17-37.4-18.9-39.2-.8-.8-.8-1.7-.4-2.3.7-1.3 1.3-2.3 27.4 4.1 8.7 2.1 17.4 4.4 21.8 5.6-10.3-23-24-52.9-32.2-70.2-3.7-7.9-6.4-13.2-7-14-.5-.6-.5-1.6.1-2.1s1.5-.5 2.1.1c.8.8 4 7.2 8.2 16.1 10.7 22.5 28.3 61.6 32.9 71.7.2.6.1 1.2-.3 1.7z"/><path d="m357.4 376.5c-.1 0-.2 0-.3 0-.7-.2-1.2-.8-1.2-1.5v-50.5l-22.3 38.7c-.3.6-1.1.9-1.7.7-.7-.2-1.1-.9-1-1.6l6.8-83.2c.1-.8.8-1.4 1.6-1.4.8.1 1.4.8 1.4 1.6l-6.2 76.6 21.8-37.8c.3-.6 1-.9 1.7-.7s1.1.8 1.1 1.4v49.4l33.4-71.2c.3-.6 1-1 1.6-.8l15.6 2.8c.8.1 1.4.9 1.2 1.7-.1.8-.9 1.4-1.7 1.2l-14.5-2.6-35.7 76.2c-.5.7-1.1 1-1.6 1z"/></g></svg>