<svg width="60" height="47" viewBox="0 0 60 47" fill="none" xmlns="http://www.w3.org/2000/svg">
<path d="M35.4652 0.708774C31.9724 -1.30683 27.6074 1.21691 27.6074 5.24811C27.6074 9.27931 29.5549 12.7727 32.7471 14.9281L46.2653 22.7661L46.2992 22.7534L59.9995 14.8349L35.4652 0.708774Z" fill="white"/>
<path d="M32.7438 14.9285C29.5515 12.7731 27.604 9.14421 27.604 5.24851C27.604 3.3303 28.6074 1.72968 30.0342 0.823501C29.9664 0.861612 30.1019 0.785391 30.0342 0.823501L8.64977 12.8409L5.21624 14.9158L2.875 16.2623C4.34833 15.5128 6.19422 15.4535 7.84113 16.4105L13.7302 19.7642L18.8911 22.7495L32.5913 30.6552L46.2577 22.758L32.7395 14.92L32.7438 14.9285Z" fill="#999999"/>
<path d="M60 30.6636L32.5953 46.5005L27.4217 43.5152L27.4005 43.494L5.19475 30.6636C3.67485 29.6728 2.43861 28.322 1.56647 26.8018C0.550381 25.0487 0 23.0331 0 20.9455C0 19.0654 0.944115 17.5114 2.31583 16.5883C2.50212 16.4739 2.68417 16.3681 2.87892 16.2665C4.35224 15.517 6.19814 15.4577 7.84505 16.4147L13.7003 19.7938L18.8611 22.7664L18.895 22.7536L32.5953 30.6594L46.2616 22.7621L60 30.6594V30.6636Z" fill="#4C4C4C"/>
</svg>
