<svg width="2000" height="2000" viewBox="0 0 2000 2000" fill="none" xmlns="http://www.w3.org/2000/svg">
<path d="M653.084 685.996C597.927 758.886 516 762.886 423.57 722.134C349.378 689.424 226.481 585.199 176.477 666.462C113.971 768.04 141.317 1033.71 219.449 1307.19C281.955 1525.97 558.023 1697.87 688.243 1756.47C824.975 1813.78 1149.22 1922.91 1352.37 1901.03C1555.51 1879.15 1481.29 1795.54 1418.78 1756.47C1326.32 1692.66 1150.79 1535.35 1188.29 1416.58C1225.79 1297.81 1370.6 1322.81 1438.31 1350.16C1539.89 1374.91 1775.84 1400.95 1907.11 1307.19C2038.37 1213.42 1899.29 989.428 1813.35 889.152C1668.8 688.6 1323.46 251.553 1098.44 107.781C873.417 -35.9913 745.302 229.308 744 330.886C742.047 483.253 729.949 584.418 653.084 685.996Z" fill="url(#paint0_linear_1106_45)"/>
<path d="M1512.26 172.507C1212.84 47.0638 654.25 817.809 918.723 854.288C1181.1 890.477 1205.15 601.344 1566.98 866.65C1572.58 870.754 1579.45 874.011 1586.25 875.409C1960.07 952.253 2009.68 461.977 1747.65 425.836C1483.17 389.358 1708.47 247.933 1512.26 172.507Z" stroke="white" stroke-width="10" stroke-dasharray="50 50"/>
<path d="M961.264 1026.51C661.844 901.064 103.25 1671.81 367.723 1708.29C630.101 1744.48 654.154 1455.34 1015.98 1720.65C1021.58 1724.75 1028.45 1728.01 1035.25 1729.41C1409.07 1806.25 1458.68 1315.98 1196.65 1279.84C932.174 1243.36 1157.47 1101.93 961.264 1026.51Z" stroke="white" stroke-width="10" stroke-dasharray="50 50"/>
<path d="M977 757C977 726.691 988.372 702.897 1005.93 690.419C1023.4 678.006 1047.42 676.488 1073.52 691.536L1401.34 897.064L1243.91 1003.65L1053.05 895.299C1004.82 862.717 977 817.779 977 757Z" fill="#B3B3B3" stroke="black" stroke-width="4"/>
<path d="M1033.05 906.929C984.298 874.019 954.556 818.61 954.556 759.127C954.556 729.838 969.88 705.399 991.668 691.562C992.703 690.98 990.634 692.144 991.668 691.562L665.095 875.054L612.66 906.735C635.16 895.291 647.849 907.388 673 922L754 971L841 1021L1032.98 1133L1232 1015L1032.98 906.799L1033.05 906.929Z" fill="#666666"/>
<path d="M991.668 691.562C969.88 705.399 954.556 729.838 954.556 759.127C954.556 818.61 984.298 874.019 1033.05 906.929L1032.98 906.799L1232 1015L1032.98 1133L841 1021L754 971L673 922C647.849 907.388 635.16 895.291 612.66 906.735L665.095 875.054L991.668 691.562ZM991.668 691.562C990.634 692.144 992.703 690.98 991.668 691.562Z" stroke="black" stroke-width="4"/>
<path d="M952.862 1341.68L952.676 1341.49L952.448 1341.36L613.379 1145.49C590.467 1130.54 571.818 1110.17 558.657 1087.23L558.653 1087.22C543.312 1060.76 535 1030.33 535 998.806C535 970.825 549.033 947.71 569.448 933.959C572.251 932.24 574.976 930.657 577.881 929.14C589.046 923.462 598.454 919.969 608.067 919.59C617.634 919.213 627.639 921.915 639.982 929.084L738.968 988.713L738.987 988.724L739.006 988.735L834.977 1043.72L835.006 1043.74L1029.76 1159.72L1030.81 1160.35L1031.85 1159.69L1239.53 1028.88L1445.34 1147.16L1030.78 1386.69L952.999 1341.82L952.862 1341.68Z" fill="#232323" stroke="white" stroke-width="4"/>
<path d="M1380 259.5L1381.72 252.2L1377.61 251.23L1374.64 254.249L1380 259.5ZM1547.5 299L1553.93 295.144L1552.3 292.427L1549.22 291.7L1547.5 299ZM1767.5 666L1773.34 670.711L1776.63 666.636L1773.93 662.144L1767.5 666ZM1748.5 688L1743.07 682.826V682.826L1748.5 688ZM1726 710L1729.02 716.863L1730.19 716.348L1731.13 715.475L1726 710ZM1578.5 775L1579.23 782.464L1580.43 782.347L1581.52 781.863L1578.5 775ZM1490.5 783L1490.77 775.505L1490.5 783ZM1443 450L1437.24 445.194L1434.3 448.719L1436.1 452.942L1443 450ZM1457.5 484L1450.6 486.942L1455 497.261L1462.86 489.251L1457.5 484ZM1507.5 433L1512.86 438.251L1515.57 435.478L1514.88 431.658L1507.5 433ZM1498.5 383.5L1505.88 382.158L1503.01 366.389L1492.74 378.694L1498.5 383.5ZM1128.5 701.5L1123.35 706.953L1124.74 708.262L1126.58 708.75L1128.5 701.5ZM1110.5 684.5L1104.56 679.919L1100.42 685.293L1105.35 689.953L1110.5 684.5ZM1162 647.5L1162.61 654.975L1162 647.5ZM1212 679L1218.96 681.785L1212 679ZM1166 708L1161.64 701.897L1166 708ZM1810 562L1817.49 562.326L1817.7 557.537L1813.44 555.337L1810 562ZM1630 469L1633.44 462.337L1619.23 454.996L1622.68 470.614L1630 469ZM1649.5 557.5L1642.18 559.114L1643 562.861L1646.52 564.384L1649.5 557.5ZM1794 620L1791.02 626.884L1798.05 629.925L1800.95 622.83L1794 620ZM1802 599.5L1794.76 597.527L1802 599.5ZM1478.5 459L1473.2 453.697L1478.5 459ZM1454.5 477.5L1450.84 470.956L1445.48 473.955L1447.36 479.797L1454.5 477.5ZM1473 535L1465.86 537.297L1468.7 546.116L1476.73 541.505L1473 535ZM1530.5 502L1534.23 508.505L1539.45 505.512L1537.66 499.77L1530.5 502ZM1504.5 418.5L1511.66 416.27L1506.12 398.484L1497.79 415.146L1504.5 418.5ZM1388.5 463L1386.74 470.291L1388.5 463ZM1322 339.5L1316 335L1314.26 337.323L1314.53 340.213L1322 339.5ZM1394 257L1395.35 264.377L1394 257ZM1512.5 315.5H1505V316.021L1505.07 316.537L1512.5 315.5ZM1515.5 337L1508.07 338.037L1510.22 353.445L1520.94 342.166L1515.5 337ZM1531.5 363L1524.21 361.233L1531.5 363ZM1509 389.5L1511.18 382.325L1504.2 380.198L1501.88 387.128L1509 389.5ZM1503 408L1495.94 405.46L1503 408ZM1448.5 469.5L1444.35 463.25L1442.87 464.233L1441.99 465.779L1448.5 469.5ZM1407 438.5L1408.14 431.087L1399.5 429.758V438.5H1407ZM1459 422L1466.35 423.5L1471.88 396.4L1453.42 416.993L1459 422ZM1433 438.5L1431.86 431.087L1433 438.5ZM1387.5 423.5L1380.86 420.02L1371.8 437.302L1390.1 430.534L1387.5 423.5ZM1415 404L1417.66 411.011L1415 404ZM1460.5 396.5L1463.1 403.534L1460.13 389.009L1460.5 396.5ZM1411 429L1403.58 427.939L1403.45 428.792L1403.53 429.65L1411 429ZM1461.5 397.5L1468.86 396.051L1467.23 387.761L1459.19 390.365L1461.5 397.5ZM1455.5 426L1460.62 431.483L1455.5 426ZM1414 428L1406.51 428.468L1414 428ZM1422 412.5L1428.03 416.958L1442.24 397.737L1419.6 405.395L1422 412.5ZM1388 424L1385.46 416.945L1377.59 419.781L1381.26 427.294L1388 424ZM1401.5 436.5L1396.4 442.003L1397.9 443.388L1399.89 443.826L1401.5 436.5ZM1385.28 375.541C1387.78 372.245 1387.14 367.539 1383.85 365.031C1380.55 362.523 1375.85 363.162 1373.34 366.459L1385.28 375.541ZM1433.5 438.5L1435.19 445.806L1433.5 438.5ZM1460 515L1456.19 508.538L1453.53 510.105L1452.75 513.089L1460 515ZM1440.5 589L1433.25 587.089L1432.45 590.1L1434.03 592.787L1440.5 589ZM1554 783L1547.53 786.787L1550.74 792.28L1556.68 790.004L1554 783ZM1618.5 768L1616.64 760.734L1618.5 768ZM1726.5 710L1731.1 715.925L1735.56 712.466L1733.47 707.225L1726.5 710ZM1630.5 469L1637.47 466.225L1635.43 461.107L1629.94 461.521L1630.5 469ZM1524.5 477L1523.94 469.521L1522.2 469.653L1520.69 470.538L1524.5 477ZM1408 521L1402.86 515.538L1408 521ZM1458 514L1452.79 519.392L1458 514ZM1462 557L1468.42 560.875V560.875L1462 557ZM1334 730.5L1331.4 737.535L1336.59 739.455L1339.96 735.056L1334 730.5ZM1205.5 683H1198V688.224L1202.9 690.035L1205.5 683ZM1205.5 635.5L1207.31 628.222L1198 625.906V635.5H1205.5ZM1308 661L1306.19 668.278L1311.3 669.55L1314.23 665.171L1308 661ZM1020 599L1012.51 598.539L1012.31 601.864L1014.64 604.245L1020 599ZM1022 566.5L1019.72 559.356L1014.83 560.919L1014.51 566.039L1022 566.5ZM1108 539L1114.28 534.9L1111.16 530.116L1105.72 531.856L1108 539ZM1187 660L1191.03 666.323L1197.42 662.246L1193.28 655.9L1187 660ZM1134.5 693.5L1134.02 700.985L1136.47 701.141L1138.53 699.823L1134.5 693.5ZM1111 692L1105.64 697.245L1107.65 699.302L1110.52 699.485L1111 692ZM1107 552.5L1113.25 548.354L1110.12 543.642L1104.73 545.351L1107 552.5ZM1045.5 572L1043.23 564.851L1032.5 568.253L1039.78 576.846L1045.5 572ZM1136.5 679.5L1130.78 684.346L1134.84 689.146L1140.27 685.981L1136.5 679.5ZM1176 656.5L1179.77 662.981L1186.65 658.98L1182.25 652.354L1176 656.5ZM1104 700L1110.58 696.409L1103.71 683.806L1097.29 696.646L1104 700ZM1117 702.5L1123.71 699.146L1119.64 691.008L1112.43 696.555L1117 702.5ZM1144.5 671.5L1151.33 668.396L1144.5 671.5ZM1137 669H1129.5V682.246L1140.86 675.431L1137 669ZM1124.5 660L1117.03 659.377L1115.18 681.571L1130.07 665.017L1124.5 660ZM1121 651L1116.5 657L1121 651ZM1111 657.5L1103.69 655.838L1117.34 661.505L1111 657.5ZM1109 643L1104.4 648.92L1109 643ZM1089 664L1095.93 666.884L1089 664ZM1086.5 698L1090.22 691.487L1086.5 698ZM1093 697L1100.47 697.641L1102.01 679.725L1088.2 691.239L1093 697ZM1208.5 636.5L1215.72 634.473L1214.77 631.086L1211.56 629.651L1208.5 636.5ZM1216.5 665L1219.99 671.637L1225.36 668.812L1223.72 662.973L1216.5 665ZM1191 667L1189.62 674.372L1191 667ZM1177 645L1184.46 645.785L1185.43 636.554L1176.2 637.543L1177 645ZM1136.5 641.5L1139.96 634.846L1136.5 641.5ZM1131 626.5L1130.6 619.01L1127.31 619.184L1125.21 621.732L1131 626.5ZM1557 316L1559.28 323.145L1566.72 320.769L1564.05 313.429L1557 316ZM1407.5 307L1405.81 314.308L1407.5 307ZM1380 270.5L1387.47 271.133L1372.92 268.022L1380 270.5ZM1350.5 347.5L1351.31 354.957L1350.5 347.5ZM1330.5 363L1323.15 361.529L1322.66 363.955L1323.71 366.194L1330.5 363ZM1354.5 370L1353.07 362.637L1354.5 370ZM1373 355L1380.5 355.214L1380.54 353.588L1379.91 352.09L1373 355ZM1441.5 328.5L1442.51 335.931L1441.5 328.5ZM1411.5 349L1404.36 346.701L1403.16 350.417L1405.52 353.529L1411.5 349ZM1451.84 357.295L1452.9 364.719L1451.84 357.295ZM1480 337.5L1487.49 337.845L1487.61 335.355L1486.21 333.292L1480 337.5ZM1407 306.5L1405.31 313.808L1407 306.5ZM1806.5 539C1806.5 669.892 1675.28 778.5 1510 778.5V793.5C1680.51 793.5 1821.5 680.937 1821.5 539H1806.5ZM1510 778.5C1344.72 778.5 1213.5 669.892 1213.5 539H1198.5C1198.5 680.937 1339.49 793.5 1510 793.5V778.5ZM1213.5 539C1213.5 408.108 1344.72 299.5 1510 299.5V284.5C1339.49 284.5 1198.5 397.063 1198.5 539H1213.5ZM1510 299.5C1675.28 299.5 1806.5 408.108 1806.5 539H1821.5C1821.5 397.063 1680.51 284.5 1510 284.5V299.5ZM1393.88 756.795C1395.18 756.91 1397.28 757.615 1398.07 758.079C1398.56 758.439 1399.31 759.13 1399.58 759.434C1400.08 760.024 1400.36 760.551 1400.44 760.712C1400.56 760.939 1400.64 761.118 1400.68 761.201C1400.72 761.296 1400.74 761.363 1400.75 761.391C1400.78 761.453 1400.74 761.37 1400.64 761.029C1400.46 760.4 1400.19 759.372 1399.82 757.909C1399.08 755.012 1398.06 750.714 1396.77 745.18C1394.2 734.125 1390.63 718.297 1386.39 699.239C1377.92 661.132 1366.82 610.19 1355.77 558.882C1344.73 507.573 1333.75 455.914 1325.53 416.372C1321.42 396.597 1318 379.872 1315.62 367.742C1314.42 361.673 1313.49 356.786 1312.87 353.255C1312.55 351.486 1312.32 350.099 1312.17 349.094C1311.98 347.87 1312 347.698 1312 348H1297C1297 349.02 1297.19 350.335 1297.33 351.318C1297.51 352.519 1297.77 354.059 1298.1 355.885C1298.75 359.548 1299.7 364.537 1300.9 370.637C1303.3 382.845 1306.73 399.632 1310.84 419.424C1319.07 459.014 1330.06 510.711 1341.11 562.039C1352.16 613.367 1363.27 664.343 1371.75 702.493C1375.99 721.565 1379.57 737.451 1382.16 748.579C1383.45 754.135 1384.51 758.545 1385.27 761.584C1385.65 763.089 1385.98 764.335 1386.25 765.238C1386.37 765.664 1386.52 766.161 1386.69 766.613C1386.76 766.8 1386.93 767.241 1387.19 767.731C1387.3 767.941 1387.6 768.505 1388.12 769.12C1388.41 769.436 1389.17 770.136 1389.66 770.503C1390.46 770.973 1392.57 771.681 1393.88 771.795V756.795ZM1312 348C1312 348.978 1311.7 349.234 1312.16 348.259C1312.51 347.501 1313.12 346.407 1314.05 344.956C1315.91 342.068 1318.67 338.348 1322.15 334.009C1329.08 325.363 1338.39 314.799 1347.79 304.493C1357.17 294.207 1366.57 284.269 1373.62 276.896C1377.15 273.211 1380.08 270.171 1382.14 268.053C1383.17 266.995 1383.97 266.167 1384.52 265.605C1384.79 265.324 1385 265.11 1385.14 264.966C1385.22 264.894 1385.27 264.84 1385.3 264.804C1385.32 264.786 1385.33 264.772 1385.34 264.763C1385.35 264.759 1385.35 264.756 1385.35 264.754C1385.35 264.753 1385.35 264.752 1385.35 264.751C1385.36 264.751 1385.36 264.751 1380 259.5C1374.64 254.249 1374.64 254.25 1374.64 254.25C1374.64 254.251 1374.64 254.252 1374.64 254.253C1374.64 254.256 1374.63 254.26 1374.63 254.265C1374.62 254.275 1374.61 254.289 1374.59 254.308C1374.55 254.346 1374.49 254.403 1374.42 254.477C1374.28 254.625 1374.06 254.844 1373.78 255.13C1373.23 255.701 1372.41 256.539 1371.37 257.609C1369.3 259.747 1366.34 262.813 1362.78 266.526C1355.68 273.95 1346.2 283.98 1336.71 294.382C1327.24 304.763 1317.67 315.606 1310.44 324.631C1306.84 329.128 1303.71 333.311 1301.44 336.835C1300.31 338.59 1299.3 340.33 1298.54 341.963C1297.89 343.38 1297 345.585 1297 348H1312ZM1378.28 266.8L1545.78 306.3L1549.22 291.7L1381.72 252.2L1378.28 266.8ZM1541.07 302.856L1761.07 669.856L1773.93 662.144L1553.93 295.144L1541.07 302.856ZM1767.5 666C1761.66 661.289 1761.66 661.289 1761.66 661.289C1761.66 661.289 1761.66 661.289 1761.66 661.289C1761.66 661.289 1761.66 661.29 1761.66 661.29C1761.66 661.292 1761.66 661.294 1761.66 661.296C1761.65 661.302 1761.65 661.311 1761.64 661.323C1761.62 661.347 1761.59 661.384 1761.55 661.432C1761.47 661.529 1761.35 661.675 1761.2 661.863C1760.89 662.241 1760.44 662.792 1759.88 663.481C1758.74 664.861 1757.15 666.788 1755.3 668.977C1751.59 673.386 1746.96 678.743 1743.07 682.826L1753.93 693.174C1758.15 688.747 1763.02 683.104 1766.78 678.64C1768.67 676.393 1770.31 674.416 1771.47 673C1772.05 672.292 1772.51 671.723 1772.83 671.329C1772.99 671.132 1773.12 670.98 1773.2 670.875C1773.25 670.823 1773.28 670.782 1773.3 670.755C1773.31 670.741 1773.32 670.731 1773.33 670.723C1773.33 670.719 1773.33 670.717 1773.33 670.715C1773.33 670.714 1773.33 670.713 1773.33 670.712C1773.34 670.712 1773.34 670.711 1773.34 670.711C1773.34 670.711 1773.34 670.711 1767.5 666ZM1743.07 682.826C1739.05 687.048 1733.52 692.454 1728.94 696.855C1726.67 699.044 1724.65 700.965 1723.2 702.337C1722.47 703.023 1721.89 703.572 1721.49 703.948C1721.29 704.137 1721.13 704.282 1721.03 704.379C1720.98 704.428 1720.94 704.465 1720.91 704.489C1720.9 704.501 1720.89 704.51 1720.88 704.516C1720.88 704.519 1720.88 704.522 1720.88 704.523C1720.88 704.524 1720.88 704.524 1720.87 704.524C1720.87 704.525 1720.87 704.525 1720.87 704.525C1720.87 704.525 1720.87 704.525 1726 710C1731.13 715.475 1731.13 715.475 1731.13 715.475C1731.13 715.475 1731.13 715.475 1731.13 715.474C1731.13 715.474 1731.13 715.473 1731.13 715.472C1731.13 715.47 1731.13 715.468 1731.14 715.464C1731.14 715.457 1731.16 715.447 1731.17 715.434C1731.2 715.408 1731.24 715.369 1731.29 715.318C1731.4 715.216 1731.56 715.067 1731.77 714.874C1732.18 714.489 1732.77 713.93 1733.5 713.233C1734.98 711.84 1737.03 709.891 1739.34 707.667C1743.94 703.242 1749.67 697.648 1753.93 693.174L1743.07 682.826ZM1722.98 703.137L1575.48 768.137L1581.52 781.863L1729.02 716.863L1722.98 703.137ZM1577.77 767.536C1572.79 768.024 1569.09 769.055 1565.5 770.117C1561.97 771.162 1558.55 772.236 1553.5 773.209C1543.36 775.162 1526.25 776.761 1490.77 775.505L1490.23 790.495C1526.2 791.768 1544.59 790.201 1556.34 787.938C1562.23 786.803 1566.35 785.507 1569.76 784.5C1573.1 783.512 1575.71 782.81 1579.23 782.464L1577.77 767.536ZM1490.77 775.505C1463.19 774.529 1440.22 769.964 1423.85 765.646C1415.67 763.488 1409.13 761.391 1404.47 759.826C1402.47 759.155 1399.92 758.277 1398.81 757.904C1398.11 757.669 1397.42 757.446 1396.83 757.276C1396.62 757.216 1395.28 756.795 1393.88 756.795V771.795C1392.79 771.795 1392.04 771.505 1392.68 771.691C1392.94 771.767 1393.38 771.904 1394.05 772.13C1395.69 772.679 1396.94 773.121 1399.7 774.047C1404.56 775.677 1411.43 777.881 1420.03 780.15C1437.22 784.684 1461.31 789.471 1490.23 790.495L1490.77 775.505ZM1436.1 452.942L1450.6 486.942L1464.4 481.058L1449.9 447.058L1436.1 452.942ZM1462.86 489.251L1512.86 438.251L1502.14 427.749L1452.14 478.749L1462.86 489.251ZM1514.88 431.658L1505.88 382.158L1491.12 384.842L1500.12 434.342L1514.88 431.658ZM1492.74 378.694L1437.24 445.194L1448.76 454.806L1504.26 388.306L1492.74 378.694ZM1133.65 696.047L1115.65 679.047L1105.35 689.953L1123.35 706.953L1133.65 696.047ZM1116.44 689.081C1120.64 683.629 1128.23 675.21 1137.02 668.035C1146.06 660.654 1155.18 655.581 1162.61 654.975L1161.39 640.025C1149.22 641.019 1137.09 648.612 1127.53 656.415C1117.72 664.423 1109.36 673.705 1104.56 679.919L1116.44 689.081ZM1162.61 654.975C1173.19 654.112 1183.54 657.028 1191.71 660.474C1195.75 662.177 1199.15 663.959 1201.64 665.359C1202.89 666.061 1203.9 666.66 1204.7 667.133C1205.08 667.357 1205.47 667.589 1205.8 667.774C1205.87 667.813 1206.71 668.311 1207.63 668.615L1212.37 654.385C1213.1 654.627 1213.59 654.944 1213.16 654.703C1212.99 654.607 1212.74 654.457 1212.32 654.213C1211.54 653.75 1210.39 653.072 1208.99 652.281C1206.17 650.697 1202.25 648.636 1197.54 646.651C1188.21 642.722 1175.31 638.888 1161.39 640.025L1162.61 654.975ZM1207.63 668.615C1205.4 667.874 1204.33 666.335 1204.12 666.026C1203.77 665.528 1203.62 665.151 1203.61 665.117C1203.57 665.021 1203.64 665.188 1203.77 665.766C1204.02 666.849 1204.28 668.475 1204.48 670.316C1204.68 672.135 1204.8 673.954 1204.82 675.384C1204.83 676.105 1204.81 676.624 1204.79 676.943C1204.74 677.471 1204.72 677.013 1205.04 676.215L1218.96 681.785C1219.53 680.362 1219.68 678.904 1219.74 678.159C1219.82 677.204 1219.83 676.176 1219.82 675.179C1219.79 673.172 1219.63 670.865 1219.39 668.685C1219.16 666.526 1218.82 664.276 1218.4 662.422C1218.19 661.531 1217.91 660.464 1217.51 659.469C1217.31 658.986 1216.98 658.244 1216.44 657.477C1216.04 656.899 1214.78 655.189 1212.37 654.385L1207.63 668.615ZM1205.04 676.215C1205.52 674.998 1206.21 674.282 1206.24 674.252C1206.4 674.075 1206.49 674.002 1206.43 674.058C1206.31 674.16 1206.01 674.399 1205.47 674.797C1204.4 675.574 1202.82 676.638 1200.81 677.935C1196.82 680.513 1191.51 683.778 1186.05 687.085C1180.6 690.387 1175.08 693.683 1170.66 696.336C1166.47 698.853 1162.83 701.046 1161.64 701.897L1170.36 714.103C1170.35 714.109 1170.4 714.071 1170.55 713.976C1170.68 713.888 1170.86 713.773 1171.09 713.63C1171.54 713.344 1172.13 712.978 1172.85 712.536C1174.3 711.654 1176.19 710.516 1178.38 709.196C1182.76 706.568 1188.34 703.238 1193.82 699.915C1199.3 696.597 1204.77 693.237 1208.95 690.533C1211.03 689.19 1212.89 687.949 1214.29 686.926C1214.98 686.423 1215.68 685.888 1216.29 685.363C1216.58 685.104 1216.96 684.755 1217.34 684.34C1217.58 684.072 1218.41 683.158 1218.96 681.785L1205.04 676.215ZM1161.64 701.897C1162.68 701.156 1163.58 700.976 1163.7 700.95C1163.93 700.902 1163.98 700.915 1163.77 700.923C1163.34 700.94 1162.54 700.914 1161.31 700.789C1158.9 700.542 1155.62 700.001 1151.9 699.267C1144.5 697.808 1135.99 695.725 1130.42 694.25L1126.58 708.75C1132.34 710.275 1141.18 712.442 1149 713.983C1152.88 714.749 1156.69 715.395 1159.79 715.711C1161.33 715.868 1162.9 715.967 1164.33 715.913C1165.05 715.886 1165.9 715.815 1166.78 715.629C1167.56 715.466 1168.97 715.094 1170.36 714.103L1161.64 701.897ZM1813.44 555.337L1633.44 462.337L1626.56 475.663L1806.56 568.663L1813.44 555.337ZM1622.68 470.614L1642.18 559.114L1656.82 555.886L1637.32 467.386L1622.68 470.614ZM1646.52 564.384L1791.02 626.884L1796.98 613.116L1652.48 550.616L1646.52 564.384ZM1800.95 622.83C1802.54 618.908 1807.58 607.556 1809.24 601.473L1794.76 597.527C1793.42 602.444 1789.12 612.092 1787.05 617.17L1800.95 622.83ZM1809.24 601.473C1811.82 591.981 1816.95 574.897 1817.49 562.326L1802.51 561.674C1802.05 572.103 1797.63 587.019 1794.76 597.527L1809.24 601.473ZM1473.2 453.697C1464.58 462.316 1454.53 468.887 1450.84 470.956L1458.16 484.044C1462.8 481.446 1474.02 474.084 1483.8 464.303L1473.2 453.697ZM1447.36 479.797L1465.86 537.297L1480.14 532.703L1461.64 475.203L1447.36 479.797ZM1476.73 541.505L1534.23 508.505L1526.77 495.495L1469.27 528.495L1476.73 541.505ZM1537.66 499.77L1511.66 416.27L1497.34 420.73L1523.34 504.23L1537.66 499.77ZM1497.79 415.146C1495.46 419.813 1491.36 427.45 1486.74 435.014C1482.02 442.731 1477.12 449.774 1473.2 453.697L1483.8 464.303C1489.08 459.026 1494.76 450.652 1499.54 442.836C1504.41 434.867 1508.71 426.854 1511.21 421.854L1497.79 415.146ZM1390.26 455.709C1371.55 451.198 1357.07 432.537 1346.67 408.02C1336.45 383.955 1331.16 356.567 1329.47 338.787L1314.53 340.213C1316.34 359.1 1321.9 388.062 1332.86 413.881C1343.63 439.247 1360.65 464.002 1386.74 470.291L1390.26 455.709ZM1328 344C1333.47 336.706 1336.91 328.144 1339.87 320.048C1342.94 311.655 1345.51 303.789 1349.32 296.257C1353.03 288.908 1357.74 282.303 1364.71 276.893C1371.68 271.483 1381.32 266.95 1395.35 264.377L1392.65 249.623C1376.68 252.55 1364.7 257.913 1355.51 265.044C1346.32 272.176 1340.34 280.759 1335.93 289.493C1331.61 298.045 1328.62 307.158 1325.79 314.889C1322.84 322.918 1320.03 329.627 1316 335L1328 344ZM1395.35 264.377C1438.48 256.47 1465.88 264.522 1482.29 276.437C1498.89 288.494 1505 304.984 1505 315.5H1520C1520 300.016 1511.45 279.081 1491.1 264.3C1470.55 249.378 1438.7 241.181 1392.65 249.623L1395.35 264.377ZM1505.07 316.537L1508.07 338.037L1522.93 335.964L1519.93 314.464L1505.07 316.537ZM1520.94 342.166C1522.12 340.923 1522.34 341.421 1521.66 341.325C1521.24 341.264 1521.77 341.132 1522.74 342.581C1524.71 345.512 1526.4 352.207 1524.21 361.233L1538.79 364.767C1541.68 352.859 1540.12 341.554 1535.19 334.219C1532.72 330.534 1528.89 327.202 1523.78 326.475C1518.42 325.712 1513.63 328.077 1510.06 331.834L1520.94 342.166ZM1524.21 361.233C1522.28 369.191 1519.81 375.518 1517.03 379.298C1515.68 381.128 1514.55 381.955 1513.78 382.295C1513.17 382.562 1512.43 382.705 1511.18 382.325L1506.82 396.675C1511.32 398.045 1515.77 397.813 1519.83 396.017C1523.73 394.295 1526.76 391.372 1529.1 388.202C1533.69 381.982 1536.72 373.309 1538.79 364.767L1524.21 361.233ZM1501.88 387.128C1500.56 391.092 1500.52 392.758 1495.94 405.46L1510.06 410.541C1514.48 398.242 1515.44 393.908 1516.12 391.872L1501.88 387.128ZM1495.94 405.46C1492.31 415.564 1483.51 427.399 1473.12 438.343C1462.84 449.167 1451.73 458.36 1444.35 463.25L1452.65 475.751C1461.11 470.14 1473.07 460.177 1484 448.673C1494.81 437.289 1505.35 423.624 1510.06 410.541L1495.94 405.46ZM1441.99 465.779C1442.54 464.822 1443.19 464.241 1443.59 463.94C1443.99 463.634 1444.31 463.49 1444.41 463.446C1444.59 463.368 1444.43 463.464 1443.7 463.579C1442.26 463.805 1439.6 463.955 1435.26 463.689C1426.64 463.16 1412.45 461.058 1390.26 455.709L1386.74 470.291C1409.35 475.742 1424.49 478.057 1434.34 478.661C1439.24 478.962 1443.09 478.858 1446.03 478.397C1447.48 478.168 1448.97 477.812 1450.34 477.222C1451.52 476.714 1453.66 475.593 1455.01 473.221L1441.99 465.779ZM1399.5 438.5C1399.5 443.192 1401.8 448.875 1407.4 452.795C1412.97 456.692 1420.94 458.282 1431.45 456.94L1429.55 442.06C1421.26 443.118 1417.48 441.542 1416 440.505C1414.55 439.492 1414.5 438.474 1414.5 438.5H1399.5ZM1431.45 456.94C1443.11 455.451 1451.44 449.4 1456.97 442.676C1462.39 436.084 1465.3 428.658 1466.35 423.5L1451.65 420.5C1451.04 423.509 1449.1 428.633 1445.38 433.149C1441.78 437.533 1436.69 441.149 1429.55 442.06L1431.45 456.94ZM1453.42 416.993C1451.59 419.031 1448.1 422.379 1443.92 425.355C1439.63 428.417 1435.35 430.55 1431.86 431.087L1434.14 445.913C1441.05 444.85 1447.61 441.15 1452.63 437.57C1457.77 433.904 1462.08 429.803 1464.58 427.007L1453.42 416.993ZM1431.86 431.087C1422.45 432.536 1411.99 431.679 1408.14 431.087L1405.86 445.913C1410.68 446.654 1422.75 447.664 1434.14 445.913L1431.86 431.087ZM1394.14 426.98C1393.99 427.275 1394.34 426.645 1395.99 425.049C1397.42 423.672 1399.37 421.99 1401.7 420.226C1406.41 416.656 1412.19 413.089 1417.66 411.011L1412.34 396.989C1405.09 399.742 1398.04 404.176 1392.64 408.273C1389.91 410.342 1387.49 412.41 1385.57 414.263C1383.88 415.896 1381.93 417.975 1380.86 420.02L1394.14 426.98ZM1417.66 411.011C1429.6 406.476 1437.8 404.902 1444.04 404.345C1447.2 404.064 1449.96 404.032 1452.65 404.047C1455.23 404.061 1458.1 404.129 1460.87 403.991L1460.13 389.009C1457.9 389.121 1455.71 389.064 1452.73 389.047C1449.85 389.031 1446.55 389.061 1442.71 389.405C1434.95 390.098 1425.4 392.024 1412.34 396.989L1417.66 411.011ZM1457.9 389.466L1384.9 416.466L1390.1 430.534L1463.1 403.534L1457.9 389.466ZM1418.42 430.061C1418.69 428.211 1419.38 425.189 1420.48 422.515C1421.03 421.189 1421.59 420.162 1422.11 419.461C1422.65 418.728 1422.88 418.701 1422.64 418.81L1416.36 405.19C1410.99 407.668 1408.11 413.176 1406.62 416.785C1404.94 420.844 1403.98 425.122 1403.58 427.939L1418.42 430.061ZM1422.64 418.81C1424.79 417.817 1431.87 415.298 1440.43 412.388C1448.75 409.557 1457.92 406.544 1463.81 404.635L1459.19 390.365C1453.25 392.289 1444.01 395.326 1435.6 398.187C1427.41 400.969 1419.41 403.783 1416.36 405.19L1422.64 418.81ZM1454.02 398.022C1454.24 401.181 1454.24 406.354 1453.52 411.247C1453.16 413.686 1452.65 415.852 1452.01 417.579C1451.34 419.374 1450.7 420.216 1450.38 420.517L1460.62 431.483C1463.3 428.984 1464.97 425.759 1466.07 422.806C1467.19 419.784 1467.9 416.518 1468.36 413.428C1469.26 407.263 1469.26 400.986 1468.98 396.978L1454.02 398.022ZM1450.38 420.517C1447.27 423.423 1442.56 426.633 1437.35 429.095C1432.08 431.591 1426.97 433 1423 433V448C1430.03 448 1437.42 445.659 1443.77 442.655C1450.19 439.617 1456.23 435.577 1460.62 431.483L1450.38 420.517ZM1423 433C1421.93 433 1421.29 432.777 1420.89 432.575C1420.48 432.363 1420.11 432.047 1419.75 431.591C1418.94 430.55 1418.54 429.128 1418.47 428.35L1403.53 429.65C1403.79 432.705 1404.99 437.033 1407.9 440.784C1411.04 444.831 1416.06 448 1423 448V433ZM1421.49 427.532C1421.37 425.656 1421.88 424.408 1422.86 423.042C1423.42 422.252 1424.1 421.48 1425.02 420.476C1425.82 419.6 1427.03 418.309 1428.03 416.958L1415.97 408.042C1415.55 408.608 1414.99 409.212 1413.95 410.352C1413.02 411.364 1411.79 412.727 1410.64 414.333C1408.2 417.759 1406.13 422.344 1406.51 428.468L1421.49 427.532ZM1419.6 405.395L1385.6 416.895L1390.4 431.105L1424.4 419.605L1419.6 405.395ZM1382.9 429.503L1396.4 442.003L1406.6 430.997L1393.1 418.497L1382.9 429.503ZM1399.89 443.826L1420.39 448.326L1423.61 433.674L1403.11 429.174L1399.89 443.826ZM1423.61 433.674C1424.8 433.936 1425.45 434.453 1425.45 434.454C1425.54 434.525 1425.47 434.485 1425.25 434.241C1424.8 433.757 1424.18 432.945 1423.53 431.896C1422.89 430.864 1422.33 429.786 1421.94 428.847C1421.5 427.792 1421.48 427.376 1421.49 427.532L1406.51 428.468C1406.65 430.708 1407.38 432.89 1408.08 434.578C1408.82 436.381 1409.78 438.19 1410.79 439.819C1411.79 441.43 1412.97 443.052 1414.22 444.406C1414.84 445.081 1415.59 445.81 1416.45 446.456C1417.22 447.031 1418.58 447.927 1420.39 448.326L1423.61 433.674ZM1373.34 366.459C1370.1 370.721 1365.75 377.709 1363.35 385.03C1361.12 391.793 1359.53 402.189 1367.13 409.431L1377.48 398.569C1376.68 397.811 1375.68 395.54 1377.59 389.72C1379.33 384.458 1382.68 378.946 1385.28 375.541L1373.34 366.459ZM1367.13 409.431C1373.6 415.588 1382.03 416.403 1388.62 415.709C1395.28 415.006 1401.47 412.651 1405.3 410.637L1398.31 397.363C1395.81 398.682 1391.45 400.327 1387.04 400.791C1382.57 401.263 1379.41 400.412 1377.48 398.569L1367.13 409.431ZM1454.14 398.949C1454.98 403.186 1454.89 410.155 1451.88 416.517C1449.05 422.506 1443.39 428.508 1431.81 431.194L1435.19 445.806C1451.21 442.092 1460.63 433.094 1465.44 422.933C1470.07 413.145 1470.19 402.814 1468.86 396.051L1454.14 398.949ZM1431.81 431.194C1407.52 436.826 1396.83 424.987 1394.74 420.706L1381.26 427.294C1386.5 438.013 1404.28 452.974 1435.19 445.806L1431.81 431.194ZM1452.75 513.089L1433.25 587.089L1447.75 590.911L1467.25 516.911L1452.75 513.089ZM1434.03 592.787L1547.53 786.787L1560.47 779.213L1446.97 585.213L1434.03 592.787ZM1556.68 790.004C1559.88 788.78 1566.51 787.394 1577.74 785.04C1588.59 782.768 1602.89 779.741 1620.36 775.266L1616.64 760.734C1599.5 765.125 1585.46 768.097 1574.67 770.359C1564.27 772.538 1555.96 774.22 1551.32 775.996L1556.68 790.004ZM1620.36 775.266C1662.92 764.366 1708.6 733.39 1731.1 715.925L1721.9 704.075C1699.74 721.277 1656.08 750.634 1616.64 760.734L1620.36 775.266ZM1733.47 707.225L1637.47 466.225L1623.53 471.775L1719.53 712.775L1733.47 707.225ZM1629.94 461.521L1523.94 469.521L1525.06 484.479L1631.06 476.479L1629.94 461.521ZM1520.69 470.538L1456.19 508.538L1463.81 521.462L1528.31 483.462L1520.69 470.538ZM1413.14 526.461C1420.45 519.579 1428.92 516.12 1436.41 515.334C1444.09 514.527 1449.86 516.564 1452.79 519.392L1463.21 508.608C1456.14 501.769 1445.41 499.306 1434.84 500.416C1424.08 501.547 1412.55 506.421 1402.86 515.538L1413.14 526.461ZM1452.79 519.392C1456.25 522.739 1458.78 528.223 1459.44 534.674C1460.09 541.071 1458.83 547.736 1455.58 553.125L1468.42 560.875C1473.56 552.357 1475.3 542.355 1474.36 533.146C1473.42 523.99 1469.75 514.928 1463.21 508.608L1452.79 519.392ZM1455.58 553.125C1447.08 567.212 1415.39 610.19 1385.44 650.125C1370.54 669.984 1356.19 688.94 1345.57 702.933C1340.25 709.928 1335.87 715.682 1332.82 719.687C1331.29 721.689 1330.1 723.254 1329.28 724.318C1328.88 724.85 1328.57 725.257 1328.36 725.531C1328.25 725.667 1328.17 725.771 1328.12 725.84C1328.1 725.875 1328.08 725.901 1328.06 725.918C1328.06 725.927 1328.05 725.933 1328.05 725.938C1328.05 725.94 1328.04 725.941 1328.04 725.943C1328.04 725.944 1328.04 725.944 1334 730.5C1339.96 735.056 1339.96 735.055 1339.96 735.054C1339.96 735.053 1339.96 735.051 1339.96 735.049C1339.97 735.045 1339.97 735.038 1339.98 735.029C1339.99 735.011 1340.01 734.985 1340.04 734.95C1340.09 734.88 1340.17 734.776 1340.28 734.638C1340.49 734.364 1340.8 733.955 1341.21 733.422C1342.02 732.355 1343.22 730.787 1344.75 728.782C1347.8 724.771 1352.19 719.009 1357.51 712.005C1368.15 697.997 1382.52 679.016 1397.44 659.125C1427.11 619.56 1459.42 575.788 1468.42 560.875L1455.58 553.125ZM1336.6 723.465L1208.1 675.965L1202.9 690.035L1331.4 737.535L1336.6 723.465ZM1213 683V635.5H1198V683H1213ZM1203.69 642.778L1306.19 668.278L1309.81 653.722L1207.31 628.222L1203.69 642.778ZM1314.23 665.171C1329.07 642.994 1349.78 612.059 1368.89 584.673C1378.45 570.977 1387.58 558.219 1395.36 547.913C1403.25 537.451 1409.42 529.966 1413.14 526.461L1402.86 515.538C1398.08 520.04 1391.2 528.518 1383.38 538.879C1375.45 549.398 1366.2 562.326 1356.59 576.087C1337.38 603.614 1316.59 634.672 1301.77 656.829L1314.23 665.171ZM1027.49 599.461L1029.49 566.961L1014.51 566.039L1012.51 598.539L1027.49 599.461ZM1024.28 573.644L1110.28 546.144L1105.72 531.856L1019.72 559.356L1024.28 573.644ZM1101.72 543.1L1180.72 664.1L1193.28 655.9L1114.28 534.9L1101.72 543.1ZM1182.97 653.677L1130.47 687.177L1138.53 699.823L1191.03 666.323L1182.97 653.677ZM1134.98 686.015L1111.48 684.515L1110.52 699.485L1134.02 700.985L1134.98 686.015ZM1116.36 686.755L1025.36 593.755L1014.64 604.245L1105.64 697.245L1116.36 686.755ZM1104.73 545.351L1043.23 564.851L1047.77 579.149L1109.27 559.649L1104.73 545.351ZM1039.78 576.846L1130.78 684.346L1142.22 674.654L1051.22 567.154L1039.78 576.846ZM1140.27 685.981L1179.77 662.981L1172.23 650.019L1132.73 673.019L1140.27 685.981ZM1182.25 652.354L1113.25 548.354L1100.75 556.646L1169.75 660.646L1182.25 652.354ZM1091.14 708.603C1095.49 711.713 1100.38 710.787 1103.08 709.764C1104.6 709.189 1106.02 708.387 1107.24 707.444C1108.36 706.574 1109.77 705.224 1110.71 703.354L1097.29 696.646C1097.54 696.155 1097.78 695.865 1097.88 695.754C1097.94 695.687 1097.99 695.644 1098.01 695.621C1098.02 695.609 1098.03 695.6 1098.04 695.595C1098.04 695.592 1098.05 695.59 1098.05 695.589C1098.05 695.588 1098.05 695.588 1098.05 695.588C1098.05 695.587 1098.05 695.588 1098.05 695.589C1098.05 695.59 1098.04 695.591 1098.04 695.593C1098.04 695.597 1098.03 695.602 1098.02 695.608C1098 695.621 1097.98 695.636 1097.95 695.652C1097.89 695.687 1097.82 695.716 1097.77 695.736C1097.62 695.791 1097.7 695.73 1098.01 695.736C1098.36 695.742 1099.09 695.849 1099.86 696.397L1091.14 708.603ZM1097.42 703.591C1097.46 703.674 1097.52 703.8 1097.75 704.348C1097.94 704.794 1098.29 705.617 1098.77 706.478C1099.88 708.474 1101.55 710.453 1104.28 712.012L1111.72 698.988C1111.61 698.924 1111.65 698.932 1111.75 699.038C1111.85 699.144 1111.9 699.227 1111.88 699.198C1111.84 699.113 1111.77 698.975 1111.55 698.467C1111.38 698.063 1111.04 697.243 1110.58 696.409L1097.42 703.591ZM1104.28 712.012C1108.95 714.68 1113.64 713.053 1115.85 712.051C1118.33 710.918 1120.48 709.283 1121.57 708.445L1112.43 696.555C1111.93 696.94 1111.43 697.314 1110.91 697.656C1110.39 698.005 1109.96 698.25 1109.63 698.399C1109.27 698.562 1109.28 698.502 1109.58 698.474C1109.96 698.438 1110.8 698.462 1111.72 698.988L1104.28 712.012ZM1110.29 705.854C1110.01 705.293 1109.92 704.881 1109.98 705.091C1110 705.19 1110.04 705.345 1110.13 705.694C1110.28 706.289 1110.53 707.309 1110.89 708.372C1111.23 709.408 1111.78 710.83 1112.68 712.212C1113.57 713.578 1115.14 715.434 1117.71 716.464L1123.29 702.536C1124.61 703.066 1125.18 703.922 1125.26 704.038C1125.34 704.17 1125.27 704.092 1125.12 703.628C1124.97 703.191 1124.85 702.711 1124.68 702.056C1124.61 701.78 1124.51 701.373 1124.41 701.002C1124.35 700.808 1124.28 700.555 1124.18 700.282C1124.1 700.03 1123.94 699.615 1123.71 699.146L1110.29 705.854ZM1117.71 716.464C1120.22 717.464 1123.1 718.079 1126.25 717.592C1129.4 717.104 1132.06 715.632 1134.3 713.762L1124.7 702.238C1124.31 702.56 1124.07 702.699 1123.96 702.752C1123.87 702.798 1123.88 702.781 1123.96 702.768C1124.04 702.755 1124.07 702.767 1124 702.757C1123.91 702.743 1123.69 702.696 1123.29 702.536L1117.71 716.464ZM1134.3 713.762C1135.65 712.64 1136.75 711.003 1137.37 710.068C1138.18 708.836 1139.08 707.329 1140 705.682C1141.86 702.375 1143.97 698.217 1145.89 693.975C1147.8 689.763 1149.62 685.273 1150.81 681.345C1151.4 679.395 1151.9 677.37 1152.14 675.471C1152.34 673.889 1152.54 671.072 1151.33 668.396L1137.67 674.604C1137.08 673.303 1137.38 672.58 1137.25 673.619C1137.16 674.341 1136.92 675.464 1136.45 676.999C1135.53 680.04 1134.01 683.862 1132.23 687.775C1130.47 691.658 1128.55 695.437 1126.92 698.35C1126.1 699.812 1125.39 700.984 1124.85 701.811C1124.11 702.935 1124.1 702.735 1124.7 702.238L1134.3 713.762ZM1151.33 668.396C1149.36 664.064 1145.84 661.387 1141.67 660.799C1138.11 660.296 1135.01 661.445 1133.14 662.569L1140.86 675.431C1140.66 675.552 1140.52 675.598 1140.41 675.626C1140.29 675.656 1140 675.712 1139.58 675.651C1139.1 675.584 1138.57 675.384 1138.11 675.032C1137.68 674.691 1137.59 674.425 1137.67 674.604L1151.33 668.396ZM1144.5 669C1144.5 667.077 1144.23 664.228 1143.42 661.355C1142.66 658.696 1141.07 654.68 1137.5 652L1128.5 664C1128.25 663.809 1128.27 663.727 1128.43 664.027C1128.6 664.318 1128.8 664.788 1128.98 665.445C1129.37 666.805 1129.5 668.256 1129.5 669H1144.5ZM1137.5 652C1133.22 648.792 1128.55 649.269 1125.42 650.475C1122.5 651.597 1120.24 653.52 1118.93 654.983L1130.07 665.017C1130.11 664.983 1130.24 664.844 1130.45 664.692C1130.54 664.624 1130.63 664.569 1130.7 664.529C1130.77 664.488 1130.81 664.474 1130.81 664.475C1130.8 664.475 1130.74 664.5 1130.62 664.522C1130.49 664.545 1130.29 664.566 1130.04 664.549C1129.77 664.532 1129.48 664.476 1129.19 664.369C1128.9 664.261 1128.67 664.125 1128.5 664L1137.5 652ZM1131.97 660.623C1132.13 658.777 1131.99 656.199 1131.21 653.55C1130.44 650.894 1128.82 647.492 1125.5 645L1116.5 657C1116.38 656.908 1116.6 657.006 1116.81 657.75C1116.91 658.084 1116.97 658.446 1117.01 658.788C1117.02 658.954 1117.03 659.097 1117.03 659.209C1117.03 659.324 1117.03 659.382 1117.03 659.377L1131.97 660.623ZM1125.5 645C1122.51 642.758 1119.13 642.59 1116.43 643.313C1114.02 643.958 1112.09 645.293 1110.77 646.382C1108.09 648.597 1105.9 651.532 1104.66 653.495L1117.34 661.505C1117.68 660.972 1118.17 660.279 1118.74 659.589C1119.32 658.884 1119.88 658.318 1120.33 657.943C1120.86 657.503 1120.85 657.657 1120.31 657.802C1119.97 657.892 1119.38 657.992 1118.61 657.876C1117.81 657.754 1117.08 657.432 1116.5 657L1125.5 645ZM1118.31 659.162C1118.85 656.821 1119.35 653.183 1119.15 649.515C1118.98 646.378 1118.18 640.635 1113.6 637.08L1104.4 648.92C1103.81 648.461 1103.75 648.074 1103.87 648.408C1103.98 648.734 1104.12 649.365 1104.17 650.335C1104.28 652.3 1103.99 654.512 1103.69 655.838L1118.31 659.162ZM1113.6 637.08C1109.05 633.537 1103.97 635.054 1101.26 636.44C1098.41 637.898 1095.81 640.253 1093.64 642.639C1089.2 647.513 1084.88 654.386 1082.08 661.116L1095.93 666.884C1098.12 661.614 1101.55 656.237 1104.73 652.736C1106.37 650.935 1107.56 650.071 1108.1 649.794C1108.78 649.445 1106.7 650.713 1104.4 648.92L1113.6 637.08ZM1082.08 661.116C1079.17 668.104 1077.55 676.974 1077.08 684.264C1076.84 687.931 1076.87 691.534 1077.28 694.547C1077.48 696.033 1077.82 697.666 1078.41 699.189C1078.92 700.476 1080.1 702.978 1082.78 704.513L1090.22 691.487C1091.2 692.044 1091.76 692.716 1092.02 693.083C1092.28 693.455 1092.38 693.713 1092.38 693.725C1092.39 693.752 1092.36 693.67 1092.31 693.442C1092.26 693.221 1092.2 692.915 1092.14 692.516C1091.91 690.841 1091.85 688.319 1092.05 685.236C1092.45 679.026 1093.84 671.896 1095.93 666.884L1082.08 661.116ZM1082.78 704.513C1086.28 706.509 1089.98 705.983 1091.84 705.551C1093.78 705.097 1096.11 704.17 1097.8 702.761L1088.2 691.239C1088.48 691.001 1088.69 690.88 1088.73 690.854C1088.8 690.815 1088.82 690.81 1088.78 690.827C1088.7 690.864 1088.56 690.912 1088.43 690.942C1088.29 690.975 1088.33 690.947 1088.54 690.955C1088.73 690.963 1089.4 691.018 1090.22 691.487L1082.78 704.513ZM1093 697C1085.53 696.359 1085.53 696.363 1085.53 696.366C1085.53 696.367 1085.53 696.37 1085.53 696.372C1085.53 696.376 1085.53 696.381 1085.53 696.385C1085.52 696.394 1085.52 696.403 1085.52 696.412C1085.52 696.43 1085.52 696.45 1085.52 696.47C1085.52 696.512 1085.51 696.557 1085.51 696.606C1085.5 696.704 1085.5 696.819 1085.5 696.948C1085.49 697.207 1085.49 697.529 1085.5 697.904C1085.54 698.641 1085.64 699.643 1085.91 700.781C1086.47 703.042 1087.84 706.245 1091.14 708.603L1099.86 696.397C1100.36 696.755 1100.48 697.208 1100.49 697.219C1100.49 697.232 1100.49 697.234 1100.49 697.252C1100.49 697.267 1100.49 697.301 1100.49 697.36C1100.49 697.39 1100.49 697.428 1100.49 697.474C1100.48 697.497 1100.48 697.522 1100.48 697.55C1100.48 697.564 1100.48 697.578 1100.48 697.593C1100.48 697.601 1100.48 697.609 1100.47 697.616C1100.47 697.62 1100.47 697.624 1100.47 697.628C1100.47 697.63 1100.47 697.633 1100.47 697.634C1100.47 697.637 1100.47 697.641 1093 697ZM1170.36 631.992C1171.36 631.944 1173.39 632.173 1176.51 632.916C1179.47 633.622 1182.9 634.664 1186.48 635.885C1193.63 638.326 1200.94 641.337 1205.44 643.349L1211.56 629.651C1206.73 627.496 1198.99 624.307 1191.32 621.69C1187.49 620.382 1183.57 619.18 1179.99 618.325C1176.55 617.506 1172.84 616.856 1169.64 617.009L1170.36 631.992ZM1201.28 638.527L1209.28 667.027L1223.72 662.973L1215.72 634.473L1201.28 638.527ZM1213.01 658.363C1211.48 659.169 1203.68 661.747 1192.38 659.628L1189.62 674.372C1203.92 677.053 1215.19 674.164 1219.99 671.637L1213.01 658.363ZM1192.38 659.628C1188.83 658.962 1186.96 657.005 1185.79 654.398C1184.47 651.469 1184.23 647.96 1184.46 645.785L1169.54 644.215C1169.1 648.373 1169.46 654.665 1172.11 660.552C1174.9 666.762 1180.37 672.638 1189.62 674.372L1192.38 659.628ZM1176.2 637.543C1171.86 638.008 1164.61 638.413 1157.34 638.083C1149.74 637.738 1143.39 636.632 1139.96 634.846L1133.04 648.154C1139.6 651.568 1148.84 652.712 1156.66 653.067C1164.8 653.437 1172.81 652.992 1177.8 652.457L1176.2 637.543ZM1139.96 634.846C1138.15 633.905 1137.29 633.088 1136.9 632.617C1136.71 632.385 1136.63 632.223 1136.59 632.138C1136.55 632.055 1136.54 632.008 1136.54 631.987C1136.53 631.95 1136.53 631.85 1136.59 631.665C1136.62 631.572 1136.66 631.48 1136.71 631.397C1136.75 631.311 1136.79 631.267 1136.79 631.268L1125.21 621.732C1123.06 624.342 1120.89 628.87 1121.71 634.238C1122.59 640.016 1126.59 644.8 1133.04 648.154L1139.96 634.846ZM1131.39 633.99C1140.9 633.489 1161.98 632.39 1170.36 631.992L1169.64 617.009C1161.22 617.41 1140.1 618.511 1130.6 619.01L1131.39 633.99ZM1357.31 308.783C1336.59 322.762 1325.12 329.89 1317.65 333.986C1310.38 337.967 1306.98 339.049 1301.85 340.982L1307.15 355.018C1312.19 353.117 1316.54 351.699 1324.85 347.139C1332.97 342.693 1344.91 335.238 1365.69 321.217L1357.31 308.783ZM1312 348C1312 329.475 1321.54 300.299 1340.68 275C1359.69 249.883 1387.39 229.58 1423.05 226.98L1421.95 212.02C1380.81 215.02 1349.51 238.467 1328.72 265.95C1308.06 293.251 1297 325.525 1297 348H1312ZM1423.05 226.98C1458.93 224.363 1487.41 238.617 1508.69 258.006C1530.09 277.512 1543.89 301.964 1549.95 318.571L1564.05 313.429C1557.27 294.869 1542.22 268.271 1518.79 246.919C1495.23 225.449 1462.87 209.037 1421.95 212.02L1423.05 226.98ZM1554.72 308.855C1550.15 310.315 1540.41 311.07 1526.89 310.975C1513.75 310.883 1498.07 310.017 1482.33 308.75C1450.69 306.202 1419.66 302.109 1409.19 299.692L1405.81 314.308C1417.44 316.992 1449.42 321.149 1481.13 323.701C1497.06 324.984 1513.14 325.88 1526.78 325.975C1540.04 326.068 1552.1 325.435 1559.28 323.145L1554.72 308.855ZM1409.19 299.692C1401.94 298.02 1396.33 292.989 1392.5 286.801C1388.54 280.407 1387.23 274.004 1387.47 271.133L1372.53 269.867C1371.94 276.83 1374.63 286.427 1379.75 294.699C1385 303.178 1393.56 311.48 1405.81 314.308L1409.19 299.692ZM1372.92 268.022C1371.81 271.186 1371.07 275.213 1370.4 278.865C1369.68 282.766 1368.96 286.755 1367.9 290.718C1365.75 298.811 1362.61 305.201 1357.31 308.783L1365.69 321.217C1375.63 314.516 1379.99 303.657 1382.4 294.57C1383.63 289.943 1384.46 285.36 1385.15 281.586C1385.89 277.564 1386.44 274.814 1387.08 272.978L1372.92 268.022ZM1349.69 340.043C1330.9 342.075 1324.46 354.941 1323.15 361.529L1337.85 364.471C1338.2 362.725 1340.5 356.125 1351.31 354.957L1349.69 340.043ZM1323.71 366.194C1326.73 372.613 1337.61 380.908 1355.93 377.363L1353.07 362.637C1340.39 365.092 1336.93 359.053 1337.29 359.807L1323.71 366.194ZM1355.93 377.363C1364.31 375.741 1370.53 373.027 1374.7 368.915C1379.13 364.546 1380.38 359.479 1380.5 355.214L1365.5 354.786C1365.46 356.354 1365.12 357.303 1364.17 358.234C1362.97 359.422 1360.03 361.291 1353.07 362.637L1355.93 377.363ZM1379.91 352.09C1376.86 344.831 1366.51 338.225 1349.69 340.043L1351.31 354.957C1364.09 353.575 1366.48 358.836 1366.09 357.91L1379.91 352.09ZM1440.49 321.069C1415.08 324.534 1406.38 340.445 1404.36 346.701L1418.64 351.299C1419.25 349.395 1423.92 338.467 1442.51 335.931L1440.49 321.069ZM1405.52 353.529C1407.28 355.848 1411.14 359.976 1418.88 362.808C1426.48 365.591 1437.35 366.949 1452.9 364.719L1450.77 349.871C1436.99 351.847 1428.74 350.444 1424.03 348.722C1419.46 347.049 1417.82 344.926 1417.48 344.471L1405.52 353.529ZM1452.9 364.719C1461.34 363.509 1469.48 359.296 1475.45 354.797C1478.48 352.518 1481.2 349.986 1483.25 347.428C1485.06 345.183 1487.31 341.766 1487.49 337.845L1472.51 337.155C1472.56 336.09 1472.93 336.33 1471.57 338.026C1470.45 339.409 1468.71 341.102 1466.43 342.813C1461.81 346.294 1456 349.122 1450.77 349.871L1452.9 364.719ZM1486.21 333.292C1484.85 331.294 1481.72 326.605 1474.13 323.396C1466.86 320.32 1456.28 318.915 1440.49 321.069L1442.51 335.931C1456.72 333.995 1464.34 335.539 1468.29 337.211C1471.93 338.749 1473.04 340.605 1473.79 341.708L1486.21 333.292ZM1350.5 361.5C1350.5 362.247 1349.75 363.5 1348 363.5V378.5C1357.3 378.5 1365.5 371.247 1365.5 361.5H1350.5ZM1348 363.5C1346.25 363.5 1345.5 362.247 1345.5 361.5H1330.5C1330.5 371.247 1338.7 378.5 1348 378.5V363.5ZM1345.5 361.5C1345.5 360.753 1346.25 359.5 1348 359.5V344.5C1338.7 344.5 1330.5 351.753 1330.5 361.5H1345.5ZM1348 359.5C1349.75 359.5 1350.5 360.753 1350.5 361.5H1365.5C1365.5 351.753 1357.3 344.5 1348 344.5V359.5ZM1439.5 348C1439.5 348.631 1439.23 349.407 1438.38 350.148C1437.53 350.902 1436.18 351.5 1434.5 351.5V366.5C1444.62 366.5 1454.5 359.089 1454.5 348H1439.5ZM1434.5 351.5C1432.82 351.5 1431.47 350.902 1430.62 350.148C1429.77 349.407 1429.5 348.631 1429.5 348H1414.5C1414.5 359.089 1424.38 366.5 1434.5 366.5V351.5ZM1429.5 348C1429.5 347.369 1429.77 346.593 1430.62 345.852C1431.47 345.098 1432.82 344.5 1434.5 344.5V329.5C1424.38 329.5 1414.5 336.911 1414.5 348H1429.5ZM1434.5 344.5C1436.18 344.5 1437.53 345.098 1438.38 345.852C1439.23 346.593 1439.5 347.369 1439.5 348H1454.5C1454.5 336.911 1444.62 329.5 1434.5 329.5V344.5ZM1324.15 346.018C1329.73 343.911 1337.9 339.924 1345.74 335.384C1353.49 330.9 1361.64 325.462 1366.8 320.303L1356.2 309.697C1352.47 313.419 1345.72 318.065 1338.22 322.402C1330.83 326.684 1323.43 330.256 1318.85 331.982L1324.15 346.018ZM1366.8 320.303C1374.58 312.529 1378.78 302.53 1381.47 293.85C1382.84 289.47 1383.87 285.223 1384.75 281.618C1385.66 277.859 1386.35 275.052 1387.08 272.978L1372.92 268.022C1371.9 270.947 1371.02 274.578 1370.17 278.069C1369.29 281.715 1368.35 285.53 1367.15 289.4C1364.72 297.22 1361.42 304.471 1356.2 309.697L1366.8 320.303ZM1372.53 269.867C1371.94 276.757 1374.45 286.213 1379.48 294.418C1384.63 302.828 1393.08 310.986 1405.31 313.808L1408.69 299.192C1401.42 297.514 1395.95 292.589 1392.27 286.582C1388.46 280.37 1387.22 274.076 1387.47 271.133L1372.53 269.867ZM1405.31 313.808C1416.98 316.499 1438.7 318.784 1459.69 320.634C1481.32 322.539 1501.64 323.945 1512.82 324.969L1514.18 310.031C1503.53 309.055 1481.65 307.511 1461.01 305.692C1439.74 303.817 1419.13 301.602 1408.69 299.192L1405.31 313.808ZM1390.54 431.055L1464.04 404.555L1458.96 390.445L1385.46 416.945L1390.54 431.055Z" fill="white"/>
<path d="M1812.5 539C1812.5 674.31 1677.37 784.5 1510 784.5C1342.63 784.5 1207.5 674.31 1207.5 539C1207.5 403.69 1342.63 293.5 1510 293.5C1677.37 293.5 1812.5 403.69 1812.5 539Z" fill="white" stroke="black" stroke-width="3"/>
<path d="M1393.88 764.295C1391.88 764.295 1304.5 359.5 1304.5 348C1304.5 336.5 1380 259.5 1380 259.5L1547.5 299L1767.5 666C1767.5 666 1756.61 679.49 1748.5 688C1740.21 696.696 1726 710 1726 710L1578.5 775C1561.5 776.667 1561.96 785.529 1490.5 783C1434 781 1396.38 764.295 1393.88 764.295Z" fill="#F26822"/>
<path d="M1443 450L1457.5 484L1507.5 433L1498.5 383.5L1443 450Z" fill="white"/>
<path d="M1128.5 701.5L1110.5 684.5C1119.5 672.833 1142.4 649.1 1162 647.5C1186.5 645.5 1208.5 661 1210 661.5C1211.5 662 1213 676.5 1212 679C1211 681.5 1169.5 705.5 1166 708C1163.2 710 1139.83 704.5 1128.5 701.5Z" fill="#9A9A9A"/>
<path d="M1810 562L1630 469L1649.5 557.5L1794 620C1795.83 615.5 1800.5 605 1802 599.5C1804.73 589.5 1809.5 573.5 1810 562Z" fill="#AEAEAE"/>
<path d="M1478.5 459C1469.3 468.2 1458.67 475.167 1454.5 477.5L1473 535L1530.5 502L1504.5 418.5C1499.67 428.167 1487.7 449.8 1478.5 459Z" fill="#AEAEAE"/>
<path d="M1388.5 463C1343.7 452.2 1325.5 376.167 1322 339.5C1341 314.167 1334 268 1394 257C1483.18 240.65 1512.5 289.5 1512.5 315.5L1515.5 337C1525 327 1536.58 342.066 1531.5 363C1527.5 379.5 1520.5 393 1509 389.5C1508 392.5 1507.5 395.5 1503 408C1494.65 431.188 1464.33 459 1448.5 469.5C1447.17 471.833 1433.3 473.8 1388.5 463Z" fill="#AEAEAE"/>
<path d="M1430.5 449.5C1411.7 451.9 1407 443.167 1407 438.5C1411.33 439.167 1422.6 440.1 1433 438.5C1443.4 436.9 1454.67 426.833 1459 422C1457.33 430.167 1449.3 447.1 1430.5 449.5Z" fill="white"/>
<path d="M1415 404C1402.29 408.831 1389.33 420 1387.5 423.5L1460.5 396.5C1450.5 397 1440 394.5 1415 404Z" fill="white"/>
<path d="M1419.5 412C1414.3 414.4 1411.67 424.333 1411 429C1411.33 432.833 1414.2 440.5 1423 440.5C1434 440.5 1448 433 1455.5 426C1461.5 420.4 1462 404.667 1461.5 397.5C1449.67 401.333 1424.7 409.6 1419.5 412Z" fill="#BCBCBC" stroke="black"/>
<path d="M1414 428C1413.5 420 1419.17 416.333 1422 412.5L1388 424L1401.5 436.5L1422 441C1419.5 440.451 1414.26 432.168 1414 428Z" fill="black"/>
<path d="M1379.31 371C1373.47 378.667 1363.91 396 1372.31 404C1380.71 412 1395.47 407.333 1401.8 404" stroke="black" stroke-width="3" stroke-linecap="round"/>
<path d="M1433.5 438.5C1461.1 432.1 1463.67 408.5 1461.5 397.5L1418.5 413.003L1388 424C1391.67 431.5 1405.9 444.9 1433.5 438.5Z" stroke="black" stroke-width="3" stroke-linecap="round"/>
<path d="M1460 515L1440.5 589L1554 783C1561.83 780 1583.88 776.866 1618.5 768C1659.5 757.5 1704.17 727.333 1726.5 710L1630.5 469L1524.5 477L1460 515Z" fill="black" stroke="black"/>
<path d="M1408 521C1425 505 1448 504.333 1458 514C1468 523.667 1470.39 543.093 1462 557C1444.5 586 1334 730.5 1334 730.5L1205.5 683V635.5L1308 661C1337.67 616.667 1390.99 537.013 1408 521Z" fill="#AEAEAE"/>
<path d="M1020 599L1022 566.5L1108 539L1187 660L1134.5 693.5L1111 692L1020 599Z" fill="#474F55"/>
<path d="M1022 566.5L1020 599L1111 692L1134.5 693.5M1022 566.5L1108 539L1187 660L1134.5 693.5M1022 566.5L1134.5 693.5" stroke="black" stroke-width="3"/>
<path d="M1107 552.5L1045.5 572L1136.5 679.5L1176 656.5L1107 552.5Z" fill="#202223" stroke="black" stroke-width="3"/>
<path d="M1095.5 702.5C1098.3 704.5 1103 702 1104 700C1105 701.833 1105.2 703.9 1108 705.5C1110.8 707.1 1114.83 704.167 1117 702.5C1117.5 703.5 1118 708.5 1120.5 709.5C1123.78 710.813 1126.5 710.5 1129.5 708C1132.5 705.5 1147 677 1144.5 671.5C1142.5 667.1 1138.67 668 1137 669C1137 666.333 1136.2 660.4 1133 658C1129.8 655.6 1126 658.333 1124.5 660C1124.67 658 1124.2 653.4 1121 651C1117.8 648.6 1113 654.333 1111 657.5C1111.83 653.833 1112.6 645.8 1109 643C1104.5 639.5 1094 652 1089 664C1084 676 1083 696 1086.5 698C1088.53 699.157 1092 697.833 1093 697C1093 697 1092.7 700.5 1095.5 702.5Z" fill="#AEAEAE"/>
<path d="M1170 624.5C1178.4 624.1 1199.17 632.333 1208.5 636.5L1216.5 665C1213.33 666.667 1203.8 669.4 1191 667C1178.2 664.6 1176.33 651.333 1177 645C1167.67 646 1146.5 646.7 1136.5 641.5C1126.5 636.3 1128.67 629.333 1131 626.5C1140.5 626 1161.6 624.9 1170 624.5Z" fill="#AEAEAE"/>
<path d="M1361.5 315C1320 343 1314.67 344.167 1304.5 348C1304.5 307 1345.7 225.1 1422.5 219.5C1499.3 213.9 1544.17 280.833 1557 316C1533.5 323.5 1429.61 312.101 1407.5 307C1388 302.5 1379.17 280.333 1380 270.5C1376.5 280.5 1376.74 304.717 1361.5 315Z" fill="#F26822"/>
<path d="M1350.5 347.5C1335.7 349.1 1331.33 358.833 1330.5 363C1331.83 365.833 1339 373 1354.5 370C1369.84 367.032 1372.83 360.833 1373 355C1371.67 351.833 1365.3 345.9 1350.5 347.5Z" fill="white" stroke="black" stroke-width="2"/>
<path d="M1441.5 328.5C1419.5 331.5 1412.81 344.92 1411.5 349C1413.6 351.774 1422.5 361.5 1451.84 357.295C1465.5 355.336 1479.74 343.212 1480 337.5C1477.9 334.399 1471.5 324.409 1441.5 328.5Z" fill="white" stroke="black" stroke-width="2"/>
<ellipse cx="1348" cy="361.5" rx="10" ry="9.5" fill="black"/>
<ellipse cx="1434.5" cy="348" rx="12.5" ry="11" fill="black"/>
<path d="M1321.5 339C1331.67 335.167 1352.62 323.881 1361.5 315C1374.5 302 1376.5 280.5 1380 270.5C1379.17 280.333 1387.5 302 1407 306.5C1429.11 311.601 1491.67 315.5 1513.5 317.5" stroke="black" stroke-width="3"/>
<path d="M748 1432.5C748 1582.45 627.341 1704 478.5 1704C329.659 1704 209 1582.45 209 1432.5C209 1282.55 329.659 1161 478.5 1161C627.341 1161 748 1282.55 748 1432.5Z" fill="white"/>
<path d="M406.5 1337L412.5 1305.5L481 1299.5L469 1334C467.5 1335 462.2 1338.1 453 1342.5C443.8 1346.9 418.167 1340.67 406.5 1337Z" fill="white"/>
<path d="M693 1281.5L758 1241.5L757.57 1251.5L750.473 1416.5L750 1427.5L693 1455.5V1281.5Z" fill="#474E53"/>
<path d="M737 1296C737 1300.42 734.538 1304 731.5 1304C728.462 1304 726 1300.42 726 1296C726 1291.58 728.462 1288 731.5 1288C734.538 1288 737 1291.58 737 1296Z" fill="black"/>
<path d="M334.499 1247C332.099 1244.6 325.832 1224.33 322.999 1214.5C322.165 1210.17 325.197 1194.6 343.997 1167C362.797 1139.4 465.497 1123.5 514.497 1119C523.33 1140.5 541.497 1189.7 543.497 1214.5C545.421 1238.36 533.614 1283.88 526.78 1306C526.293 1307.57 525.066 1308.78 523.485 1309.25C500.32 1316.1 451.979 1328.16 424.997 1327C396.997 1325.8 373.665 1308.83 365.499 1300.5C343.997 1308.5 309.501 1285.5 309.5 1260.5C309.499 1235.98 337.499 1250 334.499 1247Z" fill="#AEAEAE"/>
<path d="M503.5 1237.5L475.5 1248.5C476.5 1250.5 478.5 1265.24 498 1272.5C506.304 1275.59 516.5 1272 520.5 1270.5C524.5 1269 525.5 1256 524 1248C522.8 1241.6 509.833 1238.33 503.5 1237.5Z" fill="#BCBCBC"/>
<path d="M434.5 1336C422.5 1335.2 411.5 1332.33 407.5 1331L393.5 1394L450 1390L469.5 1333C462.833 1334.33 446.5 1336.8 434.5 1336Z" fill="#AEAEAE"/>
<path d="M371 1403L296.5 1630.5C309 1642.5 349 1674.67 393 1687.5C453 1705 495.833 1703 511.5 1699L484.5 1417C478.5 1400.83 458.4 1368.2 426 1367C393.6 1365.8 375.833 1390.5 371 1403Z" fill="#9B1C2E"/>
<path d="M508.5 1658.5L382.5 1457L489 1462.5L508.5 1658.5Z" fill="#761725"/>
<path d="M536.5 1578.5L454.5 1511.5L496.5 1453L545.5 1481.5L671 1386.5C676.5 1377.5 743 1314 746 1312C749 1310 755.5 1307 759.5 1305C763.5 1303 767.5 1303 774.5 1308C780.1 1312 775.833 1322.67 773 1327.5C774.333 1328.67 777.2 1332.7 778 1339.5C778.8 1346.3 773.333 1353.33 770.5 1356C771.333 1359.5 772.8 1367.8 772 1373C771.206 1378.16 764.77 1385.71 761.576 1388.92C761.857 1388.8 762.712 1389.57 764.5 1393.5C767 1399 754.5 1421.5 748.5 1425.5C743.7 1428.7 713.167 1432.83 698.5 1434.5L536.5 1578.5Z" fill="#AEAEAE"/>
<path d="M380.5 1455.5L454 1528L510.999 1452.5L441.999 1392.5C432.499 1384.5 403.9 1385.6 387.5 1402C371.1 1418.4 371.501 1447.5 380.5 1455.5Z" fill="#9B1C2E"/>
<path d="M484.501 1102L323.501 1231.5C313.5 1202 302.502 1137 357.501 1100C408.352 1065.79 462.834 1086.33 484.501 1102Z" fill="#7A7A7A"/>
<path d="M513.5 1078L485.5 1101.5L429.5 1146.5C441.5 1142.83 467.5 1131.5 484 1131.5C505.148 1131.5 518.5 1140.5 526 1147.5L567.5 1104C567.5 1104 560.928 1088.09 552.5 1082C540.092 1073.03 513.5 1078 513.5 1078Z" fill="#454545"/>
<path d="M440.5 1174C423.527 1180.69 414.667 1194 412.5 1201C417.833 1203.67 432.4 1208 448 1204C463.6 1200 472.5 1183.5 470.5 1174C468 1172 457 1167.5 440.5 1174Z" fill="white"/>
<path d="M467 1185C467 1191.08 462.075 1196 456 1196C449.925 1196 445 1191.08 445 1185C445 1178.92 449.925 1174 456 1174C462.075 1174 467 1178.92 467 1185Z" fill="black"/>
<path d="M511 1154.5C503.4 1158.5 500.833 1167.5 500.5 1171.5C504 1173 510.356 1173.82 516 1171.5C524.5 1168 525.5 1163.33 527 1159C524.333 1156 518.6 1150.5 511 1154.5Z" fill="white"/>
<path d="M525 1162.5C525 1166.09 522.09 1169 518.5 1169C514.91 1169 512 1166.09 512 1162.5C512 1158.91 514.91 1156 518.5 1156C522.09 1156 525 1158.91 525 1162.5Z" fill="black"/>
<path d="M507 1228.5C490.5 1232 479.5 1244.5 479.5 1245.5L529 1232.5C527.167 1230 520.2 1225.7 507 1228.5Z" fill="white"/>
<path d="M515.5 1281.5C502.7 1285.1 491.167 1274.67 487 1269C499 1275.5 510 1274.5 516.5 1272C522.113 1269.84 527 1264.5 528.5 1261C529.5 1266.33 528.3 1277.9 515.5 1281.5Z" fill="white"/>
<path d="M517.5 1246C512.413 1240.49 502 1240 496 1240L532.5 1235C532.667 1237.67 532.2 1245.6 529 1256C525 1269 518.5 1272 520.5 1270.5C522.5 1269 523.5 1252.5 517.5 1246Z" fill="black"/>
<path d="M693 1281.5L758 1241.5L757.57 1251.5M693 1281.5V1455.5M693 1281.5L701.5 1285.5M693 1455.5L750 1427.5L750.473 1416.5M693 1455.5L701.5 1443M757.57 1251.5L701.5 1285.5M757.57 1251.5L750.473 1416.5M701.5 1285.5V1443M701.5 1443L750.473 1416.5M520.5 1270.5C524.5 1269 525.5 1256 524 1248C522.8 1241.6 509.833 1238.33 503.5 1237.5L475.5 1248.5C476.5 1250.5 478.5 1265.24 498 1272.5C506.304 1275.59 516.5 1272 520.5 1270.5ZM520.5 1270.5C522.5 1269 523.5 1252.5 517.5 1246C512.413 1240.49 502 1240 496 1240L532.5 1235C532.667 1237.67 532.2 1245.6 529 1256C525 1269 518.5 1272 520.5 1270.5ZM497.5 1186C506 1190.33 516.5 1199.62 516.5 1209.5C516.5 1222 504.5 1224.5 500.5 1224.5M761.576 1388.92C761.857 1388.8 762.712 1389.57 764.5 1393.5C767 1399 754.5 1421.5 748.5 1425.5C743.7 1428.7 713.167 1432.83 698.5 1434.5L536.5 1578.5L454.5 1511.5L496.5 1453L545.5 1481.5L671 1386.5C676.5 1377.5 743 1314 746 1312C749 1310 755.5 1307 759.5 1305C763.5 1303 767.5 1303 774.5 1308C780.1 1312 775.833 1322.67 773 1327.5C774.333 1328.67 777.2 1332.7 778 1339.5C778.8 1346.3 773.333 1353.33 770.5 1356C771.333 1359.5 772.8 1367.8 772 1373C771.206 1378.16 764.77 1385.71 761.576 1388.92ZM761.576 1388.92C761.543 1388.94 761.518 1388.96 761.5 1389C761.525 1388.97 761.551 1388.95 761.576 1388.92ZM748 1432.5C748 1582.45 627.341 1704 478.5 1704C329.659 1704 209 1582.45 209 1432.5C209 1282.55 329.659 1161 478.5 1161C627.341 1161 748 1282.55 748 1432.5ZM412.5 1305.5L406.5 1337C418.167 1340.67 443.8 1346.9 453 1342.5C462.2 1338.1 467.5 1335 469 1334L481 1299.5L412.5 1305.5ZM737 1296C737 1300.42 734.538 1304 731.5 1304C728.462 1304 726 1300.42 726 1296C726 1291.58 728.462 1288 731.5 1288C734.538 1288 737 1291.58 737 1296ZM322.999 1214.5C325.832 1224.33 332.099 1244.6 334.499 1247C337.499 1250 309.499 1235.98 309.5 1260.5C309.501 1285.5 343.997 1308.5 365.499 1300.5C373.665 1308.83 396.997 1325.8 424.997 1327C451.979 1328.16 500.32 1316.1 523.485 1309.25C525.066 1308.78 526.293 1307.57 526.78 1306C533.614 1283.88 545.421 1238.36 543.497 1214.5C541.497 1189.7 523.33 1140.5 514.497 1119C465.497 1123.5 362.797 1139.4 343.997 1167C325.197 1194.6 322.165 1210.17 322.999 1214.5ZM407.5 1331C411.5 1332.33 422.5 1335.2 434.5 1336C446.5 1336.8 462.833 1334.33 469.5 1333L450 1390L393.5 1394L407.5 1331ZM296.5 1630.5L371 1403C375.833 1390.5 393.6 1365.8 426 1367C458.4 1368.2 478.5 1400.83 484.5 1417L511.5 1699C495.833 1703 453 1705 393 1687.5C349 1674.67 309 1642.5 296.5 1630.5ZM382.5 1457L508.5 1658.5L489 1462.5L382.5 1457ZM454 1528L380.5 1455.5C371.501 1447.5 371.1 1418.4 387.5 1402C403.9 1385.6 432.499 1384.5 441.999 1392.5L510.999 1452.5L454 1528ZM323.501 1231.5L484.501 1102C462.834 1086.33 408.352 1065.79 357.501 1100C302.502 1137 313.5 1202 323.501 1231.5ZM485.5 1101.5L513.5 1078C513.5 1078 540.092 1073.03 552.5 1082C560.928 1088.09 567.5 1104 567.5 1104L526 1147.5C518.5 1140.5 505.148 1131.5 484 1131.5C467.5 1131.5 441.5 1142.83 429.5 1146.5L485.5 1101.5ZM412.5 1201C414.667 1194 423.527 1180.69 440.5 1174C457 1167.5 468 1172 470.5 1174C472.5 1183.5 463.6 1200 448 1204C432.4 1208 417.833 1203.67 412.5 1201ZM467 1185C467 1191.08 462.075 1196 456 1196C449.925 1196 445 1191.08 445 1185C445 1178.92 449.925 1174 456 1174C462.075 1174 467 1178.92 467 1185ZM500.5 1171.5C500.833 1167.5 503.4 1158.5 511 1154.5C518.6 1150.5 524.333 1156 527 1159C525.5 1163.33 524.5 1168 516 1171.5C510.356 1173.82 504 1173 500.5 1171.5ZM525 1162.5C525 1166.09 522.09 1169 518.5 1169C514.91 1169 512 1166.09 512 1162.5C512 1158.91 514.91 1156 518.5 1156C522.09 1156 525 1158.91 525 1162.5ZM479.5 1245.5C479.5 1244.5 490.5 1232 507 1228.5C520.2 1225.7 527.167 1230 529 1232.5L479.5 1245.5ZM487 1269C491.167 1274.67 502.7 1285.1 515.5 1281.5C528.3 1277.9 529.5 1266.33 528.5 1261C527 1264.5 522.113 1269.84 516.5 1272C510 1274.5 499 1275.5 487 1269ZM475 1248.5C483.167 1244.67 502.3 1236.6 513.5 1235C524.7 1233.4 531.167 1233.67 533 1234C533 1246.17 529.204 1269.9 515 1273C487.5 1279 478 1259.5 475 1248.5Z" stroke="white" stroke-width="15" stroke-linecap="round"/>
<path d="M746.5 1432.5C746.5 1581.63 626.502 1702.5 478.5 1702.5C330.498 1702.5 210.5 1581.63 210.5 1432.5C210.5 1283.37 330.498 1162.5 478.5 1162.5C626.502 1162.5 746.5 1283.37 746.5 1432.5Z" fill="white" stroke="black" stroke-width="3"/>
<path d="M406.5 1337L412.5 1305.5L481 1299.5L469 1334C467.5 1335 462.2 1338.1 453 1342.5C443.8 1346.9 418.167 1340.67 406.5 1337Z" fill="white"/>
<path d="M693 1281.5L758 1241.5L757.57 1251.5L750.473 1416.5L750 1427.5L693 1455.5V1281.5Z" fill="#474E53"/>
<path d="M693 1281.5L758 1241.5L757.57 1251.5M693 1281.5V1455.5M693 1281.5L701.5 1285.5M693 1455.5L750 1427.5L750.473 1416.5M693 1455.5L701.5 1443M757.57 1251.5L701.5 1285.5M757.57 1251.5L750.473 1416.5M701.5 1285.5V1443M701.5 1443L750.473 1416.5" stroke="black" stroke-width="3"/>
<ellipse cx="731.5" cy="1296" rx="5.5" ry="8" fill="black"/>
<path d="M334.499 1247C332.099 1244.6 325.832 1224.33 322.999 1214.5C322.165 1210.17 325.197 1194.6 343.997 1167C362.797 1139.4 465.497 1123.5 514.497 1119C523.33 1140.5 541.497 1189.7 543.497 1214.5C545.421 1238.36 533.614 1283.88 526.78 1306C526.293 1307.57 525.066 1308.78 523.485 1309.25C500.32 1316.1 451.979 1328.16 424.997 1327C396.997 1325.8 373.665 1308.83 365.499 1300.5C343.997 1308.5 309.501 1285.5 309.5 1260.5C309.499 1235.98 337.499 1250 334.499 1247Z" fill="#AEAEAE"/>
<path d="M503.5 1237.5L475.5 1248.5C476.5 1250.5 478.5 1265.24 498 1272.5C506.304 1275.59 516.5 1272 520.5 1270.5C524.5 1269 525.5 1256 524 1248C522.8 1241.6 509.833 1238.33 503.5 1237.5Z" fill="#BCBCBC"/>
<path d="M497.5 1186C506 1190.33 516.5 1199.62 516.5 1209.5C516.5 1222 504.5 1224.5 500.5 1224.5" stroke="black" stroke-width="3" stroke-linecap="round"/>
<path d="M434.5 1336C422.5 1335.2 411.5 1332.33 407.5 1331L393.5 1394L450 1390L469.5 1333C462.833 1334.33 446.5 1336.8 434.5 1336Z" fill="#AEAEAE"/>
<path d="M371 1403L296.5 1630.5C309 1642.5 349 1674.67 393 1687.5C453 1705 495.833 1703 511.5 1699L484.5 1417C478.5 1400.83 458.4 1368.2 426 1367C393.6 1365.8 375.833 1390.5 371 1403Z" fill="#9B1C2E" stroke="black" stroke-width="3"/>
<path d="M508.5 1658.5L382.5 1457L489 1462.5L508.5 1658.5Z" fill="#761725"/>
<path d="M371 1403L296.5 1630.5C309 1642.5 349 1674.67 393 1687.5C453 1705 495.833 1703 511.5 1699L484.5 1417C478.5 1400.83 458.4 1368.2 426 1367C393.6 1365.8 375.833 1390.5 371 1403Z" stroke="black" stroke-width="3"/>
<path d="M536.5 1578.5L454.5 1511.5L496.5 1453L545.5 1481.5L671 1386.5C676.5 1377.5 743 1314 746 1312C749 1310 755.5 1307 759.5 1305C763.5 1303 767.5 1303 774.5 1308C780.1 1312 775.833 1322.67 773 1327.5C774.333 1328.67 777.2 1332.7 778 1339.5C778.8 1346.3 773.333 1353.33 770.5 1356C771.333 1359.5 772.8 1367.8 772 1373C771.206 1378.16 764.77 1385.71 761.576 1388.92C761.857 1388.8 762.712 1389.57 764.5 1393.5C767 1399 754.5 1421.5 748.5 1425.5C743.7 1428.7 713.167 1432.83 698.5 1434.5L536.5 1578.5Z" fill="#AEAEAE"/>
<path d="M380.5 1455.5L454 1528L510.999 1452.5L441.999 1392.5C432.499 1384.5 403.9 1385.6 387.5 1402C371.1 1418.4 371.501 1447.5 380.5 1455.5Z" fill="#9B1C2E" stroke="black" stroke-width="3"/>
<path d="M484.501 1102L323.501 1231.5C313.5 1202 302.502 1137 357.501 1100C408.352 1065.79 462.834 1086.33 484.501 1102Z" fill="#7A7A7A" stroke="black" stroke-width="3"/>
<path d="M513.5 1078L485.5 1101.5L429.5 1146.5C441.5 1142.83 467.5 1131.5 484 1131.5C505.148 1131.5 518.5 1140.5 526 1147.5L567.5 1104C567.5 1104 560.928 1088.09 552.5 1082C540.092 1073.03 513.5 1078 513.5 1078Z" fill="#454545" stroke="black" stroke-width="3"/>
<path d="M440.5 1174C423.527 1180.69 414.667 1194 412.5 1201C417.833 1203.67 432.4 1208 448 1204C463.6 1200 472.5 1183.5 470.5 1174C468 1172 457 1167.5 440.5 1174Z" fill="white" stroke="black" stroke-width="3"/>
<circle cx="456" cy="1185" r="11" fill="black"/>
<path d="M511 1154.5C503.4 1158.5 500.833 1167.5 500.5 1171.5C504 1173 510.356 1173.82 516 1171.5C524.5 1168 525.5 1163.33 527 1159C524.333 1156 518.6 1150.5 511 1154.5Z" fill="white" stroke="black" stroke-width="2.5"/>
<circle cx="518.5" cy="1162.5" r="6.5" fill="black"/>
<path d="M507 1228.5C490.5 1232 479.5 1244.5 479.5 1245.5L529 1232.5C527.167 1230 520.2 1225.7 507 1228.5Z" fill="white"/>
<path d="M515.5 1281.5C502.7 1285.1 491.167 1274.67 487 1269C499 1275.5 510 1274.5 516.5 1272C522.113 1269.84 527 1264.5 528.5 1261C529.5 1266.33 528.3 1277.9 515.5 1281.5Z" fill="white"/>
<path d="M513.5 1235C502.3 1236.6 483.167 1244.67 475 1248.5C478 1259.5 487.5 1279 515 1273C529.204 1269.9 533 1246.17 533 1234C531.167 1233.67 524.7 1233.4 513.5 1235Z" stroke="black" stroke-width="3" stroke-linecap="round"/>
<path d="M517.5 1246C512.413 1240.49 502 1240 496 1240L532.5 1235C532.667 1237.67 532.2 1245.6 529 1256C525 1269 518.5 1272 520.5 1270.5C522.5 1269 523.5 1252.5 517.5 1246Z" fill="black" stroke="black" stroke-width="3" stroke-linecap="round"/>
<path d="M673.427 373.26L553.77 520.296C547.753 527.69 536.006 525.898 532.467 517.046L464.084 345.963C460.546 337.111 467.821 327.715 477.277 328.924L665.317 352.971C675.041 354.215 679.615 365.657 673.427 373.26Z" stroke="#BDBCDC" stroke-width="15"/>
<path d="M602.934 555.235L611.054 639.672C611.967 649.162 602.348 656.139 593.611 652.325L518.053 619.344C509.316 615.53 507.892 603.733 515.471 597.95L582.909 546.494C590.702 540.548 601.996 545.477 602.934 555.235Z" stroke="#BDBCDC" stroke-width="15"/>
<path d="M674.863 247.996L641.805 295.004C636.321 302.802 624.477 301.838 620.327 293.256L596.009 242.974C591.859 234.392 598.457 224.509 607.974 225.052L665.35 228.326C675.137 228.884 680.502 239.977 674.863 247.996Z" stroke="#7E92B1" stroke-width="15"/>
<path d="M1459.14 1608.78L1371.06 1440.91C1366.63 1432.47 1372.91 1422.38 1382.44 1422.61L1566.62 1427.08C1576.15 1427.31 1581.93 1437.69 1577.1 1445.91L1480.98 1609.31C1476.01 1617.76 1463.69 1617.46 1459.14 1608.78Z" stroke="#7E92B1" stroke-width="15"/>
<path d="M1319.59 1472.36L1238.78 1446.59C1229.69 1443.69 1227.06 1432.11 1234.01 1425.58L1294.07 1369.1C1301.01 1362.56 1312.42 1365.9 1314.75 1375.14L1335.51 1457.39C1337.91 1466.89 1328.93 1475.34 1319.59 1472.36Z" stroke="#B9BADA" stroke-width="15"/>
<path d="M1573.73 1659.4L1543.53 1610.51C1538.52 1602.4 1544.06 1591.89 1553.59 1591.45L1609.38 1588.89C1618.9 1588.45 1625.39 1598.4 1621.15 1606.94L1595.56 1658.4C1591.19 1667.17 1578.88 1667.74 1573.73 1659.4Z" stroke="#BABADA" stroke-width="15"/>
<path d="M1555 1025.36C1536.55 1051.13 1525.44 1081.41 1522.86 1112.99C1520.27 1144.57 1526.32 1176.26 1540.34 1204.68C1554.36 1233.1 1575.83 1257.17 1602.47 1274.33C1629.1 1291.5 1659.9 1301.11 1691.57 1302.14C1723.24 1303.17 1754.59 1295.58 1782.29 1280.18C1809.98 1264.78 1832.97 1242.15 1848.81 1214.7C1864.64 1187.26 1872.73 1156.03 1872.2 1124.34C1871.68 1092.66 1862.56 1061.72 1845.82 1034.81L1810.48 1056.8C1823.24 1077.3 1830.19 1100.89 1830.59 1125.04C1830.99 1149.18 1824.83 1172.98 1812.76 1193.9C1800.69 1214.82 1783.17 1232.07 1762.06 1243.8C1740.96 1255.54 1717.06 1261.33 1692.92 1260.54C1668.78 1259.76 1645.31 1252.43 1625.01 1239.35C1604.71 1226.27 1588.35 1207.92 1577.66 1186.26C1566.97 1164.61 1562.37 1140.45 1564.34 1116.38C1566.3 1092.32 1574.77 1069.23 1588.83 1049.6L1555 1025.36Z" fill="#BBBBDB"/>
<path d="M1601.82 1202.15C1613.96 1217.52 1629.64 1229.72 1647.52 1237.73C1665.4 1245.73 1684.95 1249.3 1704.5 1248.13C1724.06 1246.95 1743.04 1241.07 1759.83 1230.98C1776.62 1220.89 1790.72 1206.89 1800.94 1190.17C1811.16 1173.46 1817.18 1154.52 1818.5 1134.98C1819.83 1115.43 1816.41 1095.86 1808.54 1077.92C1800.66 1059.98 1788.57 1044.21 1773.3 1031.95C1758.02 1019.69 1740 1011.3 1720.79 1007.5L1711.75 1053.19C1723.61 1055.53 1734.72 1060.71 1744.15 1068.27C1753.57 1075.84 1761.03 1085.57 1765.89 1096.63C1770.74 1107.7 1772.85 1119.78 1772.04 1131.83C1771.22 1143.89 1767.5 1155.57 1761.2 1165.88C1754.9 1176.2 1746.2 1184.83 1735.84 1191.06C1725.48 1197.28 1713.77 1200.91 1701.71 1201.64C1689.64 1202.36 1677.58 1200.16 1666.55 1195.22C1655.52 1190.28 1645.85 1182.75 1638.36 1173.27L1601.82 1202.15Z" fill="#B8B9D9"/>
<path d="M1651.72 1078.14C1643.62 1085.51 1637.47 1094.77 1633.8 1105.08C1630.14 1115.4 1629.07 1126.47 1630.71 1137.3C1632.34 1148.12 1636.62 1158.38 1643.16 1167.16C1649.7 1175.94 1658.31 1182.98 1668.22 1187.63C1678.13 1192.29 1689.04 1194.44 1699.98 1193.87C1710.91 1193.31 1721.54 1190.06 1730.92 1184.41C1740.3 1178.75 1748.14 1170.88 1753.75 1161.47C1759.36 1152.06 1762.56 1141.42 1763.07 1130.48L1737.59 1129.29C1737.27 1136.04 1735.3 1142.6 1731.84 1148.41C1728.38 1154.21 1723.54 1159.07 1717.76 1162.56C1711.97 1166.04 1705.41 1168.05 1698.66 1168.4C1691.92 1168.74 1685.19 1167.42 1679.08 1164.55C1672.96 1161.67 1667.65 1157.34 1663.61 1151.92C1659.58 1146.5 1656.94 1140.17 1655.93 1133.49C1654.92 1126.81 1655.58 1119.99 1657.84 1113.62C1660.1 1107.26 1663.9 1101.55 1668.89 1097L1651.72 1078.14Z" fill="#7E92B1"/>
<path d="M235.705 808.332L393.798 758.118" stroke="white" stroke-width="10"/>
<path d="M303.975 1035.19L515.401 968.054" stroke="white" stroke-width="10"/>
<path d="M363.177 1052.75L479.078 1016.02" stroke="white" stroke-width="10"/>
<path d="M250.502 769.064L366.403 732.331" stroke="white" stroke-width="10"/>
<path d="M204.307 850.621L441.192 775.977" stroke="white" stroke-width="10"/>
<path d="M188.488 892.597L481.459 800.43" stroke="white" stroke-width="10"/>
<path d="M244.843 1022.08L537.814 929.911" stroke="white" stroke-width="10"/>
<path d="M164.369 936.083L532.913 819.819" stroke="white" stroke-width="10"/>
<path d="M193.393 1002.69L561.937 886.425" stroke="white" stroke-width="10"/>
<path d="M156.008 974.684L544.038 851.846" stroke="white" stroke-width="10"/>
<rect x="1499" y="699" width="336" height="51.1538" rx="25.5769" fill="#D1CFE7"/>
<rect x="1559" y="761.846" width="336" height="51.1538" rx="25.5769" fill="#D1CFE7"/>
<path d="M1595.51 757.97C1593.94 750.794 1579.69 750.478 1569 748.76L1820.43 746.501C1815.02 746.597 1801.43 753.985 1801.43 757.97C1801.43 770.856 1839.94 765.033 1820.54 768.423H1584.09C1586.55 767.134 1597.2 765.707 1595.51 757.97Z" fill="#D1CFE7"/>
<rect width="266.424" height="26.5628" rx="13.2814" transform="matrix(-1 0 0 1 1760 861)" fill="#D1CFE7"/>
<rect width="266.424" height="26.5628" rx="13.2814" transform="matrix(-1 0 0 1 1712.42 893.634)" fill="#D1CFE7"/>
<path d="M1683.47 891.621C1684.72 887.895 1696.02 887.731 1704.49 886.839L1505.12 885.666C1509.42 885.716 1520.2 889.552 1520.2 891.621C1520.2 898.313 1489.66 895.289 1505.04 897.049H1692.53C1690.57 896.38 1682.13 895.639 1683.47 891.621Z" fill="#D1CFE7"/>
<rect width="266.424" height="43.5256" rx="21.7628" transform="matrix(-1 0 0 1 792 1667)" fill="#D1CFE7"/>
<rect width="266.424" height="43.5256" rx="21.7628" transform="matrix(-1 0 0 1 744.422 1720.47)" fill="#D1CFE7"/>
<path d="M715.472 1717.18C716.718 1711.07 728.019 1710.8 736.492 1709.34L537.123 1707.42C541.418 1707.5 552.195 1713.79 552.195 1717.18C552.195 1728.14 521.659 1723.19 537.039 1726.07H724.53C722.574 1724.97 714.128 1723.76 715.472 1717.18Z" fill="#D1CFE7"/>
<defs>
<linearGradient id="paint0_linear_1106_45" x1="1051.5" y1="66" x2="1051.5" y2="1903.89" gradientUnits="userSpaceOnUse">
<stop stop-color="#EEEEEE"/>
<stop offset="1" stop-color="#B9B9B9"/>
</linearGradient>
</defs>
</svg>
