<svg width="2000" height="2000" viewBox="0 0 2000 2000" fill="none" xmlns="http://www.w3.org/2000/svg">
<circle cx="1135" cy="391" r="206" fill="#FF9767"/>
<path d="M1124.76 181.566C1050.7 175.964 964.791 242.334 951.428 280.957C945.634 297.704 961.709 316.135 984.985 311.503C1009.58 306.609 1018.69 296.477 1047.28 281.74C1058.97 273.335 1093.7 259.509 1101.48 263.597C1119.62 273.14 1076.78 299.238 1102.47 310.764C1128.17 322.291 1162.03 280.552 1179.12 270.686C1196.22 260.821 1222.95 298.693 1246.76 306.252C1270.57 313.811 1244.7 272.421 1257.3 271.107C1267.38 270.056 1280.04 303.257 1293.56 322.925C1314.93 354.008 1340.48 372.604 1358.21 350.965C1375.94 329.326 1328.52 265.885 1260.72 219.315C1210.18 192.743 1198.83 187.168 1124.76 181.566Z" fill="#A85F43"/>
<path d="M1014.46 214.866C1049.81 190.978 1083.72 184.131 1096.25 182.947C1096.25 182.947 1061.38 206.789 1036.23 226.312C1011.08 245.835 1003.72 256.253 1007.88 267.968C1012.04 279.683 1081.3 257.613 1092.25 259.437C1103.2 261.261 1102.83 264.803 1101.09 263.392C1099.35 261.982 1083.37 264.994 1077.03 267.615C1062.64 273.565 1030.99 290.377 1017.85 299.014C994.169 313.852 963.613 319.12 952.826 299.058C940.012 275.227 969.047 245.564 1014.46 214.866Z" fill="#8B4E36"/>
<path d="M1101.69 282.067C1104.14 277.403 1109.76 271.428 1102.25 264.005C1102.25 264.005 1114.86 272.121 1116.11 278.237C1117.36 284.352 1109.12 292.906 1112.33 299.572C1115.53 306.238 1168.59 276.561 1172.97 273.9C1177.34 271.239 1176.93 272.017 1179.72 270.502C1182.5 268.987 1168.61 278.71 1165.54 281.409C1158.14 287.937 1153.39 291.58 1146.16 297.514C1129.37 311.511 1109.31 317.908 1097.24 307.514C1088.36 299.867 1099.02 287.135 1101.69 282.067Z" fill="#8B4E36"/>
<path d="M1276.25 228.473C1193.79 177.674 1172.12 187.446 1148.49 183.623C1171.32 191.162 1230.29 220.987 1258.33 239.893C1285.07 257.924 1335.71 292.16 1349.13 305.007C1342.81 297.216 1323.18 257.392 1276.25 228.473Z" fill="#FBA686"/>
<ellipse cx="1243.11" cy="234.867" rx="47.8701" ry="14.9319" transform="rotate(27.7373 1243.11 234.867)" fill="#FBA686"/>
<circle cx="1489" cy="547" r="261" fill="#FFAF67"/>
<path d="M1465 258C1575 258 1602.65 286.699 1662 340C1699.73 373.883 1714.3 400.655 1737 446C1788.22 548.312 1759.95 623.12 1771 737C1775.7 785.388 1826.8 842.6 1782 861C1737.2 879.4 1708 758 1708 758C1708 758 1682 787 1668 750C1662.33 735.016 1647.34 581.333 1637 504C1636.34 516 1624.4 539.6 1582 538C1539.6 536.4 1529 449.333 1529 406C1526.34 426 1511.2 466.2 1472 467C1432.8 467.8 1427.67 371.333 1430 323C1412.34 328.667 1388.8 353.6 1364 340C1333 323 1382.03 258 1465 258Z" fill="#A85F43"/>
<ellipse cx="1787" cy="956" rx="37" ry="50" transform="rotate(-11.9732 1787 956)" fill="#A85F43"/>
<path d="M426.131 273.681L466.917 183.746L540.923 313.432L544.019 258.75L594.536 345.399L596.659 314.521C602.899 323.766 617.402 347.67 625.495 369.32C633.588 390.97 639.536 437.685 641.498 458.337L663.592 443.055C680.526 497.368 692.823 562.111 657.546 622.88C635.835 660.28 586.704 691.655 575.78 698.631L575.469 698.83C543.844 717.643 462.61 741.738 390.677 687.618C318.743 633.498 300.566 526.022 300.469 479.049L331.289 497.138C327.089 487.256 324.192 458.223 325.542 441.016C326.892 423.808 342.002 368.177 353.71 348.3L372.628 365.903L406.934 244.414L426.131 273.681Z" fill="url(#paint0_linear_4_249)"/>
<path d="M486.946 546.811C491.304 615.575 495.519 665.842 503.183 714.652C502.588 649.929 501.75 576.749 499.086 548.061C491.967 471.383 483.575 390.625 474.353 361.046C470.837 376.691 482.877 482.611 486.946 546.811Z" fill="#81BD64"/>
<path d="M709.635 214.634L733.798 152.268L788.77 237.152L788.785 200.057L826.238 256.731L826.501 235.77C831.072 241.785 841.787 257.398 848.083 271.73C854.378 286.062 860.175 317.426 862.286 331.316L876.646 320.143C890.161 356.227 900.937 399.54 879.391 441.973C866.131 468.089 834.1 491.172 826.978 496.304L826.775 496.451C806.105 510.374 752.089 529.755 701.39 495.891C650.69 462.028 634.315 390.042 632.465 358.282L653.993 369.343C650.777 362.82 647.715 343.297 647.974 331.61C648.233 319.923 656.337 281.73 663.499 267.844L676.96 279.028L695.542 195.572L709.635 214.634Z" fill="url(#paint1_linear_4_249)"/>
<path d="M761.138 397.017C766.698 443.351 771.459 477.182 778.496 509.897C775.634 466.152 772.286 416.699 769.395 397.401C761.667 345.821 752.923 291.53 745.563 271.879C743.78 282.591 755.947 353.759 761.138 397.017Z" fill="#81BD64"/>
<path d="M989 1716C1375.6 1716 1689 1402.6 1689 1016C1689 629.401 1375.6 316 989 316C602.401 316 289 629.401 289 1016C289 1402.6 602.401 1716 989 1716Z" fill="#CC7915"/>
<path d="M1574.33 1161.01L1575.89 1154.79H1575.85C1650.67 842.309 1458.57 527.435 1144.28 449.562C827.987 371.175 507.535 562.534 428.687 877.054C349.767 1191.53 542.343 1510.04 858.609 1588.43L859.812 1583.58L858.609 1588.43C1175 1666.84 1495.45 1475.49 1574.33 1161.01Z" fill="#F7931A" stroke="#FFBA67" stroke-width="10"/>
<path d="M1261.14 931.941C1272.95 852.959 1212.82 810.503 1130.6 782.181L1157.27 675.193L1092.14 658.965L1066.18 763.136C1049.06 758.866 1031.47 754.842 1014 750.853L1040.15 645.995L975.067 629.767L948.378 736.72C934.209 733.494 920.293 730.306 906.792 726.947L906.868 726.61L817.056 704.183L799.732 773.742C799.732 773.742 848.05 784.818 847.032 785.5C873.405 792.082 878.174 809.54 877.382 823.378L846.997 945.262C848.813 945.723 851.169 946.391 853.768 947.435C851.595 946.895 849.283 946.307 846.884 945.732L804.295 1116.47C801.072 1124.49 792.891 1136.51 774.453 1131.95C775.105 1132.89 727.117 1120.13 727.117 1120.13L694.783 1194.68L779.535 1215.81C795.302 1219.76 810.753 1223.9 825.968 1227.79L799.018 1336.01L864.07 1352.23L890.758 1245.17C908.53 1249.99 925.776 1254.44 942.66 1258.64L916.061 1365.2L981.19 1381.43L1008.14 1273.41C1119.19 1294.43 1202.7 1285.96 1237.85 1185.51C1266.17 1104.64 1236.44 1057.99 1178.01 1027.57C1220.56 1017.75 1252.62 989.766 1261.16 931.95L1261.14 931.935L1261.14 931.941ZM1112.34 1140.6C1092.21 1221.47 956.048 1177.75 911.901 1166.79L947.664 1023.42C991.808 1034.44 1133.38 1056.25 1112.34 1140.6H1112.34ZM1132.48 930.769C1114.12 1004.33 1000.79 966.959 964.025 957.794L996.45 827.77C1033.21 836.934 1151.61 854.038 1132.49 930.769H1132.48Z" fill="white"/>
<g style="mix-blend-mode:multiply" opacity="0.5">
<path d="M1376 1585C1397.87 1569.16 920.931 1613 700 1277C508 985 584 561 632 417C584 437 289 629.401 289 1016C248 1489 868 1953 1376 1585Z" fill="#CC7915"/>
</g>
<path d="M477.239 1120.21C428.181 1152.42 369.436 1163.14 313.925 1150.02C258.415 1136.9 210.686 1101.01 181.24 1050.25C151.794 999.482 143.042 938.004 156.909 879.335C170.776 820.666 206.126 769.612 255.184 737.405L366.211 928.806L477.239 1120.21Z" fill="url(#paint2_linear_4_249)"/>
<path d="M454.056 1081.26C413.952 1104.66 366.195 1111.17 321.293 1099.35C276.391 1087.54 238.021 1058.37 214.624 1018.27C191.227 978.162 184.72 930.406 196.535 885.503C208.349 840.601 237.516 802.231 277.621 778.834L365.839 930.049L454.056 1081.26Z" fill="#FFC380"/>
<path d="M325.36 894.942C325.36 894.942 282.544 876.107 260.214 859.119C237.884 842.131 243.374 834.898 244.496 833.423C245.618 831.948 252.105 823.439 274.435 840.426C296.765 857.414 325.36 894.942 325.36 894.942Z" fill="#FEFFBA"/>
<path d="M371.375 980.56C371.375 980.56 398.422 1018.72 408.844 1044.77C419.267 1070.82 410.841 1074.21 409.12 1074.89C407.399 1075.58 397.461 1079.55 387.038 1053.5C376.615 1027.45 371.375 980.56 371.375 980.56Z" fill="#FEFFBA"/>
<path d="M333.263 908.632C333.263 908.632 276.813 911.075 243.005 905.914C209.198 900.753 210.556 891.774 210.836 889.942C211.116 888.11 212.743 877.534 246.55 882.696C280.357 887.857 333.263 908.632 333.263 908.632Z" fill="#FEFFBA"/>
<path d="M359.274 962.806C359.274 962.806 365.994 1018.91 363.414 1053.01C360.833 1087.11 351.778 1086.44 349.93 1086.3C348.082 1086.16 337.413 1085.34 339.994 1051.24C342.574 1017.14 359.274 962.806 359.274 962.806Z" fill="#FEFFBA"/>
<path d="M342.256 929.747C342.256 929.747 286.784 951.695 251.272 958.615C215.76 965.535 214.01 956.625 213.655 954.806C213.301 952.987 211.267 942.482 246.779 935.562C282.291 928.642 342.256 929.747 342.256 929.747Z" fill="#FEFFBA"/>
<path d="M351.257 952.231C351.257 952.231 311.452 996.666 292.659 1027.58C273.866 1058.5 281.618 1063.23 283.202 1064.19C284.786 1065.15 293.936 1070.7 312.729 1039.78C331.522 1008.87 351.257 952.231 351.257 952.231Z" fill="#FEFFBA"/>
<path d="M342.493 942.125C342.493 942.125 301.703 981.225 272.903 999.666C244.102 1018.11 239.195 1010.47 238.195 1008.91C237.196 1007.34 231.437 998.327 260.238 979.886C289.039 961.445 342.493 942.125 342.493 942.125Z" fill="#FEFFBA"/>
<path d="M501.909 992.33C544.693 991.24 585.217 1007.19 614.567 1036.67C643.917 1066.14 659.688 1106.74 658.411 1149.52C657.135 1192.29 638.915 1233.75 607.759 1264.77C576.604 1295.79 535.066 1313.83 492.282 1314.92L497.096 1153.63L501.909 992.33Z" fill="url(#paint3_linear_4_249)"/>
<path d="M501.296 1025.38C535.144 1026.3 567.237 1040.64 590.516 1065.23C613.795 1089.81 626.353 1122.64 625.427 1156.49C624.501 1190.34 610.167 1222.43 585.578 1245.71C560.989 1268.99 528.16 1281.55 494.312 1280.62L497.804 1153L501.296 1025.38Z" fill="#FFC380"/>
<path d="M509.384 1190.32C509.384 1190.32 528.671 1218.46 535.974 1237.57C543.277 1256.68 537.094 1259.06 535.831 1259.54C534.569 1260.02 527.277 1262.8 519.974 1243.68C512.67 1224.57 509.384 1190.32 509.384 1190.32Z" fill="#FEFFBA"/>
<path d="M513.799 1119.57C513.799 1119.57 511.717 1085.52 515.277 1065.37C518.837 1045.23 525.359 1046.37 526.69 1046.61C528.021 1046.84 535.704 1048.21 532.144 1068.35C528.585 1088.5 513.799 1119.57 513.799 1119.57Z" fill="#FEFFBA"/>
<path d="M509.753 1178.8C509.753 1178.8 545.67 1198.99 564.633 1215.19C583.596 1231.39 579.302 1236.43 578.424 1237.46C577.546 1238.49 572.471 1244.42 553.508 1228.22C534.545 1212.02 509.753 1178.8 509.753 1178.8Z" fill="#FEFFBA"/>
<path d="M514.469 1135.23C514.469 1135.23 531.881 1097.88 546.594 1077.74C561.308 1057.61 566.66 1061.5 567.752 1062.3C568.843 1063.1 575.138 1067.71 560.425 1087.85C545.711 1107.99 514.469 1135.23 514.469 1135.23Z" fill="#FEFFBA"/>
<path d="M512.301 1162.26C512.301 1162.26 555.114 1169.99 579.779 1179.36C604.445 1188.73 602.102 1194.92 601.622 1196.19C601.143 1197.45 598.363 1204.74 573.697 1195.37C549.032 1186 512.301 1162.26 512.301 1162.26Z" fill="#FEFFBA"/>
<path d="M515.371 1144.86C515.371 1144.86 557.124 1132.64 580.658 1120.71C604.192 1108.78 601.207 1102.87 600.596 1101.66C599.985 1100.46 596.448 1093.5 572.914 1105.43C549.379 1117.36 515.371 1144.86 515.371 1144.86Z" fill="#FEFFBA"/>
<path d="M516.914 1154.5C516.914 1154.5 557.225 1145.96 582.163 1145.6C607.101 1145.25 607.203 1151.88 607.222 1153.23C607.241 1154.58 607.341 1162.38 582.404 1162.73C557.466 1163.08 516.914 1154.5 516.914 1154.5Z" fill="#FEFFBA"/>
<path d="M326 1305C394.829 1250.92 660 1473.67 804 1607C784 1559 728 1475.4 768 1453C818 1425 1107.13 1663.99 1266 1639C1444 1611 1674 998.999 1836 1103C1862.93 1120.29 1742 1307 1772 1323C1802 1339 1830.74 1149 1898 1169C1952.9 1185.32 1950 1323 1822 1453C1650.68 1627 1618 1621 1512 1639C1387.72 1660.1 1244 1821 1050 1821C944.776 1821 872 1797 804 1749C749.6 1710.6 538 1639 448 1567C373.932 1507.74 214 1393 326 1305Z" fill="url(#paint4_linear_4_249)"/>
<ellipse cx="482.594" cy="1692.46" rx="122.5" ry="65" transform="rotate(29.9328 482.594 1692.46)" fill="url(#paint5_linear_4_249)"/>
<path d="M1739 1631C1803.17 1701 1614.9 1761.89 1559 1800C1503.1 1838.11 1284 1906 1284 1834.42C1284 1793 1431.1 1765.11 1487 1727C1542.9 1688.89 1684 1571 1739 1631Z" fill="url(#paint6_linear_4_249)"/>
<ellipse cx="285.443" cy="1575.46" rx="63.8074" ry="58.4128" transform="rotate(29.9328 285.443 1575.46)" fill="url(#paint7_linear_4_249)"/>
<path d="M905.308 1507.65C890.724 1499.03 877.476 1490.72 866 1483C880.318 1490.73 893.271 1499.02 905.308 1507.65C1022.9 1577.12 1227.37 1666.59 1290 1631C1408 1563.95 1468 1441 1646 1203C1578 1371 1452 1675 1274 1675C1042.15 1675 1005.36 1579.39 905.308 1507.65Z" fill="#FFDA99"/>
<ellipse cx="1516.48" cy="1486.65" rx="49.7926" ry="116" transform="rotate(36.9135 1516.48 1486.65)" fill="#FFDA99"/>
<ellipse cx="466.218" cy="1405.58" rx="42.1203" ry="98.1261" transform="rotate(125.818 466.218 1405.58)" fill="#FFDA99"/>
<ellipse cx="606.521" cy="1486.09" rx="42.1203" ry="23.1971" transform="rotate(37.6354 606.521 1486.09)" fill="#FFDA99"/>
<path d="M1392 312C1372.8 312 1404 284 1416.5 266C1393.5 274 1330.5 304.5 1362 341.5C1376.05 358 1414.5 333.5 1430.5 324.5C1423 376 1430.84 473.338 1476 467C1504.5 463 1526.5 430.5 1529.5 407.5C1529.5 454.5 1522.07 537.203 1596.5 544.5C1622 547 1636.33 514.333 1638 504.5C1648.5 592 1650 757.5 1680 772C1689.23 776.462 1703.5 763.333 1708.5 757C1719 837.5 1760.31 885.255 1792 858C1817 836.5 1785 785 1777 767C1770.6 752.6 1768.33 711 1768 692C1765 722.667 1756 785.4 1744 791C1729 798 1718 693 1703 714C1691 730.8 1662 539 1649 441C1642 458.667 1621.2 496.8 1594 508C1566.8 519.2 1546.67 414.667 1540 361C1526.67 374 1495.2 404 1476 420C1456.8 436 1450 347.333 1449 301C1438 304.667 1411.2 312 1392 312Z" fill="#8B4E36"/>
<path d="M1705 382.5C1669 324.9 1611 292 1578 277C1596.67 305 1655.83 353.017 1676 382.5C1742.37 479.5 1746.83 526.667 1768.5 579C1772.5 512.5 1760.94 472 1705 382.5Z" fill="#FBA686"/>
<ellipse cx="1658.45" cy="382.039" rx="26.2848" ry="57" transform="rotate(-39.3016 1658.45 382.039)" fill="#FBA686"/>
<defs>
<linearGradient id="paint0_linear_4_249" x1="395.675" y1="205.958" x2="552.732" y2="709.707" gradientUnits="userSpaceOnUse">
<stop stop-color="#579262"/>
<stop offset="1" stop-color="#2B6736"/>
</linearGradient>
<linearGradient id="paint1_linear_4_249" x1="686.466" y1="169.995" x2="811.814" y2="504.67" gradientUnits="userSpaceOnUse">
<stop stop-color="#579262"/>
<stop offset="1" stop-color="#2B6736"/>
</linearGradient>
<linearGradient id="paint2_linear_4_249" x1="242.772" y1="881.845" x2="461.499" y2="1120.47" gradientUnits="userSpaceOnUse">
<stop stop-color="#FFB25E"/>
<stop offset="1" stop-color="#DC660D"/>
</linearGradient>
<linearGradient id="paint3_linear_4_249" x1="555.521" y1="1230.2" x2="511.764" y2="998.219" gradientUnits="userSpaceOnUse">
<stop stop-color="#FFB25E"/>
<stop offset="1" stop-color="#DC660D"/>
</linearGradient>
<linearGradient id="paint4_linear_4_249" x1="490" y1="1517" x2="1698" y2="1319" gradientUnits="userSpaceOnUse">
<stop stop-color="#FFBF51"/>
<stop offset="1" stop-color="#F18748"/>
</linearGradient>
<linearGradient id="paint5_linear_4_249" x1="338.492" y1="1699.9" x2="652.997" y2="1684.97" gradientUnits="userSpaceOnUse">
<stop stop-color="#FFBF52"/>
<stop offset="1" stop-color="#F28849"/>
</linearGradient>
<linearGradient id="paint6_linear_4_249" x1="1295.95" y1="1868.02" x2="1547.42" y2="1678.54" gradientUnits="userSpaceOnUse">
<stop stop-color="#FFBF52"/>
<stop offset="1" stop-color="#F28849"/>
</linearGradient>
<linearGradient id="paint7_linear_4_249" x1="210.384" y1="1582.15" x2="374.447" y2="1577.64" gradientUnits="userSpaceOnUse">
<stop stop-color="#FFBF52"/>
<stop offset="1" stop-color="#F28849"/>
</linearGradient>
</defs>
</svg>
