<svg width="2000" height="2000" viewBox="0 0 2000 2000" fill="none" xmlns="http://www.w3.org/2000/svg">
<defs>
<filter id="filter0_d_13_252" x="197.113" y="790.634" width="126.064" height="179.471" filterUnits="userSpaceOnUse" color-interpolation-filters="sRGB">
<feFlood flood-opacity="0" result="BackgroundImageFix"/>
<feColorMatrix in="SourceAlpha" type="matrix" values="0 0 0 0 0 0 0 0 0 0 0 0 0 0 0 0 0 0 127 0" result="hardAlpha"/>
<feOffset dx="2"/>
<feGaussianBlur stdDeviation="4"/>
<feComposite in2="hardAlpha" operator="out"/>
<feColorMatrix type="matrix" values="0 0 0 0 0 0 0 0 0 0 0 0 0 0 0 0 0 0 0.25 0"/>
<feBlend mode="normal" in2="BackgroundImageFix" result="effect1_dropShadow_13_252"/>
<feBlend mode="normal" in="SourceGraphic" in2="effect1_dropShadow_13_252" result="shape"/>
</filter>
<linearGradient id="paint0_linear_13_252" x1="1487.56" y1="1091.81" x2="920.091" y2="1908.58" gradientUnits="userSpaceOnUse">
<stop stop-color="#E8C150"/>
<stop offset="0.732292" stop-color="#E4BE51"/>
<stop offset="1" stop-color="#E7A150"/>
</linearGradient>
<linearGradient id="paint1_linear_13_252" x1="320.121" y1="1013.44" x2="320.121" y2="1501.44" gradientUnits="userSpaceOnUse">
<stop stop-color="#B47625" stop-opacity="0"/>
<stop offset="1" stop-color="#78511E"/>
</linearGradient>
<linearGradient id="paint2_linear_13_252" x1="570.389" y1="1505.11" x2="534.537" y2="1563.31" gradientUnits="userSpaceOnUse">
<stop stop-color="#B68932"/>
<stop offset="1" stop-color="#ECCC5B"/>
</linearGradient>
<linearGradient id="paint3_linear_13_252" x1="1417.39" y1="671.115" x2="1381.54" y2="729.312" gradientUnits="userSpaceOnUse">
<stop stop-color="#B68932"/>
<stop offset="1" stop-color="#ECCC5B"/>
</linearGradient>
<linearGradient id="paint4_linear_13_252" x1="1676.93" y1="784.128" x2="1716.92" y2="875.034" gradientUnits="userSpaceOnUse">
<stop stop-color="#B68932"/>
<stop offset="1" stop-color="#ECCC5B"/>
</linearGradient>
<clipPath id="clip0_13_252">
<rect width="2000" height="2000" fill="white"/>
</clipPath>
</defs>
<g clip-path="url(#clip0_13_252)">
<circle cx="281.699" cy="281.699" r="281.699" transform="matrix(-0.871774 0.489908 0.489908 0.871774 1246.19 69.6837)" fill="#E8C251"/>
<path d="M1184.58 134.467C1030.63 98.1908 806.942 303.196 927.523 313.39C965.143 316.57 973.529 284.089 1014.29 264.628C1065.25 240.301 1076.86 375.956 1150.53 334.554C1191.46 311.553 1117.91 303.339 1126.22 249.123C1132.86 205.75 1183.4 266.537 1207.83 302.353C1228.45 328.823 1288.8 446.425 1348.34 425.887C1407.89 405.348 1281.57 349.236 1313.91 322.447C1346.25 295.657 1443.04 506.231 1475.38 479.442C1507.72 452.652 1416.48 409.137 1441.04 395.336C1465.6 381.536 1561.5 521.522 1642.52 527.693C1723.54 533.864 1619.01 493.515 1493.43 365.895C1367.86 238.274 1351.01 173.685 1184.58 134.467Z" fill="#B68932"/>
<path d="M1002.45 210.965C977.493 195.692 1087.01 151.238 1145.7 130.461C1132.86 127.088 1090.77 128.157 1018.63 163.095C928.461 206.766 891.938 273.068 886.208 276.288C880.478 279.508 903.354 313.507 928.237 319.451C953.119 325.394 998.354 275.051 1019.92 267.928C1059.44 254.875 1086.4 377.596 1153.14 336.319C1186.57 315.643 1144.66 294.03 1138.12 286.595C1123.22 269.658 1122.79 247.817 1138.01 236.57C1159.32 220.824 1246.68 366.689 1268.97 392.938C1291.26 419.188 1319.31 440.092 1358.86 421.594C1387.43 408.229 1330.75 361.992 1319.04 345.951C1315.26 340.767 1316.49 322.251 1321.15 319.993C1307.56 317.217 1280.8 314.125 1280.3 331.639C1279.68 353.531 1237.96 290.804 1203.2 250.023C1168.43 209.242 1126.34 196.885 1094.26 222.92C1081.31 233.426 1089.79 260.974 1062.33 240.861C1034.87 220.748 1033.64 230.057 1002.45 210.965Z" fill="#A37035"/>
<path d="M1393.66 254.473C1331.31 186.648 1260.53 148.87 1223.34 144.994C1245.74 164.721 1311.47 215.566 1338.27 239.285C1363.56 261.674 1476.57 355.055 1537.57 408.609C1542.14 413.006 1545.65 416.135 1547.86 417.706C1544.63 414.83 1541.19 411.79 1537.57 408.609C1510.12 382.165 1444.55 309.839 1393.66 254.473Z" fill="#D9A237"/>
<ellipse cx="15.4935" cy="49.2974" rx="15.4935" ry="49.2974" transform="matrix(-0.685023 0.728521 0.728521 0.685023 1295.85 191.495)" fill="#D9A237"/>
<circle cx="281.699" cy="281.699" r="281.699" transform="matrix(-0.871774 0.489908 0.489908 0.871774 822.518 122.474)" fill="#FDE55C"/>
<path d="M899.13 272.223C922.954 250.218 853.116 214.617 811.589 200.782C715.07 168.625 642.172 186.155 553.469 235.971C415.639 313.377 277.948 554.526 314.655 600.679C351.362 646.831 469.677 389.694 517.194 389.919C532.22 389.99 515.191 409.355 534.309 439.541C553.427 469.728 632.093 349.046 646.936 325.625C661.779 302.204 723.249 338.749 807.447 323.746C887.719 309.443 785.163 280.259 795.811 257.041C806.46 233.823 869.349 299.73 899.13 272.223Z" fill="#E4BD52"/>
<path d="M903.225 269.922C930.53 243.376 836.158 207.44 785.559 192.791C802.298 202.772 829.466 219.172 827.333 230.71C824.667 245.134 762.124 212.423 742.119 224.742C722.114 237.062 759.877 265.926 763.347 285.518C766.818 305.11 686.261 271.807 655.138 286.548C618.558 303.873 575.253 382.065 554.789 393.565C534.324 405.066 530.712 356.472 509.381 358.765C488.05 361.058 345.722 556.293 332.212 572.502C321.403 585.469 313.253 568.794 310.529 558.836C306.348 568.007 293.372 612.639 326.265 606.003C360.021 599.193 490.337 399.626 511.363 391.041C532.389 382.457 507.905 467.305 552.413 448.756C579.959 437.276 650.564 339.743 660.387 334.222C680.186 323.096 828.11 333.677 844.435 314.809C860.759 295.941 799.338 269.062 802.004 254.638C804.67 240.215 869.094 303.105 903.225 269.922Z" fill="#CDAA4B"/>
<path d="M491.819 273.848C542.27 233.289 602.126 207.55 638.651 197.795C615.063 217.155 520.077 287.091 497.636 307.2C471.847 330.31 389.882 426.278 347.241 466.038C365.744 435.714 402.788 345.422 491.819 273.848Z" fill="#FFF09D"/>
<ellipse cx="60.0959" cy="26.2501" rx="60.0959" ry="26.2501" transform="matrix(-0.767878 0.640596 0.640596 0.767878 553.215 231.675)" fill="#FFF09D"/>
<path d="M997 1773C1386.36 1773 1702 1457.36 1702 1068C1702 678.639 1386.36 363 997 363C607.639 363 292 678.639 292 1068C292 1457.36 607.639 1773 997 1773Z" fill="#BE9A30" stroke="white" stroke-width="10"/>
<path d="M997 1673C1331.13 1673 1602 1402.13 1602 1068C1602 733.868 1331.13 463 997 463C662.868 463 392 733.868 392 1068C392 1402.13 662.868 1673 997 1673Z" fill="#414141" stroke="white" stroke-width="10"/>
<path d="M1003.83 613L1115.43 678.15L723.257 904.625V1230.38L1003.83 1390.15L1396 1163.67V1292.42L1003.83 1522L607 1292.42V841.026L1003.83 613Z" fill="#BE9A30"/>
<path d="M1160.13 789L1261 848.046L848.013 1088.5C845.346 1090.05 842 1088.13 842 1085.04V975.634C842 974.565 842.568 973.577 843.492 973.04L1160.13 789Z" fill="white"/>
<path d="M1323.08 1074.52L1321.51 957.674L908.929 1198.58C906.265 1200.13 906.29 1203.99 908.973 1205.51L1004.04 1259.39C1004.97 1259.92 1006.11 1259.91 1007.03 1259.37L1323.08 1074.52Z" fill="white"/>
<path d="M1281.81 839L1179 779.82L1239.77 744.885C1240.72 744.339 1241.89 744.354 1242.82 744.924L1333.81 800.358C1337.05 802.332 1337 807.054 1333.71 808.955L1281.81 839Z" fill="white"/>
<path d="M1339.56 944.713L1340.36 1062.9L1400.5 1027.4C1401.44 1026.84 1402 1025.82 1401.97 1024.72L1398.61 918.654C1398.49 914.862 1394.36 912.58 1391.08 914.499L1339.56 944.713Z" fill="white"/>
<g style="mix-blend-mode:multiply" opacity="0.6">
<path d="M331.985 1296.82C457.897 1662.34 856.282 1856.58 1221.8 1730.67C1221.8 1730.67 834.912 1536.52 709 1171C583.088 805.48 765.834 407 765.834 407C400.314 532.912 206.073 931.297 331.985 1296.82Z" fill="#9E8B53"/>
</g>
<path d="M1792.19 1035C1752.19 1117 1667.87 1302.93 1736.19 1259C1792.19 1223 1815.7 1087 1885 1147C1950.23 1203.47 1674.11 1409.36 1736.19 1423C1798.28 1436.64 1805.5 1342.81 1861.5 1359C2066.31 1418.21 1513 1846.93 1029.82 1846.93C729.551 1846.93 248.89 1598.85 427.151 1571.97C484.091 1563.38 677.742 1715.92 711.357 1700.76C744.971 1685.59 542.577 1635.79 603.365 1584.32C664.153 1532.85 611.019 1660.35 1009.05 1698.04C1407.08 1735.72 1578.25 1100.95 1653 939C1725 783 1834.95 700.759 1861.5 710.5C1961 747 1826.39 964.895 1792.19 1035Z" fill="url(#paint0_linear_13_252)"/>
<path d="M156.843 1460.91C117.272 1535.34 226.256 1512.38 276.558 1525.68C315.471 1535.97 371.677 1550.83 371.677 1550.83C412.139 1571.01 376.411 1490.44 311.152 1455.75C245.893 1421.05 176.807 1423.36 156.843 1460.91Z" fill="#B68F60"/>
<circle cx="50" cy="50" r="50" transform="matrix(-0.979019 0.20377 0.20377 0.979019 254.5 1262.66)" fill="#B68F60"/>
<ellipse cx="67.5424" cy="38" rx="67.5424" ry="38" transform="matrix(-0.62423 0.78124 0.78124 0.62423 1882.32 962)" fill="#E8C251"/>
<path d="M132.798 902.158C191.399 913.355 222.99 941.359 230.55 966.413L262.945 943.681C248.723 915.152 208.072 855.512 159.242 845.184C110.413 834.855 55.2806 884.629 33.818 910.807C41.788 911.56 73.1895 890.77 132.798 902.158Z" fill="#4F923F"/>
<path d="M178.277 807.074C204.663 842.04 241.831 883.685 254.507 888.965L278.508 879.449C259.702 838.89 246.985 802.617 233.952 770.675C227.397 754.611 179.16 726.035 162.589 716.799C165.745 730.86 160.485 783.496 178.277 807.074Z" fill="#579A46"/>
<path d="M113.13 825.877C152.016 840.499 218.477 886.674 247.601 916.889L274.13 897.314C248.826 868.573 205.173 805.607 166.594 795.207C128.014 784.808 56.4401 807.222 33.7765 818.287C44.5283 820.695 77.8612 812.615 113.13 825.877Z" fill="#61AB4F"/>
<path d="M285.763 744.697C283.92 786.2 300.25 865.463 316.583 904.12L288.154 920.818C271.675 886.252 230.94 821.36 236.544 781.799C242.149 742.237 290.897 685.238 309.98 668.749C307.967 679.581 287.434 707.054 285.763 744.697Z" fill="#61AB4F"/>
<path d="M353.948 790.355C336.409 847.379 346.366 888.404 364.966 906.814L329.713 924.797C311.161 898.875 277.491 835.034 291.223 787.05C304.955 739.067 374.747 713.649 407.927 706.939C404.861 714.334 371.789 732.35 353.948 790.355Z" fill="#4F923F"/>
<path d="M174.826 974.632C230.468 985.263 260.463 1011.85 267.642 1035.64L298.401 1014.06C284.897 986.969 246.299 930.342 199.935 920.535C153.572 910.727 101.223 957.988 80.8446 982.844C88.4121 983.559 118.228 963.818 174.826 974.632Z" fill="#61AB4F"/>
<g filter="url(#filter0_d_13_252)">
<path d="M218.008 884.349C243.062 917.55 278.353 957.092 290.389 962.105L313.178 953.07C295.321 914.559 283.247 880.117 270.872 849.788C264.648 834.536 218.847 807.403 203.113 798.634C206.11 811.984 201.115 861.962 218.008 884.349Z" fill="#61AB4F"/>
</g>
<path d="M156.152 902.203C193.074 916.087 256.179 959.93 283.832 988.619L309.022 970.032C284.995 942.743 243.547 882.956 206.916 873.082C170.284 863.208 102.325 884.49 80.8055 894.996C91.0142 897.282 122.664 889.611 156.152 902.203Z" fill="#579A46"/>
<path d="M320.068 825.122C318.319 864.53 333.824 939.79 349.332 976.495L322.338 992.349C306.692 959.529 268.014 897.914 273.335 860.35C278.657 822.787 324.943 768.666 343.063 753.01C341.151 763.295 321.655 789.381 320.068 825.122Z" fill="#579A46"/>
<path d="M384.81 868.474C368.156 922.619 377.611 961.573 395.271 979.053L361.798 996.128C344.183 971.514 312.213 910.897 325.252 865.337C338.29 819.776 404.558 795.643 436.062 789.271C433.151 796.293 401.75 813.398 384.81 868.474Z" fill="#61AB4F"/>
<rect x="151.121" y="1013.44" width="338" height="488" rx="169" transform="rotate(-24.9025 151.121 1013.44)" fill="#E8C251"/>
<path d="M338.111 933.005L239.489 1197.8" stroke="#815420" stroke-width="5" stroke-linecap="round"/>
<path d="M406.905 931.708L274.112 1271.46" stroke="#815420" stroke-width="5" stroke-linecap="round"/>
<path d="M461.303 952.704L328.458 1356.41" stroke="#815420" stroke-width="5" stroke-linecap="round"/>
<path d="M513.427 1001.5L383.583 1387.43" stroke="#815420" stroke-width="5" stroke-linecap="round"/>
<path d="M551.924 1077.02L439.394 1399.05" stroke="#815420" stroke-width="5" stroke-linecap="round"/>
<path d="M590.637 1159.62L511.789 1383.42" stroke="#815420" stroke-width="5" stroke-linecap="round"/>
<path d="M278.053 961.204L544.25 1066.05" stroke="#815420" stroke-width="5" stroke-linecap="round"/>
<path d="M232.361 1010.76L583.958 1144.54" stroke="#815420" stroke-width="5" stroke-linecap="round"/>
<path d="M211.535 1066.14L601.518 1238.34" stroke="#815420" stroke-width="5" stroke-linecap="round"/>
<path d="M214.217 1137.49L587.555 1300.03" stroke="#815420" stroke-width="5" stroke-linecap="round"/>
<path d="M249.744 1218.85L558.736 1349.22" stroke="#815420" stroke-width="5" stroke-linecap="round"/>
<path d="M286.487 1301.79L496.369 1388.13" stroke="#815420" stroke-width="5" stroke-linecap="round"/>
<path d="M237.522 1032.72L231.79 1052.91C231.155 1055.14 232.143 1057.52 234.173 1058.64L260.035 1072.99C262.846 1074.55 266.377 1073.09 267.266 1070L274.904 1043.45C275.667 1040.8 274.134 1038.03 271.481 1037.27L243.714 1029.28C241.053 1028.51 238.278 1030.06 237.522 1032.72Z" fill="#BC9336"/>
<path d="M282.517 1119.51L274.949 1140.43C274.072 1142.86 275.183 1145.55 277.516 1146.65L298.074 1156.36C300.814 1157.65 304.067 1156.23 304.978 1153.34L311.747 1131.86C312.503 1129.46 311.361 1126.88 309.079 1125.82L289.319 1116.67C286.658 1115.44 283.514 1116.75 282.517 1119.51Z" fill="#BC9336"/>
<path d="M345.823 1145.05L338.256 1165.97C337.378 1168.39 338.49 1171.09 340.823 1172.19L361.381 1181.9C364.121 1183.19 367.373 1181.77 368.284 1178.88L375.054 1157.4C375.81 1155 374.667 1152.41 372.386 1151.36L352.625 1142.21C349.965 1140.98 346.821 1142.29 345.823 1145.05Z" fill="#BC9336"/>
<path d="M403.733 1174.57L396.166 1195.49C395.288 1197.92 396.4 1200.61 398.733 1201.71L419.291 1211.42C422.031 1212.71 425.284 1211.29 426.195 1208.4L432.964 1186.92C433.72 1184.52 432.577 1181.94 430.296 1180.88L410.536 1171.73C407.875 1170.5 404.731 1171.81 403.733 1174.57Z" fill="#BC9336"/>
<path d="M514.411 1227.4L506.844 1248.32C505.966 1250.75 507.078 1253.44 509.411 1254.54L529.969 1264.25C532.709 1265.54 535.961 1264.12 536.872 1261.23L543.642 1239.75C544.398 1237.35 543.255 1234.77 540.973 1233.71L521.213 1224.56C518.553 1223.33 515.408 1224.64 514.411 1227.4Z" fill="#BC9336"/>
<path d="M460.144 1201.31L452.576 1222.23C451.699 1224.65 452.81 1227.35 455.143 1228.45L475.701 1238.16C478.441 1239.45 481.694 1238.03 482.605 1235.14L489.374 1213.66C490.13 1211.26 488.988 1208.67 486.706 1207.62L466.946 1198.47C464.285 1197.24 461.141 1198.55 460.144 1201.31Z" fill="#BC9336"/>
<path d="M305.922 1060.96L299.928 1079.91C299.115 1082.49 300.49 1085.24 303.036 1086.14L320.473 1092.27C323.195 1093.23 326.16 1091.69 326.944 1088.92L331.881 1071.45C332.548 1069.09 331.404 1066.6 329.18 1065.56L312.8 1057.93C310.064 1056.66 306.832 1058.08 305.922 1060.96Z" fill="#BC9336"/>
<path d="M364.943 1083.69L358.546 1103.92C357.832 1106.18 358.8 1108.63 360.865 1109.79L382.177 1121.76C384.99 1123.34 388.541 1121.88 389.431 1118.77L396.494 1094.16C397.227 1091.6 395.831 1088.92 393.318 1088.05L371.341 1080.47C368.683 1079.55 365.791 1081.01 364.943 1083.69Z" fill="#BC9336"/>
<path d="M426.903 1108.57L419.171 1130.99C418.398 1133.23 419.304 1135.7 421.341 1136.91L443.258 1149.95C446.281 1151.75 450.166 1149.95 450.746 1146.48L455.359 1118.91C455.742 1116.62 454.501 1114.37 452.363 1113.48L433.564 1105.59C430.899 1104.47 427.845 1105.84 426.903 1108.57Z" fill="#BC9336"/>
<path d="M485.386 1134.79L479.513 1152.25C478.807 1154.35 479.564 1156.66 481.374 1157.94L496.424 1168.53C499.018 1170.36 502.634 1169.34 503.892 1166.43L513.108 1145.1C514.247 1142.47 512.936 1139.41 510.238 1138.42L491.845 1131.68C489.203 1130.72 486.283 1132.12 485.386 1134.79Z" fill="#BC9336"/>
<path d="M540.397 1156.03L535.615 1179.96C535.192 1182.08 536.178 1184.23 538.061 1185.29L554.728 1194.7C557.348 1196.17 560.67 1195.02 561.811 1192.24L573.143 1164.6C574.302 1161.77 572.675 1158.57 569.707 1157.85L546.491 1152.16C543.726 1151.48 540.955 1153.24 540.397 1156.03Z" fill="#BC9336"/>
<path d="M569.796 1248.23L562.228 1269.15C561.351 1271.57 562.463 1274.27 564.795 1275.37L585.353 1285.08C588.094 1286.37 591.346 1284.95 592.257 1282.06L599.027 1260.58C599.782 1258.18 598.64 1255.59 596.358 1254.54L576.598 1245.39C573.937 1244.16 570.793 1245.47 569.796 1248.23Z" fill="#BC9336"/>
<path d="M228.89 1091.27L221.322 1112.19C220.445 1114.62 221.557 1117.32 223.889 1118.42L244.447 1128.12C247.188 1129.42 250.44 1128 251.351 1125.11L258.12 1103.62C258.876 1101.23 257.734 1098.64 255.452 1097.58L235.692 1088.44C233.031 1087.21 229.887 1088.52 228.89 1091.27Z" fill="#BC9336"/>
<path d="M256.937 1176.73L249.369 1197.65C248.492 1200.08 249.603 1202.78 251.936 1203.88L272.494 1213.58C275.234 1214.88 278.487 1213.46 279.398 1210.57L286.167 1189.08C286.923 1186.69 285.781 1184.1 283.499 1183.04L263.739 1173.9C261.078 1172.67 257.934 1173.98 256.937 1176.73Z" fill="#BC9336"/>
<path d="M298.774 1259.8L291.207 1280.72C290.329 1283.14 291.441 1285.84 293.774 1286.94L314.332 1296.65C317.072 1297.94 320.325 1296.52 321.236 1293.63L328.005 1272.15C328.761 1269.75 327.618 1267.16 325.337 1266.11L305.577 1256.96C302.916 1255.73 299.772 1257.04 298.774 1259.8Z" fill="#BC9336"/>
<path d="M323.241 1207.84L315.674 1228.76C314.796 1231.19 315.908 1233.88 318.241 1234.98L338.799 1244.69C341.539 1245.99 344.791 1244.56 345.702 1241.67L352.472 1220.19C353.228 1217.79 352.085 1215.21 349.803 1214.15L330.043 1205.01C327.383 1203.77 324.239 1205.09 323.241 1207.84Z" fill="#BC9336"/>
<path d="M385.392 1232.57L377.824 1253.49C376.947 1255.91 378.058 1258.61 380.391 1259.71L400.949 1269.42C403.689 1270.71 406.942 1269.29 407.853 1266.4L414.622 1244.92C415.378 1242.52 414.236 1239.93 411.954 1238.88L392.194 1229.73C389.533 1228.5 386.389 1229.81 385.392 1232.57Z" fill="#BC9336"/>
<path d="M444.587 1257.8L437.019 1278.72C436.142 1281.15 437.254 1283.85 439.586 1284.95L460.144 1294.65C462.885 1295.95 466.137 1294.53 467.048 1291.64L473.818 1270.15C474.573 1267.76 473.431 1265.17 471.149 1264.11L451.389 1254.97C448.729 1253.74 445.584 1255.05 444.587 1257.8Z" fill="#BC9336"/>
<path d="M498.685 1282.91L491.117 1303.83C490.24 1306.26 491.351 1308.95 493.684 1310.06L514.242 1319.76C516.982 1321.06 520.235 1319.64 521.146 1316.74L527.915 1295.26C528.671 1292.87 527.529 1290.28 525.247 1289.22L505.487 1280.08C502.826 1278.85 499.682 1280.16 498.685 1282.91Z" fill="#BC9336"/>
<path d="M422.091 1309.42L414.523 1330.34C413.646 1332.76 414.758 1335.46 417.09 1336.56L437.648 1346.27C440.389 1347.56 443.641 1346.14 444.552 1343.25L451.322 1321.77C452.077 1319.37 450.935 1316.78 448.653 1315.73L428.893 1306.58C426.232 1305.35 423.088 1306.66 422.091 1309.42Z" fill="#BC9336"/>
<path d="M367.222 1291.55L359.654 1312.47C358.777 1314.89 359.889 1317.59 362.221 1318.69L382.779 1328.4C385.52 1329.69 388.772 1328.27 389.683 1325.38L396.453 1303.9C397.208 1301.5 396.066 1298.91 393.784 1297.86L374.024 1288.71C371.363 1287.48 368.219 1288.79 367.222 1291.55Z" fill="#BC9336"/>
<path d="M350.431 1345.78L346.426 1360.03C345.697 1362.62 347.154 1365.33 349.72 1366.15L365.971 1371.33C368.223 1372.05 370.67 1371.09 371.838 1369.04L378.031 1358.14C379.477 1355.6 378.44 1352.36 375.784 1351.13L357.345 1342.6C354.551 1341.31 351.264 1342.82 350.431 1345.78Z" fill="#BC9336"/>
<path d="M405.986 1367.59L401.981 1381.84C401.252 1384.43 402.708 1387.14 405.275 1387.96L421.526 1393.14C423.778 1393.86 426.225 1392.9 427.393 1390.85L433.586 1379.95C435.032 1377.41 433.994 1374.17 431.339 1372.95L412.899 1364.41C410.106 1363.12 406.819 1364.63 405.986 1367.59Z" fill="#BC9336"/>
<path d="M475.812 1337.19L471.807 1351.44C471.078 1354.03 472.535 1356.73 475.101 1357.55L491.352 1362.74C493.604 1363.46 496.051 1362.5 497.219 1360.45L503.412 1349.55C504.858 1347.01 503.82 1343.77 501.165 1342.54L482.726 1334.01C479.932 1332.71 476.645 1334.23 475.812 1337.19Z" fill="#BC9336"/>
<path d="M546.109 1303.66L542.104 1317.91C541.375 1320.5 542.831 1323.2 545.398 1324.02L561.649 1329.21C563.901 1329.93 566.348 1328.97 567.516 1326.92L573.709 1316.02C575.155 1313.48 574.117 1310.24 571.462 1309.01L553.022 1300.48C550.229 1299.18 546.942 1300.7 546.109 1303.66Z" fill="#BC9336"/>
<path d="M445.656 1046.84L440.084 1065.4C439.409 1067.65 440.391 1070.07 442.444 1071.21L461.968 1082.06C464.982 1083.74 468.747 1081.93 469.326 1078.53L473.015 1056.91C473.4 1054.65 472.201 1052.42 470.106 1051.5L452.466 1043.7C449.715 1042.49 446.521 1043.96 445.656 1046.84Z" fill="#BC9336"/>
<path d="M382.692 1023.27L377.12 1041.84C376.444 1044.09 377.426 1046.5 379.479 1047.64L399.003 1058.5C402.017 1060.17 405.782 1058.37 406.362 1054.97L410.05 1033.34C410.435 1031.08 409.236 1028.85 407.141 1027.93L389.501 1020.14C386.75 1018.92 383.556 1020.39 382.692 1023.27Z" fill="#BC9336"/>
<path d="M327.137 1001.46L321.565 1020.02C320.89 1022.27 321.871 1024.69 323.924 1025.83L343.449 1036.69C346.462 1038.36 350.227 1036.55 350.807 1033.16L354.495 1011.53C354.88 1009.27 353.682 1007.04 351.587 1006.12L333.946 998.324C331.195 997.109 328.001 998.58 327.137 1001.46Z" fill="#BC9336"/>
<path d="M271.582 979.65L266.01 998.214C265.335 1000.46 266.317 1002.88 268.37 1004.02L287.894 1014.87C290.908 1016.55 294.673 1014.74 295.252 1011.35L298.94 989.72C299.325 987.462 298.127 985.231 296.032 984.306L278.391 976.513C275.64 975.298 272.447 976.769 271.582 979.65Z" fill="#BC9336"/>
<path d="M356.016 945.693L350.444 964.257C349.768 966.507 350.75 968.923 352.803 970.064L372.328 980.918C375.341 982.593 379.106 980.787 379.686 977.388L383.374 955.763C383.759 953.505 382.561 951.274 380.465 950.349L362.825 942.557C360.074 941.341 356.88 942.812 356.016 945.693Z" fill="#BC9336"/>
<path d="M414.783 956.795L409.211 975.359C408.536 977.609 409.518 980.025 411.571 981.167L431.095 992.02C434.109 993.696 437.874 991.89 438.453 988.491L442.142 966.865C442.527 964.608 441.328 962.377 439.233 961.451L421.593 953.659C418.841 952.444 415.648 953.915 414.783 956.795Z" fill="#BC9336"/>
<path d="M465.455 985.545L459.883 1004.11C459.208 1006.36 460.19 1008.78 462.243 1009.92L481.767 1020.77C484.781 1022.45 488.546 1020.64 489.125 1017.24L492.813 995.615C493.199 993.357 492 991.126 489.905 990.201L472.264 982.409C469.513 981.193 466.32 982.664 465.455 985.545Z" fill="#BC9336"/>
<path d="M513.974 1021.47L510.555 1032.86C509.88 1035.11 510.862 1037.52 512.915 1038.67L524.801 1045.27C529.069 1047.65 533.857 1043.12 531.732 1038.73L529.101 1033.29L523.298 1020.8C521.36 1016.63 515.296 1017.06 513.974 1021.47Z" fill="#BC9336"/>
<path d="M554.482 1102.73L551.063 1114.12C550.388 1116.37 551.369 1118.79 553.422 1119.93L565.309 1126.54C569.577 1128.91 574.365 1124.39 572.24 1119.99L569.609 1114.55L563.805 1102.06C561.868 1097.89 555.804 1098.33 554.482 1102.73Z" fill="#BC9336"/>
<path d="M507.417 1081L503.413 1095.24C502.684 1097.84 504.14 1100.54 506.706 1101.36L522.958 1106.54C525.209 1107.26 527.656 1106.31 528.824 1104.25L535.017 1093.36C536.463 1090.81 535.426 1087.58 532.771 1086.35L514.331 1077.81C511.538 1076.52 508.25 1078.03 507.417 1081Z" fill="#BC9336"/>
<rect x="151.121" y="1013.44" width="338" height="488" rx="169" transform="rotate(-24.9025 151.121 1013.44)" fill="url(#paint1_linear_13_252)"/>
<g style="mix-blend-mode:soft-light">
<path d="M465.651 951.442C380.615 903.506 318.321 935.936 286.535 951.61C318.063 946.131 370.972 934.182 413.882 966.02C504.77 1033.46 551.955 1176.49 554.167 1282.68C554.585 1302.74 532.739 1357.96 514.558 1381.83C524.353 1379.79 573.541 1350.36 595.523 1295.79C616.439 1243.87 617.596 1206.7 565.993 1102.49C535.076 1029.71 505.599 973.961 465.651 951.442Z" fill="#FFE59C"/>
</g>
<path d="M1637.94 555.073C1606.31 547.359 1551.51 527.192 1528.59 511.818C1552.63 539.641 1614.8 600.073 1671.12 619.218C1741.52 643.15 1737.25 611.933 1723.23 598.009C1704.29 579.213 1679.04 565.1 1637.94 555.073Z" fill="#B68932"/>
<path d="M604.31 1399.17L468.299 1468.09C483.379 1490.86 502.773 1530.23 549.42 1556.87C596.067 1583.5 635.327 1566.14 660.34 1560.53L633.014 1413.36C630.578 1400.24 616.216 1393.14 604.31 1399.17Z" fill="#FDE55C"/>
<path d="M576.56 1421.61L511.997 1456.21L513.438 1459.12C514.521 1459.11 516.919 1459.24 517.857 1459.82C518.795 1460.4 525.463 1458.85 528.68 1458L534.54 1461.61L526.417 1474.79L567.397 1443.05L570.465 1438.07L564.312 1434.28L576.56 1421.61Z" fill="#ECCC5B"/>
<path d="M577.828 1459.58L540.888 1512L538.1 1510.34C538.192 1509.26 537.055 1506.73 537.746 1505.88C550.939 1489.5 540.017 1494.67 541.113 1491.53L547.308 1484.03L528.934 1491.7L555.416 1463.15L564.217 1454.02L565.56 1465.76L577.828 1459.58Z" fill="#ECCC5B"/>
<path d="M603.8 1465.84L585.263 1527.23L588.292 1528.4C589.085 1527.66 591.773 1527 592.023 1525.93C596.798 1505.45 599.454 1517.24 601.252 1514.44L603.345 1504.94L608.616 1524.14L614.792 1485.69L616.561 1473.14L606.486 1479.31L603.8 1465.84Z" fill="#ECCC5B"/>
<path d="M588.877 1453.45L567.377 1485.07C566 1488.4 563.427 1494.76 564.149 1493.59C565.051 1492.13 570.553 1491.07 572.018 1491.97L571.155 1505.18C571.658 1505.9 574.709 1503.09 582.887 1486.14C591.066 1469.19 594.976 1460.17 595.909 1457.78L588.603 1461.77L588.877 1453.45Z" fill="#FFEE8A"/>
<path d="M624.426 1460.94L621.59 1508.56C622.241 1513.01 623.551 1521.47 623.575 1519.76C623.606 1517.61 628.827 1512.96 630.974 1512.99L638.491 1527.7C639.486 1528.15 640.961 1523.19 638.894 1499.8C636.828 1476.4 635.257 1464.24 634.73 1461.09L629.448 1470.03L624.426 1460.94Z" fill="#FFEE8B"/>
<path d="M481.82 1482.89C475.98 1473.47 470.373 1469.1 468.3 1468.09C475.806 1485.65 472.068 1509.22 531.788 1560.56C571.262 1594.49 636.465 1576.54 660.926 1560.89L641.944 1558.9L627.875 1560.74C622.359 1561.38 610.74 1562.31 608.396 1560.86C605.466 1559.06 583.685 1564.23 580.755 1562.43C577.825 1560.62 566.372 1560.84 563.081 1559.63C559.79 1558.41 550.592 1557.59 545.318 1554.34C541.099 1551.74 529.681 1535.55 524.499 1527.77L507.505 1517.3C504.575 1515.5 500.384 1510.49 494.66 1505.35C488.936 1500.21 489.119 1494.66 481.82 1482.89Z" fill="url(#paint2_linear_13_252)"/>
<path d="M622.679 1394.65C613.559 1390.71 597.906 1401.62 589.419 1407.3L597.693 1406.34L601.662 1405.14L608.652 1402.98L608.49 1411.77L604.7 1417.93L607.541 1417.25L605.375 1420.77L606.254 1421.31L612.229 1420.14L617.644 1411.35L619.446 1413.67L621.249 1416L623.595 1412.19L636.527 1431.87C634.51 1420.93 638.007 1401.26 622.679 1394.65Z" fill="#FFEE8A"/>
<path d="M1451.31 565.171L1315.3 634.093C1330.38 656.855 1349.77 696.234 1396.42 722.869C1443.07 749.503 1482.33 732.138 1507.34 726.529L1480.01 579.36C1477.58 566.237 1463.22 559.137 1451.31 565.171Z" fill="#FDE55C"/>
<path d="M1423.56 587.611L1359 622.209L1360.44 625.118C1361.52 625.111 1363.92 625.242 1364.86 625.819C1365.79 626.397 1372.46 624.846 1375.68 623.998L1381.54 627.608L1373.42 640.793L1414.4 609.047L1417.47 604.066L1411.31 600.275L1423.56 587.611Z" fill="#ECCC5B"/>
<path d="M1424.83 625.578L1387.89 678L1385.1 676.336C1385.19 675.258 1384.06 672.734 1384.75 671.877C1397.94 655.496 1387.02 660.667 1388.11 657.526L1394.31 650.025L1375.93 657.704L1402.42 629.151L1411.22 620.022L1412.56 631.763L1424.83 625.578Z" fill="#ECCC5B"/>
<path d="M1450.8 631.837L1432.26 693.23L1435.29 694.401C1436.08 693.664 1438.77 693.005 1439.02 691.932C1443.8 671.449 1446.45 683.238 1448.25 680.44L1450.34 670.939L1455.62 690.142L1461.79 651.693L1463.56 639.136L1453.49 645.311L1450.8 631.837Z" fill="#ECCC5B"/>
<path d="M1435.88 619.45L1414.38 651.071C1413 654.399 1410.43 660.763 1411.15 659.591C1412.05 658.126 1417.55 657.069 1419.02 657.972L1418.15 671.183C1418.66 671.897 1421.71 669.088 1429.89 652.138C1438.07 635.188 1441.98 626.172 1442.91 623.782L1435.6 627.769L1435.88 619.45Z" fill="#FFEE8A"/>
<path d="M1471.43 626.936L1468.59 674.563C1469.24 679.01 1470.55 687.475 1470.58 685.757C1470.61 683.611 1475.83 678.962 1477.97 678.993L1485.49 693.703C1486.49 694.147 1487.96 689.187 1485.89 665.795C1483.83 642.404 1482.26 630.242 1481.73 627.085L1476.45 636.027L1471.43 626.936Z" fill="#FFEE8B"/>
<path d="M1328.82 648.889C1322.98 639.471 1317.37 635.101 1315.3 634.093C1322.81 651.651 1319.07 675.217 1378.79 726.558C1418.26 760.493 1483.46 742.539 1507.93 726.89L1488.94 724.897L1474.88 726.739C1469.36 727.382 1457.74 728.309 1455.4 726.865C1452.47 725.06 1430.69 730.235 1427.76 728.43C1424.83 726.625 1413.37 726.845 1410.08 725.626C1406.79 724.407 1397.59 723.591 1392.32 720.342C1388.1 717.742 1376.68 701.547 1371.5 693.774L1354.5 683.305C1351.57 681.5 1347.38 676.493 1341.66 671.35C1335.94 666.207 1336.12 660.661 1328.82 648.889Z" fill="url(#paint3_linear_13_252)"/>
<path d="M1469.68 560.646C1460.56 556.711 1444.91 567.616 1436.42 573.301L1444.69 572.335L1448.66 571.142L1455.65 568.981L1455.49 577.774L1451.7 583.927L1454.54 583.252L1452.37 586.768L1453.25 587.309L1459.23 586.14L1464.64 577.35L1466.45 579.673L1468.25 581.996L1470.6 578.187L1483.53 597.875C1481.51 586.932 1485.01 567.259 1469.68 560.646Z" fill="#FFEE8A"/>
<path d="M1579.89 644.131L1548.39 875.632C1588.06 876.392 1651.15 885.708 1721.5 851.92C1791.85 818.131 1803.49 756.855 1817.43 722.318L1607.87 628.57C1595.69 623.12 1581.69 630.906 1579.89 644.131Z" fill="#FDE55C"/>
<path d="M1582.18 707.821L1570.25 813.576L1574.92 814.253C1575.81 812.953 1577.94 810.193 1579.41 809.549C1580.87 808.905 1584.52 799.652 1586.16 795.106L1595.32 791.079L1604.38 811.674L1600.25 736.472L1596.82 728.691L1587.21 732.919L1582.18 707.821Z" fill="#ECCC5B"/>
<path d="M1628.62 737.645L1660.81 825.084L1656.52 827.044C1655.31 826.044 1651.35 825.32 1650.9 823.786C1642.2 794.49 1639.37 811.818 1636.52 807.915L1632.66 794.316L1626.68 822.623L1614.4 767.392L1610.75 749.333L1625.89 757.419L1628.62 737.645Z" fill="#ECCC5B"/>
<path d="M1657.54 711.759L1715.65 784.598L1719.55 781.944C1719.32 780.388 1720.75 776.629 1719.68 775.445C1699.13 752.827 1715.41 759.384 1713.55 754.923L1703.92 744.579L1731.23 754.128L1690.36 715.005L1676.8 702.525L1675.87 719.669L1657.54 711.759Z" fill="#ECCC5B"/>
<path d="M1630.42 719.376L1650.48 771.184C1653.32 775.578 1658.81 783.907 1658 782.077C1656.99 779.788 1660.27 772.338 1662.56 771.331L1677.64 783.268C1678.91 783.256 1678.07 777.289 1664.56 753.519C1651.04 729.749 1643.49 717.631 1641.4 714.544L1640.14 726.571L1630.42 719.376Z" fill="#FFEE8A"/>
<path d="M1668.71 683.051L1723.32 725.755C1729.17 728.647 1740.37 734.069 1738.34 732.622C1735.8 730.812 1734.55 720.734 1736.36 718.192L1760.15 721.346C1761.5 720.522 1756.79 714.665 1727.12 697.828C1697.44 680.99 1681.6 672.829 1677.4 670.854L1683.73 684.551L1668.71 683.051Z" fill="#FFEE8B"/>
<path d="M1577.24 871.68C1561.16 870.888 1551.31 873.985 1548.39 875.632C1575.58 881.151 1600.67 905.073 1711.36 876.047C1784.51 856.861 1816.87 764.081 1818.35 721.915L1800.3 742.966L1790.89 761.309C1787.1 768.436 1778.62 783.092 1774.96 784.703C1770.38 786.716 1758.59 817.031 1754.01 819.044C1749.44 821.057 1740.25 834.933 1736.07 837.862C1731.9 840.79 1723.33 851.114 1715.09 854.738C1708.5 857.638 1679.71 857.921 1666.14 857.701L1639.6 869.378C1635.02 871.391 1625.57 872.27 1614.7 874.868C1603.82 877.467 1597.34 872.67 1577.24 871.68Z" fill="url(#paint4_linear_13_252)"/>
<path d="M1588.01 630.422C1575.77 638.079 1575.89 665.795 1575.68 680.636L1581.36 669.945L1583.21 664.215L1586.39 654.074L1596.77 661.525L1601 671.136L1602.54 667.182L1604.96 672.674L1606.33 672.07L1609.86 663.961L1603.82 650.231L1608.09 649.993L1612.35 649.755L1609.74 643.806L1643.95 644.595C1629.2 637.974 1608.57 617.554 1588.01 630.422Z" fill="#FFEE8A"/>
<path d="M1372 1514C1484 1374 1664 881 1664 920C1664 1033.16 1526 1414 1372 1514Z" fill="#FFEE8A"/>
<ellipse cx="1583.76" cy="1225.53" rx="37.5977" ry="108.592" transform="rotate(21.4845 1583.76 1225.53)" fill="#FFEE8A"/>
<path d="M1754 1177.5C1738.5 1194.5 1715.16 1195.67 1714.5 1190C1713 1205.5 1745.76 1215.07 1763 1203C1788 1185.5 1800.7 1131.71 1829 1098C1852.5 1070 1860.83 1063.17 1866.5 1065.5C1822 1047.18 1785.44 1143.01 1754 1177.5Z" fill="#FFEE8A"/>
<path d="M1763 1354.5C1748.46 1357.99 1730.67 1350.17 1730 1344.5C1728.5 1360 1757.76 1384.07 1775 1372C1800 1354.5 1807.2 1352.21 1835.5 1318.5C1859 1290.5 1882.34 1299.17 1888 1301.5C1827.5 1255 1788 1348.5 1763 1354.5Z" fill="#FFEE8A"/>
</g>
</svg>
