<svg width="2000" height="2000" viewBox="0 0 2000 2000" fill="none" xmlns="http://www.w3.org/2000/svg">
<g clip-path="url(#clip0_15_203)">
<path d="M1703.78 405.63C1652.58 399.965 1597.6 451.786 1586.64 481.293C1610.94 491.03 1642.13 512.981 1696.88 505.193C1742.83 498.656 1778.67 440.868 1800.89 411.362C1783.11 409.886 1754.99 411.295 1703.78 405.63Z" fill="#61AB4F"/>
<path d="M1682.98 451.614C1661.81 456.341 1610.45 471.738 1587.15 480.901C1606.68 476.191 1650.2 465.744 1668.08 461.633C1685.96 457.523 1733.93 439.712 1755.68 431.32C1740.44 434.745 1704.14 446.888 1682.98 451.614Z" fill="#9BD674"/>
<path d="M1723.31 423.356C1712 428.083 1697.53 443.993 1691.71 451.358H1686.83C1690.94 446.477 1702.24 433.632 1709.95 427.98C1717 422.81 1733.58 416.334 1745.4 415.649C1742.75 416.249 1734.61 418.629 1723.31 423.356Z" fill="#9BD674"/>
<path d="M1665.25 438.256C1654.2 448.018 1651.81 454.526 1645.98 461.89L1640.59 463.945C1644.7 459.064 1652.41 442.109 1660.11 436.458C1667.16 431.287 1681.43 419.931 1693.25 419.246C1690.6 419.845 1674.43 430.143 1665.25 438.256Z" fill="#9BD674"/>
<path d="M1715.09 464.459C1702.39 464.459 1693.86 457.95 1684.42 455.61L1675.78 458.512C1682.25 459.904 1705.19 468.57 1715.09 468.313C1724.14 468.077 1745.82 465.445 1755.93 458.512C1753.38 459.704 1727.8 464.459 1715.09 464.459Z" fill="#9BD674"/>
<path d="M1700.12 481.6C1687.49 480.262 1668.41 468.762 1660.44 463.179L1655.6 464.628C1661.12 468.253 1676.16 477.65 1685.48 480.974C1694.02 484.014 1712.4 485.522 1724.34 482.695C1721.52 482.888 1712.74 482.939 1700.12 481.6Z" fill="#9BD674"/>
<path d="M1653.43 491.69C1640.59 488.094 1633.98 476.983 1626.02 471.4L1621.17 472.848C1626.7 476.474 1637.42 489.908 1646.75 493.232C1655.29 496.272 1691.34 500.425 1703.27 497.599C1700.46 497.791 1665.66 495.113 1653.43 491.69Z" fill="#9BD674"/>
<path d="M1636.22 442.88C1629.54 451.614 1625.62 461.132 1623.06 470.516L1618.41 472.497C1620.35 466.175 1626.03 451.396 1631.08 442.88C1635.7 435.089 1652.98 425.209 1663.96 419.759C1661.68 421.408 1642.03 435.281 1636.22 442.88Z" fill="#9BD674"/>
<g style="mix-blend-mode:multiply">
<path d="M1703.78 405.63C1652.58 399.965 1597.6 451.786 1586.64 481.293C1610.94 491.03 1642.13 512.981 1696.88 505.193C1742.83 498.656 1778.67 440.868 1800.89 411.362C1783.11 409.886 1754.99 411.295 1703.78 405.63Z" fill="url(#paint0_linear_15_203)"/>
</g>
<path d="M1688.07 748.793C1656.73 775.407 1656.68 835.704 1667.8 858.234C1686.77 849.467 1716.59 843.393 1742.07 807.353C1763.46 777.101 1749.55 724.642 1744.61 695.577C1734.01 705.087 1719.42 722.179 1688.07 748.793Z" fill="#61AB4F"/>
<path d="M1703.36 786.064C1694.51 800.939 1675.3 839.183 1667.86 857.721C1675.82 843.809 1693.6 812.829 1701.01 800.201C1708.42 787.572 1724.37 749.972 1731.42 732.751C1725.05 743.474 1712.22 771.189 1703.36 786.064Z" fill="#9BD674"/>
<path d="M1709.06 747.174C1705.61 756.324 1706.91 773.441 1708 780.855L1705.32 783.688C1704.74 778.628 1703.48 765.03 1704.42 757.461C1705.29 750.536 1710.61 737.363 1716.69 730.13C1715.58 731.999 1712.51 738.024 1709.06 747.174Z" fill="#9BD674"/>
<path d="M1685.9 789.032C1685.51 800.792 1687.97 805.749 1689.06 813.163L1687.29 817.42C1686.71 812.36 1681.09 798.598 1682.04 791.028C1682.9 784.103 1684.13 769.599 1690.21 762.365C1689.1 764.234 1686.22 779.259 1685.9 789.032Z" fill="#9BD674"/>
<path d="M1728.41 774.466C1721.45 781.833 1713 783.221 1706.47 787.417L1703.42 794.018C1707.77 791.03 1725.37 782.463 1730.65 776.577C1735.47 771.192 1745.82 757.172 1747.34 747.502C1746.63 749.638 1735.38 767.088 1728.41 774.466Z" fill="#9BD674"/>
<path d="M1730.16 792.545C1722.46 799.138 1705.33 803.915 1697.73 805.479L1695.91 809.085C1701.04 807.863 1714.73 804.287 1721.77 800.695C1728.21 797.408 1739.16 787.565 1744.06 779.09C1742.63 780.828 1737.85 785.953 1730.16 792.545Z" fill="#9BD674"/>
<path d="M1710.43 825.168C1701.31 830.652 1691.24 828.398 1683.64 829.962L1681.82 833.568C1686.95 832.345 1700.63 833.481 1707.67 829.889C1714.11 826.602 1736.27 807.957 1741.17 799.482C1739.74 801.22 1719.12 819.949 1710.43 825.168Z" fill="#9BD674"/>
<path d="M1672.67 808.413C1674.08 817.075 1677.46 824.563 1681.5 831.191L1680.1 834.977C1677.5 830.389 1672.03 818.994 1669.86 811.395C1667.87 804.444 1671.6 789.006 1674.46 779.644C1674.16 781.875 1671.45 800.878 1672.67 808.413Z" fill="#9BD674"/>
<g style="mix-blend-mode:multiply">
<path d="M1688.07 748.793C1656.73 775.407 1656.68 835.704 1667.8 858.234C1686.77 849.467 1716.59 843.393 1742.07 807.353C1763.46 777.101 1749.55 724.642 1744.61 695.577C1734.01 705.087 1719.42 722.179 1688.07 748.793Z" fill="url(#paint1_linear_15_203)"/>
</g>
<path d="M1576.17 328.983C1566.11 379.51 1613 438.749 1641.45 452.218C1653.25 428.849 1677.81 399.668 1674.77 344.453C1672.22 298.105 1617.74 257.42 1590.26 232.733C1587.26 250.319 1586.24 278.456 1576.17 328.983Z" fill="#61AB4F"/>
<path d="M1620.19 353.681C1623.08 375.178 1633.98 427.676 1641.1 451.672C1638.09 431.814 1631.44 387.557 1628.89 369.389C1626.34 351.221 1612.73 301.893 1606.24 279.499C1608.34 294.981 1617.31 332.184 1620.19 353.681Z" fill="#9BD674"/>
<path d="M1595.52 311.061C1599.25 322.73 1613.86 338.52 1620.69 344.957L1620.27 349.819C1615.76 345.303 1603.94 332.934 1598.97 324.768C1594.43 317.298 1589.41 300.217 1589.75 288.385C1590.11 291.082 1591.78 299.392 1595.52 311.061Z" fill="#9BD674"/>
<path d="M1605.35 370.188C1614.13 382.035 1620.4 384.986 1627.24 391.422L1628.82 396.974C1624.31 392.458 1608.09 383.317 1603.12 375.152C1598.58 367.681 1588.49 352.483 1588.83 340.651C1589.2 343.347 1598.06 360.342 1605.35 370.188Z" fill="#9BD674"/>
<path d="M1635.76 322.796C1634.66 335.443 1627.44 343.386 1624.3 352.59L1626.44 361.442C1628.39 355.123 1639 333.013 1639.6 323.129C1640.15 314.086 1639.39 292.266 1633.36 281.589C1634.33 284.238 1636.86 310.131 1635.76 322.796Z" fill="#9BD674"/>
<path d="M1651.54 339.19C1649.12 351.651 1636.02 369.675 1629.77 377.129L1630.79 382.082C1634.88 376.886 1645.54 362.72 1649.66 353.714C1653.42 345.475 1656.51 327.289 1654.72 315.156C1654.67 317.975 1653.97 326.729 1651.54 339.19Z" fill="#9BD674"/>
<path d="M1657.57 386.571C1652.88 399.057 1641.24 404.68 1634.99 412.134L1636.02 417.086C1640.1 411.891 1654.41 402.364 1658.53 393.358C1662.3 385.118 1669.54 349.562 1667.76 337.428C1667.71 340.247 1662.03 374.687 1657.57 386.571Z" fill="#9BD674"/>
<path d="M1607.46 399.508C1615.58 406.916 1624.73 411.639 1633.85 415L1635.43 419.807C1629.29 417.332 1615.06 410.395 1607.01 404.627C1599.65 399.349 1591.3 381.288 1586.81 369.872C1588.26 372.293 1600.39 393.063 1607.46 399.508Z" fill="#9BD674"/>
<g style="mix-blend-mode:multiply">
<path d="M1576.17 328.983C1566.11 379.51 1613 438.749 1641.45 452.218C1653.25 428.849 1677.81 399.668 1674.77 344.453C1672.22 298.105 1617.74 257.42 1590.26 232.733C1587.26 250.319 1586.24 278.456 1576.17 328.983Z" fill="url(#paint2_linear_15_203)"/>
</g>
<circle cx="206" cy="206" r="206" transform="matrix(-0.998304 -0.0582105 -0.0582105 0.998304 1238.44 125.994)" fill="#AEBFFC"/>
<path d="M1104.08 69.3426C950.129 33.066 726.444 238.072 847.025 248.265C884.645 251.446 893.031 218.964 933.796 199.503C984.752 175.176 996.359 310.832 1070.03 269.429C1110.96 246.428 1037.41 238.214 1045.72 183.998C1052.37 140.625 1102.9 201.413 1127.33 237.228C1147.95 263.698 1208.3 381.3 1267.85 360.762C1327.39 340.224 1201.07 284.112 1233.41 257.322C1265.75 230.532 1362.54 441.107 1394.88 414.317C1427.22 387.527 1335.98 344.012 1360.54 330.212C1385.1 316.411 1481 456.397 1562.02 462.568C1643.04 468.739 1538.51 428.39 1412.93 300.77C1287.36 173.15 1270.51 108.561 1104.08 69.3426Z" fill="#5C7DF2"/>
<path d="M921.95 145.84C896.995 130.567 1006.51 86.1137 1065.2 65.3363C1052.36 61.9636 1010.27 63.0327 938.133 97.97C847.963 141.642 812.131 171.445 805.71 211.164C800.118 245.752 822.856 248.382 847.738 254.326C872.621 260.27 917.855 209.926 939.421 202.803C978.94 189.75 1005.9 312.471 1072.64 271.194C1106.07 250.518 1064.16 228.905 1057.62 221.47C1042.72 204.533 1042.29 182.692 1057.51 171.445C1078.82 155.699 1166.18 301.564 1188.47 327.814C1210.76 354.063 1238.81 374.968 1278.36 356.469C1306.93 343.105 1250.25 296.867 1238.54 280.827C1234.76 275.642 1235.99 257.126 1240.65 254.869C1227.06 252.092 1200.3 249.001 1199.8 266.514C1199.18 288.407 1157.47 225.679 1122.7 184.898C1087.93 144.117 1045.84 131.76 1013.76 157.796C1000.82 168.302 1009.3 195.85 981.835 175.736C954.376 155.623 953.144 164.932 921.95 145.84Z" fill="#4864D1"/>
<path d="M1313.16 189.349C1250.81 121.523 1180.03 83.7457 1142.85 79.8688C1165.24 99.5963 1230.97 150.441 1257.77 174.16C1283.06 196.55 1396.07 289.93 1457.07 343.485C1461.64 347.881 1465.15 351.01 1467.36 352.581C1464.14 349.705 1460.7 346.665 1457.07 343.485C1429.62 317.04 1364.05 244.714 1313.16 189.349Z" fill="#98ACFA"/>
<ellipse cx="15.4935" cy="49.2974" rx="15.4935" ry="49.2974" transform="matrix(-0.685023 0.728521 0.728521 0.685023 1215.35 126.371)" fill="#98ACFA"/>
<circle cx="261" cy="261" r="261" transform="matrix(-0.930117 -0.367262 -0.367262 0.930117 961.738 327.647)" fill="#C7D3FF"/>
<path d="M751.582 214.562C649.271 174.164 613.012 190.702 538.233 218.481C490.698 236.139 467.312 255.689 429.545 289.528C344.331 365.88 343.154 445.844 291.047 547.706C268.907 590.987 200.364 625.433 235.276 659C270.187 692.568 341.932 590.376 341.932 590.376C341.932 590.376 355.469 626.899 382.077 597.626C392.853 585.771 463.242 448.335 501.255 380.201C497.468 391.608 499.9 417.941 539.925 432.025C579.949 446.109 621.785 369.019 637.7 328.714C632.835 348.296 632.147 391.244 668.313 406.385C704.48 421.526 744.683 333.686 760.264 287.873C774.615 299.632 787.347 331.466 815.409 327.925C850.486 323.498 828.759 245.035 751.582 214.562Z" fill="#5670D8"/>
<path d="M799.65 291.599C817.508 298.65 798.771 261.148 793.756 239.816C812.21 255.704 859.606 307.21 816.719 330.055C797.594 340.243 770.826 303.333 759.25 289.086C747.311 339.741 704.267 427.396 664.594 404.917C639.554 390.73 631.028 352.421 636.685 329.927C619.424 373.642 595.961 453.295 524.052 432.746C499.415 425.706 498.082 390.058 500.143 380.3C458.241 457.829 396.063 611.212 362.835 613.681C352.61 614.441 344.161 596.99 341.836 589.263C302.505 660.281 246.545 689.528 227.078 652.538C211.72 623.359 260.399 587.211 274.45 573.407C285.692 562.363 303.078 524.503 310.366 506.953C301.894 536.578 287.225 598.233 296.33 607.849C307.711 619.869 356.505 526.246 362.744 551.288C367.735 571.321 465.15 403.575 513.233 317.198C513.255 336.201 518.597 379.308 539.783 399.715C560.969 420.122 618.086 330.288 643.997 282.82C651.624 299.808 669.874 339.268 681.856 361.202C693.838 383.135 732.726 303.162 750.673 260.434C759.558 267.884 781.791 284.548 799.65 291.599Z" fill="#4258AC"/>
<path d="M482.631 242.219C537.269 201.866 603.299 192.566 639.502 190.734C611.856 209.922 539.195 232.856 509.604 252.87C412.249 318.716 390.774 360.947 351.401 401.666C372.104 338.344 397.732 304.921 482.631 242.219Z" fill="#98ACFA"/>
<ellipse cx="26.2848" cy="57" rx="26.2848" ry="57" transform="matrix(-0.48712 -0.873335 -0.873335 0.48712 588.68 254.075)" fill="#98ACFA"/>
<ellipse cx="37" cy="50" rx="37" ry="50" transform="matrix(-0.833692 -0.552229 -0.552229 0.833692 254.195 724.274)" fill="#4258AC"/>
<circle cx="964.641" cy="999.201" r="700" fill="#5670D8"/>
<path d="M964.641 1604.2C1298.77 1604.2 1569.64 1333.33 1569.64 999.201C1569.64 665.069 1298.77 394.201 964.641 394.201C630.508 394.201 359.641 665.069 359.641 999.201C359.641 1333.33 630.508 1604.2 964.641 1604.2Z" fill="#627EEA" stroke="#A2B6FB" stroke-width="10"/>
<path d="M983.338 549.119V881.76L1264.48 1007.4L983.338 549.119Z" fill="white" fill-opacity="0.602"/>
<path d="M983.34 549.119L702.203 1007.4L983.34 881.76V549.119Z" fill="white"/>
<path d="M983.338 1222.93V1448.96L1264.64 1059.73L983.338 1222.93Z" fill="white" fill-opacity="0.602"/>
<path d="M983.34 1448.96V1222.93L702.203 1059.73L983.34 1448.96Z" fill="white"/>
<path d="M983.338 1170.61L1264.48 1007.4L983.338 881.76V1170.61Z" fill="white" fill-opacity="0.2"/>
<path d="M702.203 1007.4L983.34 1170.61V881.76L702.203 1007.4Z" fill="white" fill-opacity="0.602"/>
<path d="M219.061 1108.9C249.771 1150.26 325.154 1155.25 354.232 1143.2C344.822 1118.77 339.669 1080.98 296.694 1046.18C260.621 1016.96 193.897 1030.06 157.153 1033.86C168.176 1047.89 188.351 1067.53 219.061 1108.9Z" fill="#61AB4F"/>
<path d="M266.911 1092.83C284.784 1105.12 331.028 1132.26 353.596 1143.09C336.854 1131.99 299.576 1107.23 284.393 1096.93C269.211 1086.63 223.507 1063.61 202.553 1053.4C215.438 1062.23 249.038 1080.55 266.911 1092.83Z" fill="#9BD674"/>
<path d="M218.754 1082.53C229.911 1087.59 251.417 1087.36 260.776 1086.61L264.099 1090.19C257.725 1090.5 240.621 1090.96 231.235 1089.16C222.648 1087.52 206.615 1079.78 198.068 1071.59C200.315 1073.13 207.596 1077.46 218.754 1082.53Z" fill="#9BD674"/>
<path d="M269.193 1114.91C283.863 1116.36 290.263 1113.68 299.621 1112.94L304.799 1115.49C298.426 1115.8 280.76 1121.7 271.373 1119.9C262.786 1118.25 244.752 1115.53 236.205 1107.34C238.451 1108.88 257 1113.71 269.193 1114.91Z" fill="#9BD674"/>
<path d="M254.458 1060.57C263.1 1069.87 264.143 1080.55 268.856 1089.06L276.859 1093.41C273.479 1087.72 264.208 1065.02 257.281 1057.94C250.944 1051.47 234.261 1037.39 222.295 1034.7C224.908 1035.76 245.804 1051.25 254.458 1060.57Z" fill="#9BD674"/>
<path d="M277.207 1059.86C284.82 1070.02 289.39 1091.83 290.724 1101.47L295.083 1104.03C293.975 1097.51 290.625 1080.1 286.71 1071.01C283.127 1062.69 271.716 1048.2 261.521 1041.38C263.578 1043.31 269.593 1049.71 277.207 1059.86Z" fill="#9BD674"/>
<path d="M316.379 1087.19C322.489 1099.05 318.847 1111.45 320.18 1121.09L324.54 1123.65C323.432 1117.13 325.97 1100.13 322.055 1091.03C318.473 1082.71 296.974 1053.48 286.779 1046.66C288.835 1048.59 310.564 1075.91 316.379 1087.19Z" fill="#9BD674"/>
<path d="M292.341 1133.03C303.286 1131.97 312.924 1128.36 321.541 1123.85L326.16 1125.91C320.211 1128.8 305.516 1134.69 295.839 1136.79C286.985 1138.71 267.989 1132.78 256.518 1128.44C259.283 1129 282.819 1133.94 292.341 1133.03Z" fill="#9BD674"/>
<g style="mix-blend-mode:multiply">
<path d="M219.061 1108.9C249.771 1150.26 325.154 1155.25 354.232 1143.2C344.822 1118.77 339.669 1080.98 296.694 1046.18C260.621 1016.96 193.897 1030.06 157.153 1033.86C168.176 1047.89 188.351 1067.53 219.061 1108.9Z" fill="url(#paint3_linear_15_203)"/>
</g>
<path d="M414.821 1095.86C392.436 1126.01 337.488 1129.65 316.292 1120.86C323.151 1103.05 326.908 1075.51 358.233 1050.14C384.527 1028.85 433.164 1038.39 459.947 1041.17C451.912 1051.39 437.206 1065.71 414.821 1095.86Z" fill="#61AB4F"/>
<path d="M379.941 1084.15C366.913 1093.11 333.206 1112.89 316.755 1120.78C328.958 1112.69 356.131 1094.64 367.198 1087.13C378.265 1079.63 411.58 1062.85 426.854 1055.4C417.461 1061.84 392.969 1075.19 379.941 1084.15Z" fill="#9BD674"/>
<path d="M415.045 1076.64C406.912 1080.33 391.236 1080.16 384.414 1079.61L381.992 1082.22C386.638 1082.45 399.105 1082.79 405.947 1081.48C412.207 1080.28 423.893 1074.64 430.123 1068.67C428.486 1069.79 423.178 1072.95 415.045 1076.64Z" fill="#9BD674"/>
<path d="M378.279 1100.24C367.585 1101.3 362.92 1099.35 356.099 1098.8L352.325 1100.66C356.97 1100.89 369.848 1105.19 376.69 1103.88C382.949 1102.68 396.094 1100.7 402.324 1094.73C400.687 1095.85 387.167 1099.37 378.279 1100.24Z" fill="#9BD674"/>
<path d="M389.02 1060.63C382.721 1067.41 381.961 1075.2 378.526 1081.4L372.692 1084.57C375.156 1080.43 381.913 1063.88 386.963 1058.72C391.582 1054 403.743 1043.73 412.465 1041.77C410.56 1042.55 395.329 1053.84 389.02 1060.63Z" fill="#9BD674"/>
<path d="M372.438 1060.12C366.888 1067.52 363.557 1083.42 362.585 1090.44L359.407 1092.31C360.215 1087.56 362.657 1074.87 365.511 1068.24C368.122 1062.18 376.44 1051.61 383.871 1046.64C382.372 1048.05 377.987 1052.71 372.438 1060.12Z" fill="#9BD674"/>
<path d="M343.885 1080.04C339.432 1088.68 342.086 1097.72 341.114 1104.75L337.937 1106.61C338.744 1101.86 336.894 1089.47 339.748 1082.84C342.359 1076.77 358.03 1055.47 365.461 1050.5C363.962 1051.9 348.124 1071.81 343.885 1080.04Z" fill="#9BD674"/>
<path d="M361.405 1113.45C353.427 1112.68 346.402 1110.05 340.12 1106.76L336.754 1108.26C341.09 1110.36 351.801 1114.66 358.856 1116.19C365.309 1117.59 379.156 1113.27 387.518 1110.11C385.502 1110.51 368.346 1114.12 361.405 1113.45Z" fill="#9BD674"/>
<g style="mix-blend-mode:multiply">
<path d="M414.821 1095.86C392.436 1126.01 337.488 1129.65 316.292 1120.86C323.151 1103.05 326.908 1075.51 358.233 1050.14C384.527 1028.85 433.164 1038.39 459.947 1041.17C451.912 1051.39 437.206 1065.71 414.821 1095.86Z" fill="url(#paint4_linear_15_203)"/>
</g>
<g style="mix-blend-mode:multiply">
<path d="M1335.75 1592.73C1257.81 1641.47 1171.03 1674.37 1080.37 1689.57C989.709 1704.77 896.943 1701.96 807.368 1681.3C717.793 1660.65 633.163 1622.56 558.31 1569.2C483.457 1515.84 419.847 1448.26 371.112 1370.31C322.377 1292.37 289.471 1205.59 274.274 1114.93C259.076 1024.27 261.884 931.504 282.537 841.929C303.19 752.354 341.285 667.724 394.645 592.871C448.005 518.018 515.586 454.408 593.529 405.673C593.529 405.673 453.121 761.06 593.529 1030.2C752.335 1334.61 1335.75 1592.73 1335.75 1592.73Z" fill="#939EC7" fill-opacity="0.3"/>
</g>
<path d="M1618.14 1060.41C1628.54 1060.35 1684 1007.98 1759.64 1007.55C1812.62 1007.24 1863.96 937.622 1843.32 916.102C1822.68 894.581 1739.19 927.304 1717.66 947.944C1674.61 989.236 1628.39 1034.33 1618.14 1060.41Z" fill="#A4B6FE"/>
<path d="M1724.46 1069.54C1801.06 1063.2 1861.35 1078.05 1899.63 1109.1C1924.74 1129.48 1977.6 1172.75 1925.21 1202.63C1871.15 1233.46 1796.28 1186.67 1749.8 1208.66C1696.76 1233.75 1631.41 1347.05 1646.4 1386.28C1661.4 1425.51 1727.56 1302.34 1785.14 1319.33C1864.18 1342.65 1640.69 1629.02 1499.12 1712.36C1188 1895.51 991.696 1835.66 874.008 1807.84C631.053 1750.42 365.952 1649.77 372.536 1599.58C383.479 1516.17 602.688 1685.69 608.791 1651.24C618.913 1594.09 237.654 1518.95 351.76 1425.38C390.883 1393.3 560.743 1594.47 579.921 1548.29C589.284 1525.75 245.792 1320.73 253.089 1245.8C259.959 1175.26 402.781 1245.17 435.737 1306.61C459.802 1351.47 950.296 1678.53 1164.19 1609.14C1497.55 1500.99 1467.09 1090.83 1724.46 1069.54Z" fill="url(#paint5_linear_15_203)"/>
<ellipse cx="39.5" cy="60.5" rx="39.5" ry="60.5" transform="matrix(-0.570817 0.821077 0.821077 0.570817 234.541 1320.01)" fill="#4E71EF"/>
<path d="M1655.86 1086.12C1725.02 1051.98 1819.27 1071.12 1857.75 1084.96C1813.27 1090.9 1690.82 1114.3 1646.84 1140.96C1570.35 1187.32 1477.62 1348.02 1417.78 1398.73C1457.66 1325.68 1536.98 1144.81 1655.86 1086.12Z" fill="#C7D3FF"/>
<ellipse cx="80" cy="40" rx="80" ry="40" transform="matrix(-0.747996 0.663703 0.663703 0.747996 1681.44 1075.27)" fill="#C7D3FF"/>
<path d="M1117.03 1607.35C1203.39 1590.47 1322.71 1517.86 1355.13 1486.91C1316.56 1531.63 1255.04 1668.32 1052.88 1661.34C922.078 1656.82 708.112 1489.83 614.547 1439.23C717.981 1482.19 979.697 1634.19 1117.03 1607.35Z" fill="#C7D3FF"/>
<circle cx="1611.97" cy="426.201" r="64" fill="url(#paint6_linear_15_203)"/>
<path d="M1665.16 435.766C1657.49 471.811 1642.64 468.093 1642.64 468.093C1642.64 468.093 1650.14 446.236 1650.14 431.201C1651.27 405.681 1643.77 395.5 1651.65 390.963C1661.43 385.336 1670.23 411.947 1665.16 435.766Z" fill="#7D96F3"/>
<g style="mix-blend-mode:multiply">
<path d="M1654.81 473.785C1641.85 484.797 1624.21 491.759 1607.26 490.381C1590.3 489.002 1574.59 480.946 1563.58 467.985C1552.57 455.024 1546.97 436.227 1548.35 419.275C1549.73 402.324 1558.48 387.322 1571.44 376.31C1571.44 376.31 1569.89 425.886 1588.02 447.224C1606.15 468.562 1654.81 473.785 1654.81 473.785Z" fill="#4B62B9" fill-opacity="0.2"/>
</g>
<path d="M1566.77 393.329C1568.32 385.858 1579.02 380.255 1584.17 378.387C1584.82 376.312 1587.14 371.788 1591.26 370.294C1596.42 368.426 1608.12 366.077 1605.44 367.804L1605.44 367.804C1603.51 369.049 1593.84 375.274 1596.42 375.897C1605.44 373.407 1614.46 370.294 1618.97 371.539C1622.97 372.642 1607.8 376.727 1605.44 378.387C1607.8 380.047 1613.56 384.613 1617.68 389.594C1622.84 395.819 1602.86 389.594 1596.42 389.594C1589.97 389.594 1590.62 399.555 1584.17 400.177C1579.02 400.675 1582.02 393.329 1584.17 389.594C1577.73 393.952 1565.23 400.8 1566.77 393.329Z" fill="#293E91"/>
<circle cx="64" cy="64" r="64" transform="matrix(-0.719136 0.69487 0.69487 0.719136 1528.69 578.496)" fill="url(#paint7_linear_15_203)"/>
<path d="M1495.53 712.833C1526.09 733.426 1534.19 720.431 1534.19 720.431C1534.19 720.431 1513.61 709.924 1503.16 699.112C1484.62 681.542 1482.94 669.009 1474.12 671.224C1463.17 673.97 1475.34 699.224 1495.53 712.833Z" fill="#7D96F3"/>
<g style="mix-blend-mode:multiply">
<path d="M1529.39 732.978C1546.37 731.891 1563.89 724.642 1575.12 711.872C1586.35 699.101 1592.05 682.391 1590.97 665.418C1589.88 648.445 1580.84 631.04 1568.07 619.807C1555.3 608.574 1538.59 603.864 1521.61 604.951C1521.61 604.951 1557.18 639.525 1558.97 667.468C1560.76 695.41 1529.39 732.978 1529.39 732.978Z" fill="#4B62B9" fill-opacity="0.2"/>
</g>
<path d="M1536.8 613.947C1530.49 609.649 1518.91 613.053 1513.9 615.293C1512 614.248 1507.18 612.607 1503.18 614.398C1498.17 616.638 1488.13 623.081 1491.25 622.459L1491.25 622.459C1493.51 622.011 1504.79 619.771 1503.37 622.01C1495.15 626.489 1486.5 630.52 1484.12 634.55C1482.01 638.12 1495.75 630.519 1498.61 630.07C1498.06 632.906 1497.09 640.19 1497.59 646.638C1498.21 654.698 1508.25 636.338 1512.88 631.86C1517.52 627.382 1523.98 634.993 1529.04 630.963C1533.1 627.738 1525.83 624.545 1521.69 623.351C1529.35 622.007 1543.1 618.244 1536.8 613.947Z" fill="#293E91"/>
<circle cx="1653.8" cy="857.003" r="52.2409" transform="rotate(44.0168 1653.8 857.003)" fill="url(#paint8_linear_15_203)"/>
<path d="M1679.6 892.789C1654.66 909.598 1648.05 898.991 1648.05 898.991C1648.05 898.991 1664.85 890.415 1673.37 881.589C1688.51 867.247 1689.88 857.017 1697.08 858.825C1706.01 861.067 1696.09 881.681 1679.6 892.789Z" fill="#7D96F3"/>
<g style="mix-blend-mode:multiply">
<path d="M1651.96 909.233C1638.11 908.346 1623.81 902.428 1614.64 892.004C1605.47 881.58 1600.81 867.941 1601.7 854.086C1602.59 840.232 1609.97 826.024 1620.39 816.855C1630.81 807.686 1644.46 803.842 1658.31 804.729C1658.31 804.729 1629.28 832.951 1627.82 855.759C1626.36 878.567 1651.96 909.233 1651.96 909.233Z" fill="#4B62B9" fill-opacity="0.2"/>
</g>
<path d="M1645.92 812.072C1651.06 808.564 1660.52 811.342 1664.61 813.17C1666.16 812.318 1670.09 810.978 1673.36 812.44C1677.44 814.268 1685.65 819.527 1683.09 819.02L1683.09 819.02C1681.25 818.654 1672.05 816.826 1673.21 818.654C1679.92 822.309 1686.98 825.6 1688.92 828.889C1690.64 831.804 1679.42 825.599 1677.09 825.233C1677.54 827.548 1678.33 833.493 1677.92 838.756C1677.42 845.335 1669.22 830.349 1665.44 826.694C1661.66 823.038 1656.38 829.251 1652.25 825.961C1648.94 823.329 1654.87 820.723 1658.25 819.749C1652 818.651 1640.77 815.58 1645.92 812.072Z" fill="#293E91"/>
<circle cx="354.805" cy="1118" r="52.2409" transform="rotate(44.0168 354.805 1118)" fill="url(#paint9_linear_15_203)"/>
<path d="M380.602 1153.79C355.656 1170.6 349.047 1159.99 349.047 1159.99C349.047 1159.99 365.847 1151.41 374.374 1142.59C389.51 1128.25 390.882 1118.02 398.082 1119.82C407.013 1122.07 397.087 1142.68 380.602 1153.79Z" fill="#7D96F3"/>
<g style="mix-blend-mode:multiply">
<path d="M352.962 1170.23C339.108 1169.35 324.806 1163.43 315.636 1153C306.467 1142.58 301.815 1128.94 302.702 1115.09C303.589 1101.23 310.966 1087.02 321.39 1077.86C331.814 1068.69 345.458 1064.84 359.313 1065.73C359.313 1065.73 330.282 1093.95 328.821 1116.76C327.36 1139.57 352.962 1170.23 352.962 1170.23Z" fill="#4B62B9" fill-opacity="0.2"/>
</g>
<path d="M346.918 1073.07C352.063 1069.56 361.521 1072.34 365.607 1074.17C367.162 1073.32 371.09 1071.98 374.359 1073.44C378.444 1075.27 386.647 1080.53 384.094 1080.02L384.094 1080.02C382.252 1079.65 373.047 1077.83 374.207 1079.65C380.916 1083.31 387.978 1086.6 389.919 1089.89C391.64 1092.8 380.42 1086.6 378.091 1086.23C378.536 1088.55 379.326 1094.49 378.922 1099.76C378.418 1106.34 370.221 1091.35 366.438 1087.69C362.655 1084.04 357.384 1090.25 353.248 1086.96C349.939 1084.33 355.871 1081.72 359.251 1080.75C352.996 1079.65 341.772 1076.58 346.918 1073.07Z" fill="#293E91"/>
<circle cx="263.273" cy="1189.59" r="52.2409" transform="rotate(-19.2734 263.273 1189.59)" fill="url(#paint10_linear_15_203)"/>
<path d="M306.836 1182.63C310.639 1212.47 298.193 1213.6 298.193 1213.6C298.193 1213.6 298.083 1194.74 294.032 1183.16C288.024 1163.19 279.502 1157.37 284.353 1151.75C290.37 1144.78 304.323 1162.91 306.836 1182.63Z" fill="#7D96F3"/>
<g style="mix-blend-mode:multiply">
<path d="M309.103 1214.71C302.083 1226.69 290.369 1236.8 276.935 1240.31C263.502 1243.82 249.227 1241.84 237.25 1234.82C225.272 1227.8 215.897 1214.83 212.391 1201.39C208.886 1187.96 211.584 1174.04 218.604 1162.07C218.604 1162.07 230.766 1200.68 250.484 1212.24C270.202 1223.8 309.103 1214.71 309.103 1214.71Z" fill="#4B62B9" fill-opacity="0.2"/>
</g>
<path d="M219.592 1176.44C218.771 1170.26 225.504 1163.07 228.974 1160.24C228.911 1158.46 229.48 1154.35 232.255 1152.09C235.724 1149.26 244.109 1144.3 242.509 1146.35L242.508 1146.35C241.354 1147.83 235.583 1155.23 237.737 1155.02C244.018 1150.67 250.132 1145.84 253.943 1145.58C257.32 1145.36 246.734 1152.59 245.36 1154.51C247.628 1155.15 253.294 1157.12 257.814 1159.84C263.464 1163.25 246.393 1163.84 241.427 1165.57C236.462 1167.31 239.642 1174.81 234.844 1177.03C231.006 1178.8 231.344 1172.33 231.993 1168.87C228.201 1173.97 220.413 1182.61 219.592 1176.44Z" fill="#293E91"/>
<circle cx="157.482" cy="1127.76" r="52.2409" transform="rotate(-19.2734 157.482 1127.76)" fill="url(#paint11_linear_15_203)"/>
<path d="M201.045 1120.8C204.848 1150.64 192.402 1151.77 192.402 1151.77C192.402 1151.77 192.292 1132.91 188.241 1121.33C182.233 1101.36 173.711 1095.54 178.562 1089.92C184.579 1082.95 198.532 1101.08 201.045 1120.8Z" fill="#7D96F3"/>
<g style="mix-blend-mode:multiply">
<path d="M203.312 1152.88C196.292 1164.86 184.578 1174.97 171.144 1178.48C157.711 1181.98 143.436 1180.01 131.459 1172.99C119.481 1165.97 110.106 1152.99 106.6 1139.56C103.095 1126.13 105.793 1112.21 112.813 1100.24C112.813 1100.24 124.975 1138.85 144.693 1150.41C164.411 1161.97 203.312 1152.88 203.312 1152.88Z" fill="#4B62B9" fill-opacity="0.2"/>
</g>
<path d="M113.801 1114.61C112.98 1108.43 119.713 1101.23 123.183 1098.41C123.12 1096.63 123.688 1092.52 126.464 1090.26C129.933 1087.43 138.318 1082.47 136.718 1084.52L136.717 1084.52C135.563 1086 129.792 1093.4 131.946 1093.19C138.227 1088.84 144.341 1084.01 148.152 1083.75C151.529 1083.53 140.943 1090.76 139.569 1092.68C141.837 1093.32 147.503 1095.28 152.023 1098.01C157.673 1101.42 140.602 1102 135.636 1103.74C130.671 1105.48 133.851 1112.98 129.053 1115.19C125.215 1116.97 125.553 1110.5 126.202 1107.04C122.41 1112.13 114.622 1120.78 113.801 1114.61Z" fill="#293E91"/>
<circle cx="76.9174" cy="76.9174" r="76.9174" transform="matrix(-0.942501 0.334204 0.334204 0.942501 1656.63 425.776)" fill="url(#paint12_linear_15_203)"/>
<path d="M1553.43 556.177C1576.59 593.926 1591.92 583.748 1591.92 583.748C1591.92 583.748 1574.65 562.002 1568.61 544.973C1557.09 516.517 1561.49 501.973 1550.74 500C1537.41 497.552 1538.12 531.231 1553.43 556.177Z" fill="#7D96F3"/>
<g style="mix-blend-mode:multiply">
<path d="M1580.43 595.082C1599.54 602.35 1622.31 603.152 1640.96 594.782C1659.61 586.412 1674.17 570.977 1681.43 551.872C1688.7 532.767 1687.49 509.228 1679.12 490.58C1670.75 471.932 1654.82 458.452 1635.71 451.184C1635.71 451.184 1657.38 506.718 1645.42 538.17C1633.45 569.622 1580.43 595.082 1580.43 595.082Z" fill="#4B62B9" fill-opacity="0.2"/>
</g>
<path d="M1647.83 468.588C1643.08 460.747 1628.71 458.697 1622.12 458.652C1620.56 456.56 1616.11 452.367 1610.84 452.332C1604.25 452.287 1590.05 454.327 1593.78 455.206L1593.78 455.206C1596.47 455.84 1609.92 459.009 1607.25 460.749C1596.03 461.552 1584.56 461.65 1579.95 464.873C1575.87 467.728 1594.69 466.263 1598.03 467.194C1596.02 470.024 1591.33 477.508 1588.66 484.806C1585.32 493.929 1605.45 478.852 1612.75 476.264C1620.05 473.675 1623.32 485.217 1630.87 483.334C1636.91 481.828 1630.56 474.714 1626.62 471.346C1635.67 473.694 1652.59 476.429 1647.83 468.588Z" fill="#293E91"/>
<circle cx="97.7762" cy="97.7762" r="97.7762" transform="matrix(-0.942501 0.334204 0.334204 0.942501 357.246 767.239)" fill="url(#paint13_linear_15_203)"/>
<path d="M226.059 933.002C255.504 980.988 274.992 968.05 274.992 968.05C274.992 968.05 253.033 940.408 245.357 918.76C230.705 882.587 236.307 864.099 222.64 861.59C205.69 858.479 206.601 901.292 226.059 933.002Z" fill="#7D96F3"/>
<g style="mix-blend-mode:multiply">
<path d="M260.381 982.458C284.667 991.697 313.618 992.716 337.323 982.077C361.029 971.437 379.537 951.816 388.776 927.53C398.015 903.244 396.474 873.322 385.835 849.617C375.195 825.911 354.94 808.776 330.654 799.537C330.654 799.537 358.201 870.131 342.991 910.112C327.781 950.093 260.381 982.458 260.381 982.458Z" fill="#4B62B9" fill-opacity="0.2"/>
</g>
<path d="M346.063 821.66C340.022 811.693 321.756 809.087 313.379 809.03C311.392 806.371 305.741 801.041 299.04 800.996C290.662 800.939 272.61 803.532 277.353 804.649L277.353 804.649C280.774 805.455 297.87 809.484 294.477 811.696C280.213 812.717 265.632 812.842 259.772 816.938C254.581 820.567 278.506 818.705 282.756 819.889C280.202 823.486 274.243 832.999 270.847 842.277C266.602 853.874 292.19 834.708 301.47 831.418C310.75 828.127 314.908 842.8 324.505 840.406C332.182 838.491 324.101 829.448 319.101 825.166C330.606 828.151 352.105 831.628 346.063 821.66Z" fill="#293E91"/>
<circle cx="97.7762" cy="97.7762" r="97.7762" transform="matrix(-0.942501 0.334204 0.334204 0.942501 513.949 1175.64)" fill="url(#paint14_linear_15_203)"/>
<path d="M382.762 1341.41C412.208 1389.39 431.696 1376.46 431.696 1376.46C431.696 1376.46 409.737 1348.81 402.06 1327.16C387.408 1290.99 393.01 1272.5 379.344 1270C362.393 1266.88 363.304 1309.7 382.762 1341.41Z" fill="#7D96F3"/>
<g style="mix-blend-mode:multiply">
<path d="M417.084 1390.86C441.37 1400.1 470.321 1401.12 494.027 1390.48C517.732 1379.84 536.24 1360.22 545.479 1335.94C554.718 1311.65 553.178 1281.73 542.538 1258.02C531.898 1234.32 511.643 1217.18 487.357 1207.94C487.357 1207.94 514.904 1278.54 499.694 1318.52C484.484 1358.5 417.084 1390.86 417.084 1390.86Z" fill="#4B62B9" fill-opacity="0.2"/>
</g>
<path d="M502.766 1230.07C496.725 1220.1 478.46 1217.49 470.082 1217.44C468.095 1214.78 462.445 1209.45 455.743 1209.4C447.365 1209.34 429.313 1211.94 434.056 1213.05L434.056 1213.05C437.477 1213.86 454.574 1217.89 451.18 1220.1C436.917 1221.12 422.336 1221.25 416.475 1225.34C411.284 1228.97 435.209 1227.11 439.46 1228.29C436.905 1231.89 430.946 1241.4 427.55 1250.68C423.305 1262.28 448.893 1243.11 458.173 1239.82C467.453 1236.53 471.611 1251.2 481.208 1248.81C488.885 1246.9 480.804 1237.85 475.804 1233.57C487.309 1236.56 508.808 1240.03 502.766 1230.07Z" fill="#293E91"/>
</g>
<defs>
<linearGradient id="paint0_linear_15_203" x1="1596.92" y1="481.671" x2="1811.17" y2="405.116" gradientUnits="userSpaceOnUse">
<stop stop-color="#427B34"/>
<stop offset="1" stop-color="#61AB4F" stop-opacity="0"/>
</linearGradient>
<linearGradient id="paint1_linear_15_203" x1="1673.65" y1="852.478" x2="1746.61" y2="686.191" gradientUnits="userSpaceOnUse">
<stop stop-color="#427B34"/>
<stop offset="1" stop-color="#61AB4F" stop-opacity="0"/>
</linearGradient>
<linearGradient id="paint2_linear_15_203" x1="1642.71" y1="442.013" x2="1584.92" y2="221.956" gradientUnits="userSpaceOnUse">
<stop stop-color="#427B34"/>
<stop offset="1" stop-color="#61AB4F" stop-opacity="0"/>
</linearGradient>
<linearGradient id="paint3_linear_15_203" x1="347.514" y1="1135.41" x2="145.583" y2="1030.59" gradientUnits="userSpaceOnUse">
<stop stop-color="#427B34"/>
<stop offset="1" stop-color="#61AB4F" stop-opacity="0"/>
</linearGradient>
<linearGradient id="paint4_linear_15_203" x1="321.189" y1="1115.19" x2="468.381" y2="1038.78" gradientUnits="userSpaceOnUse">
<stop stop-color="#427B34"/>
<stop offset="1" stop-color="#61AB4F" stop-opacity="0"/>
</linearGradient>
<linearGradient id="paint5_linear_15_203" x1="178.448" y1="1461.35" x2="1995.36" y2="1302.14" gradientUnits="userSpaceOnUse">
<stop stop-color="#4267ED"/>
<stop offset="1" stop-color="#AABBFF"/>
</linearGradient>
<linearGradient id="paint6_linear_15_203" x1="1611.97" y1="362.201" x2="1611.97" y2="490.201" gradientUnits="userSpaceOnUse">
<stop stop-color="#5670D8"/>
<stop offset="1" stop-color="#2A3D88"/>
</linearGradient>
<linearGradient id="paint7_linear_15_203" x1="64" y1="0" x2="64" y2="128" gradientUnits="userSpaceOnUse">
<stop stop-color="#5670D8"/>
<stop offset="1" stop-color="#2A3D88"/>
</linearGradient>
<linearGradient id="paint8_linear_15_203" x1="1653.8" y1="804.763" x2="1653.8" y2="909.244" gradientUnits="userSpaceOnUse">
<stop stop-color="#5670D8"/>
<stop offset="1" stop-color="#2A3D88"/>
</linearGradient>
<linearGradient id="paint9_linear_15_203" x1="354.805" y1="1065.76" x2="354.805" y2="1170.24" gradientUnits="userSpaceOnUse">
<stop stop-color="#5670D8"/>
<stop offset="1" stop-color="#2A3D88"/>
</linearGradient>
<linearGradient id="paint10_linear_15_203" x1="263.273" y1="1137.35" x2="263.273" y2="1241.83" gradientUnits="userSpaceOnUse">
<stop stop-color="#5670D8"/>
<stop offset="1" stop-color="#2A3D88"/>
</linearGradient>
<linearGradient id="paint11_linear_15_203" x1="157.482" y1="1075.52" x2="157.482" y2="1180" gradientUnits="userSpaceOnUse">
<stop stop-color="#5670D8"/>
<stop offset="1" stop-color="#2A3D88"/>
</linearGradient>
<linearGradient id="paint12_linear_15_203" x1="76.9174" y1="0" x2="76.9174" y2="153.835" gradientUnits="userSpaceOnUse">
<stop stop-color="#5670D8"/>
<stop offset="1" stop-color="#2A3D88"/>
</linearGradient>
<linearGradient id="paint13_linear_15_203" x1="97.7762" y1="0" x2="97.7762" y2="195.552" gradientUnits="userSpaceOnUse">
<stop stop-color="#5670D8"/>
<stop offset="1" stop-color="#2A3D88"/>
</linearGradient>
<linearGradient id="paint14_linear_15_203" x1="97.7762" y1="0" x2="97.7762" y2="195.552" gradientUnits="userSpaceOnUse">
<stop stop-color="#5670D8"/>
<stop offset="1" stop-color="#2A3D88"/>
</linearGradient>
<clipPath id="clip0_15_203">
<rect width="2000" height="2000" fill="white"/>
</clipPath>
</defs>
</svg>
