<svg width="2000" height="2000" viewBox="0 0 2000 2000" fill="none" xmlns="http://www.w3.org/2000/svg">
<circle cx="1129" cy="485" r="272" fill="#FFAAAA"/>
<path d="M1059 192.5C1111.5 157.039 1226 178.5 1257 189C1288 199.5 1355.92 241.656 1417.5 281.5C1461.5 309.971 1547 378 1547 378C1554.17 382.833 1566.4 396.7 1558 413.5C1549.6 430.3 1484 391 1484 391C1484 391 1425.9 359.3 1437.5 392.5C1452 434 1457.5 438 1445 445C1428.06 454.487 1383 382 1374 372.5C1366.8 364.9 1365.17 374.833 1366 378C1368.17 382.5 1370.22 403.02 1350.5 396C1321 385.5 1244.5 267.5 1234 260C1225.6 254 1220.67 257.5 1221.5 262.5C1225.33 279.333 1241.7 313.1 1220.5 319.5C1183.5 330.67 1109.5 252 1089.5 245.5C1069.5 239 1075 272 1016.5 276C993.258 277.589 988.5 273.333 987 268C984.167 258.5 994.612 235.99 1059 192.5Z" fill="#872F2F"/>
<path d="M1220.5 179.5C1309 195.337 1367.5 245.167 1401 267.5C1434.5 289.833 1521 358 1521 358C1482.33 338.167 1399.42 284.833 1357 265C1318.5 247 1201.33 192.5 1147.5 173C1150.83 173 1190 174.042 1220.5 179.5Z" fill="#BB4141"/>
<path d="M1014.5 252.5C994.5 256.5 1022.83 230.333 1032.5 211.5C1032.5 211.5 1002.19 230.066 991.5 248.5C982.403 264.192 984.362 277.5 1002.5 277.5C1020 277.5 1039.13 275.171 1062.5 263C1086.5 250.5 1080 245.936 1094.5 253C1102.82 257.052 1245.43 375.639 1235 320C1208 176 1314.5 401.5 1354.5 399C1366.98 398.22 1374 386.5 1369.5 370C1365 353.5 1430.96 469.261 1449.5 443C1461.5 426 1432.59 408.402 1448 384C1454 374.5 1532.5 416.55 1528 412.5C1518 403.5 1430.5 349 1411.5 346C1392.5 343 1419 379.5 1411.5 386.5C1404 393.5 1380.5 336 1354.5 320C1328.5 304 1344.5 322.5 1334 336C1323.5 349.5 1240 231.5 1212.5 225.5C1185 219.5 1194 254.5 1187 268C1180 281.5 1106.5 228.5 1094.5 220.5C1082.5 212.5 1039.5 247.5 1014.5 252.5Z" fill="#692424"/>
<ellipse cx="1343.95" cy="264.879" rx="52" ry="24.5" transform="rotate(33.0187 1343.95 264.879)" fill="#BB4141"/>
<g filter="url(#filter0_d_1_2)">
<circle cx="750" cy="424" r="250" fill="#FFCDCD"/>
<path d="M617 205C539.4 238.6 488 351 495 397C498.035 416.946 524 427 545 410C567.194 392.034 571 377 592 347C599.333 332.333 627 300 637 300C660.345 300 631 349 663 347C695 345 707 285 719 266C731 247 778 271 806 266C834 261 786 233 798 225C807.6 218.6 837.955 245.345 862 258C900 278 935.6 283.2 942 252C948.4 220.8 867 182 774 171C709 171 694.6 171.4 617 205Z" fill="url(#paint0_linear_1_2)"/>
<path d="M523.5 297C546.455 254.203 577 229.333 589 221.5C589 221.5 566.5 264 551.5 297C536.5 330 534.6 344.4 545 354C555.4 363.6 613.5 304.661 625.5 300.696C637.5 296.732 639 300.5 636.5 300C634 299.5 619.5 311 614.5 317C603.147 330.624 580.167 364.333 571.5 380C555.5 407.5 527.5 429 506 414.5C480.46 397.275 494 352 523.5 297Z" fill="#7F2C2C"/>
<path d="M647 318.5C647 312.5 649.5 303.5 638 300C638 300 655 301.5 659.5 307C664 312.5 660.238 325.481 667 330.5C673.762 335.519 711.5 277.5 714.5 272.5C717.5 267.5 717.5 268.5 719.5 265.5C721.5 262.5 712.654 279.658 711 284C707 294.5 704.141 300.69 700 310.5C690.5 333.5 673.67 350.578 656 346.5C643 343.5 647 325.019 647 318.5Z" fill="#7F2C2C"/>
<path d="M794.5 172C684.5 164.5 667.833 185.833 642 194.5C669 190 744.229 188.805 782.5 193C819 197 888.167 204.667 908.5 210.5C898 206 857.121 176.27 794.5 172Z" fill="#E04E4E"/>
<ellipse cx="764.5" cy="196" rx="54.5" ry="17" fill="#E04E4E"/>
</g>
<circle cx="1003" cy="1016" r="700" fill="#9B1C2E"/>
<circle cx="1001.13" cy="1007.6" r="590.833" fill="white" stroke="#7B1625" stroke-width="15"/>
<path d="M760.333 1262.87C766.989 1262.9 773.524 1261.09 779.221 1257.65C784.918 1254.21 789.556 1249.26 792.627 1243.36L878.493 1080.31H745.773C736.119 1080.31 726.861 1076.47 720.035 1069.65C713.208 1062.82 709.373 1053.56 709.373 1043.91V970.827C709.373 966.047 710.315 961.313 712.144 956.897C713.973 952.481 716.655 948.468 720.035 945.088C723.415 941.708 727.427 939.027 731.844 937.197C736.26 935.368 740.993 934.427 745.773 934.427H955.68L1118.73 625.493C1121.85 619.628 1126.5 614.718 1132.19 611.283C1137.87 607.848 1144.38 606.018 1151.03 605.987H1425.8C1329.85 504.729 1200.83 441.155 1062.08 426.764C923.329 412.374 784.009 448.117 669.323 527.529C554.637 606.941 472.16 724.776 436.811 859.719C401.462 994.662 415.576 1137.8 476.6 1263.24H760.333V1262.87Z" fill="#9B1C2E"/>
<path d="M1242.49 751.493C1235.8 751.492 1229.24 753.362 1223.55 756.891C1217.86 760.42 1213.27 765.468 1210.29 771.467L1124.33 934.053H1257.05C1266.69 934.078 1275.93 937.924 1282.73 944.748C1289.54 951.571 1293.36 960.816 1293.36 970.453V1043.53C1293.36 1053.17 1289.54 1062.42 1282.73 1069.24C1275.93 1076.06 1266.69 1079.91 1257.05 1079.93H1047.15L884.093 1388.77C880.998 1394.66 876.354 1399.59 870.663 1403.02C864.972 1406.46 858.449 1408.28 851.8 1408.28H577.027C672.959 1509.57 801.978 1573.18 940.74 1587.6C1079.5 1602.01 1218.84 1566.29 1333.55 1486.88C1448.25 1407.47 1530.75 1289.63 1566.11 1154.68C1601.47 1019.72 1587.35 876.571 1526.32 751.12H1242.49V751.493Z" fill="#9B1C2E"/>
<g style="mix-blend-mode:multiply">
<path d="M1111 1381C857 1475 518.5 1294.17 318.5 1163.5C318.5 1163.5 343.5 1349 509 1513C674.5 1677 832 1710 1004 1718C1103 1722.6 1424 1683 1609 1365C1789.13 1055.37 1660 777 1660 777C1517 1062 1472.28 1247.3 1111 1381Z" fill="#912635" fill-opacity="0.5"/>
</g>
<path d="M304 611C368 625.4 364 973 354 1145C354 1157.33 351.7 1185 368.5 1185C385.3 1185 383.075 1171.35 391 1144.63C407.5 1089 419.2 972.6 452 959C504 937.439 512.333 998.333 504 1026C492.333 1080.67 468.4 1210.2 466 1291C463 1392 506.151 1459.8 552 1495C601.5 1533 1015 1549 1033 1566C1051 1583 1042.35 1606.69 1027 1614C1006 1624 979 1627 883 1632C787 1637 725 1626 725 1647C725 1668 771 1658.04 801 1662C854 1669 1027 1653 1169 1632C1295.03 1613.36 1291.09 1591.06 1370 1561C1454 1529 1495.6 1505.2 1566 1518C1654 1534 1572 1587.5 1572 1624C1572 1651 1605.61 1632 1649 1632C1724 1632 1761.48 1653.64 1776 1686C1811 1764 1724.67 1763.33 1678 1750C1620 1741.33 1500 1720 1370 1745C1220.62 1773.73 1241 1805.31 894 1827C606 1845 522 1741 392 1619C274.667 1508.89 175.426 1311.24 164 1085C154 887 186.667 739.667 212 667C224.667 649 240 596.6 304 611Z" fill="url(#paint1_linear_1_2)"/>
<path d="M1634.07 1541.32C1619.18 1497.99 1678.3 1464.87 1709.72 1453.73C1724.57 1444.78 1761.06 1431.21 1788.26 1448.45C1815.46 1465.68 1788.14 1503.38 1770.54 1513.99C1725.14 1541.34 1648.97 1584.65 1634.07 1541.32Z" fill="url(#paint2_linear_1_2)"/>
<ellipse cx="379.947" cy="511.093" rx="46" ry="74" transform="rotate(30.153 379.947 511.093)" fill="url(#paint3_linear_1_2)"/>
<path d="M332.395 1678.15C404.542 1767.55 581.686 1820.13 554.395 1842.15C527.105 1864.18 320.542 1851.55 248.395 1762.15C176.249 1672.76 108.395 1496.15 188.613 1470.15C236.395 1454.67 260.249 1588.76 332.395 1678.15Z" fill="url(#paint4_linear_1_2)"/>
<path d="M163 908C169.4 703.2 227.667 621.667 265 609C265 616.333 232 790 216 853C184.922 975.369 228.006 1045.63 232 1134C240 1311 441 1664.87 431 1657C407.5 1638.5 253 1527 183 1229C175.5 1203.5 156.6 1112.8 163 908Z" fill="#FF816C"/>
<ellipse cx="231.5" cy="1015.5" rx="54.5" ry="100.5" fill="#FF816C"/>
<path d="M1710.09 304.694C1679.51 312.541 1673.87 337.165 1674.87 348.497C1688.72 351.4 1715.31 357.867 1740.07 351.774C1770.79 344.212 1792.34 319.197 1806.65 305.625C1787.21 302.045 1740.68 296.848 1710.09 304.694Z" fill="url(#paint5_linear_1_2)"/>
<path d="M1718.85 324.46C1708.62 326.235 1682.58 339.199 1675.21 345.999C1684.8 340.944 1701.37 331.167 1718.38 327.957C1737.96 324.262 1754.98 320.727 1765.67 318.874C1751.54 321.106 1729.54 322.607 1718.85 324.46Z" fill="#6FB85E"/>
<path d="M1710.09 304.694C1679.51 312.541 1673.87 337.165 1674.87 348.497C1688.72 351.4 1715.31 357.867 1740.07 351.774C1770.79 344.212 1792.34 319.197 1806.65 305.625C1787.21 302.045 1740.68 296.848 1710.09 304.694Z" fill="#0D1A4A" fill-opacity="0.4"/>
<path d="M1756 327C1715.2 309.8 1688 332.5 1679.5 346C1692.5 361 1716.69 390.789 1749.5 405C1790.21 422.635 1835.5 413 1863 410C1844.33 389.5 1796.8 344.2 1756 327Z" fill="url(#paint6_linear_1_2)"/>
<path d="M1749 356.5C1736.07 349.798 1696 342.167 1682 343.5C1697 346 1723.79 349.143 1745.5 360C1770.5 372.5 1792.5 383 1806 390C1788.33 380.5 1762.5 363.5 1749 356.5Z" fill="#6FB85E"/>
<path d="M1627 500C1647.67 464.333 1687.8 385 1683 353C1677 313 1733 559 1723 606" stroke="url(#paint7_linear_1_2)" stroke-width="15"/>
<circle cx="1711" cy="636" r="50" fill="url(#paint8_radial_1_2)"/>
<path d="M1748 649.667C1748 668.333 1723.44 673 1718.7 673C1713.96 673 1729.5 659.5 1734.87 650.939C1740.23 642.379 1737.19 631 1741.94 631C1746.68 631 1748 640.529 1748 649.667Z" fill="#FF816C"/>
<ellipse cx="1740" cy="617" rx="6" ry="8" transform="rotate(-15.3938 1740 617)" fill="#FF816C"/>
<circle cx="1609" cy="519" r="40" fill="url(#paint9_radial_1_2)"/>
<path d="M1638.6 529.933C1638.6 544.867 1618.95 548.6 1615.16 548.6C1611.37 548.6 1623.8 537.8 1628.09 530.952C1632.38 524.103 1629.96 515 1633.75 515C1637.54 515 1638.6 522.623 1638.6 529.933Z" fill="#FF816C"/>
<ellipse cx="1632.2" cy="503.8" rx="4.8" ry="6.4" transform="rotate(-15.3938 1632.2 503.8)" fill="#FF816C"/>
<path d="M1563 1134C1556.94 1132.91 1600.5 1160.25 1586.22 1173.51C1616.27 1185.66 1669.01 1216.55 1674.35 1207.53C1679.69 1198.51 1716.46 1191.52 1731.77 1194.73C1744.45 1197.38 1754.47 1208.62 1743.12 1190.08C1731.77 1171.55 1715.17 1165.94 1695.05 1169.53C1684.03 1171.49 1673.24 1176.82 1669.68 1182.79C1668.12 1179.92 1666.87 1171.39 1674.35 1160.25C1681.83 1149.11 1704.62 1149.42 1715.08 1150.96C1708.62 1145.66 1687.84 1136.51 1656.33 1142.34C1624.81 1148.18 1625.39 1160.69 1629.62 1166.21C1612.04 1147.21 1570.34 1135.33 1563 1134Z" fill="url(#paint10_linear_1_2)"/>
<g filter="url(#filter1_d_1_2)">
<path d="M1725 1281.5C1725 1345.29 1625.68 1417 1563 1417C1500.32 1417 1498 1345.29 1498 1281.5C1498 1217.71 1548.82 1166 1611.5 1166C1674.18 1166 1725 1217.71 1725 1281.5Z" fill="url(#paint11_linear_1_2)"/>
</g>
<ellipse cx="1574.18" cy="1218.9" rx="7.25857" ry="17.3322" transform="rotate(20.3068 1574.18 1218.9)" fill="#F79585"/>
<ellipse cx="1544.39" cy="1226.8" rx="7.25857" ry="17.3322" transform="rotate(20.3068 1544.39 1226.8)" fill="#F79585"/>
<ellipse cx="1603.43" cy="1217.54" rx="7.25857" ry="17.3322" transform="rotate(20.3068 1603.43 1217.54)" fill="#F79585"/>
<ellipse cx="1632.37" cy="1219.92" rx="7.25857" ry="17.3322" transform="rotate(20.3068 1632.37 1219.92)" fill="#F79585"/>
<ellipse cx="1654.18" cy="1240.51" rx="7.25857" ry="17.3322" transform="rotate(20.3068 1654.18 1240.51)" fill="#F79585"/>
<ellipse cx="1675.69" cy="1264.83" rx="7.25857" ry="17.3322" transform="rotate(20.3068 1675.69 1264.83)" fill="#F79585"/>
<ellipse cx="1691.59" cy="1288.7" rx="7.25857" ry="17.3322" transform="rotate(20.3068 1691.59 1288.7)" fill="#F79585"/>
<ellipse cx="1560.7" cy="1269.98" rx="5.96496" ry="14.2433" transform="rotate(20.3068 1560.7 1269.98)" fill="#F79585"/>
<ellipse cx="1536.22" cy="1276.47" rx="5.96496" ry="14.2433" transform="rotate(20.3068 1536.22 1276.47)" fill="#F79585"/>
<ellipse cx="1584.74" cy="1268.86" rx="5.96496" ry="14.2433" transform="rotate(20.3068 1584.74 1268.86)" fill="#F79585"/>
<ellipse cx="1608.53" cy="1270.81" rx="5.96496" ry="14.2433" transform="rotate(20.3068 1608.53 1270.81)" fill="#F79585"/>
<ellipse cx="1626.45" cy="1287.74" rx="5.96496" ry="14.2433" transform="rotate(20.3068 1626.45 1287.74)" fill="#F79585"/>
<ellipse cx="1644.12" cy="1307.73" rx="5.96496" ry="14.2433" transform="rotate(20.3068 1644.12 1307.73)" fill="#F79585"/>
<ellipse cx="1657.19" cy="1327.34" rx="5.96496" ry="14.2433" transform="rotate(20.3068 1657.19 1327.34)" fill="#F79585"/>
<ellipse cx="1537.93" cy="1319.01" rx="6.24047" ry="14.9011" transform="rotate(20.3068 1537.93 1319.01)" fill="#F79585"/>
<ellipse cx="1563.08" cy="1317.84" rx="6.24047" ry="14.9011" transform="rotate(20.3068 1563.08 1317.84)" fill="#F79585"/>
<ellipse cx="1587.97" cy="1319.88" rx="6.24047" ry="14.9011" transform="rotate(20.3068 1587.97 1319.88)" fill="#F79585"/>
<ellipse cx="1606.72" cy="1337.58" rx="6.24047" ry="14.9011" transform="rotate(20.3068 1606.72 1337.58)" fill="#F79585"/>
<ellipse cx="1625.21" cy="1358.5" rx="6.24047" ry="14.9011" transform="rotate(20.3068 1625.21 1358.5)" fill="#F79585"/>
<ellipse cx="1552.74" cy="1362.96" rx="4.81602" ry="11.4998" transform="rotate(20.3068 1552.74 1362.96)" fill="#F79585"/>
<ellipse cx="1571.94" cy="1364.54" rx="4.81602" ry="11.4998" transform="rotate(20.3068 1571.94 1364.54)" fill="#F79585"/>
<ellipse cx="1591.51" cy="1377.46" rx="4.81602" ry="11.4998" transform="rotate(20.3068 1591.51 1377.46)" fill="#F79585"/>
<path d="M1725 1281.5C1725 1345.29 1625.68 1417 1563 1417C1500.32 1417 1498 1345.29 1498 1281.5C1498 1217.71 1548.82 1166 1611.5 1166C1674.18 1166 1725 1217.71 1725 1281.5Z" fill="url(#paint12_linear_1_2)" fill-opacity="0.5"/>
<path d="M1757.57 966.023C1762.04 965.223 1729.9 985.223 1740.43 994.924C1718.26 1003.82 1679.34 1026.41 1675.4 1019.81C1671.46 1013.21 1644.33 1008.1 1633.03 1010.44C1623.67 1012.38 1616.28 1020.61 1624.66 1007.05C1633.03 993.488 1645.28 989.39 1660.13 992.013C1668.26 993.45 1676.22 997.349 1678.85 1001.71C1680 999.612 1680.92 993.371 1675.4 985.223C1669.88 977.074 1653.07 977.3 1645.35 978.432C1650.11 974.552 1665.45 967.859 1688.7 972.127C1711.96 976.395 1711.53 985.546 1708.41 989.588C1721.38 975.684 1752.15 966.994 1757.57 966.023Z" fill="url(#paint13_linear_1_2)"/>
<path d="M1788 1033C1796 1074 1783.61 1145 1756 1145C1728.39 1145 1687 1131 1656 1074C1639.14 1043 1656 1004.76 1697 986C1756 959 1781.56 1000 1788 1033Z" fill="#9B1C2E"/>
<path d="M1781.86 1035.19C1789.01 1072.09 1777.94 1136 1753.24 1136C1728.54 1136 1691.52 1123.4 1663.8 1072.09C1648.72 1044.19 1663.8 1009.78 1700.47 992.888C1753.24 968.586 1776.1 1005.49 1781.86 1035.19Z" fill="#841525"/>
<path d="M1713.5 1056.5C1696.67 1031.51 1677.5 1005.51 1696 997C1713.5 988.949 1722.87 1019.66 1730 1045.5C1734 1060 1743.47 1088.4 1747.41 1105C1741.41 1099.28 1730 1081 1713.5 1056.5Z" fill="#6F1522"/>
<path d="M1701.7 1038.25C1700.54 1036.12 1698.99 1033.73 1697.37 1031.25C1696.77 1030.32 1696.16 1029.38 1695.56 1028.44C1693.3 1024.9 1691.11 1021.21 1689.63 1017.5C1688.15 1013.8 1687.43 1010.2 1688.01 1006.84C1688.57 1003.56 1690.37 1000.33 1694.26 997.308C1699.38 995.197 1703.62 995.751 1707.22 997.823C1710.94 999.968 1714.11 1003.82 1716.79 1008.43C1721.26 1016.15 1724.07 1025.53 1725.83 1031.38C1726.18 1032.53 1726.48 1033.55 1726.75 1034.39C1734.55 1058.78 1738.64 1078.59 1742.62 1098.65C1729.92 1081.19 1708.83 1051.41 1701.7 1038.25Z" stroke="#F79585" stroke-width="3"/>
<ellipse cx="1748.23" cy="1108.63" rx="3.33397" ry="17.7812" transform="rotate(-26.8271 1748.23 1108.63)" fill="#F69585"/>
<path d="M1678.16 1028.38C1667.35 1038.7 1665.75 1062.72 1664.81 1060.69C1664.96 1064.88 1663.04 1032.52 1673.45 1022.22C1680.76 1015 1690.34 1012.92 1690.97 1017.37C1691.59 1021.81 1688.97 1018.06 1678.16 1028.38Z" fill="#F69585"/>
<path d="M1687.09 1043.21C1676.91 1053.16 1675.71 1076.64 1674.79 1074.64C1674.99 1078.73 1672.71 1047.05 1682.52 1037.13C1689.4 1030.16 1698.52 1028.26 1699.18 1032.62C1699.83 1036.97 1697.27 1033.27 1687.09 1043.21Z" fill="#F69585"/>
<path d="M1695.2 1057.12C1685.34 1066.62 1684 1088.84 1683.13 1086.96C1683.29 1090.83 1681.36 1060.87 1690.85 1051.4C1697.51 1044.75 1706.28 1042.88 1706.88 1047C1707.48 1051.11 1705.05 1047.63 1695.2 1057.12Z" fill="#F69585"/>
<path d="M1703.62 1069.67C1693.34 1079.54 1691.9 1102.6 1690.99 1100.64C1691.15 1104.66 1689.21 1073.59 1699.11 1063.74C1706.06 1056.84 1715.2 1054.88 1715.81 1059.14C1716.42 1063.41 1713.9 1059.8 1703.62 1069.67Z" fill="#F69585"/>
<path d="M1712.15 1081.67C1702.85 1090.82 1701.84 1112.52 1700.99 1110.66C1701.19 1114.45 1698.97 1085.16 1707.93 1076.03C1714.21 1069.62 1722.58 1067.9 1723.2 1071.93C1723.82 1075.95 1721.46 1072.52 1712.15 1081.67Z" fill="#F69585"/>
<path d="M1719.46 1090.4C1711.56 1099.76 1712.39 1119.59 1711.44 1118.01C1711.94 1121.43 1707.49 1095.04 1715.07 1085.74C1720.4 1079.21 1728.03 1076.71 1728.94 1080.31C1729.84 1083.9 1727.36 1081.04 1719.46 1090.4Z" fill="#F69585"/>
<path d="M1728.75 1098.14C1724.09 1109.47 1730.95 1128.1 1729.56 1126.88C1731.08 1129.98 1718.77 1106.22 1723.15 1095.05C1726.22 1087.2 1732.72 1082.49 1734.68 1085.64C1736.64 1088.78 1733.41 1086.81 1728.75 1098.14Z" fill="#F69585"/>
<path d="M1732.49 1005.85C1746.33 1003.03 1766.6 1015.38 1765.43 1013.47C1768.75 1015.97 1743.5 996.052 1729.89 998.572C1720.33 1000.34 1713.8 1006.86 1717.08 1009.88C1720.36 1012.91 1718.65 1008.67 1732.49 1005.85Z" fill="#F69585"/>
<path d="M1738.81 1022.16C1752.58 1019.3 1772.65 1031.4 1771.5 1029.51C1774.78 1031.97 1749.81 1012.43 1736.26 1014.99C1726.76 1016.79 1720.23 1023.26 1723.48 1026.23C1726.72 1029.2 1725.05 1025.02 1738.81 1022.16Z" fill="#F69585"/>
<path d="M1744.27 1037.7C1757.63 1034.76 1776.88 1045.97 1775.79 1044.2C1778.93 1046.48 1755.06 1028.26 1741.92 1030.91C1732.69 1032.77 1726.27 1039.03 1729.37 1041.81C1732.46 1044.59 1730.91 1040.64 1744.27 1037.7Z" fill="#F69585"/>
<path d="M1747.97 1051.48C1761.89 1048.4 1781.88 1059.98 1780.75 1058.14C1784.01 1060.5 1759.22 1041.66 1745.54 1044.45C1735.94 1046.4 1729.24 1052.92 1732.45 1055.79C1735.67 1058.67 1734.06 1054.57 1747.97 1051.48Z" fill="#F69585"/>
<path d="M1750.56 1062.95C1763.33 1060.29 1781.94 1071.47 1780.88 1069.73C1783.91 1072 1760.77 1053.92 1748.2 1056.31C1739.38 1057.99 1733.32 1064 1736.32 1066.74C1739.33 1069.49 1737.78 1065.62 1750.56 1062.95Z" fill="#F69585"/>
<path d="M1752.41 1076.05C1764.58 1074.66 1780.63 1086.35 1779.83 1084.68C1782.4 1086.99 1762.91 1068.66 1750.96 1069.81C1742.58 1070.62 1736.27 1075.59 1738.76 1078.34C1741.25 1081.08 1740.24 1077.43 1752.41 1076.05Z" fill="#F69585"/>
<path d="M1754.31 1087.45C1766.32 1089.85 1778.03 1105.89 1777.78 1104.05C1779.52 1107.04 1766.57 1083.62 1754.84 1081.07C1746.61 1079.27 1739.09 1082.08 1740.62 1085.45C1742.14 1088.83 1742.3 1085.05 1754.31 1087.45Z" fill="#F69585"/>
<path d="M1781.86 1035.19C1789.01 1072.09 1777.94 1136 1753.24 1136C1728.54 1136 1691.52 1123.4 1663.8 1072.09C1648.72 1044.19 1663.8 1009.78 1700.47 992.888C1753.24 968.586 1776.1 1005.49 1781.86 1035.19Z" fill="url(#paint14_linear_1_2)"/>
<path d="M1726.65 751.021C1722.61 750.301 1751.64 768.29 1742.13 777.015C1762.15 785.013 1797.3 805.333 1800.86 799.4C1804.42 793.466 1828.93 788.869 1839.13 790.975C1847.59 792.72 1854.26 800.119 1846.7 787.921C1839.13 775.724 1828.07 772.038 1814.66 774.397C1807.31 775.69 1800.12 779.196 1797.75 783.122C1796.71 781.232 1795.88 775.619 1800.86 768.29C1805.85 760.961 1821.04 761.164 1828.01 762.182C1823.71 758.692 1809.85 752.672 1788.85 756.511C1767.85 760.35 1768.23 768.581 1771.05 772.216C1759.33 759.71 1731.54 751.894 1726.65 751.021Z" fill="url(#paint15_linear_1_2)"/>
<path d="M1699.16 811.263C1691.94 848.14 1703.12 912 1728.07 912C1753.01 912 1790.39 899.408 1818.39 848.14C1833.62 820.257 1818.39 785.865 1781.36 768.989C1728.07 744.704 1704.98 781.581 1699.16 811.263Z" fill="#9B1C2E"/>
<path d="M1704.71 813.234C1698.25 846.426 1708.25 903.905 1730.56 903.905C1752.87 903.905 1786.3 892.571 1811.35 846.426C1824.97 821.33 1811.35 790.374 1778.22 775.184C1730.56 753.326 1709.91 786.518 1704.71 813.234Z" fill="#841525"/>
<path d="M1766.45 832.399C1781.65 809.926 1798.97 786.538 1782.26 778.883C1766.45 771.642 1757.99 799.26 1751.55 822.506C1747.94 835.547 1739.38 861.093 1735.82 876.022C1741.24 870.88 1751.55 854.436 1766.45 832.399Z" fill="#6F1522"/>
<path d="M1732.4 877.932C1728.39 885.814 1726.35 892.81 1727.84 893.557C1729.32 894.305 1733.77 888.521 1737.77 880.639C1741.77 872.757 1743.82 865.761 1742.33 865.014C1740.85 864.266 1736.4 870.05 1732.4 877.932Z" fill="#F69585"/>
<path d="M1798.37 807.106C1808.14 816.388 1809.58 837.996 1810.43 836.168C1810.29 839.932 1812.03 810.827 1802.62 801.568C1796.02 795.073 1787.37 793.206 1786.8 797.202C1786.24 801.197 1788.61 797.823 1798.37 807.106Z" fill="#F69585"/>
<path d="M1790.3 820.448C1799.5 829.395 1800.58 850.512 1801.42 848.712C1801.23 852.397 1803.29 823.901 1794.44 814.973C1788.22 808.709 1779.98 807.001 1779.39 810.918C1778.8 814.834 1781.11 811.501 1790.3 820.448Z" fill="#F69585"/>
<path d="M1782.98 832.959C1791.88 841.499 1793.09 861.491 1793.88 859.795C1793.73 863.28 1795.48 836.33 1786.91 827.811C1780.89 821.834 1772.97 820.152 1772.43 823.853C1771.89 827.554 1774.09 824.419 1782.98 832.959Z" fill="#F69585"/>
<path d="M1775.37 844.245C1784.66 853.123 1785.97 873.861 1786.78 872.104C1786.64 875.718 1788.39 847.771 1779.45 838.915C1773.17 832.702 1764.92 830.939 1764.37 834.776C1763.81 838.614 1766.09 835.367 1775.37 844.245Z" fill="#F69585"/>
<path d="M1767.67 855.039C1776.07 863.271 1776.98 882.783 1777.75 881.117C1777.57 884.523 1779.57 858.179 1771.48 849.963C1765.81 844.199 1758.25 842.653 1757.69 846.274C1757.13 849.896 1759.27 846.807 1767.67 855.039Z" fill="#F69585"/>
<path d="M1761.07 862.888C1768.21 871.306 1767.45 889.149 1768.31 887.72C1767.86 890.797 1771.88 867.064 1765.03 858.695C1760.23 852.824 1753.33 850.58 1752.51 853.811C1751.69 857.042 1753.93 854.469 1761.07 862.888Z" fill="#F69585"/>
<path d="M1752.68 869.853C1756.89 880.042 1750.69 896.802 1751.95 895.702C1750.57 898.494 1761.69 877.123 1757.74 867.069C1754.97 860.015 1749.09 855.778 1747.32 858.605C1745.55 861.433 1748.47 859.665 1752.68 869.853Z" fill="#F69585"/>
<path d="M1749.3 786.839C1736.8 784.303 1718.49 795.416 1719.55 793.698C1716.55 795.948 1739.35 778.03 1751.65 780.296C1760.28 781.886 1766.19 787.748 1763.22 790.468C1760.26 793.188 1761.8 789.375 1749.3 786.839Z" fill="#F69585"/>
<path d="M1743.59 801.515C1731.16 798.94 1713.02 809.819 1714.06 808.127C1711.1 810.334 1733.66 792.757 1745.89 795.064C1754.47 796.682 1760.37 802.506 1757.44 805.177C1754.51 807.848 1756.02 804.089 1743.59 801.515Z" fill="#F69585"/>
<path d="M1738.66 815.489C1726.59 812.847 1709.21 822.927 1710.19 821.332C1707.36 823.387 1728.91 806.999 1740.79 809.382C1749.12 811.054 1754.92 816.689 1752.12 819.187C1749.33 821.685 1750.73 818.13 1738.66 815.489Z" fill="#F69585"/>
<path d="M1735.32 827.889C1722.75 825.115 1704.69 835.528 1705.71 833.876C1702.77 836.001 1725.15 819.052 1737.51 821.557C1746.19 823.315 1752.24 829.178 1749.33 831.763C1746.43 834.348 1747.88 830.662 1735.32 827.889Z" fill="#F69585"/>
<path d="M1732.98 838.205C1721.45 835.806 1704.63 845.867 1705.6 844.301C1702.85 846.342 1723.76 830.079 1735.11 832.229C1743.08 833.738 1748.56 839.141 1745.84 841.614C1743.12 844.086 1744.52 840.604 1732.98 838.205Z" fill="#F69585"/>
<path d="M1731.31 849.98C1720.32 848.732 1705.82 859.245 1706.54 857.742C1704.22 859.821 1721.83 843.335 1732.62 844.372C1740.19 845.1 1745.89 849.572 1743.64 852.041C1741.39 854.509 1742.3 851.229 1731.31 849.98Z" fill="#F69585"/>
<path d="M1729.59 860.234C1718.74 862.393 1708.17 876.819 1708.39 875.169C1706.82 877.856 1718.52 856.796 1729.11 854.497C1736.54 852.883 1743.34 855.405 1741.96 858.44C1740.58 861.475 1740.44 858.075 1729.59 860.234Z" fill="#F69585"/>
<path d="M1704.71 813.234C1698.25 846.426 1708.25 903.905 1730.56 903.905C1752.87 903.905 1786.3 892.571 1811.35 846.426C1824.97 821.33 1811.35 790.374 1778.22 775.184C1730.56 753.326 1709.91 786.518 1704.71 813.234Z" fill="url(#paint16_linear_1_2)"/>
<defs>
<filter id="filter0_d_1_2" x="484.528" y="170.43" width="523.472" height="521.57" filterUnits="userSpaceOnUse" color-interpolation-filters="sRGB">
<feFlood flood-opacity="0" result="BackgroundImageFix"/>
<feColorMatrix in="SourceAlpha" type="matrix" values="0 0 0 0 0 0 0 0 0 0 0 0 0 0 0 0 0 0 127 0" result="hardAlpha"/>
<feOffset dy="10"/>
<feGaussianBlur stdDeviation="4"/>
<feComposite in2="hardAlpha" operator="out"/>
<feColorMatrix type="matrix" values="0 0 0 0 0 0 0 0 0 0 0 0 0 0 0 0 0 0 0.25 0"/>
<feBlend mode="normal" in2="BackgroundImageFix" result="effect1_dropShadow_1_2"/>
<feBlend mode="normal" in="SourceGraphic" in2="effect1_dropShadow_1_2" result="shape"/>
</filter>
<filter id="filter1_d_1_2" x="1488" y="1164" width="247" height="271" filterUnits="userSpaceOnUse" color-interpolation-filters="sRGB">
<feFlood flood-opacity="0" result="BackgroundImageFix"/>
<feColorMatrix in="SourceAlpha" type="matrix" values="0 0 0 0 0 0 0 0 0 0 0 0 0 0 0 0 0 0 127 0" result="hardAlpha"/>
<feOffset dy="8"/>
<feGaussianBlur stdDeviation="5"/>
<feComposite in2="hardAlpha" operator="out"/>
<feColorMatrix type="matrix" values="0 0 0 0 0 0 0 0 0 0 0 0 0 0 0 0 0 0 0.25 0"/>
<feBlend mode="normal" in2="BackgroundImageFix" result="effect1_dropShadow_1_2"/>
<feBlend mode="normal" in="SourceGraphic" in2="effect1_dropShadow_1_2" result="shape"/>
</filter>
<linearGradient id="paint0_linear_1_2" x1="656" y1="237" x2="896" y2="337" gradientUnits="userSpaceOnUse">
<stop stop-color="#9B3636"/>
<stop offset="1" stop-color="#D15C5C"/>
</linearGradient>
<linearGradient id="paint1_linear_1_2" x1="246.397" y1="1116.7" x2="1571.61" y2="1833.61" gradientUnits="userSpaceOnUse">
<stop stop-color="#CF5E5E"/>
<stop offset="1" stop-color="#A2255B"/>
</linearGradient>
<linearGradient id="paint2_linear_1_2" x1="1639.78" y1="1533.73" x2="1784.5" y2="1558.53" gradientUnits="userSpaceOnUse">
<stop stop-color="#CF5E5E"/>
<stop offset="1" stop-color="#A2255B"/>
</linearGradient>
<linearGradient id="paint3_linear_1_2" x1="338.725" y1="498.714" x2="430.043" y2="521.822" gradientUnits="userSpaceOnUse">
<stop stop-color="#CF5E5E"/>
<stop offset="1" stop-color="#A2255B"/>
</linearGradient>
<linearGradient id="paint4_linear_1_2" x1="168.81" y1="1506.04" x2="430.076" y2="1829.76" gradientUnits="userSpaceOnUse">
<stop stop-color="#CF5E5E"/>
<stop offset="1" stop-color="#A2255B"/>
</linearGradient>
<linearGradient id="paint5_linear_1_2" x1="1691.3" y1="330.632" x2="1810.07" y2="304.818" gradientUnits="userSpaceOnUse">
<stop stop-color="#194A0D"/>
<stop offset="1" stop-color="#4D7E41"/>
</linearGradient>
<linearGradient id="paint6_linear_1_2" x1="1713" y1="340" x2="1867.5" y2="412" gradientUnits="userSpaceOnUse">
<stop stop-color="#194A0D"/>
<stop offset="1" stop-color="#4D7E41"/>
</linearGradient>
<linearGradient id="paint7_linear_1_2" x1="1618" y1="417" x2="1675.6" y2="606" gradientUnits="userSpaceOnUse">
<stop stop-color="#18490C"/>
<stop offset="1" stop-color="#4F8143"/>
</linearGradient>
<radialGradient id="paint8_radial_1_2" cx="0" cy="0" r="1" gradientUnits="userSpaceOnUse" gradientTransform="translate(1665 573) rotate(54.758) scale(112.645)">
<stop stop-color="#751919"/>
<stop offset="1" stop-color="#A32828"/>
</radialGradient>
<radialGradient id="paint9_radial_1_2" cx="0" cy="0" r="1" gradientUnits="userSpaceOnUse" gradientTransform="translate(1572.2 468.6) rotate(54.758) scale(90.1164)">
<stop stop-color="#751919"/>
<stop offset="1" stop-color="#A32828"/>
</radialGradient>
<linearGradient id="paint10_linear_1_2" x1="1655.25" y1="1133.97" x2="1693.5" y2="1192" gradientUnits="userSpaceOnUse">
<stop stop-color="#4D7E41"/>
<stop offset="1" stop-color="#18460D"/>
</linearGradient>
<linearGradient id="paint11_linear_1_2" x1="1611.5" y1="1166" x2="1611.5" y2="1417" gradientUnits="userSpaceOnUse">
<stop stop-color="#D7223C"/>
<stop offset="1" stop-color="#9B1C2E"/>
</linearGradient>
<linearGradient id="paint12_linear_1_2" x1="1611.5" y1="1166" x2="1611.5" y2="1417" gradientUnits="userSpaceOnUse">
<stop stop-color="#9213A7" stop-opacity="0"/>
<stop offset="1" stop-color="#2C080D"/>
</linearGradient>
<linearGradient id="paint13_linear_1_2" x1="1689.5" y1="966" x2="1661.61" y2="1008.67" gradientUnits="userSpaceOnUse">
<stop stop-color="#4D7E41"/>
<stop offset="1" stop-color="#18460D"/>
</linearGradient>
<linearGradient id="paint14_linear_1_2" x1="1707" y1="922.5" x2="1749" y2="1103" gradientUnits="userSpaceOnUse">
<stop stop-color="#841525" stop-opacity="0"/>
<stop offset="1" stop-color="#841536"/>
</linearGradient>
<linearGradient id="paint15_linear_1_2" x1="1773.5" y1="751" x2="1851.12" y2="796.316" gradientUnits="userSpaceOnUse">
<stop stop-color="#4D7E41"/>
<stop offset="1" stop-color="#18460D"/>
</linearGradient>
<linearGradient id="paint16_linear_1_2" x1="1772.32" y1="711.874" x2="1734.69" y2="874.293" gradientUnits="userSpaceOnUse">
<stop stop-color="#841525" stop-opacity="0"/>
<stop offset="1" stop-color="#841536"/>
</linearGradient>
</defs>
</svg>
