<svg width="2000" height="2000" viewBox="0 0 2000 2000" fill="none" xmlns="http://www.w3.org/2000/svg"> 
<defs>
<filter id="filter0_d_19_51" x="1455.4" y="537.579" width="198.094" height="285.352" filterUnits="userSpaceOnUse" color-interpolation-filters="sRGB">
<feFlood flood-opacity="0" result="BackgroundImageFix"/>
<feColorMatrix in="SourceAlpha" type="matrix" values="0 0 0 0 0 0 0 0 0 0 0 0 0 0 0 0 0 0 127 0" result="hardAlpha"/>
<feOffset dy="4"/>
<feGaussianBlur stdDeviation="2"/>
<feComposite in2="hardAlpha" operator="out"/>
<feColorMatrix type="matrix" values="0 0 0 0 0 0 0 0 0 0 0 0 0 0 0 0 0 0 0.25 0"/>
<feBlend mode="normal" in2="BackgroundImageFix" result="effect1_dropShadow_19_51"/>
<feBlend mode="normal" in="SourceGraphic" in2="effect1_dropShadow_19_51" result="shape"/>
</filter>
<linearGradient id="paint0_linear_19_51" x1="1555.46" y1="1336.41" x2="274.671" y2="1722.11" gradientUnits="userSpaceOnUse">
<stop stop-color="#5A81BD"/>
<stop offset="1" stop-color="#4379CC"/>
</linearGradient>
<linearGradient id="paint1_linear_19_51" x1="115.454" y1="1373.02" x2="387.307" y2="1647.38" gradientUnits="userSpaceOnUse">
<stop stop-color="#487BCA"/>
<stop offset="1" stop-color="#5A81BE"/>
</linearGradient>
<linearGradient id="paint2_linear_19_51" x1="1784.79" y1="707.56" x2="1784.79" y2="945.962" gradientUnits="userSpaceOnUse">
<stop offset="0.14375" stop-color="#3F357C"/>
<stop offset="1" stop-color="#345D9D"/>
</linearGradient>
<linearGradient id="paint3_linear_19_51" x1="1782.65" y1="656.962" x2="1941.65" y2="744.462" gradientUnits="userSpaceOnUse">
<stop stop-color="#6A5338"/>
<stop offset="0.159375" stop-color="#329C18"/>
</linearGradient>
<linearGradient id="paint4_linear_19_51" x1="1589.28" y1="623.591" x2="1528.56" y2="810.786" gradientUnits="userSpaceOnUse">
<stop offset="0.14375" stop-color="#3F357C"/>
<stop offset="1" stop-color="#345D9D"/>
</linearGradient>
<linearGradient id="paint5_linear_19_51" x1="1603.85" y1="584.407" x2="1456.72" y2="612.616" gradientUnits="userSpaceOnUse">
<stop stop-color="#6A5338"/>
<stop offset="0.159375" stop-color="#329C18"/>
</linearGradient>
<linearGradient id="paint6_linear_19_51" x1="1605.61" y1="581.95" x2="1457.86" y2="557.208" gradientUnits="userSpaceOnUse">
<stop stop-color="#6A5338"/>
<stop offset="0.159375" stop-color="#329C18"/>
</linearGradient>
<linearGradient id="paint7_linear_19_51" x1="1743" y1="997.5" x2="1650.77" y2="1170.75" gradientUnits="userSpaceOnUse">
<stop stop-color="#40367D"/>
<stop offset="1" stop-color="#293688"/>
</linearGradient>
<linearGradient id="paint8_linear_19_51" x1="1594.4" y1="1033.55" x2="1650.72" y2="1165.86" gradientUnits="userSpaceOnUse">
<stop stop-color="#F8F494"/>
<stop offset="1" stop-color="#FFBF7A"/>
<stop offset="1" stop-color="#FCFFDC"/>
</linearGradient>
<radialGradient id="paint9_radial_19_51" cx="0" cy="0" r="1" gradientUnits="userSpaceOnUse" gradientTransform="translate(1608.18 1033.55) rotate(63.123) scale(92.5116 158.418)">
<stop offset="0.365198" stop-color="#EADC62"/>
<stop offset="1" stop-color="#EA8F62" stop-opacity="0"/>
</radialGradient>
<linearGradient id="paint10_linear_19_51" x1="1852.97" y1="1272.81" x2="1689.8" y2="1273.19" gradientUnits="userSpaceOnUse">
<stop stop-color="#40367D"/>
<stop offset="1" stop-color="#293688"/>
</linearGradient>
<linearGradient id="paint11_linear_19_51" x1="1769.29" y1="1196.91" x2="1698.54" y2="1322.78" gradientUnits="userSpaceOnUse">
<stop stop-color="#F8F494"/>
<stop offset="1" stop-color="#FFBF7A"/>
<stop offset="1" stop-color="#FCFFDC"/>
</linearGradient>
<radialGradient id="paint12_radial_19_51" cx="0" cy="0" r="1" gradientUnits="userSpaceOnUse" gradientTransform="translate(1822.67 1195.29) rotate(132.27) scale(223.957 366.851)">
<stop offset="0.365198" stop-color="#EADC62"/>
<stop offset="1" stop-color="#EA8F62" stop-opacity="0"/>
</radialGradient>
<clipPath id="clip0_19_51">
<rect width="2000" height="2000" fill="white"/>
</clipPath>
</defs>
<g clip-path="url(#clip0_19_51)">
<circle cx="281.699" cy="281.699" r="281.699" transform="matrix(-0.871774 0.489908 0.489908 0.871774 737.307 206.474)" fill="#A9CBFF"/>
<path d="M813.919 356.223C837.743 334.218 767.905 298.617 726.378 284.782C629.859 252.625 556.961 270.155 468.258 319.971C330.428 397.377 192.737 638.526 229.444 684.679C266.151 730.831 384.466 473.694 431.983 473.918C447.009 473.99 429.98 493.355 449.098 523.541C468.216 553.728 546.882 433.046 561.725 409.625C576.568 386.204 638.038 422.749 722.236 407.746C802.508 393.442 699.952 364.259 710.601 341.041C721.249 317.823 784.138 383.73 813.919 356.223Z" fill="#477CCF"/>
<path d="M818.014 353.922C845.319 327.376 750.947 291.44 700.348 276.791C717.087 286.772 744.255 303.172 742.122 314.71C739.457 329.134 676.913 296.423 656.908 308.742C636.903 321.062 674.666 349.926 678.136 369.518C681.607 389.11 601.05 355.807 569.927 370.548C533.347 387.873 490.043 466.065 469.578 477.565C449.113 489.066 445.501 440.472 424.17 442.765C402.839 445.058 260.511 640.293 247.001 656.502C236.192 669.469 228.042 652.794 225.318 642.836C221.137 652.007 208.161 696.639 241.054 690.003C274.81 683.193 405.126 483.626 426.152 475.041C447.178 466.457 422.694 551.305 467.202 532.756C494.748 521.276 565.353 423.743 575.176 418.222C594.975 407.096 742.899 417.677 759.224 398.809C775.548 379.941 714.127 353.062 716.793 338.638C719.459 324.215 783.883 387.105 818.014 353.922Z" fill="#345D9D"/>
<path d="M406.608 357.848C457.059 317.289 516.915 291.55 553.441 281.795C529.852 301.155 434.866 371.091 412.425 391.2C386.636 414.31 304.671 510.278 262.03 550.038C280.533 519.714 317.577 429.422 406.608 357.848Z" fill="#A9CBFF"/>
<ellipse cx="60.0959" cy="26.2501" rx="60.0959" ry="26.2501" transform="matrix(-0.767878 0.640596 0.640596 0.767878 468.004 315.675)" fill="#A9CBFF"/>
<circle cx="1079.46" cy="464.516" r="280" transform="rotate(-14.7235 1079.46 464.516)" fill="#7082EE"/>
<path d="M913.908 193.084C1015.95 113.608 1062.3 120.206 1155.8 126.681C1215.23 130.798 1248.06 145.061 1301.82 170.65C1423.13 228.387 1450.85 318.088 1543.24 415.555C1582.5 456.969 1671.17 473.026 1642.88 522.433C1614.59 571.841 1499.95 480.52 1499.95 480.52C1499.95 480.52 1496.74 526.163 1457.07 502.014C1441 492.235 1316.25 360.756 1250.89 296.611C1258.93 308.204 1264.88 338.68 1224.39 367.834C1183.9 396.987 1111.28 324.02 1080.02 283.893C1091.97 304.34 1106.93 352.5 1071.14 381.563C1035.35 410.627 961.016 325.006 928.321 278.563C916.019 296.575 912.171 336.667 879.356 341.991C838.338 348.647 836.935 253.035 913.908 193.084Z" fill="#4951A3"/>
<path d="M887.222 298.883C869.438 312.734 873.138 265.626 871.732 239.938C856.199 263.939 824.848 336.304 880.714 347.847C905.627 352.994 923.571 302.563 931.899 282.685C962.102 335.792 1039.58 420.283 1076.83 381.837C1100.35 357.571 1097.28 311.6 1083.47 288.135C1117.37 331.664 1170.15 413.619 1244.35 366.682C1269.77 350.6 1259.49 310.007 1253.94 299.697C1326.78 373.16 1447.55 525.354 1485.8 517.141C1497.57 514.614 1501.31 492.162 1501.38 482.689C1569.17 549.669 1641.88 564.097 1651.57 515.991C1659.22 478.043 1592.43 453.433 1572.04 442.533C1555.72 433.814 1523.61 396.921 1509.6 379.565C1528.94 410.131 1565.86 474.724 1558.78 488.568C1549.94 505.872 1464.01 416.562 1465.26 446.833C1466.27 471.049 1301.05 314.335 1218.32 232.951C1224.58 254.363 1232.82 304.686 1215.71 334.681C1198.59 364.677 1104.54 282.388 1059.65 237.494C1056.68 259.153 1049.17 309.638 1042.93 338.308C1036.69 366.977 966.432 289.765 932.083 247.575C924.539 258.906 905.006 285.032 887.222 298.883Z" fill="#41488E"/>
<path d="M1226.1 135.004C1151.23 107.5 1073.86 118.738 1032.53 128.581C1070 141.111 1159.36 143.057 1199.3 155.879C1330.7 198.063 1368.9 238.591 1426.72 271.529C1382.39 206.978 1342.45 177.742 1226.1 135.004Z" fill="#909EF3"/>
<ellipse cx="1182.81" cy="168.232" rx="30.8595" ry="66.9205" transform="rotate(-77.2153 1182.81 168.232)" fill="#909EF3"/>
<circle cx="999.789" cy="1072" r="700" fill="#244D8D"/>
<circle cx="999.789" cy="1072" r="605" fill="#D9D9D9" stroke="#5C83BF" stroke-width="10"/>
<path d="M999.789 1607.06C1295.29 1607.06 1534.85 1367.51 1534.85 1072C1534.85 776.494 1295.29 536.939 999.789 536.939C704.283 536.939 464.729 776.494 464.729 1072C464.729 1367.51 704.283 1607.06 999.789 1607.06Z" fill="white"/>
<path d="M999.789 472C881.121 472 765.117 507.189 666.447 573.118C567.778 639.047 490.874 732.754 445.462 842.39C400.049 952.026 388.167 1072.67 411.318 1189.05C434.469 1305.44 491.614 1412.35 575.525 1496.26C659.437 1580.18 766.347 1637.32 882.735 1660.47C999.124 1683.62 1119.76 1671.74 1229.4 1626.33C1339.04 1580.92 1432.74 1504.01 1498.67 1405.34C1564.6 1306.67 1599.79 1190.67 1599.79 1072C1600.02 993.436 1584.77 915.596 1554.92 842.924C1525.06 770.252 1481.19 704.173 1425.8 648.457C1370.41 592.742 1304.58 548.483 1232.09 518.206C1159.59 487.929 1081.84 472.229 1003.28 472H999.789ZM1009.96 1092.34L947.489 1302.99H1281.63C1283.84 1302.92 1286.05 1303.27 1288.12 1304.05C1290.2 1304.83 1292.1 1306 1293.72 1307.51C1295.34 1309.03 1296.64 1310.84 1297.56 1312.86C1298.48 1314.87 1298.99 1317.05 1299.06 1319.26V1324.78L1270.01 1425.03C1268.73 1429.77 1265.87 1433.93 1261.91 1436.84C1257.95 1439.74 1253.12 1441.21 1248.22 1441.01H736.835L822.55 1149L726.666 1178.05L748.458 1111.23L844.341 1082.17L964.923 672.484C966.25 667.77 969.116 663.636 973.066 660.74C977.015 657.844 981.819 656.353 986.714 656.504H1116.01C1118.23 656.426 1120.43 656.785 1122.51 657.561C1124.58 658.337 1126.48 659.514 1128.1 661.026C1129.72 662.537 1131.03 664.352 1131.94 666.368C1132.86 668.384 1133.37 670.561 1133.45 672.775V678.295L1031.75 1024.06L1127.63 995.002L1107.3 1064.74L1009.96 1092.34Z" fill="#345D9D"/>
<path d="M1891 1084C1838 1106 1779 1213 1779 1213C1779 1213 1775.9 1078 1833 1030C1902 972 1944 976.319 1944 1006C1944 1012.5 1944 1062 1891 1084Z" fill="#EBD964"/>
<path d="M1891.61 1184.94C1865.41 1185.95 1803.04 1222.59 1803.04 1222.59C1803.04 1222.59 1834.81 1153.47 1875.58 1143.27C1924.84 1130.95 1934.25 1148.93 1937.71 1158.54C1941.17 1168.15 1917.8 1183.93 1891.61 1184.94Z" fill="#EBD964"/>
<path d="M1013.16 1598.96C928.792 1600.53 864.504 1621.54 714.127 1566.89C563.751 1512.24 577.715 1227.9 523.369 1178.36C454.614 1115.68 450.961 1424.43 401.386 1291.5C359.338 1178.75 389.708 814.472 293.659 826.745C146.371 845.565 228.211 1234.29 327.588 1400.87C528.59 1737.79 771.924 1817.72 925.712 1839.56C1026.7 1853.91 1220.13 1855.06 1477.45 1791.12C1771.17 1718.12 1833.39 1519.94 1737.46 1462.14C1648.43 1408.51 1321.08 1676.83 1212.41 1671.38C1064.59 1663.97 1676.97 1486.97 1510.02 1426.3C1343.08 1365.62 1235.97 1594.82 1013.16 1598.96Z" fill="url(#paint0_linear_19_51)"/>
<path d="M451.093 1683.77C435.365 1722.88 373.758 1715.78 211.036 1585.19C86.0776 1452.11 80.9943 1347.8 163.886 1326.85C246.778 1305.91 265.075 1443.78 309.21 1512.98C353.345 1582.17 466.821 1644.66 451.093 1683.77Z" fill="url(#paint1_linear_19_51)"/>
<path d="M1599.23 1688.61C1695.81 1641.87 1743.59 1521.16 1748.28 1471.74C1766.11 1478.3 1838.8 1573.24 1689.85 1694.25C1603.03 1764.8 1431.72 1836.9 1102.67 1847.95C1272 1787.37 1502.64 1735.35 1599.23 1688.61Z" fill="#A9CBFF"/>
<ellipse cx="1596.7" cy="1667.97" rx="43.5" ry="89.5" transform="rotate(54.7456 1596.7 1667.97)" fill="#A9CBFF"/>
<path d="M1023.83 1593.06C1091.52 1588.95 1185.55 1550.27 1296.1 1484.39C1259.49 1563.62 1140.14 1607.08 1046.36 1621.59C957.863 1635.29 778.382 1597.94 745.629 1575.94C868.121 1605.03 956.139 1597.16 1023.83 1593.06Z" fill="#A9CBFF"/>
<ellipse cx="261.162" cy="926.448" rx="23" ry="50" transform="rotate(15.4469 261.162 926.448)" fill="#A9CBFF"/>
<path d="M278.534 1128.12C282.035 1155.51 310.23 1253.97 298.126 1255.52C286.022 1257.07 255.757 1145.84 252.256 1118.45C234.112 1042.51 241.651 990.668 253.755 989.121C265.859 987.574 277.028 1087.02 278.534 1128.12Z" fill="#A9CBFF"/>
<path d="M1766.95 661.045C1769.88 683.823 1775.69 719.151 1778.12 736.193C1778.67 740.052 1784.69 743.586 1788.26 742.025C1790.04 741.248 1791.13 739.435 1790.99 737.501L1785.43 661.578C1785.26 659.281 1783.55 657.396 1781.28 657.013L1772.7 655.567C1769.42 655.014 1766.53 657.744 1766.95 661.045Z" fill="#6A5338"/>
<path d="M1893.79 829.462C1893.79 893.803 1844.99 945.962 1784.79 945.962C1724.59 945.962 1675.79 893.803 1675.79 829.462C1675.79 765.121 1728.15 677.962 1787.65 717.462C1841.65 680.962 1893.79 765.121 1893.79 829.462Z" fill="url(#paint2_linear_19_51)"/>
<path d="M1799.15 745.462C1795.15 732.962 1768.65 712.462 1761.15 707.962C1772.15 709.962 1786.65 708.462 1804.15 737.962C1819.72 764.208 1802.57 817.06 1804.15 805.462C1805.65 794.462 1805.55 765.462 1799.15 745.462Z" fill="#332B66"/>
<path d="M1769.64 655.962C1774.84 654.762 1804.65 648.962 1808.15 648.962C1825.65 646.962 1849.95 647.062 1871.15 659.462C1892.35 671.862 1935.48 715.629 1941.15 734.962C1917.48 735.129 1885.35 736.362 1856.15 713.962C1826.95 691.562 1824.15 663.962 1824.15 652.462C1824.15 652.462 1809.65 653.462 1804.65 654.962C1796.88 657.293 1784.11 660.046 1776.01 662.408C1772.46 663.447 1765.89 661.112 1767.39 657.72C1767.76 656.885 1768.45 656.237 1769.64 655.962Z" fill="url(#paint3_linear_19_51)"/>
<path d="M1706.15 848.462C1706.15 877.457 1722.39 903.962 1718.25 903.962C1714.1 903.962 1696.77 890.589 1691.15 848.462C1687.54 821.462 1692.25 797.962 1700.75 797.962C1709.25 797.962 1706.15 819.467 1706.15 848.462Z" fill="#5967BF"/>
<ellipse cx="1711.32" cy="771.899" rx="8" ry="21.5" transform="rotate(19.3648 1711.32 771.899)" fill="#5967BF"/>
<path d="M1856.65 715.462C1829.15 694.021 1823.81 667.796 1824.65 652.462C1824.65 652.462 1852.31 684.981 1874.15 700.962C1897.9 718.341 1941.15 735.462 1941.15 735.462C1924.48 734.462 1886.15 738.462 1856.65 715.462Z" fill="#287C14"/>
<g filter="url(#filter0_d_19_51)">
<path d="M1614.64 592.659C1606.49 609.804 1593.35 635.266 1587.22 647.771C1585.81 650.661 1580.18 651.904 1577.78 649.768C1576.58 648.706 1576.18 647.004 1576.79 645.521L1600.23 587.956C1601.1 585.822 1603.31 584.559 1605.59 584.895L1610.87 585.675C1614.16 586.161 1616.07 589.654 1614.64 592.659Z" fill="#6A5338"/>
<path d="M1472.65 691.547C1456.26 742.068 1481.29 795.453 1528.56 810.786C1575.83 826.118 1627.43 797.592 1643.82 747.071C1660.21 696.55 1641.3 614.777 1584.52 630.638C1551.41 588.225 1489.03 641.026 1472.65 691.547Z" fill="url(#paint4_linear_19_51)"/>
<path d="M1568.36 649.695C1574.68 640.899 1600.71 631.551 1607.74 629.928C1598.6 628.697 1587.59 623.826 1566.34 642.532C1547.43 659.175 1547.44 705.043 1549.15 695.534C1550.77 686.515 1558.24 663.769 1568.36 649.695Z" fill="#332B66"/>
<path d="M1615.15 754.258C1607.76 777.025 1588.26 793.7 1591.51 794.755C1594.76 795.81 1611.78 789.725 1626.92 758.078C1636.63 737.795 1638.92 718.145 1632.25 715.98C1625.57 713.815 1622.53 731.491 1615.15 754.258Z" fill="#5967BF"/>
<ellipse cx="6.60385" cy="17.7478" rx="6.60385" ry="17.7478" transform="matrix(-0.999704 0.0243179 0.0243179 0.999704 1636.75 674.918)" fill="#5967BF"/>
<path d="M1614.32 586.933C1610.54 584.666 1588.62 572.522 1585.87 571.63C1572.64 565.603 1553.53 559.492 1533.73 563.829C1513.92 568.166 1468.9 591.546 1459.53 605.284C1478.07 611.442 1502.99 620.595 1531.62 610.443C1560.26 600.292 1569.48 579.333 1572.41 570.303C1572.41 570.303 1583.54 574.782 1587.09 577.233C1592.24 580.794 1600.72 585.757 1606.51 589.589C1609.6 591.635 1617.46 590.48 1615.12 587.608C1614.92 587.362 1614.65 587.135 1614.32 586.933Z" fill="url(#paint5_linear_19_51)"/>
<path d="M1530.85 611.494C1557.9 601.662 1568.77 582.428 1572.02 570.176C1572.02 570.176 1542.02 588.666 1520.8 595.651C1497.72 603.248 1459.4 605.676 1459.4 605.676C1472.74 609.136 1501.83 622.04 1530.85 611.494Z" fill="#287C14"/>
<path d="M1614.55 587.958C1611.79 584.519 1595.46 565.506 1593.2 563.714C1582.89 553.46 1567.1 541.084 1547.03 538.26C1526.95 535.436 1476.61 541.695 1463.05 551.313C1478.29 563.537 1498.46 580.787 1528.84 581.231C1559.21 581.675 1575.16 565.236 1581.04 557.789C1581.04 557.789 1589.92 565.86 1592.39 569.392C1595.98 574.521 1602.21 582.126 1606.3 587.731C1608.48 590.725 1616.26 592.378 1615.06 588.87C1614.96 588.57 1614.79 588.265 1614.55 587.958Z" fill="url(#paint6_linear_19_51)"/>
<path d="M1527.75 581.946C1556.53 582.141 1573.41 567.889 1580.72 557.533C1580.72 557.533 1546.16 564.431 1523.84 563.597C1499.56 562.691 1462.79 551.636 1462.79 551.636C1474.09 559.521 1496.87 581.737 1527.75 581.946Z" fill="#287C14"/>
</g>
<path d="M1580.39 1068.34L1493.28 1104.02C1505.5 1147.39 1566.03 1206.65 1667.85 1164.33C1769.67 1122.01 1752.28 1038.73 1738.73 990.607L1634.04 1044.31C1670.2 1060.82 1648.64 1086.02 1635.16 1098.73C1621.68 1111.45 1580.23 1095.51 1580.39 1068.34Z" fill="url(#paint7_linear_19_51)"/>
<path d="M1581.25 1067.22L1497.56 1103.07C1510.51 1147.51 1568.83 1201.96 1666.64 1159.43C1764.45 1116.9 1746.22 1030.66 1735.13 992.563L1632.75 1043.04C1634.27 1045.66 1634.14 1054.11 1621.36 1067.02C1608.59 1079.92 1589.3 1072.53 1581.25 1067.22Z" fill="url(#paint8_linear_19_51)"/>
<path d="M1646.2 1037.98C1661.84 1064.08 1665.42 1085.23 1639.31 1100.87C1613.2 1116.51 1584.43 1099.82 1568.79 1073.72C1606.07 1051.96 1592.22 1081.24 1616.54 1070.14C1640.85 1059.05 1607.04 1049.38 1646.2 1037.98Z" fill="url(#paint9_radial_19_51)"/>
<path d="M1701.29 1110.89C1706.85 1100.76 1718.84 1077.68 1721.67 1061.46C1722.24 1058.18 1725.48 1055.73 1728.68 1056.61L1731 1057.25C1735.41 1058.46 1738.46 1062.51 1737.77 1067.03C1736.36 1076.26 1732.73 1089.03 1725.54 1101.53C1718.03 1114.57 1706.29 1124.31 1693.72 1130.2C1692.07 1130.97 1689.52 1126.33 1690.75 1124.98C1695.07 1120.27 1699.07 1114.93 1701.29 1110.89Z" fill="#F5F5F5"/>
<path d="M1739.6 1051.47C1739.01 1056.31 1735.49 1055.97 1731.16 1055.44C1726.83 1054.91 1723.25 1055.08 1723.93 1049.56C1724.6 1044.04 1726.42 1044.87 1732.36 1045.6C1738.31 1046.32 1740.66 1042.8 1739.6 1051.47Z" fill="#F5F5F5"/>
<path d="M1717.93 1232.15L1648.6 1212.06C1635.31 1243.9 1643.52 1308.3 1724.86 1331.42C1806.2 1354.54 1835.35 1296.28 1850.09 1260.94L1761.62 1243.29C1775.5 1270.42 1750.56 1275.28 1736.41 1276.49C1722.26 1277.69 1704.92 1248.38 1717.93 1232.15Z" fill="url(#paint10_linear_19_51)"/>
<path d="M1718.98 1231.89L1651.62 1213.53C1638.27 1246.36 1647.44 1306.83 1726.47 1327.91C1805.49 1348.99 1835.55 1288.55 1847 1260.4L1761.44 1241.91C1761.12 1244.21 1757.01 1249.22 1743.2 1250.88C1729.38 1252.53 1721.3 1238.91 1718.98 1231.89Z" fill="url(#paint11_linear_19_51)"/>
<path d="M1771.93 1245.28C1768.92 1268.4 1761.02 1282.79 1737.88 1279.74C1714.75 1276.69 1705.39 1252.97 1708.4 1229.85C1741.17 1234.55 1718.91 1245.53 1738.81 1250.45C1758.7 1255.38 1742.98 1233.47 1771.93 1245.28Z" fill="url(#paint12_radial_19_51)"/>
<path d="M1770.38 1315.28C1778.54 1311.85 1796.72 1303.72 1806.14 1295.33C1808.04 1293.64 1811.16 1293.71 1812.67 1295.77L1813.76 1297.25C1815.83 1300.08 1815.74 1303.97 1813.17 1306.35C1807.93 1311.22 1799.68 1317.15 1789.41 1321.22C1778.7 1325.47 1767 1325.72 1756.65 1323.26C1755.29 1322.94 1755.96 1318.94 1757.35 1318.72C1762.18 1317.95 1767.13 1316.65 1770.38 1315.28Z" fill="#F5F5F5"/>
<path d="M1821.67 1297.88C1819.02 1300.5 1817.06 1298.62 1814.71 1296.24C1812.36 1293.87 1810.13 1292.26 1813.16 1289.27C1816.19 1286.28 1816.89 1287.64 1820.12 1290.91C1823.35 1294.18 1826.43 1293.18 1821.67 1297.88Z" fill="#F5F5F5"/>
</g>
</svg>
