<svg fill="none" height="2000" viewBox="0 0 2000 2000" width="2000" xmlns="http://www.w3.org/2000/svg" xmlns:xlink="http://www.w3.org/1999/xlink"><filter id="a" color-interpolation-filters="sRGB" filterUnits="userSpaceOnUse" height="494.577" width="648.402" x="553.834" y="657.846"><feFlood flood-opacity="0" result="BackgroundImageFix"/><feBlend in="SourceGraphic" in2="BackgroundImageFix" mode="normal" result="shape"/><feColorMatrix in="SourceAlpha" result="hardAlpha" type="matrix" values="0 0 0 0 0 0 0 0 0 0 0 0 0 0 0 0 0 0 127 0"/><feOffset dx="2" dy="50"/><feGaussianBlur stdDeviation="25"/><feComposite in2="hardAlpha" k2="-1" k3="1" operator="arithmetic"/><feColorMatrix type="matrix" values="0 0 0 0 0.803922 0 0 0 0 0.403922 0 0 0 0 0.439216 0 0 0 1 0"/><feBlend in2="shape" mode="normal" result="effect1_innerShadow_22_48"/></filter><filter id="b" color-interpolation-filters="sRGB" filterUnits="userSpaceOnUse" height="508.842" width="894" x="510.996" y="879.637"><feFlood flood-opacity="0" result="BackgroundImageFix"/><feBlend in="SourceGraphic" in2="BackgroundImageFix" mode="normal" result="shape"/><feColorMatrix in="SourceAlpha" result="hardAlpha" type="matrix" values="0 0 0 0 0 0 0 0 0 0 0 0 0 0 0 0 0 0 127 0"/><feOffset dy="50"/><feGaussianBlur stdDeviation="25"/><feComposite in2="hardAlpha" k2="-1" k3="1" operator="arithmetic"/><feColorMatrix type="matrix" values="0 0 0 0 0.592157 0 0 0 0 0.243137 0 0 0 0 0.266667 0 0 0 0.8 0"/><feBlend in2="shape" mode="normal" result="effect1_innerShadow_22_48"/></filter><filter id="c" color-interpolation-filters="sRGB" filterUnits="userSpaceOnUse" height="436.261" width="528.322" x="205.836" y="1038.9"><feFlood flood-opacity="0" result="BackgroundImageFix"/><feColorMatrix in="SourceAlpha" result="hardAlpha" type="matrix" values="0 0 0 0 0 0 0 0 0 0 0 0 0 0 0 0 0 0 127 0"/><feOffset dy="2"/><feGaussianBlur stdDeviation="2"/><feComposite in2="hardAlpha" operator="out"/><feColorMatrix type="matrix" values="0 0 0 0 0 0 0 0 0 0 0 0 0 0 0 0 0 0 0.25 0"/><feBlend in2="BackgroundImageFix" mode="normal" result="effect1_dropShadow_22_48"/><feBlend in="SourceGraphic" in2="effect1_dropShadow_22_48" mode="normal" result="shape"/></filter><filter id="d" color-interpolation-filters="sRGB" filterUnits="userSpaceOnUse" height="401.572" width="572.59" x="208.211" y="985.413"><feFlood flood-opacity="0" result="BackgroundImageFix"/><feColorMatrix in="SourceAlpha" result="hardAlpha" type="matrix" values="0 0 0 0 0 0 0 0 0 0 0 0 0 0 0 0 0 0 127 0"/><feOffset dy="4"/><feGaussianBlur stdDeviation="10"/><feComposite in2="hardAlpha" operator="out"/><feColorMatrix type="matrix" values="0 0 0 0 0 0 0 0 0 0 0 0 0 0 0 0 0 0 0.25 0"/><feBlend in2="BackgroundImageFix" mode="normal" result="effect1_dropShadow_22_48"/><feBlend in="SourceGraphic" in2="effect1_dropShadow_22_48" mode="normal" result="shape"/></filter><filter id="e" color-interpolation-filters="sRGB" filterUnits="userSpaceOnUse" height="207.468" width="49.2871" x="243.545" y="1118.96"><feFlood flood-opacity="0" result="BackgroundImageFix"/><feBlend in="SourceGraphic" in2="BackgroundImageFix" mode="normal" result="shape"/><feColorMatrix in="SourceAlpha" result="hardAlpha" type="matrix" values="0 0 0 0 0 0 0 0 0 0 0 0 0 0 0 0 0 0 127 0"/><feOffset dy="4"/><feGaussianBlur stdDeviation="2"/><feComposite in2="hardAlpha" k2="-1" k3="1" operator="arithmetic"/><feColorMatrix type="matrix" values="0 0 0 0 0 0 0 0 0 0 0 0 0 0 0 0 0 0 0.25 0"/><feBlend in2="shape" mode="normal" result="effect1_innerShadow_22_48"/></filter><filter id="f" color-interpolation-filters="sRGB" filterUnits="userSpaceOnUse" height="106.616" width="188.928" x="466.057" y="1346.53"><feFlood flood-opacity="0" result="BackgroundImageFix"/><feBlend in="SourceGraphic" in2="BackgroundImageFix" mode="normal" result="shape"/><feColorMatrix in="SourceAlpha" result="hardAlpha" type="matrix" values="0 0 0 0 0 0 0 0 0 0 0 0 0 0 0 0 0 0 127 0"/><feOffset dy="4"/><feGaussianBlur stdDeviation="2"/><feComposite in2="hardAlpha" k2="-1" k3="1" operator="arithmetic"/><feColorMatrix type="matrix" values="0 0 0 0 0 0 0 0 0 0 0 0 0 0 0 0 0 0 0.25 0"/><feBlend in2="shape" mode="normal" result="effect1_innerShadow_22_48"/></filter><filter id="g" color-interpolation-filters="sRGB" filterUnits="userSpaceOnUse" height="225.422" width="80.8789" x="304.686" y="1158.69"><feFlood flood-opacity="0" result="BackgroundImageFix"/><feBlend in="SourceGraphic" in2="BackgroundImageFix" mode="normal" result="shape"/><feColorMatrix in="SourceAlpha" result="hardAlpha" type="matrix" values="0 0 0 0 0 0 0 0 0 0 0 0 0 0 0 0 0 0 127 0"/><feOffset dy="4"/><feGaussianBlur stdDeviation="2"/><feComposite in2="hardAlpha" k2="-1" k3="1" operator="arithmetic"/><feColorMatrix type="matrix" values="0 0 0 0 0 0 0 0 0 0 0 0 0 0 0 0 0 0 0.25 0"/><feBlend in2="shape" mode="normal" result="effect1_innerShadow_22_48"/></filter><filter id="h" color-interpolation-filters="sRGB" filterUnits="userSpaceOnUse" height="146.266" width="196.047" x="390.398" y="1289.89"><feFlood flood-opacity="0" result="BackgroundImageFix"/><feBlend in="SourceGraphic" in2="BackgroundImageFix" mode="normal" result="shape"/><feColorMatrix in="SourceAlpha" result="hardAlpha" type="matrix" values="0 0 0 0 0 0 0 0 0 0 0 0 0 0 0 0 0 0 127 0"/><feOffset dy="4"/><feGaussianBlur stdDeviation="2"/><feComposite in2="hardAlpha" k2="-1" k3="1" operator="arithmetic"/><feColorMatrix type="matrix" values="0 0 0 0 0 0 0 0 0 0 0 0 0 0 0 0 0 0 0.25 0"/><feBlend in2="shape" mode="normal" result="effect1_innerShadow_22_48"/></filter><filter id="i" color-interpolation-filters="sRGB" filterUnits="userSpaceOnUse" height="193.648" width="136.41" x="350.217" y="1218.8"><feFlood flood-opacity="0" result="BackgroundImageFix"/><feBlend in="SourceGraphic" in2="BackgroundImageFix" mode="normal" result="shape"/><feColorMatrix in="SourceAlpha" result="hardAlpha" type="matrix" values="0 0 0 0 0 0 0 0 0 0 0 0 0 0 0 0 0 0 127 0"/><feOffset dy="4"/><feGaussianBlur stdDeviation="2"/><feComposite in2="hardAlpha" k2="-1" k3="1" operator="arithmetic"/><feColorMatrix type="matrix" values="0 0 0 0 0 0 0 0 0 0 0 0 0 0 0 0 0 0 0.25 0"/><feBlend in2="shape" mode="normal" result="effect1_innerShadow_22_48"/></filter><linearGradient id="j" gradientUnits="userSpaceOnUse" x1="442" x2="1686" y1="1559" y2="299"><stop offset="0" stop-color="#fabd86"/><stop offset=".539583" stop-color="#ff8e6e"/></linearGradient><linearGradient id="k"><stop offset="0" stop-color="#579262"/><stop offset="1" stop-color="#2b6736"/></linearGradient><linearGradient id="l" gradientUnits="userSpaceOnUse" x1="1552.62" x2="1509.87" xlink:href="#k" y1="1088.01" y2="1309.86"/><linearGradient id="m" gradientUnits="userSpaceOnUse" x1="1405.89" x2="1436.01" xlink:href="#k" y1="1143.57" y2="1314.21"/><linearGradient id="n" gradientUnits="userSpaceOnUse" x1="1313.91" x2="1890.32" y1="380.337" y2="311.72"><stop offset="0" stop-color="#fbbe86"/><stop offset="1" stop-color="#ff8f6e"/></linearGradient><linearGradient id="o" gradientUnits="userSpaceOnUse" x1="164.458" x2="200.798" y1="1385.75" y2="1906.59"><stop offset="0" stop-color="#fbb985"/><stop offset="1" stop-color="#fb9e7c"/></linearGradient><linearGradient id="p"><stop offset="0" stop-color="#4d7e41"/><stop offset="1" stop-color="#18460d"/></linearGradient><linearGradient id="q" gradientUnits="userSpaceOnUse" x1="751.747" x2="805.321" xlink:href="#p" y1="377.767" y2="399.495"/><linearGradient id="r" gradientUnits="userSpaceOnUse" x1="736.874" x2="855.217" y1="420.34" y2="592.33"><stop offset="0" stop-color="#d7223c"/><stop offset="1" stop-color="#9b1c2e"/></linearGradient><linearGradient id="s" gradientUnits="userSpaceOnUse" x1="736.874" x2="855.217" y1="420.34" y2="592.33"><stop offset="0" stop-color="#9213a7" stop-opacity="0"/><stop offset="1" stop-color="#2c080d"/></linearGradient><linearGradient id="t" gradientUnits="userSpaceOnUse" x1="1316.33" x2="1534.67" y1="1432.54" y2="1231.62"><stop offset="0" stop-color="#ffb25e"/><stop offset="1" stop-color="#dc660d"/></linearGradient><linearGradient id="u" gradientUnits="userSpaceOnUse" x1="1005.73" x2="959.877" xlink:href="#p" y1="283.19" y2="305.477"/><linearGradient id="v"><stop offset="0" stop-color="#841525" stop-opacity="0"/><stop offset="1" stop-color="#841536"/></linearGradient><linearGradient id="w" gradientUnits="userSpaceOnUse" x1="1043.09" x2="986.393" xlink:href="#v" y1="254.86" y2="431.297"/><linearGradient id="x" gradientUnits="userSpaceOnUse" x1="1203.65" x2="1153.71" xlink:href="#p" y1="425.712" y2="415.449"/><linearGradient id="y" gradientUnits="userSpaceOnUse" x1="1250.54" x2="1098.08" xlink:href="#v" y1="426.013" y2="531.372"/><linearGradient id="z"><stop offset="0" stop-color="#194a0d"/><stop offset="1" stop-color="#4d7e41"/></linearGradient><linearGradient id="A" gradientUnits="userSpaceOnUse" x1="574.721" x2="484.06" xlink:href="#z" y1="292.69" y2="259.79"/><linearGradient id="B" gradientUnits="userSpaceOnUse" x1="556.662" x2="427.528" xlink:href="#z" y1="297.755" y2="337.984"/><linearGradient id="C" gradientUnits="userSpaceOnUse" x1="623.199" x2="557.854" y1="368.384" y2="510.899"><stop offset="0" stop-color="#18490c"/><stop offset="1" stop-color="#4f8143"/></linearGradient><linearGradient id="D"><stop offset="0" stop-color="#751919"/><stop offset="1" stop-color="#a32828"/></linearGradient><radialGradient id="E" cx="0" cy="0" gradientTransform="matrix(51.5776994 73.00238107 -73.00238107 51.5776994 3.17401 -10.3155)" gradientUnits="userSpaceOnUse" r="1" xlink:href="#D"/><radialGradient id="F" cx="0" cy="0" gradientTransform="matrix(41.26217106 58.40192119 -58.40192119 41.26217106 2.53921 -8.25243)" gradientUnits="userSpaceOnUse" r="1" xlink:href="#D"/><linearGradient id="G" gradientUnits="userSpaceOnUse" x1="1233.01" x2="1440.98" y1="1541.38" y2="1485.57"><stop offset="0" stop-color="#81bc63"/><stop offset="1" stop-color="#6b9a52"/></linearGradient><linearGradient id="H"><stop offset="0" stop-color="#427b34"/><stop offset="1" stop-color="#61ab4f" stop-opacity="0"/></linearGradient><linearGradient id="I" gradientUnits="userSpaceOnUse" x1="1324.07" x2="1266.28" xlink:href="#H" y1="630.811" y2="410.755"/><linearGradient id="J" gradientUnits="userSpaceOnUse" x1="1337.82" x2="1457.2" xlink:href="#H" y1="633.191" y2="439.51"/><linearGradient id="K"><stop offset="0" stop-color="#5670d8"/><stop offset="1" stop-color="#2a3d88"/></linearGradient><linearGradient id="L" gradientUnits="userSpaceOnUse" x1="76.9174" x2="76.9174" xlink:href="#K" y1="0" y2="153.835"/><linearGradient id="M" gradientUnits="userSpaceOnUse" x1="61.0213" x2="61.0213" xlink:href="#K" y1="0" y2="122.043"/><linearGradient id="N" gradientUnits="userSpaceOnUse" x1="50.0143" x2="50.0143" xlink:href="#K" y1="0" y2="100.029"/><clipPath id="O"><path d="m0 0h2000v2000h-2000z"/></clipPath><clipPath id="P"><path d="m1114 1163h64v64h-64z"/></clipPath><g clip-path="url(#O)"><path d="m1174 591c-106.46 165.604 180 118.956 236 80 97-67.478 272-128 356 0 168.3 256.458.23 677.21-216 876-248 228-824 348-1160 216-258.849-101.69-48-296 47.999-356 127.73-79.83 96.688-379.29-131.999-272-228.6865 107.29-112.874-380.992 131.999-604 224.002-204 444-372 656.001-328 239.54 49.716 188 220 80 388z" fill="url(#j)"/><path d="m1550.4 1119.72 33.6-25.67 1.66 63.92 12.24-20.01 1.51 42.92 7.06-11.22c.48 4.76 1.11 16.71-.22 26.52-1.33 9.8-8.55 28.63-11.99 36.82l11.43-1.29c-4.61 23.92-13.08 50.84-38.7 66.62-15.76 9.71-40.65 11.6-46.18 12.02l-.16.01c-15.74.7-51.27-6.66-67.45-41.65-16.18-34.98-1.27-79.21 8.2-96.95l7.97 13.06c.42-4.58 5.2-16.12 9.2-22.33 3.99-6.22 20.96-24.15 29.4-29.28l3.57 10.47 37.54-38.88z" fill="url(#l)"/><path d="m1518.04 1235.08c-12.29 26.83-20.87 46.65-27.87 66.61 12.89-24.53 27.39-52.31 32.19-63.68 12.84-30.37 26.03-62.53 28.54-75.56-4.49 5.19-21.4 47.59-32.86 72.63z" fill="#81bd64"/><path d="m1407.21 1167.92-25.45-20.09-2.04 48.99-9.15-15.48-1.67 32.89-5.28-8.69c-.42 3.64-1.05 12.8-.15 20.33.9 7.54 6.21 22.07 8.75 28.39l-8.75-1.13c3.25 18.4 9.42 39.14 28.87 51.55 11.98 7.64 31.04 9.38 35.28 9.77l.12.01c12.06.72 39.39-4.49 52.22-31.13 12.82-26.63 1.93-60.72-5.13-74.44l-6.26 9.92c-.27-3.51-3.8-12.42-6.79-17.24-2.98-4.81-15.78-18.76-22.19-22.8l-2.87 7.99-28.32-30.27z" fill="url(#m)"/><path d="m1430.65 1256.77c9.09 20.72 15.44 36.02 20.56 51.41-9.58-18.97-20.37-40.45-23.92-49.22-9.48-23.44-19.21-48.26-20.97-58.28 3.38 4.03 15.84 36.75 24.33 56.09z" fill="#81bd64"/><g clip-path="url(#P)"><path d="m1175.5 1182.5c-6.9-16.2-25.7-23.8-42-17s-23.9 25.7-17 41.9 25.7 23.9 41.9 17c7.7-3.2 13.8-9.3 17-17 3.4-7.9 3.4-16.9.1-24.9z" fill="#ff2ad4"/><path d="m1121.4 1189.3h8.2v15.6 6.4l4.6-4.4 11.9-11.2 11.8 11.2 4.6 4.4v-6.4-15.6h8.1c.4 1.8.6 3.7.6 5.6 0 13.9-11.3 25.3-25.2 25.3s-25.3-11.4-25.3-25.3c0-1.9.2-3.8.7-5.6zm-2.1-2.8c-4.6 14.8 3.6 30.5 18.4 35.1s30.5-3.7 35-18.4c.8-2.7 1.3-5.5 1.3-8.3s-.4-5.6-1.3-8.4h-12.9l-.1 18.4-13.6-13.1-13.8 13.1v-18.4z" fill="#fff"/><path d="m1132.3 1183.8h2.7v2.8 12l9.1-8.7 1.9-1.8 1.9 1.8 9.1 8.6v-12-2.7h14.7c-6.2-14.2-22.8-20.6-36.9-14.4-6.4 2.8-11.6 8-14.4 14.4z" fill="#fc0"/></g><ellipse cx="1571.43" cy="352.853" fill="url(#n)" rx="294.373" ry="160.697" transform="matrix(.82097685 -.57096148 .57096148 .82097685 79.856878 960.394856)"/><path d="m210.473 1618.71c9.418 134.98 152.05 167.82 100.036 255.66-51.772 87.42-203.83-47.93-245.7752-189.36-37.2837-125.71 35.9112-347.34 116.1812-288.78 61.259 44.68 20.14 87.5 29.558 222.48z" fill="url(#o)"/><path d="m688.554 421.281c-4.665 2.106 38.071.304 34.54 16.122 26.318-5.836 77.02-9.542 76.428-18.239-.591-8.698 21.308-30.821 33.307-35.845 9.942-4.164 22.106-1.181 5.589-8.532-16.518-7.352-30.536-3.362-42.63 8.58-6.625 6.542-11.506 15.281-11.132 21.049-2.422-1.235-7.299-6.493-7.427-17.651-.128-11.159 15.633-21.692 23.53-25.563-6.924-.592-25.481 2.939-44.323 21.795s-12.547 27.155-7.045 28.947c-21.009-4.735-55.179 6.783-60.837 9.337z" fill="url(#q)"/><path d="m869.103 445.969c30.076 43.709-4.166 139.673-47.119 169.228-42.952 29.555-78.35-18.491-108.426-62.201-30.075-43.709-19.637-103.101 23.316-132.656 42.952-29.555 102.153-18.081 132.229 25.629z" fill="url(#r)"/><ellipse cx="736.242" cy="474.189" fill="#f79585" rx="6.03739" ry="14.4162" transform="matrix(.96934037 -.2457219 .2457219 .96934037 -93.945714 195.449247)"/><ellipse cx="719.553" cy="493.645" fill="#f79585" rx="6.03739" ry="14.4162" transform="matrix(.96934037 -.2457219 .2457219 .96934037 -99.238158 191.944908)"/><ellipse cx="755.645" cy="459.465" fill="#f79585" rx="6.03739" ry="14.4162" transform="matrix(.96934037 -.2457219 .2457219 .96934037 -89.732816 199.765557)"/><ellipse cx="776.598" cy="447.445" fill="#f79585" rx="6.03739" ry="14.4162" transform="matrix(.96934037 -.2457219 .2457219 .96934037 -86.136827 204.545639)"/><ellipse cx="801.252" cy="451.271" fill="#f79585" rx="6.03739" ry="14.4162" transform="matrix(.96934037 -.2457219 .2457219 .96934037 -86.321077 210.72097)"/><ellipse cx="827.457" cy="457.799" fill="#f79585" rx="6.03739" ry="14.4162" transform="matrix(.96934037 -.2457219 .2457219 .96934037 -87.121713 217.360259)"/><ellipse cx="849.606" cy="466.654" fill="#f79585" rx="6.03739" ry="14.4162" transform="matrix(.96934037 -.2457219 .2457219 .96934037 -88.618501 223.074244)"/><ellipse cx="751.091" cy="515.542" fill="#f79585" rx="4.96142" ry="11.847" transform="matrix(.96934037 -.2457219 .2457219 .96934037 -103.651787 200.365839)"/><ellipse cx="737.377" cy="531.53" fill="#f79585" rx="4.96142" ry="11.847" transform="matrix(.96934037 -.2457219 .2457219 .96934037 -108.000855 197.486195)"/><ellipse cx="767.037" cy="503.442" fill="#f79585" rx="4.96142" ry="11.847" transform="matrix(.96934037 -.2457219 .2457219 .96934037 -100.189653 203.913139)"/><ellipse cx="784.255" cy="493.564" fill="#f79585" rx="4.96142" ry="11.847" transform="matrix(.96934037 -.2457219 .2457219 .96934037 -97.234515 207.841123)"/><ellipse cx="804.515" cy="496.708" fill="#f79585" rx="4.96142" ry="11.847" transform="matrix(.96934037 -.2457219 .2457219 .96934037 -97.3859 212.915843)"/><ellipse cx="826.05" cy="502.073" fill="#f79585" rx="4.96142" ry="11.847" transform="matrix(.96934037 -.2457219 .2457219 .96934037 -98.043943 218.371953)"/><ellipse cx="844.252" cy="509.35" fill="#f79585" rx="4.96142" ry="11.847" transform="matrix(.96934037 -.2457219 .2457219 .96934037 -99.273995 223.067693)"/><ellipse cx="758.606" cy="559.87" fill="#f79585" rx="5.19057" ry="12.3941" transform="matrix(.96934037 -.2457219 .2457219 .96934037 -114.31374 203.57152)"/><ellipse cx="775.288" cy="547.212" fill="#f79585" rx="5.19057" ry="12.3941" transform="matrix(.96934037 -.2457219 .2457219 .96934037 -110.691928 207.282563)"/><ellipse cx="793.304" cy="536.877" fill="#f79585" rx="5.19057" ry="12.3941" transform="matrix(.96934037 -.2457219 .2457219 .96934037 -107.600029 211.392621)"/><ellipse cx="814.499" cy="540.166" fill="#f79585" rx="5.19057" ry="12.3941" transform="matrix(.96934037 -.2457219 .2457219 .96934037 -107.758377 216.701537)"/><ellipse cx="837.028" cy="545.779" fill="#f79585" rx="5.19057" ry="12.3941" transform="matrix(.96934037 -.2457219 .2457219 .96934037 -108.446883 222.409498)"/><ellipse cx="789.475" cy="583.01" fill="#f79585" rx="4.00577" ry="9.56506" transform="matrix(.96934037 -.2457219 .2457219 .96934037 -119.053313 211.866173)"/><ellipse cx="803.378" cy="575.035" fill="#f79585" rx="4.00577" ry="9.56506" transform="matrix(.96934037 -.2457219 .2457219 .96934037 -116.66742 215.037934)"/><ellipse cx="822.876" cy="574.661" fill="#f79585" rx="4.00577" ry="9.56506" transform="matrix(.96934037 -.2457219 .2457219 .96934037 -115.977718 219.817553)"/><path d="m869.103 445.969c30.076 43.709-4.166 139.673-47.119 169.228-42.952 29.555-78.35-18.491-108.426-62.201-30.075-43.709-19.637-103.101 23.316-132.656 42.952-29.555 102.153-18.081 132.229 25.629z" fill="url(#s)" fill-opacity=".5"/><path d="m1039.38 656.312c-52.047-30.027-117.085 7.57-117.085 67.624s29.018 112.097 76.582 144.205l201.423 116.766.5-.19 204.14-117.963z" fill="#fcada7"/><g filter="url(#a)"><path d="m998.878 868.136c-47.564-32.109-76.581-86.17-76.581-144.206 0-28.576 14.95-52.421 36.209-65.92-1.01.567 1.009-.568 0 0l-318.628 179.027-51.16 30.91-34.884 20.06c21.953-11.166 49.456-12.049 73.995 2.208l87.748 49.961 76.897 44.473 204.133 117.771 203.633-117.645-201.425-116.765z" fill="#f79792"/></g><g filter="url(#b)"><path d="m1405 1102.55-408.335 235.93-77.086-44.47-.315-.32-330.866-191.14c-22.647-14.76-41.067-34.88-54.062-57.53-15.139-26.11-23.34-56.142-23.34-87.242 0-28.008 14.067-51.159 34.506-64.911 2.776-1.703 5.488-3.28 8.39-4.794 21.953-11.166 49.456-12.049 73.995 2.208l87.243 50.339 76.897 44.284.505-.189 204.133 117.775 203.625-117.649 204.71 117.649z" fill="#fc796f"/></g><path d="m294.346 1451.2c19.652-31.94 34.055-57.32 41.654-82.39l69.838 42.97s-40.747 39.51-60.138 71.02c-8.438 13.71-20.615 31.34-10.611 43.96 10.909 13.76 135.358 87.62 116.854 117.69-2.096 3.41-355.2172-220.33-353.3824-223.31 18.0454-29.31 138.0044 51.45 156.2174 56.2 18.212 4.75 30.591-11.55 39.568-26.14z" fill="#f3feff"/><g filter="url(#c)"><path d="m730.159 1335.42c-19.339 31.43-44.678 58.74-74.572 80.38-29.894 21.63-63.756 37.17-99.653 45.72-35.898 8.55-73.128 9.94-109.564 4.1-36.437-5.84-71.366-18.8-102.795-38.14-31.428-19.34-58.739-44.67-80.375-74.57-21.635-29.89-37.171-63.75-45.719-99.65-8.549-35.9-9.943-73.13-4.104-109.57 5.84-36.43 18.799-71.36 38.137-102.79l239.323 147.26z" fill="#f3feff"/></g><g filter="url(#d)"><rect fill="#f3feff" height="88" rx="44" transform="matrix(.85168029 .52406172 -.52406172 .85168029 554.378839 10.973471)" width="610" x="257.803" y="984.887"/></g><g filter="url(#e)"><path d="m285.392 1201.47c-6.025 47.95 3.863 130.36-12.835 120.08-16.698-10.27-33.219-96.76-28.046-145.24 5.174-48.48 3.536-70.62 38.453-49.13 16.698 10.27 8.454 26.33 2.428 74.29z" fill="#e1f2f3"/></g><g filter="url(#f)"><path d="m569.774 1381.15c-40.091 27-118.108 55.31-101.41 65.58 16.699 10.28 101.348-13.95 142.292-40.42s61.448-34.99 26.53-56.47c-16.698-10.28-27.32 4.32-67.412 31.31z" fill="#e1f2f3"/></g><g filter="url(#g)"><path d="m370.56 1253.87c-12.642 41.54-37.016 135.74-53.715 125.46-16.698-10.27-12.947-114.81-7.773-163.29 5.173-48.48 3.535-70.62 38.453-49.14 58.082 35.74 35.677 45.44 23.035 86.97z" fill="#e1f2f3"/></g><g filter="url(#h)"><path d="m480.628 1326.3c-31.379 30-104.48 94.22-87.782 104.49 16.698 10.28 108.326-40.19 149.27-66.66 40.944-26.46 61.449-34.98 26.531-56.47-58.082-35.74-56.64-11.37-88.019 18.64z" fill="#e1f2f3"/></g><g filter="url(#i)"><path d="m453.174 1304.71c-39.632 47.24-81.699 112.94-98.397 102.66-16.698-10.27 16.506-80.25 34.39-130.3 17.883-50.06 14.212-74.62 60.202-46.32 54.508 33.54 43.436 26.72 3.805 73.96z" fill="#e1f2f3"/></g><path d="m1534.4 1217.2c29.61 44.9 39.54 98.73 27.62 149.64-11.93 50.9-44.74 94.72-91.22 121.8s-102.81 35.21-156.61 22.61c-53.8-12.61-100.66-44.92-130.27-89.83l175.24-102.11z" fill="url(#t)"/><path d="m1498.74 1238.52c21.52 36.71 27.57 80.48 16.82 121.65-10.75 41.18-37.41 76.41-74.13 97.92-36.72 21.52-80.48 27.57-121.66 16.82-41.18-10.74-76.4-37.41-97.92-74.13l138.45-81.13z" fill="#ffc380"/><path d="m1328.19 1356.81s-17.19 39.28-32.72 59.78-22.17 15.48-23.52 14.46c-1.36-1.03-9.17-6.96 6.36-27.46s49.88-46.78 49.88-46.78z" fill="#feffba"/><path d="m1406.59 1314.48s34.93-24.86 58.79-34.46 26.97-1.88 27.61-.3c.63 1.57 4.28 10.67-19.58 20.27-23.85 9.61-66.82 14.49-66.82 14.49z" fill="#feffba"/><path d="m1340.73 1349.55s2.34 51.73-2.33 82.73-12.91 29.77-14.59 29.52c-1.68-.26-11.37-1.73-6.7-32.73 4.67-30.99 23.62-79.52 23.62-79.52z" fill="#feffba"/><path d="m1390.33 1325.61s51.42-6.26 82.68-3.96 30.66 10.61 30.53 12.3c-.12 1.69-.85 11.47-32.11 9.17-31.27-2.3-81.1-17.51-81.1-17.51z" fill="#feffba"/><path d="m1360.06 1341.26s20.22 50.81 26.63 83.35c6.4 32.54-1.76 34.16-3.43 34.49-1.66.32-11.29 2.21-17.7-30.33-6.4-32.54-5.5-87.51-5.5-87.51z" fill="#feffba"/><path d="m1380.66 1332.97s40.8 36.41 69.17 53.58 32.69 10.06 33.57 8.6c.88-1.45 5.95-9.85-22.42-27.02-28.38-17.17-80.32-35.16-80.32-35.16z" fill="#feffba"/><path d="m1371.41 1341.03s35.91 37.31 52.87 63.68c16.95 26.37 9.96 30.88 8.53 31.8-1.43.91-9.69 6.21-26.64-20.16-16.96-26.36-34.76-75.32-34.76-75.32z" fill="#feffba"/><path d="m1064.12 318.18c4.24 1.61-33.61 2.256-29.55 15.992-23.59-3.761-68.591-4.373-68.584-12.058.007-7.684-20.645-26.008-31.54-29.802-9.028-3.145-19.594.116-5.442-7.216 14.153-7.332 26.77-4.554 38.159 5.323 6.239 5.411 11.067 12.846 11.079 17.941 2.066-1.213 6.061-6.095 5.513-15.921-.548-9.825-15.092-18.27-22.296-21.265 6.079-.882 22.678 1.255 40.441 16.864 17.75 15.608 12.69 23.24 7.93 25.105 18.28-5.265 49.14 3.086 54.29 5.037z" fill="url(#u)"/><path d="m1055.81 391.276c-14.19 39.286-61.296 93.837-84.988 79.651s-52.006-47.459-49.32-112.287c1.461-35.258 35.569-59.403 80.388-54.438 64.49 7.146 65.35 55.453 53.92 87.074z" fill="#9b1c2e"/><path d="m1049.42 390.001c-12.82 35.337-55.155 84.473-76.345 71.785s-46.474-42.516-43.906-100.776c1.397-31.686 32.015-53.467 72.151-49.117 57.76 6.26 58.42 49.666 48.1 78.108z" fill="#841525"/><path d="m979.825 373.165c-1.601-30.082-4.691-62.241 15.553-60.039 19.152 2.083 11.412 33.241 4.255 59.078-4.018 14.495-10.48 43.729-15.629 59.993-2.21-7.988-2.609-29.536-4.179-59.032z" fill="#6f1522"/><path d="m979.074 351.448c.105-2.425-.001-5.27-.112-8.232-.041-1.104-.083-2.224-.114-3.345-.119-4.193-.104-8.491.53-12.428.634-3.94 1.869-7.39 4.089-9.983 2.161-2.522 5.372-4.37 10.259-4.963 5.481.821 8.824 3.47 10.854 7.097 2.09 3.755 2.84 8.685 2.76 14.018-.13 8.922-2.53 18.415-4.03 24.334-.3 1.168-.56 2.197-.76 3.055-5.834 24.93-12.508 44.03-19.393 63.286-1.934-21.502-4.725-57.888-4.083-72.839z" stroke="#f79585" stroke-width="3"/><ellipse cx="982.844" cy="435.73" fill="#f69585" rx="3.33397" ry="17.7812" transform="matrix(.99745887 .07124467 -.07124467 .99745887 33.540974 -68.915149)"/><path d="m963.951 330.881c-14.576 3.302-28.292 23.09-28.056 20.862-2.017 3.671 12.957-25.08 27.182-28.561 9.98-2.441 19.268.701 17.522 4.834-1.747 4.132-2.073-.436-16.648 2.865z" fill="#f69585"/><path d="m963.996 348.199c-13.844 3.304-26.935 22.831-26.703 20.638-1.928 3.62 12.391-24.733 25.903-28.212 9.48-2.441 18.283.617 16.61 4.691-1.673 4.073-1.965-.421-15.81 2.883z" fill="#f69585"/><path d="m963.803 364.295c-13.331 3.085-25.9 21.466-25.681 19.399-1.849 3.409 11.883-23.291 24.893-26.541 9.128-2.28 17.615.622 16.013 4.459-1.603 3.837-1.895-.401-15.225 2.683z" fill="#f69585"/><path d="m964.585 379.39c-13.89 3.187-26.976 22.226-26.749 20.084-1.925 3.531 12.368-24.126 25.924-27.486 9.511-2.357 18.358.656 16.69 4.631-1.668 3.974-1.974-.417-15.865 2.771z" fill="#f69585"/><path d="m965.74 394.069c-12.682 3.074-24.692 21.168-24.476 19.137-1.77 3.354 11.374-22.913 23.752-26.149 8.683-2.27 16.741.551 15.205 4.325-1.537 3.773-1.799-.388-14.481 2.687z" fill="#f69585"/><path d="m967.527 405.309c-11.588 3.971-21.067 21.418-21.065 19.567-1.329 3.191 8.409-21.732 19.696-25.82 7.918-2.867 15.75-1.085 14.681 2.462s-1.725-.179-13.312 3.791z" fill="#f69585"/><path d="m971.518 416.726c-9.818 7.324-13.505 26.835-14.07 25.072-.289 3.445 1.359-23.263 10.854-30.607 6.661-5.152 14.663-5.851 14.73-2.147s-1.697.357-11.514 7.682z" fill="#f69585"/><path d="m1022.14 339.462c13.32 4.689 24.37 25.706 24.35 23.466 1.55 3.848-9.87-26.212-22.85-31.045-9.1-3.392-18.06-1.158-16.79 3.123 1.26 4.281 1.97-.234 15.29 4.456z" fill="#f69585"/><path d="m1019.18 356.708c13.28 4.615 24.29 25.307 24.27 23.101 1.55 3.789-9.83-25.806-22.77-30.563-9.08-3.338-18.01-1.138-16.75 3.077s1.97-.231 15.25 4.385z" fill="#f69585"/><path d="m1015.88 372.842c12.98 4.346 23.73 23.845 23.71 21.767 1.52 3.57-9.6-24.322-22.24-28.802-8.87-3.143-17.592-1.066-16.36 2.907 1.22 3.972 1.92-.218 14.89 4.128z" fill="#f69585"/><path d="m1011.98 386.571c13.52 4.502 24.72 24.705 24.7 22.552 1.58 3.699-10-25.2-23.17-29.841-9.25-3.256-18.34-1.103-17.061 3.013 1.28 4.116 2.005-.226 15.531 4.276z" fill="#f69585"/><path d="m1008.3 397.739c12.33 4.273 22.55 23.434 22.53 21.392 1.44 3.507-9.13-23.897-21.14-28.302-8.42-3.091-16.714-1.053-15.546 2.85s1.828-.214 14.156 4.06z" fill="#f69585"/><path d="m1003.17 409.923c11.15 5.061 18.92 23.335 19.09 21.493 1.02 3.303-6.29-22.438-17.13-27.586-7.61-3.612-15.577-2.588-14.852 1.045s1.734-.013 12.892 5.048z" fill="#f69585"/><path d="m998.943 420.682c9.067 8.23 10.877 28.005 11.607 26.304-.04 3.456.87-23.287-7.88-31.505-6.134-5.766-14.033-7.228-14.454-3.547s1.655.518 10.727 8.748z" fill="#f69585"/><path d="m1049.42 390.001c-12.82 35.337-55.155 84.473-76.345 71.785s-46.474-42.516-43.906-100.776c1.397-31.686 32.015-53.467 72.151-49.117 57.76 6.26 58.42 49.666 48.1 78.108z" fill="url(#w)"/><path d="m1228.63 489.034c2.38 3.863-28.02-18.687-33.18-5.324-16.41-17.355-51.72-45.259-47.03-51.348 4.69-6.088-.52-33.201-6.85-42.848-5.24-7.994-15.61-11.847.08-9.037 15.69 2.809 24 12.699 27.02 27.47 1.65 8.092.95 16.929-2.15 20.977 2.38.297 8.52-1.14 14.07-9.265s-.83-23.683-4.72-30.447c5.36 3.005 17.22 14.813 21.79 38.01 4.57 23.196-4.1 26.16-9 24.742 17.69 6.961 37.08 32.386 39.97 37.07z" fill="url(#x)"/><path d="m1177.51 541.936c-35.2 22.5-105.78 37.057-115.93 11.373-10.14-25.685-12.32-69.32 29.31-119.088 22.64-27.068 64.4-25.43 96.91 5.813 46.78 44.96 18.04 83.793-10.29 101.902z" fill="#9b1c2e"/><path d="m1173.22 537.028c-31.7 20.209-95.21 33.377-104.28 10.405s-10.95-62.029 26.59-106.661c20.41-24.273 57.96-22.889 87.14 5.016 41.98 40.157 16.06 74.975-9.45 91.24z" fill="#841525"/><path d="m1128.29 481.274c17.06-24.828 34.2-52.211 48.91-38.13 13.92 13.32-11.2 33.313-32.62 49.437-12.02 9.046-34.95 28.289-48.95 38.048 3.12-7.68 15.93-25.01 32.66-49.355z" fill="#6f1522"/><path d="m1140.93 463.597c1.56-1.859 3.21-4.18 4.92-6.596.64-.9 1.29-1.814 1.95-2.722 2.46-3.397 5.09-6.796 7.99-9.532 2.91-2.737 5.99-4.721 9.33-5.423 3.25-.684 6.92-.193 11.16 2.314 3.84 3.991 4.88 8.131 4.28 12.24-.63 4.255-3.04 8.617-6.35 12.798-5.54 6.995-13.23 13.058-18.03 16.839-.94.746-1.78 1.403-2.46 1.961-19.82 16.213-36.75 27.291-53.94 38.365 11.57-18.228 31.53-48.78 41.15-60.244z" stroke="#f79585" stroke-width="3"/><ellipse cx="1092.56" cy="532.724" fill="#f69585" rx="3.33397" ry="17.7812" transform="matrix(.7475118 .66424852 -.66424852 .7475118 629.719633 -591.224846)"/><path d="m1141.47 438.074c-13.57-6.264-36.51 1.07-34.96-.552-3.84 1.681 25.55-11.993 38.95-6.085 9.41 4.144 14.86 12.296 10.95 14.508-3.9 2.213-1.37-1.608-14.94-7.871z" fill="#f69585"/><path d="m1130.95 451.833c-12.99-5.815-35.27 1.692-33.75.095-3.73 1.695 24.9-12.062 37.73-6.587 9 3.84 14.12 11.629 10.31 13.839-3.81 2.211-1.3-1.531-14.29-7.347z" fill="#f69585"/><path d="m1120.99 464.479c-12.45-5.677-33.62 1.24-32.18-.265-3.55 1.576 23.61-11.228 35.91-5.879 8.62 3.754 13.59 11.227 9.98 13.293-3.61 2.065-1.26-1.473-13.71-7.149z" fill="#f69585"/><path d="m1112.41 476.924c-12.95-5.935-34.93 1.187-33.45-.373-3.67 1.627 24.51-11.594 37.31-5.998 8.98 3.926 14.15 11.705 10.41 13.841-3.74 2.135-1.31-1.534-14.27-7.47z" fill="#f69585"/><path d="m1104.38 489.267c-11.93-5.289-32.47 1.741-31.06.262-3.45 1.581 22.98-11.239 34.76-6.263 8.27 3.491 12.94 10.638 9.42 12.694-3.51 2.056-1.19-1.403-13.12-6.693z" fill="#f69585"/><path d="m1098.95 499.269c-11.61-3.912-29.75 4.147-28.62 2.681-3 1.72 19.91-12.109 31.35-8.473 8.02 2.551 13.15 8.736 10.14 10.897s-1.26-1.193-12.87-5.105z" fill="#f69585"/><path d="m1095.16 510.753c-12.25-.174-27.06 13.05-26.43 11.308-2.33 2.555 15.25-17.618 27.25-17.656 8.42-.026 15.2 4.295 12.99 7.273-2.2 2.978-1.56-.751-13.81-.925z" fill="#f69585"/><path d="m1182.38 480.333c7.7 11.834 3.66 35.231 5 33.441-1.11 4 8.15-26.796.81-38.536-5.16-8.236-13.62-11.922-15.23-7.758-1.6 4.164 1.71 1.018 9.42 12.853z" fill="#f69585"/><path d="m1169.52 492.205c7.72 11.751 3.84 34.868 5.17 33.106-1.08 3.949 7.93-26.455.57-38.11-5.17-8.177-13.59-11.873-15.16-7.764s1.7 1.016 9.42 12.768z" fill="#f69585"/><path d="m1157.08 502.989c7.64 11.351 4.28 33.365 5.53 31.704-.97 3.754 7.21-25.135-.08-36.388-5.12-7.896-13.31-11.566-14.75-7.667-1.45 3.898 1.66.999 9.3 12.351z" fill="#f69585"/><path d="m1145.61 511.494c7.98 11.809 4.56 34.656 5.85 32.935-1 3.895 7.42-26.076-.19-37.782-5.35-8.212-13.87-12.047-15.36-8.004-1.5 4.044 1.73 1.043 9.7 12.851z" fill="#f69585"/><path d="m1135.89 518.11c7.18 10.901 3.61 32.323 4.84 30.692-1 3.659 7.32-24.511.48-35.323-4.8-7.585-12.62-11.021-14.07-7.214-1.45 3.806 1.58.944 8.75 11.845z" fill="#f69585"/><path d="m1124.4 524.642c5.76 10.81.78 30.032 2.04 28.678-1.2 3.239 8.69-21.625 3.23-32.314-3.84-7.499-10.78-11.542-12.42-8.219-1.63 3.322 1.39 1.046 7.15 11.855z" fill="#f69585"/><path d="m1114.49 530.601c2.18 12.053-8.44 28.832-6.82 27.928-2.14 2.715 14.88-17.932 12.95-29.779-1.35-8.312-6.72-14.284-9.3-11.622s1 1.419 3.17 13.473z" fill="#f69585"/><path d="m1173.22 537.028c-31.7 20.209-95.21 33.377-104.28 10.405s-10.95-62.029 26.59-106.661c20.41-24.273 57.96-22.889 87.14 5.016 41.98 40.157 16.06 74.975-9.45 91.24z" fill="url(#y)"/><path d="m706 702c0 28-37.387 96-65.001 96-27.615 0 8.001-47 14-96 5.142-42-14-79.5 9-86 27.501-2.5 42.001 39 42.001 86z" fill="#8a594d"/><path d="m705.999 702c0 28-37.387 96-65.001 96-27.615 0 1.96-39.01 13.502-88.5.35-1.5-15.502 60.5 7.499 54 27.501-2.5 44-108.5 44-61.5z" fill="#5c3b33"/><path d="m664.5 689.509c-.001 12.5-2.167 26.5-3.5 35.5 7-8 17-18 13.5-51-1.276-12.026-2.5-21.5-10-22s.001 20.47 0 37.5z" fill="#ffdcaa"/><ellipse cx="664.376" cy="640.686" fill="#ffdcaa" rx="5.5" ry="7.3237" transform="matrix(.98886046 -.14884554 .14884554 .98886046 -87.962411 106.026355)"/><circle cx="451.267" cy="753.091" fill="#f9d4d9" r="144.386" transform="matrix(.95645924 -.29186594 .29186594 .95645924 -200.153101 164.499621)"/><path d="m375.708 600.61c109.271-55.418 315.094 58.073 226.18 87.763-27.74 9.262-39.984-13.659-74.226-20.867-42.801-9.01-26.772 95.233-89.793 77.516-35.012-9.843 18.859-29.455 2.705-68.753-12.922-31.438-39.866 23.549-51.722 54.973-10.69 23.692-34.646 123.242-83.224 118.652-48.578-4.589 36.272-69.894 7.036-84.158-29.236-14.263-63.657 161.933-92.893 147.669-29.235-14.263 31.503-63.679 10.496-69.585-21.008-5.906-67.646 116.988-127.512 136.425-59.866 19.438 11.463-30.023 82.696-149.024s72.125-170.701 190.257-230.611z" fill="#8a594d"/><path d="m526.781 624.946c15.998-16.055-74.562-29.525-122.542-34.45 9.055-4.884 40.935-11.764 101.619 1.367 75.855 16.413 108.271 32.307 120.357 61.036 10.524 25.018-6.113 31.149-23.759 40.167-17.647 9.017-60.892-20.623-78.427-22.048-32.134-2.611-30.022 94.697-87.803 75.808-28.943-9.461-1.34-33.383 2.228-40.175 8.127-15.471 4.46-31.991-9.053-37.679-18.917-7.963-58.049 117.796-70.038 141.627-11.988 23.83-29.283 44.688-62.435 37.983-23.95-4.844 10.279-50.001 16.163-64.214 1.902-4.594-2.409-18.308-6.326-19.157 9.723-4.571 29.305-11.784 32.878 1.309 4.465 16.367 24.415-38.471 43.142-75.519 18.726-37.048 48.158-54.036 77.062-40.293 11.664 5.546 10.31 27.833 27.31 7.677 17-20.155 19.626-13.372 39.624-33.439z" fill="#5c3b33"/><path d="m240.219 729.125c34.554-62.443 80.939-103.805 108.224-113.513-13.258 18.94-53.46 69.218-69.299 91.966-14.952 21.473-82.981 112.404-119.125 163.859-2.633 4.143-4.705 7.139-6.084 8.726 1.903-2.755 3.937-5.671 6.084-8.726 15.836-24.92 51.992-91.339 80.2-142.312z" fill="#ffdcaa"/><ellipse cx="291.533" cy="702.395" fill="#ffdcaa" rx="12.0018" ry="38.1876" transform="matrix(.83743266 .54654051 -.54654051 .83743266 431.281068 -45.148112)"/><circle cx="146.562" cy="146.562" fill="#e6fdff" r="146.562" transform="matrix(-.871774 .489908 .489908 .871774 931.148 1362.53)"/><path d="m904.444 1402.14c-97.64-23.01-239.509 107.02-163.032 113.48 23.86 2.02 29.179-18.58 55.033-30.93 32.318-15.42 39.68 70.61 86.407 44.35 25.959-14.58-20.69-19.79-15.421-54.18 4.216-27.51 36.266 11.05 51.764 33.76 13.077 16.79 51.35 91.38 89.115 78.35 37.77-13.03-42.347-48.61-21.837-65.6 20.507-17 81.897 116.56 102.407 99.57s-37.35-44.59-21.78-53.35c15.58-8.75 76.4 80.04 127.79 83.95s-14.91-21.68-94.56-102.62c-79.64-80.94-90.33-121.9-195.886-146.78z" fill="#bb2c37"/><path d="m774.788 1475.43c-15.828-9.69 67.773-62.65 104.999-75.83-8.147-2.14-34.841-1.46-80.593 20.7-57.189 27.7-81.405 46.6-83.988 71.79-2.318 22.62 6.357 32.08 22.582 32.08 18 0 47.729-4.98 61.406-9.5 25.065-8.28 38.722 51.46 83.593 73 25.001 12 27.309-16.35 12.5-54-5.238-13.31-.153-23.86 9.501-31 13.516-9.98 38.862 68.35 53 85s33.915 27.73 59.002 16c18.12-8.47 2.92-30.32-4.5-40.5-2.4-3.29-31.456-32.07-28.503-33.5-8.618-1.76 20.003 23.5-7 23.5-13.891 0-38.484-51.87-60.534-77.74-22.049-25.86-42.12-29.36-49.466-6.76-6.5 20 7 84.5-37.999 23.42-12.804-17.38-34.215-4.55-54-16.66z" fill="#7a1c23"/><path d="m1022.79 1464.17c-54.914-55.15-101.419-61.04-125.003-63.5 14.204 12.51 60.999 49.26 93 77.58 32.003 28.33 102.003 80.92 144.063 103.53-16.06-18.11-70.83-76.19-112.06-117.61z" fill="#ff6c78"/><ellipse cx="15.0013" cy="47.7313" fill="#ff6c78" rx="15.0013" ry="47.7313" transform="matrix(-.685023 .728521 .728521 .685023 958.34 1430.67)"/><ellipse cx="8.18109" cy="26.0308" fill="#ff6c78" rx="8.18109" ry="26.0308" transform="matrix(-.685023 .728521 .728521 .685023 948.996 1469.67)"/><path d="m1235.31 1676.34c-16.94-.14-47.09-3.83-60.53-8.89 15.49 11.23 54.17 34.44 84.97 37.43 38.51 3.73 32.63-11.57 23.87-16.95-11.83-7.27-26.3-11.41-48.31-11.59z" fill="#bb2c37"/><path d="m562.692 270.299c23.216 9.415 25.041 29.377 23.051 38.182-11.202.813-32.798 3.078-51.618-4.34-23.356-9.205-37.646-31.162-47.463-43.353 15.669-.753 52.813.097 76.03 9.511z" fill="url(#A)"/><path d="m553.706 284.913c7.856 2.481 26.958 15.439 32.034 21.567-7.008-4.993-18.994-14.438-32.031-18.766-15.009-4.983-28.018-9.569-36.223-12.16 10.873 3.255 28.015 6.769 36.22 9.359z" fill="#6fb85e"/><path d="m562.692 270.299c23.216 9.415 25.041 29.377 23.051 38.182-11.202.813-32.798 3.078-51.618-4.34-23.356-9.205-37.646-31.162-47.463-43.353 15.669-.753 52.813.097 76.03 9.511z" fill="#0d1a4a" fill-opacity=".4"/><path d="m524.226 282.97c33.909-9.197 52.891 11.539 58.143 23.057-11.814 10.416-34 31.275-61.306 38.97-33.886 9.55-68.477-2.832-89.784-8.108 16.854-14.141 59.038-44.721 92.947-53.919z" fill="url(#B)"/><path d="m526.601 306.911c10.875-3.899 43.198-5.649 54.066-3.115-12.061.374-33.459.005-51.685 6.239-20.986 7.177-39.4 13.1-50.759 17.173 14.901-5.596 37.019-16.225 48.378-20.297z" fill="#6fb85e"/><path d="m607.316 432.699c-12.468-30.24-35.612-96.884-28.443-121.539 8.962-30.819-61.172 156.69-58.294 194.711" stroke="url(#C)" stroke-width="15"/><circle cx="39.6752" cy="39.6752" fill="url(#E)" r="39.6752" transform="matrix(-.991023 -.133689 -.133689 .991023 571.455 496.72)"/><path d="m496.286 537.557c-1.98 14.68 16.836 20.954 20.566 21.458 3.73.503-7.061-11.762-10.372-19.063s.283-15.927-3.446-16.431c-3.73-.503-5.778 6.851-6.748 14.036z" fill="#ff816c"/><ellipse cx="4.76102" cy="6.34803" fill="#ff816c" rx="4.76102" ry="6.34803" transform="matrix(-.919981 -.391962 -.391962 .919981 512.912 508.744)"/><circle cx="31.7401" cy="31.7401" fill="url(#F)" r="31.7401" transform="matrix(-.991023 -.133689 -.133689 .991023 655.154 422.337)"/><path d="m595.018 455.007c-1.584 11.743 13.469 16.763 16.453 17.165 2.983.403-5.649-9.409-8.298-15.25s.227-12.742-2.757-13.144c-2.984-.403-4.622 5.48-5.398 11.229z" fill="#ff816c"/><ellipse cx="3.80882" cy="5.07842" fill="#ff816c" rx="3.80882" ry="5.07842" transform="matrix(-.919981 -.391962 -.391962 .919981 608.318 431.956)"/><path d="m1445.65 1476.21c3.95 38.83-7.76 76.79-32.55 105.52-24.78 28.73-60.61 45.87-99.61 47.66-38.99 1.79-77.96-11.91-108.32-38.11-30.36-26.19-49.64-62.73-53.58-101.56l147.03-6.76z" fill="url(#G)"/><path d="m1415.55 1477.93c1.5 30.85-9.32 61.03-30.08 83.89-20.76 22.87-49.75 36.56-80.6 38.06-30.85 1.49-61.02-9.33-83.89-30.09s-36.56-49.75-38.05-80.6l116.31-5.63z" fill="#9bd674"/><path d="m1266.1 1496.67s-24.26 19.48-41.14 27.44c-16.88 7.97-19.47 2.51-19.99 1.39-.53-1.11-3.56-7.55 13.32-15.52 16.88-7.96 47.81-13.31 47.81-13.31z" fill="#b9fd8c"/><path d="m1330.74 1495.8s30.83-4.24 49.4-2.4c18.57 1.85 17.98 7.86 17.86 9.09s-.83 8.31-19.41 6.46c-18.57-1.85-47.85-13.15-47.85-13.15z" fill="#b9fd8c"/><path d="m1276.6 1496.21s-15.89 34.06-29.31 52.43c-13.43 18.36-18.31 14.8-19.3 14.08-1-.73-6.74-4.94 6.68-23.3 13.43-18.37 41.93-43.21 41.93-43.21z" fill="#b9fd8c"/><path d="m1316.55 1497.49s35.17 13.26 54.5 25.25 16.16 17.13 15.51 18.18-4.41 7.09-23.74-4.9-46.27-38.53-46.27-38.53z" fill="#b9fd8c"/><path d="m1291.82 1497.38s-4.08 39.48-10.9 62.56-12.61 21.37-13.79 21.02c-1.19-.35-8.01-2.37-1.19-25.45s25.88-58.13 25.88-58.13z" fill="#b9fd8c"/><path d="m1307.85 1498.98s14 37.13 26.48 57.71c12.47 20.58 17.64 17.46 18.69 16.82 1.06-.64 7.14-4.34-5.33-24.92-12.48-20.58-39.84-49.61-39.84-49.61z" fill="#b9fd8c"/><path d="m1299.2 1501.05s10.55 36.07 12.59 58.73c2.04 22.65-3.98 23.2-5.21 23.31-1.22.11-8.31.74-10.35-21.91-2.04-22.66 2.97-60.13 2.97-60.13z" fill="#b9fd8c"/><path d="m1786 1067c-58.19 174.56 192 136 48 352-70.06 105.09-220-172-172-352 30.88-115.799-220-128-136-240 140-128 304 108 260 240z" fill="#8a594d"/><path d="m1718.36 934.294c20.44 28.213 38.45 63.352 50.16 85.846 2.71-29.503 8.93-68.427-52.94-137.182-22.54-25.056-40.8-44.436-58.55-33.299-17.74 11.137 33.48 46.199 61.33 84.635z" fill="#ffdcaa"/><ellipse cx="1632.24" cy="832.304" fill="#ffdcaa" rx="15.3295" ry="20.4124" transform="matrix(.71340579 -.70075115 .70075115 .71340579 -115.447457 1382.327562)"/><path d="m1944 1003c0 65.72-32 146-79.44 130-38.56-24 0-64.28 0-130 0-65.722-9.49-86 0-108 21.12-48.925 79.44 42.278 79.44 108z" fill="#8a594d"/><path d="m1855 1055.5c9-22 9.5-61 9.5-64 4.67 27.67-.5 97.5 26 97.5 18.77 0 53.5-79 53.5-79s-6 126-69.5 126c-43 0-27.06-62.02-19.5-80.5z" fill="#784d43"/><path d="m1669 1270c-23-75-23-147.5-4-224 21 80.33 74.2 241.4 123 235s-84.45-135 0-224c-2 12.33-7 39.5-7 76.5 0 47.38 73.12 95.78 95.5 133.5 27 45.5-19.5 172-81.5 180s-95.71-78.23-126-177z" fill="#613f37"/><g stroke-linecap="round" stroke-width="10"><path d="m1756.1 851.252-10.2 51.496" stroke="#71d67b"/><path d="m1588.91 997.732 25.36-45.967" stroke="#ffee8a"/><path d="m1854.96 1084.97 25.36-45.97" stroke="#ffee8a"/><path d="m1697.54 1156.07 34.2 39.83" stroke="#ffee8a"/><path d="m1805.36 1317.6-13.9 50.62" stroke="#ffee8a"/><path d="m1718.96 1115.97 25.36-45.97" stroke="#5670d8"/><path d="m1933.69 1048.44-26.29-45.44" stroke="#5670d8"/><path d="m1818.96 1254.97 25.36-45.97" stroke="#5670d8"/><path d="m1776 1030.2 43.35 29.61" stroke="#71d67b"/><path d="m1549.11 833-5.61 52.197" stroke="#71d67b"/><path d="m1598 851.197 43.35 29.615" stroke="#5670d8"/><path d="m1690.51 1273.47 50.33-14.93" stroke="#71d67b"/><path d="m1756.43 965.274-49.68 16.948" stroke="#dd28a4"/><path d="m1756.43 965.274-49.68 16.948" stroke="#dd28a4"/><path d="m1756.43 965.274-49.68 16.948" stroke="#dd28a4"/><path d="m1756.43 965.274-49.68 16.948" stroke="#dd28a4"/><path d="m1756.43 965.274-49.68 16.948" stroke="#dd28a4"/><path d="m1910.69 940.41-49.69 16.948" stroke="#dd28a4"/><path d="m1910.69 940.41-49.69 16.948" stroke="#dd28a4"/><path d="m1910.69 940.41-49.69 16.948" stroke="#dd28a4"/><path d="m1910.69 940.41-49.69 16.948" stroke="#dd28a4"/><path d="m1910.69 940.41-49.69 16.948" stroke="#dd28a4"/><path d="m1734.02 1399.73-4.36 52.31" stroke="#dd28a4"/><path d="m1734.02 1399.73-4.36 52.31" stroke="#dd28a4"/><path d="m1734.02 1399.73-4.36 52.31" stroke="#dd28a4"/><path d="m1734.02 1399.73-4.36 52.31" stroke="#dd28a4"/><path d="m1734.02 1399.73-4.36 52.31" stroke="#dd28a4"/><path d="m1630 1054.34 40.29 33.66" stroke="#dd28a4"/><path d="m1630 1054.34 40.29 33.66" stroke="#dd28a4"/><path d="m1630 1054.34 40.29 33.66" stroke="#dd28a4"/><path d="m1630 1054.34 40.29 33.66" stroke="#dd28a4"/><path d="m1630 1054.34 40.29 33.66" stroke="#dd28a4"/></g><path d="m1257.53 517.782c-10.06 50.527 36.83 109.765 65.28 123.234 11.8-23.369 36.36-52.549 33.32-107.764-2.55-46.348-57.03-87.033-84.51-111.721-3 17.587-4.03 45.723-14.09 96.251z" fill="#61ab4f"/><path d="m1301.55 542.479c2.88 21.497 13.79 73.996 20.91 97.991-3.01-19.857-9.66-64.114-12.21-82.282-2.56-18.168-16.16-67.497-22.65-89.89 2.1 15.481 11.07 52.684 13.95 74.181z" fill="#9bd674"/><path d="m1276.88 499.859c3.73 11.669 18.33 27.46 25.17 33.896l-.42 4.863c-4.51-4.516-16.33-16.885-21.3-25.051-4.54-7.471-9.56-24.551-9.22-36.383.36 2.696 2.03 11.006 5.77 22.675z" fill="#9bd674"/><path d="m1286.71 558.987c8.78 11.847 15.05 14.797 21.89 21.234l1.58 5.552c-4.51-4.516-20.74-13.657-25.7-21.823-4.54-7.47-14.63-22.668-14.29-34.5.37 2.696 9.23 19.69 16.52 29.537z" fill="#9bd674"/><path d="m1317.12 511.595c-1.1 12.647-8.32 20.589-11.46 29.794l2.14 8.852c1.95-6.32 12.56-28.429 13.16-38.314.54-9.042-.21-30.862-6.24-41.539.96 2.648 3.5 28.541 2.4 41.207z" fill="#9bd674"/><path d="m1332.9 527.988c-2.42 12.461-15.52 30.485-21.77 37.94l1.02 4.952c4.09-5.195 14.75-19.361 18.87-28.367 3.76-8.24 6.85-26.425 5.06-38.559-.05 2.82-.75 11.573-3.18 24.034z" fill="#9bd674"/><path d="m1338.93 575.369c-4.69 12.487-16.33 18.109-22.58 25.564l1.03 4.952c4.08-5.195 18.39-14.722 22.51-23.728 3.76-8.24 11.01-43.797 9.23-55.93-.06 2.819-5.73 37.259-10.19 49.142z" fill="#9bd674"/><path d="m1288.81 588.307c8.13 7.407 17.27 12.13 26.4 15.492l1.58 4.806c-6.14-2.475-20.37-9.411-28.42-15.18-7.36-5.277-15.71-23.338-20.2-34.754 1.45 2.421 13.58 23.191 20.64 29.636z" fill="#9bd674"/><path d="m1257.53 517.782c-10.06 50.527 36.83 109.765 65.28 123.234 11.8-23.369 36.36-52.549 33.32-107.764-2.55-46.348-57.03-87.033-84.51-111.721-3 17.587-4.03 45.723-14.09 96.251z" fill="url(#I)"/><path d="m1373.71 507.035c-43.52 27.586-54.03 102.398-44.15 132.284 25.06-7.589 63.12-9.951 100.99-50.252 31.78-33.829 23.63-101.334 22.53-138.259-14.8 9.963-35.86 28.64-79.37 56.227z" fill="#61ab4f"/><path d="m1386.21 555.935c-13.57 16.922-44.04 61.045-56.49 82.756 12.3-15.88 39.73-51.237 51.12-65.622s37.7-58.273 49.43-78.42c-9.76 12.202-30.49 44.365-44.06 61.286z" fill="#9bd674"/><path d="m1400.03 508.666c-5.87 10.756-7.22 32.221-7.17 41.609l-3.8 3.051c.15-6.379.95-23.471 3.43-32.7 2.27-8.443 11.17-23.864 19.96-31.785-1.69 2.127-6.56 9.07-12.42 19.825z" fill="#9bd674"/><path d="m1364.02 556.588c-2.52 14.525-.32 21.104-.27 30.492l-2.92 4.976c.16-6.379-4.43-24.431-1.94-33.66 2.27-8.443 6.31-26.228 15.1-34.15-1.69 2.127-7.88 20.27-9.97 32.342z" fill="#9bd674"/><path d="m1419.3 545.888c-9.91 7.935-20.64 8.19-29.47 12.265l-4.93 7.662c5.92-2.954 29.24-10.53 36.81-16.919 6.92-5.844 22.19-21.447 25.76-33.183-1.25 2.528-18.25 22.229-28.17 30.175z" fill="#9bd674"/><path d="m1418.33 568.626c-10.69 6.846-32.78 9.801-42.48 10.422l-2.88 4.16c6.58-.626 24.19-2.688 33.55-5.924 8.56-2.961 23.85-13.276 31.4-22.942-2.08 1.908-8.9 7.437-19.59 14.284z" fill="#9bd674"/><path d="m1388.2 605.683c-12.28 5.222-24.38.678-34.08 1.3l-2.88 4.159c6.58-.626 23.35 3.156 32.71-.08 8.56-2.961 39.29-22.253 46.84-31.92-2.07 1.909-30.91 21.572-42.59 26.541z" fill="#9bd674"/><path d="m1344.25 578.343c.25 10.993 3.14 20.87 7.01 29.796l-2.4 4.455c-2.44-6.145-7.24-21.234-8.62-31.039-1.26-8.971 6.05-27.48 11.22-38.602-.76 2.717-7.42 25.827-7.21 35.39z" fill="#9bd674"/><path d="m1373.71 507.035c-43.52 27.586-54.03 102.398-44.15 132.284 25.06-7.589 63.12-9.951 100.99-50.252 31.78-33.829 23.63-101.334 22.53-138.259-14.8 9.963-35.86 28.64-79.37 56.227z" fill="url(#J)"/><circle cx="76.9174" cy="76.9174" fill="url(#L)" r="76.9174" transform="matrix(-.942501 .334204 .334204 .942501 1365.99 570.575)"/><path d="m1262.79 700.975c23.16 37.75 38.49 27.572 38.49 27.572s-17.27-21.746-23.31-38.776c-11.53-28.456-7.12-43-17.87-44.973-13.33-2.447-12.62 31.232 2.69 56.177z" fill="#7d96f3"/><path d="m1289.79 739.881c19.1 7.268 41.88 8.07 60.53-.3s33.21-23.806 40.47-42.911c7.27-19.104 6.06-42.643-2.31-61.291-8.37-18.649-24.3-32.128-43.41-39.396 0 0 21.67 55.534 9.71 86.986-11.97 31.452-64.99 56.912-64.99 56.912z" fill="#4b62b9" fill-opacity=".2"/><path d="m1357.19 613.386c-4.75-7.841-19.12-9.891-25.71-9.935-1.56-2.092-6.01-6.285-11.28-6.321-6.59-.045-20.79 1.995-17.06 2.874 2.69.634 16.14 3.803 13.47 5.544-11.22.803-22.69.901-27.3 4.123-4.08 2.855 14.74 1.39 18.08 2.322-2.01 2.829-6.7 10.313-9.37 17.612-3.34 9.122 16.79-5.954 24.09-8.543 7.3-2.588 10.57 8.954 18.12 7.071 6.04-1.507-.31-8.62-4.25-11.989 9.05 2.348 25.97 5.084 21.21-2.758z" fill="#293e91"/><circle cx="61.0213" cy="61.0213" fill="url(#M)" r="61.0213" transform="matrix(-.559867 .828583 .828583 .559867 1378.33 513.8)"/><path d="m1373.89 645.655c32.57 13.183 37.56-.536 37.56-.536s-21.27-5.742-33.15-13.768c-20.76-12.734-24.8-24.093-32.59-20.288-9.67 4.72 6.65 25.88 28.18 34.592z" fill="#7d96f3"/><path d="m1409.45 657.769c15.62-4.362 30.53-14.579 38.49-28.707 7.97-14.128 9.99-30.84 5.63-46.459-4.37-15.619-16.23-30.073-30.36-38.033-14.12-7.96-30.65-9.058-46.26-4.696 0 0 39.99 25.238 47.17 50.951s-14.67 66.944-14.67 66.944z" fill="#4b62b9" fill-opacity=".2"/><path d="m1392.88 545.271c-6.73-2.766-16.86 2.695-21.09 5.771-1.98-.599-6.8-1.181-10.18 1.28-4.23 3.076-12.33 11.068-9.54 9.872h.01c2.01-.863 12.09-5.177 11.21-2.808-6.79 5.799-14.06 11.265-15.49 15.494-1.26 3.746 10.06-6.056 12.64-7.037.05 2.754.58 9.739 2.31 15.656 2.17 7.397 7.92-11.71 11.36-16.801 3.44-5.092 10.96.735 14.89-4.024 3.15-3.807-4.26-5.353-8.36-5.65 6.89-2.765 18.97-8.987 12.24-11.753z" fill="#293e91"/><circle cx="61.0213" cy="61.0213" fill="url(#M)" r="61.0213" transform="matrix(-1 .0010209 .0010209 1 1484.04 712.026)"/><path d="m1372.38 782.28c7.34 34.36 21.5 30.8 21.5 30.8s-7.17-20.832-7.19-35.167c-1.09-24.331 6.05-34.045-1.47-38.363-9.33-5.357-17.7 20.025-12.84 42.73z" fill="#7d96f3"/><path d="m1382.29 818.52c12.36 10.487 29.19 17.108 45.35 15.777s31.13-9.027 41.62-21.396 15.8-30.295 14.47-46.457-9.68-30.457-22.05-40.944c0 0 1.53 47.268-15.74 67.63-17.26 20.363-63.65 25.39-63.65 25.39z" fill="#4b62b9" fill-opacity=".2"/><path d="m1466.14 741.723c-1.48-7.122-11.68-12.454-16.6-14.23-.62-1.978-2.83-6.289-6.77-7.71-4.92-1.775-16.08-4.004-13.52-2.36 1.85 1.186 11.07 7.112 8.61 7.708-8.6-2.366-17.21-5.325-21.51-4.133-3.81 1.055 10.66 4.935 12.91 6.516-2.25 1.585-7.73 5.944-11.66 10.697-4.91 5.941 14.13-.015 20.28-.021 6.14-.006 5.54 9.492 11.68 10.079 4.92.47 2.04-6.532-.01-10.091 6.15 4.149 18.08 10.666 16.59 3.545z" fill="#293e91"/><circle cx="50.0143" cy="50.0143" fill="url(#N)" r="50.0143" transform="matrix(-.838067 .545567 .545567 .838067 1525.14 580.972)"/><path d="m1479.76 679.116c20.38 20.338 28.53 11.57 28.53 11.57s-14.23-11.117-20.64-20.963c-11.62-16.235-11.05-26.1-18.15-25.71-8.8.482-3.22 21.664 10.26 35.103z" fill="#7d96f3"/><path d="m1502.74 699.602c13.19 1.686 27.71-1.274 38.22-9.404 10.52-8.13 17.37-20.104 19.06-33.288 1.68-13.184-2.67-27.88-10.8-38.395-8.13-10.514-20.25-16.61-33.43-18.296 0 0 22.15 31.808 19.37 53.512-2.77 21.704-32.42 45.871-32.42 45.871z" fill="#4b62b9" fill-opacity=".2"/><path d="m1526.1 609.375c-4.2-4.233-13.6-3.341-17.77-2.367-1.3-1.084-4.75-3.058-8.09-2.278-4.17.975-12.84 4.426-10.35 4.414 1.8-.009 10.78-.053 9.36 1.454-6.97 2.216-14.21 4.024-16.63 6.763-2.15 2.426 9.53-1.365 11.78-1.285-.84 2.094-2.66 7.539-3.24 12.559-.72 6.276 9.71-6.319 13.93-9.067s8.05 4.051 12.53 1.711c3.59-1.871-1.51-5.401-4.51-6.931 6.08.106 17.19-.739 12.99-4.973z" fill="#293e91"/></g></svg>