<svg width="24" height="24" viewBox="0 0 24 24" fill="none" xmlns="http://www.w3.org/2000/svg">
<path d="M3.44444 2.21973C2.09618 2.21973 1 3.31591 1 4.66417V15.6642C1 17.0124 2.09618 18.1086 3.44444 18.1086H10.1667L9.75799 19.3308H7.11111C6.43507 19.3308 5.88889 19.877 5.88889 20.5531C5.88889 21.2291 6.43507 21.7753 7.11111 21.7753H16.8889C17.5649 21.7753 18.1111 21.2291 18.1111 20.5531C18.1111 19.877 17.5649 19.3308 16.8889 19.3308H14.242L13.8333 18.1086H20.5556C21.9038 18.1086 23 17.0124 23 15.6642V4.66417C23 3.31591 21.9038 2.21973 20.5556 2.21973H3.44444ZM20.5556 4.66417V13.2197H3.44444V4.66417H20.5556Z" fill="#232323"/>
</svg>
