<svg width="16" height="16" viewBox="0 0 16 16" fill="none" xmlns="http://www.w3.org/2000/svg">
<path d="M12 0H3C1.89531 0 1 0.895313 1 2V14C1 15.1047 1.89531 16 3 16H12C13.1047 16 14 15.1047 14 14V2C14 0.895313 13.1031 0 12 0ZM7.5 4C8.60469 4 9.5 4.89531 9.5 6C9.5 7.10469 8.60469 8 7.5 8C6.39563 8 5.5 7.10469 5.5 6C5.5 4.89531 6.39687 4 7.5 4ZM10.5 12H4.5C4.225 12 4 11.775 4 11.5C4 10.1187 5.11875 9 6.5 9H8.5C9.88062 9 11 10.1194 11 11.5C11 11.775 10.775 12 10.5 12ZM15.5 2H15V5H15.5C15.775 5 16 4.775 16 4.5V2.5C16 2.22375 15.775 2 15.5 2ZM15.5 6H15V9H15.5C15.775 9 16 8.775 16 8.5V6.5C16 6.225 15.775 6 15.5 6ZM15.5 10H15V13H15.5C15.7761 13 16 12.7761 16 12.5V10.5C16 10.225 15.775 10 15.5 10Z" fill="#232323"/>
</svg>
