<svg width="91" height="38" viewBox="0 0 91 38" fill="none" xmlns="http://www.w3.org/2000/svg">
<g opacity="0.5">
<rect y="0.5" width="91" height="37" rx="8" fill="#E0E3E3"/>
<path d="M20.7663 24.5H17.4702V14.3182H20.8707C21.8684 14.3182 22.7251 14.522 23.4411 14.9297C24.157 15.334 24.7055 15.9157 25.0866 16.6747C25.4711 17.4304 25.6634 18.3369 25.6634 19.3942C25.6634 20.4548 25.4695 21.3662 25.0817 22.1286C24.6972 22.8909 24.1404 23.4775 23.4112 23.8885C22.6821 24.2962 21.8004 24.5 20.7663 24.5ZM19.0064 23.1577H20.6818C21.4574 23.1577 22.102 23.0118 22.6158 22.7202C23.1295 22.4252 23.514 21.9993 23.7692 21.4425C24.0244 20.8823 24.152 20.1996 24.152 19.3942C24.152 18.5954 24.0244 17.9176 23.7692 17.3608C23.5173 16.804 23.1411 16.3814 22.6406 16.093C22.1402 15.8047 21.5187 15.6605 20.7763 15.6605H19.0064V23.1577ZM27.4544 24.5V16.8636H28.9409V24.5H27.4544ZM28.2051 15.6854C27.9466 15.6854 27.7245 15.5992 27.5389 15.4268C27.3566 15.2512 27.2654 15.0424 27.2654 14.8004C27.2654 14.5552 27.3566 14.3464 27.5389 14.174C27.7245 13.9983 27.9466 13.9105 28.2051 13.9105C28.4636 13.9105 28.684 13.9983 28.8663 14.174C29.0519 14.3464 29.1447 14.5552 29.1447 14.8004C29.1447 15.0424 29.0519 15.2512 28.8663 15.4268C28.684 15.5992 28.4636 15.6854 28.2051 15.6854ZM36.663 18.728L35.3157 18.9666C35.2594 18.7943 35.1699 18.6302 35.0472 18.4744C34.9279 18.3187 34.7655 18.1911 34.56 18.0916C34.3545 17.9922 34.0977 17.9425 33.7894 17.9425C33.3685 17.9425 33.0172 18.0369 32.7354 18.2259C32.4537 18.4115 32.3129 18.6518 32.3129 18.9467C32.3129 19.2019 32.4073 19.4074 32.5962 19.5632C32.7852 19.719 33.0901 19.8466 33.511 19.946L34.7241 20.2244C35.4267 20.3868 35.9504 20.6371 36.2951 20.9751C36.6398 21.3132 36.8121 21.7524 36.8121 22.2926C36.8121 22.75 36.6796 23.1577 36.4144 23.5156C36.1526 23.8703 35.7863 24.1487 35.3157 24.3509C34.8484 24.553 34.3065 24.6541 33.69 24.6541C32.8349 24.6541 32.1372 24.4718 31.5969 24.1072C31.0567 23.7393 30.7253 23.2173 30.6026 22.5412L32.0394 22.3224C32.1289 22.697 32.3129 22.9804 32.5913 23.1726C32.8697 23.3615 33.2326 23.456 33.68 23.456C34.1673 23.456 34.5567 23.3549 34.8484 23.1527C35.14 22.9472 35.2859 22.697 35.2859 22.402C35.2859 22.1634 35.1964 21.9628 35.0174 21.8004C34.8417 21.638 34.5716 21.5154 34.207 21.4325L32.9144 21.1491C32.2018 20.9867 31.6748 20.7282 31.3335 20.3736C30.9954 20.0189 30.8263 19.5698 30.8263 19.0263C30.8263 18.5755 30.9523 18.1811 31.2042 17.843C31.4561 17.505 31.8041 17.2415 32.2482 17.0526C32.6924 16.8603 33.2011 16.7642 33.7745 16.7642C34.5998 16.7642 35.2494 16.9432 35.7234 17.3011C36.1973 17.6558 36.5105 18.1314 36.663 18.728ZM40.6689 24.669C40.185 24.669 39.7475 24.5795 39.3564 24.4006C38.9653 24.2183 38.6554 23.9548 38.4267 23.6101C38.2013 23.2654 38.0886 22.8428 38.0886 22.3423C38.0886 21.9115 38.1715 21.5568 38.3372 21.2784C38.5029 21 38.7266 20.7796 39.0083 20.6172C39.2901 20.4548 39.6049 20.3321 39.9529 20.2493C40.301 20.1664 40.6556 20.1035 41.0169 20.0604C41.4743 20.0073 41.8455 19.9643 42.1305 19.9311C42.4155 19.8946 42.6227 19.8366 42.752 19.7571C42.8812 19.6776 42.9458 19.5483 42.9458 19.3693V19.3345C42.9458 18.9003 42.8232 18.5639 42.5779 18.3253C42.336 18.0866 41.9747 17.9673 41.4941 17.9673C40.9937 17.9673 40.5993 18.0784 40.3109 18.3004C40.0259 18.5192 39.8287 18.7628 39.7193 19.0312L38.3223 18.7131C38.488 18.2491 38.7299 17.8745 39.0481 17.5895C39.3696 17.3011 39.7392 17.0923 40.1568 16.9631C40.5744 16.8305 41.0136 16.7642 41.4743 16.7642C41.7792 16.7642 42.1023 16.8007 42.4437 16.8736C42.7884 16.9432 43.1099 17.0724 43.4082 17.2614C43.7098 17.4503 43.9567 17.7204 44.149 18.0717C44.3412 18.4197 44.4373 18.8722 44.4373 19.429V24.5H42.9856V23.456H42.926C42.8298 23.6482 42.6857 23.8371 42.4934 24.0227C42.3012 24.2083 42.0543 24.3625 41.7527 24.4851C41.4511 24.6077 41.0898 24.669 40.6689 24.669ZM40.992 23.4759C41.403 23.4759 41.7543 23.3946 42.046 23.2322C42.341 23.0698 42.5647 22.8577 42.7172 22.5959C42.8729 22.3307 42.9508 22.0473 42.9508 21.7457V20.7614C42.8978 20.8144 42.795 20.8641 42.6426 20.9105C42.4934 20.9536 42.3227 20.9917 42.1305 21.0249C41.9383 21.0547 41.751 21.0829 41.5687 21.1094C41.3864 21.1326 41.234 21.1525 41.1113 21.169C40.823 21.2055 40.5595 21.2668 40.3208 21.353C40.0855 21.4392 39.8966 21.5634 39.7541 21.7259C39.6149 21.8849 39.5453 22.0971 39.5453 22.3622C39.5453 22.7301 39.6812 23.0085 39.9529 23.1974C40.2247 23.383 40.5711 23.4759 40.992 23.4759ZM46.5366 24.5V14.3182H48.0231V18.1016H48.1126C48.1987 17.9425 48.323 17.7585 48.4854 17.5497C48.6478 17.3409 48.8732 17.1586 49.1616 17.0028C49.4499 16.8438 49.8311 16.7642 50.305 16.7642C50.9215 16.7642 51.4717 16.92 51.9556 17.2315C52.4395 17.5431 52.819 17.9922 53.0941 18.5788C53.3725 19.1655 53.5117 19.8714 53.5117 20.6967C53.5117 21.522 53.3742 22.2296 53.0991 22.8196C52.824 23.4062 52.4461 23.8587 51.9656 24.1768C51.485 24.4917 50.9364 24.6491 50.32 24.6491C49.8559 24.6491 49.4764 24.5713 49.1815 24.4155C48.8898 24.2597 48.6611 24.0774 48.4954 23.8686C48.3297 23.6598 48.2021 23.4742 48.1126 23.3118H47.9883V24.5H46.5366ZM47.9933 20.6818C47.9933 21.2187 48.0711 21.6894 48.2269 22.0938C48.3827 22.4981 48.6081 22.8146 48.9031 23.0433C49.198 23.2687 49.5593 23.3814 49.9869 23.3814C50.431 23.3814 50.8022 23.2637 51.1005 23.0284C51.3988 22.7898 51.6242 22.4666 51.7766 22.0589C51.9324 21.6513 52.0103 21.1922 52.0103 20.6818C52.0103 20.178 51.9341 19.7256 51.7816 19.3246C51.6325 18.9235 51.4071 18.607 51.1055 18.375C50.8072 18.143 50.4343 18.027 49.9869 18.027C49.556 18.027 49.1914 18.138 48.8931 18.3601C48.5981 18.5821 48.3744 18.892 48.2219 19.2898C48.0695 19.6875 47.9933 20.1515 47.9933 20.6818ZM56.6674 14.3182V24.5H55.1809V14.3182H56.6674ZM61.9585 24.6541C61.2061 24.6541 60.5581 24.4934 60.0146 24.1719C59.4743 23.8471 59.0567 23.3913 58.7617 22.8047C58.4701 22.2147 58.3242 21.5237 58.3242 20.7315C58.3242 19.9493 58.4701 19.2599 58.7617 18.6634C59.0567 18.0668 59.4677 17.6011 59.9947 17.2663C60.525 16.9316 61.1448 16.7642 61.854 16.7642C62.2849 16.7642 62.7025 16.8355 63.1069 16.978C63.5112 17.1205 63.8742 17.3442 64.1957 17.6491C64.5172 17.9541 64.7707 18.3501 64.9563 18.8374C65.1419 19.3213 65.2347 19.9096 65.2347 20.6023V21.1293H59.1644V20.0156H63.7781C63.7781 19.6245 63.6985 19.2782 63.5394 18.9766C63.3803 18.6716 63.1566 18.4313 62.8683 18.2557C62.5832 18.08 62.2485 17.9922 61.864 17.9922C61.4464 17.9922 61.0818 18.0949 60.7702 18.3004C60.462 18.5026 60.2234 18.7678 60.0543 19.0959C59.8886 19.4207 59.8058 19.7737 59.8058 20.1548V21.0249C59.8058 21.5353 59.8952 21.9695 60.0742 22.3274C60.2565 22.6854 60.5101 22.9588 60.8349 23.1477C61.1597 23.3333 61.5392 23.4261 61.9734 23.4261C62.2551 23.4261 62.512 23.3864 62.744 23.3068C62.976 23.224 63.1765 23.1013 63.3455 22.9389C63.5146 22.7765 63.6438 22.576 63.7333 22.3374L65.1403 22.5909C65.0276 23.0052 64.8254 23.3681 64.5337 23.6797C64.2454 23.9879 63.8825 24.2282 63.445 24.4006C63.0108 24.5696 62.5153 24.6541 61.9585 24.6541ZM69.7427 24.6491C69.1262 24.6491 68.5761 24.4917 68.0922 24.1768C67.6116 23.8587 67.2337 23.4062 66.9586 22.8196C66.6868 22.2296 66.551 21.522 66.551 20.6967C66.551 19.8714 66.6885 19.1655 66.9636 18.5788C67.242 17.9922 67.6232 17.5431 68.1071 17.2315C68.591 16.92 69.1395 16.7642 69.7527 16.7642C70.2266 16.7642 70.6078 16.8438 70.8961 17.0028C71.1878 17.1586 71.4132 17.3409 71.5723 17.5497C71.7347 17.7585 71.8606 17.9425 71.9501 18.1016H72.0396V14.3182H73.5261V24.5H72.0744V23.3118H71.9501C71.8606 23.4742 71.7314 23.6598 71.5623 23.8686C71.3966 24.0774 71.1679 24.2597 70.8762 24.4155C70.5846 24.5713 70.2067 24.6491 69.7427 24.6491ZM70.0708 23.3814C70.4984 23.3814 70.8597 23.2687 71.1547 23.0433C71.4529 22.8146 71.6783 22.4981 71.8308 22.0938C71.9866 21.6894 72.0645 21.2187 72.0645 20.6818C72.0645 20.1515 71.9882 19.6875 71.8358 19.2898C71.6833 18.892 71.4596 18.5821 71.1646 18.3601C70.8696 18.138 70.505 18.027 70.0708 18.027C69.6234 18.027 69.2505 18.143 68.9522 18.375C68.6539 18.607 68.4286 18.9235 68.2761 19.3246C68.127 19.7256 68.0524 20.178 68.0524 20.6818C68.0524 21.1922 68.1286 21.6513 68.2811 22.0589C68.4335 22.4666 68.6589 22.7898 68.9572 23.0284C69.2588 23.2637 69.63 23.3814 70.0708 23.3814Z" fill="#8E9192"/>
</g>
</svg>
