<svg width="12" height="13" viewBox="0 0 12 13" fill="none" xmlns="http://www.w3.org/2000/svg">
<g clip-path="url(#clip0_4015_11735)">
<path d="M6 0.5C2.68594 0.5 0 3.18594 0 6.5C0 9.81406 2.68594 12.5 6 12.5C9.31406 12.5 12 9.81406 12 6.5C12 3.18594 9.31406 0.5 6 0.5ZM8.8125 7.8125C8.8125 8.22711 8.47664 8.5625 8.0625 8.5625C7.64836 8.5625 7.3125 8.22711 7.3125 7.8125V6.24922L4.46719 9.09453C4.32188 9.23984 4.12969 9.3125 3.9375 9.3125C3.74531 9.3125 3.55359 9.23926 3.40734 9.09277C3.11438 8.7998 3.11438 8.3252 3.40734 8.03223L6.25312 5.1875H4.6875C4.27336 5.1875 3.9375 4.85211 3.9375 4.4375C3.9375 4.02289 4.27336 3.6875 4.6875 3.6875H8.0625C8.47664 3.6875 8.8125 4.02289 8.8125 4.4375V7.8125Z" fill="#232323"/>
</g>
<defs>
<clipPath id="clip0_4015_11735">
<rect width="12" height="12" fill="white" transform="translate(0 0.5)"/>
</clipPath>
</defs>
</svg>
