<svg width="24" height="24" viewBox="0 0 24 24" fill="none" xmlns="http://www.w3.org/2000/svg">
<path d="M6.69844 6.70024C9.61406 3.78461 14.325 3.77055 17.2594 6.65336L15.3281 8.57993C15.0047 8.90336 14.9109 9.38618 15.0844 9.80805C15.2578 10.2299 15.6703 10.5018 16.125 10.5018H21.7266H22.125C22.7484 10.5018 23.25 10.0002 23.25 9.3768V3.3768C23.25 2.92211 22.9781 2.50961 22.5563 2.33618C22.1344 2.16274 21.6516 2.25649 21.3281 2.57993L19.3781 4.52993C15.2719 0.475238 8.65781 0.489301 4.575 4.5768C3.43125 5.72055 2.60625 7.06586 2.1 8.50492C1.82344 9.28774 2.23594 10.1409 3.01406 10.4174C3.79219 10.694 4.65 10.2815 4.92656 9.50336C5.2875 8.48149 5.87344 7.52055 6.69844 6.70024ZM0.75 14.6268V14.9831V15.0159V20.6268C0.75 21.0815 1.02187 21.494 1.44375 21.6674C1.86562 21.8409 2.34844 21.7471 2.67188 21.4237L4.62187 19.4737C8.72812 23.5284 15.3422 23.5143 19.425 19.4268C20.5688 18.2831 21.3984 16.9377 21.9047 15.5034C22.1812 14.7206 21.7687 13.8674 20.9906 13.5909C20.2125 13.3143 19.3547 13.7268 19.0781 14.5049C18.7172 15.5268 18.1313 16.4877 17.3063 17.3081C14.3906 20.2237 9.67969 20.2377 6.74531 17.3549L8.67188 15.4237C8.99531 15.1002 9.08906 14.6174 8.91562 14.1956C8.74219 13.7737 8.32969 13.5018 7.875 13.5018H2.26875H2.23594H1.875C1.25156 13.5018 0.75 14.0034 0.75 14.6268Z" fill="#232323"/>
</svg>
