<svg width="20" height="20" viewBox="0 0 20 20" fill="none" xmlns="http://www.w3.org/2000/svg">
<path d="M19.371 6.50781C19.4999 6.84375 19.3906 7.22266 19.1249 7.46875L17.4335 9.00781C17.4765 9.33203 17.4999 9.66406 17.4999 9.96484C17.4999 10.3359 17.4765 10.668 17.4335 10.9922L19.1249 12.5312C19.3906 12.7773 19.4999 13.1523 19.371 13.4922C19.1992 13.957 18.9921 14.4063 18.7577 14.832L18.5742 15.1484C18.3163 15.5781 18.0273 15.9844 17.7109 16.3711C17.4765 16.6484 17.0976 16.7461 16.7538 16.6367L14.5781 15.9414C14.0546 16.3438 13.4413 16.6797 12.8593 16.9375L12.371 19.168C12.2929 19.5195 12.0195 19.7695 11.6601 19.8633C11.121 19.9531 10.5663 20 9.96478 20C9.43353 20 8.87884 19.9531 8.33977 19.8633C7.9804 19.7695 7.70696 19.5195 7.62884 19.168L7.14055 16.9375C6.52337 16.6797 5.94524 16.3438 5.4218 15.9414L3.24758 16.6367C2.90227 16.7461 2.52141 16.6484 2.29016 16.3711C1.97336 15.9844 1.6843 15.5781 1.42649 15.1484L1.24368 14.832C1.00657 14.4063 0.800316 13.957 0.627269 13.4922C0.500706 13.1562 0.607347 12.7773 0.875316 12.5312L2.56516 10.9922C2.52219 10.668 2.49993 10.3359 2.49993 10C2.49993 9.66406 2.52219 9.33203 2.56516 9.00781L0.875316 7.46875C0.607347 7.22266 0.500706 6.84766 0.627269 6.50781C0.800316 6.04297 1.00696 5.59375 1.24368 5.16797L1.4261 4.85156C1.68391 4.42188 1.97336 4.01562 2.29016 3.63086C2.52141 3.35156 2.90227 3.25469 3.24758 3.36484L5.4218 4.05859C5.94524 3.65469 6.52337 3.31875 7.14055 3.06367L7.62884 0.833203C7.70696 0.478516 7.9804 0.196875 8.33977 0.137109C8.87884 0.0469141 9.43353 0 9.96478 0C10.5663 0 11.121 0.0469141 11.6601 0.137109C12.0195 0.196875 12.2929 0.478516 12.371 0.833203L12.8593 3.06367C13.4413 3.31875 14.0546 3.65469 14.5781 4.05859L16.7538 3.36484C17.0976 3.25469 17.4765 3.35156 17.7109 3.63086C18.0273 4.01562 18.3163 4.42188 18.5742 4.85156L18.7577 5.16797C18.9921 5.59375 19.1992 6.04297 19.371 6.50781ZM9.99993 13.125C11.7265 13.125 13.1249 11.7266 13.1249 9.96484C13.1249 8.27344 11.7265 6.83984 9.99993 6.83984C8.27337 6.83984 6.87493 8.27344 6.87493 9.96484C6.87493 11.7266 8.27337 13.125 9.99993 13.125Z" fill="#232323"/>
</svg>
