<svg width="20" height="20" viewBox="0 0 20 20" fill="none" xmlns="http://www.w3.org/2000/svg">
<path d="M0.832031 4.08279C0.832031 3.10291 1.62635 2.30859 2.60622 2.30859C3.5861 2.30859 4.38042 3.10291 4.38042 4.08279C4.38042 5.06229 3.5861 5.85698 2.60622 5.85698C1.62635 5.85698 0.832031 5.06229 0.832031 4.08279ZM17.9826 2.89999C18.6368 2.89999 19.1654 3.42966 19.1654 4.08279C19.1654 4.73702 18.6368 5.26558 17.9826 5.26558H7.33741C6.68317 5.26558 6.15461 4.73702 6.15461 4.08279C6.15461 3.42966 6.68317 2.89999 7.33741 2.89999H17.9826ZM17.9826 8.81397C18.6368 8.81397 19.1654 9.34253 19.1654 9.99677C19.1654 10.651 18.6368 11.1796 17.9826 11.1796H7.33741C6.68317 11.1796 6.15461 10.651 6.15461 9.99677C6.15461 9.34253 6.68317 8.81397 7.33741 8.81397H17.9826ZM17.9826 14.7279C18.6368 14.7279 19.1654 15.2565 19.1654 15.9107C19.1654 16.565 18.6368 17.0935 17.9826 17.0935H7.33741C6.68317 17.0935 6.15461 16.565 6.15461 15.9107C6.15461 15.2565 6.68317 14.7279 7.33741 14.7279H17.9826ZM0.832031 15.9107C0.832031 14.9312 1.62635 14.1365 2.60622 14.1365C3.5861 14.1365 4.38042 14.9312 4.38042 15.9107C4.38042 16.8902 3.5861 17.6849 2.60622 17.6849C1.62635 17.6849 0.832031 16.8902 0.832031 15.9107ZM4.38042 9.99677C4.38042 10.9763 3.5861 11.771 2.60622 11.771C1.62635 11.771 0.832031 10.9763 0.832031 9.99677C0.832031 9.01726 1.62635 8.22257 2.60622 8.22257C3.5861 8.22257 4.38042 9.01726 4.38042 9.99677Z" fill="#232323"/>
</svg>
