<svg width="20" height="20" viewBox="0 0 20 20" fill="none" xmlns="http://www.w3.org/2000/svg">
<path d="M4.9286 4.06557L4.92877 4.06574L6.49393 5.62813C6.70059 5.85679 6.7198 6.22119 6.49988 6.49988C6.22056 6.72029 5.85516 6.70051 5.6266 6.49254L4.04105 4.9345C3.82634 4.69593 3.82461 4.30622 4.03586 4.06522C4.31509 3.81705 4.70004 3.83719 4.9286 4.06557ZM15.9281 15.0657L15.9285 15.0661C16.1672 15.3049 16.1672 15.6897 15.9285 15.9285C15.6897 16.1672 15.3049 16.1672 15.0661 15.9285L15.0657 15.9281L13.4932 14.359C13.4931 14.3589 13.493 14.3588 13.4929 14.3587C13.2544 14.1199 13.2545 13.7319 13.4932 13.4932C13.7319 13.2545 14.1199 13.2544 14.3587 13.4929C14.3588 13.493 14.3589 13.4931 14.359 13.4932L15.9281 15.0657ZM5.63245 13.4963L5.63247 13.4963L5.63556 13.4932C5.86403 13.2647 6.22177 13.2445 6.50006 13.4927C6.71135 13.7342 6.70931 14.1278 6.49393 14.3664L4.92885 15.9281L4.92846 15.9285C4.69991 16.157 4.31511 16.1771 4.03592 15.9287C3.82461 15.6878 3.82632 15.2987 4.04104 15.0601L5.63245 13.4963ZM15.0658 4.06574L15.0661 4.06542C15.3049 3.82666 15.6897 3.82666 15.9285 4.06542L15.9286 4.06557C16.1671 4.30387 16.1673 4.68961 15.9285 4.92846L15.9281 4.92885L14.3664 6.49393C14.1278 6.70931 13.7342 6.71135 13.4927 6.50006C13.2446 6.22187 13.2647 5.86428 13.493 5.6358C13.493 5.63572 13.4931 5.63564 13.4932 5.63556L15.0658 4.06574ZM10.6084 4.44173C10.6084 4.78017 10.3357 5.05284 9.99729 5.05284C9.65885 5.05284 9.38618 4.78017 9.38618 4.44173V2.21951C9.38618 1.88181 9.65915 1.6084 9.99729 1.6084C10.3354 1.6084 10.6084 1.8818 10.6084 2.21951V4.44173ZM10.6084 17.7751C10.6084 18.1135 10.3357 18.3862 9.99729 18.3862C9.65885 18.3862 9.38618 18.1135 9.38618 17.7751V15.5528C9.38618 15.2144 9.65885 14.9417 9.99729 14.9417C10.3357 14.9417 10.6084 15.2144 10.6084 15.5528V17.7751ZM1.6084 9.99729C1.6084 9.65915 1.88181 9.38618 2.21951 9.38618H4.44173C4.78017 9.38618 5.05284 9.65885 5.05284 9.99729C5.05284 10.3357 4.78017 10.6084 4.44173 10.6084H2.21951C1.8818 10.6084 1.6084 10.3354 1.6084 9.99729ZM17.7751 9.38618C18.1135 9.38618 18.3862 9.65885 18.3862 9.99729C18.3862 10.3357 18.1135 10.6084 17.7751 10.6084H15.5528C15.2144 10.6084 14.9417 10.3357 14.9417 9.99729C14.9417 9.65885 15.2144 9.38618 15.5528 9.38618H17.7751Z" fill="#E0E3E3" stroke="#E0E3E3"/>
</svg>
