<svg width="20" height="20" viewBox="0 0 20 20" fill="none" xmlns="http://www.w3.org/2000/svg">
<g id="ordinal">
<path id="Rectangle 43 (Stroke)" fill-rule="evenodd" clip-rule="evenodd" d="M4.99935 3.33366C4.07887 3.33366 3.33268 4.07985 3.33268 5.00033V15.0003C3.33268 15.9208 4.07887 16.667 4.99935 16.667H14.9993C15.9198 16.667 16.666 15.9208 16.666 15.0003V5.00033C16.666 4.07985 15.9198 3.33366 14.9993 3.33366H4.99935ZM1.66602 5.00033C1.66602 3.15938 3.1584 1.66699 4.99935 1.66699H14.9993C16.8403 1.66699 18.3327 3.15938 18.3327 5.00033V15.0003C18.3327 16.8413 16.8403 18.3337 14.9993 18.3337H4.99935C3.1584 18.3337 1.66602 16.8413 1.66602 15.0003V5.00033Z" fill="#8E9192"/>
<circle id="Ellipse 76" cx="6.25" cy="6.25" r="1.25" fill="#8E9192"/>
<g id="Vector">
<path d="M6.89025 11.0396L5.11402 13.704C4.74482 14.2578 5.14181 14.9996 5.80739 14.9996H9.35986C10.0254 14.9996 10.4224 14.2578 10.0532 13.704L8.277 11.0396C7.94715 10.5449 7.2201 10.5449 6.89025 11.0396Z" fill="#8E9192"/>
<path d="M10.5883 8.15695L7.76997 13.7936C7.49292 14.3476 7.89584 14.9996 8.51532 14.9996H14.1519C14.7714 14.9996 15.1743 14.3476 14.8973 13.7936L12.079 8.15694C11.7719 7.54274 10.8954 7.54274 10.5883 8.15695Z" fill="#8E9192"/>
<path d="M6.89025 11.0396L5.11402 13.704C4.74482 14.2578 5.14181 14.9996 5.80739 14.9996H9.35986C10.0254 14.9996 10.4224 14.2578 10.0532 13.704L8.277 11.0396C7.94715 10.5449 7.2201 10.5449 6.89025 11.0396Z" stroke="#8E9192"/>
<path d="M10.5883 8.15695L7.76997 13.7936C7.49292 14.3476 7.89584 14.9996 8.51532 14.9996H14.1519C14.7714 14.9996 15.1743 14.3476 14.8973 13.7936L12.079 8.15694C11.7719 7.54274 10.8954 7.54274 10.5883 8.15695Z" stroke="#8E9192"/>
</g>
</g>
</svg>
