<?xml version="1.0" encoding="UTF-8"?>
<svg version="1.1" xmlns="http://www.w3.org/2000/svg" width="512" height="512">
<path d="M0 0 C0.78177738 -0.00581376 1.56355476 -0.01162753 2.36902237 -0.01761746 C4.99266607 -0.03223318 7.61537655 -0.0183252 10.23901367 -0.00457001 C12.13732889 -0.0091783 14.03564053 -0.01553074 15.9339447 -0.02347898 C21.15362574 -0.04020519 26.37301494 -0.03191092 31.59269714 -0.01953411 C37.22059119 -0.01049944 42.84843436 -0.02444549 48.47631836 -0.0354538 C59.5026231 -0.0532605 70.52881906 -0.04938943 81.5551281 -0.03780323 C90.51470713 -0.02877766 99.47425562 -0.02754112 108.43383789 -0.0318985 C109.70795878 -0.03251143 110.98207968 -0.03312436 112.2948103 -0.03375587 C114.88298671 -0.03503474 117.47116312 -0.03633159 120.05933952 -0.03764623 C143.64856533 -0.04873288 167.23771817 -0.03722649 190.82693172 -0.01627585 C212.36406376 0.00270679 233.9011012 0.00100829 255.43823242 -0.01811981 C279.631778 -0.03953534 303.82525631 -0.04795965 328.01881409 -0.03567076 C330.59758503 -0.03439653 333.17635599 -0.03313905 335.75512695 -0.0318985 C337.02400348 -0.0312814 338.29288 -0.03066429 339.60020733 -0.03002849 C348.55127417 -0.02657165 357.50230749 -0.03241114 366.45336914 -0.04181671 C377.35850801 -0.05302346 388.26353167 -0.05002449 399.1686573 -0.02869374 C404.73493924 -0.01816555 410.30102896 -0.01409168 415.86730957 -0.02729034 C420.95988286 -0.03918332 426.05208521 -0.03270273 431.14462471 -0.01138014 C432.98975825 -0.00690094 434.83492293 -0.00920973 436.68003654 -0.01888329 C439.18346151 -0.03100445 441.68560722 -0.01861646 444.18896484 0 C444.90948658 -0.00936466 445.63000832 -0.01872933 446.37236404 -0.02837777 C451.39731269 0.04657953 454.20360121 1.38873112 458.09448242 4.50336456 C461.72281906 8.32266628 462.404487 11.38615462 462.59448242 16.50336456 C462.404487 21.6205745 461.72281906 24.68406284 458.09448242 28.50336456 C453.48657627 32.19197334 449.95326414 33.08164807 444.18896484 33.00672913 C443.40718746 33.01254289 442.62541008 33.01835665 441.81994247 33.02434659 C439.19629877 33.03896231 436.57358829 33.02505433 433.94995117 33.01129913 C432.05163596 33.01590743 430.15332431 33.02225986 428.25502014 33.03020811 C423.0353391 33.04693431 417.81594991 33.03864005 412.5962677 33.02626324 C406.96837366 33.01722856 401.34053048 33.03117461 395.71264648 33.04218292 C384.68634175 33.05998963 373.66014579 33.05611856 362.63383675 33.04453236 C353.67425772 33.03550678 344.71470922 33.03427024 335.75512695 33.03862762 C334.48100606 33.03924056 333.20688517 33.03985349 331.89415455 33.04048499 C329.30597813 33.04176387 326.71780172 33.04306072 324.12962532 33.04437536 C300.54039952 33.055462 276.95124667 33.04395562 253.36203313 33.02300497 C231.82490108 33.00402234 210.28786364 33.00572084 188.75073242 33.02484894 C164.55718684 33.04626446 140.36370853 33.05468877 116.17015076 33.04239988 C113.59137981 33.04112566 111.01260885 33.03986818 108.43383789 33.03862762 C107.16496137 33.03801052 105.89608484 33.03739342 104.58875751 33.03675762 C95.63769068 33.03330078 86.68665735 33.03914026 77.7355957 33.04854584 C66.83045684 33.05975259 55.92543317 33.05675361 45.02030754 33.03542286 C39.4540256 33.02489468 33.88793588 33.02082081 28.32165527 33.03401947 C23.22908198 33.04591245 18.13687963 33.03943186 13.04434013 33.01810926 C11.1992066 33.01363007 9.35404191 33.01593886 7.5089283 33.02561241 C5.00550334 33.03773357 2.50335763 33.02534559 0 33.00672913 C-0.72052174 33.01609379 -1.44104347 33.02545846 -2.1833992 33.0351069 C-7.20834784 32.9601496 -10.01463636 31.61799801 -13.90551758 28.50336456 C-17.53385421 24.68406284 -18.21552216 21.6205745 -18.40551758 16.50336456 C-18.21552216 11.38615462 -17.53385421 8.32266628 -13.90551758 4.50336456 C-9.29761143 0.81475579 -5.7642993 -0.07491895 0 0 Z " fill="#000000" transform="translate(33.905517578125,239.49663543701172)"/>
<path d="M0 0 C4.96521615 2.30527893 7.43797409 5.20968336 10 10 C10.5763089 13.50250789 10.54688752 16.9566258 10.51757812 20.5 C10.5245874 21.54462402 10.53159668 22.58924805 10.53881836 23.66552734 C10.55639022 27.11062381 10.54477782 30.55489551 10.53125 34 C10.53394513 36.3984391 10.53782772 38.79687714 10.54284668 41.1953125 C10.54874066 46.21885595 10.54018159 51.24211467 10.52148438 56.265625 C10.49869537 62.70189072 10.51181892 69.13748922 10.53577423 75.57373047 C10.55023461 80.52544168 10.545625 85.47699495 10.53526306 90.42871094 C10.53259647 92.80175862 10.53586314 95.17482068 10.54518127 97.54785156 C10.55535031 100.86562028 10.53983934 104.18231145 10.51757812 107.5 C10.52567505 108.47888184 10.53377197 109.45776367 10.54211426 110.46630859 C10.47179082 116.12935479 9.95184725 119.6245714 6 124 C0.8117541 128.68597642 -3.85431025 128.57254865 -10.5 128.51757812 C-11.54462402 128.5245874 -12.58924805 128.53159668 -13.66552734 128.53881836 C-17.11062381 128.55639022 -20.55489551 128.54477782 -24 128.53125 C-26.3984391 128.53394513 -28.79687714 128.53782772 -31.1953125 128.54284668 C-36.21885595 128.54874066 -41.24211467 128.54018159 -46.265625 128.52148438 C-52.70189072 128.49869537 -59.13748922 128.51181892 -65.57373047 128.53577423 C-70.52544168 128.55023461 -75.47699495 128.545625 -80.42871094 128.53526306 C-82.80175862 128.53259647 -85.17482068 128.53586314 -87.54785156 128.54518127 C-90.86562028 128.55535031 -94.18231145 128.53983934 -97.5 128.51757812 C-98.47888184 128.52567505 -99.45776367 128.53377197 -100.46630859 128.54211426 C-106.16037885 128.47140556 -109.49980593 127.83517225 -114 124 C-117.62833663 120.18069828 -118.31000458 117.11720994 -118.5 112 C-118.31000458 106.88279006 -117.62833663 103.81930172 -114 100 C-109.02153695 95.94499954 -105.57341515 95.43290106 -99.42431641 95.54589844 C-98.58463318 95.54531433 -97.74494995 95.54473022 -96.87982178 95.54412842 C-94.1199732 95.54690261 -91.36122107 95.5779625 -88.6015625 95.609375 C-86.68200266 95.61683977 -84.76243518 95.62253159 -82.84286499 95.62652588 C-77.80225408 95.64176362 -72.76210768 95.68102946 -67.72167969 95.7253418 C-62.57363162 95.76633461 -57.42550815 95.78454546 -52.27734375 95.8046875 C-42.18469228 95.84752546 -32.09238484 95.91575431 -22 96 C-22.00888245 94.93590912 -22.01776489 93.87181824 -22.0269165 92.77548218 C-22.10804948 82.74100055 -22.16798808 72.70658558 -22.20724869 62.6718502 C-22.22811166 57.51302786 -22.25640597 52.35447058 -22.30175781 47.19580078 C-22.34526124 42.21614608 -22.36914681 37.23674614 -22.37950897 32.25691605 C-22.38689224 30.35831314 -22.40131014 28.45972398 -22.42292023 26.56122971 C-22.45201408 23.89907597 -22.45595352 21.23797107 -22.45410156 18.57568359 C-22.46848267 17.79309174 -22.48286377 17.01049988 -22.49768066 16.20419312 C-22.45867869 11.01307271 -21.37714768 8.14623995 -18 4 C-12.72867143 -1.00776214 -6.89190982 -0.92775709 0 0 Z " fill="#000000" transform="translate(422,304)"/>
<path d="M0 0 C4.96763371 2.30640137 7.37448784 5.24924647 10 10 C10.53745812 12.86999164 10.50762787 15.66288529 10.45410156 18.57568359 C10.45468567 19.41536682 10.45526978 20.25505005 10.45587158 21.12017822 C10.45309739 23.8800268 10.4220375 26.63877893 10.390625 29.3984375 C10.38316023 31.31799734 10.37746841 33.23756482 10.37347412 35.15713501 C10.35823638 40.19774592 10.31897054 45.23789232 10.2746582 50.27832031 C10.23366539 55.42636838 10.21545454 60.57449185 10.1953125 65.72265625 C10.15247454 75.81530772 10.08424569 85.90761516 10 96 C11.06409088 95.99111755 12.12818176 95.98223511 13.22451782 95.9730835 C23.25899945 95.89195052 33.29341442 95.83201192 43.3281498 95.79275131 C48.48697214 95.77188834 53.64552942 95.74359403 58.80419922 95.69824219 C63.78385392 95.65473876 68.76325386 95.63085319 73.74308395 95.62049103 C75.64168686 95.61310776 77.54027602 95.59868986 79.43877029 95.57707977 C82.10092403 95.54798592 84.76202893 95.54404648 87.42431641 95.54589844 C88.20690826 95.53151733 88.98950012 95.51713623 89.79580688 95.50231934 C94.98692729 95.54132131 97.85376005 96.62285232 102 100 C105.62833663 103.81930172 106.31000458 106.88279006 106.5 112 C106.31000458 117.11720994 105.62833663 120.18069828 102 124 C96.63277344 128.57407793 92.22889928 128.57323692 85.5 128.51757812 C84.45537598 128.5245874 83.41075195 128.53159668 82.33447266 128.53881836 C78.88937619 128.55639022 75.44510449 128.54477782 72 128.53125 C69.6015609 128.53394513 67.20312286 128.53782772 64.8046875 128.54284668 C59.78114405 128.54874066 54.75788533 128.54018159 49.734375 128.52148438 C43.29810928 128.49869537 36.86251078 128.51181892 30.42626953 128.53577423 C25.47455832 128.55023461 20.52300505 128.545625 15.57128906 128.53526306 C13.19824138 128.53259647 10.82517932 128.53586314 8.45214844 128.54518127 C5.13437972 128.55535031 1.81768855 128.53983934 -1.5 128.51757812 C-2.47888184 128.52567505 -3.45776367 128.53377197 -4.46630859 128.54211426 C-10.12935479 128.47179082 -13.6245714 127.95184725 -18 124 C-22.68597642 118.8117541 -22.57254865 114.14568975 -22.51757812 107.5 C-22.5245874 106.45537598 -22.53159668 105.41075195 -22.53881836 104.33447266 C-22.55639022 100.88937619 -22.54477782 97.44510449 -22.53125 94 C-22.53394513 91.6015609 -22.53782772 89.20312286 -22.54284668 86.8046875 C-22.54874066 81.78114405 -22.54018159 76.75788533 -22.52148438 71.734375 C-22.49869537 65.29810928 -22.51181892 58.86251078 -22.53577423 52.42626953 C-22.55023461 47.47455832 -22.545625 42.52300505 -22.53526306 37.57128906 C-22.53259647 35.19824138 -22.53586314 32.82517932 -22.54518127 30.45214844 C-22.55535031 27.13437972 -22.53983934 23.81768855 -22.51757812 20.5 C-22.52567505 19.52111816 -22.53377197 18.54223633 -22.54211426 17.53369141 C-22.47140556 11.83962115 -21.83517225 8.50019407 -18 4 C-12.72867143 -1.00776214 -6.89190982 -0.92775709 0 0 Z " fill="#000000" transform="translate(102,304)"/>
<path d="M0 0 C1.04462402 -0.00700928 2.08924805 -0.01401855 3.16552734 -0.02124023 C6.61062381 -0.0388121 10.05489551 -0.02719969 13.5 -0.01367188 C15.8984391 -0.016367 18.29687714 -0.0202496 20.6953125 -0.02526855 C25.71885595 -0.03116254 30.74211467 -0.02260346 35.765625 -0.00390625 C42.20189072 0.01888275 48.63748922 0.00575921 55.07373047 -0.01819611 C60.02544168 -0.03265649 64.97699495 -0.02804688 69.92871094 -0.01768494 C72.30175862 -0.01501834 74.67482068 -0.01828502 77.04785156 -0.02760315 C80.36562028 -0.03777219 83.68231145 -0.02226121 87 0 C88.46832275 -0.01214539 88.46832275 -0.01214539 89.96630859 -0.02453613 C95.62935479 0.04578731 99.1245714 0.56573088 103.5 4.51757812 C108.18597642 9.70582402 108.07254865 14.37188837 108.01757812 21.01757812 C108.0245874 22.06220215 108.03159668 23.10682617 108.03881836 24.18310547 C108.05639022 27.62820193 108.04477782 31.07247364 108.03125 34.51757812 C108.03394513 36.91601723 108.03782772 39.31445526 108.04284668 41.71289062 C108.04874066 46.73643408 108.04018159 51.7596928 108.02148438 56.78320312 C107.99869537 63.21946884 108.01181892 69.65506735 108.03577423 76.09130859 C108.05023461 81.0430198 108.045625 85.99457307 108.03526306 90.94628906 C108.03259647 93.31933674 108.03586314 95.6923988 108.04518127 98.06542969 C108.05535031 101.3831984 108.03983934 104.69988957 108.01757812 108.01757812 C108.02567505 108.99645996 108.03377197 109.9753418 108.04211426 110.98388672 C107.97140556 116.67795697 107.33517225 120.01738406 103.5 124.51757812 C99.68069828 128.14591476 96.61720994 128.82758271 91.5 129.01757812 C86.38279006 128.82758271 83.31930172 128.14591476 79.5 124.51757812 C75.44499954 119.53911507 74.93290106 116.09099327 75.04589844 109.94189453 C75.04531433 109.1022113 75.04473022 108.26252808 75.04412842 107.3973999 C75.04690261 104.63755133 75.0779625 101.8787992 75.109375 99.11914062 C75.11683977 97.19958079 75.12253159 95.28001331 75.12652588 93.36044312 C75.14176362 88.3198322 75.18102946 83.2796858 75.2253418 78.23925781 C75.26633461 73.09120975 75.28454546 67.94308628 75.3046875 62.79492188 C75.34752546 52.7022704 75.41575431 42.60996296 75.5 32.51757812 C74.43590912 32.52646057 73.37181824 32.53534302 72.27548218 32.54449463 C62.24100055 32.62562761 52.20658558 32.68556621 42.1718502 32.72482681 C37.01302786 32.74568979 31.85447058 32.7739841 26.69580078 32.81933594 C21.71614608 32.86283937 16.73674614 32.88672494 11.75691605 32.8970871 C9.85831314 32.90447037 7.95972398 32.91888827 6.06122971 32.94049835 C3.39907597 32.96959221 0.73797107 32.97353165 -1.92431641 32.97167969 C-2.70690826 32.98606079 -3.48950012 33.00044189 -4.29580688 33.01525879 C-9.48692729 32.97625681 -12.35376005 31.8947258 -16.5 28.51757812 C-20.12833663 24.6982764 -20.81000458 21.63478806 -21 16.51757812 C-20.81000458 11.40036819 -20.12833663 8.33687985 -16.5 4.51757812 C-11.13277344 -0.0564998 -6.72889928 -0.0556588 0 0 Z " fill="#000000" transform="translate(324.5,79.482421875)"/>
<path d="M0 0 C1.04462402 -0.00700928 2.08924805 -0.01401855 3.16552734 -0.02124023 C6.61062381 -0.0388121 10.05489551 -0.02719969 13.5 -0.01367188 C15.8984391 -0.016367 18.29687714 -0.0202496 20.6953125 -0.02526855 C25.71885595 -0.03116254 30.74211467 -0.02260346 35.765625 -0.00390625 C42.20189072 0.01888275 48.63748922 0.00575921 55.07373047 -0.01819611 C60.02544168 -0.03265649 64.97699495 -0.02804688 69.92871094 -0.01768494 C72.30175862 -0.01501834 74.67482068 -0.01828502 77.04785156 -0.02760315 C80.36562028 -0.03777219 83.68231145 -0.02226121 87 0 C88.46832275 -0.01214539 88.46832275 -0.01214539 89.96630859 -0.02453613 C95.66037885 0.04617256 98.99980593 0.68240588 103.5 4.51757812 C107.12833663 8.33687985 107.81000458 11.40036819 108 16.51757812 C107.81000458 21.63478806 107.12833663 24.6982764 103.5 28.51757812 C98.52153695 32.57257859 95.07341515 33.08467706 88.92431641 32.97167969 C88.08463318 32.97226379 87.24494995 32.9728479 86.37982178 32.97344971 C83.6199732 32.97067551 80.86122107 32.93961563 78.1015625 32.90820312 C76.18200266 32.90073836 74.26243518 32.89504654 72.34286499 32.89105225 C67.30225408 32.87581451 62.26210768 32.83654866 57.22167969 32.79223633 C52.07363162 32.75124351 46.92550815 32.73303266 41.77734375 32.71289062 C31.68469228 32.67005266 21.59238484 32.60182381 11.5 32.51757812 C11.50888245 33.58166901 11.51776489 34.64575989 11.5269165 35.74209595 C11.60804948 45.77657758 11.66798808 55.81099254 11.70724869 65.84572792 C11.72811166 71.00455027 11.75640597 76.16310754 11.80175781 81.32177734 C11.84526124 86.30143205 11.86914681 91.28083199 11.87950897 96.26066208 C11.88689224 98.15926498 11.90131014 100.05785415 11.92292023 101.95634842 C11.95201408 104.61850215 11.95595352 107.27960706 11.95410156 109.94189453 C11.97567322 111.11578232 11.97567322 111.11578232 11.99768066 112.31338501 C11.95867869 117.50450542 10.87714768 120.37133817 7.5 124.51757812 C3.68069828 128.14591476 0.61720994 128.82758271 -4.5 129.01757812 C-9.61720994 128.82758271 -12.68069828 128.14591476 -16.5 124.51757812 C-21.07407793 119.15035156 -21.07323692 114.7464774 -21.01757812 108.01757812 C-21.0245874 106.9729541 -21.03159668 105.92833008 -21.03881836 104.85205078 C-21.05639022 101.40695432 -21.04477782 97.96268261 -21.03125 94.51757812 C-21.03394513 92.11913902 -21.03782772 89.72070099 -21.04284668 87.32226562 C-21.04874066 82.29872217 -21.04018159 77.27546345 -21.02148438 72.25195312 C-20.99869537 65.81568741 -21.01181892 59.3800889 -21.03577423 52.94384766 C-21.05023461 47.99213645 -21.045625 43.04058318 -21.03526306 38.08886719 C-21.03259647 35.71581951 -21.03586314 33.34275745 -21.04518127 30.96972656 C-21.05535031 27.65195785 -21.03983934 24.33526668 -21.01757812 21.01757812 C-21.02567505 20.03869629 -21.03377197 19.05981445 -21.04211426 18.05126953 C-20.97179082 12.38822334 -20.45184725 8.89300673 -16.5 4.51757812 C-11.3117541 -0.1683983 -6.64568975 -0.05497052 0 0 Z " fill="#000000" transform="translate(100.5,79.482421875)"/>
</svg>
