<svg width="20" height="20" viewBox="0 0 20 20" fill="none" xmlns="http://www.w3.org/2000/svg">
<path d="M10.4173 5.41699V5.91699H10.9173H14.1257C15.1181 5.91699 15.9173 6.71825 15.9173 7.70866V15.5003C15.9173 16.2377 15.3213 16.8337 14.584 16.8337H5.41732C4.67997 16.8337 4.08398 16.2377 4.08398 15.5003V7.70866C4.08398 6.71866 4.88565 5.91699 5.87565 5.91699H9.08398H9.58398V5.41699V3.58366C9.58398 3.35506 9.77205 3.16699 10.0007 3.16699C10.2292 3.16699 10.4173 3.35506 10.4173 3.58366V5.41699ZM8.16732 15.0837H8.58398H8.66732H9.08398H10.9173H11.334H11.4173H11.834H13.6673H14.1673V14.5837V13.667V13.167H13.6673H11.834H11.4173H11.334H10.9173H9.08398H8.66732H8.58398H8.16732H6.33398H5.83398V13.667V14.5837V15.0837H6.33398H8.16732ZM1.33398 10.0003C1.33398 9.89019 1.37745 9.7852 1.45595 9.70663C1.53524 9.62741 1.64114 9.58366 1.75065 9.58366H2.16732V14.0837H1.75065C1.64023 14.0837 1.53452 14.0398 1.45609 13.9614C1.37774 13.8831 1.33398 13.7775 1.33398 13.667V10.0003ZM5.60482 10.0003C5.60482 10.9095 6.34144 11.6462 7.25065 11.6462C8.15987 11.6462 8.89648 10.9095 8.89648 10.0003C8.89648 9.09111 8.15987 8.35449 7.25065 8.35449C6.34144 8.35449 5.60482 9.09111 5.60482 10.0003ZM11.1048 10.0003C11.1048 10.9101 11.8409 11.6462 12.7507 11.6462C13.6599 11.6462 14.3965 10.9095 14.3965 10.0003C14.3965 9.09111 13.6599 8.35449 12.7507 8.35449C11.8416 8.35449 11.1048 9.09037 11.1048 10.0003ZM18.2507 9.58366C18.3599 9.58366 18.4652 9.62719 18.5445 9.70648C18.6238 9.78578 18.6673 9.89112 18.6673 10.0003V13.667C18.6673 13.7774 18.6235 13.8831 18.5451 13.9616C18.4667 14.0399 18.3612 14.0837 18.2507 14.0837H17.834V9.58366H18.2507Z" fill="#8E9192" stroke="#8E9192"/>
</svg>
