<svg width="48" height="48" viewBox="0 0 48 48" fill="none" xmlns="http://www.w3.org/2000/svg">
<rect width="48" height="48" rx="24" fill="#E0E3E3"/>
<path d="M32.25 17.5031V15.75C32.25 14.9217 32.9203 14.25 33.75 14.25C34.5797 14.25 35.25 14.9217 35.25 15.75V21C35.25 21.8297 34.5797 22.5 33.75 22.5H32.5219C32.4984 22.5 32.475 22.5 32.4516 22.5H28.5C27.6703 22.5 27 21.8297 27 21C27 20.1703 27.6703 19.5 28.5 19.5H30C28.6313 17.6766 26.4516 16.5 23.9578 16.5C20.7375 16.5 17.9578 18.5859 16.9266 21.5016C16.6505 22.2797 15.7931 22.6922 15.0122 22.4156C14.2313 22.1391 13.8216 21.2391 14.0977 20.4984C15.5386 16.4241 19.425 13.5 23.9578 13.5C27.3469 13.5 30.2859 15.0666 32.25 17.5031ZM14.25 33.75C13.4217 33.75 12.75 33.0797 12.75 32.25V27C12.75 26.1703 13.4217 25.5 14.25 25.5H19.5C20.3297 25.5 21 26.1703 21 27C21 27.8297 20.3297 28.5 19.5 28.5H17.9578C19.3687 30.3234 21.5484 31.5 24 31.5C27.2625 31.5 30.0422 29.4141 31.0734 26.4984C31.35 25.7203 32.2078 25.3078 32.9859 25.5844C33.7688 25.8609 34.1766 26.7188 33.9 27.5016C32.4609 31.575 28.575 34.5 24 34.5C20.6531 34.5 17.6719 32.9344 15.75 30.4969V32.25C15.75 33.0797 15.0783 33.75 14.25 33.75Z" fill="#232323"/>
</svg>
