<svg width="20" height="20" viewBox="0 0 20 20" fill="none" xmlns="http://www.w3.org/2000/svg">
<path d="M6.31521 18.0367C6.16525 18.4871 6.4092 18.9737 6.85912 19.1238C6.949 19.1538 7.04209 19.1682 7.13161 19.1682C7.49183 19.1682 7.82663 18.9405 7.9473 18.5806L8.36947 17.3137C7.78832 17.2157 7.23331 17.062 6.70551 16.8675L6.31521 18.0367ZM13.6772 18.0367L13.2876 16.8672C12.7598 17.0618 12.2044 17.2156 11.6236 17.3133L12.0458 18.5802C12.1661 18.939 12.4991 19.1682 12.8608 19.1682C12.9503 19.1682 13.042 19.1542 13.1327 19.124C13.5841 18.9748 13.7953 18.4556 13.6772 18.0367ZM9.13682 17.41V18.3088C9.13682 18.785 9.52354 19.1682 9.9962 19.1682C10.4689 19.1682 10.8556 18.7832 10.8556 18.3088V17.4107C10.5727 17.4351 10.2862 17.4494 9.9962 17.4494C9.70616 17.4494 9.4197 17.4351 9.13682 17.41Z" fill="#C4C7C7"/>
<path d="M14.6878 5.61724C16.7718 6.83827 18.0143 8.81841 18.0143 10.9131C18.0143 14.5161 14.4157 17.448 9.99349 17.448C5.57129 17.448 1.97266 14.5154 1.97266 10.9131C1.97266 8.81841 3.21696 6.83827 5.30059 5.61724C5.30078 5.61712 5.30113 5.61691 5.30164 5.6166C5.36244 5.57964 7.6577 4.18451 8.37464 1.26979C8.42477 1.0611 8.58827 0.898861 8.79753 0.849054C9.00163 0.798701 9.22363 0.869768 9.36328 1.03255L9.99349 1.76509L10.6251 1.03245C10.7637 0.869643 10.9886 0.798597 11.1923 0.848943C11.4015 0.898715 11.5649 1.06099 11.6152 1.26968C12.3367 4.21053 14.6643 5.60381 14.6878 5.61724Z" fill="#C4C7C7"/>
</svg>
