<svg width="20" height="20" viewBox="0 0 20 20" fill="none" xmlns="http://www.w3.org/2000/svg">
<path d="M7.48906 2.58736C7.66836 2.22738 8.03691 2 8.43867 2H12.4363C12.8381 2 13.2066 2.22738 13.3859 2.58736L13.625 3.0625H16.8125C17.4002 3.0625 17.875 3.5383 17.875 4.125C17.875 4.7117 17.4002 5.1875 16.8125 5.1875H4.0625C3.4758 5.1875 3 4.7117 3 4.125C3 3.5383 3.4758 3.0625 4.0625 3.0625H7.25L7.48906 2.58736ZM4.03262 6.25H16.8125V16.875C16.8125 18.0471 15.8596 19 14.6875 19H6.15762C5.01377 19 4.03262 18.0471 4.03262 16.875V6.25ZM6.68887 8.90625V16.3438C6.68887 16.6359 6.95781 16.875 7.22012 16.875C7.54219 16.875 7.75137 16.6359 7.75137 16.3438V8.90625C7.75137 8.61406 7.54219 8.375 7.22012 8.375C6.95781 8.375 6.68887 8.61406 6.68887 8.90625ZM9.87637 8.90625V16.3438C9.87637 16.6359 10.1453 16.875 10.4076 16.875C10.7297 16.875 10.9688 16.6359 10.9688 16.3438V8.90625C10.9688 8.61406 10.7297 8.375 10.4076 8.375C10.1453 8.375 9.87637 8.61406 9.87637 8.90625ZM13.0938 8.90625V16.3438C13.0938 16.6359 13.3328 16.875 13.625 16.875C13.9172 16.875 14.1562 16.6359 14.1562 16.3438V8.90625C14.1562 8.61406 13.9172 8.375 13.625 8.375C13.3328 8.375 13.0938 8.61406 13.0938 8.90625Z" fill="#8E9192"/>
</svg>
