<svg width="20" height="20" viewBox="0 0 20 20" fill="none" xmlns="http://www.w3.org/2000/svg">
<g clip-path="url(#clip0_7973_141943)">
<path d="M11.4062 10.9375H8.125V13.125H11.4062C12.0078 13.125 12.5 12.6328 12.5 12.0312C12.5 11.4297 12.0078 10.9375 11.4062 10.9375ZM11.875 7.96875C11.875 7.36562 11.3844 6.875 10.7812 6.875H8.125V9.0625H10.7812C11.3828 9.0625 11.875 8.57031 11.875 7.96875ZM10 0C4.47656 0 0 4.47656 0 10C0 15.5234 4.47656 20 10 20C15.5234 20 20 15.5234 20 10C20 4.47656 15.5234 0 10 0ZM11.4062 15H7.1875C6.67188 15 6.25 14.582 6.25 14.0625V5.9375C6.25 5.42188 6.67188 5 7.1875 5H10.7812C12.418 5 13.75 6.33203 13.75 7.96875C13.75 8.60742 13.5429 9.1957 13.1984 9.68047C13.9102 10.2227 14.375 11.0703 14.375 12.0312C14.375 13.668 13.043 15 11.4062 15Z" fill="#7AA500" stroke="#7AA500" stroke-width="0.0371094"/>
</g>
<defs>
<clipPath id="clip0_7973_141943">
<rect width="20" height="20" fill="white"/>
</clipPath>
</defs>
</svg>
