<svg width="20" height="20" viewBox="0 0 20 20" fill="none" xmlns="http://www.w3.org/2000/svg">
<g clip-path="url(#clip0_7973_141958)">
<path d="M10 0C4.47656 0 0 4.47656 0 10C0 15.5234 4.47656 20 10 20C15.5234 20 20 15.5234 20 10C20 4.47656 15.5234 0 10 0ZM9.96484 13.125C10.7887 13.125 11.5633 12.8015 12.1469 12.2117C12.5112 11.8455 13.1059 11.8406 13.4727 12.2068C13.8407 12.5706 13.8431 13.1639 13.4788 13.5326C12.5391 14.4805 11.293 15 9.96484 15C6.88086 15 5.00391 12.409 5.00391 10C5.0036 7.61289 6.87383 5 9.96484 5C11.2922 5 12.541 5.52109 13.4789 6.46719C13.8438 6.83594 13.8398 7.42969 13.4727 7.79297C13.1058 8.15918 12.5113 8.15398 12.1469 7.78778C11.5625 7.19922 10.7891 6.875 9.96484 6.875C8.03516 6.875 6.875 8.51172 6.875 10C6.875 11.4805 8.03125 13.125 9.96484 13.125Z" fill="#F4C517" stroke="#F4C517" stroke-width="0.0371094"/>
</g>
<defs>
<clipPath id="clip0_7973_141958">
<rect width="20" height="20" fill="white"/>
</clipPath>
</defs>
</svg>
