<svg width="32" height="32" viewBox="0 0 32 32" fill="none" xmlns="http://www.w3.org/2000/svg">
<g clip-path="url(#clip0_9211_24577)">
<circle cx="16" cy="16" r="16" fill="#D2EBE4"/>
<path d="M23.7686 18.576V13.2748C24.4112 13.0568 24.8816 12.4487 24.8816 11.7372C24.8816 10.8422 24.1587 10.1193 23.2637 10.1193C22.8392 10.1193 22.449 10.2915 22.1507 10.5668L17.6298 7.96213C17.6527 7.84739 17.6642 7.73264 17.6642 7.6179C17.6642 6.72289 16.9413 6 16.0463 6C15.1513 6 14.4169 6.72289 14.4169 7.6179C14.4169 7.73264 14.4284 7.83592 14.4513 7.95066L9.88449 10.5898C9.58615 10.3029 9.18455 10.1193 8.73704 10.1193C7.84203 10.1193 7.11914 10.8422 7.11914 11.7372C7.11914 12.4831 7.62402 13.1142 8.32396 13.2978V18.5531C7.63549 18.7367 7.11914 19.3678 7.11914 20.1136C7.11914 21.0086 7.84203 21.7315 8.73704 21.7315C9.1616 21.7315 9.55173 21.5594 9.85006 21.284L14.4743 23.9575C14.4399 24.0952 14.4169 24.2329 14.4169 24.3821C14.4169 25.2771 15.1398 26 16.0348 26C16.9298 26 17.6642 25.2886 17.6642 24.3936C17.6642 24.2444 17.6412 24.1067 17.6068 23.969L22.1851 21.3299C22.472 21.5823 22.8506 21.743 23.2637 21.743C24.1587 21.743 24.8816 21.0201 24.8816 20.1251C24.8816 19.4022 24.4112 18.794 23.7686 18.576ZM22.9539 20.8365C22.69 20.7217 22.4949 20.4693 22.4835 20.1595C22.4835 20.148 22.4835 20.1365 22.4835 20.1251V20.1136C22.4835 20.1021 22.4835 20.0906 22.4835 20.0677C22.4949 19.8153 22.6326 19.5858 22.8392 19.4596C22.8506 19.4481 22.8621 19.4366 22.8851 19.4366C22.8965 19.4366 22.908 19.4251 22.9195 19.4251C23.0228 19.3678 23.149 19.3448 23.2752 19.3448C23.4473 19.3448 23.608 19.4022 23.7456 19.5055C23.7571 19.5169 23.7801 19.5284 23.7915 19.5399C23.9522 19.6776 24.0555 19.8956 24.0555 20.1251C24.0555 20.5496 23.7112 20.9053 23.2752 20.9053C23.1834 20.9053 23.1031 20.8939 23.0228 20.8594C22.9883 20.848 22.9769 20.8365 22.9539 20.8365ZM16.0463 25.1738C15.6332 25.1738 15.289 24.8411 15.266 24.428C15.266 24.4165 15.266 24.4051 15.266 24.4051C15.266 24.3936 15.266 24.3936 15.266 24.3821C15.2775 24.1182 15.4152 23.8887 15.6217 23.751C15.6676 23.7281 15.702 23.7051 15.7479 23.6822C15.7709 23.6707 15.7824 23.6707 15.8053 23.6592C15.8856 23.6363 15.966 23.6248 16.0463 23.6248C16.1266 23.6248 16.2069 23.6363 16.2872 23.6592C16.3102 23.6707 16.3217 23.6707 16.3446 23.6822C16.3905 23.7051 16.4364 23.7281 16.4708 23.751C16.6774 23.8887 16.8151 24.1182 16.8265 24.3821C16.8265 24.3936 16.8265 24.3936 16.8265 24.4051C16.8265 24.4165 16.8265 24.428 16.8265 24.428C16.8036 24.8411 16.4594 25.1738 16.0463 25.1738ZM9.04685 20.8365C8.95506 20.8709 8.85179 20.8939 8.73704 20.8939C8.31249 20.8939 7.95678 20.5496 7.95678 20.1136C7.95678 19.8382 8.09447 19.5972 8.31249 19.4596C8.32396 19.4481 8.33543 19.4366 8.35838 19.4366C8.47313 19.3678 8.59935 19.3333 8.73704 19.3333C8.74852 19.3333 8.77146 19.3333 8.78294 19.3333C8.94358 19.3448 9.08127 19.4022 9.20749 19.4825C9.21897 19.494 9.24192 19.5055 9.25339 19.5169C9.39109 19.6431 9.49436 19.8153 9.5173 20.0103C9.5173 20.0218 9.5173 20.0448 9.5173 20.0677C9.5173 20.0792 9.5173 20.0906 9.5173 20.1136C9.5173 20.148 9.5173 20.171 9.50583 20.2054C9.47141 20.4693 9.31076 20.6873 9.09275 20.8021C9.08127 20.8135 9.05833 20.825 9.04685 20.8365ZM7.96825 11.7372C7.96825 11.3127 8.31249 10.957 8.74852 10.957C8.87473 10.957 8.98948 10.9914 9.10422 11.0373C9.1157 11.0488 9.13865 11.0488 9.15012 11.0602C9.26487 11.1291 9.36814 11.2324 9.43698 11.3586C9.49436 11.4733 9.52878 11.5995 9.52878 11.7372C9.52878 11.7717 9.52878 11.7946 9.5173 11.829C9.5173 11.852 9.5173 11.8635 9.50583 11.8864C9.48288 12.0126 9.42551 12.1159 9.35666 12.2077C9.32224 12.2536 9.28782 12.288 9.25339 12.3224C9.24192 12.3339 9.23044 12.3454 9.20749 12.3569C9.08127 12.4601 8.92063 12.5175 8.73704 12.5175C8.59935 12.5175 8.47313 12.4831 8.35838 12.4142C8.34691 12.4028 8.32396 12.4028 8.31249 12.3913C8.10594 12.2421 7.96825 12.0126 7.96825 11.7372ZM16.0463 6.83764C16.4249 6.83764 16.7347 7.11302 16.8036 7.46873C16.8036 7.49168 16.8151 7.50316 16.8151 7.5261C16.8151 7.56053 16.8265 7.58348 16.8265 7.6179C16.8265 7.90476 16.6774 8.14573 16.4479 8.28342C16.4364 8.29489 16.4135 8.29489 16.402 8.30637C16.3102 8.35227 16.2069 8.38669 16.0922 8.38669C16.0807 8.38669 16.0692 8.38669 16.0463 8.38669C15.9201 8.38669 15.8053 8.35227 15.6906 8.30637C15.6791 8.29489 15.6561 8.29489 15.6447 8.28342C15.5185 8.2031 15.4152 8.09983 15.3463 7.96213C15.289 7.85886 15.266 7.73264 15.266 7.60643C15.266 7.572 15.266 7.54905 15.2775 7.51463C15.2775 7.49168 15.2775 7.48021 15.289 7.45726C15.3463 7.11302 15.6676 6.83764 16.0463 6.83764ZM22.9539 11.0258C23.0457 10.9914 23.149 10.9684 23.2637 10.9684C23.6883 10.9684 24.044 11.3127 24.044 11.7487C24.044 11.9782 23.9407 12.1962 23.7801 12.3339C23.7686 12.3454 23.7571 12.3569 23.7342 12.3683C23.608 12.4716 23.4473 12.529 23.2637 12.529C23.1604 12.529 23.0572 12.506 22.9539 12.4716C22.931 12.4601 22.908 12.4487 22.8736 12.4372C22.8621 12.4257 22.8392 12.4257 22.8277 12.4142C22.6441 12.288 22.5064 12.0929 22.4835 11.8635C22.4835 11.852 22.4835 11.829 22.4835 11.8061C22.4835 11.7946 22.4835 11.7831 22.4835 11.7602C22.4835 11.6225 22.5179 11.4963 22.5753 11.3815C22.6556 11.2438 22.7703 11.1291 22.908 11.0602C22.9195 11.0373 22.9424 11.0258 22.9539 11.0258ZM22.1163 18.9662L17.6068 16.3614C17.6412 16.2238 17.6642 16.0861 17.6642 15.9484C17.6642 15.7992 17.6412 15.6615 17.6068 15.5353L22.1507 12.9191C22.3458 13.1027 22.5753 13.2289 22.8392 13.3092V18.5645C22.5638 18.6334 22.3113 18.7711 22.1163 18.9662ZM10.2976 12.2077H12.0991C12.1794 12.4716 12.3285 12.7011 12.5121 12.8962L9.25339 18.5416V13.2748C9.74679 13.1142 10.1369 12.7126 10.2976 12.2077ZM13.6481 10.957C14.0727 10.957 14.4284 11.3012 14.4284 11.7372C14.4284 11.9208 14.371 12.0815 14.2677 12.2077C14.1415 12.3798 13.9465 12.4945 13.717 12.506C13.694 12.506 13.6711 12.506 13.6481 12.506C13.2236 12.506 12.8678 12.1618 12.8678 11.7258C12.8678 11.5881 12.9023 11.4618 12.9596 11.3471C13.0859 11.1176 13.3383 10.957 13.6252 10.9455C13.6366 10.957 13.6366 10.957 13.6481 10.957ZM13.2465 13.3092C13.3727 13.3437 13.5104 13.3551 13.6481 13.3551C14.3825 13.3551 15.0021 12.8732 15.1972 12.2077H21.6802L17.1823 14.8009C16.8839 14.5141 16.4823 14.3305 16.0348 14.3305C15.1398 14.3305 14.4169 15.0534 14.4169 15.9484C14.4169 16.0975 14.4399 16.2352 14.4743 16.3614L9.97628 18.9547L13.2465 13.3092ZM16.0463 16.7286C15.9201 16.7286 15.8053 16.6942 15.6906 16.6483C15.6676 16.6368 15.6447 16.6254 15.6217 16.6024C15.4152 16.4647 15.266 16.2238 15.266 15.9484C15.266 15.9369 15.266 15.9254 15.266 15.9025C15.289 15.4894 15.6217 15.1681 16.0348 15.1681C16.161 15.1681 16.2758 15.2025 16.3905 15.2484C16.6315 15.3746 16.8036 15.6156 16.8151 15.9025C16.8151 15.9139 16.8151 15.9254 16.8151 15.9484C16.8151 15.9598 16.8151 15.9713 16.8151 15.9943C16.7921 16.4073 16.4594 16.7286 16.0463 16.7286ZM15.2201 11.3586C15.1513 11.0717 15.0021 10.8078 14.807 10.6013L15.6332 9.17843C15.7709 9.21285 15.9086 9.2358 16.0463 9.2358C16.4938 9.2358 16.8954 9.05221 17.1937 8.76535L21.6802 11.3586H15.2201ZM14.0841 10.1767C13.9465 10.1423 13.7973 10.1193 13.6481 10.1193C12.8793 10.1193 12.2368 10.6586 12.0761 11.3701H10.4008L14.8874 8.7883L14.0841 10.1767ZM10.3205 19.7464L14.8988 17.0958C15.0939 17.2909 15.3463 17.44 15.6217 17.5089V22.8216C15.3808 22.8904 15.1627 23.0052 14.9792 23.1658L10.3205 20.4923C10.3435 20.3775 10.3664 20.2513 10.3664 20.1251C10.3664 19.9874 10.3435 19.8612 10.3205 19.7464ZM16.4708 22.833V17.5204C16.7462 17.44 16.9987 17.3024 17.1937 17.1073L21.7032 19.712C21.6688 19.8497 21.6458 19.9874 21.6458 20.1251C21.6458 20.2742 21.6688 20.4119 21.7032 20.5382L17.1249 23.1888C16.9298 23.0166 16.7118 22.9019 16.4708 22.833Z" fill="#00A578"/>
</g>
<defs>
<clipPath id="clip0_9211_24577">
<rect width="32" height="32" fill="white"/>
</clipPath>
</defs>
</svg>
