<svg width="24" height="24" viewBox="0 0 24 24" fill="none" xmlns="http://www.w3.org/2000/svg">
<g clip-path="url(#clip0_5035_57299)">
<circle cx="12" cy="12" r="12" fill="#E0E3E3"/>
<g clip-path="url(#clip1_5035_57299)">
<path d="M9.92728 11.6469C10.0585 12.2157 9.4351 12.6614 8.94018 12.3497L8.27572 11.934L6.88393 14.1606C6.51943 14.7436 6.93872 15.4999 7.62631 15.4999H8.50185C8.9842 15.4999 9.37631 15.8915 9.37631 16.3738C9.37631 16.8562 8.9842 17.2502 8.50185 17.2502H7.62904C5.56842 17.2502 4.31225 14.9851 5.40135 13.2361L6.79123 11.0098L6.12514 10.5915C5.62994 10.2797 5.75627 9.52505 6.32557 9.3938L8.8256 8.81548C9.06049 8.7649 9.29838 8.90709 9.35307 9.14498L9.92728 11.6469ZM12.741 7.15873L13.8689 8.96724L13.2058 9.37959C12.7092 9.68884 12.8347 10.4444 13.4048 10.5764L15.904 11.1547C16.1398 11.2093 16.3752 11.0621 16.4293 10.8263L17.0046 8.32631C17.1356 7.75728 16.5138 7.31322 16.0183 7.62193L15.3522 8.03755L14.2257 6.23396C13.1981 4.58951 10.8023 4.58841 9.77416 6.23227L9.57182 6.55552C9.31752 6.96158 9.4433 7.50381 9.84799 7.75865C10.256 8.01456 10.7987 7.89225 11.0541 7.48412L11.2576 7.159C11.6062 6.60146 12.4074 6.62197 12.741 7.15873ZM18.598 13.2383L18.1334 12.4929C17.8781 12.0833 17.3388 11.9581 16.9292 12.2138C16.5207 12.4686 16.3954 13.0108 16.6508 13.4191L17.1154 14.1615C17.4804 14.7444 17.0612 15.5013 16.3733 15.5013H13.7486L13.7492 14.7154C13.7492 14.1308 13.0424 13.838 12.6289 14.2514L10.813 16.0679C10.6429 16.238 10.6429 16.5166 10.8132 16.6867L12.6293 18.5006C13.0428 18.9135 13.7491 18.6206 13.7491 18.0363L13.7484 17.2521H16.3696C18.4312 17.2524 19.689 14.9856 18.598 13.2383Z" fill="#494949"/>
</g>
</g>
<defs>
<clipPath id="clip0_5035_57299">
<rect width="24" height="24" fill="white"/>
</clipPath>
<clipPath id="clip1_5035_57299">
<rect width="14" height="14" fill="white" transform="translate(5 5)"/>
</clipPath>
</defs>
</svg>
