<svg width="16" height="16" viewBox="0 0 16 16" fill="none" xmlns="http://www.w3.org/2000/svg">
<path d="M0.5 8C0.5 3.85742 3.85742 0.5 8 0.5C12.1426 0.5 15.5 3.85742 15.5 8C15.5 12.1426 12.1426 15.5 8 15.5C3.85742 15.5 0.5 12.1426 0.5 8ZM5.62695 6.59668L7.00684 7.97363L5.62695 9.37695C5.35449 9.65234 5.35449 10.0977 5.62695 10.3467C5.90234 10.6455 6.34766 10.6455 6.59668 10.3467L7.97363 8.99316L9.37695 10.3467C9.65234 10.6455 10.0977 10.6455 10.3467 10.3467C10.6455 10.0977 10.6455 9.65234 10.3467 9.37695L8.99316 7.97363L10.3467 6.59668C10.6455 6.34766 10.6455 5.90234 10.3467 5.62695C10.0977 5.35449 9.65234 5.35449 9.37695 5.62695L7.97363 7.00684L6.59668 5.62695C6.34766 5.35449 5.90234 5.35449 5.62695 5.62695C5.35449 5.90234 5.35449 6.34766 5.62695 6.59668Z" fill="#930006"/>
</svg>
