<svg width="32" height="32" viewBox="0 0 32 32" fill="none" xmlns="http://www.w3.org/2000/svg">
<g clip-path="url(#clip0_7555_133622)">
<circle cx="16" cy="16" r="16" fill="#D9D9D9"/>
<g opacity="0.3">
<path d="M23.8628 20.5871C23.6515 20.9523 23.2648 21.1564 22.8709 21.1564C22.6744 21.1564 22.4756 21.1061 22.2934 20.9998L21.395 20.4755L21.5876 21.2021C21.7091 21.6608 21.4352 22.132 20.976 22.2527C20.9021 22.2728 20.8281 22.2817 20.7553 22.2817C20.3746 22.2817 20.0262 22.0277 19.9242 21.6429L19.289 19.2467L17.1454 17.9946L17.1454 20.519L18.8777 22.2693C19.2121 22.6073 19.2087 23.1509 18.871 23.4846C18.703 23.6522 18.4846 23.7345 18.2661 23.7345C18.0444 23.7345 17.8225 23.6495 17.6545 23.4794L17.1454 22.9649V24.021C17.1454 24.6544 16.6319 25.1668 15.9985 25.1668C15.365 25.1668 14.8515 24.6544 14.8515 24.021L14.8515 22.9647L14.3424 23.4792C14.0086 23.8172 13.464 23.8194 13.126 23.4859C12.7883 23.1525 12.7849 22.6087 13.1193 22.2706L14.8516 20.5204L14.8215 17.9946L12.6777 19.2454L12.0425 21.6416C11.9405 22.0265 11.592 22.2804 11.2114 22.2804C11.1385 22.2804 11.0646 22.2715 10.9907 22.2513C10.5316 22.1305 10.2577 21.6594 10.3791 21.2007L10.5717 20.4742L9.67327 20.9984C9.52235 21.1063 9.32362 21.1564 9.12703 21.1564C8.7328 21.1564 8.34858 20.9527 8.13553 20.5878C7.8157 20.0417 8 19.3403 8.54731 19.0212L9.47687 18.4787L8.74891 18.2815C8.29022 18.1593 8.01987 17.6867 8.14412 17.2284C8.26837 16.77 8.73888 16.5015 9.19936 16.6232L11.5594 17.2642L13.7258 16.0002L11.5594 14.7362L9.19936 15.3771C9.12378 15.3973 9.04808 15.4073 8.9736 15.4073C8.59512 15.4073 8.24779 15.1556 8.1443 14.7728C8.01987 14.3136 8.29022 13.8446 8.74891 13.7192L9.47687 13.522L8.54731 12.978C8.00018 12.6591 7.81577 11.9575 8.13553 11.4115C8.45368 10.8643 9.15604 10.6796 9.70425 10.9997L10.6027 11.5239L10.41 10.7974C10.2886 10.3394 10.564 9.86816 10.9901 9.74749C11.4842 9.62324 11.9211 9.89967 12.075 10.3573L12.7103 12.7535L14.8215 14.0057L14.8215 11.4813L13.1206 9.72959C12.7876 9.39157 12.7876 8.84766 13.1278 8.51429C13.4644 8.17949 14.0086 8.18415 14.3452 8.52109L14.8544 9.03564L14.8215 7.97933C14.8215 7.3459 15.3349 6.8335 15.9684 6.8335C16.6018 6.8335 17.1153 7.3459 17.1153 7.97933L17.1153 9.03564L17.6245 8.52109C17.9577 8.18429 18.5021 8.17981 18.8408 8.51438C19.1786 8.84782 19.1819 9.39166 18.8476 9.72968L17.1152 11.4799L17.1454 14.0057L19.2891 12.7549L19.9244 10.3587C20.0459 9.90111 20.5173 9.62467 20.9764 9.74893C21.4354 9.86978 21.7094 10.3408 21.588 10.7995L21.3954 11.526L22.2938 11.0018C22.8409 10.6829 23.5438 10.8675 23.8625 11.4136C24.1823 11.9597 23.998 12.6611 23.4507 12.9802L22.5211 13.5227L23.2491 13.7199C23.7078 13.8441 23.9785 14.3164 23.8539 14.774C23.7502 15.1568 23.4031 15.4086 23.0246 15.4086C22.9501 15.4086 22.8745 15.3985 22.7988 15.3783L20.4074 14.7362L18.2733 16.0002L20.4382 17.2634L22.7997 16.6236C23.2612 16.5015 23.7303 16.77 23.8556 17.2284C23.98 17.686 23.7095 18.1583 23.2509 18.2825L22.5229 18.4797L23.4525 19.0222C23.9989 19.341 24.1815 20.0428 23.8628 20.5871Z" fill="black"/>
</g>
</g>
<defs>
<clipPath id="clip0_7555_133622">
<rect width="32" height="32" fill="white"/>
</clipPath>
</defs>
</svg>
