<svg width="20" height="20" viewBox="0 0 20 20" fill="none" xmlns="http://www.w3.org/2000/svg">
<path d="M17.8628 14.5871C17.6515 14.9523 17.2648 15.1564 16.8709 15.1564C16.6744 15.1564 16.4756 15.1061 16.2934 14.9998L15.395 14.4755L15.5876 15.2021C15.7091 15.6608 15.4352 16.132 14.976 16.2527C14.9021 16.2728 14.8281 16.2817 14.7553 16.2817C14.3746 16.2817 14.0262 16.0277 13.9242 15.6429L13.289 13.2467L11.1454 11.9946L11.1454 14.519L12.8777 16.2693C13.2121 16.6073 13.2087 17.1509 12.871 17.4846C12.703 17.6522 12.4846 17.7345 12.2661 17.7345C12.0444 17.7345 11.8225 17.6495 11.6545 17.4794L11.1454 16.9649V18.021C11.1454 18.6544 10.6319 19.1668 9.99845 19.1668C9.36502 19.1668 8.85155 18.6544 8.85155 18.021L8.85154 16.9647L8.34236 17.4792C8.00856 17.8172 7.46401 17.8194 7.12599 17.4859C6.78825 17.1525 6.78492 16.6087 7.11927 16.2706L8.85163 14.5204L8.82147 11.9946L6.67768 13.2454L6.04246 15.6416C5.94048 16.0265 5.59201 16.2804 5.21138 16.2804C5.13851 16.2804 5.06457 16.2715 4.99066 16.2513C4.53161 16.1305 4.25768 15.6594 4.37907 15.2007L4.57168 14.4742L3.67327 14.9984C3.52235 15.1063 3.32362 15.1564 3.12703 15.1564C2.7328 15.1564 2.34858 14.9527 2.13553 14.5878C1.8157 14.0417 2 13.3403 2.54731 13.0212L3.47687 12.4787L2.74891 12.2815C2.29022 12.1593 2.01987 11.6867 2.14412 11.2284C2.26837 10.77 2.73888 10.5015 3.19936 10.6232L5.55942 11.2642L7.72576 10.0002L5.55942 8.73616L3.19936 9.37712C3.12378 9.39726 3.04808 9.40733 2.9736 9.40733C2.59512 9.40733 2.24779 9.15557 2.1443 8.77282C2.01987 8.31364 2.29022 7.84456 2.74891 7.71924L3.47687 7.52201L2.54731 6.97803C2.00018 6.65913 1.81577 5.95752 2.13553 5.41146C2.45368 4.86432 3.15604 4.67956 3.70425 4.99967L4.60265 5.52389L4.41001 4.79736C4.28862 4.33939 4.56398 3.86816 4.99009 3.74749C5.48423 3.62324 5.92108 3.89967 6.07505 4.35729L6.71027 6.75352L8.82147 8.0057L8.82146 5.48128L7.12062 3.72959C6.78761 3.39157 6.78761 2.84766 7.12778 2.51429C7.46437 2.17949 8.00864 2.18415 8.34523 2.52109L8.85441 3.03564L8.82147 1.97933C8.82147 1.3459 9.33494 0.833496 9.96838 0.833496C10.6018 0.833496 11.1153 1.3459 11.1153 1.97933L11.1153 3.03564L11.6245 2.52109C11.9577 2.18429 12.5021 2.17981 12.8408 2.51438C13.1786 2.84782 13.1819 3.39166 12.8476 3.72968L11.1152 5.47994L11.1454 8.0057L13.2891 6.75495L13.9244 4.35872C14.0459 3.90111 14.5173 3.62467 14.9764 3.74893C15.4354 3.86978 15.7094 4.34082 15.588 4.79951L15.3954 5.52604L16.2938 5.00182C16.8409 4.68292 17.5438 4.86755 17.8625 5.41361C18.1823 5.95967 17.998 6.66113 17.4507 6.98018L16.5211 7.52266L17.2491 7.71988C17.7078 7.8441 17.9785 8.31643 17.8539 8.77405C17.7502 9.15683 17.4031 9.40855 17.0246 9.40855C16.9501 9.40855 16.8745 9.39848 16.7988 9.37834L14.4074 8.73616L12.2733 10.0002L14.4382 11.2634L16.7997 10.6236C17.2612 10.5015 17.7303 10.77 17.8556 11.2284C17.98 11.686 17.7095 12.1583 17.2509 12.2825L16.5229 12.4797L17.4525 13.0222C17.9989 13.341 18.1815 14.0428 17.8628 14.5871Z" fill="#96B0D6"/>
</svg>
