<svg width="20" height="20" viewBox="0 0 20 20" fill="none" xmlns="http://www.w3.org/2000/svg">
<path d="M20.0002 14.3397C20.0002 14.1755 19.9859 14.0085 19.9562 13.8404L18.9131 7.22787C18.4814 4.76975 16.3127 3.3335 9.97206 3.3335C3.71894 3.3335 1.52237 4.75412 1.08706 7.22725L0.0439375 13.8397C0.0142906 14.008 0 14.1747 0 14.3391C0 15.9607 1.39313 17.3332 3.17188 17.3332C4.72469 17.3332 6.1025 16.3938 6.59375 15.0007L6.82812 14.3332H13.1719L13.4062 15.0007C13.8975 16.3938 15.2753 17.3332 16.8281 17.3332C18.6064 17.3054 20.0002 15.9616 20.0002 14.3397ZM7.72206 10.0835L6.72331 10.0832L6.72206 11.0835C6.72206 11.496 6.38519 11.8335 5.97269 11.8335C5.56019 11.8335 5.22206 11.496 5.22206 11.0835L5.22321 10.0832L4.22206 10.0835C3.80956 10.0835 3.47269 9.746 3.47269 9.3335C3.47269 8.921 3.80925 8.5835 4.22206 8.5835L5.22331 8.58315L5.22206 7.5835C5.22206 7.171 5.56019 6.8335 5.97269 6.8335C6.38519 6.8335 6.72206 7.171 6.72206 7.5835L6.72321 8.58318L7.72206 8.5835C8.13456 8.5835 8.47269 8.921 8.47269 9.3335C8.47206 9.746 8.16269 10.0835 7.72206 10.0835ZM13.5002 12.0554C12.8099 12.0554 12.2502 11.4954 12.2502 10.8054C12.2502 10.1154 12.8099 9.55537 13.5002 9.55537C14.1905 9.55537 14.7502 10.1154 14.7502 10.8054C14.7502 11.5241 14.1908 12.0554 13.5002 12.0554ZM15.5002 9.05537C14.8099 9.05537 14.2502 8.49537 14.2502 7.80537C14.2502 7.11537 14.8099 6.55537 15.5002 6.55537C16.1905 6.55537 16.7502 7.11537 16.7502 7.80537C16.7502 8.52412 16.1908 9.05537 15.5002 9.05537Z" fill="#8E9192"/>
</svg>
