<svg width="32" height="32" viewBox="0 0 32 32" fill="none" xmlns="http://www.w3.org/2000/svg">
<g clip-path="url(#clip0_7553_128934)">
<circle cx="16" cy="16" r="16" fill="#D9D9D9"/>
<g opacity="0.3">
<path fill-rule="evenodd" clip-rule="evenodd" d="M10.2715 14.0119C10.2715 15.2759 12.8353 16.3035 16.0007 16.3035C19.166 16.3035 21.7298 15.2759 21.7298 14.0119C21.7298 12.7479 19.166 11.7202 16.0007 11.7202C12.8353 11.7202 10.2715 12.7479 10.2715 14.0119ZM25.1673 14.2983C25.1673 11.4517 21.0638 9.14209 16.0007 9.14209C10.9375 9.14209 6.83398 11.4517 6.83398 14.2983C6.83398 17.145 10.9375 19.4546 16.0007 19.4546C21.0638 19.4546 25.1673 17.145 25.1673 14.2983ZM9.93454 15.7378C9.50163 15.326 9.09342 14.7459 9.09342 14.0119C9.09342 13.2778 9.50163 12.6978 9.93454 12.286C10.3646 11.8813 10.9268 11.5662 11.4925 11.3263C12.7279 10.8465 14.3105 10.5744 15.9684 10.5744C17.6908 10.5744 19.2734 10.8465 20.4766 11.3263C21.0745 11.5662 21.6367 11.8813 22.0664 12.286C22.4997 12.6978 22.8757 13.2778 22.8757 14.0119C22.8757 14.7459 22.4997 15.326 22.0664 15.7378C21.6367 16.1424 21.0745 16.4575 20.4766 16.6652C19.2734 17.1772 17.6908 17.4494 16.0007 17.4494C14.3105 17.4494 12.7279 17.1772 11.4925 16.6652C10.9268 16.4575 10.3646 16.1424 9.93454 15.7378ZM25.1673 17.2386C24.6947 17.8008 24.1038 18.2878 23.4486 18.6709V20.9805C24.5299 20.2285 25.1673 19.3047 25.1673 18.277V17.2386ZM22.3027 21.6071V19.3226C21.2858 19.7917 20.1221 20.1462 18.8652 20.361V22.6634C20.1615 22.4521 21.3324 22.0977 22.3027 21.6071ZM15.9034 20.5687C15.3533 20.5689 14.8128 20.5691 14.2819 20.515V22.8138C14.8022 22.8608 15.3414 22.8606 15.8906 22.8604C15.9272 22.8604 15.9639 22.8604 16.0007 22.8604C16.0374 22.8604 16.0741 22.8604 16.1107 22.8604C16.6599 22.8606 17.1991 22.8608 17.7194 22.8138V20.515C17.1885 20.5691 16.648 20.5689 16.0979 20.5687C16.0655 20.5687 16.0331 20.5687 16.0007 20.5687C15.9682 20.5687 15.9358 20.5687 15.9034 20.5687ZM13.1361 22.6634V20.361C11.8792 20.1462 10.7155 19.7917 9.69857 19.3226V21.6071C10.6689 22.0977 11.8398 22.4521 13.1361 22.6634ZM6.83398 18.277C6.83398 19.3047 7.471 20.2285 8.55273 20.9805V18.6709C7.89818 18.2878 7.307 17.8008 6.83398 17.2386V18.277Z" fill="black"/>
</g>
</g>
<defs>
<clipPath id="clip0_7553_128934">
<rect width="32" height="32" fill="white"/>
</clipPath>
</defs>
</svg>
