<svg width="24" height="24" viewBox="0 0 24 24" fill="none" xmlns="http://www.w3.org/2000/svg">
<g clip-path="url(#clip0_5094_29921)">
<path d="M23.0154 16.7681C23.6489 15.3066 24 13.6943 24 12C24 5.37258 18.6274 0 12 0C5.37258 0 0 5.37258 0 12C0 18.6274 5.37258 24 12 24C13.6943 24 15.3066 23.6489 16.7681 23.0154C16.2832 22.2973 16 21.4317 16 20.5C16 18.0147 18.0147 16 20.5 16C21.4317 16 22.2973 16.2832 23.0154 16.7681Z" fill="#8EF5C3"/>
<path d="M16 8L8 16M8 16H14M8 16V10" stroke="#003921" stroke-width="2.5" stroke-linecap="round" stroke-linejoin="round"/>
<path fill-rule="evenodd" clip-rule="evenodd" d="M20.5 24C22.433 24 24 22.433 24 20.5C24 18.567 22.433 17 20.5 17C18.567 17 17 18.567 17 20.5C17 22.433 18.567 24 20.5 24ZM21 19C21 18.7239 20.7761 18.5 20.5 18.5C20.2239 18.5 20 18.7239 20 19V20.5C20 20.7761 20.2239 21 20.5 21H21.5C21.7761 21 22 20.7761 22 20.5C22 20.2239 21.7761 20 21.5 20H21V19Z" fill="#F7D65D"/>
</g>
<defs>
<clipPath id="clip0_5094_29921">
<rect width="24" height="24" fill="white"/>
</clipPath>
</defs>
</svg>
