<svg width="2000" height="2000" viewBox="0 0 2000 2000" fill="none" xmlns="http://www.w3.org/2000/svg">
<g clip-path="url(#clip0_1057_362)">
<path d="M1781 1496C1749 1617.6 1458.33 1669.33 1317 1680H481C313 1680 289 1584 253 1496C217 1408 69 1360 69 1144C69 948 245 808 341 704C437 600 331.785 346.129 585 184.704C905 -19.2963 1318.82 338.535 1501 312C1753 275.296 1837 400 1909 616C1981 832 1897 992 1801 1116C1705 1240 1821 1344 1781 1496Z" fill="#5497FF"/>
<ellipse cx="1065.21" cy="1708.5" rx="687" ry="52.5" fill="#2E497D"/>
<path d="M1175.94 1556.44L1175.89 1556.39L1175.83 1556.34C1168.85 1550.59 1162.65 1544.98 1157.16 1539.5L1153.63 1543.05C1139.4 1528.88 1129.65 1515.49 1123.24 1502.71L1127.7 1500.47C1119.42 1483.96 1117 1468.61 1117.7 1453.91L1112.71 1453.67C1113.53 1436.45 1118.45 1420.13 1123.54 1404.19L1128.3 1405.71C1128.68 1404.53 1129.06 1403.35 1129.44 1402.16C1134.34 1386.88 1139.36 1371.24 1140.58 1355.34L1135.59 1354.96C1136.8 1339.2 1134.11 1323.25 1123.6 1306.57L1127.83 1303.91C1120.08 1291.6 1108.44 1279.14 1091.74 1266.3L1088.69 1270.26C1077.13 1261.37 1062.99 1252.21 1045.79 1242.71L1048.21 1238.33C1041.14 1234.42 1033.56 1230.47 1025.46 1226.45C1017.97 1222.74 1010.92 1218.72 1004.3 1214.4L1001.57 1218.59C987.01 1209.1 974.426 1198.23 963.719 1186.27L967.444 1182.94C956.437 1170.64 947.469 1157.16 940.43 1142.82L935.942 1145.03C928.612 1130.1 923.323 1114.28 919.958 1097.94L924.855 1096.93C921.612 1081.18 920.194 1064.91 920.5 1048.45L915.501 1048.35C915.807 1031.91 917.798 1015.32 921.368 998.888L926.254 999.95C929.689 984.147 934.614 968.496 940.936 953.3L936.32 951.379C942.672 936.111 950.406 921.302 959.427 907.245L963.635 909.946C972.428 896.245 982.463 883.279 993.645 871.332L989.994 867.915C1001.31 855.822 1013.79 844.746 1027.33 834.971L1030.26 839.026C1043.35 829.576 1057.46 821.372 1072.49 814.676L1070.45 810.109C1085.36 803.468 1101.17 798.276 1117.79 794.782L1118.82 799.675C1134.26 796.43 1150.43 794.679 1167.28 794.636L1167.27 789.636C1183.24 789.595 1199.79 791.06 1216.87 794.202L1215.96 799.119C1231.31 801.944 1247.12 806.152 1263.34 811.881L1265 807.166C1279.9 812.43 1295.13 818.953 1310.65 826.831L1308.39 831.29C1315.62 834.959 1322.91 838.927 1330.27 843.206C1331.6 843.977 1332.92 844.861 1334.21 845.842L1337.23 841.859C1340.05 844.001 1342.7 846.501 1345.03 849.174L1341.26 852.462C1342.35 853.702 1343.35 854.979 1344.26 856.267C1349.76 864.021 1355.17 871.447 1360.5 878.556L1364.5 875.556C1376.03 890.918 1387.18 904.782 1397.97 917.273L1394.19 920.542C1407.21 935.607 1419.75 948.718 1431.86 960.083L1435.28 956.436C1449.88 970.135 1463.81 981.226 1477.16 990.101L1474.39 994.265C1491.63 1005.73 1508.02 1013.63 1523.73 1018.71L1525.27 1013.95C1543.96 1019.99 1561.52 1021.87 1578.3 1021.06L1578.54 1026.05C1597.48 1025.13 1615.34 1020.9 1632.5 1015.41L1630.98 1010.64C1643.08 1006.77 1654.93 1002.23 1666.7 997.73C1671.67 995.826 1676.63 993.929 1681.58 992.09L1683.32 996.777C1700.35 990.454 1717.05 984.946 1734.08 982.246L1733.3 977.308C1750.49 974.582 1768.14 974.615 1786.72 979.452L1785.46 984.291C1800.21 988.129 1815.69 995.151 1832.18 1006.6L1835.03 1002.49C1848.01 1011.49 1861.53 1023.12 1875.7 1037.88L1872.09 1041.34C1877.91 1047.41 1883.86 1054.02 1889.93 1061.22C1895.36 1067.65 1900.16 1074.22 1904.38 1080.92L1908.61 1078.26C1917.82 1092.9 1924.34 1108.18 1928.4 1123.94L1923.56 1125.19C1927.57 1140.73 1929.11 1156.79 1928.41 1173.21L1933.4 1173.42C1932.71 1189.59 1929.9 1206.04 1925.19 1222.64L1920.38 1221.28C1916.08 1236.45 1910.15 1251.77 1902.74 1267.14L1907.24 1269.31C1900.26 1283.81 1892 1298.3 1882.6 1312.7L1878.41 1309.96C1869.64 1323.4 1859.86 1336.77 1849.18 1349.98L1853.07 1353.12C1842.81 1365.8 1831.75 1378.32 1819.98 1390.61L1816.37 1387.16C1805.13 1398.9 1793.23 1410.44 1780.77 1421.71L1784.12 1425.42C1771.89 1436.47 1759.12 1447.26 1745.9 1457.73L1742.8 1453.81C1729.9 1464.03 1716.57 1473.93 1702.88 1483.48L1705.74 1487.58C1692.11 1497.08 1678.13 1506.21 1663.89 1514.94L1661.28 1510.67C1647.13 1519.33 1632.72 1527.58 1618.11 1535.36L1620.46 1539.77C1605.69 1547.64 1590.72 1555.04 1575.63 1561.91L1573.55 1557.36C1558.36 1564.27 1543.05 1570.64 1527.71 1576.42L1529.47 1581.1C1513.65 1587.04 1497.8 1592.36 1481.98 1596.99L1480.58 1592.19C1464.45 1596.91 1448.38 1600.9 1432.47 1604.1L1433.45 1609C1416.81 1612.34 1400.31 1614.83 1384.07 1616.38L1383.6 1611.41C1366.79 1613.02 1350.28 1613.61 1334.18 1613.12L1334.03 1618.12C1317.02 1617.59 1300.45 1615.87 1284.46 1612.84L1285.39 1607.93C1268.99 1604.82 1253.24 1600.33 1238.27 1594.36L1236.42 1599.01C1220.9 1592.81 1206.17 1585.04 1192.42 1575.58L1195.26 1571.46C1188.58 1566.86 1182.13 1561.86 1175.94 1556.44Z" stroke="#186C9D" stroke-width="10" stroke-dasharray="50 50"/>
<path d="M1334.54 154.072L1334.61 154.105L1334.67 154.137C1342.84 158.026 1350.22 161.962 1356.88 165.937L1359.44 161.643C1376.68 171.927 1389.39 182.55 1398.72 193.389L1394.93 196.651C1406.98 210.654 1413.05 224.958 1415.94 239.386L1420.84 238.405C1424.22 255.314 1423.42 272.332 1422.35 289.034L1417.36 288.715C1417.28 289.952 1417.2 291.193 1417.12 292.435C1416.07 308.448 1415 324.842 1417.68 340.557L1422.61 339.717C1425.26 355.296 1431.75 370.114 1446 383.747L1442.54 387.359C1453.05 397.412 1467.37 406.671 1486.69 415.076L1488.68 410.491C1502.05 416.308 1518 421.763 1536.99 426.803L1535.7 431.635C1543.51 433.708 1551.82 435.708 1560.66 437.633C1568.82 439.411 1576.64 441.606 1584.11 444.184L1585.74 439.458C1602.17 445.125 1617.02 452.614 1630.31 461.617L1627.5 465.757C1641.17 475.011 1653.14 485.912 1663.45 498.108L1667.27 494.881C1678 507.58 1686.98 521.64 1694.21 536.679L1689.7 538.847C1696.67 553.335 1702 568.778 1705.7 584.822L1710.57 583.698C1714.27 599.72 1716.37 616.304 1716.9 633.107L1711.9 633.264C1712.4 649.427 1711.43 665.806 1708.98 682.083L1713.93 682.825C1711.47 699.178 1707.57 715.422 1702.23 731.249L1697.49 729.651C1692.29 745.077 1685.7 760.091 1677.76 774.397L1682.13 776.825C1674.09 791.304 1664.67 805.078 1653.91 817.85L1650.09 814.628C1639.68 826.975 1627.99 838.358 1615.03 848.503L1618.12 852.44C1605.27 862.502 1591.2 871.377 1575.92 878.803L1573.74 874.306C1559.54 881.205 1544.28 886.832 1527.95 890.964L1529.18 895.811C1513.69 899.73 1497.28 902.328 1479.95 903.427L1479.63 898.437C1464.06 899.425 1447.7 899.181 1430.58 897.562L1430.11 902.54C1414.37 901.053 1398.02 898.423 1381.05 894.55L1382.16 889.675C1374.26 887.872 1366.22 885.794 1358.04 883.431C1356.56 883.005 1355.07 882.467 1353.58 881.83L1351.61 886.427C1348.36 885.035 1345.19 883.251 1342.27 881.225L1345.13 877.12C1343.78 876.18 1342.49 875.186 1341.29 874.158C1334.08 867.97 1327.03 862.081 1320.13 856.48L1316.98 860.362C1302.06 848.258 1287.89 837.516 1274.38 828.022L1277.25 823.931C1260.96 812.479 1245.62 802.806 1231.11 794.723L1228.67 799.091C1211.18 789.348 1194.98 781.971 1179.88 776.603L1181.55 771.892C1162.04 764.957 1144.22 761.273 1127.75 760.163L1127.41 765.152C1107.82 763.831 1090.33 766.273 1074.24 771.138L1072.8 766.352C1054.65 771.841 1038.35 780.289 1023.04 789.782L1025.67 794.032C1014.87 800.726 1004.48 808.006 994.156 815.234C989.796 818.287 985.448 821.332 981.09 824.319L978.263 820.194C963.278 830.464 948.423 839.86 932.553 846.617L934.511 851.218C918.493 858.037 901.364 862.291 882.165 862.111L882.212 857.111C866.978 856.968 850.255 853.916 831.473 846.819L829.706 851.496C814.928 845.912 798.997 837.92 781.665 827.04L784.323 822.805C777.202 818.335 769.83 813.363 762.188 807.853C755.367 802.935 749.108 797.726 743.389 792.25L739.931 795.861C727.44 783.9 717.403 770.66 709.637 756.358L714.031 753.972C706.371 739.865 700.975 724.661 697.67 708.561L692.772 709.566C689.519 693.72 688.247 677.073 688.784 659.827L693.782 659.982C694.272 644.225 696.304 627.915 699.757 611.207L694.861 610.195C698.117 594.438 702.611 578.372 708.23 562.128L712.955 563.762C718.201 548.594 724.446 533.252 731.599 517.844L727.064 515.739C733.931 500.95 741.62 486.117 750.05 471.335L754.393 473.812C762.448 459.69 771.189 445.607 780.544 431.649L776.391 428.866C785.57 415.17 795.334 401.601 805.615 388.235L809.578 391.283C819.609 378.242 830.137 365.395 841.098 352.814L837.329 349.53C848.241 337.006 859.58 324.747 871.283 312.825L874.851 316.328C886.469 304.493 898.448 292.993 910.726 281.898L907.374 278.188C919.796 266.964 932.524 256.153 945.495 245.826L948.609 249.738C961.669 239.341 974.972 229.442 988.456 220.116L985.611 216.004C999.507 206.393 1013.6 197.382 1027.81 189.054L1030.34 193.368C1044.84 184.873 1059.46 177.1 1074.12 170.133L1071.98 165.617C1087.31 158.331 1102.71 151.914 1118.08 146.463L1119.75 151.175C1135.67 145.531 1151.54 140.943 1167.27 137.516L1166.21 132.63C1182.83 129.008 1199.33 126.659 1215.58 125.711L1215.87 130.702C1232.53 129.731 1248.9 130.259 1264.87 132.419L1265.54 127.464C1282.1 129.705 1298.27 133.669 1313.91 139.508L1312.16 144.192C1319.75 147.027 1327.22 150.314 1334.54 154.072Z" stroke="#186C9D" stroke-width="10" stroke-dasharray="50 50"/>
<path d="M397.357 1182.34C356.127 1176.12 313.982 1181.21 275.421 1197.08C236.86 1212.94 203.33 1238.98 178.41 1272.41C153.49 1305.84 138.116 1345.41 133.929 1386.89C129.741 1428.38 136.897 1470.22 154.634 1507.96C172.37 1545.69 200.02 1577.91 234.633 1601.16C269.247 1624.4 309.523 1637.82 351.164 1639.96C392.805 1642.11 434.248 1632.91 471.068 1613.34C507.888 1593.78 538.704 1564.58 560.226 1528.87L513.321 1500.6C496.918 1527.82 473.431 1550.07 445.369 1564.98C417.306 1579.9 385.72 1586.91 353.983 1585.27C322.247 1583.64 291.549 1573.41 265.169 1555.69C238.788 1537.97 217.714 1513.42 204.197 1484.66C190.679 1455.9 185.225 1424.01 188.416 1392.39C191.608 1360.77 203.325 1330.62 222.318 1305.14C241.311 1279.66 266.866 1259.81 296.255 1247.72C325.645 1235.63 357.766 1231.75 389.189 1236.49L397.357 1182.34Z" fill="#C3E9FF"/>
<path d="M556.174 614.406C584.945 584.227 604.982 546.802 614.145 506.125C623.308 465.447 621.254 423.046 608.201 383.445C595.148 343.844 571.587 308.531 540.032 281.276C508.477 254.02 470.113 235.844 429.036 228.688C387.958 221.533 345.708 225.666 306.796 240.646C267.883 255.627 233.769 280.893 208.095 313.748C182.421 346.602 166.15 385.811 161.019 427.191C155.888 468.57 162.089 510.567 178.962 548.697L229.042 526.536C216.183 497.475 211.456 465.468 215.367 433.93C219.277 402.392 231.679 372.509 251.246 347.469C270.814 322.428 296.814 303.172 326.472 291.754C356.129 280.337 388.33 277.186 419.637 282.64C450.945 288.094 480.184 301.947 504.234 322.72C528.283 343.493 546.241 370.407 556.189 400.589C566.137 430.771 567.703 463.087 560.72 494.09C553.736 525.092 538.465 553.616 516.536 576.617L556.174 614.406Z" fill="#2E497D"/>
<path d="M527.624 375.459C514.62 353.201 496.431 334.416 474.604 320.701C452.777 306.987 427.959 298.75 402.264 296.691C376.568 294.633 350.756 298.815 327.024 308.88C303.293 318.945 282.345 334.595 265.964 354.499C249.583 374.403 238.254 397.97 232.942 423.195C227.63 448.42 228.492 474.554 235.455 499.374C242.418 524.194 255.275 546.963 272.932 565.744C290.589 584.525 312.523 598.761 336.866 607.241L357.025 549.365C342.007 544.134 328.476 535.352 317.583 523.766C306.69 512.179 298.758 498.132 294.462 482.82C290.167 467.509 289.635 451.386 292.912 435.824C296.189 420.262 303.178 405.723 313.284 393.444C323.39 381.165 336.313 371.51 350.953 365.3C365.594 359.091 381.518 356.511 397.37 357.781C413.222 359.051 428.533 364.133 441.998 372.593C455.464 381.054 466.685 392.643 474.708 406.375L527.624 375.459Z" fill="#2E497D"/>
<path d="M439.833 527.883C451.737 519.762 461.454 508.831 468.124 496.057C474.794 483.284 478.212 469.062 478.073 454.653C477.934 440.244 474.244 426.091 467.329 413.448C460.414 400.806 450.488 390.064 438.43 382.174C426.372 374.283 412.554 369.489 398.2 368.215C383.846 366.94 369.4 369.226 356.141 374.868C342.881 380.51 331.218 389.336 322.184 400.563C313.15 411.789 307.024 425.071 304.349 439.23L337.333 445.462C338.983 436.726 342.763 428.533 348.336 421.607C353.909 414.681 361.104 409.236 369.284 405.755C377.464 402.274 386.377 400.864 395.232 401.651C404.087 402.437 412.611 405.395 420.05 410.262C427.489 415.13 433.613 421.757 437.879 429.556C442.145 437.356 444.421 446.087 444.507 454.976C444.592 463.866 442.484 472.639 438.369 480.519C434.254 488.399 428.26 495.143 420.916 500.153L439.833 527.883Z" fill="#345D9D"/>
<circle cx="1024" cy="1032" r="728" fill="#244D8D"/>
<circle cx="1024" cy="1032" r="629" fill="#D9D9D9" stroke="#5C83BF" stroke-width="10"/>
<path d="M1024 1588.46C1331.32 1588.46 1580.46 1339.33 1580.46 1032C1580.46 724.674 1331.32 475.537 1024 475.537C716.672 475.537 467.535 724.674 467.535 1032C467.535 1339.33 716.672 1588.46 1024 1588.46Z" fill="white"/>
<path d="M1024 408C900.585 408 779.941 444.597 677.324 513.163C574.708 581.729 494.729 679.184 447.499 793.206C400.27 907.227 387.913 1032.69 411.99 1153.74C436.067 1274.78 495.498 1385.97 582.766 1473.23C670.034 1560.5 781.22 1619.93 902.264 1644.01C1023.31 1668.09 1148.77 1655.73 1262.79 1608.5C1376.82 1561.27 1474.27 1481.29 1542.84 1378.68C1611.4 1276.06 1648 1155.42 1648 1032C1648.24 950.293 1632.38 869.339 1601.33 793.761C1570.29 718.182 1524.66 649.459 1467.05 591.516C1409.44 533.572 1340.99 487.542 1265.59 456.054C1190.19 424.567 1109.33 408.238 1027.63 408H1024ZM1034.58 1053.15L969.608 1272.23H1317.11C1319.42 1272.15 1321.71 1272.53 1323.87 1273.33C1326.03 1274.14 1328 1275.36 1329.69 1276.94C1331.37 1278.51 1332.73 1280.4 1333.68 1282.49C1334.64 1284.59 1335.17 1286.85 1335.24 1289.15V1294.9L1305.03 1399.15C1303.69 1404.08 1300.73 1408.41 1296.61 1411.43C1292.49 1414.45 1287.47 1415.98 1282.36 1415.77H750.528L839.671 1112.08L739.952 1142.3L762.615 1072.79L862.334 1042.58L987.739 616.504C989.119 611.601 992.101 607.302 996.208 604.29C1000.31 601.278 1005.31 599.727 1010.4 599.884H1144.87C1147.17 599.803 1149.47 600.177 1151.63 600.984C1153.78 601.791 1155.76 603.015 1157.45 604.587C1159.13 606.158 1160.49 608.046 1161.44 610.143C1162.39 612.24 1162.92 614.504 1163 616.806V622.547L1057.24 982.14L1156.96 951.923L1135.81 1024.45L1034.58 1053.15Z" fill="#345D9D"/>
<g style="mix-blend-mode:multiply" opacity="0.2">
<path d="M1752 1032C1752 1434.06 1426.06 1760 1024 1760C621.937 1760 296 1434.06 296 1032C296 1032 654.937 1460 1057 1460C1459.06 1460 1752 1032 1752 1032Z" fill="#244D8D"/>
</g>
<path d="M331 1580.5C323.8 1575.7 331 1525.5 335.5 1501C338.667 1489.67 344.9 1466.7 344.5 1465.5C344.1 1464.3 375.667 1471 391.5 1474.5L374 1545L346.5 1590C344.333 1588.83 338.2 1585.3 331 1580.5Z" fill="#454545" stroke="white" stroke-width="30" stroke-linecap="round"/>
<path fill-rule="evenodd" clip-rule="evenodd" d="M362.108 1467.26C371.938 1469.22 383.796 1471.77 391.716 1473.52L392.718 1473.74L374.933 1545.39L346.86 1591.33L346.026 1590.88C343.83 1589.7 337.67 1586.15 330.445 1581.33C329.216 1580.51 328.466 1578.88 327.973 1576.96C327.465 1574.98 327.169 1572.46 327.034 1569.54C326.763 1563.71 327.134 1556.17 327.866 1548.05C329.333 1531.79 332.263 1513.09 334.516 1500.82L334.524 1500.77L334.537 1500.73C336.119 1495.07 338.468 1486.5 340.37 1479.2C341.321 1475.55 342.159 1472.22 342.733 1469.73C343.021 1468.49 343.24 1467.47 343.374 1466.73C343.441 1466.35 343.484 1466.07 343.505 1465.87C343.514 1465.78 343.517 1465.73 343.518 1465.69C343.47 1465.45 343.497 1465.18 343.652 1464.93C343.807 1464.67 344.022 1464.55 344.135 1464.5C344.356 1464.4 344.586 1464.38 344.713 1464.37C345.012 1464.35 345.407 1464.36 345.843 1464.4C346.737 1464.48 348.03 1464.66 349.609 1464.92C352.778 1465.44 357.195 1466.27 362.108 1467.26ZM343.518 1465.65C343.518 1465.65 343.518 1465.66 343.518 1465.67C343.518 1465.66 343.518 1465.65 343.518 1465.65ZM345.457 1466.38C345.522 1466.38 345.592 1466.39 345.668 1466.39C346.485 1466.47 347.717 1466.64 349.287 1466.89C352.42 1467.41 356.809 1468.24 361.717 1469.22C371.122 1471.1 382.394 1473.52 390.282 1475.26L373.066 1544.61L346.144 1588.66C343.502 1587.19 337.953 1583.93 331.554 1579.67C330.984 1579.29 330.384 1578.3 329.91 1576.46C329.451 1574.68 329.164 1572.3 329.032 1569.45C328.767 1563.76 329.128 1556.32 329.858 1548.23C331.315 1532.08 334.23 1513.46 336.475 1501.23C338.059 1495.55 340.404 1487 342.305 1479.7C343.258 1476.05 344.101 1472.7 344.682 1470.18C344.972 1468.93 345.199 1467.87 345.342 1467.08C345.389 1466.82 345.428 1466.59 345.457 1466.38Z" fill="black"/>
<path d="M344.826 1466.37C344.826 1466.37 344.829 1466.37 344.837 1466.36M391.716 1473.52C383.796 1471.77 371.938 1469.22 362.108 1467.26C357.195 1466.27 352.778 1465.44 349.609 1464.92C348.03 1464.66 346.737 1464.48 345.843 1464.4C345.407 1464.36 345.012 1464.35 344.713 1464.37C344.586 1464.38 344.356 1464.4 344.135 1464.5C344.022 1464.55 343.807 1464.67 343.652 1464.93C343.497 1465.18 343.47 1465.45 343.518 1465.69C343.517 1465.73 343.514 1465.78 343.505 1465.87C343.484 1466.07 343.441 1466.35 343.374 1466.73C343.24 1467.47 343.021 1468.49 342.733 1469.73C342.159 1472.22 341.321 1475.55 340.37 1479.2C338.468 1486.5 336.119 1495.07 334.537 1500.73L334.524 1500.77L334.516 1500.82C332.263 1513.09 329.333 1531.79 327.866 1548.05C327.134 1556.17 326.763 1563.71 327.034 1569.54C327.169 1572.46 327.465 1574.98 327.973 1576.96C328.466 1578.88 329.216 1580.51 330.445 1581.33C337.67 1586.15 343.83 1589.7 346.026 1590.88L346.86 1591.33L374.933 1545.39L392.718 1473.74L391.716 1473.52ZM343.518 1465.65C343.518 1465.65 343.518 1465.66 343.518 1465.67C343.518 1465.66 343.518 1465.65 343.518 1465.65ZM345.457 1466.38C345.522 1466.38 345.592 1466.39 345.668 1466.39C346.485 1466.47 347.717 1466.64 349.287 1466.89C352.42 1467.41 356.809 1468.24 361.717 1469.22C371.122 1471.1 382.394 1473.52 390.282 1475.26L373.066 1544.61L346.144 1588.66C343.502 1587.19 337.953 1583.93 331.554 1579.67C330.984 1579.29 330.384 1578.3 329.91 1576.46C329.451 1574.68 329.164 1572.3 329.032 1569.45C328.767 1563.76 329.128 1556.32 329.858 1548.23C331.315 1532.08 334.23 1513.46 336.475 1501.23C338.059 1495.55 340.404 1487 342.305 1479.7C343.258 1476.05 344.101 1472.7 344.682 1470.18C344.972 1468.93 345.199 1467.87 345.342 1467.08C345.389 1466.82 345.428 1466.59 345.457 1466.38Z" stroke="white" stroke-width="30" stroke-linecap="round"/>
<path d="M271.5 1690C273.5 1684.8 334.333 1661.17 364.5 1650L429 1648.5L425 1707.5H268C268.333 1703.83 269.5 1695.2 271.5 1690Z" fill="#454545" stroke="white" stroke-width="30" stroke-linecap="round"/>
<path fill-rule="evenodd" clip-rule="evenodd" d="M430.073 1647.47L425.936 1708.5H266.906L267.005 1707.41C267.34 1703.73 268.514 1694.98 270.568 1689.64C270.795 1689.05 271.337 1688.51 271.91 1688.04C272.524 1687.54 273.339 1686.99 274.314 1686.39C276.269 1685.2 278.961 1683.79 282.199 1682.23C288.681 1679.09 297.436 1675.29 307.057 1671.31C326.301 1663.35 349.064 1654.65 364.154 1649.06L364.311 1649L430.073 1647.47ZM364.692 1651C349.615 1656.58 326.968 1665.24 307.821 1673.16C298.212 1677.14 289.499 1680.92 283.069 1684.03C279.852 1685.58 277.227 1686.96 275.355 1688.1C274.416 1688.67 273.69 1689.17 273.178 1689.59C272.922 1689.8 272.736 1689.98 272.608 1690.12C272.544 1690.19 272.501 1690.25 272.472 1690.29C272.442 1690.34 272.434 1690.36 272.435 1690.36C270.662 1694.97 269.543 1702.44 269.106 1706.5H424.067L427.929 1649.53L364.692 1651Z" fill="black" stroke="white" stroke-width="30" stroke-linecap="round"/>
<path d="M330.5 1510L199.5 1295.5L308 1260L379 1479L330.5 1510Z" fill="#1B2645" stroke="white" stroke-width="30"/>
<g opacity="0.5">
<path fill-rule="evenodd" clip-rule="evenodd" d="M323.746 1307.83C324.114 1308.25 324.078 1308.88 323.666 1309.25C322.715 1310.1 321.734 1311.17 320.534 1312.49C320.322 1312.72 320.104 1312.96 319.878 1313.21C318.386 1314.84 316.601 1316.74 314.296 1318.83C309.679 1323.01 303.013 1327.9 292.427 1332.9C268.37 1344.28 250.198 1343.89 235.84 1343.59C233.639 1343.54 231.529 1343.5 229.5 1343.5C228.948 1343.5 228.5 1343.05 228.5 1342.5C228.5 1341.95 228.948 1341.5 229.5 1341.5C231.559 1341.5 233.691 1341.54 235.903 1341.59C250.234 1341.89 267.961 1342.26 291.573 1331.1C301.986 1326.17 308.486 1321.39 312.953 1317.35C315.19 1315.32 316.926 1313.47 318.402 1311.86C318.62 1311.62 318.833 1311.39 319.041 1311.16C320.236 1309.85 321.299 1308.68 322.334 1307.75C322.746 1307.39 323.378 1307.42 323.746 1307.83Z" fill="#4D8CEF" stroke="white" stroke-width="30" stroke-linecap="round"/>
<path fill-rule="evenodd" clip-rule="evenodd" d="M338.157 1354.75C338.573 1355.11 338.617 1355.74 338.254 1356.16C337.56 1356.95 336.713 1357.98 335.724 1359.19C330.418 1365.63 321.041 1377.03 309.51 1383.86C302.745 1387.87 293.188 1390.56 283.964 1392.17C274.728 1393.79 265.704 1394.34 259.941 1394C259.39 1393.97 258.969 1393.49 259.002 1392.94C259.034 1392.39 259.507 1391.97 260.059 1392C265.63 1392.33 274.495 1391.8 283.62 1390.2C292.758 1388.61 302.035 1385.97 308.49 1382.14C319.678 1375.51 328.772 1364.47 334.113 1357.99C335.131 1356.76 336.012 1355.69 336.746 1354.84C337.109 1354.43 337.74 1354.38 338.157 1354.75Z" fill="#4D8CEF" stroke="white" stroke-width="30" stroke-linecap="round"/>
<path fill-rule="evenodd" clip-rule="evenodd" d="M353.537 1401.66C354.003 1401.95 354.14 1402.57 353.844 1403.04C352.79 1404.69 351.872 1406.51 350.879 1408.46C347.607 1414.92 343.526 1422.98 331.1 1432.3C319.212 1441.22 306.23 1441.29 296.109 1441.35C293.755 1441.36 291.556 1441.38 289.561 1441.5C289.01 1441.53 288.536 1441.11 288.502 1440.56C288.468 1440.01 288.887 1439.54 289.439 1439.5C291.591 1439.37 293.904 1439.35 296.336 1439.34C306.438 1439.26 318.597 1439.18 329.9 1430.7C341.916 1421.69 345.748 1414.13 349.006 1407.71C350.034 1405.69 351.004 1403.77 352.156 1401.96C352.453 1401.5 353.071 1401.36 353.537 1401.66Z" fill="#4D8CEF" stroke="white" stroke-width="30" stroke-linecap="round"/>
<path fill-rule="evenodd" clip-rule="evenodd" d="M234.022 1297.62C234.507 1297.36 235.114 1297.54 235.378 1298.02L345.378 1500.02C345.643 1500.51 345.463 1501.11 344.978 1501.38C344.493 1501.64 343.886 1501.46 343.622 1500.98L233.622 1298.98C233.358 1298.49 233.537 1297.89 234.022 1297.62Z" fill="#4D8CEF" stroke="white" stroke-width="30" stroke-linecap="round"/>
<path fill-rule="evenodd" clip-rule="evenodd" d="M284.644 1283.57C285.16 1283.37 285.738 1283.63 285.935 1284.14L363.935 1488.64C364.131 1489.16 363.873 1489.74 363.357 1489.93C362.841 1490.13 362.263 1489.87 362.066 1489.36L284.066 1284.86C283.869 1284.34 284.128 1283.76 284.644 1283.57Z" fill="#4D8CEF" stroke="white" stroke-width="30" stroke-linecap="round"/>
</g>
<path d="M193.499 1254.5C203.999 1227.5 279.499 1169.5 281.499 1168L367.997 1257.5C316.998 1274.67 235.999 1301 210.5 1302.5C201 1303.06 182.993 1281.52 193.499 1254.5Z" fill="#283963" stroke="white" stroke-width="30"/>
<path fill-rule="evenodd" clip-rule="evenodd" d="M339.862 1233.99C340.142 1234.47 339.983 1235.08 339.507 1235.36C335.282 1237.85 330.257 1240.86 324.788 1244.14C316.936 1248.85 308.168 1254.11 299.54 1259.15C284.896 1267.7 270.502 1275.69 261.379 1279.43C250.316 1283.95 235.638 1288.22 223.573 1291.47C218.755 1292.76 214.344 1293.9 210.74 1294.83C209.828 1295.07 208.967 1295.29 208.165 1295.5C206.176 1296.02 204.55 1296.44 203.376 1296.77C202.789 1296.94 202.325 1297.07 201.989 1297.18C201.821 1297.24 201.696 1297.28 201.608 1297.32C201.558 1297.34 201.533 1297.35 201.524 1297.35C201.068 1297.63 200.468 1297.5 200.168 1297.05C199.862 1296.6 199.986 1295.97 200.445 1295.67C200.588 1295.57 200.756 1295.5 200.876 1295.46C201.015 1295.4 201.183 1295.34 201.37 1295.28C201.745 1295.16 202.24 1295.01 202.837 1294.85C204.032 1294.51 205.676 1294.08 207.663 1293.56C208.468 1293.35 209.331 1293.13 210.245 1292.9C213.848 1291.97 218.246 1290.83 223.052 1289.53C235.113 1286.29 249.685 1282.05 260.621 1277.57C269.593 1273.9 283.866 1265.98 298.532 1257.42C307.17 1252.38 315.892 1247.15 323.723 1242.45C329.192 1239.17 334.227 1236.15 338.493 1233.64C338.969 1233.36 339.582 1233.52 339.862 1233.99Z" fill="#4D8CEF" stroke="white" stroke-width="30" stroke-linecap="round"/>
<path fill-rule="evenodd" clip-rule="evenodd" d="M245.783 1197.52C246.322 1197.4 246.857 1197.74 246.976 1198.28C248.457 1204.95 251.838 1214.65 255.964 1223.93C260.098 1233.24 264.921 1241.99 269.246 1246.83C281.596 1260.67 299.428 1269.6 309.894 1274.08C310.402 1274.3 310.637 1274.89 310.419 1275.39C310.202 1275.9 309.614 1276.14 309.106 1275.92C298.573 1271.4 280.405 1262.33 267.754 1248.17C263.211 1243.08 258.285 1234.08 254.136 1224.74C249.978 1215.39 246.543 1205.55 245.024 1198.72C244.904 1198.18 245.244 1197.64 245.783 1197.52Z" fill="#4D8CEF" stroke="white" stroke-width="30" stroke-linecap="round"/>
<path fill-rule="evenodd" clip-rule="evenodd" d="M297.323 1193.93C297.637 1194.39 297.523 1195.01 297.069 1195.32C290.016 1200.2 283.975 1203.99 278.063 1207.7C265.293 1215.72 253.124 1223.36 232.648 1240.76C202.757 1266.17 197.906 1280 195.97 1287.74C195.836 1288.28 195.293 1288.6 194.758 1288.47C194.222 1288.34 193.896 1287.79 194.03 1287.26C196.095 1279 201.243 1264.83 231.353 1239.24C251.938 1221.74 264.282 1213.99 277.106 1205.94C282.998 1202.24 288.991 1198.48 295.931 1193.68C296.386 1193.36 297.008 1193.48 297.323 1193.93Z" fill="#4D8CEF" stroke="white" stroke-width="30"/>
<path d="M352 1645L383.5 1260.5C389.667 1256.83 407.2 1248.4 428 1244C448.8 1239.6 493.667 1258.5 513.5 1268.5L434 1653.5C427.667 1657.17 410 1664.1 390 1662.5C370 1660.9 356.333 1650.17 352 1645Z" fill="#283963" stroke="white" stroke-width="30"/>
<path fill-rule="evenodd" clip-rule="evenodd" d="M482.248 1315.76C471.275 1319.34 457.164 1323.25 440.516 1323.5C427.241 1323.7 414.501 1320.67 403.811 1317.48C400.427 1316.47 397.223 1315.44 394.278 1314.49C392.586 1313.95 390.979 1313.43 389.474 1312.96C385.302 1311.66 381.913 1310.73 379.406 1310.5L379.596 1308.5C382.339 1308.77 385.919 1309.76 390.069 1311.05C391.61 1311.53 393.232 1312.06 394.931 1312.6C397.857 1313.55 401.012 1314.56 404.382 1315.57C415.006 1318.73 427.516 1321.7 440.486 1321.5C456.838 1321.25 470.727 1317.41 481.629 1313.86C483.713 1313.18 485.702 1312.51 487.58 1311.87C490.584 1310.86 493.308 1309.94 495.697 1309.24C497.649 1308.66 499.425 1308.23 500.998 1308C502.565 1307.77 503.995 1307.74 505.23 1308.03L504.772 1309.97C503.883 1309.76 502.734 1309.76 501.287 1309.97C499.847 1310.18 498.173 1310.59 496.259 1311.15C493.902 1311.85 491.252 1312.74 488.286 1313.75C486.403 1314.38 484.392 1315.07 482.248 1315.76Z" fill="#4D8CEF" stroke="white" stroke-width="30"/>
<path fill-rule="evenodd" clip-rule="evenodd" d="M382.089 1394.15C378.266 1392.86 375.173 1391.94 372.895 1391.69L373.106 1389.7C375.638 1389.97 378.931 1390.97 382.732 1392.26C384.212 1392.76 385.769 1393.31 387.402 1393.88C390.022 1394.8 392.838 1395.79 395.848 1396.78C405.581 1399.96 417.03 1402.99 428.897 1402.99C448.324 1402.99 460.919 1399.75 469.618 1396.78C471.799 1396.04 473.738 1395.31 475.491 1394.64L475.816 1394.52C477.434 1393.91 478.904 1393.35 480.24 1392.91C483.062 1391.97 485.501 1391.44 487.754 1392.03L487.246 1393.97C485.605 1393.54 483.66 1393.87 480.873 1394.8C479.576 1395.24 478.142 1395.78 476.51 1396.4L476.199 1396.51C474.445 1397.18 472.479 1397.92 470.265 1398.67C461.385 1401.71 448.572 1404.99 428.897 1404.99C416.711 1404.99 405.022 1401.88 395.226 1398.68C392.207 1397.69 389.337 1396.68 386.695 1395.75C385.067 1395.18 383.526 1394.64 382.089 1394.15Z" fill="#4D8CEF" stroke="white" stroke-width="30"/>
<path fill-rule="evenodd" clip-rule="evenodd" d="M375.089 1475.46C371.266 1474.16 368.173 1473.24 365.895 1472.99L366.106 1471.01C368.638 1471.27 371.931 1472.27 375.732 1473.56C377.212 1474.06 378.769 1474.61 380.402 1475.18C383.022 1476.1 385.838 1477.09 388.848 1478.08C398.581 1481.26 410.03 1484.29 421.897 1484.29C441.409 1484.29 451.511 1483.22 457.531 1482.34C458.845 1482.15 459.994 1481.96 461.012 1481.8C462.285 1481.59 463.353 1481.42 464.283 1481.31C466.032 1481.11 467.463 1481.12 469.225 1481.53L468.775 1483.47C467.287 1483.13 466.093 1483.12 464.511 1483.3C463.606 1483.4 462.623 1483.56 461.41 1483.76C460.402 1483.93 459.234 1484.12 457.819 1484.32C451.688 1485.22 441.488 1486.29 421.897 1486.29C409.711 1486.29 398.022 1483.19 388.226 1479.98C385.207 1478.99 382.337 1477.98 379.695 1477.06C378.067 1476.48 376.526 1475.94 375.089 1475.46Z" fill="#4D8CEF" stroke="white" stroke-width="30"/>
<path fill-rule="evenodd" clip-rule="evenodd" d="M360.599 1547.58C361.105 1547.36 361.695 1547.59 361.916 1548.1C363.553 1551.84 368.479 1557.31 376.066 1561.93C383.616 1566.53 393.697 1570.22 405.524 1570.5C426.473 1571 437.544 1568.75 443.59 1566.03C446.595 1564.67 448.347 1563.21 449.462 1561.92C450.346 1560.89 450.836 1559.98 451.269 1559.17C451.392 1558.94 451.511 1558.72 451.632 1558.5C451.906 1558.02 452.517 1557.86 452.996 1558.13C453.476 1558.41 453.643 1559.02 453.368 1559.5C453.28 1559.65 453.183 1559.83 453.076 1560.03C452.64 1560.85 452.022 1562.01 450.976 1563.22C449.654 1564.76 447.656 1566.39 444.411 1567.85C437.956 1570.75 426.527 1573 405.476 1572.5C393.258 1572.21 382.839 1568.4 375.025 1563.64C367.249 1558.9 361.947 1553.16 360.084 1548.9C359.863 1548.4 360.093 1547.81 360.599 1547.58Z" fill="#4D8CEF" stroke="white" stroke-width="30" stroke-linecap="round"/>
<path fill-rule="evenodd" clip-rule="evenodd" d="M370.008 1657.89L413.008 1275.39L414.995 1275.61L371.995 1658.11L370.008 1657.89Z" fill="#4D8CEF" stroke="white" stroke-width="30"/>
<path fill-rule="evenodd" clip-rule="evenodd" d="M402.012 1661.84L465.012 1265.34L466.987 1265.66L403.987 1662.16L402.012 1661.84Z" fill="#4D8CEF" stroke="white" stroke-width="30"/>
<path d="M489.5 1284C481.1 1280.8 471.667 1267.67 468 1261.5L512.5 1218.5L563.5 1240.5C551.5 1255 526.9 1284.6 524.5 1287C521.5 1290 516 1291.5 504.5 1291C493 1290.5 500 1288 489.5 1284Z" fill="#AEAEAE" stroke="white" stroke-width="30"/>
<path d="M572.998 605.5C576.998 634.5 571.998 651.5 568.998 652.5L549 668.5C538.333 658.333 510 636.2 482 629C454 621.8 397.332 682 372.498 708.5L350 674C346.166 679.166 336.7 693.7 317.5 690.5C298.3 687.3 308.5 664.166 317.5 655.5C315.499 657 307.899 659.7 293.499 658.5C275.499 657 272.039 632.96 283.497 617C297.494 597.5 316.165 590.166 331.999 583.5C324.499 584 295.338 588.774 305 561.5C313.501 537.5 360.498 534.666 392.498 531.5L392.389 531.459C386.94 529.416 370.402 523.216 372.498 513C376.5 493.5 391.867 486.5 430.998 486.5C473 486.5 511.498 507 528.998 517.5C546.498 528 568.998 576.5 572.998 605.5Z" fill="black" stroke="white" stroke-width="30"/>
<path d="M475.5 804L456.5 813.5L467 876L567.5 792L544.5 775.5L545.5 743C537.5 751 524.5 769.5 506 779.5C490.987 787.615 480.5 792 475.5 792V804Z" fill="#888888" stroke="white" stroke-width="30"/>
<path d="M398 781.5C393.2 780.7 365 692.5 351.5 648.5C355.333 646.5 368.898 633.656 403 618.5C452.5 596.5 485.19 599.952 501.5 602.5C517.5 605 538.667 638.667 549 657C549 654.167 548.021 645.309 553 636.5C559.5 625 575 630.5 576.5 642.5C578.546 658.865 580.5 675 573.5 689C567.9 700.2 557.5 693.666 553 689C552 698.5 553 698 549 716C541.831 748.262 517 770 475 786C439.582 799.492 404 782.5 398 781.5Z" fill="#AEAEAE" stroke="white" stroke-width="30"/>
<path d="M477.499 654C449.999 658.49 443 679 445.998 691.5C448.998 692.833 462.235 695.917 481.499 690.5C497.5 686 506.5 674.5 511.499 665.5C510.166 662.5 501.999 649.999 477.499 654Z" fill="white" stroke="white" stroke-width="30"/>
<path fill-rule="evenodd" clip-rule="evenodd" d="M502.692 657.994C497.648 655.123 489.719 653.018 477.66 654.987C464.152 657.192 455.786 663.306 451.145 670.299C446.614 677.126 445.591 684.849 446.858 690.769C450.385 692.08 463.04 694.652 481.228 689.537C496.604 685.213 505.391 674.275 510.372 665.466C509.544 663.882 507.275 660.602 502.692 657.994ZM503.681 656.255C509.159 659.373 511.67 663.423 512.413 665.093L512.615 665.549L512.373 665.985C507.309 675.103 498.132 686.861 481.77 691.462C462.323 696.931 448.841 693.858 445.592 692.414L445.141 692.213L445.026 691.733C443.462 685.213 444.512 676.676 449.478 669.193C454.463 661.683 463.346 655.297 477.338 653.013C489.779 650.981 498.183 653.126 503.681 656.255Z" fill="black" stroke="white" stroke-width="30"/>
<path d="M454.5 732C442.5 725.2 420.167 734.833 410.5 740.5C415.5 742 411 744 429 746C431.894 746.322 445.167 743.667 451.5 742C457.5 741.5 466.5 738.8 454.5 732Z" fill="#888888" stroke="white" stroke-width="30" stroke-linecap="round"/>
<path fill-rule="evenodd" clip-rule="evenodd" d="M418.017 703.145C418.489 703.431 418.64 704.046 418.354 704.518C415.119 709.856 412.644 718.567 411.422 726.259C410.813 730.094 410.524 733.62 410.597 736.291C410.634 737.631 410.761 738.713 410.965 739.496C411.185 740.343 411.433 740.596 411.504 740.638C419.632 745.418 433.277 747.021 459.692 738.548C460.218 738.379 460.781 738.669 460.95 739.195C461.119 739.721 460.829 740.284 460.303 740.452C433.717 748.98 419.368 747.583 410.49 742.362C409.685 741.889 409.271 740.928 409.029 740.001C408.772 739.01 408.637 737.759 408.598 736.346C408.52 733.511 408.826 729.854 409.446 725.946C410.684 718.154 413.211 709.145 416.643 703.482C416.93 703.01 417.545 702.859 418.017 703.145Z" fill="black" stroke="white" stroke-width="30" stroke-linecap="round"/>
<path fill-rule="evenodd" clip-rule="evenodd" d="M401.585 676.222C398.42 674.779 393.94 673.765 388.124 674.492C381.96 675.263 378.195 677.468 375.972 679.896C373.739 682.336 373 685.069 373 687C373 687.552 372.552 688 372 688C371.448 688 371 687.552 371 687C371 684.598 371.907 681.375 374.497 678.546C377.098 675.704 381.332 673.326 387.876 672.508C394.06 671.735 398.913 672.805 402.415 674.403C405.88 675.984 408.069 678.106 408.868 679.504C409.142 679.983 408.976 680.594 408.496 680.868C408.017 681.142 407.406 680.976 407.132 680.496C406.597 679.561 404.787 677.683 401.585 676.222Z" fill="black" stroke="white" stroke-width="30" stroke-linecap="round"/>
<path fill-rule="evenodd" clip-rule="evenodd" d="M510.342 639.752C505.222 635.272 489.251 626.937 467.159 630.487C445.322 633.997 437.956 651.092 436.993 659.119C436.927 659.667 436.429 660.059 435.881 659.993C435.333 659.927 434.941 659.429 435.007 658.881C436.044 650.241 443.878 632.203 466.841 628.513C489.549 624.863 506.112 633.394 511.659 638.247C512.074 638.611 512.116 639.243 511.753 639.658C511.389 640.074 510.757 640.116 510.342 639.752Z" fill="black" stroke="white" stroke-width="30" stroke-linecap="round"/>
<path d="M457.999 678C454.499 687 461.832 691.5 466.999 693C473.666 691.5 488.001 689.4 490.001 687C492.501 684 496.265 670.904 483.501 667.5C476.001 665.5 462.475 666.491 457.999 678Z" fill="black" stroke="white" stroke-width="30"/>
<path fill-rule="evenodd" clip-rule="evenodd" d="M469.898 668.643C465.245 670.013 461.032 672.96 458.931 678.362C457.311 682.527 458.211 685.516 460.015 687.67C461.82 689.825 464.608 691.226 467.035 691.967C468.655 691.609 470.679 691.22 472.833 690.805L472.935 690.785C475.25 690.34 477.718 689.864 480.038 689.36C482.362 688.856 484.512 688.33 486.193 687.787C487.035 687.516 487.736 687.248 488.274 686.986C488.836 686.713 489.122 686.493 489.232 686.36C489.74 685.751 490.393 684.509 490.876 682.882C491.353 681.273 491.637 679.375 491.478 677.485C491.32 675.601 490.726 673.753 489.472 672.186C488.222 670.624 486.261 669.271 483.243 668.466C479.648 667.508 474.579 667.265 469.898 668.643ZM469.333 666.725C474.409 665.23 479.854 665.493 483.758 666.534C487.122 667.431 489.477 668.991 491.033 670.936C492.586 672.876 493.287 675.127 493.471 677.318C493.655 679.503 493.326 681.654 492.793 683.451C492.266 685.229 491.511 686.749 490.769 687.64C490.379 688.108 489.779 688.478 489.149 688.785C488.494 689.103 487.695 689.405 486.807 689.691C485.031 690.264 482.805 690.807 480.462 691.315C478.115 691.824 475.624 692.304 473.313 692.749L473.236 692.764C470.948 693.205 468.848 693.609 467.218 693.976L466.967 694.032L466.72 693.96C464.035 693.181 460.7 691.603 458.482 688.955C456.203 686.234 455.186 682.473 457.067 677.638C459.442 671.531 464.229 668.227 469.333 666.725Z" fill="black" stroke="white" stroke-width="30"/>
<path d="M394 694.5C384.4 696.1 381 704 380 708C380.833 710.167 384.3 715.2 395.5 716C406.7 716.8 412.833 707 414.5 702C411.667 698.834 403.6 692.9 394 694.5Z" fill="white" stroke="white" stroke-width="30"/>
<path fill-rule="evenodd" clip-rule="evenodd" d="M413.354 702.239C410.332 699.131 402.874 694.035 394.164 695.487C385.398 696.948 382.111 703.993 381.053 707.925C381.935 709.866 385.242 714.265 395.571 715.003C400.832 715.379 404.902 713.276 407.887 710.449C410.666 707.818 412.474 704.584 413.354 702.239ZM393.836 693.514C403.912 691.835 412.296 698.037 415.245 701.334L415.632 701.766L415.449 702.317C414.571 704.948 412.541 708.797 409.262 711.901C405.964 715.025 401.367 717.422 395.429 716.998C383.899 716.174 380.059 710.939 379.067 708.359L378.953 708.064L379.03 707.758C380.065 703.615 383.644 695.213 393.836 693.514Z" fill="black" stroke="white" stroke-width="30"/>
<path d="M396.999 700.5C382.497 703.5 389.998 714.501 389.998 715.501C393.498 715.667 396.75 716.966 401 715.501C404.434 714.317 406.333 712.834 408.5 711C409.667 706.5 409.066 698.004 396.999 700.5Z" fill="black" stroke="white" stroke-width="30"/>
<path d="M442.501 755C434.501 763 445.167 762.667 451.501 761.5C450.167 763.167 445 771.5 464 767C480.063 763.196 485.815 757.366 494 750C499 745.5 502.333 736.667 504 731C487.334 735.833 450.501 747 442.501 755Z" fill="white" stroke="white" stroke-width="30"/>
<path fill-rule="evenodd" clip-rule="evenodd" d="M510.148 709.011C510.695 709.093 511.071 709.602 510.989 710.148C510.932 710.526 510.886 711.043 510.828 711.68C510.397 716.471 509.35 728.102 498.722 739.192C492.847 745.323 484.009 750.678 475.161 754.662C466.311 758.647 457.331 761.312 451.109 761.994C450.56 762.054 450.066 761.658 450.006 761.109C449.946 760.56 450.342 760.066 450.891 760.006C456.836 759.355 465.606 756.77 474.34 752.838C483.074 748.906 491.653 743.678 497.278 737.808C507.385 727.262 508.39 716.336 508.835 711.496C508.897 710.825 508.948 710.272 509.011 709.852C509.093 709.306 509.602 708.929 510.148 709.011Z" fill="black" stroke="white" stroke-width="30" stroke-linecap="round"/>
<path d="M368 856C369.2 850 386 875.5 388 875L396 875L329.5 1058C315.833 1066.5 287.1 1083.9 281.5 1085.5C275.9 1087.1 271.5 1084.83 270 1083.5L341.5 940C350.5 915.833 366.8 862 368 856Z" fill="#294B7E" stroke="white" stroke-width="30"/>
<path fill-rule="evenodd" clip-rule="evenodd" d="M397.126 874.825L330.32 1058.67L330.026 1058.85C323.188 1063.1 312.58 1069.58 302.978 1075.2C298.178 1078.01 293.623 1080.61 289.913 1082.6C286.246 1084.58 283.298 1086.03 281.773 1086.46C275.79 1088.17 271.045 1085.77 269.334 1084.25L268.762 1083.74L340.579 939.602C345.079 927.519 351.892 909.051 357.732 892.849C360.657 884.736 391.244 885.474 393.267 879.588C395.303 873.661 403.717 894.944 404 893.527C405.287 887.093 407.87 892.586 397.126 871.308V874.825ZM391.664 884C389.778 884.736 379.891 917.804 374 880C378.021 905.804 389.514 873.727 387.5 879.588C385.473 885.488 362.539 885.411 359.614 893.527C353.762 909.76 346.936 928.264 342.435 940.349L342.417 940.399L271.259 1083.21C272.965 1084.37 276.647 1085.85 281.223 1084.54C282.498 1084.17 285.242 1082.85 288.965 1080.84C292.644 1078.86 297.176 1076.28 301.968 1073.47C311.413 1067.95 321.841 1061.58 328.676 1057.33L394.87 875.175L391.664 884Z" fill="black" stroke="white" stroke-width="30"/>
<path d="M308.498 1095.5L385.998 897.5L376.5 851.5L445 819.5L461 869L575.5 807.5L614 851.5L513 1219.5L492.5 1247C482.5 1260.67 444.8 1284.7 374 1271.5C285.5 1255 267.998 1182 260.998 1170.5C253.998 1159 258.001 1153 260.998 1148C263.475 1143.87 292.832 1111 308.498 1095.5Z" fill="#345D9D" stroke="white" stroke-width="30"/>
<path d="M308.498 1095.5C308.498 1095.5 326.597 1137.98 351 1148C388 1163.19 430.088 1145.33 453 1127C520.5 1073 537 988 537 988L650.5 800.5L513 1219.5L492.5 1247C482.5 1260.67 444.8 1284.7 374 1271.5C285.5 1255 267.998 1182 260.998 1170.5C253.998 1159 258.001 1153 260.998 1148C263.475 1143.87 292.832 1111 308.498 1095.5Z" fill="#294B7E" stroke="white" stroke-width="30"/>
<path fill-rule="evenodd" clip-rule="evenodd" d="M578 817.5L628 823.922L513.899 1219.97L493.306 1247.59L493.305 1247.59C483.009 1261.66 444.866 1285.73 373.816 1272.48C329.284 1264.18 302.576 1241.64 286.136 1219.73C277.923 1208.77 272.279 1197.99 268.254 1189.23C266.48 1185.37 265.019 1181.9 263.794 1179C263.629 1178.61 263.469 1178.22 263.312 1177.85C261.979 1174.7 260.972 1172.38 260.144 1171.02C256.56 1165.13 255.597 1160.41 256.068 1156.51C256.538 1152.61 258.418 1149.69 260.208 1147.39C263.183 1143.56 291.915 1110.53 307.644 1094.94L385.067 897.136L386.929 897.865L309.352 1096.06L309.201 1096.21C293.563 1111.68 264.715 1144.85 261.787 1148.61C260.08 1150.81 258.46 1153.39 258.054 1156.75C257.65 1160.09 258.435 1164.37 261.852 1169.98C262.774 1171.5 263.845 1173.97 265.155 1177.08C265.311 1177.45 265.472 1177.83 265.637 1178.22C266.862 1181.13 268.311 1184.57 270.071 1188.4C274.061 1197.07 279.636 1207.73 287.736 1218.53C303.922 1240.11 330.215 1262.32 374.183 1270.52C444.729 1283.67 481.986 1259.68 491.692 1246.41L491.698 1246.4L512.1 1219.03L624 821.151L578 815L453.947 873.58L436 858L406 873.58V870.494L431 858L455.052 870.494L578 817.5Z" fill="black" stroke="white" stroke-width="30"/>
<path d="M462 833.5L445.5 841.5L456.5 894L583.5 790.5L559.5 786.5L472.5 854L462 833.5Z" fill="#345D9D" stroke="white" stroke-width="30"/>
<path fill-rule="evenodd" clip-rule="evenodd" d="M559.234 785.441L585.848 789.877L455.913 895.769L444 865.5L459.37 848L473.039 852.317L559.234 785.441ZM559.769 787.558L471.964 855.682L459.37 844.5L444 848L457.09 892.23L581.154 791.122L559.769 787.558Z" fill="black" stroke="white" stroke-width="30"/>
<path d="M567.002 857L610.002 811.5C629 802.5 626.3 828.4 637.5 832C648.7 835.6 668.833 832.334 667.5 845C639.5 970.5 583.2 1223.9 582 1233.5C580.5 1245.5 564 1248.5 552 1250.5C540 1252.5 524 1243 506.501 1233.5C494.004 1226.72 490.501 1192.5 494.002 1180.5C495.586 1175.07 542.335 962.5 567.002 857Z" fill="#345D9D" stroke="white" stroke-width="30"/>
<path d="M531.5 1015.5C531.5 1015.5 518.498 1123.5 560 1123.5C601.502 1123.5 618.5 1066.5 618.5 1066.5C590.5 1192 583.2 1223.9 582 1233.5C580.5 1245.5 564 1248.5 552 1250.5C540 1252.5 524 1243 506.501 1233.5C494.004 1226.71 490.501 1192.5 494.002 1180.5C495.586 1175.07 506.833 1121 531.5 1015.5Z" fill="#294B7E" stroke="white" stroke-width="30"/>
<path fill-rule="evenodd" clip-rule="evenodd" d="M623.634 795.223C638.387 797.414 652.109 799.717 657.806 801.548C660.964 802.563 663.241 805.143 664.871 808.434C666.503 811.729 667.548 815.857 668.189 820.204C669.472 828.904 669.167 838.718 668.494 845.105L668.488 845.162L668.476 845.218C654.476 907.967 633.401 1002.69 615.676 1082.93C606.814 1123.05 598.789 1159.54 592.905 1186.61C589.963 1200.14 587.556 1211.31 585.848 1219.4C584.133 1227.53 583.135 1232.48 582.992 1233.62C582.177 1240.15 577.272 1244.11 571.332 1246.67C565.391 1249.22 558.146 1250.49 552.164 1251.49C545.866 1252.54 538.64 1250.56 530.917 1247.23C524.421 1244.43 517.44 1240.62 510.21 1236.66C508.823 1235.9 507.427 1235.14 506.023 1234.38C502.624 1232.53 499.945 1228.89 497.877 1224.47C495.799 1220.02 494.278 1214.64 493.269 1209.14C491.256 1198.17 491.228 1186.44 493.042 1180.22C493.608 1178.28 500.134 1149.02 509.404 1107.45C512.894 1091.79 516.773 1074.4 520.87 1056.06C535.838 989.05 553.693 909.528 566.028 856.772L566.089 856.509L609.275 810.813L610.728 812.187L567.914 857.49C555.584 910.236 537.766 989.596 522.822 1056.49C518.768 1074.64 514.925 1091.88 511.459 1107.42C502.136 1149.23 495.548 1178.77 494.962 1180.78C493.274 1186.56 493.248 1197.94 495.236 1208.77C496.226 1214.17 497.706 1219.37 499.689 1223.62C501.684 1227.89 504.129 1231.07 506.978 1232.62C508.395 1233.39 509.8 1234.16 511.192 1234.92C518.425 1238.87 525.307 1242.64 531.708 1245.39C539.359 1248.69 546.134 1250.46 551.836 1249.51C557.854 1248.51 564.859 1247.28 570.542 1244.83C576.227 1242.39 580.323 1238.85 581.007 1233.38C581.164 1232.12 582.189 1227.05 583.891 1218.99C585.601 1210.9 588.008 1199.72 590.951 1186.18C596.835 1159.11 604.861 1122.62 613.723 1082.5C631.443 1002.28 652.511 907.589 666.511 844.838C667.168 838.557 667.457 828.954 666.21 820.496C665.585 816.251 664.58 812.354 663.079 809.322C661.575 806.286 659.636 804.237 657.194 803.452C651.69 801.683 638.162 799.402 623.34 797.202C612.466 795.587 600.965 794.024 591.56 792.746C588.182 792.287 585.074 791.865 582.363 791.49L582.637 789.509C585.34 789.883 588.443 790.304 591.817 790.763C601.224 792.041 612.746 793.606 623.634 795.223Z" fill="black" stroke="white" stroke-width="30"/>
<path d="M227 1038.5C226.2 1029.7 257.333 974.833 273 948.5L336 962.5C330.833 990.833 317.9 1051.3 307.5 1066.5C294.5 1085.5 277.5 1089.5 256.5 1084.5C235.5 1079.5 228 1049.5 227 1038.5Z" fill="#345D9D" stroke="white" stroke-width="30"/>
<path fill-rule="evenodd" clip-rule="evenodd" d="M272.51 947.367L337.156 961.732L336.984 962.679C334.397 976.862 329.868 999.084 324.682 1019.67C322.089 1029.96 319.329 1039.86 316.562 1048.14C313.806 1056.39 311.011 1063.14 308.325 1067.06C301.723 1076.71 294.054 1082.62 285.308 1085.45C276.578 1088.28 266.879 1088 256.268 1085.47C245.336 1082.87 238.026 1073.79 233.351 1064.19C228.665 1054.56 226.513 1044.19 226.004 1038.59C225.94 1037.89 226.038 1037.05 226.234 1036.12C226.432 1035.18 226.746 1034.09 227.156 1032.87C227.976 1030.43 229.203 1027.43 230.734 1024.02C233.799 1017.2 238.117 1008.67 242.942 999.605C252.593 981.478 264.302 961.164 272.14 947.989L272.51 947.367ZM273.489 949.633C265.666 962.803 254.189 982.737 244.707 1000.54C239.89 1009.59 235.596 1018.08 232.559 1024.84C231.039 1028.22 229.842 1031.16 229.052 1033.51C228.656 1034.68 228.368 1035.69 228.191 1036.53C228.011 1037.39 227.959 1038.01 227.995 1038.41C228.486 1043.81 230.585 1053.94 235.149 1063.31C239.723 1072.71 246.664 1081.13 256.732 1083.53C267.12 1086 276.422 1086.22 284.692 1083.55C292.946 1080.88 300.277 1075.29 306.675 1065.94C309.189 1062.26 311.911 1055.75 314.666 1047.5C317.41 1039.29 320.156 1029.45 322.743 1019.18C327.801 999.101 332.236 977.447 334.843 963.267L273.489 949.633Z" fill="black" stroke="white" stroke-width="30"/>
<path d="M308.5 850.5L248.5 862.5L276.249 923.944L340 926L308.5 850.5Z" fill="#454545"/>
<path d="M276.5 924.5L276.249 923.944M276.249 923.944L248.5 862.5L308.5 850.5L340 926L276.249 923.944Z" stroke="white" stroke-width="30"/>
<path fill-rule="evenodd" clip-rule="evenodd" d="M309.106 849.359L341.521 927.05L276.216 924.944L276.226 924.623L275.588 924.912L247.07 861.766L309.106 849.359ZM276.903 922.965L338.478 924.951L307.892 851.641L249.928 863.234L276.903 922.965Z" fill="black" stroke="white" stroke-width="30"/>
<path d="M268.501 923C260.101 936.6 268.668 954.334 274.001 961.5C274.001 962.833 275.501 966.5 281.5 970.5C288.999 975.5 318 970.5 319.5 970.5C321 970.5 336.5 970.5 342.5 965.5C348.5 960.5 346.5 957 348 951.5C349.5 946 348.5 942 346.5 937C344.5 932 346.5 929.5 344 920.5C342 913.3 315.5 917.5 302.5 920.5C310 918.5 326.2 912 331 902C337 889.5 279.001 906 268.501 923Z" fill="#AEAEAE" stroke="white" stroke-width="30"/>
<path d="M273 874.5C273 876.985 270.985 879 268.5 879C266.015 879 264 876.985 264 874.5C264 872.015 266.015 870 268.5 870C270.985 870 273 872.015 273 874.5Z" fill="black" stroke="white" stroke-width="30"/>
<path fill-rule="evenodd" clip-rule="evenodd" d="M205 1237.5C205.552 1237.5 206 1237.95 206 1238.5C206 1253.85 210.165 1267.81 216.791 1276.39C220.059 1280.62 225.03 1283.91 230.274 1286.73C232.836 1288.11 235.436 1289.36 237.911 1290.55L238.062 1290.63C240.571 1291.83 242.957 1292.98 244.99 1294.13C245.472 1294.4 245.642 1295.01 245.372 1295.49C245.101 1295.97 244.491 1296.14 244.01 1295.87C242.043 1294.77 239.717 1293.64 237.194 1292.43L237.028 1292.35C234.564 1291.16 231.928 1289.89 229.326 1288.49C224.02 1285.64 218.741 1282.18 215.209 1277.61C208.235 1268.59 204 1254.15 204 1238.5C204 1237.95 204.448 1237.5 205 1237.5Z" fill="#4D8CEF" stroke="white" stroke-width="30" stroke-linecap="round"/>
<path d="M331 1580.5C323.8 1575.7 331 1525.5 335.5 1501C338.667 1489.67 344.9 1466.7 344.5 1465.5C344.1 1464.3 375.667 1471 391.5 1474.5L374 1545L346.5 1590C344.333 1588.83 338.2 1585.3 331 1580.5Z" fill="#454545" stroke="black" stroke-width="2" stroke-linecap="round"/>
<path d="M271.5 1690C273.5 1684.8 334.333 1661.17 364.5 1650L429 1648.5L425 1707.5H268C268.333 1703.83 269.5 1695.2 271.5 1690Z" fill="#454545" stroke="black" stroke-width="2" stroke-linecap="round"/>
<path d="M330.5 1510L199.5 1295.5L308 1260L379 1479L330.5 1510Z" fill="#1B2645"/>
<g opacity="0.5">
<path d="M229.5 1342.5C244.833 1342.5 264.5 1345 292 1332C312.998 1322.07 318.333 1312.67 323 1308.5" stroke="#4D8CEF" stroke-width="2" stroke-linecap="round"/>
<path d="M260 1393C271.333 1393.67 295.779 1390.83 309 1383C322.5 1375 333 1360.67 337.5 1355.5" stroke="#4D8CEF" stroke-width="2" stroke-linecap="round"/>
<path d="M289.5 1440.5C300.333 1439.83 316.161 1442.25 330.5 1431.5C346.5 1419.5 348.333 1409.83 353 1402.5" stroke="#4D8CEF" stroke-width="2" stroke-linecap="round"/>
<path d="M234.5 1298.5L344.5 1500.5" stroke="#4D8CEF" stroke-width="2" stroke-linecap="round"/>
<path d="M285 1284.5L363 1489" stroke="#4D8CEF" stroke-width="2" stroke-linecap="round"/>
</g>
<path d="M193.499 1254.5C203.999 1227.5 279.499 1169.5 281.499 1168L367.997 1257.5C316.998 1274.67 235.999 1301 210.5 1302.5C201 1303.06 182.993 1281.52 193.499 1254.5Z" fill="#283963"/>
<path d="M201 1296.5C202.5 1295.5 239 1287.5 261 1278.5C279.095 1271.1 318.333 1246.67 339 1234.5" stroke="#4D8CEF" stroke-width="2" stroke-linecap="round"/>
<path d="M246 1198.5C249 1212 259.632 1237.57 268.5 1247.5C281 1261.5 299 1270.5 309.5 1275" stroke="#4D8CEF" stroke-width="2" stroke-linecap="round"/>
<path d="M296.5 1194.5C274.333 1209.83 262 1214.5 232 1240C202 1265.5 197 1279.5 195 1287.5" stroke="#4D8CEF" stroke-width="2" stroke-linecap="round"/>
<path d="M352 1645L383.5 1260.5C389.667 1256.83 407.2 1248.4 428 1244C448.8 1239.6 493.667 1258.5 513.5 1268.5L434 1653.5C427.667 1657.17 410 1664.1 390 1662.5C370 1660.9 356.333 1650.17 352 1645Z" fill="#283963"/>
<path d="M379.5 1309.5C390 1310.5 414.255 1322.9 440.5 1322.5C473.5 1322 496.5 1307 505 1309" stroke="#4D8CEF" stroke-width="2"/>
<path d="M373 1390.7C382.622 1391.72 404.844 1403.99 428.896 1403.99C468 1403.99 479.711 1390.96 487.5 1393" stroke="#4D8CEF" stroke-width="2"/>
<path d="M366 1472C375.622 1473.02 397.844 1485.29 421.896 1485.29C461 1485.29 462.5 1481 469 1482.5" stroke="#4D8CEF" stroke-width="2"/>
<path d="M361 1548.5C364.5 1556.5 381.454 1570.93 405.5 1571.5C447.5 1572.5 450.5 1562.5 452.5 1559" stroke="#4D8CEF" stroke-width="2" stroke-linecap="round"/>
<path d="M414 1275.5L371 1658" stroke="#4D8CEF" stroke-width="2"/>
<path d="M466 1265.5L403 1662" stroke="#4D8CEF" stroke-width="2"/>
<path d="M489.5 1284C481.1 1280.8 471.667 1267.67 468 1261.5L512.5 1218.5L563.5 1240.5C551.5 1255 526.9 1284.6 524.5 1287C521.5 1290 516 1291.5 504.5 1291C493 1290.5 500 1288 489.5 1284Z" fill="#AEAEAE"/>
<path d="M572.998 605.5C576.998 634.5 571.998 651.5 568.998 652.5L549 668.5C538.333 658.333 510 636.2 482 629C454 621.8 397.332 682 372.498 708.5L350 674C346.166 679.166 336.7 693.7 317.5 690.5C298.3 687.3 308.5 664.166 317.5 655.5C315.499 657 307.899 659.7 293.499 658.5C275.499 657 272.039 632.96 283.497 617C297.494 597.5 316.165 590.166 331.999 583.5C324.499 584 295.338 588.774 305 561.5C313.501 537.5 360.498 534.666 392.498 531.5L392.389 531.459C386.94 529.416 370.402 523.216 372.498 513C376.5 493.5 391.867 486.5 430.998 486.5C473 486.5 511.498 507 528.998 517.5C546.498 528 568.998 576.5 572.998 605.5Z" fill="black"/>
<path d="M475.5 804L456.5 813.5L467 876L567.5 792L544.5 775.5L545.5 743C537.5 751 524.5 769.5 506 779.5C490.987 787.615 480.5 792 475.5 792V804Z" fill="#888888"/>
<path d="M398 781.5C393.2 780.7 365 692.5 351.5 648.5C355.333 646.5 368.898 633.656 403 618.5C452.5 596.5 485.19 599.952 501.5 602.5C517.5 605 538.667 638.667 549 657C549 654.167 548.021 645.309 553 636.5C559.5 625 575 630.5 576.5 642.5C578.546 658.865 580.5 675 573.5 689C567.9 700.2 557.5 693.666 553 689C552 698.5 553 698 549 716C541.831 748.262 517 770 475 786C439.582 799.492 404 782.5 398 781.5Z" fill="#AEAEAE"/>
<path d="M477.499 654C449.999 658.49 443 679 445.998 691.5C448.998 692.833 462.235 695.917 481.499 690.5C497.5 686 506.5 674.5 511.499 665.5C510.166 662.5 501.999 649.999 477.499 654Z" fill="white" stroke="black" stroke-width="2"/>
<path d="M454.5 732C442.5 725.2 420.167 734.833 410.5 740.5C415.5 742 411 744 429 746C431.894 746.322 445.167 743.667 451.5 742C457.5 741.5 466.5 738.8 454.5 732Z" fill="#888888"/>
<path d="M417.499 704C410.832 715 407.494 739.44 410.997 741.5C419.5 746.5 433.497 748 459.998 739.5" stroke="black" stroke-width="2" stroke-linecap="round"/>
<path d="M372 687C372 682.667 375.293 675.089 388 673.5C400 672 406.667 677.667 408 680" stroke="black" stroke-width="2" stroke-linecap="round"/>
<path d="M436 659C437 650.666 444.6 633.1 467 629.5C489.4 625.9 505.667 634.333 511 639" stroke="black" stroke-width="2" stroke-linecap="round"/>
<path d="M457.999 678C454.499 687 461.832 691.5 466.999 693C473.666 691.5 488.001 689.4 490.001 687C492.501 684 496.265 670.904 483.501 667.5C476.001 665.5 462.475 666.491 457.999 678Z" fill="black" stroke="black" stroke-width="2"/>
<path d="M394 694.5C384.4 696.1 381 704 380 708C380.833 710.167 384.3 715.2 395.5 716C406.7 716.8 412.833 707 414.5 702C411.667 698.834 403.6 692.9 394 694.5Z" fill="white" stroke="black" stroke-width="2"/>
<path d="M396.999 700.5C382.497 703.5 389.998 714.501 389.998 715.501C393.498 715.667 396.75 716.966 401 715.501C404.434 714.317 406.333 712.834 408.5 711C409.667 706.5 409.066 698.004 396.999 700.5Z" fill="black"/>
<path d="M442.501 755C434.501 763 445.167 762.667 451.501 761.5C450.167 763.167 445 771.5 464 767C480.063 763.196 485.815 757.366 494 750C499 745.5 502.333 736.667 504 731C487.334 735.833 450.501 747 442.501 755Z" fill="white"/>
<path d="M451 761C463.167 759.667 486.5 750.5 498 738.5C509.775 726.213 509.5 713.333 510 710" stroke="black" stroke-width="2" stroke-linecap="round"/>
<path d="M370 860C371.2 854 375.5 851.5 377.5 851L396 875L329.5 1058C315.833 1066.5 287.1 1083.9 281.5 1085.5C275.9 1087.1 271.5 1084.83 270 1083.5L341.5 940C350.5 915.833 368.8 866 370 860Z" fill="#294B7E" stroke="black" stroke-width="2"/>
<path d="M308.498 1095.5L385.998 897.5L376.5 851.5L445 819.5L461 869L581.5 790.5L650.5 800.5L513 1219.5L492.5 1247C482.5 1260.67 444.8 1284.7 374 1271.5C285.5 1255 267.998 1182 260.998 1170.5C253.998 1159 258.001 1153 260.998 1148C263.475 1143.87 292.832 1111 308.498 1095.5Z" fill="#345D9D"/>
<path d="M308.498 1095.5C308.498 1095.5 326.597 1137.98 351 1148C388 1163.19 430.088 1145.33 453 1127C520.5 1073 537 988 537 988L650.5 800.5L513 1219.5L492.5 1247C482.5 1260.67 444.8 1284.7 374 1271.5C285.5 1255 267.998 1182 260.998 1170.5C253.998 1159 258.001 1153 260.998 1148C263.475 1143.87 292.832 1111 308.498 1095.5Z" fill="#294B7E"/>
<path d="M385.998 897.5L308.498 1095.5C292.831 1111 263.954 1144.2 260.998 1148C257.5 1152.5 253.998 1159 260.998 1170.5C267.998 1182 285.499 1255 373.999 1271.5C444.799 1284.7 482.499 1260.67 492.499 1247L512.999 1219.5L650.499 800.5L581.499 790.5L454.499 872.036L438.499 822.536L376.499 851.5" stroke="black" stroke-width="2"/>
<path d="M460 812.5L438.5 822L456.5 894L583.5 790.5L559.5 786.5L472.5 854L460 812.5Z" fill="#345D9D" stroke="black" stroke-width="2"/>
<path d="M567.002 857L610.002 811.5C629 802.5 646.3 798.9 657.5 802.5C668.7 806.1 668.833 832.334 667.5 845C639.5 970.5 583.2 1223.9 582 1233.5C580.5 1245.5 564 1248.5 552 1250.5C540 1252.5 524 1243 506.501 1233.5C494.004 1226.72 490.501 1192.5 494.002 1180.5C495.586 1175.07 542.335 962.5 567.002 857Z" fill="#345D9D"/>
<path d="M531.5 1015.5C531.5 1015.5 518.498 1123.5 560 1123.5C601.502 1123.5 618.5 1066.5 618.5 1066.5C590.5 1192 583.2 1223.9 582 1233.5C580.5 1245.5 564 1248.5 552 1250.5C540 1252.5 524 1243 506.501 1233.5C494.004 1226.71 490.501 1192.5 494.002 1180.5C495.586 1175.07 506.833 1121 531.5 1015.5Z" fill="#294B7E"/>
<path d="M610.002 811.5L567.002 857C542.335 962.5 495.586 1175.07 494.002 1180.5C490.501 1192.5 494.004 1226.71 506.501 1233.5C524 1243 540 1252.5 552 1250.5C564 1248.5 580.5 1245.5 582 1233.5C583.2 1223.9 639.5 970.5 667.5 845C668.833 832.333 668.7 806.1 657.5 802.5C646.3 798.9 603 793.333 582.5 790.5" stroke="black" stroke-width="2"/>
<path d="M227 1038.5C226.2 1029.7 257.333 974.833 273 948.5L336 962.5C330.833 990.833 317.9 1051.3 307.5 1066.5C294.5 1085.5 277.5 1089.5 256.5 1084.5C235.5 1079.5 228 1049.5 227 1038.5Z" fill="#345D9D" stroke="black" stroke-width="2"/>
<path d="M308.5 850.5L248.5 862.5L276.249 923.944L340 926L308.5 850.5Z" fill="#454545"/>
<path d="M276.5 924.5L276.249 923.944M276.249 923.944L248.5 862.5L308.5 850.5L340 926L276.249 923.944Z" stroke="black" stroke-width="2"/>
<path d="M268.501 923C260.101 936.6 268.668 954.334 274.001 961.5C274.001 962.833 275.501 966.5 281.5 970.5C288.999 975.5 318 970.5 319.5 970.5C321 970.5 336.5 970.5 342.5 965.5C348.5 960.5 346.5 957 348 951.5C349.5 946 348.5 942 346.5 937C344.5 932 346.5 929.5 344 920.5C342 913.3 315.5 917.5 302.5 920.5C310 918.5 326.2 912 331 902C337 889.5 279.001 906 268.501 923Z" fill="#AEAEAE"/>
<circle cx="268.5" cy="874.5" r="4.5" fill="black"/>
<path d="M205 1238.5C205 1254 209.2 1268.2 216 1277C222.8 1285.8 236.5 1290.5 244.5 1295" stroke="#4D8CEF" stroke-width="2" stroke-linecap="round"/>
<circle cx="1640" cy="503" r="83" fill="white"/>
<circle cx="1452" cy="191" r="83" fill="#5497FF"/>
<circle cx="1773" cy="633" r="50" fill="white"/>
<rect x="719.036" y="182.038" width="106.021" height="106.021" rx="15" transform="rotate(13.637 719.036 182.038)" stroke="white" stroke-width="10"/>
<rect x="877.328" y="182.853" width="65.3526" height="65.3526" rx="15" transform="rotate(-9.79052 877.328 182.853)" stroke="white" stroke-width="10"/>
<rect x="510" y="1500" width="415.763" height="52.8706" rx="26.4353" fill="#C3E9FF"/>
<rect x="584.234" y="1564.96" width="415.763" height="52.8706" rx="26.4353" fill="#C3E9FF"/>
<path d="M629.421 1560.95C627.476 1553.53 609.84 1553.21 596.617 1551.43L907.739 1549.1C901.037 1549.19 884.218 1556.83 884.218 1560.95C884.218 1574.27 931.871 1568.25 907.87 1571.75H615.285C618.336 1570.42 631.517 1568.95 629.421 1560.95Z" fill="#C3E9FF"/>
<rect width="179.032" height="16.1538" rx="8.07691" transform="matrix(-1 0 0 1 926 1650)" fill="#C3E9FF"/>
<rect width="179.032" height="16.1538" rx="8.07691" transform="matrix(-1 0 0 1 894.035 1669.85)" fill="#C3E9FF"/>
<path d="M874.578 1668.62C875.415 1666.36 883.009 1666.26 888.703 1665.71L754.731 1665C757.617 1665.03 764.859 1667.36 764.859 1668.62C764.859 1672.69 744.339 1670.85 754.674 1671.92H880.665C879.351 1671.52 873.675 1671.07 874.578 1668.62Z" fill="#C3E9FF"/>
<path d="M142.223 1064.76L280.224 1118.44" stroke="white" stroke-width="10"/>
<path d="M62.5755 1260.67L247.119 1332.46" stroke="white" stroke-width="10"/>
<path d="M93.8743 1306.04L195.001 1345.45" stroke="white" stroke-width="10"/>
<path d="M174.507 1045.76L275.634 1085.17" stroke="white" stroke-width="10"/>
<path d="M96.7097 1076.56L303.155 1157.4" stroke="white" stroke-width="10"/>
<path d="M62.1995 1096.87L317.439 1196.96" stroke="white" stroke-width="10"/>
<path d="M28.8245 1218.43L284.064 1318.51" stroke="white" stroke-width="10"/>
<path d="M21.0727 1113.58L342.333 1239.26" stroke="white" stroke-width="10"/>
<path d="M3.92815 1176.13L325.188 1301.81" stroke="white" stroke-width="10"/>
<path d="M-6.36425 1135.72L332.121 1267.75" stroke="white" stroke-width="10"/>
<circle cx="1893" cy="1281" r="83" fill="#5497FF"/>
</g>
<defs>
<clipPath id="clip0_1057_362">
<rect width="2000" height="2000" fill="white"/>
</clipPath>
</defs>
</svg>
