<svg width="2000" height="2000" viewBox="0 0 2000 2000" fill="none" xmlns="http://www.w3.org/2000/svg">
<defs>
<linearGradient id="paint0_linear_8_212" x1="350.892" y1="947.242" x2="1132.39" y2="1792.81" gradientUnits="userSpaceOnUse">
<stop stop-color="#FBAC82"/>
<stop offset="1" stop-color="#F9884F"/>
</linearGradient>
<linearGradient id="paint1_linear_8_212" x1="1619.13" y1="562" x2="1861.13" y2="1132" gradientUnits="userSpaceOnUse">
<stop stop-color="#FFC8A1"/>
<stop offset="0.729602" stop-color="#EB440F"/>
</linearGradient>
<linearGradient id="paint2_linear_8_212" x1="1619.13" y1="562" x2="1861.13" y2="1132" gradientUnits="userSpaceOnUse">
<stop stop-color="#FFB7A1"/>
<stop offset="0.729602" stop-color="#DA4F24"/>
</linearGradient>
<linearGradient id="paint3_linear_8_212" x1="1774.91" y1="506.042" x2="1710.09" y2="650.61" gradientUnits="userSpaceOnUse">
<stop stop-color="#579262"/>
<stop offset="1" stop-color="#9BD674"/>
</linearGradient>
<linearGradient id="paint4_linear_8_212" x1="1579.9" y1="573.335" x2="1688.84" y2="598.332" gradientUnits="userSpaceOnUse">
<stop stop-color="#579262"/>
<stop offset="1" stop-color="#9BD674"/>
</linearGradient>
<linearGradient id="paint5_linear_8_212" x1="1579.9" y1="573.335" x2="1688.84" y2="598.332" gradientUnits="userSpaceOnUse">
<stop stop-color="#3E6A46"/>
<stop offset="1" stop-color="#9BD674"/>
</linearGradient>
<linearGradient id="paint6_linear_8_212" x1="1667.45" y1="514.667" x2="1693.4" y2="621.562" gradientUnits="userSpaceOnUse">
<stop stop-color="#985534"/>
<stop offset="1" stop-color="#F8905B"/>
</linearGradient>
<linearGradient id="paint7_linear_8_212" x1="1494.29" y1="1160.41" x2="1468.35" y2="1528.76" gradientUnits="userSpaceOnUse">
<stop stop-color="#FFC8A1"/>
<stop offset="0.729602" stop-color="#EB440F"/>
</linearGradient>
<linearGradient id="paint8_linear_8_212" x1="1494.29" y1="1160.41" x2="1468.35" y2="1528.76" gradientUnits="userSpaceOnUse">
<stop stop-color="#FFB7A1"/>
<stop offset="0.729602" stop-color="#DA4F24"/>
</linearGradient>
<linearGradient id="paint9_linear_8_212" x1="1395.6" y1="1159.06" x2="1460.18" y2="1228.02" gradientUnits="userSpaceOnUse">
<stop stop-color="#579262"/>
<stop offset="1" stop-color="#9BD674"/>
</linearGradient>
<linearGradient id="paint10_linear_8_212" x1="507.879" y1="244.384" x2="626.684" y2="371.229" gradientUnits="userSpaceOnUse">
<stop stop-color="#579262"/>
<stop offset="1" stop-color="#9BD674"/>
</linearGradient>
<linearGradient id="paint11_linear_8_212" x1="1457.86" y1="1143.09" x2="1463.95" y2="1208.4" gradientUnits="userSpaceOnUse">
<stop stop-color="#985534"/>
<stop offset="1" stop-color="#F8905B"/>
</linearGradient>
<linearGradient id="paint12_linear_8_212" x1="413.221" y1="340.464" x2="582.693" y2="378.979" gradientUnits="userSpaceOnUse">
<stop stop-color="#579262"/>
<stop offset="1" stop-color="#9BD674"/>
</linearGradient>
<linearGradient id="paint13_linear_8_212" x1="1777.5" y1="933" x2="1777.5" y2="1082.55" gradientUnits="userSpaceOnUse">
<stop stop-color="#F27648"/>
<stop offset="1" stop-color="#FFB599"/>
</linearGradient>
<linearGradient id="paint14_linear_8_212" x1="1762" y1="937" x2="1777.5" y2="1066.56" gradientUnits="userSpaceOnUse">
<stop stop-color="#E27E59"/>
<stop offset="0.617708" stop-color="#FFBF7A"/>
<stop offset="1" stop-color="#FFBF7A"/>
<stop offset="1" stop-color="#FFEEDC"/>
</linearGradient>
<radialGradient id="paint15_radial_8_212" cx="0" cy="0" r="1" gradientUnits="userSpaceOnUse" gradientTransform="translate(1774 940.5) rotate(79.3594) scale(83.9434 143.746)">
<stop offset="0.365198" stop-color="#EA8F62"/>
<stop offset="1" stop-color="#EA8F62" stop-opacity="0"/>
</radialGradient>
<linearGradient id="paint16_linear_8_212" x1="427.579" y1="847.526" x2="356.417" y2="979.056" gradientUnits="userSpaceOnUse">
<stop stop-color="#F27648"/>
<stop offset="1" stop-color="#FFB599"/>
</linearGradient>
<linearGradient id="paint17_linear_8_212" x1="412.043" y1="843.668" x2="364.023" y2="965" gradientUnits="userSpaceOnUse">
<stop stop-color="#E27E59"/>
<stop offset="0.617708" stop-color="#FFBF7A"/>
<stop offset="1" stop-color="#FFBF7A"/>
<stop offset="1" stop-color="#FFEEDC"/>
</linearGradient>
<radialGradient id="paint18_radial_8_212" cx="0" cy="0" r="1" gradientUnits="userSpaceOnUse" gradientTransform="translate(420.932 852.457) rotate(107.774) scale(83.9434 143.746)">
<stop offset="0.365198" stop-color="#EA8F62"/>
<stop offset="1" stop-color="#EA8F62" stop-opacity="0"/>
</radialGradient>
<linearGradient id="paint19_linear_8_212" x1="115.737" y1="599.961" x2="405.528" y2="643.206" gradientUnits="userSpaceOnUse">
<stop stop-color="#F27648"/>
<stop offset="1" stop-color="#FFB599"/>
</linearGradient>
<linearGradient id="paint20_linear_8_212" x1="113.001" y1="618.294" x2="402.066" y2="596.752" gradientUnits="userSpaceOnUse">
<stop stop-color="#E27E59"/>
<stop offset="0.617708" stop-color="#FFBF7A"/>
<stop offset="1" stop-color="#FFBF7A"/>
<stop offset="1" stop-color="#FFEEDC"/>
</linearGradient>
<radialGradient id="paint21_radial_8_212" cx="0" cy="0" r="1" gradientUnits="userSpaceOnUse" gradientTransform="translate(52.4347 550.152) rotate(11.2172) scale(454.691 525.871)">
<stop offset="0.365198" stop-color="#EA8F62"/>
<stop offset="1" stop-color="#EA8F62" stop-opacity="0"/>
</radialGradient>
<clipPath id="clip0_8_212">
<rect width="2000" height="2000" fill="white"/>
</clipPath>
</defs>
<g clip-path="url(#clip0_8_212)">
<circle cx="845.125" cy="474" r="300" fill="#FFBD7B"/>
<circle cx="1220.12" cy="474" r="300" fill="#FDAE8C"/>
<path d="M1699.08 1045C1699.08 1431.59 1385.72 1745 999.104 1745C612.491 1745 299.125 1431.59 299.125 1045C299.125 658.414 612.498 345 999.104 345C1385.71 345 1699.08 658.384 1699.08 1045Z" fill="#B9B9B9"/>
<path d="M999.059 1649.88C1333.17 1649.88 1603.98 1379.03 1603.98 1044.94C1603.98 710.827 1333.16 440 999.059 440C664.954 440 394.138 710.852 394.138 1044.94C394.138 1379.03 664.948 1649.88 999.059 1649.88Z" fill="white" stroke="white" stroke-width="10"/>
<path d="M999.06 445C667.828 445 398.78 713.994 399.202 1044.92C399.285 1111.13 409.842 1174.82 429.658 1234.39H609.149V729.707L999.06 1119.61L1388.95 729.707V1234.4H1568.48C1588.32 1174.83 1598.83 1111.14 1598.95 1044.93C1599.51 713.658 1330.33 445.08 999.06 445.08V445Z" fill="#F26822"/>
<path d="M909.391 1209.25L739.231 1039.08V1356.66H609.136L486.376 1356.68C591.675 1529.44 781.976 1645 999.06 1645C1216.14 1645 1406.45 1529.41 1511.77 1356.65H1258.85V1039.08L1088.68 1209.25L999.041 1298.89L909.397 1209.25H909.391Z" fill="#4D4D4D"/>
<path d="M234.684 1403.45C87.7287 1038.87 162.753 487.752 378.992 523.202C494.039 542.063 341.547 1241.11 400.526 1312.08C453.121 1375.36 402.922 976.039 485.815 989.628C675.804 968.081 452.492 1315.46 550.469 1455.22C762.668 1757.92 1012.76 1453.99 1146.97 1476C1348.28 1509 1072.69 1593.53 1013.21 1624.31C889.192 1688.5 1199.38 1650.78 1272.31 1626.25C1442.63 1568.98 1803.77 1425.59 1814.06 1585.36C1824.35 1745.13 1362.38 1868.01 1105.23 1854.23C966.656 1846.8 443.38 1921.2 234.684 1403.45Z" fill="url(#paint0_linear_8_212)"/>
<ellipse cx="1764.42" cy="1401.22" rx="65" ry="98" transform="rotate(46.7994 1764.42 1401.22)" fill="#F98950"/>
<path d="M206.754 652.035C237.857 560.525 327.925 510.439 359.632 523.069C350.789 535.806 304.887 585.028 252.924 704.191C189.361 849.957 202.498 1215.77 221.15 1367.79C100.904 1093.73 171.52 755.7 206.754 652.035Z" fill="#FFDAC7"/>
<ellipse cx="229.925" cy="910.591" rx="50" ry="125" transform="rotate(7.52772 229.925 910.591)" fill="#FFDAC7"/>
<ellipse cx="1697.99" cy="1656.91" rx="50" ry="32.7528" transform="rotate(-26.7013 1697.99 1656.91)" fill="#FDB28C"/>
<ellipse cx="1808.61" cy="1393.25" rx="46.8503" ry="20.3214" transform="rotate(-67.1651 1808.61 1393.25)" fill="#FEFFC7"/>
<path d="M438.965 1052.88C455.259 953.492 515.851 981.548 531.775 993.616C482.61 985.556 473.298 1035.21 466.45 1064.48C446.131 1151.34 440.8 1217.85 423.336 1296.56C424.137 1257.68 417.609 1183.14 438.965 1052.88Z" fill="#FEFFC7"/>
<path d="M1627.98 1699.76C1622.97 1730.28 1581.81 1746.46 1411.27 1785.38C1267.03 1824.56 1123.87 1832.43 1128.88 1801.91C1133.88 1771.39 1284.96 1764.67 1421.95 1720.25C1579.58 1648.81 1632.98 1669.24 1627.98 1699.76Z" fill="#FDB28D"/>
<path d="M1861.12 761C1861.12 864.277 1766.12 932 1669.13 948C1639.62 948 1482.12 864.277 1482.12 761C1482.12 565 1655.12 591 1677.13 618C1710.12 598 1861.12 581 1861.12 761Z" fill="url(#paint1_linear_8_212)"/>
<g style="mix-blend-mode:multiply">
<path d="M1861.12 761C1861.12 864.277 1766.12 932 1669.13 948C1639.62 948 1482.12 864.277 1482.12 761C1482.12 565 1655.12 591 1677.13 618C1710.12 598 1861.12 581 1861.12 761Z" fill="url(#paint2_linear_8_212)" fill-opacity="0.1"/>
</g>
<path d="M1751.38 506.953C1685.51 543.138 1661.56 596.818 1674.39 621.986C1698.11 613.768 1748.16 605.397 1785.25 583.838C1829.72 557.987 1840.66 511.517 1844.75 493.947C1827.5 495.026 1785.25 488.348 1751.38 506.953Z" fill="url(#paint3_linear_8_212)"/>
<path d="M1730.62 562.5C1712.92 579.247 1685.46 603.333 1671.12 622C1686.12 610 1718.12 584 1726.12 576C1734.12 568 1774.46 528 1798.12 516C1785.79 520 1749.12 545 1730.62 562.5Z" fill="#B9FD8C"/>
<path d="M1583.76 589.489C1617.85 630.096 1658.28 639.3 1673.93 626.966C1664.99 611.679 1652.32 578.196 1632.31 555.495C1608.32 528.273 1574.66 527.089 1561.94 526.669C1565.05 538.454 1566.24 568.61 1583.76 589.489Z" fill="url(#paint4_linear_8_212)"/>
<path d="M1625.05 596.222C1639.07 606.172 1659.51 621.866 1674.39 629.22C1664.03 620.489 1641.64 601.918 1635.01 597.481C1628.37 593.044 1595.16 570.63 1583.6 555.902C1588.07 563.887 1610.4 585.824 1625.05 596.222Z" fill="#B9FD8C"/>
<g style="mix-blend-mode:multiply">
<path d="M1583.76 589.489C1617.85 630.096 1658.28 639.3 1673.93 626.966C1664.99 611.679 1652.32 578.196 1632.31 555.495C1608.32 528.273 1574.66 527.089 1561.94 526.669C1565.05 538.454 1566.24 568.61 1583.76 589.489Z" fill="url(#paint5_linear_8_212)" fill-opacity="0.2"/>
</g>
<path d="M1635.63 646.5C1653.43 630.181 1669.62 610.5 1713.13 606.5C1729.07 605.034 1743.13 606.5 1743.13 606.5C1730.79 609.833 1691.61 625.926 1663.63 646.5C1629.87 671.323 1607.94 728.681 1601.27 746.133L1601.13 746.5C1594.61 763.545 1593.63 685 1635.63 646.5Z" fill="#EA7B58"/>
<path d="M1648.57 519.54C1638.84 523.545 1649.9 592.105 1658.37 627L1674.63 616L1700.75 514.058C1687.41 514.217 1658.3 515.536 1648.57 519.54Z" fill="url(#paint6_linear_8_212)"/>
<path d="M1663.12 512.5C1648.32 513.3 1645.29 522.333 1646.13 524.5C1648.13 525.667 1657.62 524.5 1663.12 523C1670.85 520.892 1691.46 517.833 1700.62 514.5C1694.29 514.167 1677.92 511.7 1663.12 512.5Z" fill="#67402C"/>
<path d="M1838.53 743.729C1838.63 770.558 1830.35 777.522 1818.86 774.058C1807.37 770.594 1809.24 742.025 1810.48 731.095C1813.73 702.523 1782.07 657.73 1808.51 665.701C1834.95 673.672 1838.43 716.899 1838.53 743.729Z" fill="#FA9F85"/>
<path d="M1823.17 820.555C1817.93 836.387 1806.89 850.682 1794.48 845.2C1788.86 841.498 1793.78 829.808 1799.01 813.976C1804.24 798.143 1803.43 781.312 1821.52 787.291C1830.94 792.268 1828.4 804.722 1823.17 820.555Z" fill="#FA9F85"/>
<path d="M1396.41 1319.55C1416.44 1377.79 1483.14 1397.56 1540.94 1387.77C1557.58 1382.05 1630.16 1304.3 1610.13 1246.07C1572.13 1135.54 1479.61 1183.75 1472.44 1203.24C1449.96 1198.36 1361.51 1218.05 1396.41 1319.55Z" fill="url(#paint7_linear_8_212)"/>
<g style="mix-blend-mode:multiply">
<path d="M1396.41 1319.55C1416.44 1377.79 1483.14 1397.56 1540.94 1387.77C1557.58 1382.05 1630.16 1304.3 1610.13 1246.07C1572.13 1135.54 1479.61 1183.75 1472.44 1203.24C1449.96 1198.36 1361.51 1218.05 1396.41 1319.55Z" fill="url(#paint8_linear_8_212)" fill-opacity="0.1"/>
</g>
<path d="M1409.04 1155.02C1453.2 1162.65 1477.11 1188.28 1474.76 1204.96C1459.79 1204.92 1429.94 1209.91 1404.85 1204.94C1374.76 1198.98 1359.58 1174.9 1353.86 1165.79C1363.8 1163.05 1386.33 1151.09 1409.04 1155.02Z" fill="url(#paint9_linear_8_212)"/>
<path d="M1431.51 1182.32C1444.74 1188.33 1464.9 1196.58 1476.6 1204.33C1465.82 1200.47 1442.73 1192.02 1436.67 1189.06C1430.61 1186.1 1400.11 1171.36 1384.43 1169.18C1392.16 1169.05 1417.69 1176.03 1431.51 1182.32Z" fill="#B9FD8C"/>
<path d="M532.608 236.938C613.842 250.979 657.838 298.119 653.508 328.802C625.966 328.74 571.06 337.908 524.9 328.773C469.546 317.82 441.628 273.515 431.114 256.75C449.389 251.718 490.84 229.719 532.608 236.938Z" fill="url(#paint10_linear_8_212)"/>
<path d="M573.952 287.155C598.291 298.213 635.369 313.403 656.895 327.653C637.055 320.556 594.587 304.999 583.435 299.554C572.283 294.109 516.177 267.002 487.346 262.996C501.567 262.746 548.519 275.601 573.952 287.155Z" fill="#B9FD8C"/>
<path d="M1501.37 1211.26C1488.17 1205.51 1475.22 1197.56 1449.91 1203.73C1440.64 1206 1433 1209.55 1433 1209.55C1440.6 1209.04 1465.81 1210.52 1485.58 1216.69C1509.43 1224.14 1532.92 1252.24 1540.07 1260.78L1540.22 1260.96C1547.2 1269.31 1532.52 1224.83 1501.37 1211.26Z" fill="#EA7B58"/>
<path d="M1469.45 1142.18C1475.72 1142.55 1482.77 1183.36 1484.76 1204.68L1473.47 1201.63L1438.97 1149.21C1446.52 1146.71 1463.19 1141.81 1469.45 1142.18Z" fill="url(#paint11_linear_8_212)"/>
<path d="M1459.88 1141.03C1468.38 1138.61 1471.84 1143.12 1471.8 1144.5C1470.89 1145.55 1465.31 1146.73 1461.92 1146.95C1457.15 1147.26 1444.94 1149.53 1439.12 1149.43C1442.63 1148.02 1451.38 1143.45 1459.88 1141.03Z" fill="#67402C"/>
<path d="M1405.81 1305.43C1410.95 1320.58 1416.97 1322.9 1422.78 1318.72C1428.58 1314.54 1421.99 1298.79 1419.17 1292.87C1411.8 1277.39 1420.97 1245.99 1407.6 1255.61C1394.24 1265.23 1400.66 1290.28 1405.81 1305.43Z" fill="#FA9F85"/>
<path d="M1429.37 1345.78C1435.39 1353.69 1444.39 1359.61 1450.32 1354.11C1452.77 1350.93 1447.73 1345.3 1441.71 1337.38C1435.69 1329.47 1432.89 1319.82 1423.84 1326.7C1419.5 1331.33 1423.35 1337.86 1429.37 1345.78Z" fill="#FA9F85"/>
<path d="M429.534 320.442C504.69 286.565 567.543 300.965 581.144 328.808C558.296 344.185 517.951 382.539 474.596 400.832C422.607 422.768 374.662 401.709 356.56 393.711C368.879 379.305 390.891 337.861 429.534 320.442Z" fill="url(#paint12_linear_8_212)"/>
<path d="M491.913 338.878C518.268 334.403 557.491 326.213 583.306 325.959C562.896 331.194 519.002 342.099 506.714 343.836C494.426 345.573 432.765 354.551 406.639 367.383C418.278 359.21 464.373 343.555 491.913 338.878Z" fill="#B9FD8C"/>
<path d="M1737.51 964.893L1644 975.622C1644 1020.68 1686.19 1094.13 1795.68 1081C1905.16 1067.87 1911 983 1911 933L1795.68 956.311C1826 982 1798.42 1000.42 1782 1009C1765.58 1017.58 1730 991 1737.51 964.893Z" fill="url(#paint13_linear_8_212)"/>
<path d="M1742 963L1660 973C1660 1015 1697 1077.24 1793 1065C1889 1052.76 1895 973 1895 937L1793 955C1793.67 957.667 1791.4 965 1777 973C1762.6 981 1747.67 969.667 1742 963Z" fill="url(#paint14_linear_8_212)"/>
<path d="M1806 954C1813 980.712 1810.76 1000.04 1784.04 1007.04C1757.33 1014.05 1736.5 992.212 1729.5 965.5C1767.5 956 1748 978 1772 974.5C1796 971 1769 954 1806 954Z" fill="url(#paint15_radial_8_212)"/>
<path d="M1835.5 1031.5C1842.82 1024.18 1858.78 1007.48 1865.52 994.153C1867.03 991.183 1870.83 989.741 1873.66 991.485L1874.39 991.929C1878.28 994.324 1880.07 999.072 1878.11 1003.2C1874.48 1010.8 1868.18 1020.69 1859 1029.5C1849.55 1038.57 1837.48 1044.01 1825.53 1046.15C1823.73 1046.47 1822.51 1041.27 1824.05 1040.29C1828.54 1037.45 1832.81 1034.19 1835.5 1031.5Z" fill="#FFE4B1" fill-opacity="0.5"/>
<path d="M1883.95 989.457C1882.21 993.518 1879.23 992.33 1875.59 990.772C1871.95 989.213 1868.79 988.45 1870.78 983.814C1872.77 979.178 1874.14 980.358 1879.14 982.499C1884.13 984.641 1887.07 982.17 1883.95 989.457Z" fill="#FFD296" fill-opacity="0.9"/>
<path d="M377.235 856.55L289.881 821.487C268.44 861.117 270.602 945.793 373.14 986.345C475.678 1026.9 521.203 955.028 544.996 911.052L432.473 876.678C446.919 913.701 413.9 916.777 395.372 916.511C376.845 916.245 358.202 875.936 377.235 856.55Z" fill="url(#paint16_linear_8_212)"/>
<path d="M382.081 857.019L305.201 826.795C285.216 863.735 288.143 936.079 378.4 970.999C468.658 1005.92 511.89 938.62 529.021 906.957L430.744 874.252C430.061 876.914 424.578 882.285 408.106 882.469C391.634 882.653 383.893 865.579 382.081 857.019Z" fill="url(#paint17_linear_8_212)"/>
<path d="M442.653 879.558C436.101 906.383 424.927 922.317 398.101 915.765C371.275 909.213 363.345 880.095 369.896 853.27C407.839 862.996 380.22 873.067 402.994 881.409C425.768 889.751 410.11 861.951 442.653 879.558Z" fill="url(#paint18_radial_8_212)"/>
<path d="M431.72 961.759C441.636 958.805 463.62 951.711 475.898 943.197C478.633 941.301 482.664 941.841 484.327 944.724L484.75 945.458C487.034 949.417 486.355 954.447 482.662 957.139C475.856 962.101 465.606 967.8 453.341 971.182C440.719 974.663 427.506 973.7 415.978 969.894C414.243 969.321 415.647 964.168 417.47 964.044C422.766 963.684 428.068 962.846 431.72 961.759Z" fill="#FFE4B1" fill-opacity="0.5"/>
<path d="M494.337 947.834C490.874 950.578 488.819 948.115 486.362 945.014C483.906 941.913 481.488 939.737 485.442 936.605C489.395 933.473 490.041 935.164 493.417 939.425C496.792 943.686 500.552 942.911 494.337 947.834Z" fill="#FFD296" fill-opacity="0.9"/>
<path d="M204.11 622.648L103.427 682.454C126.255 733.709 211.348 795.777 328.935 725.116C446.522 654.454 410.151 554.935 384.818 498.059L265.762 583.279C313.188 597.066 291.224 632.054 276.937 650.176C262.65 668.298 208.809 656.17 204.11 622.648Z" fill="url(#paint19_linear_8_212)"/>
<path d="M208.241 618.211L120.256 671.327C141.535 719.102 215.052 771.063 317.792 708.277C420.533 645.492 386.929 551.704 368.69 510.754L262.062 583.15C264.169 585.844 265.313 595.34 253.025 611.77C240.737 628.2 218.049 622.91 208.241 618.211Z" fill="url(#paint20_linear_8_212)"/>
<path d="M276.306 575.396C297.786 602.216 305.031 625.349 278.267 646.911C251.503 668.474 216.802 654.238 195.322 627.418C233.631 597.268 222.649 632.22 248.11 616.022C273.571 599.824 234.319 594.23 276.306 575.396Z" fill="url(#paint21_radial_8_212)"/>
<path d="M349.047 648.537C353.643 636.491 363.292 609.37 364.195 590.771C364.396 586.628 367.98 583.052 372.08 583.593L373.125 583.731C378.755 584.474 383.198 588.96 383.056 594.653C382.794 605.147 380.652 619.605 374.701 634.3C368.577 649.422 357.626 661.76 345.149 670.274C343.271 671.556 339.255 666.261 340.513 664.363C344.166 658.853 347.355 652.974 349.047 648.537Z" fill="#FFE4B1" fill-opacity="0.5"/>
<path d="M382.723 576.051C382.805 581.557 378.822 581.722 373.906 581.8C368.991 581.879 365.016 582.62 364.922 576.335C364.828 570.05 366.983 570.693 373.738 570.586C380.493 570.478 382.575 566.172 382.723 576.051Z" fill="#FFD296" fill-opacity="0.9"/>
<path d="M1096 179C1148.8 159.8 1268 157 1336 179C1616 269.589 1726.8 471 1698 495C1662 525 1544 371 1492 371C1452.3 371 1518 429 1480 447C1442 465 1360 329 1312 299C1264 269 1338.98 376.704 1300 371C1218 359 1180 271 1150 249C1120 227 1022 307 990 287C958 267 1030 203 1096 179Z" fill="#F58659"/>
<path d="M1096 179C1205.92 140.696 1449.98 417.006 1436 371C1374 167 1726.8 471 1698 495C1662 525 1544 371 1492 371C1452.3 371 1518 429 1480 447C1442 465 1376 371 1328 341C1280 311 1338.98 376.705 1300 371C1218 359 1180 271 1150 249C1120 227 1022 307 990 287C958 267 1030 202 1096 179Z" fill="#D56A3E"/>
<path d="M1439 218C1389.08 197.199 1328 170.5 1298.5 170.5C1332.83 191.5 1412.26 230.194 1426 239C1465 264 1554 306.5 1609 337.5C1580.5 310 1517 250.5 1439 218Z" fill="#FEC0AE"/>
<ellipse cx="1425.5" cy="246" rx="54.5" ry="26" transform="rotate(24.43 1425.5 246)" fill="#FEC0AE"/>
<path d="M781.001 172C613 193 319.378 549.541 489 493C558 470 645.6 328.6 636 375C624 433 686 408 718 333C750 258 773 297.804 796 313C852 350 861 314 845 258C829 202 873 205 928 226C983 247 997.999 264 995.999 226C993.999 188 949.001 151 781.001 172Z" fill="#E08E6B"/>
<path d="M997.5 204C979.419 184.111 932 166.5 890 166.5C917 178.667 969.6 204.5 976 218.5C984 236 887 192.5 850.5 189C814 185.5 835 280.5 824.5 294.5C814 308.5 759.5 261 742 263.5C724.5 266 666.5 388.5 648.5 389C634.1 389.4 652.5 343.833 663.5 321C621.167 354 543.342 434.189 520.5 459.5C502 480 458.667 483 437.5 480C443.333 482.833 422.5 507.5 481 499C513.162 494.327 601.877 403.659 610.5 389C620.5 372 628.651 384 627 396.5C623.5 423 654 408 674 396.5C694 385 740 300 756 289.5C772 279 806.5 347.5 845.5 324C863.158 313.36 851 236 860 218.5C869 201 971.5 252 989 252C1008.29 252 1022.5 231.5 997.5 204Z" fill="#CB7652"/>
<path d="M634.5 242.5C701.5 190.5 756 172 779.5 172C770.833 184.5 727.4 217.6 681 240C634.6 262.4 555 321.333 521 348C539.833 328.333 570.492 292.178 634.5 242.5Z" fill="#FFB190"/>
<ellipse cx="687.558" cy="244.975" rx="51" ry="22.5" transform="rotate(-35.4533 687.558 244.975)" fill="#FFB190"/>
</g>
</svg>
