<svg width="2000" height="2000" viewBox="0 0 2000 2000" fill="none" xmlns="http://www.w3.org/2000/svg">
<defs>
<linearGradient id="paint0_linear_7_2" x1="1239.4" y1="114.338" x2="1692" y2="603" gradientUnits="userSpaceOnUse">
<stop stop-color="#F898E3"/>
<stop offset="1" stop-color="#D95CAE"/>
</linearGradient>
<linearGradient id="paint1_linear_7_2" x1="1581.85" y1="632" x2="1581.85" y2="962.652" gradientUnits="userSpaceOnUse">
<stop stop-color="#FFC400"/>
<stop offset="1" stop-color="#FCFF5D"/>
</linearGradient>
<linearGradient id="paint2_linear_7_2" x1="1596.62" y1="1162.77" x2="1700.16" y2="950.619" gradientUnits="userSpaceOnUse">
<stop stop-color="#FFC400"/>
<stop offset="1" stop-color="#FDEB3E"/>
</linearGradient>
<linearGradient id="paint3_linear_7_2" x1="286.124" y1="767.606" x2="445.586" y2="855.125" gradientUnits="userSpaceOnUse">
<stop stop-color="#FFC400"/>
<stop offset="1" stop-color="#FDEB3E"/>
</linearGradient>
<linearGradient id="paint4_linear_7_2" x1="1880" y1="1101" x2="126.001" y2="1601" gradientUnits="userSpaceOnUse">
<stop stop-color="#FF91E9"/>
<stop offset="1" stop-color="#CA24C3"/>
</linearGradient>
</defs>
<circle cx="1209" cy="471" r="280" fill="#D465BE"/>
<path d="M1117.87 166.404C1236.76 115.472 1279.91 133.633 1368.69 163.659C1425.13 182.746 1453.25 204.884 1498.75 243.297C1601.39 329.968 1605.41 423.771 1670 541.519C1697.44 591.55 1779.12 629.615 1739.2 670.211C1699.28 710.806 1611.61 593.346 1611.61 593.346C1611.61 593.346 1596.91 636.676 1564.68 603.237C1551.63 589.696 1464.38 430.828 1417.47 352.177C1422.3 365.432 1420.31 396.42 1373.74 414.326C1327.17 432.232 1275.48 343.203 1255.45 296.45C1261.81 319.263 1264.03 369.642 1222.03 388.656C1180.04 407.669 1129.9 305.967 1110.08 252.739C1093.61 267.033 1079.69 304.831 1046.6 301.64C1005.24 297.653 1028.18 204.824 1117.87 166.404Z" fill="url(#paint0_linear_7_2)"/>
<path d="M1065.17 261.946C1044.45 270.823 1060 226.202 1065.17 201C1044.04 220.266 995.331 282.286 1046.43 307.649C1069.22 318.959 1099.39 274.744 1112.49 257.636C1128.21 316.675 1181.67 418.082 1227.47 390.367C1256.38 372.874 1265.1 327.634 1257.7 301.428C1279.43 352.145 1309.64 444.822 1393.34 418.285C1422.01 409.193 1422.38 367.317 1419.63 355.936C1471.41 445.5 1549.54 623.392 1588.62 625.169C1600.64 625.716 1609.97 604.953 1612.44 595.807C1660.98 677.817 1727.64 710.251 1749.24 666.189C1766.28 631.431 1707.94 590.653 1690.99 574.929C1677.42 562.349 1655.75 518.508 1646.6 498.16C1657.54 532.638 1676.83 604.492 1666.47 616.083C1653.52 630.571 1593.11 522.355 1586.63 551.95C1581.44 575.626 1461.48 382.068 1402.15 282.33C1402.76 304.63 1397.94 355.394 1373.77 380.055C1349.59 404.716 1279.54 301.225 1247.54 246.397C1239.16 266.59 1219.07 313.509 1205.74 339.651C1192.42 365.793 1144.09 273.259 1121.6 223.725C1111.42 232.767 1085.89 253.07 1065.17 261.946Z" fill="#D95CAE"/>
<path d="M1434.57 189.577C1369.15 143.946 1291.46 135.152 1248.99 134.167C1282.05 155.81 1367.98 180.403 1403.35 202.955C1519.71 277.15 1546.35 326.055 1593.91 372.608C1567.43 298.908 1536.23 260.48 1434.57 189.577Z" fill="#FFC7F4"/>
<ellipse cx="1384.26" cy="210.711" rx="30.8595" ry="66.9205" transform="rotate(-62.4918 1384.26 210.711)" fill="#FFC7F4"/>
<circle cx="824" cy="506" r="280" fill="#FFCD8B"/>
<path d="M313.38 526.244C246.476 494.703 570.178 316.853 570.178 316.853C570.178 316.853 658.499 261.553 768.447 219.642C878.394 177.732 984.016 248.789 1023.08 289.556C1032.49 303.692 1043.61 336.613 1012.86 355.206C974.413 378.446 933.381 279.606 908.016 290.459C883.96 300.752 900.303 343.801 876.397 351.968C852.49 360.136 807.99 324.954 782.03 334.291C756.069 343.628 728.416 400.16 699.09 405.974C669.764 411.787 691.293 379.136 697.71 355.768C703.174 335.866 639.555 376.629 609.47 397.832C579.385 419.035 397.01 565.67 313.38 526.244Z" fill="#F1DC9C"/>
<path d="M686.189 407.197C676.885 401.281 689.648 369.874 696.983 352.102C700.693 353.843 704.495 373.662 712.712 368.985C723.605 362.785 767.85 311.767 784.796 302.121C801.743 292.476 847.721 320.698 870.032 302.56C914.201 266.652 831.247 208.138 842.638 206.65C873.647 202.599 928.416 221.722 939.857 228.143C998.799 261.224 1016.35 282.508 1024.99 290.512C1039.89 316.702 1035.08 345.276 1007.86 360.767C974.327 379.856 928.462 291.739 910.947 290.83C893.433 289.921 896.725 336.319 880.426 353.074C864.127 369.83 797.259 319.163 781.88 336.416C711.754 415.083 695.779 413.297 686.189 407.197Z" fill="#E7BA7E"/>
<path d="M545.016 331.175C468.538 375.973 414.961 410.863 374.579 439.06C374.579 439.06 483.026 389.573 549.304 351.85C658.172 289.886 750.039 226.72 750.039 226.72C695.037 247.148 667.899 259.194 545.016 331.175Z" fill="#FFF5D6"/>
<ellipse cx="595" cy="330.601" rx="69.7239" ry="20.0899" transform="rotate(-29.6471 595 330.601)" fill="#FFF5D6"/>
<path d="M1646.95 790.869C1495.83 436.07 1084.09 269.621 727.1 418.549C370.111 567.477 203.662 981.409 354.78 1336.21C505.898 1691.01 917.64 1859.65 1272.44 1708.53C1441.08 1638.44 1574.67 1504.85 1644.76 1336.21C1719.22 1163.19 1719.22 966.079 1646.95 790.869Z" fill="#CD1D9B"/>
<path d="M1565.01 827.981L1565 827.955L1564.98 827.929C1434.37 521.271 1078.53 377.439 770.017 506.142C461.448 634.871 317.601 992.631 448.211 1299.28C578.807 1605.9 934.64 1751.67 1241.32 1621.06C1387.07 1560.48 1502.53 1445.01 1563.11 1299.27C1627.47 1149.71 1627.45 979.365 1565.01 827.981Z" fill="#FF2AD4" stroke="#FF94EA" stroke-width="10"/>
<path d="M544.796 957.54H698.73V1250.39V1370.53L785.083 1287.94L1008.47 1077.68L1229.99 1287.94L1316.34 1370.53V1250.39V957.54H1468.4C1475.91 991.331 1479.66 1027 1479.66 1062.67C1479.66 1323.6 1267.53 1537.61 1006.6 1537.61C745.661 1537.61 531.655 1323.6 531.655 1062.67C531.655 1027 535.41 991.331 544.796 957.54ZM505.374 904.978C419.021 1182.81 572.955 1477.54 850.787 1563.89C1128.62 1650.24 1423.35 1494.43 1507.82 1218.48C1522.84 1167.79 1532.23 1115.23 1532.23 1062.67C1532.23 1010.1 1524.72 957.54 1507.82 904.978H1265.66L1263.78 1250.39L1008.47 1004.47L749.415 1250.39V904.978H505.374Z" fill="white"/>
<path d="M749.415 854.292H800.101V906.855V1132.12L970.93 968.804L1006.6 935.013L1042.27 968.804L1213.09 1130.25V904.978V854.292H1489.05C1372.66 587.724 1061.04 467.58 796.346 583.969C676.203 636.532 578.586 734.148 526.023 854.292H749.415Z" fill="#FFCC00"/>
<path d="M1470.85 632.598C1461.25 634.998 1466.85 660.265 1470.85 672.598C1457.85 695.931 1416.85 749.598 1460.85 852.598C1494.36 931.027 1595.35 974.098 1642.35 951.598C1651.69 954.931 1664.85 966.098 1677.35 961.598C1681.52 960.098 1683.69 945.931 1683.35 933.598C1703.35 911.598 1750.85 837.598 1699.85 730.598C1653.37 633.085 1554.19 626.598 1502.85 638.598C1496.19 635.598 1480.45 630.198 1470.85 632.598Z" fill="url(#paint1_linear_7_2)"/>
<ellipse cx="1524.85" cy="806.348" rx="8.16667" ry="8.75" fill="#6A6606" fill-opacity="0.3"/>
<ellipse cx="1557.52" cy="906.681" rx="5.83333" ry="6.41667" fill="#6A6606" fill-opacity="0.3"/>
<circle cx="1586.1" cy="933.515" r="4.08333" fill="#6A6606" fill-opacity="0.3"/>
<circle cx="1629.27" cy="930.015" r="4.08333" fill="#6A6606" fill-opacity="0.3"/>
<ellipse cx="1596.02" cy="913.681" rx="5.83333" ry="6.41667" fill="#6A6606" fill-opacity="0.3"/>
<ellipse cx="1590.19" cy="882.181" rx="8.16667" ry="8.75" fill="#6A6606" fill-opacity="0.3"/>
<ellipse cx="1621.69" cy="885.681" rx="8.16667" ry="8.75" fill="#6A6606" fill-opacity="0.3"/>
<ellipse cx="1578.52" cy="861.181" rx="4.66667" ry="5.25" fill="#6A6606" fill-opacity="0.3"/>
<ellipse cx="1608.85" cy="861.181" rx="4.66667" ry="5.25" fill="#6A6606" fill-opacity="0.3"/>
<circle cx="1559.85" cy="876.931" r="3.5" fill="#6A6606" fill-opacity="0.3"/>
<circle cx="1611.18" cy="934.098" r="3.5" fill="#6A6606" fill-opacity="0.3"/>
<circle cx="1618.18" cy="903.765" r="3.5" fill="#6A6606" fill-opacity="0.3"/>
<circle cx="1556.35" cy="852.431" r="3.5" fill="#6A6606" fill-opacity="0.3"/>
<circle cx="1507.35" cy="852.431" r="3.5" fill="#6A6606" fill-opacity="0.3"/>
<circle cx="1529.52" cy="903.765" r="3.5" fill="#6A6606" fill-opacity="0.3"/>
<circle cx="1578.52" cy="818.598" r="3.5" fill="#6A6606" fill-opacity="0.3"/>
<circle cx="1655.52" cy="865.265" r="3.5" fill="#6A6606" fill-opacity="0.3"/>
<circle cx="1648.52" cy="910.765" r="3.5" fill="#6A6606" fill-opacity="0.3"/>
<ellipse cx="1530.69" cy="877.515" rx="4.66667" ry="5.25" fill="#6A6606" fill-opacity="0.3"/>
<ellipse cx="1535.35" cy="837.848" rx="4.66667" ry="5.25" fill="#6A6606" fill-opacity="0.3"/>
<path d="M1685.85 707.098C1656.02 662.346 1611.52 644.598 1583.35 638.098C1604.35 661.098 1647.64 705.587 1659.85 722.598C1673.85 742.098 1712.35 785.431 1722.35 812.098C1721.52 801.931 1716.85 753.598 1685.85 707.098Z" fill="#FFE887"/>
<ellipse cx="1656.56" cy="728.259" rx="17" ry="50" transform="rotate(-35.1823 1656.56 728.259)" fill="#FFE887"/>
<path d="M1695.78 940.008C1730.73 964.7 1753.69 1001.7 1759.61 1042.88C1765.53 1084.05 1753.92 1126.03 1727.33 1159.56C1700.74 1193.1 1661.36 1215.46 1617.84 1221.71C1574.32 1227.96 1530.24 1217.61 1495.28 1192.91L1595.53 1066.46L1695.78 940.008Z" fill="url(#paint2_linear_7_2)"/>
<path d="M1675.54 966.139C1702.12 987.108 1719.29 1017.78 1723.26 1051.41C1727.23 1085.03 1717.68 1118.86 1696.72 1145.45C1675.75 1172.03 1645.07 1189.2 1611.45 1193.17C1577.82 1197.14 1543.99 1187.59 1517.41 1166.62L1596.47 1066.38L1675.54 966.139Z" fill="#FFE079"/>
<path d="M1583.46 1103.23C1583.46 1103.23 1582.11 1137.31 1576.54 1157C1570.97 1176.69 1564.6 1174.9 1563.3 1174.53C1562 1174.16 1554.49 1172.03 1560.06 1152.34C1565.62 1132.65 1583.46 1103.23 1583.46 1103.23Z" fill="#FEFFC7"/>
<path d="M1629.27 1049.14C1629.27 1049.14 1647.95 1020.59 1662.85 1006.56C1677.74 992.535 1682.29 997.351 1683.21 998.335C1684.14 999.319 1689.48 1005 1674.59 1019.03C1659.69 1033.06 1629.27 1049.14 1629.27 1049.14Z" fill="#FEFFC7"/>
<path d="M1590.64 1094.21C1590.64 1094.21 1607.37 1131.86 1612.89 1156.18C1618.42 1180.51 1611.96 1181.98 1610.64 1182.28C1609.32 1182.58 1601.71 1184.3 1596.19 1159.98C1590.66 1135.66 1590.64 1094.21 1590.64 1094.21Z" fill="#FEFFC7"/>
<path d="M1620.46 1062.09C1620.46 1062.09 1656.73 1042.55 1680.57 1035.2C1704.4 1027.84 1706.36 1034.17 1706.76 1035.46C1707.16 1036.75 1709.45 1044.21 1685.62 1051.56C1661.78 1058.92 1620.46 1062.09 1620.46 1062.09Z" fill="#FEFFC7"/>
<path d="M1602.56 1082.47C1602.56 1082.47 1632.27 1114.25 1646.45 1136.5C1660.63 1158.76 1655.05 1162.32 1653.91 1163.05C1652.77 1163.77 1646.18 1167.96 1632 1145.71C1617.83 1123.46 1602.56 1082.47 1602.56 1082.47Z" fill="#FEFFC7"/>
<path d="M1615.42 1070.35C1615.42 1070.35 1656.2 1085.5 1682.2 1090C1708.2 1094.5 1709.34 1087.98 1709.57 1086.64C1709.8 1085.31 1711.12 1077.62 1685.12 1073.12C1659.12 1068.63 1615.42 1070.35 1615.42 1070.35Z" fill="#FEFFC7"/>
<path d="M1610.9 1079C1610.9 1079 1648.33 1096.24 1668.53 1110.86C1688.74 1125.48 1684.86 1130.85 1684.07 1131.95C1683.28 1133.04 1678.69 1139.36 1658.49 1124.74C1638.29 1110.12 1610.9 1079 1610.9 1079Z" fill="#FEFFC7"/>
<path d="M453.915 852.143C433.62 878.136 404.293 894.444 372.384 897.479C340.476 900.514 308.599 890.028 283.768 868.328C258.937 846.627 243.185 815.49 239.977 781.766C236.769 748.041 246.368 714.493 266.663 688.5L360.289 770.321L453.915 852.143Z" fill="url(#paint3_linear_7_2)"/>
<path d="M434.551 835.601C417.43 855.289 393.19 867.371 367.163 869.187C341.135 871.003 315.452 862.405 295.764 845.285C276.076 828.165 263.995 803.925 262.178 777.897C260.362 751.87 268.96 726.187 286.08 706.498L360.315 771.05L434.551 835.601Z" fill="#FFE079"/>
<path d="M332.438 759.672C332.438 759.672 306.254 757.375 291.305 752.365C276.356 747.354 277.972 742.514 278.303 741.527C278.634 740.539 280.55 734.84 295.499 739.851C310.448 744.862 332.438 759.672 332.438 759.672Z" fill="#FEFFC7"/>
<path d="M372.377 796.932C372.377 796.932 393.657 812.36 403.905 824.342C414.152 836.324 410.278 839.645 409.487 840.322C408.695 840.999 404.122 844.902 393.875 832.921C383.627 820.939 372.377 796.932 372.377 796.932Z" fill="#FEFFC7"/>
<path d="M339.115 765.532C339.115 765.532 309.514 777.019 290.592 780.373C271.669 783.728 270.772 778.705 270.59 777.679C270.408 776.654 269.366 770.732 288.288 767.378C307.211 764.023 339.115 765.532 339.115 765.532Z" fill="#FEFFC7"/>
<path d="M362.733 789.667C362.733 789.667 376.433 818.31 381.214 836.923C385.995 855.537 381.055 856.813 380.046 857.072C379.037 857.331 373.212 858.82 368.431 840.207C363.65 821.593 362.733 789.667 362.733 789.667Z" fill="#FEFFC7"/>
<path d="M347.71 775.145C347.71 775.145 322.151 796.836 304.501 806.928C286.852 817.019 284.313 812.593 283.796 811.689C283.279 810.785 280.301 805.561 297.95 795.47C315.6 785.379 347.71 775.145 347.71 775.145Z" fill="#FEFFC7"/>
<path d="M356.558 785.487C356.558 785.487 343.394 816.317 338.972 836.161C334.551 856.005 339.529 857.122 340.546 857.348C341.562 857.575 347.433 858.875 351.854 839.031C356.276 819.187 356.558 785.487 356.558 785.487Z" fill="#FEFFC7"/>
<path d="M350.07 781.689C350.07 781.689 335.42 809.858 323.421 824.869C311.422 839.881 307.432 836.7 306.618 836.05C305.805 835.4 301.112 831.64 313.111 816.629C325.11 801.617 350.07 781.689 350.07 781.689Z" fill="#FEFFC7"/>
<circle cx="383.5" cy="642.5" r="22.5" fill="#DD28A4"/>
<circle cx="383.5" cy="642.5" r="22.5" fill="#DD28A4"/>
<path d="M397.907 653.288C395.44 655.492 388.637 659 388.637 658.216C388.637 658.216 396 650.798 396 647C396 633.296 391 633.889 393.976 632.667C397.9 631.055 408.129 644.16 397.907 653.288Z" fill="#EF88CF"/>
<path d="M349.5 548.5C336.601 564.203 327.833 589.833 328 603.5H336.5C340.333 594.333 343.327 579.378 349.5 569.5C357 557.5 389.5 538.5 385 531.5C381.786 526.5 361 534.5 349.5 548.5Z" fill="#35643A"/>
<path d="M317.5 593C323 611.5 334.833 617.333 339.5 620C345.167 613.833 349.1 595 347.5 585C345.26 571 332.833 560.833 326.5 555C323.167 562.667 312 574.5 317.5 593Z" fill="#4D7E41"/>
<path d="M290.431 605.121C300.893 612.403 309.404 610.537 312.911 609.99C313.294 604.473 307.564 593.132 302.618 588.631C295.693 582.329 285.09 582.202 279.418 581.801C280.857 587.132 279.97 597.84 290.431 605.121Z" fill="#4D7E41"/>
<path d="M301.624 597.038C314.406 611.214 326.075 611.66 330.847 612.16C332.259 604.446 326.455 586.217 320.584 578.007C312.365 566.513 298.228 562.47 290.719 559.832C291.771 567.943 288.841 582.862 301.624 597.038Z" fill="#35643A"/>
<path d="M351.027 581.463C337.484 595.263 338.159 608.67 338.104 614.132C346.292 616.258 364.747 610.758 372.74 604.531C383.93 595.812 383.482 576.475 385.5 568C377.139 568.686 364.57 567.664 351.027 581.463Z" fill="#35643A"/>
<circle cx="390.5" cy="608.5" r="22.5" fill="#C5188F"/>
<path d="M406.999 602.803C406.999 606.112 404.5 613 404.5 613C404.5 613 404 606.5 402 603.5C394.398 592.098 386 600.5 389 592C390.412 588 406.999 589.099 406.999 602.803Z" fill="#EF88CF"/>
<circle cx="375.5" cy="678.5" r="22.5" transform="rotate(57.1886 375.5 678.5)" fill="#C5188F"/>
<path d="M387.754 688.128C385.286 690.332 378.483 693.84 378.483 693.056C378.483 693.056 385.846 685.638 385.846 681.84C385.847 668.136 380.846 668.729 383.823 667.507C387.746 665.896 397.975 679 387.754 688.128Z" fill="#EF88CF"/>
<circle cx="22.5" cy="22.5" r="22.5" transform="matrix(-1 0 0 1 305 590)" fill="#C5188F"/>
<path d="M266.001 606.803C266.001 610.112 268.5 617 268.5 617C268.5 617 271.468 608.957 272.5 606.803C276 599.5 287 604.5 284 596C282.588 592 266.001 593.099 266.001 606.803Z" fill="#EF88CF"/>
<circle cx="22.5" cy="22.5" r="22.5" transform="matrix(-0.920455 0.390848 0.390848 0.920455 301.416 652.996)" fill="#C5188F"/>
<path d="M272.086 683.705C273.379 686.751 278.372 692.114 278.372 692.114C278.372 692.114 276.837 687.635 278.372 679.5C280.913 666.033 290.515 673.378 284.432 666.726C281.569 663.596 266.73 671.091 272.086 683.705Z" fill="#EF88CF"/>
<circle cx="361.5" cy="620.5" r="22.5" fill="#DD28A4"/>
<circle cx="345.5" cy="646.5" r="22.5" fill="#CD299A"/>
<circle cx="355.5" cy="674.5" r="22.5" fill="#CD299A"/>
<circle cx="288.5" cy="643.5" r="22.5" fill="#DD28A4"/>
<path d="M272.862 649.192C274.492 652.071 280.059 656.835 280.059 656.835C280.059 656.835 276.895 650.421 277.5 644.5C278.892 630.867 290.004 636.845 283.207 630.925C280.008 628.139 266.113 637.265 272.862 649.192Z" fill="#EF88CF"/>
<circle cx="316.5" cy="676.5" r="22.5" fill="#DD28A4"/>
<path d="M307.195 691.849C310.34 692.878 317.663 692.644 317.663 692.644C317.663 692.644 313.28 690.855 308.162 684.348C299.688 673.577 311.536 671.174 302.524 671.382C298.284 671.48 294.17 687.587 307.195 691.849Z" fill="#EF88CF"/>
<circle cx="22.5" cy="22.5" r="22.5" transform="matrix(-0.544586 0.838705 0.838705 0.544586 324.506 703)" fill="#E136AC"/>
<path d="M317.384 744.875C320.159 746.677 327.297 748.332 327.297 748.332C327.297 748.332 322.118 744.373 320.691 741.061C315.268 728.476 326.888 726.009 318.125 723.896C314.002 722.901 305.89 737.412 317.384 744.875Z" fill="#EF88CF"/>
<circle cx="302.5" cy="707.5" r="22.5" fill="#DD28A4"/>
<path d="M293.195 722.849C296.34 723.878 303.663 723.644 303.663 723.644C303.663 723.644 299.28 721.855 294.162 715.348C285.688 704.577 297.536 702.174 288.524 702.382C284.284 702.48 280.17 718.587 293.195 722.849Z" fill="#EF88CF"/>
<circle cx="22.5" cy="22.5" r="22.5" transform="matrix(-1 0 0 1 384 687)" fill="#DD28A4"/>
<path d="M370.805 724.849C367.66 725.878 360.337 725.644 360.337 725.644C360.337 725.644 364.72 723.855 369.838 717.348C378.312 706.577 366.464 704.174 375.476 704.382C379.716 704.48 383.83 720.587 370.805 724.849Z" fill="#EF88CF"/>
<circle cx="333.103" cy="706.102" r="22.5" transform="rotate(57.1886 333.103 706.102)" fill="#C5188F"/>
<path d="M345.356 715.731C342.888 717.935 336.086 721.443 336.086 720.658C336.086 720.658 343.449 713.241 343.449 709.443C343.449 695.739 338.448 696.332 341.425 695.109C345.349 693.498 355.578 706.603 345.356 715.731Z" fill="#EF88CF"/>
<circle cx="321.5" cy="616.5" r="22.5" fill="#C01C8D"/>
<path d="M305 610.831C305 614.14 307.5 621.028 307.5 621.028C307.5 621.028 308 614.528 310 611.528C317.602 600.125 326 608.528 323 600.028C321.588 596.028 305 597.127 305 610.831Z" fill="#EF88CF"/>
<circle cx="22.5" cy="22.5" r="22.5" transform="matrix(-1 0 0 1 344 627)" fill="#E136AC"/>
<path d="M305 643.831C305 647.14 307.5 654.028 307.5 654.028C307.5 654.028 308 647.528 310 644.528C317.602 633.125 326 641.528 323 633.028C321.588 629.028 305 630.127 305 643.831Z" fill="#EF88CF"/>
<circle cx="22.5" cy="22.5" r="22.5" transform="matrix(-0.885184 -0.465241 -0.465241 0.885184 246.605 922.856)" fill="#DD28A4"/>
<circle cx="22.5" cy="22.5" r="22.5" transform="matrix(-0.885184 -0.465241 -0.465241 0.885184 246.605 922.856)" fill="#DD28A4"/>
<path d="M198.448 935.151C199.607 938.25 203.996 944.52 204.361 943.826C204.361 943.826 201.295 933.834 203.062 930.472C209.437 918.341 213.588 921.193 211.521 918.726C208.798 915.474 193.646 922.315 198.448 935.151Z" fill="#EF88CF"/>
<path d="M290.049 864.916C294.161 884.817 289.998 911.583 283.492 923.603L275.968 919.649C276.84 909.751 281.148 895.12 280.279 883.504C279.223 869.393 259.294 837.454 266.534 833.351C271.706 830.421 286.383 847.173 290.049 864.916Z" fill="#35643A"/>
<path d="M297.672 919.194C284.196 933.011 271.008 932.669 265.636 932.858C263.489 924.763 268.77 906.263 274.838 898.155C283.335 886.805 299.064 883.587 307.384 881.37C306.768 889.707 311.148 905.377 297.672 919.194Z" fill="#4D7E41"/>
<path d="M315.993 942.517C303.345 944.095 296.68 938.484 293.83 936.369C296.057 931.306 306.406 923.934 312.878 922.25C321.94 919.893 331.384 924.714 336.592 926.998C332.838 931.047 328.641 940.939 315.993 942.517Z" fill="#4D7E41"/>
<path d="M309.847 930.155C291.937 936.756 281.4 931.722 276.943 929.945C279.282 922.46 292.901 909.023 301.917 904.487C314.54 898.137 328.936 901.135 336.809 902.294C332.104 908.984 327.757 923.553 309.847 930.155Z" fill="#35643A"/>
<path d="M273.361 893.384C278.929 911.899 272.094 923.453 269.601 928.314C261.365 926.387 247.588 912.932 243.41 903.701C237.561 890.777 246.954 873.869 249.11 865.428C256.192 869.925 267.793 874.868 273.361 893.384Z" fill="#35643A"/>
<circle cx="22.5" cy="22.5" r="22.5" transform="matrix(-0.885184 -0.465241 -0.465241 0.885184 256.227 889.503)" fill="#C5188F"/>
<path d="M213.887 886.233C212.348 889.162 211.356 896.422 211.356 896.422C211.356 896.422 214.822 890.901 217.989 889.176C230.023 882.619 233.547 893.964 234.846 885.044C235.457 880.846 220.263 874.102 213.887 886.233Z" fill="#EF88CF"/>
<circle cx="22.5" cy="22.5" r="22.5" transform="matrix(-0.870675 0.491859 0.491859 0.870675 215.076 937.236)" fill="#C5188F"/>
<path d="M191.227 970.715C192.386 973.814 196.775 980.084 197.14 979.39C197.14 979.39 194.074 969.398 195.84 966.036C202.216 953.905 206.366 956.757 204.3 954.29C201.577 951.038 186.425 957.879 191.227 970.715Z" fill="#EF88CF"/>
<circle cx="319.581" cy="952.738" r="22.5" transform="rotate(27.7258 319.581 952.738)" fill="#C5188F"/>
<path d="M336.836 955.372C335.297 958.301 329.88 963.235 329.88 963.235C329.88 963.235 330.995 954.735 331.083 952.348C331.383 944.255 319.32 943.563 325.93 937.435C329.04 934.551 343.212 943.241 336.836 955.372Z" fill="#EF88CF"/>
<circle cx="280.818" cy="1011.44" r="22.5" transform="rotate(50.7331 280.818 1011.44)" fill="#C5188F"/>
<path d="M295.671 1020.61C293.11 1022.71 286.195 1025.13 286.195 1025.13C286.195 1025.13 289.637 1021.88 292.064 1013.97C296.08 1000.86 284.163 1002.9 292.643 999.84C296.633 998.401 306.281 1011.94 295.671 1020.61Z" fill="#EF88CF"/>
<circle cx="22.5" cy="22.5" r="22.5" transform="matrix(-0.885184 -0.465241 -0.465241 0.885184 276.314 913.617)" fill="#DD28A4"/>
<circle cx="22.5" cy="22.5" r="22.5" transform="matrix(-0.885184 -0.465241 -0.465241 0.885184 278.381 944.076)" fill="#CD299A"/>
<circle cx="22.5" cy="22.5" r="22.5" transform="matrix(-0.885184 -0.465241 -0.465241 0.885184 256.502 964.208)" fill="#CD299A"/>
<circle cx="22.5" cy="22.5" r="22.5" transform="matrix(-0.885184 -0.465241 -0.465241 0.885184 330.232 967.939)" fill="#DD28A4"/>
<path d="M311.041 989.701C308.259 991.492 301.115 993.119 301.115 993.119C301.115 993.119 306.9 988.913 309.119 983.391C314.23 970.675 301.612 970.797 310.383 968.719C314.51 967.741 322.565 982.284 311.041 989.701Z" fill="#EF88CF"/>
<circle cx="22.5" cy="22.5" r="22.5" transform="matrix(-0.885184 -0.465241 -0.465241 0.885184 290.094 984.123)" fill="#DD28A4"/>
<path d="M260.805 1011.49C257.543 1010.94 251.168 1007.32 251.168 1007.32C251.168 1007.32 255.881 1007.78 263.439 1004.4C275.95 998.806 266.581 991.167 274.461 995.544C278.169 997.604 274.317 1013.78 260.805 1011.49Z" fill="#EF88CF"/>
<circle cx="219.955" cy="1037.78" r="22.5" transform="rotate(84.7294 219.955 1037.78)" fill="#E136AC"/>
<path d="M227.116 1053.69C223.822 1053.99 216.733 1052.13 216.733 1052.13C216.733 1052.13 223.16 1051.04 225.963 1048.77C236.619 1040.15 227.481 1032.56 236.22 1034.77C240.333 1035.81 240.762 1052.43 227.116 1053.69Z" fill="#EF88CF"/>
<circle cx="22.5" cy="22.5" r="22.5" transform="matrix(-0.885184 -0.465241 -0.465241 0.885184 288.064 1018.08)" fill="#DD28A4"/>
<path d="M258.775 1045.44C255.513 1044.89 249.139 1041.28 249.139 1041.28C249.139 1041.28 253.851 1041.73 261.409 1038.35C273.92 1032.76 264.551 1025.12 272.431 1029.5C276.139 1031.56 272.287 1047.73 258.775 1045.44Z" fill="#EF88CF"/>
<circle cx="204.523" cy="1001.85" r="22.5" transform="rotate(27.7258 204.523 1001.85)" fill="#DD28A4"/>
<path d="M189.146 1011.1C191.45 1013.48 198.042 1016.68 198.042 1016.68C198.042 1016.68 194.994 1013.06 193.491 1004.91C191.001 991.439 202.607 994.823 194.533 990.815C190.734 988.929 179.599 1001.27 189.146 1011.1Z" fill="#EF88CF"/>
<circle cx="22.5" cy="22.5" r="22.5" transform="matrix(-0.870675 0.491859 0.491859 0.870675 239.764 981.394)" fill="#C5188F"/>
<path d="M215.915 1014.87C217.074 1017.97 221.463 1024.24 221.828 1023.55C221.828 1023.55 218.762 1013.56 220.528 1010.19C226.904 998.064 231.054 1000.92 228.988 998.449C226.265 995.197 211.113 1002.04 215.915 1014.87Z" fill="#EF88CF"/>
<circle cx="22.5" cy="22.5" r="22.5" transform="matrix(-0.885184 -0.465241 -0.465241 0.885184 313.583 928.686)" fill="#C01C8D"/>
<path d="M300.441 940.793C298.902 943.722 293.485 948.656 293.485 948.656C293.485 948.656 296.066 942.67 295.691 939.084C294.267 925.454 282.924 928.984 289.534 922.856C292.645 919.972 306.817 928.662 300.441 940.793Z" fill="#EF88CF"/>
<circle cx="267.845" cy="967.346" r="22.5" transform="rotate(27.7258 267.845 967.346)" fill="#E136AC"/>
<path d="M285.087 970.004C283.548 972.933 278.131 977.867 278.131 977.867C278.131 977.867 280.713 971.881 280.338 968.295C278.913 954.665 267.571 958.195 274.181 952.067C277.291 949.183 291.463 957.873 285.087 970.004Z" fill="#EF88CF"/>
<circle cx="18.8948" cy="18.8948" r="18.8948" transform="matrix(0.941798 -0.336179 -0.336179 -0.941798 340.889 1209.29)" fill="#DD28A4"/>
<circle cx="18.8948" cy="18.8948" r="18.8948" transform="matrix(0.941798 -0.336179 -0.336179 -0.941798 340.889 1209.29)" fill="#DD28A4"/>
<path d="M360.682 1172.54C358.108 1171.5 351.738 1170.64 351.959 1171.26C351.959 1171.26 359.876 1175.05 360.949 1178.06C364.818 1188.89 360.695 1189.84 363.395 1189.96C366.953 1190.13 371.343 1176.88 360.682 1172.54Z" fill="#EF88CF"/>
<path d="M351.979 1269.09C337.345 1260.31 323.174 1242.51 319.448 1231.66L326.17 1229.26C331.79 1235.42 338.379 1246.41 346.051 1252.48C355.37 1259.85 386.438 1265.7 384.855 1272.51C383.725 1277.37 365.027 1276.91 351.979 1269.09Z" fill="#35643A"/>
<path d="M314.108 1242.93C313.235 1226.74 320.947 1218.79 323.885 1215.36C330.108 1218.64 338.536 1232.42 340.093 1240.78C342.274 1252.49 335.316 1264.04 331.954 1270.44C327.153 1265.32 314.981 1259.11 314.108 1242.93Z" fill="#4D7E41"/>
<path d="M289.277 1240.98C295.496 1232.27 302.753 1231.34 305.682 1230.78C307.543 1235.04 306.212 1245.63 303.571 1250.58C299.873 1257.52 291.523 1260.62 287.15 1262.53C286.784 1257.91 283.059 1249.69 289.277 1240.98Z" fill="#4D7E41"/>
<path d="M300.411 1244.21C306.519 1229.39 315.621 1225.75 319.255 1224C322.549 1229.71 323.105 1245.76 320.78 1253.91C317.524 1265.32 307.484 1272.51 302.29 1276.72C300.833 1270.01 294.303 1259.03 300.411 1244.21Z" fill="#35643A"/>
<path d="M343.881 1242.58C329.275 1235.49 326.024 1224.7 324.438 1220.39C330.313 1216.4 346.462 1215.54 354.542 1218.21C365.853 1221.95 370.958 1237.37 374.947 1243.5C368.141 1245.32 358.488 1249.67 343.881 1242.58Z" fill="#35643A"/>
<circle cx="18.8948" cy="18.8948" r="18.8948" transform="matrix(0.941798 -0.336179 -0.336179 -0.941798 356.024 1234.2)" fill="#C5188F"/>
<path d="M382.125 1209.91C381.191 1207.29 377.27 1202.55 377.27 1202.55C377.27 1202.55 378.709 1207.83 377.974 1210.77C375.181 1221.93 366.167 1217.66 370.939 1223.53C373.185 1226.3 385.994 1220.74 382.125 1209.91Z" fill="#EF88CF"/>
<circle cx="18.8948" cy="18.8948" r="18.8948" transform="matrix(0.227793 -0.97371 -0.97371 -0.227793 349.937 1181.63)" fill="#C5188F"/>
<path d="M342.815 1147.86C340.241 1146.81 333.871 1145.95 334.092 1146.58C334.092 1146.58 342.01 1150.36 343.082 1153.37C346.951 1164.21 342.829 1165.15 345.528 1165.27C349.086 1165.44 353.477 1152.19 342.815 1147.86Z" fill="#EF88CF"/>
<circle cx="280.922" cy="1237.38" r="18.8948" transform="rotate(160.356 280.922 1237.38)" fill="#C5188F"/>
<path d="M269.481 1246.55C268.547 1243.93 268.579 1237.78 268.579 1237.78C268.579 1237.78 273.197 1243.3 274.621 1244.71C279.451 1249.5 286.739 1242.44 286.766 1250.01C286.779 1253.57 273.35 1257.39 269.481 1246.55Z" fill="#EF88CF"/>
<circle cx="266.696" cy="1180.05" r="18.8948" transform="rotate(-176.637 266.696 1180.05)" fill="#C5188F"/>
<path d="M252.583 1184.01C252.746 1181.23 255.181 1175.58 255.181 1175.58C255.181 1175.58 255.231 1179.56 258.742 1185.56C264.553 1195.49 270.074 1186.97 267.14 1193.95C265.76 1197.23 251.908 1195.5 252.583 1184.01Z" fill="#EF88CF"/>
<circle cx="18.8948" cy="18.8948" r="18.8948" transform="matrix(0.941798 -0.336179 -0.336179 -0.941798 329.701 1232.9)" fill="#DD28A4"/>
<circle cx="18.8948" cy="18.8948" r="18.8948" transform="matrix(0.941798 -0.336179 -0.336179 -0.941798 309.706 1216.85)" fill="#CD299A"/>
<circle cx="18.8948" cy="18.8948" r="18.8948" transform="matrix(0.941798 -0.336179 -0.336179 -0.941798 309.71 1191.89)" fill="#CD299A"/>
<circle cx="18.8948" cy="18.8948" r="18.8948" transform="matrix(0.941798 -0.336179 -0.336179 -0.941798 265.472 1235.32)" fill="#DD28A4"/>
<path d="M262.941 1211.09C263.417 1208.35 266.475 1203.01 266.475 1203.01C266.475 1203.01 265.783 1208.97 267.933 1213.49C272.883 1223.88 279.984 1216.01 276.279 1222.61C274.536 1225.72 260.97 1222.42 262.941 1211.09Z" fill="#EF88CF"/>
<circle cx="18.8948" cy="18.8948" r="18.8948" transform="matrix(0.941798 -0.336179 -0.336179 -0.941798 278.301 1201.32)" fill="#DD28A4"/>
<path d="M278.052 1167.66C280.249 1165.95 286.107 1164.07 286.107 1164.07C286.107 1164.07 283.146 1166.72 280.934 1173.32C277.274 1184.23 287.322 1182.78 280.136 1185.16C276.755 1186.28 268.954 1174.7 278.052 1167.66Z" fill="#EF88CF"/>
<circle cx="285.042" cy="1127.46" r="18.8948" transform="rotate(-142.641 285.042 1127.46)" fill="#E136AC"/>
<path d="M271.14 1122.84C272.826 1120.63 278.004 1117.31 278.004 1117.31C278.004 1117.31 275.026 1121.9 274.832 1124.92C274.096 1136.41 283.983 1135.08 277.649 1139.22C274.668 1141.17 264.156 1131.99 271.14 1122.84Z" fill="#EF88CF"/>
<circle cx="18.8948" cy="18.8948" r="18.8948" transform="matrix(0.941798 -0.336179 -0.336179 -0.941798 258.477 1180.75)" fill="#DD28A4"/>
<path d="M258.228 1147.09C260.424 1145.39 266.282 1143.51 266.282 1143.51C266.282 1143.51 263.321 1146.16 261.109 1152.75C257.449 1163.66 267.497 1162.22 260.311 1164.6C256.93 1165.72 249.129 1154.14 258.228 1147.09Z" fill="#EF88CF"/>
<circle cx="316.018" cy="1138.36" r="18.8948" transform="rotate(160.356 316.018 1138.36)" fill="#DD28A4"/>
<path d="M319.043 1123.6C316.266 1123.67 310.54 1125.92 310.54 1125.92C310.54 1125.92 314.511 1126.1 320.397 1129.8C330.139 1135.93 321.447 1141.17 328.515 1138.47C331.842 1137.19 330.548 1123.29 319.043 1123.6Z" fill="#EF88CF"/>
<circle cx="18.8948" cy="18.8948" r="18.8948" transform="matrix(0.227793 -0.97371 -0.97371 -0.227793 308.612 1171.77)" fill="#C5188F"/>
<path d="M301.491 1137.99C298.917 1136.95 292.546 1136.09 292.768 1136.71C292.768 1136.71 300.685 1140.5 301.757 1143.51C305.626 1154.34 301.504 1155.29 304.203 1155.41C307.761 1155.58 312.152 1142.33 301.491 1137.99Z" fill="#EF88CF"/>
<circle cx="18.8948" cy="18.8948" r="18.8948" transform="matrix(0.941798 -0.336179 -0.336179 -0.941798 299.194 1247.36)" fill="#C01C8D"/>
<path d="M299.188 1232.35C298.254 1229.74 298.286 1223.58 298.286 1223.58C298.286 1223.58 300.517 1228.58 302.945 1230.39C312.177 1237.26 316.447 1228.25 316.474 1235.81C316.486 1239.38 303.057 1243.19 299.188 1232.35Z" fill="#EF88CF"/>
<circle cx="301.321" cy="1197.11" r="18.8948" transform="rotate(160.356 301.321 1197.11)" fill="#E136AC"/>
<path d="M289.872 1206.25C288.938 1203.64 288.97 1197.48 288.97 1197.48C288.97 1197.48 291.201 1202.48 293.63 1204.29C302.861 1211.16 307.131 1202.15 307.158 1209.71C307.17 1213.28 293.741 1217.09 289.872 1206.25Z" fill="#EF88CF"/>
<circle cx="169.5" cy="1538.5" r="41.5" fill="#D539CA"/>
<path d="M296 1287C222.182 1308.43 171.167 1343.83 146.5 1386.5C130.313 1414.5 96.3932 1473.79 156 1483C217.5 1492.5 270.732 1422.06 322 1426C380.5 1430.5 482 1513 482 1555C482 1597 376.219 1505.57 328.5 1542C263 1592 574 1779.7 736 1807C1092 1867 1254 1741 1354 1673C1560.44 1532.62 1860.07 1435.53 1836 1391C1796 1317 1654 1461 1636 1431C1606.14 1381.24 1935.99 1221.66 1796 1175C1748 1159 1500 1405 1480 1391C1460 1377 1600 1303 1620 1235C1640 1167 1536 1251 1500 1287C1464 1323 1236.57 1579.45 1012 1591C662 1609 544 1215 296 1287Z" fill="url(#paint4_linear_7_2)"/>
<ellipse cx="1775.71" cy="1061.24" rx="39.5" ry="60.5" transform="rotate(34.2742 1775.71 1061.24)" fill="#F567DE"/>
<path d="M366 1278C289.2 1270.8 208 1322.33 177 1349C220.667 1338.67 343.405 1316.8 394 1326C482 1342 626 1459 700 1485C636.667 1431 498 1290.37 366 1278Z" fill="#FF8CDB"/>
<ellipse cx="398.969" cy="1342.66" rx="80" ry="40" transform="rotate(20.6643 398.969 1342.66)" fill="#FF8CDB"/>
<path d="M1038 1589C950 1589 831.333 1562.33 790 1545C842 1573 890.96 1678.74 1088 1633C1200 1607 1340.67 1465.67 1410 1385C1318 1447 1206.89 1589 1038 1589Z" fill="#FF8CDB"/>
</svg>
