<?xml version="1.0" encoding="UTF-8" standalone="no"?>
<!-- Created with Inkscape (http://www.inkscape.org/) -->

<svg
   xmlns:dc="http://purl.org/dc/elements/1.1/"
   xmlns:cc="http://creativecommons.org/ns#"
   xmlns:rdf="http://www.w3.org/1999/02/22-rdf-syntax-ns#"
   xmlns:svg="http://www.w3.org/2000/svg"
   xmlns="http://www.w3.org/2000/svg"
   xmlns:sodipodi="http://sodipodi.sourceforge.net/DTD/sodipodi-0.dtd"
   xmlns:inkscape="http://www.inkscape.org/namespaces/inkscape"
   version="1.1"
   id="svg2"
   width="797.33331"
   height="290.66666"
   viewBox="0 0 797.33331 290.66666"
   sodipodi:docname="Simplex-Nuvei-Logo.svg"
   inkscape:version="0.92.5 (2060ec1f9f, 2020-04-08)">
  <metadata
     id="metadata8">
    <rdf:RDF>
      <cc:Work
         rdf:about="">
        <dc:format>image/svg+xml</dc:format>
        <dc:type
           rdf:resource="http://purl.org/dc/dcmitype/StillImage" />
        <dc:title></dc:title>
      </cc:Work>
    </rdf:RDF>
  </metadata>
  <defs
     id="defs6" />
  <sodipodi:namedview
     pagecolor="#ffffff"
     bordercolor="#666666"
     borderopacity="1"
     objecttolerance="10"
     gridtolerance="10"
     guidetolerance="10"
     inkscape:pageopacity="0"
     inkscape:pageshadow="2"
     inkscape:window-width="2433"
     inkscape:window-height="1039"
     id="namedview4"
     showgrid="false"
     inkscape:zoom="0.87040136"
     inkscape:cx="469.71272"
     inkscape:cy="275.98726"
     inkscape:window-x="72"
     inkscape:window-y="0"
     inkscape:window-maximized="0"
     inkscape:current-layer="svg2" />
  <path
     style="fill:#e40046;stroke-width:1.33333325;fill-opacity:1"
     d="m 785.0292,226.02914 c -1.799,-2.74566 -1.9298,-4.0247 -0.6895,-6.74669 1.3002,-2.85376 2.2808,-3.29658 6.5224,-2.94537 4.5785,0.37909 5.0273,0.77962 5.4165,4.83377 0.2333,2.43124 -0.2901,5.28124 -1.1633,6.33333 -2.5279,3.04599 -7.6109,2.30263 -10.0861,-1.47504 z M 124.35434,39.498519 c -11.90422,-8.089127 -12.24198,-26.472494 -0.65311,-35.5464665 5.69338,-4.45786203 16.37923,-5.045403 23.02932,-1.266223 7.19287,4.087632 10.18063,8.7102585 10.85048,16.7876965 1.1458,13.816817 -7.41334,23.276906 -21.06009,23.276906 -5.62675,0 -8.51836,-0.772876 -12.1666,-3.251913 z"
     id="path12"
     inkscape:connector-curvature="0"
     sodipodi:nodetypes="cccccccssssc" />
  <path
     style="fill:#000000;stroke-width:1.33333325"
     d="m 552.36256,283.36248 c 0,-2.60792 0.68044,-3.33334 3.12668,-3.33334 3.75651,0 7.53999,-3.82936 7.53999,-7.63141 0,-1.51513 -3.3,-10.73496 -7.33334,-20.48852 -4.03333,-9.75356 -7.33333,-18.21667 -7.33333,-18.80691 0,-0.59024 1.99911,-1.07316 4.44245,-1.07316 4.40215,0 4.48835,0.1212 9.50144,13.35855 2.78244,7.34719 5.45658,13.60425 5.94252,13.90459 0.48595,0.30033 3.23898,-5.71102 6.11787,-13.35855 5.18256,-13.76708 5.27765,-13.90459 9.61503,-13.90459 2.40937,0 4.38069,0.48226 4.38069,1.07168 0,0.58943 -4.243,11.53943 -9.42888,24.33334 -10.47103,25.83273 -12.96841,29.26165 -21.31213,29.26165 -4.7207,0 -5.25899,-0.34119 -5.25899,-3.33333 z M 517.20904,269.2657 c -2.91224,-2.29077 -3.51315,-2.4048 -3.51315,-0.66666 0,1.44085 -1.25128,2.09677 -3.99999,2.09677 h -4 v -26.66667 -26.66665 h 4 3.99999 v 9.31373 9.31372 l 4.33334,-2.64208 c 5.30393,-3.23385 10.43481,-3.36171 16.6451,-0.41474 12.57463,5.96705 12.7231,30.70017 0.22311,37.16417 -5.45992,2.82344 -13.52375,2.44433 -17.6884,-0.83159 z m 15.18788,-8.90322 c 2.35075,-2.97778 2.77697,-4.90328 2.26861,-10.24858 -1.01185,-10.6394 -9.55112,-14.87302 -17.45649,-8.65465 -3.08255,2.42473 -3.51315,3.72285 -3.51315,10.59107 0,6.57734 0.47332,8.15914 2.96335,9.90322 4.91331,3.44142 12.35915,2.68866 15.73768,-1.59106 z M 664.848,270.46969 c -4.62026,-2.23717 -5.81878,-7.00959 -5.81878,-23.16995 v -15.2706 h 6 6 v 10.57987 c 0,5.81893 0.56563,12.06759 1.25696,13.88591 1.66876,4.38918 6.01392,5.65198 10.14166,2.9474 3.08796,-2.02334 3.26806,-2.83755 3.26806,-14.77724 v -12.63594 h 6 6 v 19.33334 19.33333 h -6 c -4.238,0 -6,-0.54513 -6,-1.85627 0,-1.46638 -1.0394,-1.32636 -4.9486,0.66667 -5.40013,2.75315 -11.44653,3.11955 -15.8993,0.96348 z m 85.1362,-1.09147 c -4.3604,-1.97904 -6.325,-3.94366 -8.3041,-8.30405 -3.335,-7.34811 -3.3109,-12.17291 0.096,-19.21059 4.7684,-9.85005 17.9432,-13.96921 27.9407,-8.73578 5.193,2.7184 10.6459,11.86154 10.6459,17.85053 v 3.71748 h -14 c -7.7,0 -14,0.50701 -14,1.12668 0,1.66849 4.2493,5.09759 7.5688,6.10773 1.5961,0.48574 5.0077,0.004 7.5812,-1.0719 4.5142,-1.88615 4.7563,-1.83742 6.8659,1.38225 2.9285,4.46948 1.9485,6.31099 -4.3652,8.20261 -7.4905,2.24422 -13.4344,1.92818 -20.0291,-1.06496 z m 17.1271,-25.1957 c -2.6669,-4.98314 -11.9101,-4.66606 -13.8834,0.47625 -0.6476,1.68777 0.5909,2.03704 7.2234,2.03704 7.4291,0 7.9083,-0.18084 6.66,-2.51329 z m -149.41541,7.17996 v -19.33334 h 6 c 4.44789,0 6,0.51804 6,2.00259 0,1.66224 0.84641,1.54895 4.98025,-0.66667 2.73915,-1.46809 6.66894,-2.66924 8.73288,-2.66924 4.65463,0 11.02084,3.18158 12.1253,6.05972 0.45553,1.18711 0.82824,9.3093 0.82824,18.04932 v 15.89095 h -6 -6 V 258.2358 c 0,-10.61235 -0.38127,-12.80507 -2.57112,-14.78686 -1.75924,-1.59209 -3.54859,-2.02684 -5.66667,-1.37678 -5.93675,1.82198 -6.42888,3.05601 -6.42888,16.12024 v 12.50341 h -6 -6 z m 95.44801,18.18554 c -2.0625,-3.33726 -12.7813,-32.61501 -12.7813,-34.91145 0,-2.17984 0.9319,-2.60743 5.6828,-2.60743 h 5.6829 l 3.902,11.25659 c 2.146,6.19113 4.319,10.99884 4.8287,10.6838 0.5098,-0.31504 2.6004,-5.38051 4.646,-11.2566 l 3.7191,-10.68379 h 6.4359 c 3.5397,0 6.4323,0.45 6.4279,1 0,0.55 -3.1839,9.1 -7.0654,19 l -7.0573,18 -6.8155,0.39888 c -3.7485,0.21939 -7.1711,-0.17661 -7.6058,-0.88 z m 69.8853,-18.18554 v -19.33334 h 6 6 v 19.33334 19.33333 h -6 -6 z M 372.36257,134.69582 V 52.02916 h 19.33333 19.33333 v 6.13812 6.13813 l 4.70373,-4.12994 c 10.5474,-9.26074 24.4038,-13.08556 38.97368,-10.75801 26.89726,4.29686 42.2916,24.38254 43.90008,57.27836 1.22411,25.03478 -4.63209,42.51699 -18.56269,55.41427 -6.23869,5.77592 -9.6518,7.77412 -17.18981,10.06372 -17.50572,5.3172 -34.61887,1.93937 -46.72588,-9.22285 l -5.76578,-5.31583 0.46191,29.86368 0.46192,29.86368 h -19.46192 -19.4619 z m 68.66666,5.18662 c 3.31185,-0.90984 7.43647,-3.64879 10.88208,-7.22624 13.41396,-13.92722 9.71121,-39.26103 -6.91468,-47.30949 -8.35727,-4.04568 -18.11716,-3.25662 -26.90811,2.17546 l -6.39262,3.95011 -0.37108,19.13174 c -0.40826,21.04839 -0.0876,22.06243 8.3593,26.43046 8.52487,4.40838 13.33094,5.04962 21.34511,2.84796 z M 34.362583,172.72269 c -4.4,-0.96863 -11.3,-3.0638 -15.33334,-4.65593 -7.22766,-2.8531 -19.99999,-10.31535 -19.99999,-11.68503 0,-0.64356 11.79414,-21.42021 14.41491,-25.39343 0.86027,-1.30421 2.99133,-0.58418 9.02236,3.04842 8.29972,4.99909 20.00456,9.1455 30.08306,10.65686 11.51899,1.72739 22.95943,-4.1186 19.75982,-10.09712 -1.57731,-2.94722 -6.00807,-4.33089 -25.28016,-7.89461 C 17.561163,121.25272 5.809853,112.145 3.561193,93.01243 1.649683,76.7484 10.897933,61.37578 26.919603,54.18568 c 15.17038,-6.80806 37.83079,-7.11508 56.92106,-0.7712 9.6907,3.22032 20.878177,10.01112 20.280737,12.31043 -0.23402,0.90067 -3.37934,7.11612 -6.989587,13.81211 l -6.5641,12.17454 -5.35583,-3.87975 c -15.64626,-11.33409 -44.8493,-11.91773 -44.8493,-0.89633 0,3.21688 2.95424,4.27485 23.62238,8.45968 25.10136,5.08245 34.472857,9.96708 41.223847,21.48679 5.16036,8.80548 5.94011,22.60858 1.81842,32.18969 -7.09168,16.48505 -26.102537,25.68948 -52.664647,25.49848 -6.6,-0.0475 -15.6,-0.8788 -20,-1.84743 z m 567.333307,1.13668 c -32.00756,-6.19831 -50.95752,-29.15792 -51.03224,-61.83021 -0.0338,-14.78787 3.06608,-25.58157 10.6118,-36.94968 16.21276,-24.42555 52.80966,-33.58632 80.42044,-20.13048 20.86176,10.16677 33.33333,32.12683 33.33333,58.69362 v 10.38654 h -41.06666 c -31.01931,0 -41.50024,-0.40777 -42.83881,-1.66667 -1.45932,-1.37247 -1.61346,-0.96059 -0.87316,2.33333 2.75757,12.2698 17.15777,20.4888 33.01802,18.84527 8.3956,-0.87001 20.136,-4.89837 23.71456,-8.13692 2.16152,-1.95615 2.88573,-1.24493 10.51705,10.32824 4.50762,6.83599 8.19567,12.76956 8.19567,13.18572 0,1.88301 -11.54904,8.09493 -20.97088,11.27967 -8.17071,2.76181 -13.46459,3.58773 -25.02912,3.90486 -8.06666,0.22122 -16.16666,0.11174 -18,-0.24329 z M 637.9533,95.36249 c -0.53742,-3.50176 -4.2082,-8.51106 -8.68749,-11.85533 -4.35057,-3.24818 -18.39814,-4.51157 -25.20081,-2.26648 -5.57947,1.84139 -12.53085,8.82141 -13.76245,13.81914 l -0.91114,3.69734 24.48558,-0.364 c 23.63233,-0.35132 24.4713,-0.45693 24.07631,-3.03067 z m -521.59073,16.66667 v -60 h 18.66667 18.66667 v 60 60 h -18.66667 -18.66667 z m 52,0 v -60 h 19.33333 19.33334 v 4.57987 c 0,2.51893 -0.63739,6.25631 -1.4164,8.30529 -1.3562,3.56705 -1.20287,3.51189 3.60646,-1.29745 19.41055,-19.41054 56.51202,-19.6531 67.76986,-0.44305 l 3.36413,5.74046 6.19689,-5.93768 c 18.98153,-18.1875 53.48313,-19.09932 64.89537,-1.71507 6.03128,9.18742 6.25035,11.37098 6.25035,62.29992 v 48.46771 h -18.66667 -18.66666 l -0.008,-37 c -0.004,-20.5529 -0.60015,-39.13373 -1.34082,-41.80012 -1.79337,-6.45608 -5.36997,-9.38297 -12.43953,-10.17981 -7.82781,-0.88231 -13.91113,1.29777 -19.92747,7.14142 l -4.95085,4.8093 v 38.51461 38.5146 h -18.66666 -18.66667 l -0.003,-38.33334 C 244.35857,99.86469 244.08369,94.81658 242.02624,90.71437 236.66909,80.03321 221.95053,79.9 210.69497,90.43083 l -3.66666,3.43057 v 39.08388 39.08388 H 187.6953 168.36197 v -60 z M 505.6959,88.65922 V 5.28928 l 18.99999,0.36994 19,0.36994 0.34343,83 0.34343,83 H 525.03932 505.6959 Z m 159.99999,82.68159 c 0,-0.3786 9,-14.16884 20.00001,-30.64499 11,-16.47614 20,-30.22794 20,-30.55955 0,-0.33161 -7.9917,-12.79137 -17.7593,-27.68835 -9.76755,-14.89698 -18.20295,-27.83543 -18.74531,-28.75209 -0.77215,-1.30504 3.58745,-1.66131 20.09261,-1.64196 l 21.0787,0.0247 10.6501,16.96654 c 7.5749,12.06762 10.7868,16.1991 11.1235,14.30862 0.2604,-1.46185 4.4597,-9.10791 9.3317,-16.99125 l 8.8582,-14.33333 h 21.0969 c 16.5223,0 20.88,0.3614 20.0964,1.66667 -0.5503,0.91666 -8.9857,13.85358 -18.7453,28.74869 -9.7597,14.89511 -17.7449,27.35487 -17.7449,27.68835 0,0.33348 9,14.08681 20,30.56295 11,16.47615 20,30.28163 20,30.67884 0,0.39722 -9.4115,0.55698 -20.9144,0.35502 l -20.9145,-0.36719 -11.2959,-17.78227 -11.296,-17.78226 -11.791,18.1156 -11.7911,18.1156 h -20.6652 c -11.36586,0 -20.66521,-0.30976 -20.66521,-0.68835 z"
     id="path12-3"
     inkscape:connector-curvature="0"
     sodipodi:nodetypes="sssssssccssssssssccccccccssscscsccsscccsccscccccsssscccsscssccscccccscccsscscscccsscscccccsscccccscccccccccccccccccccccssssscccccccssscsccscsccccsssscscssscscsscssscscccscsccscccscsccccccccccccccsccscccsccccssccccccccscccccccccccccccccssccscccccsccsssscscccscc" />
</svg>
