<svg width="2000" height="2000" viewBox="0 0 2000 2000" fill="none" xmlns="http://www.w3.org/2000/svg">
<g clip-path="url(#clip0_1121_22820)">
<path d="M566.272 573.172C538.257 790.359 478.428 855.536 299.372 991.89C189.802 1075.33 115.376 1234.87 158.333 1373.98C215.634 1559.55 488 1858 844 1718C1144.84 1599.69 1249.12 1716.65 1534.73 1584.22C1815.95 1453.82 1806.65 970.422 1628 678.001C1418.24 334.661 1280.85 255.909 1100 222C844 174 594.873 351.44 566.272 573.172Z" fill="url(#paint0_linear_1121_22820)"/>
<path d="M1578 1812.22C1385.57 1977.02 997.518 1925.91 1026 1777.87C1054.49 1629.84 1296 1842 1728 1502C1807.35 1439.55 1660 1742 1578 1812.22Z" fill="url(#paint1_linear_1121_22820)"/>
<circle cx="366.064" cy="545.064" r="161.064" fill="url(#paint2_linear_1121_22820)"/>
<circle cx="283.945" cy="851.945" r="81.9448" fill="url(#paint3_linear_1121_22820)"/>
<path d="M999.841 1564.31C1311.41 1564.31 1563.99 1311.73 1563.99 1000.15C1563.99 688.58 1311.41 436 999.841 436C688.268 436 435.688 688.58 435.688 1000.15C435.688 1311.73 688.268 1564.31 999.841 1564.31Z" fill="#10A87D"/>
<path d="M1005.08 1483.71C1269.25 1483.71 1483.4 1269.56 1483.4 1005.39C1483.4 741.222 1269.25 527.07 1005.08 527.07C740.91 527.07 526.759 741.222 526.759 1005.39C526.759 1269.56 740.91 1483.71 1005.08 1483.71Z" fill="#0AC18E"/>
<path d="M1005.08 1488.71C1272.01 1488.71 1488.4 1272.32 1488.4 1005.39C1488.4 738.461 1272.01 522.07 1005.08 522.07C738.149 522.07 521.759 738.461 521.759 1005.39C521.759 1272.32 738.149 1488.71 1005.08 1488.71Z" stroke="white" stroke-opacity="0.32" stroke-width="10"/>
<path d="M1154.14 845.057C1130.11 790.57 1074.9 778.921 1007.31 790.206L985.584 705.988L934.374 719.216L955.732 803.191C942.262 806.589 928.428 809.501 914.715 813.384L893.358 729.895L842.148 743.122L863.87 827.34C852.827 830.495 760.479 854.159 760.479 854.159L774.556 909.009C774.556 909.009 812.175 898.452 811.811 899.301C832.683 893.841 842.512 904.277 847.123 914.106L906.828 1144.92C907.556 1151.59 906.342 1163 892.023 1166.88C892.872 1167.37 854.768 1176.47 854.768 1176.47L860.35 1240.42C860.35 1240.42 951.848 1217 963.862 1213.97L985.826 1299.15L1037.04 1285.93L1015.07 1200.13C1029.15 1196.86 1042.86 1193.46 1056.21 1189.94L1078.05 1275.25L1129.26 1262.02L1107.3 1176.95C1186.18 1157.78 1241.87 1108.03 1230.47 1031.94C1223.19 986.068 1173.07 948.449 1131.45 944.201C1157.05 921.509 1170.04 888.38 1154.14 845.057ZM1129.5 1045.89C1139.7 1121.25 1034.97 1130.48 1000.39 1139.58L970.294 1026.84C1005 1017.74 1112.27 979.515 1129.5 1045.89ZM1066.4 892.384C1077.2 959.37 987.647 967.137 958.765 974.539L931.34 872.24C960.343 865.08 1044.44 830.374 1066.4 892.384Z" fill="white"/>
</g>
<defs>
<linearGradient id="paint0_linear_1121_22820" x1="1552" y1="1186" x2="993.009" y2="1503.71" gradientUnits="userSpaceOnUse">
<stop stop-color="#E7AB59"/>
<stop offset="1" stop-color="#F36B43"/>
</linearGradient>
<linearGradient id="paint1_linear_1121_22820" x1="1426.05" y1="1725.56" x2="2002.33" y2="1710.42" gradientUnits="userSpaceOnUse">
<stop stop-color="#F36D44"/>
<stop offset="1" stop-color="#E8AC5A"/>
</linearGradient>
<linearGradient id="paint2_linear_1121_22820" x1="366.064" y1="384" x2="366.064" y2="706.128" gradientUnits="userSpaceOnUse">
<stop stop-color="#F36F45"/>
<stop offset="1" stop-color="#E8AC5A"/>
</linearGradient>
<linearGradient id="paint3_linear_1121_22820" x1="283.945" y1="770" x2="283.945" y2="933.89" gradientUnits="userSpaceOnUse">
<stop stop-color="#F36F45"/>
<stop offset="1" stop-color="#E8AC5A"/>
</linearGradient>
<clipPath id="clip0_1121_22820">
<rect width="2000" height="2000" fill="white"/>
</clipPath>
</defs>
</svg>
