<svg width="2000" height="2000" viewBox="0 0 2000 2000" fill="none" xmlns="http://www.w3.org/2000/svg">
<path d="M1486.55 777.857C1290.18 680.946 1247.92 603.219 1176.97 389.629C1133.56 258.927 1006.77 136.8 861.24 132.338C667.118 126.387 296.487 287.289 313.516 669.449C327.906 992.395 183.458 1053.13 216.147 1366.24C248.334 1674.55 708.643 1822.46 1043.19 1748.26C1435.98 1661.14 1555.02 1556.69 1645.73 1396.61C1774.13 1169.99 1687.04 876.796 1486.55 777.857Z" fill="url(#paint0_linear_1121_22840)"/>
<circle cx="1393.06" cy="366.064" r="161.064" fill="url(#paint1_linear_1121_22840)"/>
<circle cx="1564.06" cy="1564.06" r="161.064" fill="url(#paint2_linear_1121_22840)"/>
<circle cx="1553.94" cy="608.945" r="81.9448" fill="url(#paint3_linear_1121_22840)"/>
<path d="M1000.16 1564.31C1311.73 1564.31 1564.31 1311.73 1564.31 1000.16C1564.31 688.581 1311.73 436 1000.16 436C688.581 436 436 688.581 436 1000.16C436 1311.73 688.581 1564.31 1000.16 1564.31Z" fill="#EE8F1D"/>
<path d="M1467.99 1116.04C1404.96 1367.32 1148.89 1520.25 896.038 1457.58C643.292 1394.94 489.43 1140.41 552.487 889.154C615.489 637.844 871.556 484.908 1124.33 547.553C1377.16 610.199 1531.02 864.75 1467.98 1116.04L1467.98 1116.04H1467.99Z" fill="#F7931A"/>
<path d="M1472.84 1117.26L1474.39 1111.04H1474.35C1534 859.071 1378.94 605.488 1125.53 542.7C870.108 479.398 611.315 633.931 547.638 887.936C483.901 1141.91 639.428 1399.13 894.835 1462.44L896.038 1457.58L894.835 1462.44C1150.34 1525.76 1409.13 1371.23 1472.84 1117.26Z" stroke="#FFBA67" stroke-opacity="0.48" stroke-width="10"/>
<path d="M1219.48 932.41C1229 868.756 1180.54 834.539 1114.27 811.713L1135.77 725.488L1083.28 712.409L1062.36 796.364C1048.56 792.923 1034.39 789.68 1020.3 786.465L1041.38 701.956L988.926 688.877L967.416 775.074C955.997 772.474 944.782 769.905 933.901 767.198L933.962 766.926L861.579 748.851L847.617 804.912C847.617 804.912 886.559 813.838 885.738 814.388C906.993 819.693 910.836 833.763 910.198 844.915L885.71 943.146C887.174 943.518 889.072 944.055 891.167 944.897C889.416 944.462 887.552 943.988 885.619 943.525L851.295 1081.13C848.697 1087.59 842.104 1097.28 827.244 1093.6C827.77 1094.36 789.095 1084.08 789.095 1084.08L763.035 1144.16L831.34 1161.19C844.047 1164.38 856.499 1167.71 868.762 1170.85L847.042 1258.06L899.469 1271.14L920.979 1184.85C935.301 1188.74 949.201 1192.33 962.808 1195.71L941.371 1281.59L993.861 1294.67L1015.58 1207.62C1105.08 1224.55 1172.38 1217.73 1200.71 1136.77C1223.53 1071.59 1199.57 1034 1152.48 1009.48C1186.78 1001.57 1212.61 979.013 1219.5 932.417L1219.48 932.405L1219.48 932.41ZM1099.56 1100.57C1083.34 1165.75 973.598 1130.52 938.018 1121.68L966.841 1006.14C1002.42 1015.02 1116.51 1032.6 1099.56 1100.57H1099.56ZM1115.79 931.465C1101 990.752 1009.66 960.632 980.027 953.246L1006.16 848.455C1035.79 855.84 1131.21 869.625 1115.8 931.465H1115.79Z" fill="white"/>
<defs>
<linearGradient id="paint0_linear_1121_22840" x1="587.262" y1="1511.68" x2="467.931" y2="879.882" gradientUnits="userSpaceOnUse">
<stop stop-color="#E7AB59"/>
<stop offset="1" stop-color="#F36B43"/>
</linearGradient>
<linearGradient id="paint1_linear_1121_22840" x1="1393.06" y1="205" x2="1393.06" y2="527.128" gradientUnits="userSpaceOnUse">
<stop stop-color="#F36F45"/>
<stop offset="1" stop-color="#E8AC5A"/>
</linearGradient>
<linearGradient id="paint2_linear_1121_22840" x1="1564.06" y1="1403" x2="1564.06" y2="1725.13" gradientUnits="userSpaceOnUse">
<stop stop-color="#F36F45"/>
<stop offset="1" stop-color="#E8AC5A"/>
</linearGradient>
<linearGradient id="paint3_linear_1121_22840" x1="1553.94" y1="527" x2="1553.94" y2="690.89" gradientUnits="userSpaceOnUse">
<stop stop-color="#F36F45"/>
<stop offset="1" stop-color="#E8AC5A"/>
</linearGradient>
</defs>
</svg>
