<svg width="2000" height="2000" viewBox="0 0 2000 2000" fill="none" xmlns="http://www.w3.org/2000/svg">
<defs>
<linearGradient id="paint0_linear_1123_22887" x1="1173.93" y1="333.458" x2="1522.37" y2="873.825" gradientUnits="userSpaceOnUse">
<stop stop-color="#E7AB59"/>
<stop offset="1" stop-color="#F36B43"/>
</linearGradient>
<linearGradient id="paint1_linear_1123_22887" x1="481.787" y1="1353.72" x2="481.787" y2="1675.85" gradientUnits="userSpaceOnUse">
<stop stop-color="#F36F45"/>
<stop offset="1" stop-color="#E8AC5A"/>
</linearGradient>
<linearGradient id="paint2_linear_1123_22887" x1="1706.79" y1="377.723" x2="1706.79" y2="699.851" gradientUnits="userSpaceOnUse">
<stop stop-color="#F36F45"/>
<stop offset="1" stop-color="#E8AC5A"/>
</linearGradient>
<linearGradient id="paint3_linear_1123_22887" x1="713.312" y1="1619.37" x2="713.312" y2="1783.26" gradientUnits="userSpaceOnUse">
<stop stop-color="#F36F45"/>
<stop offset="1" stop-color="#E8AC5A"/>
</linearGradient>
<clipPath id="clip0_1123_22887">
<rect width="2000" height="2000" fill="white"/>
</clipPath>
</defs>
<g clip-path="url(#clip0_1123_22887)">
<path d="M617.135 1351.89C835.549 1367.72 903.966 1423.82 1050.11 1594.98C1139.54 1699.71 1302.99 1765.11 1439.49 1714.45C1680.85 1624.86 1904.33 1358.25 1744.66 1010.63C1609.73 716.868 1720.68 606.217 1572.49 328.454C1426.58 54.9532 944.459 91.2516 662.477 285.961C331.393 514.574 260.441 656.154 236.69 838.615C203.069 1096.9 394.152 1335.72 617.135 1351.89Z" fill="url(#paint0_linear_1123_22887)"/>
<circle cx="481.787" cy="1514.79" r="161.064" transform="rotate(118.847 481.787 1514.79)" fill="url(#paint1_linear_1123_22887)"/>
<circle cx="1706.79" cy="538.787" r="161.064" transform="rotate(118.847 1706.79 538.787)" fill="url(#paint2_linear_1123_22887)"/>
<circle cx="713.312" cy="1701.31" r="81.9448" transform="rotate(118.847 713.312 1701.31)" fill="url(#paint3_linear_1123_22887)"/>
<circle cx="1000.16" cy="1000.16" r="564.155" fill="#C29E46"/>
<path d="M1000.16 1503.86C1278.35 1503.86 1503.86 1278.35 1503.86 1000.16C1503.86 721.964 1278.35 496.445 1000.16 496.445C721.964 496.445 496.445 721.964 496.445 1000.16C496.445 1278.35 721.964 1503.86 1000.16 1503.86Z" fill="#988430"/>
<path d="M1000.16 1487.73C1269.44 1487.73 1487.73 1269.44 1487.73 1000.15C1487.73 730.875 1269.44 512.58 1000.16 512.58C730.875 512.58 512.581 730.875 512.581 1000.15C512.581 1269.44 730.875 1487.73 1000.16 1487.73Z" fill="#7A6A2A"/>
<path d="M1000.16 1477.46C1263.76 1477.46 1477.46 1263.76 1477.46 1000.16C1477.46 736.549 1263.76 522.854 1000.16 522.854C736.549 522.854 522.854 736.549 522.854 1000.16C522.854 1263.76 736.549 1477.46 1000.16 1477.46Z" fill="#BA9F33"/>
<path fill-rule="evenodd" clip-rule="evenodd" d="M716.675 946.362C713.822 943.756 710.808 941.145 708.036 938.539C705.263 935.933 702.416 933.322 699.563 930.716L691.084 922.657C689.698 921.27 688.231 920.051 686.845 918.659C685.459 917.439 683.831 916.053 682.445 914.828C671.194 904.152 659.878 893.476 648.783 882.795C660.276 893.31 671.527 903.749 683.019 914.42L687.012 918.417C688.398 919.798 689.865 921.023 691.251 922.409L699.724 930.232C702.577 932.838 705.349 935.449 708.202 938.292C711.055 941.134 713.828 943.751 716.681 946.351L716.675 946.362ZM567.357 944.75C567.357 944.75 608.272 948.984 628.243 951.837C646.742 954.448 704.613 963.329 704.613 963.329L567.357 944.75ZM567.357 944.75C578.85 945.728 590.342 946.947 601.835 948.172C607.702 948.742 613.328 949.392 618.953 949.962L627.587 950.945C630.44 951.348 633.213 951.756 636.066 952.164L670.302 957.623L687.414 960.476C693.04 961.454 698.665 962.518 704.533 963.496C698.907 962.926 693.04 962.11 687.414 961.293L670.302 958.848L636.066 953.798C633.213 953.39 630.44 952.815 627.587 952.412L618.948 951.418C613.322 950.848 607.455 950.031 601.829 949.376C590.337 947.995 578.844 946.523 567.352 944.734L567.357 944.75ZM700.54 973.989C700.54 973.989 656.853 985.079 642.099 989.318C627.593 993.31 583.658 1006.68 583.658 1006.68L700.535 973.995L700.54 973.989Z" fill="#CFB66C"/>
<path fill-rule="evenodd" clip-rule="evenodd" d="M700.535 973.988C690.837 976.841 681.192 979.614 671.355 982.225L642.174 990.048C632.476 992.901 622.832 995.673 613.161 998.526L598.654 1002.52C593.845 1003.9 588.956 1005.12 583.986 1006.52C588.789 1004.9 593.684 1003.25 598.493 1001.87L613 997.226C622.698 994.207 632.342 991.354 642.013 988.339C651.872 985.895 661.576 983.283 671.435 980.919C680.806 978.555 690.67 976.197 700.535 973.994V973.988ZM589.772 1033.57C594.576 1031.78 650.003 1005.95 662.882 999.913C669.329 996.893 688.07 990.241 688.07 990.241L589.772 1033.57Z" fill="#CFB66C"/>
<path fill-rule="evenodd" clip-rule="evenodd" d="M589.773 1033.58C594.007 1031.96 598.005 1029.99 602.077 1028.12L614.14 1022.49L638.35 1010.84C646.409 1007.01 654.243 1002.78 662.555 999.178C666.794 997.389 671.033 995.922 675.267 994.536L681.715 992.5C683.912 991.93 685.954 991.275 688.162 990.705C680.103 994.536 671.619 997.797 663.549 1001.54C655.489 1005.54 647.247 1008.8 638.93 1012.38L614.317 1023.22C606.053 1026.57 597.994 1030.15 589.768 1033.58H589.773ZM595.146 1056.14C595.146 1056.14 645.351 1026.72 662.63 1017.26C671.678 1012.21 700.939 997.701 700.939 997.701L595.146 1056.14Z" fill="#CFB66C"/>
<path fill-rule="evenodd" clip-rule="evenodd" d="M595.15 1056.15C603.623 1050.94 612.263 1045.64 620.903 1040.26L633.798 1032.43C638.198 1029.83 642.437 1027.38 646.924 1024.78C651.324 1022.16 655.563 1019.56 660.044 1017.11C662.178 1015.8 664.413 1014.65 666.728 1013.69L673.573 1010.27C682.621 1005.87 691.669 1001.38 701.206 997.551C692.567 1003.02 683.68 1007.66 674.798 1012.47C670.398 1014.91 665.912 1017.11 661.511 1019.56C657.111 1022 652.872 1024.61 648.385 1026.98C643.985 1029.58 639.745 1032.03 635.264 1034.39L621.977 1041.65L595.161 1056.15H595.15ZM700.535 1004.15C700.535 1004.15 669.318 1028.11 659.212 1035.77C649.105 1043.44 619.355 1064.95 619.355 1064.95L700.535 1004.15Z" fill="#CFB66C"/>
<path fill-rule="evenodd" clip-rule="evenodd" d="M879.688 1197.4L863.715 1167.16L873.005 1129.34L939.269 1103.75L911.066 1045.88L925.004 987.443L951.17 935.111L1032.03 922.399L1091.44 865.752L1219.73 875.45L1244.92 1012.63L1196.42 1185.34L1168.79 1274.75L1056.8 1278.99L1004.8 1242.97L943.916 1217.53L879.688 1197.4Z" fill="#E2CC85"/>
<path fill-rule="evenodd" clip-rule="evenodd" d="M1076.12 1196.42C1076.12 1196.42 1060.63 1203.51 1034.21 1201.88C1026.57 1191.61 973.022 1186.8 973.022 1186.8C973.022 1186.8 966.338 1184.77 954.517 1189.66C942.622 1194.49 931.371 1193.9 920.856 1196.5C910.341 1199.11 899.902 1185.42 891.842 1182.56C883.783 1179.55 873.096 1172.3 873.096 1172.3L850.53 1170.09L805.215 1150.94L733.223 1079.22L713.661 1109.84L707.627 1147.74L729.393 1192.65L787.995 1246.04L902.266 1275.05L969.997 1255.1L1054.85 1219.23L1076.12 1196.42V1196.42Z" fill="#F1D789"/>
<path fill-rule="evenodd" clip-rule="evenodd" d="M670.134 942.94L684.641 899.011L701.926 870.642L757.589 865.994L740.879 914.737L694.345 997.55L713.66 1071.48L679.429 1088.59L668.909 1072.45L660.436 1035.45L659.867 993.88L670.134 942.94Z" fill="#F4ECB4"/>
<path fill-rule="evenodd" clip-rule="evenodd" d="M732.569 1193.41L721.893 1178.49C721.893 1178.49 719.04 1171.4 720.673 1165.2C722.285 1158.93 722.054 1158.52 721.242 1156.16C720.431 1153.79 713.581 1145.64 713.989 1138.63C714.392 1131.54 713.419 1129.17 718.631 1123.55C724.09 1118.09 722.462 1108.64 722.462 1108.64L729.554 1113.04L731.166 1110.59C731.166 1110.59 733.772 1112.63 733.772 1115.81C734.342 1111.41 731.978 1091.03 737.356 1086.39C742.734 1081.75 752.271 1108.15 752.271 1108.15L746.404 1069.84L731.322 1030.56L704.506 994.695L702.894 955.161V951.738C702.894 951.738 690.585 970.651 687.162 985.588C684.717 995.855 690.585 1008.33 689.365 1023.08C688.382 1037.75 687.162 1036.61 690.746 1042.42C694.33 1048.24 703.055 1060.19 699.633 1068.83C696.618 1076.25 686.345 1071.03 686.345 1071.03C686.345 1071.03 684.309 1077.06 681.537 1079.26C680.559 1075.68 679.5 1073.4 677.545 1071.2C677.378 1072.59 676.975 1074.47 676.975 1074.47C676.975 1074.47 675.181 1068.84 673.386 1061.75C670.947 1052.3 668.335 1039.83 665.971 1033.14C664.993 1036.97 662.549 1048.63 662.549 1048.63L663.935 1066.56L670.619 1091.18L677.066 1107.29L683.342 1127.02L688.795 1140.27L693.196 1150.37L697.027 1173.12L715.526 1192.68L725.39 1197.08L732.558 1193.41L732.569 1193.41Z" fill="#F3E19D"/>
<path fill-rule="evenodd" clip-rule="evenodd" d="M679.833 907.075C679.833 907.075 666.546 929.641 662.72 952.39C658.895 975.139 655.467 999.177 657.885 1030.15C660.329 1061.37 664.977 1080.52 668.727 1094.21C675.175 1116.96 691.874 1148.58 691.874 1148.58L692.443 1147.36C689.636 1142.04 687.396 1136.44 685.759 1130.65C683.556 1122.01 682.74 1111.74 680.703 1107.09C678.909 1102.45 675.895 1098.45 674.428 1092.75C673.042 1087.29 672.816 1078.65 668.561 1072.21C666.766 1069.6 664.563 1062.75 663.913 1055.91C663.096 1045.64 664.321 1034.14 663.343 1024.69C661.549 1008.96 660.329 998.285 661.957 990.049C663.585 981.812 672.069 958.429 677.286 939.844C680.709 927.943 678.667 917.917 684.942 907.564C691.218 897.296 695.054 888.248 696.435 881.973C698.047 876.266 679.811 907.075 679.811 907.075H679.833Z" fill="#F2E8B0"/>
<path fill-rule="evenodd" clip-rule="evenodd" d="M742.841 898.025C742.841 898.025 735.996 900.067 732.735 903.651C729.473 907.073 728.087 909.926 723.687 915.713C719.286 921.5 719.039 926.228 715.45 933.481C711.866 940.573 703.957 951.249 702.98 955.08C702.002 958.911 700.374 976.841 698.337 985.319C696.543 993.797 700.374 1004.23 700.374 1004.23L705.016 1003.25C705.016 1003.25 705.016 1009.28 709.663 1013.36C714.306 1017.35 715.122 999.826 715.122 999.826L732.482 941.224L758.643 923.455L761.496 909.11L742.83 898.025H742.841Z" fill="#F5EEC0"/>
<path fill-rule="evenodd" clip-rule="evenodd" d="M755.553 924.601C755.553 924.601 743.243 925.412 737.215 929.818C734.77 931.607 733.792 933.074 731.187 935.276C726.378 939.269 721.483 942.938 719.124 948.171C716.513 953.383 713.66 961.292 711.704 976.207C710.888 982.483 710.888 988.269 710.318 993.325C709.501 1000.17 708.282 1005.63 708.932 1009.44C709.749 1017.27 717.819 1021.35 718.603 1030.23L735.313 1021.75L751.045 959.723L784.464 938.769L765.552 917.578L755.531 924.563L755.553 924.601Z" fill="#E6DB9D"/>
<path fill-rule="evenodd" clip-rule="evenodd" d="M667.4 1342.3C667.47 1341.68 667.54 1341.07 667.61 1340.44C670.049 1319.49 670.463 1303.61 672.252 1293.66C674.858 1279.56 676.653 1274.32 676.244 1269.04C675.675 1260.57 675.025 1254.37 675.841 1247.85C677.061 1239.21 685.539 1228.94 685.298 1221.85C685.131 1216.23 682.278 1212.56 679.833 1209.14C677.389 1205.72 675.433 1202.86 675.433 1202.86C675.433 1202.86 692.143 1191.37 691.981 1145.07C692.323 1145.17 692.651 1145.31 692.959 1145.48L701.191 1168.87L706.816 1175.71L728.415 1215.98L756.209 1242.96L797.285 1270.59L823.043 1298.62L825.649 1373.36L791.987 1417.05L786.475 1427.03C742.679 1405.04 702.518 1376.46 667.395 1342.29L667.4 1342.3Z" fill="#E5CB7A"/>
<path fill-rule="evenodd" clip-rule="evenodd" d="M770.227 1413.8C770.227 1413.8 770.796 1404.51 778.458 1398.48C779.683 1400.51 780.494 1402.47 780.252 1403.93C781.639 1401.49 791.337 1385.84 813.264 1381.77C835.19 1377.77 840.488 1361.8 840.488 1361.8L887.023 1319.5L940.247 1270.51L1004.96 1247.77L1035.21 1240.35C1035.21 1240.35 1035.78 1242.55 1034.64 1247.44C1040.26 1247.04 1052.73 1244.19 1065.69 1239.62C1070.91 1237.58 1075.8 1236.77 1078.41 1239.46C1082.24 1243.04 1082.81 1251.52 1083.05 1256.57C1089.32 1255.19 1096.58 1249.16 1102.39 1249.73C1111.69 1250.7 1119.92 1261.63 1129.37 1261.63C1141.84 1261.63 1147.46 1253.97 1156.19 1247.93C1161.41 1244.35 1168.9 1239.87 1173.14 1236.85C1183.25 1229.43 1290.18 1196.74 1290.18 1196.74L1327.68 1199.19L1333.71 1239.45L1330.49 1344.71C1330.09 1345.09 1329.69 1345.49 1329.29 1345.87L1158.82 1434.9L922.516 1471.13C869.584 1462.48 818.504 1444.91 771.452 1419.17L770.243 1413.79L770.227 1413.8Z" fill="#D8C173"/>
<path fill-rule="evenodd" clip-rule="evenodd" d="M681.729 1355.69C685.088 1348.66 688.107 1342.79 688.639 1340.69C689.058 1344.92 689.826 1354.21 691.374 1364.09C688.125 1361.33 684.91 1358.52 681.729 1355.68V1355.69Z" fill="#F1D789"/>
<path fill-rule="evenodd" clip-rule="evenodd" d="M854.344 1454.74L884.905 1446.24L887.511 1447.06C887.511 1447.06 888.897 1447.87 888.897 1450.64C892.728 1448.44 895.99 1448.85 898.354 1447.39C899.573 1449.99 900.793 1458.63 906.177 1459.69C911.797 1460.91 917.83 1457.24 923.945 1452.6C929.973 1447.79 936.84 1441.76 942.035 1439.32C943.942 1442.82 945.63 1446.44 947.091 1450.15C953.936 1444.69 965.837 1422.52 982.789 1422.93C987.689 1411.35 995.874 1401.46 1006.33 1394.48C1022.06 1383.81 1031.92 1382.99 1044.23 1383.97C1049.12 1377.62 1055.15 1372.23 1062 1368.08C1064.04 1368.89 1069.66 1372.31 1076.68 1369.05C1083.77 1365.8 1091.75 1353.16 1102.27 1351.53C1107.93 1350.75 1113.69 1351.96 1118.57 1354.96C1118.57 1354.96 1149.19 1324.55 1170.32 1314.44C1169.51 1312 1167.88 1302.79 1192.65 1282.41C1194.04 1283.64 1193.06 1287.06 1194.04 1287.25C1194.44 1287.25 1200.49 1284.64 1208.14 1278.77C1217.6 1271.68 1228.92 1264.26 1235.77 1262.22C1248.66 1258.39 1262.34 1266.22 1262.34 1266.22C1263.5 1265.4 1264.8 1264.79 1266.17 1264.42C1269.43 1263.85 1271.79 1263.44 1273.59 1262.81C1273.43 1267.05 1275.79 1274.3 1273.59 1280.58C1276.14 1282.01 1278.84 1283.16 1281.65 1284C1280.27 1287.01 1277.25 1294.68 1272.2 1298.35C1276.43 1300.38 1277 1302.75 1283.03 1304.79C1280.59 1308.22 1276.58 1314.09 1274.8 1317.69C1273.01 1321.52 1266.56 1337.41 1263.71 1343.44C1260.7 1349.47 1256.62 1360.56 1254.66 1362.78C1252.7 1365.01 1245.62 1374.44 1240.16 1379.08C1244.99 1377.28 1264.78 1371.26 1273.17 1368.97C1270.67 1372.64 1258.01 1391.43 1245.83 1409.5C1187.54 1444.43 1122.47 1466.55 1054.95 1474.37C987.443 1482.18 919.041 1475.52 854.307 1454.82L854.344 1454.74Z" fill="#E0CD81"/>
<path fill-rule="evenodd" clip-rule="evenodd" d="M757.568 922.399C757.568 922.399 750.481 922.399 749.095 923.377C747.709 924.354 756.187 926.396 758.793 927.374C761.399 928.352 767.024 932.833 768.491 936.422C769.877 939.845 819.432 959.81 819.432 959.81L854.479 958.016L866.563 941.322L843.577 921.19L859.696 873.672L838.344 877.094L786.995 907.72L761.238 917.585L757.568 922.399Z" fill="#DFC57C"/>
<path fill-rule="evenodd" clip-rule="evenodd" d="M834.536 938.129C835.042 938.949 835.756 939.622 836.605 940.079C837.453 940.537 838.408 940.763 839.371 940.735C846.625 940.735 853.303 942.529 856.076 946.194C860.723 952.066 873.602 970.812 873.602 970.812L904.41 981.897L906.398 945.619L872.737 922.23L834.428 936.329V938.124H834.514L834.536 938.129Z" fill="#E5CC7C"/>
<path fill-rule="evenodd" clip-rule="evenodd" d="M828.492 951.58C828.492 951.58 834.112 951.988 841.204 949.377C848.296 946.766 859.95 941.146 865.006 943.349C872.093 946.363 870.626 955.819 878.293 964.303C882.935 969.52 891.414 969.359 896.222 974.984C901.031 980.61 917.574 977.999 917.574 977.999L923.85 1011.85L898.667 1044.13L890.43 1084.23H856.377L825.268 1071.88L809.944 1034.81L817.606 997.319L828.492 951.58Z" fill="#D2C281"/>
<path fill-rule="evenodd" clip-rule="evenodd" d="M894.363 953.206C895.207 953.466 896.085 953.604 896.968 953.614C895.991 954.431 893.949 956.22 894.766 960.868C895.582 965.515 898.188 971.382 895.991 974.966C897.745 976.884 899.053 979.167 899.821 981.65C901.208 985.648 901.616 989.312 910.659 989.887C909.354 990.69 908.15 991.648 907.075 992.74C907.075 992.74 913.35 998.199 916.531 1003.25C919.787 1003.11 928.427 1000.42 928.427 1000.42L930.221 1001.65L934.052 1000.04C934.052 1000.04 930.469 998.65 933.074 989.93C935.519 982.268 937.722 982.676 937.91 982.107C938.098 981.537 939.705 973.467 939.705 970.206C940.924 965.972 941.902 953.093 941.902 953.093L939.296 924.649L924.628 915.762L912.7 904.248L901.449 925.439L894.04 932.827L893.471 951.164L894.363 953.206Z" fill="#E2C270"/>
<path fill-rule="evenodd" clip-rule="evenodd" d="M929.652 929.411C929.652 929.411 932.258 936.825 933.241 942.532C933.587 941.422 933.779 940.271 933.81 939.109C933.81 939.109 935.847 950.36 936.25 955.007C937.066 954.841 937.862 954.599 938.044 955.41C938.227 956.222 940.086 965.275 939.656 970.326C943.05 964.726 947.747 960.029 953.346 956.635C956.608 954.594 960.439 952.396 964.436 952.23C970.712 952.068 975.273 956.227 982.774 956.227C1000.86 956.227 1017.25 942.94 1029.31 938.867C1038.2 935.848 1045.86 933.65 1051.24 928.755C1053.85 926.558 1058.49 921.669 1062.73 914.41C1068.35 904.738 1074.22 896.319 1080.09 895.261C1077.44 895.749 1074.73 895.94 1072.03 895.83C1072.03 895.83 1073.83 894.036 1076.87 891.591C1079.91 889.146 1083.55 886.132 1088.77 886.132C1098.06 886.132 1102.7 887.513 1107.92 887.513C1113.14 887.352 1116.15 886.132 1116.15 886.132C1116.15 886.132 1121.61 889.963 1133.92 889.963C1146.23 890.124 1154.46 891.183 1160.9 891.758C1167.34 892.332 1188.94 889.963 1195.13 890.146C1199.17 890.301 1203.14 891.272 1206.79 892.999L1186.82 834.971L1115.08 772.27L1072.37 802.508L1006.67 868.203L943.1 891.758L929.813 906.673V929.411H929.652Z" fill="#CCB360"/>
<path fill-rule="evenodd" clip-rule="evenodd" d="M1072.29 896.153C1072.29 896.153 1074.09 894.364 1077.1 891.919C1080.1 889.475 1083.78 886.455 1089 886.455C1098.29 886.455 1102.93 887.841 1108.15 887.841C1113.37 887.68 1116.38 886.455 1116.38 886.455C1116.38 886.455 1121.85 890.281 1134.15 890.281C1146.46 890.442 1154.69 891.5 1161.13 892.07C1167.58 892.639 1189.17 890.281 1195.36 890.458C1199.4 890.61 1203.37 891.581 1207.02 893.311L1197.97 867.145L1187.46 847.179L1157.46 814.329C1157.46 814.329 1121.46 793.138 1121.19 792.977C1121.03 792.816 1108.72 789.555 1108.72 789.555L1076.12 809.279L1046.53 885.816L1045.96 901.934L1065.11 910.982C1069.92 902.923 1075.23 896.475 1080.2 895.659C1075.71 896.148 1072.29 896.148 1072.29 896.148L1072.29 896.153Z" fill="#D5B457"/>
<path fill-rule="evenodd" clip-rule="evenodd" d="M1071.88 901.617C1069.03 901.778 1066.67 901.208 1066.02 899.172C1063.57 892.327 1061.62 891.349 1059.57 891.349C1057.52 891.349 1054.76 895.749 1053.12 896.152C1051.48 896.555 1049.54 891.102 1049.54 891.102L1047.74 890.285C1047.74 890.285 1037.23 897.13 1029.81 905.2C1022.4 913.27 1010.25 926.966 1004.79 929.405C999.334 931.845 980.582 932.667 974.167 934.053C967.752 935.439 960.638 940.087 959.66 941.145C958.682 942.204 962.519 943.343 963.088 944.401C963.658 945.379 956.807 944.971 956.238 946.013C955.835 946.83 957.849 951.472 958.849 953.836C960.598 952.966 962.516 952.493 964.469 952.45C970.744 952.288 975.311 956.447 982.807 956.447C1000.9 956.447 1017.28 943.16 1029.35 939.082C1038.23 936.068 1045.9 933.865 1051.27 928.975C1053.88 926.778 1058.53 921.883 1062.77 914.63C1065.86 909.66 1068.88 905.012 1071.9 901.59L1071.88 901.617Z" fill="#D2B257"/>
<path fill-rule="evenodd" clip-rule="evenodd" d="M812.373 1304.99C812.373 1304.99 810.761 1298.96 795.824 1283.39C791.585 1278.99 788.979 1275.33 786.126 1272.72C779.034 1266.03 774.875 1264.24 769.825 1260.41C758.74 1252.18 746.678 1252.18 737.388 1242.07C728.099 1231.96 717.272 1212.65 709.75 1192.92C702.336 1173.19 700.294 1166.92 700.294 1166.35C700.294 1165.78 702.336 1161.95 704.942 1162.52C707.547 1163.09 707.547 1168.14 708.203 1169.36C709.501 1171.36 710.974 1173.24 712.603 1174.98C716.434 1179.39 721.893 1184.65 724.665 1192.51C724.096 1185.83 721.812 1178.41 721.812 1178.41C721.812 1178.41 736.158 1187.46 748.381 1196.91C760.691 1206.37 765.741 1209.63 769.336 1215.66C772.93 1221.68 781.398 1237.58 785.455 1242.23C789.511 1246.88 845.094 1264.4 845.094 1264.4L871.534 1284.11L884.66 1312.88L874.387 1329L854.663 1333.24L822.63 1318.9L812.373 1304.99V1304.99Z" fill="#D2B159"/>
<path fill-rule="evenodd" clip-rule="evenodd" d="M741.207 1205.88C741.207 1205.88 747.891 1216.55 764.192 1226.66C778.866 1235.55 802.093 1243.62 822.8 1248.43C834.696 1251.28 846.597 1253.48 857.273 1253.64C886.044 1254.05 905.849 1245.82 930.387 1243.13C943.674 1241.74 959.976 1240.68 976.927 1236.68C998.687 1231.46 1011.57 1225.59 1029.09 1217.34C1041.8 1211.47 1053.46 1207.07 1062.92 1201.45C1076.2 1193.62 1085.9 1184.9 1097.15 1182.3C1095.77 1186.13 1094.3 1192.97 1083.21 1200.07C1089.08 1199.9 1097.15 1199.5 1097.15 1199.5C1097.15 1199.5 1089.33 1204.14 1075.55 1214.57C1067.07 1221.02 1055.83 1231.93 1044.34 1239.19C1036.92 1243.83 1028.85 1247.24 1023.55 1250.03C1010.65 1257.12 1005.45 1260.7 996.979 1269.37C999.993 1269.21 1000.24 1269.37 1000.24 1269.37C1000.24 1269.37 989.559 1270.76 981.902 1274.83C980.291 1274.83 977.497 1274.26 972.607 1275.65C968.776 1276.87 963.721 1279.64 958.509 1281.1C951.089 1283.31 948.65 1282.33 948.65 1282.33L949.869 1284.77C949.869 1284.77 940.198 1284.61 936.974 1284.94C937.544 1285.1 937.383 1285.34 937.383 1285.34C936.816 1285.44 936.271 1285.63 935.771 1285.91C934.219 1286.92 932.513 1287.66 930.72 1288.11C929.742 1288.27 928.926 1288.27 927.701 1288.52C928.109 1289.5 931.29 1294.97 932.756 1298.19C931.537 1299.01 913.194 1312.86 913.194 1312.86C913.763 1313.76 914.228 1314.72 914.58 1315.72C915.149 1317.51 915.397 1320.12 915.966 1321.34C917.347 1323.78 918.164 1324.19 918.164 1324.19C918.164 1324.19 915.966 1324.6 912.13 1325.58C908.874 1326.39 904.876 1327.77 899.235 1328.59C897.504 1328.82 895.763 1328.95 894.018 1329C894.835 1330.79 898.418 1337.64 891.815 1345.54C885.212 1353.45 883.175 1354.6 881.139 1359.65C880.114 1358.87 879.023 1358.19 877.878 1357.6C875.68 1356.63 872.661 1355.16 871.602 1353.2C870.985 1355.82 870.168 1358.38 869.157 1360.87C867.121 1366.32 864.107 1371.71 863.537 1375.78C861.334 1373.34 857.262 1368.53 851.636 1369.51C846.011 1370.48 841.53 1378.14 840.552 1380.35C840.552 1378.96 839.574 1377.9 839.332 1379.53C839.166 1381.33 836.071 1400.07 818.792 1415.23C818.631 1411.4 818.631 1402.92 818.222 1400.15C816.61 1401.76 814.639 1404.14 802.899 1409.2C791.406 1414.25 793.227 1419.31 793.227 1419.31C793.227 1419.31 792.25 1411.25 798.445 1402.76C804.72 1394.28 808.551 1390.29 808.551 1389.64C808.45 1388.98 808.167 1388.35 807.734 1387.84C806.918 1387.03 805.29 1386.05 805.29 1385.4C806.268 1385 815.966 1380.35 815.396 1370.72C814.827 1362.09 811.162 1357.6 808.551 1354.43C808.148 1354.02 812.387 1351.01 811.812 1350.03C811.404 1349.46 806.192 1345.62 805.537 1343.58C805.691 1342.36 805.964 1341.16 806.354 1340C806.923 1338.2 807.331 1336.98 807.17 1335.76C806.762 1333.72 804.559 1328.1 803.909 1327.53C804.478 1327.69 808.551 1327.53 808.551 1327.53C808.551 1327.53 805.295 1322.31 804.72 1319.86C804.145 1317.42 802.926 1310.98 802.275 1309.76C803.662 1309.92 807.084 1310.16 807.084 1309.76C807.251 1308.53 804.07 1306.5 805.472 1304.92C806.45 1305.08 808.325 1305.9 810.115 1308.18C809.137 1305.57 807.509 1300.52 804.081 1298.49C805.693 1297.92 811.173 1296.44 815.982 1299.3C820.79 1302.15 822.429 1306.14 822.429 1306.14C822.429 1306.14 825.282 1308.35 829.688 1311.61C834.739 1315.6 841.175 1321.28 851.448 1325.3C853.651 1326.52 859.271 1326.52 863.349 1325.71C865.125 1325.28 866.827 1324.6 868.4 1323.67C868.968 1323.33 869.569 1323.06 870.194 1322.85C869.318 1321.09 868.311 1319.4 867.18 1317.8C868.566 1317.8 870.194 1317.96 870.194 1317.96C870.194 1317.96 871.172 1315.76 866.772 1311.52C867.75 1310.54 868.975 1309.9 868.975 1308.25C867.588 1308.09 865.144 1306.06 864.574 1305.24C865.386 1304.67 866.611 1302.79 867.997 1302.23C866.772 1301.25 863.758 1297.17 862.371 1296.77C863.696 1296.28 864.977 1295.67 866.202 1294.97C866.202 1294.97 859.357 1293.18 857.154 1291.71C854.951 1290.1 851.695 1287.31 849.74 1286.49C847.698 1285.68 844.114 1285.27 842.647 1283.64C844.028 1284.05 846.231 1283.64 847.865 1283.64C849.084 1283.64 849.659 1283.8 850.062 1283.8C849.901 1283.23 849.901 1282.01 853.082 1281.6C854.612 1281.37 856.096 1280.91 857.482 1280.22C857.482 1280.22 854.463 1280.06 851.035 1276.8C847.607 1273.53 844.759 1270.93 842.803 1270.52C840.767 1270.11 836.936 1271.91 834.572 1271.74C831.311 1271.34 829.924 1269.7 829.924 1269.7C829.924 1269.7 819.087 1270.68 795.044 1256.01C774.256 1243.3 765.208 1232.05 765.208 1232.05C763.262 1231.34 761.382 1230.47 759.588 1229.44C751.765 1225.37 740.922 1216.89 741.25 1205.8L741.207 1205.88Z" fill="#C2A44D"/>
<path fill-rule="evenodd" clip-rule="evenodd" d="M1041.07 716.676C1042.95 717.289 1044.63 718.419 1045.9 719.938C1049.74 724.338 1052.18 732.65 1043.46 741.537C1046.88 742.756 1048.3 743.149 1051.28 742.756C1048.27 746.346 1041.42 754.007 1041.02 760.691C1040.61 766.15 1044.03 767.783 1044.03 767.783C1044.03 767.783 1038.81 773.812 1038.57 783.902C1041.03 781.124 1043.73 778.561 1046.63 776.24C1052.66 771.432 1060.98 765.973 1066.6 762.55C1066.52 763.985 1066.72 765.421 1067.17 766.784C1067.17 766.784 1077.68 758.144 1086.51 761.981C1090.51 763.775 1088.71 769.395 1088.71 769.395C1088.71 769.395 1094.18 767.359 1098.01 771.19C1101.84 775.021 1107.25 784.902 1110.03 788.732C1111.25 790.527 1114.43 793.95 1117.69 799.247C1122.14 806.664 1125.85 814.497 1128.78 822.635C1128.94 818.396 1130 811.798 1142.06 815.952C1154.13 820.191 1167.82 829.078 1179.31 846.577C1190.8 864.077 1193.65 883.833 1199.44 891.355C1205.3 898.608 1211.34 910.67 1211.75 915.726C1212.15 920.782 1209.95 937.078 1222.01 981.174C1225.44 967.484 1230.65 937.078 1230.65 937.078L1233.51 910.262L1236.77 827.288L1150.12 755.308L1082.39 706.156L1038.3 710.395L1041.06 716.671L1041.07 716.676Z" fill="#CAA13E"/>
<path fill-rule="evenodd" clip-rule="evenodd" d="M1202.05 840.156C1202.05 840.156 1200.82 832.097 1180.45 818.396C1160.07 804.867 1144.18 804.867 1129.51 793.374C1118.26 784.326 1106.52 763.538 1098.88 756.693C1091.46 749.929 1090.24 730.366 1090.24 730.366L1115.26 709.412L1152.48 655.624L1183.93 620.984L1199.01 641.939L1219.97 666.552L1231.62 715.945L1235.86 788.243L1202.01 840.161L1202.05 840.156Z" fill="#B59544"/>
<path fill-rule="evenodd" clip-rule="evenodd" d="M1227.24 926.816C1227.85 915.851 1226.5 904.866 1223.24 894.379C1217.87 877.67 1206.13 848 1200.67 836.889C1198.47 824.58 1200.1 823.602 1202.47 822.216C1204.83 820.83 1213.72 815.768 1218.59 798.011C1223.45 780.253 1238.56 779.673 1238.56 779.673L1247.85 772.828L1261.95 808.117L1274.25 839.989L1278.08 864.361L1280.94 885.143L1274.25 929.078L1241.25 958.908L1227.23 926.816H1227.24Z" fill="#C89D3A"/>
<path fill-rule="evenodd" clip-rule="evenodd" d="M766.644 1416.5V1415.59C767.329 1415.16 767.935 1414.62 768.433 1413.98C769.002 1413.16 769.416 1412.19 769.819 1411.95C770.636 1411.54 774.466 1410.33 776.503 1410.72C778.539 1411.11 783.923 1413.33 786.776 1413.16C792.643 1413 799.488 1408.52 810.331 1410.56C826.632 1413.57 830.463 1424.66 839.919 1430.93C846.367 1435.34 853.04 1433.38 854.018 1433.38H856.215C856.624 1433.38 859.638 1429.96 861.271 1430.12C864.533 1430.28 864.855 1432.97 866.891 1433.14C871.7 1433.71 880.995 1430.69 885.643 1431.92C887.021 1432.35 888.274 1433.11 889.296 1434.13C890.317 1435.15 891.077 1436.4 891.51 1437.78C892.488 1440.79 891.671 1444.62 889.307 1446.83C884.256 1451.47 879.448 1455.87 878.47 1459.72C879.714 1460.67 880.908 1461.68 882.048 1462.75C841.72 1452.48 802.919 1436.94 766.644 1416.54V1416.5Z" fill="#CEB052"/>
<path fill-rule="evenodd" clip-rule="evenodd" d="M1200.66 1253.64C1200.66 1253.64 1213.37 1236.69 1217.78 1228.29C1222.18 1219.64 1203.84 1110.03 1203.84 1110.03L1240.68 989.323L1239.7 950.037C1239.7 950.037 1241.5 913.764 1245.73 898.032C1250.79 907.08 1266.52 918.003 1269.95 923.79C1271.56 912.7 1277.03 889.312 1276.22 864.371C1279.23 869.013 1286.49 915.72 1286.49 915.72L1293.74 947.178L1303.2 980.598L1313.71 1015.89L1319.99 1040.26L1323.57 1046.13L1326.59 1056.4L1329.44 1067.49L1337.68 1093.49L1342.51 1114.84L1346.34 1153.56C1347.18 1156.52 1347.78 1159.55 1348.14 1162.6C1348.3 1166.84 1347.57 1169.29 1347.57 1170.02C1347.57 1170.76 1348.95 1179.31 1348.38 1185.76C1347.57 1192.2 1347.57 1197.25 1342.51 1201.88C1337.46 1206.5 1334.28 1234.15 1334.28 1234.15L1325.23 1228.12C1325.23 1228.12 1327.03 1219.89 1322.79 1212.39C1318.55 1204.9 1310.32 1203.34 1305.67 1204.57C1301.03 1205.55 1291.74 1207.01 1288.72 1209.62C1285.87 1212.22 1278.86 1220.29 1272.42 1223.96C1264.36 1228.8 1251.23 1229.18 1244.22 1230.81C1237.13 1232.42 1229.3 1237.26 1221.07 1242.87C1214.61 1247.05 1207.79 1250.65 1200.69 1253.62L1200.66 1253.64Z" fill="#CCA847"/>
<path fill-rule="evenodd" clip-rule="evenodd" d="M1200.66 1431.73C1200.66 1431.73 1201.2 1432.08 1202.24 1432.65C1260.14 1405.52 1312.03 1367.07 1354.83 1319.55C1354.36 1303.06 1353.75 1286.15 1353.09 1279.88C1351.7 1266.6 1352.68 1253.07 1352.27 1245.25C1351.87 1237.42 1347.47 1205.55 1345.43 1197.32C1343.23 1189.09 1338.98 1185.01 1338.34 1185.01C1337.77 1185.18 1334.34 1200.5 1334.34 1204.35C1334.34 1208.2 1333.52 1217.48 1333.52 1219.84C1332.95 1219.68 1332.71 1218.23 1332.71 1217.64C1331.89 1219.68 1330.92 1223.26 1330.51 1223.67C1330.1 1224.08 1331.08 1220.25 1330.51 1219.43C1329.94 1218.62 1328.9 1219.03 1329.12 1216.99C1329.22 1215.78 1329.41 1214.58 1329.69 1213.41C1329.69 1213.41 1327.25 1216.99 1325.46 1226.12C1323.66 1235.17 1323.66 1235.41 1323.01 1236.22C1322.44 1237.21 1319.18 1240.46 1319.02 1241.69C1318.85 1243.89 1322.04 1246.09 1322.28 1247.31C1322.44 1249.35 1319.42 1258.8 1318.45 1263.43C1317.47 1268.05 1317.88 1277.12 1316.83 1281.77C1316.02 1286 1315.22 1288.45 1312.43 1290.24C1314.47 1290.65 1316.43 1291.22 1316.43 1291.22C1316.43 1291.22 1319.28 1303.28 1312.03 1313.55C1309.42 1317.13 1308.77 1318.77 1306 1322.03C1300.53 1328.06 1296.29 1334.92 1295.89 1339.39C1295.6 1338.07 1295.41 1336.74 1295.32 1335.39C1295.32 1335.39 1286.84 1345.26 1283.25 1350.88C1278.61 1358.14 1272.17 1357.73 1270.36 1359.52C1268.55 1361.32 1268.16 1364.57 1268.75 1367.18C1267.14 1367.59 1264.1 1368.16 1262.06 1374.44C1261.09 1377.69 1258.64 1380.88 1254.81 1383.08C1250.98 1385.27 1246.33 1385.93 1243.97 1386.5C1246 1387.07 1246.82 1387.07 1247.8 1387.72C1246.58 1389.75 1240.95 1392.94 1234.68 1397.01C1228.4 1400.84 1225.38 1406.46 1223.83 1410.13C1222.22 1413.56 1219.84 1415.76 1216.01 1416.17C1217.62 1417.15 1220.01 1419.42 1221.23 1420.16C1219.43 1420.57 1216.39 1420.57 1210.96 1425.22C1205.26 1429.94 1203.3 1431.33 1200.69 1431.74L1200.66 1431.73Z" fill="#C39D3C"/>
<path fill-rule="evenodd" clip-rule="evenodd" d="M1087.25 1469.5C1090.37 1467.32 1093.75 1465.52 1097.31 1464.17C1110.03 1459.12 1123.47 1458.14 1128.77 1456.51C1133.83 1454.9 1137.82 1452.68 1144.09 1451.46C1143.93 1452.89 1143.79 1454.23 1143.64 1455.5C1125.14 1461.31 1106.3 1465.99 1087.22 1469.5H1087.25Z" fill="#D2BA6B"/>
<path fill-rule="evenodd" clip-rule="evenodd" d="M1321.72 1135.13C1321.72 1135.13 1319.12 1149.23 1314.47 1158.12C1309.82 1167 1304.8 1179.31 1304.8 1179.31C1304.83 1176.54 1305.16 1173.77 1305.78 1171.07C1299.91 1174.49 1285.64 1182.73 1281.6 1186.4C1277.77 1189.82 1271.33 1195.85 1269.7 1198.71C1273.53 1187.46 1277.52 1177.35 1278.18 1172.71C1272.31 1176.94 1244.92 1199.52 1230.66 1214.44L1186.23 1250.38C1181.11 1253.15 1175.83 1255.62 1170.42 1257.79C1162.77 1261.04 1153.72 1263.81 1147.03 1266.43C1148.83 1261.62 1151.68 1257.37 1155.67 1253.3C1159.91 1249.31 1172.63 1235.53 1174.58 1229.12C1176.38 1222.44 1176.78 1218.45 1174.42 1212.82C1172.22 1213.39 1167.17 1213.64 1163.74 1214.61C1160.32 1215.59 1156.65 1219.26 1156.65 1219.26C1156.65 1219.26 1159.26 1204.34 1164.88 1190.24C1160.64 1190.4 1153.39 1191.62 1153.39 1191.62C1153.39 1191.62 1163.5 1174.67 1180.79 1162.86C1175.5 1163.98 1170.31 1165.59 1165.31 1167.66C1155.2 1171.9 1144.12 1178.18 1135.89 1181.6C1140.53 1175.15 1173.13 1128.62 1192.53 1085.26C1211.87 1041.98 1219.1 1030.89 1223.34 1007.67C1225.54 996.173 1224.95 979.19 1225.54 963.979C1226.11 948.897 1227.98 935.368 1226.76 926.32C1231.81 932.596 1250.73 950.283 1251.38 989.817C1251.95 1029.35 1233.29 1082.74 1213.48 1111.5C1218.31 1112.89 1230.84 1114.52 1243.71 1092.16C1256.59 1069.8 1256.43 1063.56 1261.08 1054.26C1261.65 1058.91 1261.48 1060.54 1261.48 1060.54C1261.48 1060.54 1280.23 1037.8 1289.12 1009.19C1290.91 1021.5 1296.21 1032.34 1287.89 1054.92C1280.48 1075.29 1270.78 1080.26 1270.78 1080.26C1270.78 1080.26 1275.59 1079.45 1282.67 1075.21C1283.9 1078.22 1283.66 1081.66 1285.69 1082.87C1287.73 1084.08 1290.5 1086.13 1290.91 1088.09C1293.11 1084.83 1296.53 1080.67 1297.59 1077.57C1296.78 1084.02 1296.21 1112.21 1299.21 1126.56C1305.49 1125.99 1311.92 1125.58 1316.32 1114.25C1313.31 1125.34 1313.31 1132.02 1315.35 1141.47C1318.69 1139.19 1321.7 1135.12 1321.7 1135.12L1321.72 1135.13Z" fill="#C0993A"/>
<path fill-rule="evenodd" clip-rule="evenodd" d="M1109.94 685.867C1109.94 685.867 1103.67 688.472 1092.99 688.472C1083.7 688.472 1086.31 684.889 1071.8 684.889C1049.47 684.889 971.469 697.784 957.773 697.601C948.886 697.44 987.765 701.432 987.765 701.432L1087.13 702.818L1107.09 701.206L1114.51 686.108L1109.94 685.867Z" fill="#A88F33"/>
<path fill-rule="evenodd" clip-rule="evenodd" d="M852.304 880.098C852.304 880.098 839.586 889.796 834.208 897.216C828.83 904.636 825.977 909.52 819.862 915.554C821.298 915.608 822.732 915.416 824.102 914.984C824.102 914.984 824.102 916.596 823.124 917.02C823.969 916.926 824.824 917.022 825.627 917.3C826.431 917.579 827.161 918.034 827.766 918.632C825.971 919.61 821.082 924.505 824.913 930.291C827.766 934.692 833.8 935.095 833.8 935.095C833.8 935.095 832.413 939.092 838.2 938.684C850.671 938.114 864.608 932.65 871.045 934.036C877.492 935.648 881.156 936.239 885.718 944.148C890.554 951.971 894.766 953.196 894.766 953.196C894.766 953.196 897.619 945.937 896.969 935.1C899.308 929.259 900.605 923.052 900.8 916.763L896.561 885.546L878.062 862.152L854.098 875.44L852.304 880.082V880.098Z" fill="#E3C571"/>
<path fill-rule="evenodd" clip-rule="evenodd" d="M875.042 875.449C875.042 875.449 876.837 879.688 884.337 880.091C883.52 881.886 883.52 882.133 883.768 883.514C883.929 884.9 884.171 886.936 884.171 886.936C884.996 886.537 885.743 885.99 886.373 885.324C886.782 887.119 885.965 889.966 886.373 892.008C886.625 893.25 887.035 894.454 887.593 895.592C887.712 895.313 887.848 895.042 888.001 894.781C888.163 894.372 889.613 899.181 893.627 902.84C893.623 902.277 893.762 901.723 894.03 901.228C894.091 902.25 894.429 903.236 895.008 904.081C894.707 903.938 894.433 903.745 894.196 903.512C894.196 903.512 894.599 916.407 896.802 923.074C897.17 922.643 897.498 922.179 897.78 921.688C897.78 921.285 897.619 925.277 897.211 928.136C896.641 930.989 897.049 934.981 897.049 934.981C898.519 933.824 900.134 932.865 901.853 932.128C904.297 931.144 908.3 928.13 910.74 921.446C912.155 917.661 913.246 913.762 914.001 909.793C914.789 911.31 915.333 912.942 915.613 914.628C915.779 916.664 919.61 915.606 919.61 915.606L920.427 906.719L925.263 886.587L929.663 874.116L950.854 841.111L989.141 811.624L1022.56 819.286L1050.76 780.977L1002.18 751.797L956.21 756.606L914.49 814.391L881.076 866.804L875.042 875.444V875.449Z" fill="#D8B65B"/>
<path fill-rule="evenodd" clip-rule="evenodd" d="M1115.81 791.826C1115.81 791.826 1112.96 792.396 1104.73 796.662C1096.5 800.928 1090.79 802.282 1087.61 808.557C1084.43 814.833 1084.19 819.808 1084.19 819.808C1084.19 819.808 1089.81 817.363 1093.07 816.547C1096.5 815.735 1100.33 815.977 1099.92 817.363C1099.53 818.314 1098.98 819.194 1098.31 819.969C1098.31 819.969 1104.75 819.808 1104.58 822.989C1104.41 826.17 1103.36 829.673 1102.14 831.22C1100.92 832.832 1095.87 835.218 1095.3 837.093C1093.91 840.924 1095.87 841.085 1095.13 844.18C1094.56 847.199 1091.88 853.066 1083.07 863.334C1074.02 873.607 1070.17 880.86 1070.17 880.86C1070.17 880.86 1065.77 872.629 1063.49 865.537C1061.88 866.348 1053.22 871.157 1053.22 871.157L1033.17 801.309L1033.57 796.662C1033.57 796.662 1035.37 794.464 1035.78 790.386C1032.76 789.408 1032.36 788.591 1028.36 784.766C1024.36 780.94 1021.1 776.288 1014.43 773.107C1013.45 771.312 1012.22 768.873 1007.33 767.89C1002.44 766.906 999.51 766.101 999.51 766.101C999.51 766.101 1002.12 765.117 1003.34 763.081C1000.32 763.489 997.882 764.467 991.279 764.306C984.595 764.139 983.859 763.898 980.195 764.467C976.531 765.037 972.136 766.67 970.497 761.045C968.702 759.658 964.871 760.883 961.61 765.687C958.349 770.49 957.21 774.326 950.934 776.202C950.493 778.968 949.524 781.624 948.081 784.025C946.286 787.044 943.433 790.058 939.603 794.539C933.569 801.632 934.547 813.285 924.929 822.172C915.231 831.054 926.541 797.553 926.541 797.553L942.026 760.48L986.121 717.363L1054.59 712.721L1061.27 748.182L1094.69 759.675L1115.8 791.869L1115.81 791.826Z" fill="#D3AE4D"/>
<path fill-rule="evenodd" clip-rule="evenodd" d="M1126.65 799.649L1097.88 758.165L1077.75 742.675C1077.75 742.675 1063.4 716.272 1062.43 715.455C1061.61 714.886 1048.08 713.419 1039.44 712.85L1041.05 716.842C1042.94 717.454 1044.61 718.584 1045.89 720.103C1049.72 724.503 1052.16 732.815 1043.44 741.702C1046.87 742.922 1048.28 743.314 1051.27 742.922C1048.25 746.511 1041.41 754.173 1041 760.857C1040.59 766.315 1044.01 767.943 1044.01 767.943C1044.01 767.943 1038.8 773.977 1038.55 784.062C1041.02 781.284 1043.71 778.72 1046.61 776.4C1052.65 771.565 1060.96 766.127 1066.58 762.705C1066.51 764.141 1066.7 765.579 1067.15 766.944C1067.15 766.944 1077.66 758.304 1086.5 762.135C1090.49 763.93 1088.69 769.555 1088.69 769.555C1088.69 769.555 1094.16 767.519 1097.99 771.35C1101.82 775.181 1107.28 785.04 1110.05 788.876C1111.27 790.671 1114.45 794.093 1117.71 799.386C1122.16 806.804 1125.87 814.639 1128.8 822.779C1128.96 819.518 1129.61 814.956 1135.25 814.956L1126.69 799.633L1126.65 799.649Z" fill="#CAA13E"/>
<path fill-rule="evenodd" clip-rule="evenodd" d="M695.323 917.507C695.323 917.507 693.287 912.451 695.323 902.592C697.359 892.733 700.54 888.085 701.599 873.578C702.657 859.072 712.113 840.976 712.113 840.976L738.274 829.08L756.778 834.131L762.237 858.91L738.844 871.805C738.844 871.805 737.624 877.264 731.021 881.665C724.417 886.065 715.289 889.488 713.091 893.974C711.777 896.721 710.819 899.624 710.238 902.614C710.238 902.614 703.554 901.227 699.562 905.628C695.323 910.114 695.484 914.106 695.323 917.529V917.507Z" fill="#F4EFC8"/>
<path fill-rule="evenodd" clip-rule="evenodd" d="M748.14 910.907C748.14 910.907 745.937 912.293 744.309 915.742C742.697 913.136 738.844 897.646 738.683 883.709C738.522 869.772 737.689 866.317 740.913 861.514C744.137 856.71 756.779 851.649 754.985 842.999C753.19 834.767 745.689 831.345 736.48 833.709C730.033 835.321 725.235 849.032 718.551 855.877C713.495 861.094 707.467 860.278 705.839 863.131C703.636 866.962 705.672 870.793 705.022 873.237C704.855 874.054 702.819 878.454 699.149 883.752C691.735 894.428 679.184 909.51 677.55 923.039C678.12 915.377 677.717 915.216 679.753 906.737L678.528 904.701L686.588 878.293L691.805 856.533L703.464 820.094L723.999 782.849L743.97 760.514L764.753 761.9L767.197 793.116L779.098 851.724L804.12 882.532L764.016 909.52L748.123 910.907H748.14Z" fill="#EBCC73"/>
<path fill-rule="evenodd" clip-rule="evenodd" d="M760.61 921.98C760.61 921.98 757.187 922.797 755.962 922.147C754.737 921.497 753.523 920.76 753.926 919.944C754.329 919.127 756.532 917.746 756.532 917.091C756.577 916.498 756.39 915.912 756.01 915.455C755.629 914.999 755.086 914.709 754.496 914.646C752.62 914.404 752.051 915.624 752.051 915.624C752.051 915.624 750.256 914.243 748.795 914.012C749.66 913.906 750.53 913.851 751.401 913.846C749.148 912.825 746.759 912.139 744.309 911.809C746.345 910.59 750.342 907 752.948 907C755.554 907 757.187 906.597 756.779 905.211C756.371 903.825 754.334 901.789 752.137 900.972C752.948 899.994 753.523 898.527 751.567 894.525C749.526 890.533 750.342 887.841 750.998 886.868C751.567 885.643 753.604 883.446 754.582 882.059C755.559 880.673 756.376 878.798 758.004 877.82C758.821 877.251 761.427 876.208 764.038 875.214C766.891 874.236 769.255 873.011 770.883 874.236C772.678 875.456 771.861 877.09 771.861 877.09C771.861 877.09 777.486 875.048 782.537 877.659C787.593 880.098 799.902 881.651 799.902 881.651L804.313 890.538L775.133 915.559L763.071 921.593L760.626 921.996L760.61 921.98Z" fill="#E5C66B"/>
<path fill-rule="evenodd" clip-rule="evenodd" d="M801.115 881.075C801.115 881.075 792.067 887.109 790.031 889.306C791.25 889.473 793.287 890.29 792.47 891.509C791.492 892.729 785.625 896.968 782.364 900.966C778.941 904.958 775.68 910.014 774.541 912.458C773.321 914.656 764.026 921.098 760.851 921.909C767.534 921.909 780.983 913.678 786.033 913.678C785.872 916.123 787.42 918.895 790.273 919.137C793.126 919.379 801.357 920.931 812.441 914.086C823.526 907.402 819.861 902.427 824.503 899.171C833.39 893.299 836.974 888.081 841.863 884.825C846.753 881.569 849.283 880.828 849.283 880.828C849.283 880.828 849.444 878.383 850.895 878.631C851.292 878.676 851.669 878.829 851.986 879.074C852.302 879.318 852.545 879.644 852.69 880.017C852.69 880.017 861.168 873.983 872.032 872.355C871.779 872.242 871.576 872.039 871.463 871.785C871.463 871.785 872.274 871.377 872.44 870.969C872.44 870.969 873.01 870.152 873.418 870.56C873.827 870.969 874.396 873.983 875.213 875.208C877.007 874.391 880.43 866.73 880.43 866.73L888.667 843.175V821.656L882.219 822.881L833.863 843.417L804.516 873.822L801.094 881.075H801.115Z" fill="#E6BD62"/>
<path fill-rule="evenodd" clip-rule="evenodd" d="M940.328 775.524C942.943 774.89 945.451 773.872 947.769 772.505C946.791 775.116 946.791 777.969 942.552 784.164C938.313 790.359 938.152 791.256 934.729 797.693C931.307 804.377 930.898 813.995 927.637 818.228C929.099 817.518 930.667 817.052 932.279 816.848C932.279 816.848 929.023 819.701 927.637 822.715C926.251 825.729 923.806 832.004 917.778 835.841C911.749 839.677 904.082 842.116 895.851 851.164C887.614 860.046 879.141 871.297 874.896 875.342C877.099 871.511 880.114 863.85 880.93 858.799C881.747 853.749 880.764 847.709 882.15 841.031C883.536 834.352 883.536 829.538 890.209 817.879C896.882 806.22 908.305 765.714 908.305 765.714L932.918 757.891L940.338 775.498L940.328 775.524Z" fill="#B6933F"/>
<path fill-rule="evenodd" clip-rule="evenodd" d="M922.56 760.608C922.56 760.608 915.145 771.284 913.109 780.74C911.072 790.196 912.942 789.38 911.722 794.027C910.993 796.861 910.993 799.833 911.722 802.667C914.29 798.53 917.806 795.064 921.979 792.555C928.991 788.321 934.697 785.302 938.098 781.718C941.521 777.887 944.374 771.612 951.788 766.803C948.774 766.394 944.535 765.008 943.729 765.191C946.748 761.768 955.791 756.551 964.92 750.276C973.968 743.828 973.398 741.228 988.071 734.791C983.263 735.608 980.979 734.383 976.982 734.791C978.594 731.368 984.235 729.735 989.877 724.115C995.518 718.495 986.293 710.178 986.293 710.178L943.31 736.177L922.527 760.629L922.56 760.608Z" fill="#C49937"/>
<path fill-rule="evenodd" clip-rule="evenodd" d="M805.924 741.208L806.902 733.385L819.211 713.661L832.09 679.022V631.665L831.112 604.28L833.149 586.345L834.696 580.644L836.33 578.441L846.839 583.9L861.351 603.624L862.737 641.691L848.634 701.76L808.369 745.695L805.924 741.208Z" fill="#DFC068"/>
<path fill-rule="evenodd" clip-rule="evenodd" d="M837.958 576.237C837.958 576.237 831.511 576.404 830.135 603.22C828.76 630.036 828.093 644.135 827.116 657.422C826.138 670.709 823.86 678.774 822.715 686.602C821.571 694.43 820.921 705.101 817.256 711.624C815.644 714.638 812.2 724.094 804.13 731.186C795.082 739.009 781.564 744.474 779.517 744.882C775.928 745.693 757.751 747.488 750.337 751.566C747.731 752.952 743.245 754.58 738.275 759.228C728.41 768.109 715.289 784.002 705.833 803.156C691.326 831.767 676.819 912.538 676.819 912.538L680.081 907.079C680.081 907.079 680.489 899.826 687.742 887.108C694.835 874.396 692.798 860.131 702.658 835.759C706.489 826.469 711.297 814.407 717.164 804.134C726.46 787.425 737.705 773.079 749.037 765.256C767.535 752.544 787.915 749.771 787.915 749.771L809.842 735.264C809.842 735.264 813.673 727.85 818.729 719.371C825.815 707.476 834.847 694.189 836.819 674.873C839.839 646.262 832.58 627.516 832.988 610.565C833.397 593.613 833.558 581.143 836.986 578.123C840.414 575.103 837.964 576.248 837.964 576.248L837.958 576.237Z" fill="#A88F33"/>
<path fill-rule="evenodd" clip-rule="evenodd" d="M837.958 704.205C837.958 704.205 847.629 680.403 852.056 659.293C852.873 655.054 854.501 650.82 854.909 647.397C856.945 627.426 857.515 619.195 854.909 608.272C852.873 600.212 845.05 592.948 840.972 587.317C836.98 581.445 835.105 579.258 835.921 578.022C836.738 576.787 839.913 574.766 843.008 575.008C846.298 575.104 849.534 575.868 852.519 577.253C855.504 578.639 858.177 580.617 860.373 583.068C866.649 590.321 871.619 614.94 871.619 614.94L876.847 647.424L890.134 688.339L837.968 704.237L837.958 704.205Z" fill="#C99E3D"/>
<path fill-rule="evenodd" clip-rule="evenodd" d="M928.835 679.429C928.835 679.429 927.04 680.24 923.784 679.429C923.923 680.76 923.692 682.103 923.117 683.31C922.541 684.518 921.644 685.544 920.523 686.274C917.101 684.888 885.062 687.66 885.062 687.66C885.062 687.66 870.147 685.049 865.499 665.325C862.243 652.199 867.944 634.109 866.069 622.208C863.216 604.681 859.224 601.253 858.815 595.8C858.407 590.346 857.999 588.955 857.999 585.532C856.204 585.124 855.146 584.554 853.356 584.554C852.948 582.942 853.759 581.535 851.97 578.682C852.948 579.09 859.632 579.907 867.455 587.321C873.902 593.355 873.902 595.553 874.875 596.778C876.095 597.997 885.959 606.449 890.198 614.874C894.438 623.298 902.669 650.163 904.544 654.563C905.114 656.358 906.339 658.152 909.38 662.225C914.108 668.098 921.034 677.806 928.856 679.418L928.835 679.429Z" fill="#B58634"/>
<path fill-rule="evenodd" clip-rule="evenodd" d="M876.025 597.188C880.962 605.164 885.398 613.44 889.307 621.967C894.115 632.804 896.968 641.691 903.002 648.945C899.741 639.494 893.954 620.909 890.532 614.306C886.701 607.321 878.878 599.799 876.025 597.193V597.188Z" fill="#A88F33"/>
<path fill-rule="evenodd" clip-rule="evenodd" d="M820.597 731.187C820.597 731.187 812.366 733.223 797.043 741.293C791.987 743.899 787.183 746.097 782.536 748.139C770.463 753.597 757.514 758.643 747.241 761.426C748.058 762.404 748.461 762.807 748.461 762.807C748.461 762.807 748.461 766.804 750.664 769.082C749.444 770.307 733.137 781.391 737.951 818.475C741.207 817.256 745.038 815.622 745.608 815.622C746.591 815.789 746.833 818.475 748.052 818.475C749.272 818.475 753.27 816.863 757.509 811.383C757.348 813.586 754.903 835.754 768.024 850.67C770.468 847.817 776.663 838.36 776.663 838.36L776.824 835.346C776.824 835.346 777.394 824.831 780.822 815.214C784.25 805.596 790.928 798.504 790.928 798.504L825.804 748.703L820.587 731.182L820.597 731.187Z" fill="#E6C367"/>
<path fill-rule="evenodd" clip-rule="evenodd" d="M787.995 804.312C786.398 805.44 784.639 806.319 782.778 806.918C782.209 804.881 781.392 797.87 786.201 791.025C791.826 782.788 804.13 772.112 807.553 763.623C809.755 758.159 808.778 744.468 828.34 726.942C847.903 709.416 855.559 703.387 855.559 703.387L887.184 687.494L926.063 702.818L906.747 778.522L891.751 813.983L832.112 802.738L787.99 804.312H787.995Z" fill="#DCBA5A"/>
<path fill-rule="evenodd" clip-rule="evenodd" d="M810.761 783.756L818.181 774.467V767.863C818.181 767.863 826.412 765.66 835.293 756.612C844.175 747.564 856.484 730.205 867.327 731.263C878.169 732.488 879.228 754.818 879.636 761.099C880.044 767.38 881.431 781.634 883.628 789.301C886.073 796.963 857.22 825.977 857.22 825.977L837.625 840.892L810.761 783.756Z" fill="#E9CE77"/>
<path fill-rule="evenodd" clip-rule="evenodd" d="M833.718 861.103C833.718 861.103 839.752 851.647 835.33 849.61C837.936 843.743 842.745 837.548 842.745 837.548C842.745 837.548 846.167 829.075 857.252 818.641C868.336 808.207 875.186 801.276 876.981 794.269C878.087 789.703 878.689 785.029 878.775 780.332C879.974 781.311 881.256 782.183 882.606 782.938C884.401 783.755 892.874 790.761 891.654 804.865C890.435 818.969 885.207 824.836 885.207 824.836C885.207 824.836 880.156 829.886 876.573 832.498C872.736 835.103 871.355 838.118 864.913 838.365C865.575 837.838 866.32 837.424 867.116 837.14C867.116 837.14 860.432 836.328 856.843 839.584C853.254 842.84 845.625 852.872 841.794 855.891C837.963 858.336 833.734 861.108 833.734 861.108L833.718 861.103Z" fill="#CDAE50"/>
<path fill-rule="evenodd" clip-rule="evenodd" d="M1104.73 702.571C1095.1 699.062 1084.98 697.082 1074.74 696.704C1057.62 696.135 1032.6 697.113 1008.06 697.274C981.656 697.435 957.693 688.226 924.44 686.598C918.981 683.336 905.098 669.071 861.76 699.31C864.366 699.149 893.224 692.626 903.244 705.183C913.35 717.653 910.497 738.844 909.117 743.894C906.505 755.145 898.027 771.527 894.61 783.02C891.193 794.513 891.998 800.552 889.554 808.611C887.109 816.67 881.731 820.673 884.906 829.963C889.145 827.357 891.354 827.357 898.435 811.464C905.517 795.571 904.061 784.24 915.8 770.791C927.293 757.262 946.426 738.758 953.701 734.11C960.976 729.463 1018.74 699.471 1079.22 728.082C1093.81 726.535 1104.73 702.566 1104.73 702.566L1104.73 702.571Z" fill="#D2A83E"/>
<path fill-rule="evenodd" clip-rule="evenodd" d="M886.125 691.482C886.065 690.869 885.93 690.266 885.722 689.687C885.157 688.495 884.414 687.396 883.519 686.426C883.519 686.426 869.174 683.82 861.92 684.631C849.203 686.017 837.71 701.749 832.332 709.819C826.953 717.889 820.269 730.355 813.016 736.797C813.095 736.169 812.951 735.534 812.608 735.002C812.608 735.002 813.016 735.572 812.205 736.388C811.393 737.205 811.388 737.608 811.796 738L813.021 739.22C813.424 739.22 824.675 734.164 839.999 719.877C856.3 704.962 868.771 697.311 875.293 694.689C878.772 693.211 882.408 692.135 886.131 691.482H886.125Z" fill="#C29637"/>
<path fill-rule="evenodd" clip-rule="evenodd" d="M1164.39 630.199C1164.39 630.199 1161.78 633.455 1158.52 637.044C1151.27 644.706 1141.81 653.34 1133.74 662.227C1126.09 670.706 1117.45 677.309 1107.74 688.393C1098.04 699.477 1086.79 711.781 1083.94 715.37C1081.33 718.96 1079.3 724.827 1079.3 727.841C1077.91 726.863 1076.28 725.805 1076.28 725.805C1076.97 727.084 1077.79 728.287 1078.73 729.394C1080.76 732.247 1083.94 735.841 1085.57 738.033C1087.58 740.824 1089.02 743.98 1089.81 747.323C1090.79 747.484 1097.06 748.709 1104.89 735.831C1112.72 722.952 1122.98 708.853 1122.98 708.853L1139.28 684.643L1149.55 664.108L1162.45 641.122L1164.41 630.199H1164.39Z" fill="#AC8132"/>
<path fill-rule="evenodd" clip-rule="evenodd" d="M1181.1 613.736C1181.1 613.736 1171.24 621.796 1167.41 626.631C1163.58 631.467 1154.51 644.158 1154.51 644.158L1157.77 643.749L1174.32 629.081L1180.77 617.589L1181.1 613.758L1181.1 613.736Z" fill="#A88F33"/>
<path fill-rule="evenodd" clip-rule="evenodd" d="M1178.08 1261.47C1178.08 1261.47 1177.92 1254.78 1181.67 1250.79C1185.5 1246.79 1195.2 1240.93 1204.66 1218.92C1214.11 1196.91 1215.17 1191.94 1215.17 1191.94C1215.17 1191.94 1198.22 1206.45 1187.77 1209.87C1190.21 1204.81 1191.6 1201.23 1192.82 1198.62C1191.44 1197.4 1185.57 1196.01 1185 1195.36C1188.25 1192.1 1190.05 1184.11 1196.65 1178.82C1205.13 1172.37 1220.62 1161.29 1232.65 1151.41C1244.69 1141.54 1268.35 1118.57 1271.37 1111.88C1273.16 1114.49 1273.57 1116.12 1273.57 1116.12C1273.57 1116.12 1261.67 1131.61 1255.48 1141.47C1250.01 1149.95 1250.42 1154.76 1250.42 1154.76L1261.67 1149.92C1261.67 1149.92 1264.93 1161.98 1250.18 1180.32C1256.63 1177.88 1259.23 1179.35 1262.89 1177.31C1256.86 1181.14 1248.54 1186.36 1240.72 1200.7C1233.06 1215.04 1222.63 1231.75 1205.02 1242.18C1187.91 1253.19 1178.04 1261.42 1178.04 1261.42L1178.08 1261.47Z" fill="#A67A2E"/>
<path fill-rule="evenodd" clip-rule="evenodd" d="M1133.91 711.056C1133.91 711.056 1127.22 724.988 1126.25 735.83C1126.09 738.441 1125.43 740.478 1125.43 743.492C1125.27 753.19 1126 764.032 1123.82 769.083C1123 767.047 1122.59 765.66 1121.78 764.849C1120.56 768.272 1118.35 778.948 1116.56 782.94C1115.75 780.334 1113.95 771.286 1114.12 760.61C1114.29 749.934 1114.52 747.892 1114.52 745.695C1114.12 748.951 1111.92 753.357 1111.1 755.962C1109.88 753.765 1108.49 750.912 1106.86 748.548C1105.88 750.16 1104.66 752.54 1103.61 753.765C1103.44 752.787 1103.04 750.176 1102.79 746.511C1102.63 742.272 1102.38 736.813 1102.63 735.669C1103.03 733.471 1106.46 724.832 1113.71 716.923C1122.35 707.467 1131.24 689.295 1133.84 683.67C1136.45 678.045 1147.53 654.656 1147.53 654.656H1156.01L1143.7 682.692C1143.7 682.692 1136.29 698.016 1132.46 703.646C1128.63 709.277 1120.56 725.412 1116.97 731.688C1119.57 728.265 1121.78 726.47 1124.39 723.209C1126.91 720.926 1133.92 711.066 1133.92 711.066L1133.91 711.056Z" fill="#8C6228"/>
<path fill-rule="evenodd" clip-rule="evenodd" d="M1181.26 612.672C1179.88 616.934 1177.69 620.892 1174.82 624.331C1169.76 630.365 1158.92 638.43 1153.63 644.866C1148.79 651.142 1139.12 668.26 1143.51 688.553C1145.13 684.153 1148.16 675.433 1156.23 665.568C1164.3 655.703 1172.94 644.377 1177.19 635.577C1181.42 626.69 1181.99 619.684 1181.99 619.684L1183.6 617.647L1182.62 613L1181.24 612.672H1181.26Z" fill="#CBA94C"/>
<path fill-rule="evenodd" clip-rule="evenodd" d="M1346.32 1153.31C1346.32 1153.31 1343.05 1144.42 1342.08 1136.35C1341.1 1128.28 1343.69 1126.68 1340.69 1117.45C1338.9 1111.82 1335.64 1112.61 1334.82 1111.82C1334.01 1111.03 1333.44 1102.53 1333.6 1097.88C1333.76 1093.24 1333.44 1087.21 1332.62 1084.6C1331.4 1083.62 1330.58 1082.8 1328.79 1076.77C1326.75 1070.74 1325.77 1067.73 1324.8 1065.94C1323.82 1064.15 1320.96 1062.51 1320.96 1060.72C1320.96 1057.13 1324.22 1055.26 1324.22 1054.27C1324.06 1052.24 1321.62 1053.87 1320.96 1053.29C1320.15 1052.32 1323 1046.45 1321.94 1045.63C1321.54 1045.23 1318.68 1048.65 1317.95 1047.67C1317.13 1046.69 1316.15 1036.99 1314.69 1030.56C1313.3 1024.28 1311.83 1019.72 1311.67 1017.84C1311.51 1016.05 1300.42 984.424 1297.73 976.762C1295.57 970.288 1293.75 963.704 1292.27 957.038C1291.46 953.207 1290.89 945.379 1290.48 946.196C1290.07 947.012 1290.32 951.004 1289.66 950.843C1289.09 950.677 1287.06 936.745 1286.41 934.542C1285.84 932.339 1282.41 924.871 1281.57 919.465C1280.76 914.001 1278.97 899.736 1277.74 890.038C1276.52 880.34 1275.95 876.348 1275.95 873.919C1276.15 867.979 1275.82 862.033 1274.97 856.151C1273.36 845.878 1270.13 833.408 1267.31 826.16C1261.85 812.464 1247.34 777.417 1244.74 768.696C1244.74 766.494 1247.59 767.719 1247.59 767.719C1247.59 767.719 1254.68 785.487 1259.9 799.177C1264.95 812.872 1269.76 824.935 1270.99 826.16C1271.97 827.379 1279.63 840.828 1283.05 862.835C1286.47 884.842 1287.69 905.136 1289.73 918.665C1290.71 925.112 1291.53 931.952 1293.56 938.797C1295.76 946.217 1299.18 953.879 1303.67 965.613C1307.5 975.478 1310.35 983.709 1311.9 990.802C1313.7 999.85 1313.7 1006.69 1314.76 1011.18C1315.74 1015.01 1317.2 1022.67 1320.63 1033.75C1324.06 1044.83 1329.1 1059.1 1332.52 1067.98C1339.21 1085.75 1342.19 1100.58 1343.2 1108.49C1344.1 1116.64 1347.12 1144.84 1346.3 1153.32L1346.32 1153.31Z" fill="#A88F33"/>
<path fill-rule="evenodd" clip-rule="evenodd" d="M1181.67 611.695L1181.27 612.672C1181.27 612.672 1182.49 613.081 1182.24 614.714C1182.26 616.949 1182.12 619.182 1181.84 621.398C1181.43 624.251 1180.62 626.449 1180.45 628.243C1180.45 632.074 1181.02 636.474 1175.62 647.398C1174.01 650.412 1173.01 653.018 1172.2 654.812C1170.16 659.213 1169.75 659.868 1167.96 661.904C1170.81 660.293 1181.08 653.845 1186.29 654.812C1182.71 656.848 1177.25 660.846 1173.82 666.063C1174.64 666.224 1178.06 666.88 1183.5 666.063C1192.54 664.677 1202.65 661.415 1211.53 662.066C1221.23 662.635 1217.4 650.412 1217.4 650.412L1206.21 625.798L1185.02 610.889L1181.67 611.7V611.695Z" fill="#BE9C44"/>
<path fill-rule="evenodd" clip-rule="evenodd" d="M1236.93 796.067C1236.93 796.067 1227.48 786.61 1223.65 754.158C1219.82 721.555 1220.63 673.564 1220.63 673.564L1212.97 654.818C1212.97 654.818 1211.36 642.348 1207.35 637.706C1203.33 633.063 1195.45 625.235 1191.86 621.404C1188.27 617.573 1184.2 612.356 1181.75 611.539C1182.97 609.503 1188.44 598.01 1209.38 597.849C1230.32 597.688 1236.78 609.342 1238.97 613.581C1241.16 617.82 1251.03 636.147 1254.7 671.071C1258.12 705.952 1258.29 708.563 1257.72 720.626C1257.31 727.309 1255.1 742.794 1251.27 759.337C1247.77 773.361 1243.93 789.012 1236.92 796.099L1236.93 796.067Z" fill="#A17C34"/>
<path fill-rule="evenodd" clip-rule="evenodd" d="M1207.28 823.86C1210.43 824.087 1213.58 823.377 1216.33 821.818C1219.34 821.657 1230.27 823.043 1238.66 812.367C1239.23 814.806 1240.7 821.415 1236.86 827.282C1238.91 825.241 1241.92 824.429 1242.33 823.86C1242.49 826.874 1245.34 836.164 1233.28 858.741C1236.54 855.157 1240.37 855.318 1243.79 854.91C1243.96 859.149 1246.23 873.409 1240.21 881.076C1236.21 886.293 1229.69 884.66 1229.69 884.66C1229.79 883.521 1229.79 882.376 1229.69 881.237C1229.53 879.034 1228.71 876.837 1229.29 875.37C1226.14 873.93 1223.27 871.942 1220.81 869.497C1213.72 862.813 1204.51 851.407 1203.86 842.928C1203.04 833.472 1211.52 831.436 1211.52 831.436C1210.81 830.8 1210.2 830.057 1209.73 829.233C1209.32 827.852 1208.91 825.649 1207.28 823.86Z" fill="#8C6228"/>
<path fill-rule="evenodd" clip-rule="evenodd" d="M1144.42 721.323C1144.42 721.323 1144.01 720.753 1141.81 723.359C1142.22 720.753 1142.63 718.303 1142.79 715.939C1143.83 713.75 1145.18 711.721 1146.79 709.911C1145.56 712.35 1144.75 714.553 1144.75 714.553C1144.75 714.553 1147.77 708.927 1152.17 705.505C1155.18 703.06 1159.01 701.921 1160.64 699.638C1162.43 697.193 1162.03 696.785 1162.43 696.376C1162.43 696.376 1166.43 693.77 1172.55 686.103C1173.36 685.125 1174.58 684.067 1175.4 683.089C1176.78 682.52 1180.04 681.053 1183.87 679.092C1187.87 676.894 1192.35 673.88 1195.12 672.644C1200.58 670.2 1206.37 670.447 1209.06 666.61C1211.1 666.041 1213.29 659.927 1212.89 654.715C1215.9 655.934 1231.39 665.552 1236.69 686.582C1240.52 701.497 1233.67 724.482 1230.82 735.572C1227.97 746.661 1227.56 754.887 1223.57 759.938C1218.51 766.627 1202.21 776.057 1198.22 780.726C1194.79 784.556 1184.53 794.255 1184.93 801.261C1185.34 806.478 1191.78 809.32 1193.17 810.309C1194.56 811.297 1194.55 812.512 1197.16 811.921C1199.77 811.33 1200.74 810.126 1201.81 810.126C1203.03 810.287 1203.03 810.534 1203.6 810.534C1204.01 810.522 1204.42 810.466 1204.82 810.368C1204.82 810.368 1204.41 817.788 1187.05 820.039C1185.83 820.206 1184.61 820.609 1183.05 820.856C1185.1 819.878 1186.32 819.878 1188.52 816.864C1186.07 816.455 1179.06 816.047 1177.27 815.478C1177.84 814.5 1179.71 811.888 1181.26 810.669C1182.65 809.449 1181.1 809.057 1179.88 809.691C1177.78 811.12 1175.76 812.67 1173.85 814.333C1171.81 816.128 1170.01 818.572 1166.75 820.781C1165.78 817.519 1165.94 811.324 1169.77 806.843C1168.79 807.004 1166.91 809.857 1165.13 809.288C1164.8 806.315 1164.99 803.308 1165.7 800.401C1166.67 796.731 1171.97 790.295 1171.97 790.295L1197.56 744.566L1203.02 709.927L1144.42 721.312V721.323Z" fill="#92723A"/>
<path fill-rule="evenodd" clip-rule="evenodd" d="M1143.04 723.279C1143.04 723.279 1141.65 724.257 1144.42 726.132C1144.01 726.701 1143.04 728.738 1141.81 730.124C1140.43 731.736 1138.96 732.735 1138.39 734.121C1137.17 736.974 1136.19 738.93 1136.19 740.155C1136.19 741.38 1135.78 749.203 1132.36 754.253C1131.14 756.048 1129.75 759.062 1128.77 761.099C1126.73 764.682 1124.94 767.546 1124.53 769.158C1123.72 772.011 1123.15 779.834 1123.15 779.834C1123.15 779.834 1124.95 777.631 1125.6 776.82C1124.61 778.856 1123.55 781.053 1122.01 782.687C1122.98 781.87 1125.84 779.834 1130.65 775.595C1137.33 769.975 1147.76 760.518 1160.48 753.028C1156.65 754.415 1153.39 754.415 1150.78 754.823C1152.82 752.787 1171.16 731.268 1180.78 729.232C1181.36 728.491 1181.65 727.562 1181.59 726.621L1173.36 725.809L1156.65 729.393L1154.21 716.498L1143.04 723.263V723.279Z" fill="#B18E3E"/>
<path fill-rule="evenodd" clip-rule="evenodd" d="M1169.61 796.634C1169.61 796.634 1167.41 798.832 1165.37 804.296C1163.8 802.659 1162.46 800.821 1161.37 798.832C1158.36 793.781 1153.72 787.339 1142.88 791.009C1142.71 787.586 1142.47 785.792 1142.88 783.347C1144.67 782.944 1150.13 778.544 1155.59 772.101C1159.42 767.701 1163.01 762.645 1165.45 756.208C1167.06 754.983 1169.85 752.947 1173.51 750.583C1178.73 746.999 1185 742.105 1185.98 736.646C1183.54 737.624 1178.32 740.068 1170.49 739.665C1173.51 738.279 1178.15 736.812 1177.58 730.778C1178.81 729.962 1179.79 729.392 1179.79 729.392C1178.87 729.086 1177.9 728.947 1176.93 728.984C1176.77 728.414 1176.53 727.603 1175.14 728.006C1173.75 728.409 1173.53 728.414 1173.35 728.984C1172.78 729.15 1170.9 728.984 1169.51 729.967C1168.13 730.95 1164.3 734.201 1162.83 734.771C1163.4 733.793 1164.21 732.331 1164.21 732.331C1164.21 732.331 1160.22 732.734 1157.37 733.943C1152.15 735.738 1146.12 738.999 1140.01 742.174C1140.58 741.197 1140.82 740.563 1141.23 740.38C1141.63 740.197 1142.61 739.977 1142.61 739.81C1142.61 739.644 1142.21 738.198 1142.45 737.613C1144.28 733.74 1146.44 730.032 1148.9 726.528C1151.75 722.692 1152.32 717.233 1152.32 717.233L1164.79 710.958L1199.84 702.898L1222.58 704.285L1219.73 720.017L1206.3 747.483L1194.8 772.504L1181.68 787.833L1169.62 796.634H1169.61Z" fill="#543E26"/>
<path fill-rule="evenodd" clip-rule="evenodd" d="M1226.42 728.554C1226.42 728.554 1212.72 745.506 1208.89 748.117C1211.34 742.9 1226.42 711.844 1231.88 703.205C1230.66 702.227 1229.03 702.227 1232.86 687.086C1229.6 694.742 1228.46 698.74 1225.77 700.776C1223.08 702.812 1222.75 702.162 1220.93 702.162C1221.28 701.542 1221.42 700.83 1221.34 700.126C1221.34 700.126 1209.84 698.74 1201.99 698.74C1194.14 698.74 1178.61 702.979 1169.96 706.402C1163.12 709.255 1159.29 709.255 1156.84 711.044C1154.4 713.08 1153.01 715.283 1151.78 715.852C1150.81 716.422 1146.16 717.889 1145.1 719.436C1144.12 721.048 1142.5 722.859 1142.5 723.267C1142.5 723.675 1142.09 724.25 1143.31 723.837C1143.71 723.675 1146.73 722.042 1150.16 720.006C1154.8 717.4 1160.42 714.386 1164.5 712.591C1176.16 707.944 1179.83 708.76 1185.04 707.782C1190.5 706.804 1198.32 704.521 1203.54 704.521C1208.75 704.36 1218.62 704.521 1220.9 704.929C1219.92 705.746 1219.11 706.724 1219.52 710.146C1219.52 711.124 1218.7 712.183 1217.9 714.547C1215.46 721.231 1210.82 732.315 1208.23 737.94C1204.65 745.597 1200.58 752.039 1198.56 756.031C1196.55 760.023 1192.11 770.538 1187.72 776.163C1183.33 781.789 1181.04 785.211 1179.66 786.436C1178.29 787.661 1168.41 794.909 1169.15 797.521C1170.94 796.951 1182.28 792.685 1190.5 783.422C1198.73 774.159 1200.37 768.507 1206.8 763.451C1213.24 758.395 1218.3 749.922 1221.31 742.916C1223.84 736.393 1223.27 734.357 1226.44 728.57L1226.42 728.554Z" fill="#806031"/>
<path fill-rule="evenodd" clip-rule="evenodd" d="M931.285 855.076C931.285 855.076 929.49 862.49 925.412 866.16C921.42 869.749 914.328 872.844 913.517 878.878C912.539 884.906 920.609 887.926 920.609 887.926C920.609 887.926 916.203 895.179 916.203 900.638C916.203 906.263 916.042 907.322 916.612 912.7C915.965 913.116 915.416 913.666 915 914.312C915 914.312 915.403 919.529 919.4 922.785C923.398 926.041 926.815 928.002 928.851 927.185C929.162 927.85 929.435 928.532 929.668 929.227C929.668 929.227 932.687 921.565 934.724 914.881C936.76 908.036 938.554 909.009 939.366 899.8C940.177 890.591 949.037 874.778 949.037 874.778L955.082 861.265L945.222 853.604L931.285 855.07V855.076Z" fill="#B6903C"/>
<path fill-rule="evenodd" clip-rule="evenodd" d="M949.623 868.357C947.59 870.445 945.713 872.679 944.008 875.041C941.402 878.63 939.366 881.886 935.535 883.278C931.704 884.67 929.26 884.659 929.501 888.495C929.743 892.331 933.332 893.954 935.369 895.91C937.571 897.946 939.366 901.369 938.388 905.205C939.608 904.635 941.811 903.98 943.847 899.579C945.883 895.179 960.127 868.363 960.127 868.363H949.623V868.357Z" fill="#685026"/>
<path fill-rule="evenodd" clip-rule="evenodd" d="M1005.8 806.495C1005.8 806.495 1007.02 803.239 1005.8 800.875C1004.57 798.43 997.158 797.614 993.488 794.841C989.657 791.988 985.01 790.006 981.179 791.258C981.748 789.871 984.032 786.852 982.157 786.202C980.362 785.632 973.683 788.646 971.889 790.032C970.094 791.419 966.016 793.047 965.205 794.03C964.394 795.013 963.002 796.883 962.185 796.066C961.369 795.497 960.966 794.03 959.58 794.841C958.193 795.653 951.52 801.117 950.29 804.298C949.059 807.478 946.292 814.571 937.98 822.635C929.669 830.7 926.079 835.922 928.524 838.937C930.969 841.951 932.113 839.753 932.522 842.359C932.836 844.917 932.698 847.511 932.113 850.021C931.135 854.26 929.507 858.252 931.705 859.069C937.33 860.863 942.795 857.457 944.014 858.499C946.459 860.697 942.628 868.606 948.415 870.153C954.287 871.765 960.074 868.767 960.074 868.767L981.426 857.274L1001.97 846.437L1012.48 825.65L1006.84 808.29L1005.77 806.495H1005.8Z" fill="#D4B968"/>
<path fill-rule="evenodd" clip-rule="evenodd" d="M985.648 856.134C985.648 856.134 982.059 850.675 986.464 845.861C990.87 841.047 997.14 839.016 999.585 836.001C999.12 835.427 998.495 835.003 997.79 834.782C999.413 831.878 1001.89 829.543 1004.88 828.092C1003.66 826.873 1002.03 825.895 1000.24 825.895C996.243 825.895 993.793 828.34 990.129 828.34C986.545 828.34 986.137 826.545 986.137 826.545C986.137 826.545 992.17 825.976 991.595 823.284C991.026 820.431 989.984 820.431 989.984 820.431C989.984 820.431 1001.64 815.595 1003.67 813.016C1005.71 810.437 1005.47 807.391 1005.88 806.171C1007.26 806.171 1015.33 801.932 1018.59 803.726C1021.85 805.521 1019.57 810.41 1019.57 810.41C1019.57 810.41 1029.44 802.99 1034.47 795.715C1038.87 796.124 1040.91 792.701 1044.14 792.701C1048.13 792.701 1054.41 798.16 1055.63 809.814C1056.45 816.498 1057.67 820.329 1056.45 832.149C1055.88 838.833 1056.04 853.103 1058.06 860.185C1059.44 865.81 1062.7 865.241 1062.7 865.241C1062.2 866.955 1061.21 868.485 1059.85 869.641C1057.64 871.678 1057.4 877.061 1057.64 879.097C1057.97 880.586 1058.38 882.055 1058.87 883.498C1058.87 883.498 1056.26 886.512 1055.61 888.554C1055.04 890.59 1052.35 891.976 1050.39 891.976C1048.43 891.976 1049.41 891.81 1046.81 891.976C1044.2 892.143 1043.38 892.546 1041.75 891.976C1040.12 891.407 1038.9 890.751 1039.55 885.529C1040.12 880.312 1019.42 868.169 1019.42 868.169L985.572 856.107L985.648 856.134Z" fill="#CCA849"/>
<path fill-rule="evenodd" clip-rule="evenodd" d="M946.771 907.645C946.771 907.645 954.185 917.509 984.671 917.509C999.178 917.509 1004.23 916.123 1007.24 915.306C1010.5 914.49 1022.72 909.686 1035.03 895.174C1046.12 882.053 1043.67 876.675 1043.67 876.675L1037.22 875.697L1016.27 878.55L954.266 904.958L946.744 907.645H946.771Z" fill="#585136"/>
<path fill-rule="evenodd" clip-rule="evenodd" d="M969.508 910.089C969.508 910.089 943.101 915.962 943.101 899.252C943.101 882.951 959.402 865.833 963.48 862.819C967.719 859.799 977.826 856.371 977.826 856.371H1002.2L1006.84 868.68L1004.8 895.249L969.508 910.084V910.089Z" fill="#252211"/>
<path fill-rule="evenodd" clip-rule="evenodd" d="M993.879 861.351C993.879 861.351 988.829 856.704 977.336 862.963C965.843 869.222 956.548 882.305 955.979 894.185C955.409 904.694 964.618 912.523 978.964 912.931C989.64 913.334 996.082 912.114 999.343 911.319C998.527 910.341 994.287 905.044 994.287 905.044L993.884 861.356L993.879 861.351Z" fill="#C3B378"/>
<path fill-rule="evenodd" clip-rule="evenodd" d="M988.909 863.951C988.909 863.951 987.689 862.974 984.073 864.929C981.059 866.541 976.659 870.802 973.236 873.816C971.033 875.611 969.647 876.422 968.401 877.808C963.345 883.842 959.106 893.707 961.556 898.596C964.006 903.485 972.07 909.111 992.611 905.28L988.85 863.957L988.909 863.951Z" fill="#E6D89C"/>
<path fill-rule="evenodd" clip-rule="evenodd" d="M982.226 874.062C982.226 874.062 978.965 879.118 978.965 887.188C978.965 895.42 983.612 908.54 1000.73 909.518C1013.85 910.335 1022.65 890.611 1032.19 882.949C1039.44 877.082 1043.84 876.915 1043.84 876.915C1043.84 876.915 1036.43 868.856 1016.62 858.417C997.061 847.902 975.134 846.516 963.233 862.656C968.858 862.247 987.035 857.6 987.035 857.6L995.922 860.453L982.226 874.068V874.062Z" fill="#252211"/>
<path fill-rule="evenodd" clip-rule="evenodd" d="M1007.82 884.74C1007.25 883.52 1006.84 881.887 1009.2 881.484C1011.57 881.081 1012.63 881.317 1013.44 883.096C1014.26 884.874 1015.05 886.357 1013.85 887.093C1012.63 887.743 1009.44 887.093 1007.81 884.729L1007.82 884.74ZM1003.99 873.247C1003.99 873.247 1003.17 873.817 1003.58 872.678C1003.74 871.297 1004.8 868.847 1007.41 869.422C1010.01 869.997 1009.45 872.844 1009.02 873.661C1008.59 874.478 1006.41 875.859 1004.78 875.273C1004.57 875.22 1004.38 875.119 1004.22 874.978C1004.06 874.837 1003.94 874.66 1003.86 874.462C1003.78 874.264 1003.75 874.049 1003.76 873.836C1003.78 873.623 1003.85 873.418 1003.96 873.237L1003.99 873.247Z" fill="#6F674D"/>
<path fill-rule="evenodd" clip-rule="evenodd" d="M783.357 878.46C783.357 878.46 789.805 883.296 797.295 883.108C804.709 882.941 814.246 875.285 818.647 870.39C821.253 867.537 823.482 864.523 825.9 862.159C827.942 860.122 829.323 859.144 830.3 857.758C831.687 856.146 833.153 853.116 833.89 852.133C832.095 853.519 829.489 855.969 826.797 857.597C824.191 859.209 818.566 862.239 816.283 863.056C814.085 863.873 791.261 875.951 791.261 875.951L783.357 878.46Z" fill="#AC924C"/>
<path fill-rule="evenodd" clip-rule="evenodd" d="M793.211 818.233C793.211 818.233 796.795 815.789 803.726 814.236C810.41 812.624 823.858 811.383 823.858 811.383L834.943 816.218L839.343 832.928L831.284 850.293L821.016 856.741L809.357 837.995L793.238 818.266L793.211 818.233Z" fill="#9F8E57"/>
<path fill-rule="evenodd" clip-rule="evenodd" d="M778.706 833.149L774.87 836.013C774.87 836.013 775.853 834.218 776.664 828.759C777.475 823.301 781.72 810.013 787.915 802.352C794.11 794.69 793.949 795.098 793.949 795.098C793.379 794.994 792.793 795.012 792.231 795.152C791.668 795.292 791.142 795.55 790.687 795.909C791.504 794.104 796.721 787.657 801.938 784.433C807.155 781.209 809.192 780.194 814.651 782.821C820.109 785.448 821.496 786.813 825.493 786.652C829.491 786.491 832.908 782.252 832.908 782.252C832.908 782.252 833.724 784.857 830.71 790.891C827.696 796.925 815.795 809.229 815.795 809.229L791.015 826.18L778.706 833.165V833.149Z" fill="#EAC970"/>
<path fill-rule="evenodd" clip-rule="evenodd" d="M797.037 816.198C797.037 816.198 814.972 818.642 820.431 813.592C820.592 814.161 821.247 814.161 821.247 814.57C821.204 814.877 821.06 815.162 820.839 815.381C821.433 815.286 822.032 815.232 822.634 815.22C823.351 815.433 824.09 815.57 824.837 815.628C825.438 815.615 826.038 815.559 826.631 815.461C826.574 815.867 826.437 816.256 826.226 816.607C826.016 816.958 825.737 817.262 825.406 817.503C826.223 817.503 827.018 817.664 827.018 818.314C827.018 818.965 827.179 820.926 826.201 821.334C825.391 821.558 824.529 821.499 823.757 821.167C823.821 822.711 824.24 824.218 824.982 825.573C826.593 828.587 830.032 832.021 834.653 831.032C834.653 831.032 837.092 836.899 826.825 849.939C825.444 851.734 823.972 854.179 822.182 856.215C821.475 857.756 820.935 859.368 820.57 861.024C820.57 861.024 837.936 854.34 842.906 839.097C847.962 823.773 848.939 808.697 847.962 794.598C847.795 790.601 847.145 787.753 846.167 785.712C843.722 780.656 836.872 781.472 834.105 784.325C830.107 788.323 823.423 798.263 814.134 805.108C804.677 811.953 804.274 813.167 797.016 816.198H797.037Z" fill="#D7BC6B"/>
<path fill-rule="evenodd" clip-rule="evenodd" d="M775.525 838.204C775.525 838.204 772.103 840.241 770.308 847.876C768.513 855.699 771.92 865.236 773.892 868.25C775.864 871.264 780.339 879.501 789.624 879.909C791.922 879.897 794.194 879.426 796.308 878.523C799.549 877.037 802.589 875.146 805.355 872.897C809.353 869.883 812.609 867.277 812.201 867.03C811.223 866.622 787.587 847.059 787.587 847.059L778.701 837.141L775.52 838.215L775.525 838.204Z" fill="#585136"/>
<path fill-rule="evenodd" clip-rule="evenodd" d="M797.865 870.64C797.865 870.64 802.674 870.237 805.527 868.443C808.38 866.648 788.817 847.252 788.817 847.252L790.204 868.206L797.865 870.64Z" fill="#453A25"/>
<path fill-rule="evenodd" clip-rule="evenodd" d="M777.072 836.733C777.072 836.733 774.628 841.381 774.628 842.606C774.219 846.598 775.444 859.149 776.422 863.141C777.4 867.38 782.698 873.817 789.548 873.817C793.782 873.817 799.655 871.211 799.655 870.561C799.655 869.744 793.621 868.949 791.993 865.913C791.015 864.302 790.607 860.293 790.381 856.242C790.22 853.636 790.22 850.783 791.198 849.795C793.401 847.35 793.803 840.338 793.803 840.338L801.626 825.805H791.337L779.028 833.466L777.072 836.733Z" fill="#84754B"/>
<path fill-rule="evenodd" clip-rule="evenodd" d="M774.058 841.219C774.058 841.219 782.117 830.543 789.381 828.093C796.645 825.643 799.896 827.115 799.896 827.115L795.657 837.957L789.623 844.641L790.031 848.064C790.031 848.064 789.048 857.112 795.082 863.387C801.116 869.663 805.597 869.421 808.208 869.421C810.819 869.421 818.314 867.218 822.145 858.17C825.568 849.697 828.421 838.828 821.576 827.932C814.886 817.089 803.071 816.67 800.788 816.67C798.504 816.67 780.575 817.567 774.058 841.203V841.219Z" fill="#252211"/>
<path fill-rule="evenodd" clip-rule="evenodd" d="M981.001 877.487C977.987 876.1 980.84 867.627 983.854 865.016C986.868 862.405 990.699 859.396 997.388 858.982C999.828 858.821 1002.19 860.368 1001.79 862.002C1001.22 865.016 996.98 869.255 993.149 872.269C987.851 876.428 984.424 879.034 981.001 877.487Z" fill="#F7F7E7"/>
<path fill-rule="evenodd" clip-rule="evenodd" d="M817.987 831.274C820.19 831.113 823.043 832.886 823.612 835.271C824.182 837.877 822.226 843.094 817.987 843.094C814.564 843.094 812.77 838.855 812.77 837.635C812.808 836.632 813.088 835.654 813.586 834.782C813.747 834.535 814.156 831.682 817.987 831.274Z" fill="#F8F6DE"/>
<path fill-rule="evenodd" clip-rule="evenodd" d="M786.2 833.148C786.2 833.148 780.575 835.754 777.969 841.208C776.107 845.235 775.544 849.741 776.357 854.103C776.765 856.139 778.802 861.19 780.188 862.984C781.574 864.779 783.449 866.004 784.836 865.837C786.222 865.671 789.069 862.006 789.069 859.809C789.069 857.611 789.236 848.316 791.922 843.26C794.287 838.21 786.216 833.154 786.216 833.154L786.2 833.148Z" fill="#D4C38B"/>
<path fill-rule="evenodd" clip-rule="evenodd" d="M787.016 832.742C786.038 833.311 784.41 834.128 784.813 835.186C785.222 836.164 788.644 836.798 789.869 839.184C791.255 841.628 791.255 844.234 790.847 845.459C791.912 844.954 792.878 844.262 793.7 843.418C795.495 841.381 797.692 838.614 799.567 838.614C800.792 838.614 802.012 839.184 803.156 839.184C804.951 839.184 806.74 838.614 806.987 836.739C807.39 834.294 803.565 832.092 801.362 832.5C801.77 830.888 802.34 828.508 800.545 826.874C798.751 825.241 793.131 828.099 791.906 828.916C790.681 829.733 787.016 832.747 787.016 832.747V832.742Z" fill="#E2D59D"/>
<path fill-rule="evenodd" clip-rule="evenodd" d="M916.532 1003.99L928.594 1000.42L932.017 1002.87C932.017 1002.87 934.456 1008.09 938.292 1008.74C937.067 1011.34 933.887 1013.57 934.053 1015.42C934.22 1017.27 935.848 1018.68 935.848 1018.68C935.848 1018.68 925.005 1036.61 946.362 1054.68C941.307 1056.72 934.87 1059.52 931.447 1061.13C933.887 1061.7 939.104 1062.74 941.307 1064.72C943.509 1066.69 943.509 1067.32 945.546 1068.55C947.582 1069.77 948.802 1071.4 948.399 1072.13C947.013 1071.31 942.365 1068.87 941.554 1071.15C940.742 1073.43 921.421 1072.54 921.421 1072.54L888.819 1078.81C888.819 1078.81 890.038 1075.55 886.616 1072.54C882.624 1068.96 877.734 1072.7 872.517 1068.71C865.672 1063.49 865.425 1057.46 863.228 1055.18C865.425 1053.79 869.911 1051.76 880.587 1050.34C880.179 1049.53 878.793 1047.08 879.61 1044.88C880.587 1042.03 884.66 1040.24 883.44 1036.83C885.235 1036.42 886.046 1036.42 890.533 1030.79C894.772 1025.17 897.378 1023.95 900.639 1023.54C903.9 1023.13 905.856 1023.54 911.89 1017.91C916.124 1013.92 914.743 1010.5 914.743 1010.5C914.743 1010.5 917.51 1009.6 916.537 1003.98L916.532 1003.99Z" fill="#CBAC5A"/>
<path fill-rule="evenodd" clip-rule="evenodd" d="M880.914 1005.8C881.075 1004.98 881.731 1004.57 886.131 1004.98C890.532 1005.39 918.406 1002.38 925.988 1001.97C933.649 1001.4 960.627 1001.8 973.753 1004.57C986.879 1007.35 1000.16 1010.61 1006.6 1012.23C1013.04 1014.03 1015.08 1014.67 1014.83 1015.49C1014.67 1016.31 1013.22 1017.1 1012.38 1016.88C1011.57 1016.72 990.215 1010.19 983.617 1008.82C977.019 1007.44 954.19 1003.76 941.709 1003.98C930.055 1004.15 925.407 1003.82 915.548 1004.96C905.683 1006.18 889.382 1007.81 884.493 1007.16C879.657 1006.59 880.656 1006.59 880.903 1005.78L880.914 1005.8Z" fill="#D6BC6F"/>
<path fill-rule="evenodd" clip-rule="evenodd" d="M946.523 1069.68C946.523 1069.68 963.232 1078.73 969.266 1089.81C973.667 1098.04 966.66 1102.12 966.66 1102.12C966.66 1102.12 976.117 1102.12 974.892 1107.34C974.322 1110.59 958.59 1119.4 948.075 1124.04C937.4 1128.69 937.808 1128.45 932.591 1129.26C927.535 1130.08 913.678 1127.65 910.825 1131.7C907.972 1135.76 909.213 1139.94 910.008 1140.59C910.825 1141.16 917.428 1141.98 917.428 1141.98C917.428 1141.98 916.042 1145.81 902.352 1146.22C888.662 1146.63 885.234 1147.6 884.417 1149.07C883.601 1150.45 887.023 1149.64 893.304 1150.68C899.58 1151.66 908.38 1152.29 908.38 1152.29C908.38 1152.29 905.527 1154.74 898.113 1156.69C889.634 1158.89 876.347 1160.93 872.355 1163.38C874.391 1164.76 877.411 1166.8 878.803 1166.96C875.38 1167.78 870.566 1169.57 869.755 1170.22C870.974 1171.04 872.608 1172.02 872.608 1172.02C872.608 1172.02 865.757 1180.25 861.765 1182.29C857.773 1184.33 834.788 1195 826.879 1192.97C807.155 1187.75 804.71 1166.15 799.901 1164.52C792.648 1162.08 789.226 1166.96 782.783 1163.54C785.636 1161.5 787.189 1160.28 790.203 1158.9C786.942 1157.28 770.071 1146.59 770.071 1146.59C768.307 1142.74 766.349 1138.99 764.204 1135.34C760.943 1129.72 756.145 1122.22 752.545 1115.61C744.722 1101.11 744.313 1094.42 737.221 1086.19C738.446 1084.58 742.68 1084.8 742.68 1084.8L802.104 1104.37L907.472 1107.42L934.874 1068.3L946.528 1069.69L946.523 1069.68Z" fill="#DFC677"/>
<path fill-rule="evenodd" clip-rule="evenodd" d="M790.44 1129.34C791.076 1130.05 791.817 1130.65 792.637 1131.14C794.679 1132.52 797.693 1134.16 799.73 1136.59C800.546 1135.37 802.583 1133.17 806.177 1136.59C809.772 1140.02 814.237 1137.58 817.014 1138.39C819.867 1139.37 820.029 1139.78 820.029 1139.78C820.029 1139.78 821.64 1138.39 825.246 1136.92C827.449 1136.11 830.054 1135.54 832.907 1134.72C835.513 1134.16 838.366 1133.34 840.327 1133.34C842.122 1134.56 848.559 1141.4 874.397 1131.3C898.768 1121.85 904.389 1120.79 908.467 1122.25C908.875 1121.27 909.283 1119.4 915.559 1119.64C915.559 1117.04 910.342 1108.15 910.342 1108.15L881.57 1098.29H865.833L818.642 1106.93L792.492 1121.85L790.456 1129.37L790.44 1129.34Z" fill="#C4A859"/>
<path fill-rule="evenodd" clip-rule="evenodd" d="M774.708 1112.8C774.708 1112.8 775.278 1117.2 781.8 1121.85C788.248 1126.49 790.273 1129.26 790.273 1129.26C790.273 1129.26 791.498 1127.65 792.476 1126.01C793.454 1124.21 794.271 1122.17 795.899 1121.61C799.16 1120.22 806.575 1122.82 808.208 1122.42C809.594 1122.01 809.186 1119.16 810.653 1119.16C814.075 1118.99 816.273 1121.36 817.498 1121.36C818.723 1121.36 821.732 1121.2 822.14 1120.55C822.548 1119.9 822.71 1113.13 827.357 1109.87C832.413 1106.28 838.608 1107.83 840.252 1108.65C840.252 1109.87 840.413 1112.88 843.675 1113.05C846.936 1113.21 847.258 1112.64 850.122 1113.62C852.986 1114.59 856.398 1113.45 857.945 1118.26C859.331 1117.85 862.593 1117.45 861.776 1112.8C863.388 1111.58 864.796 1110.76 868.223 1105.95C869.04 1104.73 870.421 1103.35 871.485 1101.55C874.338 1101.55 877.76 1100.98 882.322 1104.98C880.936 1105.95 880.119 1106.59 879.716 1107.58C880.909 1108.76 881.998 1110.04 882.972 1111.41C884.197 1113.02 885.014 1115 886.561 1115.41C889.984 1116.39 895.609 1115 901.885 1115.41C907.918 1115.82 912.969 1118.02 915.172 1119.4C915.989 1119 915.989 1118.83 918.025 1119.24C920.061 1119.65 921.609 1119.81 919.411 1117.2C920.631 1117.77 922.017 1119 923.242 1117.77C924.467 1116.55 925.439 1114.76 928.862 1114.35C932.285 1113.94 933.51 1114.51 934.896 1110.93C936.69 1106.53 930.495 1106.53 930.495 1106.53C930.495 1106.53 933.348 1103.92 936.529 1100.5C940.36 1096.91 944.76 1092.26 945.819 1086.56C947.613 1076.04 937.346 1074.66 937.346 1074.66L887.544 1089.99L826.659 1086.97L774.74 1112.8L774.708 1112.8Z" fill="#927D49"/>
<path fill-rule="evenodd" clip-rule="evenodd" d="M729.963 968.939C729.963 968.939 728.351 970.975 727.357 975.784C726.363 980.593 726.788 980.023 725.971 983.446C725.154 986.868 715.123 1020.94 718.884 1032.43C722.645 1043.92 729.157 1048.16 733.23 1057.45C734.046 1059.49 734.842 1060.71 735.266 1062.51C736.652 1068.54 735.433 1073.18 737.061 1079.22C737.63 1081.25 739.102 1083.62 741.3 1086.06C746.135 1091.11 754.017 1095.92 757.419 1099.34C762.222 1104.4 769.072 1114.67 777.793 1115.65C782.44 1116.22 789.043 1114.26 794.502 1111C799.338 1107.98 802.325 1103.75 807.397 1101.33C810.981 1099.54 814.812 1098.89 818.234 1098.07C825.327 1096.69 831.769 1096.46 835.6 1097.25C841.467 1098.48 855.324 1102.72 863.001 1102.72C869.001 1102.62 874.967 1101.8 880.77 1100.27C892.423 1096.85 906.522 1090.98 915.817 1088.37C921.276 1086.76 925.676 1086.34 930.163 1085.36C937.824 1083.56 944.261 1081.12 947.931 1076.47C945.486 1073.62 942.472 1069.22 926.165 1069.38C907.666 1069.79 886.309 1080.06 875.794 1081.69C865.28 1083.32 860.718 1084.7 848.978 1080.46C837.469 1076.18 837.088 1073.35 837.088 1073.35C837.088 1073.35 825.004 1064.9 819.948 1043.35C814.892 1021.81 819.948 1006.11 833.074 991.188C836.497 987.357 835.68 983.935 835.68 983.935C835.68 983.935 844.32 972.281 841.956 961.368C839.35 950.526 822.64 952.729 822.64 952.729L729.968 968.939H729.963Z" fill="#6E6342"/>
<path fill-rule="evenodd" clip-rule="evenodd" d="M743.899 1005.21C743.181 1006.56 742.843 1008.08 742.921 1009.61C743.083 1011.81 743.738 1014.66 750.336 1021.1C755.961 1026.72 754.736 1033 754.736 1033C754.736 1033 757.568 1033.57 765.251 1029.97C771.285 1027.12 773.31 1032.18 773.31 1032.18C775.067 1031.26 776.971 1030.65 778.936 1030.38C780.717 1030.22 782.44 1029.67 783.986 1028.77C783.986 1028.77 791.079 1036.02 797.274 1039.45C802.899 1042.47 806.16 1044.5 808.933 1042.47C811.539 1040.67 811.539 1037 811.372 1035.37C810.726 1033.87 809.907 1032.45 808.933 1031.14C807.138 1028.53 804.285 1025.51 804.097 1023.08C803.689 1017.46 808.336 1010.77 807.353 1009.14C806.37 1007.51 802.711 1007.1 793.663 1010.36C784.293 1013.46 743.862 1005.23 743.862 1005.23L743.899 1005.21Z" fill="#39331F"/>
<path fill-rule="evenodd" clip-rule="evenodd" d="M765.251 1041.64C765.251 1041.64 760.609 1037.24 762.237 1015.89C764.208 1015.86 766.176 1016.05 768.104 1016.46C768.104 1016.46 770.635 1033 765.251 1041.64Z" fill="#292311"/>
<path fill-rule="evenodd" clip-rule="evenodd" d="M732.165 952.636C732.813 952.157 733.414 951.617 733.96 951.025C732.348 954.039 724.906 966.101 730.94 985.094C736.974 1004 752.131 1018.1 770.796 1018.76C789.462 1019.41 799.273 1010.28 810.491 996.587C814.892 991.128 819.947 984.277 824.428 979.635C831.112 972.376 836.329 970.34 836.329 963.334C836.329 948.988 821.656 942.546 800.057 936.109C778.458 929.673 758.976 930.468 748.869 934.874C739.01 939.677 734.771 944.733 732.16 952.642L732.165 952.636Z" fill="#252211"/>
<path fill-rule="evenodd" clip-rule="evenodd" d="M801.524 1048.08L803.136 1047.27C803.136 1047.27 803.539 1040.82 806.15 1040.99C808.756 1041.4 809.981 1044.83 809.734 1046.05C809.573 1047.27 808.922 1049.31 806.311 1049.06C802.889 1049.14 801.508 1048.08 801.508 1048.08H801.524Z" fill="#3F3824"/>
<path fill-rule="evenodd" clip-rule="evenodd" d="M794.271 1020.7C794.271 1020.7 795.882 1020.13 797.854 1022.08C799.466 1022.08 806.494 1021.27 808.697 1022.65C810.9 1024.04 811.55 1025.26 811.55 1025.26C811.55 1025.26 803.318 1027.05 798.832 1025.26C794.271 1023.71 794.271 1020.7 794.271 1020.7Z" fill="#2D2815"/>
<path fill-rule="evenodd" clip-rule="evenodd" d="M830.544 1021.91C830.544 1021.51 826.143 1018.49 821.496 1017.51C820.679 1017.35 820.512 1017.92 819.884 1017.92C819.476 1017.76 819.314 1016.53 819.314 1016.53L816.671 1017.92C816.671 1017.92 816.263 1018.49 817.649 1019.53C818.868 1020.51 820.91 1021.33 821.48 1022.96C822.049 1024.59 822.049 1025.15 822.296 1025.4C822.457 1025.56 825.31 1025.4 826.697 1024.59C828.083 1023.77 830.694 1022.44 830.528 1021.9L830.544 1021.91Z" fill="#82764F"/>
<path fill-rule="evenodd" clip-rule="evenodd" d="M789.381 1038.46C789.381 1038.46 790.193 1032.84 795.657 1032.6C801.277 1032.19 802.341 1037.65 802.341 1037.65L799.079 1040.91C799.079 1040.83 796.635 1037.4 789.408 1038.46H789.381Z" fill="#2D2816"/>
<path fill-rule="evenodd" clip-rule="evenodd" d="M824.837 1014.25C824.837 1014.25 821.818 1017.51 815.139 1018.49C814.569 1017.68 813.344 1016.05 815.139 1013.44C816.934 1010.84 818.97 1010.02 821.006 1010.83C821.905 1010.98 822.743 1011.38 823.422 1011.98C824.1 1012.59 824.592 1013.38 824.837 1014.25Z" fill="#574F35"/>
<path fill-rule="evenodd" clip-rule="evenodd" d="M837.142 1018.25C837.308 1017.43 836.739 1017.27 837.142 1016.86C837.545 1016.46 839.753 1015.64 840.161 1016.05C840.322 1016.21 840.161 1016.86 840.161 1017.66C840.161 1018.45 840.161 1019.27 839.753 1019.86C839.183 1020.67 837.555 1021.08 836.739 1020.84C835.922 1020.6 835.761 1019.45 835.761 1019.23C836.164 1019.07 837.142 1018.66 837.142 1018.25ZM851.057 1009.45C851.057 1009.04 852.444 1008.22 853.26 1008.22C854.48 1008.22 854.48 1009.2 854.646 1009.45C855.049 1009.61 855.049 1009.28 855.458 1010.02C855.866 1010.76 856.441 1012.06 856.027 1012.87C855.614 1013.69 853.991 1014.25 853.588 1014.09C853.019 1013.68 851.224 1010.02 851.057 1009.45Z" fill="#82764F"/>
<path fill-rule="evenodd" clip-rule="evenodd" d="M823.042 1020.13C823.042 1020.13 824.837 1020.53 827.282 1022.57C826.465 1023.14 825.24 1023.79 825.24 1023.79C825.24 1023.79 825.079 1021.92 823.042 1020.12V1020.13Z" fill="#6E6342"/>
<path fill-rule="evenodd" clip-rule="evenodd" d="M819.051 1002.19C818.642 1001.79 820.27 1000.81 821.248 1000.97C822.226 1001.13 822.634 1001.79 823.693 1001.95C824.751 1002.11 824.918 1001.54 825.305 1001.13C825.692 1000.72 827.099 1000.97 827.341 1001.13C827.492 1001.31 827.628 1001.5 827.749 1001.7C827.767 1001.39 827.847 1001.09 827.987 1000.81C828.127 1000.53 828.322 1000.29 828.561 1000.09C828.873 999.861 829.234 999.705 829.615 999.634C829.997 999.563 830.389 999.58 830.764 999.682C830.925 1000.25 831.742 1002.29 831.58 1002.7C831.419 1003.1 828.975 1003.68 828.561 1003.27C828.969 1004.25 830.764 1006.29 831.005 1006.69C831.247 1007.09 829.211 1008.07 828.4 1007.91C827.261 1007.83 820.249 1003.75 819.029 1002.21L819.051 1002.19ZM829.727 988.662C829.576 988.252 829.287 987.906 828.91 987.684C828.341 987.523 826.465 987.684 826.465 988.662C826.465 989.64 828.077 995.11 829.888 997.957C831.93 1000.81 833.31 1003.17 834.697 1003.82C835.132 1004.02 835.626 1004.05 836.08 1003.9C836.533 1003.75 836.913 1003.43 837.141 1003.01C837.303 1002.6 837.711 999.585 837.55 992.493C837.388 985.401 837.141 978.556 836.733 978.147C836.325 977.739 834.697 977.744 834.127 978.556C833.558 979.367 829.888 987.443 829.721 988.662H829.727Z" fill="#585136"/>
<path fill-rule="evenodd" clip-rule="evenodd" d="M822.474 1030.39C822.474 1030.39 819.621 1028.6 816.848 1029.82C814.243 1031.05 814.404 1035.86 814.404 1035.86C814.99 1036.09 815.623 1036.17 816.249 1036.1C816.875 1036.03 817.473 1035.81 817.993 1035.45C819.787 1034.23 822.066 1032.19 822.474 1030.4V1030.39Z" fill="#574F35"/>
<path fill-rule="evenodd" clip-rule="evenodd" d="M827.851 1036.84C827.689 1035.22 826.239 1035.22 826.239 1034.39C826.339 1033.99 826.569 1033.64 826.894 1033.39C827.218 1033.14 827.618 1033 828.028 1033C828.845 1033 829.64 1033.98 830.639 1034.62C831.617 1035.19 833.084 1036.23 833.245 1037.47C833.406 1038.71 831.633 1042.11 829.661 1042.11C827.689 1042.11 828.275 1038.44 827.867 1036.81L827.851 1036.84ZM843.583 1034.63C843.583 1034.63 840.321 1035.61 840.563 1034.63C840.805 1033.65 841.546 1033.41 842.605 1033.41C843.142 1032.85 843.866 1032.5 844.641 1032.43C845.084 1032.41 845.52 1032.55 845.861 1032.84C845.861 1032.84 848.064 1031.86 848.714 1032.43C849.364 1033 848.88 1033 849.283 1033.65C849.796 1034.38 850.133 1035.22 850.266 1036.1C850.266 1036.75 847.822 1038.14 845.861 1037.89C843.583 1037.4 843.985 1035.04 843.583 1034.63ZM862.57 1030.96C862.57 1030.96 863.548 1031.53 862.737 1032.19C862.167 1032.76 859.314 1033.8 856.864 1033.98C854.42 1033.98 852.222 1034.39 852.222 1033.57C852.222 1032.76 854.258 1031.13 855.478 1030.72C855.723 1030.41 856.033 1030.17 856.387 1030C856.741 1029.83 857.128 1029.74 857.52 1029.74C858.498 1029.74 862.323 1029.33 863.387 1029.17C864.365 1029.01 865.182 1029.58 864.607 1030.39C864.365 1030.96 862.57 1030.96 862.57 1030.96ZM868.196 1005.8C868.196 1005.8 866.971 1008.4 865.59 1008.4C864.204 1008.24 864.204 1007.83 864.204 1007.42C864.204 1006.85 865.59 1005.39 865.423 1004.98C865.02 1004.98 864.037 1004.98 864.204 1004C864.204 1003.18 865.59 1002.21 866.81 1002.39C867.731 1001.63 868.879 1001.2 870.071 1001.17C871.457 1001.17 872.677 1001.57 872.677 1002.39C872.677 1003.21 871.065 1005 870.474 1005.41C869.824 1006.06 869.007 1006.48 868.196 1005.81V1005.8ZM849.611 1053.96C849.611 1053.96 847.999 1054.13 847.999 1054.94C847.999 1055.35 848.402 1055.35 848.977 1055.11C849.308 1055.09 849.636 1055.03 849.955 1054.94C850.116 1055.11 850.116 1055.92 851.341 1055.92C852.347 1055.78 853.316 1055.45 854.194 1054.94C855.172 1054.54 855.989 1054.13 855.989 1053.33C855.58 1051.94 854.764 1051.29 853.544 1051.29C852.919 1051.25 852.296 1051.39 851.749 1051.7C851.749 1051.7 851.341 1050.88 849.955 1051.7C848.569 1052.51 848.73 1052.51 849.138 1052.92C849.869 1053.57 849.627 1054 849.627 1054L849.611 1053.96ZM840.402 1062.44C840.402 1062.03 842.438 1061.22 843.008 1061.46C843.577 1061.63 845.205 1064.72 845.205 1065.05C845.205 1065.46 843.169 1066.43 842.352 1066.43C841.535 1066.43 840.155 1065.05 840.155 1064.82C840.155 1064.66 841.132 1064.42 841.132 1064.25C841.374 1063.85 840.402 1062.87 840.402 1062.46V1062.44ZM833.954 1050.54C834.363 1050.38 834.363 1049.97 834.932 1049.56C835.11 1049.45 835.314 1049.37 835.526 1049.34C835.738 1049.31 835.954 1049.33 836.157 1049.4C836.301 1049.15 836.5 1048.92 836.74 1048.75C836.979 1048.58 837.254 1048.47 837.543 1048.42C838.521 1048.26 839.338 1048.42 839.155 1048.83C839.155 1050.05 839.972 1050.86 839.972 1051.84C839.972 1052.82 839.402 1054.04 837.366 1054.86C835.33 1055.43 832.557 1055.43 832.149 1055.27C831.741 1055.11 831.332 1053.48 831.741 1052.66C832.149 1051.84 833.288 1050.95 833.944 1050.54H833.954Z" fill="#82764F"/>
<path fill-rule="evenodd" clip-rule="evenodd" d="M836.55 1051.1C836.55 1051.1 835.164 1051.91 835.164 1052.32C835.041 1052.72 834.987 1053.13 835.003 1053.54C835.003 1053.78 836.797 1053.38 837.039 1053.13C837.12 1052.97 836.55 1051.52 836.55 1051.1Z" fill="#6E6342"/>
<path fill-rule="evenodd" clip-rule="evenodd" d="M824.43 1047.26C825.241 1047.43 826.627 1047.26 827.686 1047.67C828.502 1048.08 829.072 1048.9 828.255 1049.88C827.438 1050.85 826.643 1052.32 824.833 1052.07C822.796 1051.91 820.841 1050.85 820.841 1050.04C820.806 1049.52 820.875 1049 821.043 1048.51C821.211 1048.02 821.475 1047.57 821.818 1047.18C822.635 1046.53 823.038 1046.94 824.424 1047.26H824.43Z" fill="#585136"/>
<path fill-rule="evenodd" clip-rule="evenodd" d="M823.451 1048.08C823.451 1048.08 820.845 1050.12 820.19 1051.1C819.373 1052.08 815.381 1057.13 814.161 1058.19C814.566 1057.47 815.028 1056.79 815.542 1056.15C813.93 1057.18 812.722 1058.74 812.12 1060.55C811.142 1063.57 817.584 1065.2 821.818 1066.43C826.052 1067.65 827.69 1068.04 827.69 1068.04C826.132 1065.69 824.793 1063.21 823.693 1060.62C822.081 1056.79 821.248 1056.38 822.307 1054.59C823.123 1052.79 824.348 1051.57 824.348 1050.19C823.859 1048.9 823.451 1048.08 823.451 1048.08Z" fill="#574F35"/>
<path fill-rule="evenodd" clip-rule="evenodd" d="M730.532 1054.52C731.125 1054.63 731.734 1054.63 732.327 1054.52C733.546 1054.36 746.264 1049.69 759.551 1050.53C769.498 1051.13 779.357 1052.75 788.973 1055.36C805.683 1059.76 826.465 1068.48 839.914 1073.46C843.498 1074.84 847.006 1077.29 849.585 1078.26C859.858 1082.26 860.261 1082.26 866.295 1083.32C873.387 1084.3 880.64 1081.93 888.222 1080.3C897.511 1078.26 913.404 1077.28 927.342 1075.25C931.848 1074.62 936.294 1073.61 940.629 1072.23C940.629 1072.23 929.545 1083.32 902.97 1087.31C892.229 1088.94 881.313 1089.08 870.534 1087.72C862.056 1086.9 856.435 1085.68 852.196 1084.46C847.388 1083.07 837.523 1079.4 825.38 1076.4C816.902 1074.19 807.445 1072.57 796.608 1070.53C769.873 1065.63 740.859 1060.01 730.521 1054.56L730.532 1054.52Z" fill="#252211"/>
<path fill-rule="evenodd" clip-rule="evenodd" d="M700.535 1004.15C694.087 1009.61 687.248 1014.83 680.569 1019.88L660.437 1035.35C653.592 1040.4 646.908 1045.62 640.057 1050.67C633.207 1055.73 626.367 1060.53 619.103 1065.18C625.551 1059.72 632.39 1054.66 639.235 1049.69C646.08 1044.72 653.178 1039.85 659.781 1034.81L679.914 1019.32C686.839 1014.27 693.523 1009.05 700.535 1004.16V1004.15ZM664.918 1061.21C664.918 1061.21 672.171 1055.17 681.219 1046.7C692.465 1036.19 706.241 1022.74 710.641 1020.3L664.912 1061.21L664.918 1061.21Z" fill="#CFB66C"/>
<path fill-rule="evenodd" clip-rule="evenodd" d="M664.918 1061.2C668.507 1057.62 672.338 1054.12 676.169 1050.69L682.036 1045.64C683.831 1044.03 685.872 1042.21 687.661 1040.42C691.245 1036.84 694.754 1033 698.337 1029.34C700.114 1027.49 701.992 1025.75 703.963 1024.12C704.948 1023.25 706.043 1022.51 707.219 1021.92C708.202 1021.35 709.261 1020.3 710.641 1020.12C709.83 1021.35 708.852 1021.92 708.036 1022.97C707.058 1023.79 706.241 1024.77 705.43 1025.58C703.635 1027.37 701.599 1029 699.804 1030.64C695.973 1033.9 691.981 1037.08 688.15 1040.5C684.32 1043.91 680.736 1047.59 676.9 1051.01C672.746 1054.52 668.915 1057.94 664.918 1061.22V1061.2ZM713.661 1028.6C713.661 1028.6 687.092 1054.6 681.628 1058.84L713.661 1028.6Z" fill="#CFB66C"/>
<path fill-rule="evenodd" clip-rule="evenodd" d="M713.661 1028.6C711.271 1031.37 708.708 1033.98 705.989 1036.42L697.929 1044.08C695.323 1046.69 692.873 1049.3 690.106 1051.91C687.253 1054.35 684.648 1056.74 681.628 1059L689.451 1051.34C692.062 1048.73 694.915 1046.53 697.688 1043.92L705.51 1036.26C708.197 1033.57 710.808 1030.96 713.661 1028.6ZM714.881 1042.7C712.432 1049.53 709.546 1056.2 706.241 1062.67C699.396 1076.36 689.128 1093.48 684.642 1102.2L714.881 1042.7Z" fill="#CFB66C"/>
<path fill-rule="evenodd" clip-rule="evenodd" d="M714.881 1042.7C714.881 1045.72 714.064 1048.33 713.086 1050.93C712.133 1053.54 711.046 1056.1 709.83 1058.6C708.605 1061.04 707.219 1063.65 705.833 1066.02C704.447 1068.38 702.819 1070.82 701.594 1073.27L693.362 1087.78C690.509 1092.61 687.737 1097.47 684.723 1102.12C686.759 1096.9 689.531 1092.02 692.143 1087.21C694.996 1082.37 697.602 1077.54 700.202 1072.53C701.472 1070.04 702.614 1067.49 703.625 1064.88C704.844 1062.27 706.064 1059.82 707.047 1057.46C708.267 1054.85 709.245 1052.4 710.47 1050.04C711.85 1047.51 712.995 1045.07 714.87 1042.7H714.881Z" fill="#CFB66C"/>
<path fill-rule="evenodd" clip-rule="evenodd" d="M743.899 1109.54C743.899 1109.54 735.84 1120.21 736.646 1133.74C738.844 1126.66 741.616 1115.81 743.899 1109.54ZM751.561 1120.24C751.561 1120.24 748.708 1149.25 746.344 1163.52C749.686 1147.03 750.336 1148.42 751.561 1120.24ZM804.946 1165.23C804.946 1165.23 792.884 1200.69 792.637 1210.55C795.248 1200.41 800.299 1179.71 804.946 1165.21V1165.23Z" fill="#DEC270"/>
<path fill-rule="evenodd" clip-rule="evenodd" d="M833.149 1107.34C833.149 1107.34 852.712 1139.62 867.386 1167.17C863.415 1153.3 854.281 1127.88 833.149 1107.34Z" fill="#CBAF59"/>
<path fill-rule="evenodd" clip-rule="evenodd" d="M885.722 1154.86C896.463 1173.84 906.149 1193.41 914.736 1213.46C913.108 1199.6 908.702 1175.89 885.722 1154.86Z" fill="#E3C677"/>
<path fill-rule="evenodd" clip-rule="evenodd" d="M1040.26 1202.45C1043.51 1200.41 1049.96 1189.32 1055.58 1186.55C1061.2 1183.7 1065.44 1183.13 1070.5 1177.5C1075.55 1171.63 1076.94 1168.05 1088.02 1163.41C1103.51 1156.72 1092.85 1148.08 1092.85 1148.08C1094.56 1146.4 1096.38 1144.85 1098.31 1143.43C1102.31 1140.42 1106.95 1136.75 1106.55 1130.31C1105.98 1119.47 1103.94 1103.74 1095.06 1094.61C1103.7 1092.82 1120.24 1091.6 1130.52 1088.99C1142.41 1085.97 1147.88 1081.73 1147.88 1081.73C1147.88 1081.73 1141.03 1070.08 1152.12 1058.34C1163.2 1046.61 1172.25 1039.6 1178.93 1026.47C1171.27 1025.49 1159.59 1021.42 1129.78 1032.75C1131.39 1033.5 1132.94 1034.38 1134.43 1035.35C1134.43 1035.35 1116.09 1040.41 1109.41 1046.03C1097.75 1055.89 1096.28 1063.96 1083.65 1070C1071.02 1076.03 1058.3 1074.4 1047.79 1079.29C1037.28 1084.18 1035.73 1088.34 1031.89 1090.13C1032.71 1091.11 1031.73 1092.74 1033.28 1094.12C1032.3 1095.51 1026.59 1104.8 1020.81 1104.8C1021.38 1107 1026.27 1108.63 1026.27 1108.63C1026.27 1108.63 1022.68 1111.24 1013.55 1111.89C1018.2 1116.73 1022.6 1122 1034.75 1129.66C1033.77 1131.7 1029.69 1134.71 1031.32 1138.55C1033.12 1142.38 1037.77 1147.59 1056.34 1151.83C1046.89 1152.24 1035.81 1154.44 1020.88 1152.4C1005.97 1150.61 1003.52 1149.55 994.314 1151.83C995.292 1152.81 997.898 1152.81 1000.18 1155.42C997.737 1155.58 982.413 1153.62 977.196 1160.47C971.737 1167.56 969.373 1179.22 969.782 1187.04C966.929 1188.43 964.156 1190.87 965.543 1195.93C966.929 1200.98 974.182 1202.61 978.83 1205.79C983.472 1209.21 983.88 1210.43 988.286 1209.62C992.928 1208.64 999.773 1204 1003.77 1204C1007.77 1204 1010.62 1207.01 1010.62 1207.01C1010.62 1207.01 1021.46 1201.8 1022.52 1202.77C1023.49 1203.75 1022.68 1210.03 1023.74 1211C1024.81 1211.74 1037.02 1204.49 1040.28 1202.45H1040.26Z" fill="#ECD592"/>
<path fill-rule="evenodd" clip-rule="evenodd" d="M1277.2 876.265C1226.26 744.715 1100.33 720.344 1100.33 720.344H741.046L742.433 854.339H813.984V1153.55H741.041V1287.3H1090.38C1174.58 1287.3 1242.06 1202.7 1242.06 1202.7C1350.14 1049.31 1277.19 876.265 1277.19 876.265H1277.2ZM1092.26 1112.55C1092.26 1112.55 1064.86 1152.08 1035.04 1152.08H975.402L973.989 854.666H1050.53C1050.53 854.666 1085.99 862.081 1110.76 932.257C1110.76 932.257 1143.61 1032.73 1092.26 1112.55Z" fill="white" fill-opacity="0.8"/>
</g>
</svg>
