<svg width="2000" height="2000" viewBox="0 0 2000 2000" fill="none" xmlns="http://www.w3.org/2000/svg">
<g clip-path="url(#clip0_1123_23242)">
<path d="M892.55 1501.16C760.052 1326.81 675.705 1300.11 452.52 1271.09C315.947 1253.33 171.93 1152.09 139.866 1010.07C83.1676 758.93 184.556 426.149 562.977 370.169C882.764 322.864 914.907 169.5 1228.52 142.029C1537.33 114.978 1770.1 538.745 1760.89 881.296C1750.08 1283.49 1670.19 1420.23 1530.28 1539.73C1332.23 1708.9 1027.82 1679.17 892.55 1501.16Z" fill="url(#paint0_linear_1123_23242)"/>
<path d="M759.357 1766.34C989.357 1808.34 1117.56 1760.76 1129.13 1690.34C1137.86 1637.24 983.135 1690.34 775.134 1560.34C567.134 1430.34 519.135 1382.34 457.135 1446.34C344.63 1562.47 575.357 1732.74 759.357 1766.34Z" fill="url(#paint1_linear_1123_23242)"/>
<circle cx="161.064" cy="161.064" r="161.064" transform="matrix(-0.470513 0.882393 0.882393 0.470513 407.565 152)" fill="url(#paint2_linear_1123_23242)"/>
<circle cx="81.9448" cy="81.9448" r="81.9448" transform="matrix(-0.470513 0.882393 0.882393 0.470513 304.454 1292.04)" fill="url(#paint3_linear_1123_23242)"/>
<path d="M1000.16 1564.31C1311.73 1564.31 1564.31 1311.73 1564.31 1000.16C1564.31 688.581 1311.73 436 1000.16 436C688.581 436 436 688.581 436 1000.16C436 1311.73 688.581 1564.31 1000.16 1564.31Z" fill="#BE9A30"/>
<path d="M1000.16 1483.72C1267.22 1483.72 1483.72 1267.22 1483.72 1000.16C1483.72 733.092 1267.22 516.594 1000.16 516.594C733.092 516.594 516.594 733.092 516.594 1000.16C516.594 1267.22 733.092 1483.72 1000.16 1483.72Z" fill="#414141"/>
<path d="M1005.66 633.455L1095.6 685.962L779.536 868.486V1131.02L1005.66 1259.79L1321.72 1077.26V1181.03L1005.66 1366.05L685.841 1181.03V817.229L1005.66 633.455Z" fill="#BE9A30"/>
<path d="M1131.63 775.299L1212.92 822.886L880.081 1016.68C877.932 1017.93 875.235 1016.38 875.235 1013.89V925.714C875.235 924.852 875.693 924.056 876.438 923.623L1131.63 775.299Z" fill="white"/>
<path d="M1262.96 1005.41L1261.69 911.24L929.175 1105.39C927.028 1106.65 927.048 1109.76 929.21 1110.98L1005.82 1154.4C1006.57 1154.83 1007.49 1154.82 1008.24 1154.39L1262.96 1005.41Z" fill="white"/>
<path d="M1229.69 815.596L1146.84 767.901L1195.81 739.746C1196.58 739.306 1197.52 739.318 1198.27 739.777L1271.6 784.453C1274.21 786.044 1274.17 789.85 1271.53 791.382L1229.69 815.596Z" fill="white"/>
<path d="M1276.24 900.794L1276.88 996.049L1325.35 967.435C1326.11 966.986 1326.56 966.158 1326.53 965.276L1323.83 879.792C1323.73 876.736 1320.4 874.897 1317.76 876.444L1276.24 900.794Z" fill="white"/>
</g>
<defs>
<linearGradient id="paint0_linear_1123_23242" x1="1441.9" y1="478.7" x2="798.941" y2="481.735" gradientUnits="userSpaceOnUse">
<stop stop-color="#E7AB59"/>
<stop offset="1" stop-color="#F36B43"/>
</linearGradient>
<linearGradient id="paint1_linear_1123_23242" x1="833.285" y1="1707.27" x2="1148.6" y2="1773.16" gradientUnits="userSpaceOnUse">
<stop stop-color="#F36F45"/>
<stop offset="1" stop-color="#E8AC5A"/>
</linearGradient>
<linearGradient id="paint2_linear_1123_23242" x1="161.064" y1="0" x2="161.064" y2="322.128" gradientUnits="userSpaceOnUse">
<stop stop-color="#F36F45"/>
<stop offset="1" stop-color="#E8AC5A"/>
</linearGradient>
<linearGradient id="paint3_linear_1123_23242" x1="81.9448" y1="0" x2="81.9448" y2="163.89" gradientUnits="userSpaceOnUse">
<stop stop-color="#F36F45"/>
<stop offset="1" stop-color="#E8AC5A"/>
</linearGradient>
<clipPath id="clip0_1123_23242">
<rect width="2000" height="2000" fill="white"/>
</clipPath>
</defs>
</svg>
