<svg width="2000" height="2000" viewBox="0 0 2000 2000" fill="none" xmlns="http://www.w3.org/2000/svg">
<g clip-path="url(#clip0_1123_23185)">
<path d="M486.946 1129.99C579.678 931.604 564.09 844.515 485.982 633.44C438.185 504.278 460.838 329.697 571.654 235.262C767.609 68.2731 1109.36 3.26427 1334.91 312.237C1525.51 573.335 1676.23 530.466 1846.41 795.327C2013.97 1056.12 1747.07 1459.27 1439.54 1610.43C1078.45 1787.91 920.251 1780.77 749.39 1712.49C507.527 1615.84 392.274 1332.52 486.946 1129.99Z" fill="url(#paint0_linear_1123_23185)"/>
<path d="M112.558 1197.69C159.736 1437.62 439.272 1782.22 494.191 1667.57C514.453 1625.28 351.088 1347.85 348.203 1206.12C345.318 1064.39 572.575 681.798 387.321 624.103C232.942 576.023 53.1803 895.713 112.558 1197.69Z" fill="url(#paint1_linear_1123_23185)"/>
<circle cx="161.064" cy="161.064" r="161.064" transform="matrix(-0.999981 -0.00616025 -0.00616025 0.999981 1790.98 151.566)" fill="url(#paint2_linear_1123_23185)"/>
<circle cx="81.9448" cy="81.9448" r="81.9448" transform="matrix(-0.999981 -0.00616025 -0.00616025 0.999981 1466.9 69.0098)" fill="url(#paint3_linear_1123_23185)"/>
<circle cx="1000.16" cy="1000.16" r="564.155" fill="#5670D8"/>
<path d="M1000.16 1488.72C1269.98 1488.72 1488.72 1269.98 1488.72 1000.16C1488.72 730.33 1269.98 511.594 1000.16 511.594C730.33 511.594 511.594 730.33 511.594 1000.16C511.594 1269.98 730.33 1488.72 1000.16 1488.72Z" fill="#627EEA" stroke="#A2B6FB" stroke-width="10"/>
<path d="M1015.22 637.418V905.505L1241.8 1006.76L1015.22 637.418Z" fill="white" fill-opacity="0.602"/>
<path d="M1015.23 637.418L788.647 1006.76L1015.23 905.505V637.418Z" fill="white"/>
<path d="M1015.22 1180.47V1362.63L1241.93 1048.93L1015.22 1180.47Z" fill="white" fill-opacity="0.602"/>
<path d="M1015.23 1362.63V1180.47L788.647 1048.93L1015.23 1362.63Z" fill="white"/>
<path d="M1015.22 1138.3L1241.8 1006.76L1015.22 905.504V1138.3Z" fill="white" fill-opacity="0.2"/>
<path d="M788.647 1006.76L1015.23 1138.3V905.504L788.647 1006.76Z" fill="white" fill-opacity="0.602"/>
</g>
<defs>
<linearGradient id="paint0_linear_1123_23185" x1="1647.59" y1="1140.8" x2="1345.89" y2="573.015" gradientUnits="userSpaceOnUse">
<stop stop-color="#E7AB59"/>
<stop offset="1" stop-color="#F36B43"/>
</linearGradient>
<linearGradient id="paint1_linear_1123_23185" x1="297.553" y1="840.612" x2="242.319" y2="1157.97" gradientUnits="userSpaceOnUse">
<stop stop-color="#F36F45"/>
<stop offset="1" stop-color="#E8AC5A"/>
</linearGradient>
<linearGradient id="paint2_linear_1123_23185" x1="161.064" y1="0" x2="161.064" y2="322.128" gradientUnits="userSpaceOnUse">
<stop stop-color="#F36F45"/>
<stop offset="1" stop-color="#E8AC5A"/>
</linearGradient>
<linearGradient id="paint3_linear_1123_23185" x1="81.9448" y1="0" x2="81.9448" y2="163.89" gradientUnits="userSpaceOnUse">
<stop stop-color="#F36F45"/>
<stop offset="1" stop-color="#E8AC5A"/>
</linearGradient>
<clipPath id="clip0_1123_23185">
<rect width="2000" height="2000" fill="white"/>
</clipPath>
</defs>
</svg>
