<svg width="2000" height="2000" viewBox="0 0 2000 2000" fill="none" xmlns="http://www.w3.org/2000/svg">
<defs>
<linearGradient id="paint0_linear_1123_23212" x1="1460.43" y1="1464.12" x2="1509.5" y2="823.029" gradientUnits="userSpaceOnUse">
<stop stop-color="#E7AB59"/>
<stop offset="1" stop-color="#F36B43"/>
</linearGradient>
<linearGradient id="paint1_linear_1123_23212" x1="161.064" y1="0" x2="161.064" y2="322.128" gradientUnits="userSpaceOnUse">
<stop stop-color="#F36F45"/>
<stop offset="1" stop-color="#E8AC5A"/>
</linearGradient>
<linearGradient id="paint2_linear_1123_23212" x1="81.9448" y1="0" x2="81.9448" y2="163.89" gradientUnits="userSpaceOnUse">
<stop stop-color="#F36F45"/>
<stop offset="1" stop-color="#E8AC5A"/>
</linearGradient>
<linearGradient id="paint3_linear_1123_23212" x1="81.9448" y1="0" x2="81.9448" y2="163.89" gradientUnits="userSpaceOnUse">
<stop stop-color="#F36F45"/>
<stop offset="1" stop-color="#E8AC5A"/>
</linearGradient>
<clipPath id="clip0_1123_23212">
<rect width="2000" height="2000" fill="white"/>
</clipPath>
</defs>
<g clip-path="url(#clip0_1123_23212)">
<path d="M485.838 833.736C670.355 715.8 703.804 633.893 750.808 413.793C779.571 279.107 892.153 143.767 1036.3 123.315C1291.21 87.1499 1614.68 215.167 1639.82 596.879C1661.06 919.447 1811.31 963.91 1813.28 1278.72C1815.23 1588.7 1373.99 1786.38 1033.31 1749.45C633.314 1706.09 503.502 1615.38 395.727 1466.24C243.167 1255.14 297.461 954.139 485.838 833.736Z" fill="url(#paint0_linear_1123_23212)"/>
<circle cx="161.064" cy="161.064" r="161.064" transform="matrix(-0.999981 -0.00616025 -0.00616025 0.999981 679.105 275.984)" fill="url(#paint1_linear_1123_23212)"/>
<circle cx="81.9448" cy="81.9448" r="81.9448" transform="matrix(-0.999981 -0.00616025 -0.00616025 0.999981 437.895 599.01)" fill="url(#paint2_linear_1123_23212)"/>
<circle cx="81.9448" cy="81.9448" r="81.9448" transform="matrix(-0.999981 -0.00616025 -0.00616025 0.999981 1648.89 1565.01)" fill="url(#paint3_linear_1123_23212)"/>
<circle cx="1000.16" cy="1000.16" r="564.155" fill="#244D8D"/>
<circle cx="1000.16" cy="1000.16" r="488.561" fill="#D9D9D9" stroke="#5C83BF" stroke-width="10"/>
<path d="M1000.15 1431.38C1238.31 1431.38 1431.38 1238.31 1431.38 1000.15C1431.38 761.995 1238.31 568.93 1000.15 568.93C761.995 568.93 568.93 761.995 568.93 1000.15C568.93 1238.31 761.995 1431.38 1000.15 1431.38Z" fill="white"/>
<path d="M1000.16 516.594C904.516 516.594 811.024 544.954 731.503 598.089C651.982 651.223 590.003 726.745 553.403 815.104C516.803 903.464 507.227 1000.69 525.885 1094.49C544.544 1188.3 590.599 1274.46 658.226 1342.08C725.853 1409.71 812.016 1455.77 905.817 1474.43C999.619 1493.08 1096.85 1483.51 1185.21 1446.91C1273.57 1410.31 1349.09 1348.33 1402.22 1268.81C1455.36 1189.29 1483.72 1095.79 1483.72 1000.16C1483.9 936.837 1471.61 874.103 1447.55 815.535C1423.49 756.966 1388.13 703.71 1343.49 658.807C1298.85 613.904 1245.8 578.234 1187.37 553.833C1128.94 529.432 1066.28 516.778 1002.97 516.594H1000.16ZM1008.35 1016.55L958.005 1186.32H1227.3C1229.08 1186.26 1230.86 1186.55 1232.53 1187.17C1234.21 1187.8 1235.74 1188.75 1237.04 1189.96C1238.35 1191.18 1239.4 1192.65 1240.14 1194.27C1240.88 1195.9 1241.29 1197.65 1241.35 1199.43V1203.88L1217.93 1284.67C1216.9 1288.49 1214.6 1291.85 1211.41 1294.19C1208.22 1296.53 1204.33 1297.71 1200.37 1297.55H788.231L857.312 1062.21L780.035 1085.63L797.598 1031.77L874.874 1008.35L972.055 678.171C973.125 674.372 975.435 671.04 978.618 668.706C981.801 666.372 985.673 665.17 989.618 665.292H1093.82C1095.61 665.229 1097.39 665.519 1099.06 666.144C1100.73 666.77 1102.26 667.718 1103.57 668.936C1104.87 670.154 1105.92 671.617 1106.66 673.242C1107.4 674.867 1107.81 676.621 1107.87 678.405V682.855L1025.91 961.517L1103.19 938.1L1086.8 994.301L1008.35 1016.55Z" fill="#345D9D"/>
</g>
</svg>
