<svg width="2000" height="2000" viewBox="0 0 2000 2000" fill="none" xmlns="http://www.w3.org/2000/svg">
<g clip-path="url(#clip0_1123_23027)">
<path d="M1519.22 1078.46C1346.36 1212.9 1320.6 1297.53 1294.07 1521.03C1277.84 1657.79 1178.21 1802.93 1036.55 1836.58C786.065 1896.07 452.174 1798.4 391.977 1420.63C341.107 1101.39 187.395 1070.96 156.426 757.669C125.933 449.185 547.077 211.699 889.709 217.085C1292 223.409 1429.62 301.771 1550.68 440.34C1722.04 636.491 1695.71 941.214 1519.22 1078.46Z" fill="url(#paint0_linear_1123_23027)"/>
<path d="M1898 973.999C1898 849.999 1834 405.999 1710 433.997C1615.99 455.224 1750 781.999 1710 917.998C1670 1054 1569.09 1240.78 1648.04 1281.76C1727 1322.73 1898 1281.76 1898 973.999Z" fill="url(#paint1_linear_1123_23027)"/>
<circle cx="161.064" cy="161.064" r="161.064" transform="matrix(0.887587 0.46064 0.46064 -0.887587 1288 1727.92)" fill="url(#paint2_linear_1123_23027)"/>
<circle cx="81.9448" cy="81.9448" r="81.9448" transform="matrix(0.887587 0.46064 0.46064 -0.887587 1535 1442.46)" fill="url(#paint3_linear_1123_23027)"/>
<path d="M1600.16 1026.1C1600.16 1332.11 1352.11 1580.2 1046.08 1580.2C740.05 1580.2 492 1332.11 492 1026.1C492 720.088 740.056 472 1046.08 472C1352.11 472 1600.16 720.065 1600.16 1026.1Z" fill="white" stroke="white" stroke-width="20"/>
<path d="M1046.08 462C734.638 462 481.664 714.924 482.06 1026.08C482.138 1088.33 492.065 1148.22 510.697 1204.23H679.465V729.698L1046.08 1096.31L1412.68 729.698V1204.24H1581.48C1600.14 1148.23 1610.02 1088.35 1610.13 1026.09C1610.66 714.608 1357.56 462.075 1046.08 462.075V462Z" fill="#F26822"/>
<path d="M961.77 1180.59L801.776 1020.59V1319.19H679.453L564.026 1319.21C663.035 1481.65 841.967 1590.31 1046.08 1590.31C1250.2 1590.31 1429.14 1481.63 1528.16 1319.19H1290.35V1020.59L1130.35 1180.59L1046.06 1264.88L961.776 1180.59H961.77Z" fill="#4D4D4D"/>
</g>
<defs>
<linearGradient id="paint0_linear_1123_23027" x1="490.697" y1="540.548" x2="500.903" y2="1183.44" gradientUnits="userSpaceOnUse">
<stop stop-color="#E7AB59"/>
<stop offset="1" stop-color="#F36B43"/>
</linearGradient>
<linearGradient id="paint1_linear_1123_23027" x1="1648.04" y1="1281.76" x2="1796.43" y2="995.841" gradientUnits="userSpaceOnUse">
<stop stop-color="#F36F45"/>
<stop offset="1" stop-color="#E8AC5A"/>
</linearGradient>
<linearGradient id="paint2_linear_1123_23027" x1="161.064" y1="0" x2="161.064" y2="322.128" gradientUnits="userSpaceOnUse">
<stop stop-color="#F36F45"/>
<stop offset="1" stop-color="#E8AC5A"/>
</linearGradient>
<linearGradient id="paint3_linear_1123_23027" x1="81.9448" y1="0" x2="81.9448" y2="163.89" gradientUnits="userSpaceOnUse">
<stop stop-color="#F36F45"/>
<stop offset="1" stop-color="#E8AC5A"/>
</linearGradient>
<clipPath id="clip0_1123_23027">
<rect width="2000" height="2000" fill="white"/>
</clipPath>
</defs>
</svg>
