<svg width="2000" height="2000" viewBox="0 0 2000 2000" fill="none" xmlns="http://www.w3.org/2000/svg">
<g clip-path="url(#clip0_1123_23169)">
<path d="M1282.26 1428.4C1065.95 1394.23 986.583 1433.32 805.39 1566.83C694.513 1648.52 520.486 1675.09 399.059 1594.76C184.339 1452.71 27.2389 1142.32 261.674 840.032C459.785 584.584 376.858 451.631 584.241 214.77C788.441 -18.4549 1249.73 126.37 1480.14 380.023C1750.66 677.843 1787.61 831.836 1769.31 1014.92C1743.41 1274.09 1503.08 1463.29 1282.26 1428.4Z" fill="url(#paint0_linear_1123_23169)"/>
<path d="M1624 1674C1820 1527.8 2010.02 1126.82 1882.9 1126.82C1836 1126.82 1656.37 1394.01 1529.8 1457.84C1403.22 1521.67 960 1482 988 1674C1011.33 1834 1377.31 1858.01 1624 1674Z" fill="url(#paint1_linear_1123_23169)"/>
<circle cx="161.064" cy="161.064" r="161.064" transform="matrix(0.270979 0.962585 0.962585 -0.270979 -19 446.289)" fill="url(#paint2_linear_1123_23169)"/>
<circle cx="81.9448" cy="81.9448" r="81.9448" transform="matrix(0.270979 0.962585 0.962585 -0.270979 713 1684.41)" fill="url(#paint3_linear_1123_23169)"/>
<circle cx="871.155" cy="983.155" r="564.155" fill="#396F8E"/>
<path d="M871.155 1471.72C1140.98 1471.72 1359.72 1252.98 1359.72 983.155C1359.72 713.33 1140.98 494.594 871.155 494.594C601.33 494.594 382.594 713.33 382.594 983.155C382.594 1252.98 601.33 1471.72 871.155 1471.72Z" fill="#186C9D" stroke="#95D8FF" stroke-width="10"/>
<path d="M969.711 1209.83L969.741 1209.76C974.4 1209.86 979.052 1209.35 983.583 1208.25C1010.06 1202.06 1032.45 1178.94 1037.77 1153.97L1143.16 758.179L1059.38 757.756L990.292 1016.7L803.517 756.879L803.396 757L803.486 756.698L772.629 756.486V756.517C767.962 756.445 763.304 756.942 758.757 757.997C732.312 764.223 709.917 787.344 704.568 812.277L599.151 1208.16L682.959 1208.53L752.017 949.578L938.793 1209.43H938.883L969.711 1209.83ZM770.453 880.58L785.051 825.877L971.856 1085.76L957.259 1140.46L770.483 880.55L770.453 880.58Z" fill="white"/>
</g>
<defs>
<linearGradient id="paint0_linear_1123_23169" x1="971.258" y1="310.145" x2="509.217" y2="757.277" gradientUnits="userSpaceOnUse">
<stop stop-color="#E7AB59"/>
<stop offset="1" stop-color="#F36B43"/>
</linearGradient>
<linearGradient id="paint1_linear_1123_23169" x1="1222.04" y1="1661.42" x2="1532.12" y2="1574.13" gradientUnits="userSpaceOnUse">
<stop stop-color="#F36F45"/>
<stop offset="1" stop-color="#E8AC5A"/>
</linearGradient>
<linearGradient id="paint2_linear_1123_23169" x1="161.064" y1="0" x2="161.064" y2="322.128" gradientUnits="userSpaceOnUse">
<stop stop-color="#F36F45"/>
<stop offset="1" stop-color="#E8AC5A"/>
</linearGradient>
<linearGradient id="paint3_linear_1123_23169" x1="81.9448" y1="0" x2="81.9448" y2="163.89" gradientUnits="userSpaceOnUse">
<stop stop-color="#F36F45"/>
<stop offset="1" stop-color="#E8AC5A"/>
</linearGradient>
<clipPath id="clip0_1123_23169">
<rect width="2000" height="2000" fill="white"/>
</clipPath>
</defs>
</svg>
