<svg width="2000" height="2000" viewBox="0 0 2000 2000" fill="none" xmlns="http://www.w3.org/2000/svg">
<g clip-path="url(#clip0_1122_22874)">
<path d="M508.583 769.93C576.891 977.991 550.987 1062.59 448.164 1262.79C385.245 1385.3 386.829 1561.34 485.539 1668.36C660.087 1857.61 991.598 1963.08 1252.52 1683.34C1473.02 1446.95 1617.52 1507.55 1818.18 1264.98C2015.77 1026.12 1799.07 593.913 1511.85 407.016C1174.62 187.575 1016.7 175.715 838.892 223.045C587.196 290.044 438.846 557.516 508.583 769.93Z" fill="url(#paint0_linear_1122_22874)"/>
<circle cx="1495.32" cy="1726.32" r="161.064" transform="rotate(-173.475 1495.32 1726.32)" fill="url(#paint1_linear_1122_22874)"/>
<circle cx="1673.73" cy="1515.73" r="81.9448" transform="rotate(-173.475 1673.73 1515.73)" fill="url(#paint2_linear_1122_22874)"/>
<path d="M183.999 786C257.846 440.734 550 285.999 526 357.999C372.817 817.541 482 1118 348.783 1194.09C230.239 1261.8 142.33 980.824 183.999 786Z" fill="url(#paint3_linear_1122_22874)"/>
<path d="M1544.47 770.496L1544.42 770.364L1544.36 770.233C1417.15 471.565 1070.7 331.612 770.395 456.891C469.789 582.297 329.761 930.706 456.954 1229.33C584.073 1527.79 930.437 1669.84 1229.22 1542.65C1371.14 1483.64 1483.6 1371.19 1542.62 1229.28C1605.3 1083.53 1605.2 917.727 1544.47 770.496Z" fill="#23262F" stroke="#3DA774" stroke-width="50"/>
<path d="M1396.39 766.516C1388.01 718.438 1362.42 675.052 1324.41 644.458C1288.98 615.668 1244.72 599.967 1199.08 600C1064.69 600 930.245 600 795.74 600C725.686 600.806 659.134 641.41 625.158 702.439C606.033 735.301 599.027 772.122 599.027 809.678C599.027 932.133 599.027 1054.61 599.027 1177.11C598.782 1205.6 600.043 1232.96 608.94 1260.28C619.236 1291.89 637.129 1320.49 661.05 1343.58C684.971 1366.66 714.189 1383.52 746.142 1392.68C726.842 1377.3 718.295 1355.89 712.025 1332.73C699.03 1281.94 698.014 1229.17 700.116 1177.11C699.906 1054.5 700.116 932.122 700.116 809.678C700.291 788.658 701.867 768.794 712.656 750.12C720.938 735.279 733.023 722.912 747.669 714.291C762.315 705.671 778.992 701.108 795.985 701.073C923.741 701.073 1051.53 701.073 1179.36 701.073C1198.66 701.073 1216.21 699.672 1234.63 706.643C1249.88 711.991 1263.53 721.131 1274.27 733.205C1285.02 745.278 1292.52 759.888 1296.07 775.66C1299.85 794.193 1298.84 814.758 1298.91 833.641V1193.09C1298.91 1210.61 1296.95 1228.12 1289.34 1244.13C1273.69 1276.89 1239.82 1299.63 1203.14 1298.96C1102.02 1298.96 1000.79 1298.96 899.701 1298.96C899.491 1266 899.701 1233.03 899.701 1200.03C982.272 1200.03 1064.81 1200.03 1147.31 1200.03C1165.07 1201.01 1185.52 1192 1193.68 1175.5C1197.74 1167.26 1199.67 1158.13 1199.29 1148.95C1199.29 1049.03 1199.29 949.148 1199.29 849.302C1199.85 840.417 1197.83 831.559 1193.48 823.792C1189.13 816.025 1182.64 809.677 1174.77 805.509C1161.11 797.591 1146.5 799.623 1131.27 799.343C1036.69 799.588 942.119 799.343 847.756 799.518C841.232 799.487 834.77 800.77 828.753 803.291C822.736 805.812 817.288 809.519 812.735 814.191C808.181 818.863 804.615 824.405 802.249 830.485C799.883 836.565 798.765 843.06 798.963 849.582C798.577 993.221 798.963 1137.39 798.963 1280.99C799.698 1309.51 798.788 1336.52 815.32 1361.22C827.86 1381.61 849.052 1391.98 871.854 1396.5C898.825 1400.84 924.605 1399.79 951.682 1400C1034.25 1400 1116.78 1400 1199.25 1400C1240.26 1399.93 1280.25 1387.27 1313.83 1363.74C1349.98 1337.08 1378 1300.36 1390.89 1257.06C1399.79 1227.77 1399.64 1199.33 1399.79 1169.09C1399.79 1054.65 1399.79 940.203 1399.79 825.759C1400.11 805.955 1398.98 786.153 1396.39 766.516ZM1097.68 1099.34H899.666V900.486H1097.68V1099.34Z" fill="#45D492"/>
</g>
<defs>
<linearGradient id="paint0_linear_1122_22874" x1="1662.17" y1="898.181" x2="1294.65" y2="1425.75" gradientUnits="userSpaceOnUse">
<stop stop-color="#E7AB59"/>
<stop offset="1" stop-color="#F36B43"/>
</linearGradient>
<linearGradient id="paint1_linear_1122_22874" x1="1495.32" y1="1565.26" x2="1495.32" y2="1887.39" gradientUnits="userSpaceOnUse">
<stop stop-color="#F36F45"/>
<stop offset="1" stop-color="#E8AC5A"/>
</linearGradient>
<linearGradient id="paint2_linear_1122_22874" x1="1673.73" y1="1433.78" x2="1673.73" y2="1597.67" gradientUnits="userSpaceOnUse">
<stop stop-color="#F36F45"/>
<stop offset="1" stop-color="#E8AC5A"/>
</linearGradient>
<linearGradient id="paint3_linear_1122_22874" x1="348.055" y1="806.193" x2="243.154" y2="1373.04" gradientUnits="userSpaceOnUse">
<stop stop-color="#F36D44"/>
<stop offset="1" stop-color="#E8AC5A"/>
</linearGradient>
<clipPath id="clip0_1122_22874">
<rect width="2000" height="2000" fill="white"/>
</clipPath>
</defs>
</svg>
