<svg width="105" height="105" viewBox="0 0 105 105" fill="none" xmlns="http://www.w3.org/2000/svg">
<path d="M52.5 99.75C78.5955 99.75 99.75 78.5955 99.75 52.5C99.75 26.4045 78.5955 5.25 52.5 5.25C26.4045 5.25 5.25 26.4045 5.25 52.5C5.25 78.5955 26.4045 99.75 52.5 99.75Z" fill="white" stroke="#F36B43" stroke-width="2"/>
<path d="M54.8096 71.6104C69.307 71.6104 81.0596 59.8578 81.0596 45.3604C81.0596 30.8629 69.307 19.1104 54.8096 19.1104C40.3121 19.1104 28.5596 30.8629 28.5596 45.3604C28.5596 59.8578 40.3121 71.6104 54.8096 71.6104Z" stroke="#F36B43" stroke-width="2"/>
<path d="M36.54 96.8097C38.7801 89.3898 43.268 73.8903 58.59 71.9107C73.92 69.9297 82.74 80.4297 86.1 85.4697" stroke="#F36B43" stroke-width="2"/>
<path d="M39.27 42.4199H30.45C28.1304 42.4199 26.25 44.3003 26.25 46.6199V49.7699C26.25 52.0895 28.1304 53.9699 30.45 53.9699H39.27C41.5896 53.9699 43.47 52.0895 43.47 49.7699V46.6199C43.47 44.3003 41.5896 42.4199 39.27 42.4199Z" fill="white" stroke="#F36B43" stroke-width="2"/>
<path d="M63.6303 42.4199H54.8104C52.4908 42.4199 50.6104 44.3003 50.6104 46.6199V49.7699C50.6104 52.0895 52.4908 53.9699 54.8104 53.9699H63.6303C65.9499 53.9699 67.8303 52.0895 67.8303 49.7699V46.6199C67.8303 44.3003 65.9499 42.4199 63.6303 42.4199Z" fill="white" stroke="#F36B43" stroke-width="2"/>
<path d="M39.9004 42.4199H54.8104" stroke="#F36B43" stroke-width="2"/>
<path d="M27.51 30.2402C26.2525 39.2935 56.28 33.8102 71.61 32.3402C75.39 37.8702 73.92 51.8702 79.17 51.8702C84.42 51.8702 85.26 38.8502 83.37 30.2402C81.48 21.6302 74.34 19.5302 71.61 24.5702C71.61 17.6402 67.83 14.4902 55.65 14.4902C41.0993 14.4902 28.56 22.6802 27.51 30.2402Z" fill="#F36B43" stroke="#F36B43"/>
<path d="M59.7448 81.165H51.5548L53.1298 85.47L48.5098 99.54H54.1798L62.5798 98.49L57.7498 85.47L59.7448 81.165Z" fill="#F36B43" stroke="#F36B43"/>
</svg>
