<svg width="96" height="96" viewBox="0 0 96 96" fill="none" xmlns="http://www.w3.org/2000/svg">
<defs>
<linearGradient id="paint0_linear_1111_29568" x1="48" y1="0" x2="48" y2="96" gradientUnits="userSpaceOnUse">
<stop stop-color="#9C9C9C"/>
<stop offset="1" stop-color="#768EA5"/>
</linearGradient>
<clipPath id="clip0_1111_29568">
<rect width="96" height="96" rx="48" fill="white"/>
</clipPath>
</defs>
<g clip-path="url(#clip0_1111_29568)">
<path d="M96 0H0V96H96V0Z" fill="url(#paint0_linear_1111_29568)"/>
<path d="M22.9332 92.4998C20.2665 69.9998 21.7332 25.1998 48.9332 25.9998C76.1332 26.7998 75.2665 71.6665 71.4332 93.9999" stroke="white" stroke-width="1.5" stroke-linecap="round"/>
<path d="M44.4997 26.5C38.4997 31.3333 28.0997 46.2 30.4997 69C32.8997 91.8 33.833 99.5 33.9997 100.5" stroke="white" stroke-width="1.5" stroke-linecap="round"/>
<path d="M52.5002 26.5C58.5002 31.3333 69.4002 46.2 67.0002 69C64.6002 91.8 63.6669 99.5 63.5003 100.5" stroke="white" stroke-width="1.5" stroke-linecap="round"/>
<path d="M47.4997 26C45.1664 32 38.7997 51.6 39.9997 64C41.1997 76.4 42.4997 92 41.9997 100.5" stroke="white" stroke-width="1.5" stroke-linecap="round"/>
<path d="M49.0003 26C51.3336 32 57.7003 51.6 56.5003 64C55.3003 76.4 54.0003 92 54.5003 100.5" stroke="white" stroke-width="1.5" stroke-linecap="round"/>
<path d="M27 50H69" stroke="black" stroke-width="4" stroke-linecap="square"/>
<path d="M25 51C25 53.6522 26.1589 56.1957 28.2218 58.0711C30.2847 59.9464 33.0826 61 36 61C38.9174 61 41.7153 59.9464 43.7782 58.0711C45.8411 56.1957 47 53.6522 47 51L36 51L25 51Z" fill="black"/>
<path d="M49 51C49 53.9174 50.1589 56.7153 52.2218 58.7782C54.2847 60.8411 57.0826 62 60 62C62.9174 62 65.7153 60.8411 67.7782 58.7782C69.8411 56.7153 71 53.9174 71 51L60 51L49 51Z" fill="black"/>
<path d="M37.5 42L33.5 37.5" stroke="white" stroke-width="1.5" stroke-linecap="round"/>
<path d="M57 42.5L60 39.5" stroke="white" stroke-width="1.5" stroke-linecap="round"/>
<path d="M67 41.5L71 37" stroke="white" stroke-width="1.5" stroke-linecap="round"/>
<path d="M51 71.5L53.5 69" stroke="white" stroke-width="1.5" stroke-linecap="round"/>
<path d="M62 67.5L64.5 65" stroke="white" stroke-width="1.5" stroke-linecap="round"/>
<path d="M22.5 60.5L20 58" stroke="white" stroke-width="1.5" stroke-linecap="round"/>
<path d="M22 68.5L18 65.5" stroke="white" stroke-width="1.5" stroke-linecap="round"/>
<path d="M25 81L21 78" stroke="white" stroke-width="1.5" stroke-linecap="round"/>
<path d="M60 78L64 75" stroke="white" stroke-width="1.5" stroke-linecap="round"/>
<path d="M36 73L32 70" stroke="white" stroke-width="1.5" stroke-linecap="round"/>
<path d="M29 43L25 40" stroke="white" stroke-width="1.5" stroke-linecap="round"/>
<path d="M69 69L73 66" stroke="white" stroke-width="1.5" stroke-linecap="round"/>
<path d="M72 75L76 72" stroke="white" stroke-width="1.5" stroke-linecap="round"/>
<path d="M69 84L73 81" stroke="white" stroke-width="1.5" stroke-linecap="round"/>
<rect x="23" y="30" width="50" height="5" rx="2.5" fill="black"/>
<path d="M28 33C28 24.7157 34.7157 18 43 18H53C61.2843 18 68 24.7157 68 33H28Z" fill="black"/>
<path d="M47.5 95.75C73.5955 95.75 94.75 74.5955 94.75 48.5C94.75 22.4045 73.5955 1.25 47.5 1.25C21.4045 1.25 0.25 22.4045 0.25 48.5C0.25 74.5955 21.4045 95.75 47.5 95.75Z" fill="#F36B43" stroke="#F36B43" stroke-width="2"/>
<path d="M36.2224 62.2296L48.2255 74.9715C48.9423 75.7321 50.172 75.6609 50.7961 74.8226L63.3659 57.9378C63.5639 57.6719 63.8361 57.4705 64.1484 57.359L76.9733 52.7787C78.4492 52.2516 79.7791 53.8535 78.9895 55.2074L69.0462 72.2529C68.5342 73.1304 68.9122 74.2579 69.8496 74.6496L80.974 79.2973C82.1084 79.7713 82.3587 81.2482 81.3938 82.0101C76.3788 85.9686 66.3109 92.3702 54.0096 95.12C40.8199 98.0682 23.9277 90.7927 17.8948 85.8033C17.1615 85.1968 17.2316 84.1082 17.9568 83.4918L28.0191 74.9387C28.6983 74.3615 28.8085 73.3543 28.2701 72.6439L17.5607 58.5136C16.5483 57.1778 17.9017 55.3455 19.4761 55.9209L35.576 61.8035C35.8217 61.8931 36.043 62.0391 36.2224 62.2296Z" fill="white"/>
<path d="M34.9307 10.7158C32.8259 11.0396 32.5025 22.9604 32.6071 29.5269C32.614 29.9614 32.8872 30.3419 33.2965 30.4874C38.0011 32.1605 46.811 35.1259 49.2107 35.2857C51.5984 35.4449 58.1966 32.3489 61.6814 30.5349C62.022 30.3575 62.2334 30.007 62.2362 29.6229C62.282 22.9419 61.9686 10.7158 60.3407 10.7158C58.2407 10.7158 51.7307 15.5458 49.2107 17.0157C46.6907 18.4857 37.6607 10.2958 34.9307 10.7158Z" fill="white"/>
<path d="M28.7951 30.9691L20.3314 33.0849C19.3734 33.3245 19.2462 34.6252 20.146 35.0322C28.9864 39.0289 44.2034 45.2577 50.86 45.5604C57.4456 45.8596 68.9647 37.9586 75.5575 32.6672C76.3179 32.0569 75.8764 30.8604 74.9016 30.8604H65.0467C64.834 30.8604 64.6305 30.9221 64.4533 31.0401C62.9205 32.0592 55.0976 37.0866 49.18 37.5804C41.8529 38.1917 31.6744 32.3343 29.6057 31.0899C29.3602 30.9425 29.0729 30.8996 28.7951 30.9691Z" fill="white"/>
<path d="M47.5 95.75C73.5955 95.75 94.75 74.5955 94.75 48.5C94.75 22.4045 73.5955 1.25 47.5 1.25C21.4045 1.25 0.25 22.4045 0.25 48.5C0.25 74.5955 21.4045 95.75 47.5 95.75Z" stroke="#F36B43" stroke-width="4"/>
<path d="M52.015 49.34C49.579 49.508 39.3799 47.7299 34.585 46.82C34.585 49.34 35.635 54.485 44.35 55.745C47.9015 56.2584 51.2449 52.945 52.54 50.915C54.8149 51.79 57.475 54.0912 64.405 52.07C68.437 50.894 69.585 45.8399 69.655 43.46C64.7899 45.35 54.451 49.172 52.015 49.34Z" fill="white"/>
</g>
</svg>
