<svg width="400" height="400" viewBox="0 0 400 400" fill="none" xmlns="http://www.w3.org/2000/svg">
<path d="M144.513 113.636C133.738 150.857 121.513 160.636 86.5125 179.636C65.0951 191.262 47.7642 217.147 51.5125 242.636C56.5125 276.636 94.0255 296.023 149.513 286.636C205.913 277.094 209.512 330.365 286.512 316.636C340.512 307.007 363.842 216.604 340.513 160.636C313.121 94.9219 271.018 76.4709 244.513 67.6357C199.513 52.6357 155.512 75.6357 144.513 113.636Z" fill="url(#paint0_linear_1131_22822)"/>
<path d="M221.797 158.841C215.859 155.416 208.438 159.705 208.438 166.557C208.438 173.409 211.749 179.346 217.176 183.01L240.157 196.332L240.214 196.311L263.505 182.852L221.797 158.841Z" fill="white"/>
<path d="M217.176 183.008C211.75 179.345 208.439 173.177 208.439 166.555C208.439 163.295 210.145 160.575 212.57 159.034C212.455 159.099 212.685 158.97 212.57 159.034L176.217 179.46L170.38 182.987L166.399 185.276C168.904 184.002 172.042 183.901 174.842 185.528L184.853 191.228L193.627 196.302L216.917 209.739L240.15 196.316L217.169 182.994L217.176 183.008Z" fill="white" fill-opacity="0.85"/>
<path d="M263.512 209.756L216.924 236.673L208.129 231.599L208.093 231.563L170.343 209.756C167.759 208.071 165.657 205.775 164.175 203.192C162.447 200.212 161.512 196.786 161.512 193.238C161.512 190.042 163.117 187.401 165.449 185.832C165.765 185.637 166.075 185.457 166.406 185.285C168.911 184.011 172.049 183.91 174.848 185.537L184.802 191.28L193.576 196.333L193.633 196.311L216.924 209.748L240.157 196.325L263.512 209.748V209.756Z" fill="white" fill-opacity="0.6"/>
<path d="M116.457 150.637C97.1163 173.934 60.0225 177.637 55.9573 160.637C51.8921 143.637 76.4573 132.637 96.4573 119.137C127.847 97.9487 117.456 66.6367 135.957 66.6367C154.459 66.6367 138.457 124.137 116.457 150.637Z" fill="url(#paint1_linear_1131_22822)"/>
<path d="M221.311 325.375C219.589 335.165 182.984 330.608 165.306 327.498C147.628 324.389 117.633 318.4 119.355 308.609C121.077 298.818 156.833 290.527 174.511 293.636C192.189 296.746 223.033 315.584 221.311 325.375Z" fill="#F46C44"/>
<defs>
<linearGradient id="paint0_linear_1131_22822" x1="193.961" y1="70.7193" x2="193.961" y2="287.902" gradientUnits="userSpaceOnUse">
<stop stop-color="#E7AB59"/>
<stop offset="1" stop-color="#F36B43"/>
</linearGradient>
<linearGradient id="paint1_linear_1131_22822" x1="83.002" y1="104.137" x2="83.002" y2="171.137" gradientUnits="userSpaceOnUse">
<stop stop-color="#E7A958"/>
<stop offset="1" stop-color="#F46C44"/>
</linearGradient>
</defs>
</svg>
