<svg width="2000" height="2000" viewBox="0 0 2000 2000" fill="none" xmlns="http://www.w3.org/2000/svg">
<g clip-path="url(#clip0_1121_22858)">
<path d="M485.317 1124.33C669.409 1242.93 702.564 1324.96 748.777 1545.22C777.056 1680.01 889.151 1815.76 1033.23 1836.73C1288 1873.81 1611.93 1746.95 1638.44 1365.33C1660.84 1042.84 1811.25 998.919 1814.35 684.116C1817.41 374.144 1376.89 174.886 1036.08 210.593C635.925 252.518 505.787 342.759 397.478 491.504C244.16 702.06 297.373 1003.25 485.317 1124.33Z" fill="url(#paint0_linear_1121_22858)"/>
<circle cx="435.323" cy="349.322" r="161.064" transform="rotate(-173.475 435.323 349.322)" fill="url(#paint1_linear_1121_22858)"/>
<circle cx="704.726" cy="170.726" r="81.9448" transform="rotate(-173.475 704.726 170.726)" fill="url(#paint2_linear_1121_22858)"/>
<path d="M323.975 1492.85C256.024 1402.03 203.419 1259.62 219.216 1192.28C270.147 975.159 722.281 1610.01 657.37 1658.1C576.231 1718.2 402.143 1597.31 323.975 1492.85Z" fill="url(#paint3_linear_1121_22858)"/>
<path d="M1521.36 780.029C1399.57 494.084 1067.73 359.937 780.021 479.963C492.311 599.99 358.163 933.592 479.955 1219.54C601.746 1505.48 933.584 1641.39 1219.53 1519.6C1355.44 1463.12 1463.11 1355.45 1519.59 1219.54C1579.61 1080.1 1579.61 921.237 1521.36 780.029Z" fill="#FF2AD4"/>
<path d="M566.444 900.053H711.182V1175.41V1288.37L792.376 1210.71L1002.42 1013.02L1210.7 1210.71L1291.9 1288.37V1175.41V900.053H1434.87C1441.93 931.825 1445.46 965.362 1445.46 998.899C1445.46 1244.25 1246.01 1445.47 1000.66 1445.47C755.309 1445.47 554.089 1244.25 554.089 998.899C554.089 965.362 557.619 931.825 566.444 900.053ZM529.378 850.631C448.183 1111.86 592.921 1388.98 854.155 1470.18C1115.39 1551.37 1392.51 1404.87 1471.94 1145.4C1486.06 1097.74 1494.88 1048.32 1494.88 998.899C1494.88 949.476 1487.82 900.053 1471.94 850.631H1244.24L1242.48 1175.41L1002.42 944.181L758.84 1175.41V850.631H529.378Z" fill="white"/>
<path d="M758.839 802.975H806.497V852.398V1064.21L967.12 910.646L1000.66 878.874L1034.19 910.646L1194.82 1062.44V850.632V802.975H1454.29C1344.85 552.332 1051.84 439.366 802.967 548.802C690.001 598.224 598.216 690.009 548.793 802.975H758.839Z" fill="#FFCC00"/>
</g>
<defs>
<linearGradient id="paint0_linear_1121_22858" x1="1462.17" y1="497.45" x2="1508.93" y2="1138.72" gradientUnits="userSpaceOnUse">
<stop stop-color="#E7AB59"/>
<stop offset="1" stop-color="#F36B43"/>
</linearGradient>
<linearGradient id="paint1_linear_1121_22858" x1="435.323" y1="188.258" x2="435.323" y2="510.386" gradientUnits="userSpaceOnUse">
<stop stop-color="#F36F45"/>
<stop offset="1" stop-color="#E8AC5A"/>
</linearGradient>
<linearGradient id="paint2_linear_1121_22858" x1="704.726" y1="88.7809" x2="704.726" y2="252.67" gradientUnits="userSpaceOnUse">
<stop stop-color="#F36F45"/>
<stop offset="1" stop-color="#E8AC5A"/>
</linearGradient>
<linearGradient id="paint3_linear_1121_22858" x1="407.422" y1="1361.46" x2="691.515" y2="1863.07" gradientUnits="userSpaceOnUse">
<stop stop-color="#F36D44"/>
<stop offset="1" stop-color="#E8AC5A"/>
</linearGradient>
<clipPath id="clip0_1121_22858">
<rect width="2000" height="2000" fill="white"/>
</clipPath>
</defs>
</svg>
