<svg enable-background="new 0 0 1920 1080" xmlns="http://www.w3.org/2000/svg" viewBox="522.2 50.25 855.62 930.75"><g fill="#008fe7"><path d="m1067.5 214.5v-15l-129-73-90 49-6-5-9 5v9l-28 18v13l132-74z"/><path d="m816.5 254.5h13v74h-13z"/><path d="m812.5 329.5h20v9h-20z"/><path d="m885.5 254.5h13v74h-13z"/><path d="m881.5 329.5h20v9h-20z"/><path d="m983.5 254.5h13v74h-13z"/><path d="m979.5 329.5h20v9h-20z"/><path d="m1052.5 254.5h13v74h-13z"/><path d="m1048.5 329.5h20v9h-20z"/><path d="m807.5 340.5h263v10h-263z"/><path d="m794.5 353.5h282v10h-282z"/><path d="m788.5 366.5h296v10h-296z"/><path d="m983.4 247.5h84.1v-15h-79.1c-.8 5.3-2.5 10.4-5 15z"/><path d="m805.5 232.5v15h89.1c-2.4-4.6-4.2-9.7-5-15z"/><path d="m1076.5 215.5h-88.4c.6 3.1.9 6.3.9 9.5 0 1.9-.1 3.7-.3 5.5h87.8z"/><path d="m889 225c0-3.3.3-6.4 1-9.5h-84.5-11v15h94.8c-.2-1.8-.3-3.6-.3-5.5z"/><path d="m1058.5 212.5-120-67-123 67h75.2c5.6-21 25.2-36.5 48.3-36.5s42.7 15.5 48.3 36.5h4.2z"/></g><path d="m601.7 917.5c-.4-11-.8-24.3-.8-37.6h-.4c-2.9 11.7-6.7 24.7-10.2 35.4l-11.2 35.7h-16.1l-9.8-35.4c-3-10.7-6.1-23.8-8.3-35.7h-.3c-.5 12.4-.9 26.5-1.6 37.9l-1.6 34.8h-19.2l5.8-91.5h27.6l9 30.5c2.9 10.6 5.7 22 7.7 32.7h.4c2.6-10.6 5.7-22.7 8.7-32.9l9.8-30.4h27l5 91.5h-20.2z" fill="#fb743e"/><path d="m676.6 952.5-1.2-6.6h-.4c-4.3 5.3-11.1 8.1-19 8.1-13.4 0-21.4-9.8-21.4-20.4 0-17.3 15.5-25.5 39-25.4v-1c0-3.5-1.9-8.5-12.1-8.5-6.8 0-14 2.3-18.3 5l-3.8-13.3c4.6-2.6 13.7-5.8 25.8-5.8 22.1 0 29.2 13 29.2 28.7v23.1c0 6.4.3 12.5 1 16.2zm-2.4-31.3c-10.9-.1-19.3 2.4-19.3 10.5 0 5.3 3.5 7.9 8.1 7.9 5.2 0 9.4-3.4 10.7-7.6.3-1.1.4-2.3.4-3.5z" fill="#fb743e"/><path d="m696.9 964.7c5.4-.4 9.6-1.6 12.2-4.3 3-3.1 4.1-8.4 4.1-21.6v-52.7h20.8v57.6c0 14.5-3.3 23.4-9.4 29.1s-15.8 8.2-25.7 8.2zm37.6-97c0 5.7-4.2 10.3-11.1 10.3-6.5 0-10.7-4.6-10.7-10.3 0-6 4.2-10.5 11-10.5 6.6 0 10.6 4.5 10.8 10.5z" fill="#fb743e"/><path d="m766 925.9c.7 8.5 9.1 12.6 18.7 12.6 7.1 0 12.8-1 18.3-2.7l2.7 14c-6.8 2.7-15.1 4.1-24 4.1-22.5 0-35.4-13-35.4-33.8 0-16.8 10.5-35.4 33.5-35.4 21.5 0 29.6 16.7 29.6 33.1 0 3.5-.4 6.7-.7 8.2zm24.3-14.1c0-5-2.2-13.4-11.7-13.4-8.7 0-12.2 7.9-12.8 13.4z" fill="#fb743e"/><path d="m821.6 934.5c3.8 2.3 11.7 5 17.8 5 6.3 0 8.8-2.2 8.8-5.6s-2-5-9.8-7.6c-13.7-4.6-19-12.1-18.9-20 0-12.4 10.6-21.7 27-21.7 7.7 0 14.7 1.8 18.7 3.8l-3.7 14.3c-3-1.6-8.7-3.8-14.4-3.8-5 0-7.9 2-7.9 5.4 0 3.1 2.6 4.8 10.7 7.6 12.6 4.3 17.9 10.7 18.1 20.5 0 12.4-9.8 21.4-28.8 21.4-8.7 0-16.4-1.9-21.5-4.6z" fill="#fb743e"/><path d="m903.8 867.1v19h14.8v15.2h-14.8v24c0 8 1.9 11.7 8.2 11.7 2.6 0 4.6-.3 6.1-.5l.1 15.6c-2.7 1.1-7.6 1.8-13.4 1.8-6.7 0-12.2-2.3-15.5-5.7-3.8-3.9-5.7-10.3-5.7-19.7v-27.2h-8.8v-15.2h8.8v-14.4z" fill="#fb743e"/><path d="m951.9 867.7c0 5.7-4.3 10.3-11.1 10.3-6.5 0-10.9-4.6-10.7-10.3-.1-6 4.2-10.5 10.9-10.5 6.5 0 10.7 4.5 10.9 10.5zm-21.4 84.8v-66.4h20.6v66.4z" fill="#fb743e"/><path d="m1017.6 950.9c-3.7 1.6-10.6 3-18.5 3-21.5 0-35.2-13-35.2-34 0-19.4 13.3-35.3 38-35.3 5.4 0 11.4 1 15.8 2.6l-3.3 15.3c-2.4-1.1-6.1-2-11.5-2-10.9 0-17.9 7.7-17.8 18.6 0 12.2 8.2 18.6 18.2 18.6 4.9 0 8.7-.8 11.8-2z" fill="#fb743e"/><path d="m1077.4 862.2c5.4-1.1 16.4-1.9 26.8-1.9 12.6 0 20.4 1.2 27 5.2 6.4 3.4 11 9.6 11 17.9 0 8.2-4.8 15.8-15.1 19.5v.3c10.5 2.8 18.2 10.7 18.2 22.5 0 8.3-3.8 14.8-9.5 19.4-6.7 5.3-17.8 8.3-36 8.3-10.2 0-17.8-.7-22.4-1.4zm20.5 35h6.8c10.9 0 16.7-4.5 16.7-11.3 0-6.9-5.3-10.6-14.7-10.6-4.5 0-7.1.3-8.8.5zm0 40.6c2 .3 4.5.3 8 .3 9.4 0 17.7-3.5 17.7-13.2 0-9.2-8.3-12.9-18.6-12.9h-7.1z" fill="#fb743e"/><path d="m1196.9 952.5-1.2-6.7h-.4c-4.3 5.3-11.1 8.2-19 8.2-13.4 0-21.5-9.8-21.5-20.4 0-17.3 15.5-25.5 39-25.4v-1c0-3.5-1.9-8.5-12.1-8.5-6.8 0-14 2.3-18.3 5l-3.8-13.3c4.6-2.6 13.7-5.8 25.8-5.8 22.1 0 29.2 13 29.2 28.6v23.1c0 6.4.3 12.5.9 16.2zm-2.4-31.4c-10.9-.1-19.3 2.4-19.3 10.5 0 5.3 3.5 7.9 8.2 7.9 5.2 0 9.4-3.4 10.7-7.6.3-1.1.4-2.3.4-3.5z" fill="#fb743e"/><path d="m1230.8 907.3c0-8.3-.3-15.3-.5-21.2h17.9l.9 9.1h.4c2.7-4.2 9.5-10.6 20.5-10.6 13.6 0 23.8 9 23.8 28.5v39.4h-20.6v-36.8c0-8.5-3-14.4-10.5-14.4-5.7 0-9.1 3.9-10.5 7.7-.5 1.2-.8 3.3-.8 5.2v38.3h-20.6z" fill="#fb743e"/><path d="m1331.1 914.1h.3c1.5-2.7 3.1-5.4 4.8-8l13.4-20h24.8l-23.8 26.9 27.2 39.5h-25.4l-16-27.3-5.3 6.5v20.8h-20.6v-96.4h20.6z" fill="#fb743e"/><circle cx="939" cy="225" fill="#f8c62d" r="36.5"/><path d="m939 175.5c-27.3 0-49.5 22.2-49.5 49.5s22.2 49.5 49.5 49.5 49.5-22.2 49.5-49.5-22.2-49.5-49.5-49.5zm0 90.5c-22.6 0-41-18.4-41-41s18.4-41 41-41 41 18.4 41 41-18.4 41-41 41z" fill="#f8c62d"/><path d="m802.6 117.2s.3-.1 1.2-.5c0 0-.1.1-.2.1-.3.1-.6.2-1 .4z" fill="#fb743e"/><path d="m743.8 149.5c18.3-12.3 37.5-23 57.7-31.8.4-.2.8-.3 1.2-.5 0 0 .5-.2 1-.4.3-.1.6-.3.9-.4-.3.1-.5.2-.7.3.2-.1.4-.2.5-.2 2.6-1 5.1-2.1 7.7-3.1 5.2-2 10.4-3.9 15.7-5.6 10.7-3.5 21.5-6.6 32.4-9.1 5.2-1.2 10.5-2.3 15.8-3.3 2.5-.5 5-.9 7.6-1.3 1.4-.2 2.8-.4 4.2-.7.6-.1 3-.4 3.8-.5 10.7-1.3 21.4-2.2 32.2-2.6 20-.7 40.6-.3 60.5 2.8-1.2-.2-3.1-.4-.2 0 1.2.2 2.4.4 3.7.6 2.2.3 4.4.7 6.6 1.1 5.1.9 10.1 1.9 15.2 3 9.3 2 18.4 4.4 27.5 7.2 9.2 2.8 18.3 5.9 27.3 9.5 2 .8 4 1.6 6 2.4.8.4 1.7.7 2.5 1.1 4.6 2 9.1 4.1 13.6 6.3 16.8 8.3 33 17.8 48.4 28.6 3.5 2.4 6.9 4.9 10.3 7.5.2.1.4.3.7.5.7.5 1.3 1 2 1.5 2.2 1.8 4.4 3.5 6.6 5.4 6.9 5.7 13.6 11.7 20 17.9 7.5 7.2 14.7 14.7 21.5 22.5 3.4 3.9 6.8 7.9 10 11.9.9 1.1 1.8 2.2 2.6 3.3.1.1.1.1.1.2.1.1.1.2.2.3 1.6 2.1 3.1 4.1 4.7 6.3 12.4 17.1 23.3 35.2 32.6 54.2 4.6 9.4 18.7 12.7 27.4 7.2 9.7-6.2 12.1-17.3 7.2-27.4-34.9-71.2-92.7-131.1-162.7-168.5-77-41.4-166.2-54.7-251.9-39.1-50.8 9.3-99.8 29.5-142.6 58.3-8.7 5.8-13.3 17.9-7.2 27.4 5.6 8.6 18.1 13.5 27.4 7.2z" fill="#fb743e"/><path d="m1319.2 408c-.7-10.4-8.7-20.5-20-20-10.3.5-20.7 8.8-20 20 1.5 22.7 1 45.5-1.7 68.1-.1 1-.3 2-.4 3-.3 2.2-.6 4.4-1 6.6-.9 5.4-1.8 10.8-3 16.1-2 9.5-4.3 18.9-7 28.2-2.7 9.2-5.8 18.3-9.2 27.3-.9 2.3-1.8 4.5-2.7 6.8-.3.6-.5 1.5-.8 2.2-.2.3-.4.7-.5 1-1.9 4.5-4 8.9-6.1 13.3-8.4 17.4-18.2 34.1-29.3 50-2.5 3.6-5.1 7.1-7.7 10.6-.2.2-.3.5-.5.8-.4.5-.8.9-1.1 1.4-1.5 1.9-3.1 3.8-4.6 5.7-10.2 0-20.3 0-30.5 0 .1-27.8.2-55.6.3-83.4.2-54.4.4-108.9.5-163.3 0-12.4.1-24.9.1-37.3.1-16.9-22.2-27-34.1-14.1-24.5 26.4-48.9 52.8-73.4 79.1-39 42-77.9 84-116.9 126.1-4.2 4.6-8.5 9.2-12.7 13.7-20.3-21.4-40.5-42.7-60.8-64.1-39.9-42-79.7-84-119.6-126.1-9.1-9.6-18.2-19.2-27.3-28.8-12.1-12.8-34-2.8-34.1 14.1-.2 34.5-.5 68.9-.7 103.4-.4 54.4-.7 108.9-1.1 163.3 0 5.8-.1 11.5-.1 17.3-4.4 0-8.8 0-13.1 0-2.8 0-5.5.7-8.1 1.8-2-2.3-3.9-4.7-5.8-7.1-.1-.1-.2-.3-.3-.4-.6-.7-1.1-1.5-1.7-2.2-1.4-1.9-2.8-3.8-4.2-5.7-2.9-4-5.7-8.1-8.4-12.2-5.3-8-10.4-16.3-15-24.8-4.6-8.3-8.8-16.7-12.8-25.4-1-2.2-1.9-4.3-2.9-6.5-.1-.1-.1-.3-.2-.5-.3-.7-.5-1.3-.8-2-1.9-4.6-3.7-9.3-5.4-14-6.6-18.4-11.7-37.3-15.2-56.6-.8-4.6-1.6-9.2-2.3-13.8 0-.1 0-.2 0-.3-.1-1-.3-2.1-.4-3.2-.3-2.7-.6-5.4-.9-8.1-1-10.2-1.5-20.4-1.7-30.7-.1-11.4.3-22.9 1.2-34.3.5-5.6 1.1-11.2 1.8-16.8 0-.1 0-.1 0-.2.2-1.4.4-2.8.6-4.2.5-3.1 1-6.2 1.6-9.3 4.5-24.9 11.8-49 21.3-72.5.1-.3.2-.5.3-.7s.2-.4.3-.7c.7-1.5 1.3-3 2-4.6 1.4-3 2.8-6 4.2-9 2.6-5.5 5.4-10.9 8.3-16.2 6.1-11.1 12.7-21.8 19.9-32.2 5.9-8.6 1.9-22.6-7.2-27.4-10.2-5.4-21-2.1-27.4 7.2-54.3 78.9-75.8 176.1-62.8 270.7 11.1 81 49.8 157.6 107.4 215.5 31.8 32 69.5 58.6 110.5 77.4 9.5 4.4 22 3 27.4-7.2 4.7-8.8 3-22.7-7.2-27.4-17.6-8.1-34.5-17.5-50.6-28.3-3.5-2.3-7-4.8-10.4-7.2-1.9-1.4-3.8-2.8-5.7-4.2-.8-.6-1.7-1.2-2.5-1.9-.3-.3-.8-.6-1.3-1-5.8-4.6-11.4-9.4-17-14.3h4.3c10.9 0 19.9-9.2 20-20 .2-34.5.5-68.9.7-103.4.3-50.3.7-100.6 1-150.8 13.8 14.5 27.5 29 41.3 43.5 39.9 42 79.7 84 119.6 126.1l27.3 28.8c7.2 7.6 21.1 7.8 28.3 0 24.5-26.4 48.9-52.8 73.4-79.2 36.4-39.3 72.9-78.6 109.3-117.9-.1 17.4-.1 34.8-.2 52.2-.2 54.4-.4 108.9-.5 163.3 0 12.4-.1 24.9-.1 37.3 0 10.8 9.2 20 20 20h12.3c-.7.6-1.3 1.2-2 1.8-3.4 3-6.9 6-10.5 8.9-1.9 1.5-3.7 3-5.6 4.5-.7.5-1.4 1.2-2.1 1.6 4.9-3-.1 0-1.2.8-15.1 11.3-31.1 21.4-47.7 30.2-8.6 4.5-17.3 8.7-26.2 12.5-.1 0-.1 0-.2.1-.8.3-1.6.7-2.5 1-2.5 1-4.9 2-7.4 2.9-4.6 1.7-9.2 3.4-13.8 4.9-10.2 3.4-20.6 6.3-31.1 8.8-5.5 1.3-11.1 2.5-16.6 3.5-4.3.8-9.4 2.3-14.1 2.6 0-.1-.8-.2-1.6-.1-1.8.2-3.7.5-5.5.7-2.8.3-5.5.6-8.3.8-5.6.5-11.1.8-16.7 1.1-13.9.6-27.8.3-41.7-.6-10.5-.7-20.5 9.7-20 20 .5 11.5 8.8 19.2 20 20 85.4 5.9 172.3-17.4 242.8-66.2 26.7-18.5 50.8-40.2 72-64.5 2.1-1.7 3.9-3.7 5.2-6 30.3-36.2 53.9-77.9 69.3-123 16.2-46.4 22.5-97.1 19.3-146.7z" fill="#fb743e"/><circle cx="679.5" cy="181.5" fill="#fb743e" r="22.5"/><circle cx="850.5" cy="782.5" fill="#fb743e" r="22.5"/><circle cx="1289.5" cy="340.5" fill="#fb743e" r="22.5"/><path d="m952 230c0-9-13-9-13-9-6-1-2-5 0-5 3 0 3 1 7 2s4-3 4-3 0-4-7-6c-.3-.1-.7-.2-1-.2 0-1.3 0-2.5 0-3.8 0-3.9-6-3.9-6 0v3.9c-4.8 1.1-9 4.7-9 10.1 0 8 12 10 14 10s4 3 1 5-7 0-8-2-4-1-4-1-4 2-2 7c1 2.6 5.4 3.5 8.5 3.9v2.1c0 3.9 6 3.9 6 0 0-.7 0-1.5 0-2.2 2-.7 9.5-4 9.5-11.8z"/></svg>