<svg width="22" height="22" viewBox="0 0 22 22" fill="none" xmlns="http://www.w3.org/2000/svg">
<path d="M20.7254 15.0245C21.0915 15.3907 21.0915 15.9843 20.7254 16.3504L17.6004 19.4747C17.0141 20.0611 16 19.6501 16 18.8118V17.25H13.7037C13.6394 17.25 13.5758 17.2367 13.5169 17.2111C13.4579 17.1855 13.4049 17.1481 13.361 17.1011L10.6049 14.1481L12.6882 11.916L14.75 14.125H16V12.5632C16 11.7258 17.0134 11.3133 17.6004 11.9003L20.7254 15.0245ZM1.46875 7.87499H4.74999L6.81175 10.084L8.89507 7.85187L6.13898 4.8989C6.09512 4.85191 6.04206 4.81444 5.98311 4.78882C5.92415 4.76321 5.86056 4.74999 5.79628 4.74999H1.46875C1.20988 4.74999 1 4.95988 1 5.21874V7.40624C1 7.66511 1.20988 7.87499 1.46875 7.87499ZM16 7.87499V9.43686C16 10.2751 17.0141 10.6861 17.6004 10.0998L20.7254 6.97542C21.0915 6.60929 21.0915 6.0157 20.7254 5.6496L17.6004 2.52535C17.0134 1.93832 16 2.35086 16 3.18824V4.74999H13.7037C13.6394 4.75 13.5758 4.76322 13.5169 4.78884C13.4579 4.81445 13.4049 4.85192 13.361 4.8989L4.74999 14.125H1.46875C1.20988 14.125 1 14.3349 1 14.5937V16.7812C1 17.0401 1.20988 17.25 1.46875 17.25H5.79628C5.9262 17.25 6.05031 17.196 6.13898 17.1011L14.75 7.87499H16Z" fill="#FF3C00" stroke="#FF3C00" stroke-width="0.0585938"/>
</svg>
