<?xml version="1.0" encoding="utf-8"?>
<!-- Generator: Adobe Illustrator 25.4.1, SVG Export Plug-In . SVG Version: 6.00 Build 0)  -->
<svg version="1.1" id="Layer_1" xmlns="http://www.w3.org/2000/svg" xmlns:xlink="http://www.w3.org/1999/xlink" x="0px" y="0px"
	 viewBox="0 0 116.2 139.2" style="enable-background:new 0 0 116.2 139.2;" xml:space="preserve">
<style type="text/css">
	.st0{display:none;}
	.st1{fill:#311F1B;}
	.st2{fill:#F6A32B;}
	.st3{fill:#FFFFFF;}
	.st4{fill:#DDDDDD;}
	.st5{fill:#EF8105;}
	.st6{fill:#EF8005;}
	.st7{fill:#C65017;}
	.st8{fill:#FCCB5F;}
	.st9{fill:#DE6C0F;}
	.st10{fill:#EE8007;}
	.st11{fill:#F8E035;}
	.st12{fill:#B11922;}
	.st13{fill:#FDFDFB;}
	.st14{fill:#FFFDFC;}
	.st15{fill:#D11F2A;}
	.st16{fill:#D51F29;}
	.st17{fill:#DADAD9;}
	.st18{fill:#DADADA;}
	.st19{fill:#FAF9F7;}
	.st20{fill:#C4C4C3;}
	.st21{fill:#FFFFFD;}
	.st22{fill:#CCCDCE;}
	.st23{fill:#CDCFCF;}
	.st24{fill:#FAF9F9;}
	.st25{fill:#F8F8F8;}
	.st26{fill:#5B3D38;}
	.st27{fill:#EF857F;}
	.st28{fill:#F5ADA6;}
</style>
<g id="BG">
</g>
<g id="Text" class="st0">
</g>
<g>
	<g>
		<path class="st1" d="M28,93.3c0.2-3.8,1.1-7.1,3.5-9.8c0.9-1.1,0.4-2.7-0.7-3.3c-7.1-4-12-9.6-13.5-17.8c-1.1-6-0.4-11.8,1.3-17.6
			c0.4-1.3,0.4-2.4,0.2-3.8c-2.2-8.7-2.2-17.6,0.7-26.4c2.2-6.4,5.6-7.8,11.8-4.9c3.5,1.6,6.7,3.8,9.6,6.4c0.9,0.7,1.5,0.9,2.5,0.4
			c11.1-4.5,22.4-4.5,33.6,0.2c0.9,0.4,1.5,0.2,2.2-0.4c2.7-2.4,5.8-4.5,9.1-6.2c1.5-0.7,2.9-1.3,4.5-1.6c2.7-0.5,4.9,0.5,6.4,2.9
			c1.8,3.1,2.7,6.7,3.3,10.2c1.1,7.1,0.7,14-1.1,20.7c-0.2,0.7,0,1.1,0.2,1.8c1.6,5.1,2.5,10.4,2,15.8c-0.9,9.3-5.8,16-13.8,20.4
			c-1.3,0.7-1.6,2.4-0.7,3.3c3.3,3.8,3.8,8.5,3.3,13.3c0,0.5-0.4,0.9,0.4,1.5c4.2,2.5,5.3,6.7,5.1,11.3c-0.2,2.9-1.1,5.6-2.4,8.4
			c-1.6,3.5-4.4,5.1-8.2,5.3c-0.9,0-2,0-2.9,0c-2.2,0-4.4,0.2-6.4,1.3c-2.7,1.6-6,1.3-9.1,0.5c-0.2,0-0.4-0.2-0.5-0.2
			c-2-2.2-4.5-1.6-7.1-1.6c-1.3,0-2.5,0-3.8,0c-1.6,0-3.1,0.4-4.7,1.3c-3.6,2-7.6,1.6-11.3-0.5c-0.7-0.5-1.6-0.7-2.5-0.7
			c-1.8,0-3.8,0-5.6,0c-3.6-0.2-6.5-1.8-8.2-5.3c-1.1-2.4-2-4.9-2.2-7.6c-0.2-1.1-0.5-1.6-1.3-2.2c-9.5-6.2-12.2-18.5-6.2-27.8
			c0.2-0.2,0.4-0.4,0.4-0.5c0.4-0.5,0.9-0.9,1.6-0.7c0.7,0.2,0.9,0.7,1.1,1.5c0.5,3.8,2.2,7.3,5.1,10C24.7,91.5,26.2,92.6,28,93.3z"
			/>
		<path class="st2" d="M19.7,60.7c-0.7-5.1-0.2-10,1.3-14.7c2.7-9.3,8-16.7,15.6-22.5c1.1-0.9,1.3-1.6,0.4-2.7
			c-1.3-2-3.1-3.6-4.5-5.3c0.7-0.7,1.3-0.2,1.8,0.2c2.2,1.3,4,2.7,5.8,4.4c1.3,0.7,2.2,0.9,3.5,0.4c8-3.6,16.4-4.2,25.1-2.5
			c2.9,0.5,5.6,1.6,8.4,2.7c0.9,0.4,1.6,0.4,2.5-0.4c1.8-1.6,3.8-3.1,5.8-4.4c0.7-0.5,1.5-1.1,2.4-0.5c-1.5,1.6-3.1,3.1-4.4,4.9
			s-1.3,2.2,0.5,3.5c10.2,8,15.8,18.5,16.9,31.6c0.2,1.8,0.2,3.6-0.2,5.3c-1.5,2.7-4,3.5-6.7,3.6c-4,0.4-7.6-1.1-10.9-3.6
			c-2.9-2.4-5.6-4.9-8.4-7.6c-1.6-1.6-3.6-3.3-5.5-4.5c-5.5-3.8-12.5-4-18.2,0.2c-2.7,2-5.1,4.2-7.5,6.5c-1.8,1.6-3.5,3.6-5.5,5.1
			c-3.5,2.5-7.1,4.4-11.3,4C24,64,21.5,63.3,19.7,60.7z"/>
		<path class="st3" d="M19.7,60.7c1.6,1.1,3.3,2.4,5.3,2.7c5.1,0.9,9.3-0.7,12.9-3.8c3.3-2.7,6.4-5.8,9.5-8.7
			c2.5-2.4,5.3-4.4,8.5-5.3c5.5-1.5,10.4,0,14.7,3.5c3.8,3.1,7.3,6.7,11.1,10.2c3.8,3.5,8.2,5.5,13.6,4.4c2-0.4,3.6-1.6,5.1-2.9
			c0,0.9-0.4,2-0.5,2.9c-1.1,1.6-2,3.5-3.3,4.9c-3.3,3.5-7.5,5.8-11.8,7.6C79.5,78,74,79.1,68.6,79.5c-8.4,0.7-16.9,0.5-25.1-1.3
			c-6.9-1.5-13.3-3.8-18.5-8.9c-1.8-1.8-3.5-3.6-4.5-6C20,62.6,19.8,61.7,19.7,60.7z"/>
		<path class="st4" d="M20.4,63.5c1.5,1.1,2.4,2.9,3.6,4.4c2.5,2.7,5.5,4.7,8.5,6.4c6.4,3.1,13.1,4.4,20.2,4.9
			c8.9,0.7,17.8,0.4,26.4-1.8c6.4-1.6,12.4-4.4,17.1-9.3c0.9-1.1,1.8-2.2,2.5-3.5c0.2-0.4,0.4-0.9,1.1-0.9
			c-1.5,6-5.1,10.2-10.2,13.5c-5.6,3.5-12,5.1-18.7,6c-10,1.3-20,0.9-29.8-1.6c-6.2-1.6-12-4.4-16.4-9.3
			C22.6,69.5,20.9,66.7,20.4,63.5z"/>
		<path class="st2" d="M67.8,119.3c-0.4-1.3-0.2-2.7-0.2-4.2c0-3.1,0-6,0-9.1c0-0.4,0.2-0.4,0.4-0.2c0.4,0.4,0.2,0.9,0.4,1.5
			c3.5-3.5,7.3-6.5,10.4-10.5c1.8-2.4,3.5-4.7,3.6-7.8c0-0.2,0.2-0.5,0.2-0.7c0.7-0.4,1.3-0.5,2-0.9c0.9,0,0.9,0.9,1.1,1.5
			c0.7,2.5,0.5,4.9,0.2,7.5c-0.5,4.5-2.2,8.5-4,12.7c-1.1,2.7-2.4,5.3-4,7.6c-0.4,0.5-0.7,1.3-1.3,1.6c-0.2,0.2-0.5,0.2-0.7,0.2
			c-2.4-0.4-4.7,0-7.1,0.9C68.4,119.5,68.2,119.5,67.8,119.3z"/>
		<path class="st2" d="M52.4,108.9c0,3.5,0.2,6.9,0,10.4c-0.4,0.2-0.7,0.2-1.1,0c-2.2-0.9-4.5-1.1-6.9-0.7c-0.5,0.2-0.9,0.2-1.5-0.2
			c-0.2-0.9-0.7-1.8-1.1-2.5c-3.1-5.6-5.6-11.3-7.1-17.6c-0.7-2.9-0.9-6-0.4-8.9c0.2-0.7,0.4-1.6,1.1-2c0.7,0.4,1.3,0.5,2,0.9
			c0.4,0.4,0.5,0.7,0.5,1.3c0.2,2.5,1.5,4.5,2.9,6.5c2.9,3.8,6.5,7.1,10,10.5C51.5,107.1,52.2,107.8,52.4,108.9z"/>
		<path class="st4" d="M55.3,114.6c0-2.7,0-5.6,0-8.4c0-1.3-0.5-2-1.8-1.8c-0.5-0.4-0.7-1.1-0.9-1.6c-1.1-3.5-2.9-6.7-5.1-9.6
			c-0.5-0.9-1.3-1.6-2.4-2c-0.4-0.2-0.7-0.2-0.7-0.9c2.9,0.4,5.8,1.1,8.7,1.3c1.1,0,0.7,0.5,0.4,1.3c-1.1,2.9-0.5,5.5,1.6,7.6
			c2,2,5.1,2.5,7.8,1.5c3.3-1.5,5.1-5.3,3.8-8.9c-0.5-1.5,0-1.5,1.1-1.5c2.2-0.2,4.4-0.5,6.7-0.9c0.2,0.5-0.2,0.7-0.4,1.1
			c-2.9,3.5-5.3,7.5-6.4,11.8c-0.2,0.4-0.2,0.7-0.5,0.9c-1.6-0.2-2,0.2-2,1.8c0,2.7,0,5.5-0.2,8.2C62.9,116.9,57.1,116.7,55.3,114.6
			z"/>
		<path class="st3" d="M44.4,90.4c3.5,1.3,4.7,4.4,6.4,7.3c1.3,2,2.2,4.4,2.5,6.7c-1.1,0.5-0.9,1.6-0.9,2.5c0,0.7,0,1.3,0,2
			c-3.8-4.4-8.5-8-12-12.9c-1.6-2.4-3.1-4.7-2.9-7.8C39.8,88.9,42,89.7,44.4,90.4z"/>
		<path class="st3" d="M66.9,104.6c0.4-3.3,2-6,3.6-8.7c1.1-1.8,2.4-3.6,3.8-5.1c2.7-0.7,5.6-1.5,8.2-2.4c0.5,2.2-0.4,4-1.5,5.8
			c-2.4,4-5.6,7.1-8.9,10.4c-1.5,1.5-2.9,2.7-4.2,4.4c-0.5-0.9,0-1.8-0.4-2.7C67.7,105.5,67.5,104.9,66.9,104.6z"/>
		<path class="st5" d="M76.4,118c3.8-6.4,7.1-12.9,8.5-20.2c0.7-3.5,1.1-7.1-0.4-10.5c0.2-0.2,0.5-0.4,0.7-0.5
			c2.2-1.1,2.2-1.1,3.1,1.1c1.5,3.6,1.3,7.5,0.4,11.3c-1.6,6.7-4.5,12.9-8.2,18.7c-0.4,0.5-0.7,0.9-1.1,1.5
			C78.2,119.3,77.1,119.3,76.4,118z"/>
		<path class="st5" d="M35.5,87.3c-2,5.5-0.5,10.7,1.1,15.8c1.6,4.7,3.6,9.5,6.5,13.6c0.4,0.5,0.4,0.9-0.2,1.5
			c-0.4,0.9-1.1,1.5-2.2,1.3c-2.9-3.3-4.5-7.1-6.2-11.1c-2-4.4-3.5-8.7-3.8-13.6c-0.2-2.5,0.2-4.9,1.3-7.3c0.9-1.8,0.9-1.8,2.5-0.7
			C34.9,86.9,35.1,87.1,35.5,87.3z"/>
		<path class="st6" d="M82.4,120.4c3.8-6,6.5-12.2,8.5-18.7c0.4-1.1,0.7-0.7,1.3-0.2c2.2,2.4,2.7,5.1,2.5,8.2
			c-0.2,2.4-0.9,4.7-2,6.9c-1.1,2.2-2.7,3.5-5.1,3.8C86,120.6,84.4,120.4,82.4,120.4z"/>
		<path class="st6" d="M34.9,120.4c-4.9,0-6.7-1.3-8.4-6c-1.1-3.1-1.8-6.4-0.5-9.6c0.4-1.3,1.1-2.4,2-3.3c0.5-0.5,0.9-0.9,1.1,0.2
			c1.8,6.4,4.5,12.2,8,17.8c0.4,0.7,0.4,0.9-0.5,0.9C36,120.4,35.5,120.4,34.9,120.4z"/>
		<path class="st7" d="M96.8,33.8c-2.7-4-5.6-7.6-9.3-10.7c-2-1.6-2-1.8-0.2-3.8c2-2.2,4.4-4.4,6.9-5.8c0.5,0.4,0.7,0.9,0.9,1.5
			c1.3,3.3,1.8,6.7,2,10.4c0.2,1.8,0.4,3.6,0.2,5.5C97.7,32,97.7,33.1,96.8,33.8z"/>
		<path class="st7" d="M25.8,13.6c3.1,1.8,5.8,4.2,8,7.1c0.4,0.5,0.5,0.9,0,1.5c-4.2,3.3-7.5,7.3-10.4,11.6
			c-0.7-0.4-0.9-1.1-0.9-1.8c-0.2-5.5,0.4-10.7,1.8-16C24.6,15.1,24.7,14.2,25.8,13.6z"/>
		<path class="st8" d="M87.7,15.1c-2.4,0.7-4.4,2.4-6.2,4c-2,1.8-3.6,2.7-6.5,1.3c-6-2.9-12.5-3.3-19.1-2.7
			c-4.7,0.4-9.3,1.6-13.5,3.8c-0.5,0.4-0.9,0.2-1.5-0.2c-2.4-1.8-4.5-3.8-7.1-5.5c-0.5-0.4-0.9-0.5-1.5-0.5
			c-1.6-1.3-3.1-2.5-4.9-3.8c1.6,0,2.9,0.9,4.4,1.6c2.9,1.6,5.6,3.8,8.2,6c0.9,0.9,1.6,1.1,2.9,0.5c11.3-5.1,22.7-5.1,34,0
			c1.1,0.5,1.8,0.4,2.7-0.4c3.5-3.1,6.7-5.6,10.9-7.5c0.5-0.2,0.9-0.4,1.5-0.5c0.2,0,0.2,0,0.5,0.2C90.8,12.7,89.3,14,87.7,15.1z"/>
		<path class="st6" d="M15.5,86.9c0-0.9,0.5-1.8,0.9-2.9c1.3,3.3,2.9,6,5.3,8.2c1.6,1.6,3.5,2.9,5.6,3.8c1.5,0.7,1.5,1.5,0.2,2.4
			c-1.5,0.9-2.4,2.2-3.3,3.6c-0.7,0.2-1.3-0.4-1.6-0.7c-3.5-2.9-5.8-6.4-6.7-10.7C15.3,89.3,15.3,88,15.5,86.9z"/>
		<path class="st9" d="M25.8,13.6c-2.4,5.8-2.9,12-2.7,18.2c0,0.7,0.2,1.3,0.4,2c-0.7,1.5-1.5,2.9-2.4,4.5c-0.7-1.3-0.7-2.7-0.7-4
			c-0.5-6-0.4-11.8,1.5-17.6c0.2-0.7,0.5-1.5,0.7-2.2C23.5,12,23.5,12,25.8,13.6z"/>
		<path class="st9" d="M96.8,33.8c0.7-5.5,0-10.7-1.1-16.2c-0.4-1.5-1.1-2.7-1.3-4.2l0.2-0.2c2-1.3,2-1.3,2.9,0.9
			c1.8,4.2,2.4,8.7,2.5,13.3c0.2,3.3-0.2,6.4-0.5,9.5c0,0.4-0.2,0.7-0.4,1.3C98.4,36.7,97.7,35.3,96.8,33.8z"/>
		<path class="st10" d="M55.3,114.6c3.1,1.6,6.2,1.6,9.5,0c0,1.6,0.2,3.1,0.2,4.7c0,0.9-0.2,1.1-0.9,1.1c-2.7,0-5.3,0-8,0
			c-0.7,0-1.1-0.2-0.9-0.9C55.3,117.8,55.3,116.2,55.3,114.6z"/>
		<path class="st4" d="M15.5,86.9C16,93.3,18.7,98.4,24,102c-0.4,0.9-0.7,1.8-0.9,2.9c-0.2,0.7-0.4,0.9-0.9,0.4
			C16.6,101.1,13.5,93.7,15.5,86.9z"/>
		<path class="st11" d="M58.7,99.7c-2.5-1.1-3.6-3.6-2.5-5.8c1.1-2.4,3.6-3.1,6.2-1.8C64.6,94.6,62.7,99.8,58.7,99.7z"/>
		<path class="st12" d="M34.6,83.3c-0.2-1.1,0.2-1.3,1.1-0.9c5.8,2.2,12,3.3,18.2,3.6c1.8,0,2,0.2,1.8,2.4c-0.2,1.6-1.3,0.7-2,0.9
			c-0.2,0-0.5-0.2-0.7-0.2c0.2-0.4,0.4-0.4,0.7-0.5C47.1,87.8,40.6,86.6,34.6,83.3z"/>
		<path class="st12" d="M66.9,88.9c-2.4,0.5-2.5,0.4-2.5-1.8c0-1.1,0.5-1.3,1.5-1.3c4.7-0.2,9.5-0.9,14-2.2c1.6-0.4,3.1-0.9,4.7-1.5
			c0.5-0.2,1.1-0.4,0.9,0.5c-0.9,1.3-2.5,1.8-3.8,2.4c-4.7,1.8-9.6,2.7-14.5,3.3c-0.2,0-0.5-0.2-0.4,0.2
			C66.7,88.7,66.9,88.9,66.9,88.9z"/>
		<path class="st13" d="M44,118c2.9-0.5,5.6-0.4,8.4,1.3c0,1.6-0.5,2.9-2.2,3.3c-1.6,0.2-3.3,0.2-4.9,0l0,0c0-0.7,0.7-0.7,1.1-0.7
			c-0.7-0.7-1.5-1.3-2-2C44,119.3,43.7,118.7,44,118z"/>
		<path class="st14" d="M67.8,119.3c2.5-1.6,5.3-1.8,8.2-1.3c0.7,0.5,0.2,0.9,0,1.5c-0.7,1.1-1.6,2.2-2.7,2.9
			c-0.9,0.7-2,0.2-3.1,0.2C68.6,122.2,67.8,121.3,67.8,119.3z"/>
		<path class="st15" d="M66.9,88.9c-0.7-0.2-2,0.4-2-0.4c0-0.9,1.3-0.4,1.8-0.5c4.7-0.5,9.5-1.5,14-2.9c1.6-0.5,3.1-1.5,4.7-2.2
			c0.2,0.9-0.5,1.1-1.3,1.5c-4.5,2.4-9.5,3.5-14.4,4.2C68.9,88.7,67.8,88.9,66.9,88.9z"/>
		<path class="st16" d="M34.6,83.3c0.5-0.4,0.9,0,1.5,0.4c5.1,2.5,10.5,3.8,16.2,4.2c0.9,0,1.8,0.2,2.7,0.4c0.4,0,0.7,0,0.5,0.5
			c0,0.4-0.4,0.4-0.7,0.4c-0.5,0-1.1,0-1.6,0c-6.2-0.5-12-1.8-17.5-4.7C35.1,84,34.6,83.8,34.6,83.3z"/>
		<path class="st17" d="M70,122.6c3.1,0.4,4.2-2.2,5.8-4c0-0.2,0-0.4,0-0.5c0.2,0,0.4,0,0.5,0c0.9,0.4,2,0.7,2.9,1.5
			C77.1,122.9,73.7,123.1,70,122.6z"/>
		<path class="st18" d="M44,118c0.5,1.8,2.2,2.5,3.3,4c-0.5,0.5-1.6-0.2-2.2,0.5c-2-0.2-3.3-1.5-4.5-3.1c0.7-0.4,1.5-0.9,2.2-1.3
			C43.3,118.2,43.7,118.2,44,118z"/>
		<path class="st19" d="M58.7,99.7c3.8-1.6,4.4-2.7,3.5-7.8c2,1.5,2.7,3.5,1.8,5.5C63.1,99.3,61.3,100.2,58.7,99.7z"/>
		<path class="st20" d="M60.2,88.6c-0.9,0-1.8,0.5-1.8-1.1c0-1.5,0.7-1.3,1.6-1.3c0.9,0,1.8-0.4,1.8,1.3
			C61.8,89.1,60.7,88.4,60.2,88.6z"/>
		<path class="st18" d="M45.3,122.6c1.6-0.2,3.3,0,4.9,0C48.6,122.9,46.9,122.9,45.3,122.6z"/>
		<path class="st1" d="M32.7,46.7c0-3.3,2.4-5.8,5.6-6c3.3-0.2,6.2,2,6.5,5.3c0.2,2-0.4,3.5-2.2,4.2c-2.2,1.1-4.7,1.5-7.1,0.9
			C33.7,50.6,32.7,49.1,32.7,46.7z"/>
		<path class="st1" d="M82.2,51.3c-1.1-0.2-2.4-0.2-3.6-0.7c-2.9-1.1-4-3.3-2.9-6.2c0.9-2.7,4-4.4,6.9-3.8c2.9,0.5,5.1,3.3,4.9,6.2
			C87.5,49.8,85.7,51.3,82.2,51.3z"/>
		<path class="st21" d="M48,34.4c0,2.2-1.8,3.6-4.4,3.5c-0.2,0-0.4,0-0.5-0.2c-2.7-0.4-4.2-1.6-4-3.6c0.2-2.2,2.7-4.2,5.3-4
			C46.4,30.2,48,32,48,34.4z"/>
		<path class="st21" d="M72.2,34.4c0-2.4,1.8-4,3.8-4.2c2.5,0,5.1,2,5.1,4.2c0,1.1-0.4,2-1.3,2.5c-1.8,1.3-4,1.3-6,0.5
			C72.7,36.7,72.2,35.7,72.2,34.4z"/>
		<path class="st1" d="M53.1,51.5c2-3.1,5.3-3.1,8.4-2.9c0.7,0,1.5,0.2,2.2,0.5c2.7,0.9,3.5,2,3.5,4.9c-0.2,2.4-1.6,3.6-3.3,4.7
			c-1.3,0.7-1.3,0.7-0.2,2c2.4,1.3,3.6,1.1,5.3-0.9c0.5-0.7,0.9-1.5,1.5-2.4c0.5-0.9,1.1-0.9,1.8-0.5s0.9,1.1,0.5,1.8
			c-0.9,2-2,3.6-4,4.7c-0.5,0.4-0.9,0.7-1.1,1.5c-0.4,2.5-1.5,4.7-3.3,6.4C61.7,74,58,74,55.3,71.5c-1.8-1.8-2.9-4-3.3-6.5
			c-0.2-0.7-0.4-1.3-1.1-1.8c-1.8-1.1-2.7-2.7-3.6-4.5c-0.4-0.7-0.2-1.5,0.5-1.8s1.5-0.2,1.8,0.7c0.4,0.9,0.9,1.6,1.5,2.4
			c1.8,2,3.6,2,5.6,0.4c0.7-0.9,0-1.1-0.5-1.6C53.7,56.9,52.4,54.7,53.1,51.5z"/>
		<path class="st22" d="M53.1,51.5c-0.4,4.2,2,6.2,5.5,7.6c-0.5,0.5-0.9,0.9-1.6,1.1C52.7,58,52.2,55.5,53.1,51.5z"/>
		<path class="st23" d="M63.7,60.6c-0.7-0.2-1.3-0.7-2.2-1.5c3.1-0.7,4.7-2.7,5.8-5.3c0.7,1.3,0.2,2.4-0.5,3.5
			c-0.7,1.1-1.6,1.8-2.7,2.5C63.7,60,63.3,60,63.7,60.6z"/>
		<path class="st24" d="M39.7,42.7c1.1,0.2,1.8,0.5,1.8,1.8c0,1.1-0.7,2-1.8,2s-2-0.9-2-2S38.4,42.7,39.7,42.7z"/>
		<path class="st25" d="M82.6,44.9c-0.2,0.9-0.7,1.6-1.8,1.6c-1.1,0-2-0.9-2-2s0.7-1.8,1.8-2C81.7,42.6,82.6,43.5,82.6,44.9z"/>
		<path class="st26" d="M60,53.5c-1.1,0-2.2,0-3.3-0.4c-1.5-0.7-1.5-1.8-0.2-2.7c1.5-0.9,5.5-0.9,6.9,0.2c1.1,0.7,1.1,1.8-0.2,2.4
			C62.4,53.7,61.3,53.7,60,53.5z"/>
		<path class="st27" d="M63.3,68.2c-1.6,2.9-4.7,2.9-6.5,0c0.2-0.5,0.5-0.7,0.9-0.9C59.5,66.6,62.2,67.1,63.3,68.2z"/>
		<path class="st28" d="M63.3,68.2c-2.2-0.7-4.4-0.9-6.5,0c-0.7-0.5-0.9-1.1,0.2-1.3c2.2-0.7,4.4-0.7,6.5,0
			C64.6,67.3,63.7,67.8,63.3,68.2z"/>
	</g>
</g>
</svg>
