<svg xmlns="http://www.w3.org/2000/svg" viewBox="0 0 511.76 511.76"><title>bitcoin-cash-bch</title><circle style="fill:#0ac18e;" cx="255.88" cy="255.88" r="255.88"/><path id="symbol" style="fill:#fff;" d="M335.94,170.3c-12.86-29.16-42.41-35.4-78.59-29.36L245.73,95.87,218.32,103l11.43,44.94c-7.21,1.82-14.61,3.38-21.95,5.46l-11.43-44.68L169,115.75l11.63,45.07c-5.91,1.69-55.33,14.35-55.33,14.35l7.53,29.35s20.13-5.65,19.94-5.19c11.17-2.92,16.43,2.66,18.9,7.92l32,123.53c.39,3.57-.26,9.67-7.92,11.75.45.26-19.94,5.13-19.94,5.13l3,34.23s49-12.54,55.4-14.16l11.76,45.59,27.4-7.08-11.75-45.91q11.3-2.64,22-5.46l11.69,45.66,27.4-7.08-11.75-45.53c42.21-10.26,72-36.89,65.92-77.61-3.9-24.55-30.72-44.68-53-46.95,13.7-12.15,20.65-29.88,12.15-53.06ZM322.75,277.78c5.46,40.33-50.59,45.27-69.1,50.14l-16.11-60.33C256.12,262.71,313.53,242.26,322.75,277.78ZM289,195.63c5.78,35.85-42.15,40-57.61,44L216.7,184.85C232.22,181,277.23,162.44,289,195.63Z" transform="translate(-0.24 -0.34)"/></svg>