<svg width="489" height="489" viewBox="0 0 489 489" fill="none" xmlns="http://www.w3.org/2000/svg">
<path d="M0 244.5C0 109.466 109.466 0 244.5 0C379.534 0 489 109.466 489 244.5C489 379.534 379.534 489 244.5 489C109.466 489 0 379.534 0 244.5Z" fill="#549CA5"/>
<path d="M115.511 165.85L247.65 249.233C247.692 249.263 247.743 249.278 247.794 249.278C247.846 249.278 247.896 249.263 247.938 249.233L382.741 163.961C382.771 163.943 382.797 163.919 382.818 163.891C382.838 163.862 382.852 163.829 382.859 163.795C382.866 163.761 382.866 163.725 382.859 163.691C382.851 163.656 382.837 163.624 382.817 163.595C382.8 163.563 382.773 163.537 382.741 163.52L249.177 78.2769C249.134 78.2473 249.084 78.2315 249.033 78.2315C248.981 78.2315 248.931 78.2473 248.888 78.2769L115.511 165.393C115.481 165.416 115.456 165.444 115.438 165.476C115.419 165.509 115.407 165.545 115.403 165.582C115.399 165.619 115.402 165.656 115.413 165.692C115.424 165.728 115.442 165.761 115.466 165.79C115.477 165.812 115.492 165.833 115.511 165.85ZM247.652 347C245.897 347.002 244.179 346.494 242.706 345.538L101.191 254.276C101.147 254.225 101.123 254.16 101.123 254.093C101.123 254.026 101.147 253.961 101.191 253.91L107.216 244.524C107.267 244.48 107.332 244.455 107.399 244.455C107.466 244.455 107.531 244.48 107.582 244.524L247.588 334.825C247.63 334.855 247.681 334.871 247.732 334.871C247.784 334.871 247.834 334.855 247.877 334.825L380.564 249.446C382.06 248.49 383.291 247.171 384.142 245.611C384.993 244.051 385.438 242.302 385.434 240.524V219.505C385.427 219.433 385.394 219.366 385.34 219.318C385.287 219.27 385.217 219.245 385.145 219.246C385.103 219.249 385.062 219.259 385.023 219.276L251.011 304.746C249.544 305.679 247.842 306.175 246.104 306.175C244.366 306.175 242.663 305.679 241.196 304.746L105.773 218.467C102.475 216.399 99.7557 213.526 97.8713 210.117C95.9869 206.708 94.9988 202.875 95 198.978V169.569C94.9942 167.192 95.9153 164.906 97.5671 163.199L98.0201 162.833L100.622 161.05L244.28 67.2937L244.431 67.203C245.875 66.3775 247.517 65.9624 249.18 66.0027C250.842 66.0429 252.463 66.5369 253.865 67.4313L392.745 156.025C394.049 156.853 395.122 157.998 395.866 159.352C396.61 160.707 397 162.228 397 163.774C397 165.32 396.61 166.841 395.866 168.195C395.122 169.55 394.049 170.694 392.745 171.522L252.679 260.086C251.217 260.997 249.531 261.48 247.809 261.48C246.088 261.48 244.401 260.997 242.94 260.086L107.067 174.421C107.006 174.386 106.934 174.376 106.866 174.392C106.798 174.409 106.739 174.452 106.701 174.512C106.677 174.553 106.666 174.602 106.671 174.65V198.963C106.664 200.883 107.143 202.774 108.064 204.459C108.984 206.144 110.316 207.568 111.935 208.597L245.977 293.916C246.019 293.945 246.07 293.961 246.121 293.961C246.173 293.961 246.223 293.945 246.265 293.916L382.984 206.571C384.667 205.491 386.657 204.995 388.649 205.159C390.641 205.323 392.524 206.138 394.008 207.478C394.971 208.396 395.73 209.507 396.236 210.738C396.742 211.97 396.983 213.294 396.945 214.625V240.423C396.956 244.165 396.025 247.851 394.238 251.137C392.451 254.424 389.864 257.206 386.719 259.227L252.525 345.574C251.063 346.487 249.377 346.977 247.655 346.991L247.652 347Z" fill="white"/>
<path d="M197.986 374.59C196.746 372.978 195.176 371.738 193.274 370.87C191.373 370.002 189.41 369.568 187.384 369.568C184.904 369.568 182.652 370.043 180.626 370.994C178.642 371.903 176.927 373.164 175.48 374.776C174.075 376.388 172.98 378.289 172.194 380.48C171.409 382.629 171.016 384.944 171.016 387.424C171.016 389.739 171.388 391.929 172.132 393.996C172.876 396.063 173.951 397.881 175.356 399.452C176.762 401.023 178.477 402.263 180.502 403.172C182.528 404.081 184.822 404.536 187.384 404.536C189.906 404.536 192.117 404.019 194.018 402.986C195.92 401.953 197.532 400.506 198.854 398.646L203.876 402.428C203.546 402.883 202.967 403.544 202.14 404.412C201.314 405.239 200.218 406.086 198.854 406.954C197.49 407.781 195.837 408.504 193.894 409.124C191.993 409.785 189.782 410.116 187.26 410.116C183.788 410.116 180.647 409.455 177.836 408.132C175.067 406.809 172.69 405.073 170.706 402.924C168.764 400.775 167.276 398.357 166.242 395.67C165.209 392.942 164.692 390.193 164.692 387.424C164.692 384.035 165.25 380.914 166.366 378.062C167.482 375.169 169.032 372.689 171.016 370.622C173.042 368.514 175.46 366.881 178.27 365.724C181.081 364.567 184.181 363.988 187.57 363.988C190.464 363.988 193.295 364.546 196.064 365.662C198.875 366.778 201.169 368.493 202.946 370.808L197.986 374.59ZM210.083 379.612H215.663V409H210.083V379.612ZM208.781 369.072C208.781 367.956 209.173 367.005 209.959 366.22C210.785 365.393 211.757 364.98 212.873 364.98C213.989 364.98 214.939 365.393 215.725 366.22C216.551 367.005 216.965 367.956 216.965 369.072C216.965 370.188 216.551 371.159 215.725 371.986C214.939 372.771 213.989 373.164 212.873 373.164C211.757 373.164 210.785 372.771 209.959 371.986C209.173 371.159 208.781 370.188 208.781 369.072ZM224.543 379.612H230.123V384.138H230.247C230.619 383.353 231.115 382.65 231.735 382.03C232.355 381.369 233.037 380.811 233.781 380.356C234.566 379.901 235.414 379.55 236.323 379.302C237.232 379.013 238.142 378.868 239.051 378.868C239.96 378.868 240.787 378.992 241.531 379.24L241.283 385.254C240.828 385.13 240.374 385.027 239.919 384.944C239.464 384.861 239.01 384.82 238.555 384.82C235.827 384.82 233.74 385.585 232.293 387.114C230.846 388.643 230.123 391.02 230.123 394.244V409H224.543V379.612ZM247.49 379.612H253.07V384.138H253.194C253.566 383.353 254.062 382.65 254.682 382.03C255.302 381.369 255.984 380.811 256.728 380.356C257.514 379.901 258.361 379.55 259.27 379.302C260.18 379.013 261.089 378.868 261.998 378.868C262.908 378.868 263.734 378.992 264.478 379.24L264.23 385.254C263.776 385.13 263.321 385.027 262.866 384.944C262.412 384.861 261.957 384.82 261.502 384.82C258.774 384.82 256.687 385.585 255.24 387.114C253.794 388.643 253.07 391.02 253.07 394.244V409H247.49V379.612ZM296.478 409H290.898V404.474H290.774C290.071 406.045 288.852 407.326 287.116 408.318C285.38 409.269 283.375 409.744 281.102 409.744C279.655 409.744 278.291 409.517 277.01 409.062C275.728 408.649 274.592 407.987 273.6 407.078C272.649 406.169 271.884 405.011 271.306 403.606C270.727 402.159 270.438 400.465 270.438 398.522V379.612H276.018V396.972C276.018 398.336 276.204 399.514 276.576 400.506C276.948 401.457 277.444 402.242 278.064 402.862C278.684 403.441 279.386 403.875 280.172 404.164C280.998 404.412 281.846 404.536 282.714 404.536C283.871 404.536 284.946 404.35 285.938 403.978C286.93 403.606 287.798 403.027 288.542 402.242C289.286 401.415 289.864 400.382 290.278 399.142C290.691 397.902 290.898 396.435 290.898 394.74V379.612H296.478V409ZM320.513 386.99C319.852 386.163 319.025 385.481 318.033 384.944C317.082 384.365 315.904 384.076 314.499 384.076C313.176 384.076 312.019 384.365 311.027 384.944C310.076 385.481 309.601 386.287 309.601 387.362C309.601 388.23 309.87 388.933 310.407 389.47C310.986 390.007 311.647 390.441 312.391 390.772C313.176 391.103 314.003 391.351 314.871 391.516C315.739 391.681 316.483 391.826 317.103 391.95C318.302 392.239 319.418 392.591 320.451 393.004C321.526 393.417 322.435 393.955 323.179 394.616C323.964 395.277 324.564 396.083 324.977 397.034C325.432 397.985 325.659 399.142 325.659 400.506C325.659 402.159 325.308 403.585 324.605 404.784C323.902 405.941 322.993 406.892 321.877 407.636C320.761 408.38 319.48 408.917 318.033 409.248C316.628 409.579 315.202 409.744 313.755 409.744C311.316 409.744 309.167 409.372 307.307 408.628C305.488 407.884 303.856 406.52 302.409 404.536L306.625 401.064C307.534 401.973 308.547 402.779 309.663 403.482C310.779 404.185 312.143 404.536 313.755 404.536C314.458 404.536 315.16 404.474 315.863 404.35C316.607 404.185 317.248 403.957 317.785 403.668C318.364 403.337 318.818 402.945 319.149 402.49C319.521 401.994 319.707 401.436 319.707 400.816C319.707 399.989 319.438 399.307 318.901 398.77C318.405 398.233 317.785 397.819 317.041 397.53C316.338 397.199 315.574 396.951 314.747 396.786C313.962 396.579 313.259 396.414 312.639 396.29C311.44 396.001 310.304 395.67 309.229 395.298C308.154 394.926 307.204 394.43 306.377 393.81C305.55 393.19 304.889 392.405 304.393 391.454C303.897 390.503 303.649 389.325 303.649 387.92C303.649 386.391 303.959 385.068 304.579 383.952C305.24 382.795 306.088 381.844 307.121 381.1C308.196 380.356 309.394 379.798 310.717 379.426C312.081 379.054 313.445 378.868 314.809 378.868C316.793 378.868 318.694 379.24 320.513 379.984C322.332 380.728 323.778 381.968 324.853 383.704L320.513 386.99Z" fill="white"/>
</svg>
