<?xml version="1.0" encoding="UTF-8"?><svg xmlns="http://www.w3.org/2000/svg" viewBox="0 0 21 24.4"><g id="a"/><g id="b"><g id="c"><g><polygon points=".23 18.63 10.23 24.4 13.56 18.63 .23 18.63" fill="#002a5f"/><polygon points=".05 18.52 .05 18.52 .05 18.52 .05 18.52" fill="#002a5f"/><polygon points="10.5 7.91 6.9 9.98 6.9 14.14 10.5 16.22 14.1 14.14 14.1 9.98 10.5 7.91" fill="#002a5f"/><polygon points=".12 5.93 3.29 11.44 9.64 .43 .12 5.93" fill="#002a5f"/><polygon points="7.44 5.5 20.13 5.5 10.61 0 7.44 5.5" fill="#002a5f"/><polygon points="14.65 6.13 21 17.14 21 6.13 14.65 6.13" fill="#002a5f"/><polygon points="17.7 12.69 14.64 18 14.64 18 14.56 18.15 11.36 23.7 20.87 18.2 17.7 12.69" fill="#002a5f"/><polygon points="0 18 6.35 18 0 6.99 0 18" fill="#002a5f"/></g></g></g></svg>