<?xml version="1.0" standalone="no"?>
<!DOCTYPE svg PUBLIC "-//W3C//DTD SVG 20010904//EN"
 "http://www.w3.org/TR/2001/REC-SVG-20010904/DTD/svg10.dtd">
<svg version="1.0" xmlns="http://www.w3.org/2000/svg"
 width="64.000000pt" height="64.000000pt" viewBox="0 0 64.000000 64.000000"
 preserveAspectRatio="xMidYMid meet">

<g transform="translate(0.000000,64.000000) scale(0.100000,-0.100000)"
fill="#000000" stroke="none">
<path d="M223 622 c-109 -39 -178 -112 -210 -221 -29 -102 4 -228 82 -306 122
-121 328 -121 450 0 91 92 118 241 64 356 -69 146 -241 223 -386 171z m224
-40 c53 -27 107 -81 132 -130 25 -49 37 -112 22 -112 -6 0 -11 10 -11 23 0 35
-44 119 -81 154 -104 98 -274 98 -378 0 -37 -35 -81 -119 -81 -154 0 -13 -4
-23 -10 -23 -24 0 2 88 45 150 30 44 86 85 142 106 54 20 167 13 220 -14z m1
-69 c3 -10 -25 -13 -117 -13 -111 0 -133 5 -114 24 13 12 226 2 231 -11z
m-128 -33 c0 -5 -7 -10 -15 -10 -8 0 -15 5 -15 10 0 6 7 10 15 10 8 0 15 -4
15 -10z m50 0 c0 -5 -7 -10 -15 -10 -8 0 -15 5 -15 10 0 6 7 10 15 10 8 0 15
-4 15 -10z m24 -34 c34 -14 66 -50 66 -73 0 -20 -67 -16 -79 5 -9 14 -10 11
-11 -15 0 -23 -5 -33 -15 -33 -10 0 -15 11 -15 35 0 19 -4 35 -10 35 -5 0 -10
-14 -10 -31 0 -35 -23 -36 -28 -1 -4 28 -22 29 -22 2 0 -22 16 -31 101 -54 57
-16 82 -35 93 -73 10 -32 -20 -82 -58 -98 -19 -8 -36 -21 -39 -30 -8 -19 -27
-20 -27 0 0 8 -4 15 -10 15 -5 0 -10 -7 -10 -15 0 -8 -7 -15 -15 -15 -8 0 -15
6 -15 13 0 8 -18 21 -39 29 -42 17 -77 59 -67 83 9 25 61 19 80 -10 31 -47
142 -27 121 22 -7 16 -9 15 -14 -6 -10 -37 -31 -38 -31 -2 0 16 -4 33 -10 36
-6 4 -10 -8 -10 -29 0 -25 -4 -36 -15 -36 -11 0 -15 11 -15 40 0 33 -3 40 -19
40 -11 0 -33 12 -50 26 -95 80 45 193 173 140z m-344 -168 c1 -35 38 -109 73
-147 100 -105 279 -109 386 -8 37 35 81 119 81 155 0 12 5 22 11 22 15 0 3
-63 -22 -112 -25 -49 -79 -102 -132 -130 -60 -33 -194 -33 -254 0 -53 28 -107
81 -132 130 -25 49 -37 112 -22 112 6 0 11 -10 11 -22z"/>
</g>
</svg>
