<?xml version="1.0" encoding="utf-8"?>
<!-- Generator: Adobe Illustrator 25.2.3, SVG Export Plug-In . SVG Version: 6.00 Build 0)  -->
<svg version="1.1" xmlns="http://www.w3.org/2000/svg" xmlns:xlink="http://www.w3.org/1999/xlink" x="0px" y="0px"
	 viewBox="0 0 512 512" style="enable-background:new 0 0 512 512;" xml:space="preserve">
<style type="text/css">
	.st0{fill:#6A0D69;}
	.st1{fill:#FFFFFF;}
	.st2{fill:#6A0D69;stroke:#FFFFFF;stroke-width:10;stroke-miterlimit:10;}
</style>
<g id="BG">
	<rect x="0" class="st0" width="512" height="512"/>
</g>
<g id="CoinShape">
	<circle class="st0" cx="256.5" cy="257.8" r="242.6"/>
</g>
<g id="Devicoin">
	<g id="stroke_copy">
		<g>
			<path class="st1" d="M385.8,274.8c-0.1-79.9-63.5-155.1-130.8-172.9c-57.3-15.2-107.3-0.9-136.4,45.3c-15.1,24.1-8.1,54.7,0.2,70
				c23.7,43.6,83.7,39.9,89.6,10.9c4.1-20.2-20.3-25.8-19.4-20.2c0,0,16,14.1-0.4,21c-16.7,7.1-29.6-26.6-21.5-42.2
				c9.3-17.6,28.1-23.4,43.9-15.6c50.1,24.6,33.2,102.7-34.2,173.1c-18.4,19.3,48.6,58.5,79.2,66.9c32,8.8,92.8,10,105.1,0.2
				C378,397.8,385.9,338.9,385.8,274.8z"/>
			<g>
				<path class="st1" d="M388.3,274.8c-0.1-26.8-7.2-53.3-19.2-77.2c-11.8-23.6-28.4-44.9-48.3-62.2c-18.6-16.2-40.5-29.2-64.4-35.7
					c-24.6-6.7-51.1-8.7-75.9-2c-23.3,6.2-43.4,20.3-57.9,39.4c-4.1,5.4-7.8,11-10.4,17.2c-2.7,6.4-4.2,13.2-4.7,20.1
					c-0.9,12.2,1.2,24.9,5.7,36.3c7.7,19.6,24.2,34.8,44.8,39.9c8.7,2.2,17.9,2.5,26.8,0.7c7.4-1.6,14.8-5,20-10.6
					c5.6-6.1,8.4-15.3,5.7-23.3c-2.5-7.3-9.5-13-17.2-13.8c-2.5-0.3-5.8,0.3-6.6,3.1c-0.8,2.7,2.2,4.6,3.7,6.4
					c0.2,0.3,0.9,1.2,1.2,1.8c0.4,0.7,1.1,1.9,1.2,2.3c0.7,1.8,0.9,3.2,0.4,4.7c-0.6,1.8-2.7,3.4-4.6,4.3c-2,1-3.6,1.4-5.7,1.2
					c-0.1,0-0.5-0.1-0.1,0c-0.3,0-0.5-0.1-0.8-0.2c-0.4-0.1-0.8-0.2-1.2-0.4c-0.4-0.2-1.5-0.7-2.2-1.2c-1.5-1-2.9-2.4-4.1-4
					c-2.8-3.6-4.7-8-5.9-12.4c-1.3-4.5-1.8-9.3-1.4-14c0.5-4.9,2.6-9.1,5.7-13.1c7-8.9,18.3-13.7,29.5-11.4
					c9,1.9,17.3,7.7,23.3,14.6c11.9,13.7,13.5,33.3,10.6,50.7c-4.2,24.8-16.2,48-30.3,68.5c-8.8,12.8-18.7,24.8-29.4,36.1
					c-2.7,2.8-4.9,5.5-5.4,9.5c-0.4,3.1,0.4,6.1,1.7,8.9c3.2,7.3,9.5,13.2,15.5,18.3c8,6.7,16.7,12.5,25.7,17.7
					c8.9,5.2,18.2,9.8,27.7,13.7c8.5,3.5,17.2,5.9,26.2,7.6c11.7,2.1,23.6,3.3,35.4,3.9c11.3,0.6,22.8,0.6,34.1-0.4
					c4.6-0.4,9.2-1,13.7-2c3.3-0.7,6.6-1.7,9.6-3.4c6.3-3.6,9.9-11.2,12.6-17.7c4.2-10.2,6.6-21.1,8.5-31.9
					c2.5-14.2,4-28.5,4.9-42.9C387.9,306.3,388.3,290.5,388.3,274.8c0-3.2-5-3.2-5,0c0,18.1-0.5,36.3-2,54.4
					c-1.2,15-3,30.1-6.3,44.8c-2.2,10.2-5,20.9-10.6,29.7c-0.5,0.8-1,1.5-1.6,2.3c-0.5,0.6,0.3-0.4-0.2,0.2
					c-0.1,0.2-0.3,0.4-0.4,0.5c-0.3,0.3-0.6,0.7-0.9,1c-0.6,0.6-1.2,1.2-1.9,1.7c-0.1,0.1-0.4,0.3,0.1-0.1c-0.1,0.1-0.3,0.2-0.4,0.3
					c-0.3,0.2-0.7,0.4-1,0.6c-0.3,0.2-0.6,0.3-0.8,0.4c-0.2,0.1-1.2,0.5-0.7,0.3c-0.8,0.3-1.7,0.6-2.6,0.9c-2,0.6-4.1,1.1-6.2,1.5
					c-11.1,2.1-22.8,2.3-34.2,2.1c-13.1-0.2-26.3-1.2-39.3-3.3c-10.3-1.6-20.3-4-30-7.9c-10.4-4.2-20.4-9.3-30-15
					c-9.5-5.6-18.7-11.9-26.7-19.5c-3.2-3-6.1-6.2-8.4-9.7c-0.5-0.8-1-1.6-1.4-2.5c-0.2-0.3-0.3-0.7-0.5-1c-0.3-0.7,0.2,0.5-0.1-0.2
					c-0.1-0.3-0.2-0.5-0.3-0.8c-0.2-0.7-0.5-1.4-0.6-2.1c0-0.2-0.1-0.4-0.1-0.6c-0.1-0.6,0,0.6,0-0.1c0-0.4-0.1-0.7-0.1-1.1
					c0-0.4,0-0.7,0-1.1c0-0.1,0.1-0.7,0-0.1c0-0.2,0.1-0.4,0.1-0.5c0.1-0.3,0.1-0.6,0.2-0.9c0.1-0.2,0.1-0.3,0.2-0.5
					c0.1-0.4-0.2,0.4,0.1-0.3c0.3-0.6,0.7-1.2,1.1-1.8c-0.3,0.5,0.4-0.4,0.5-0.6c0.7-0.8,1.4-1.5,2.1-2.3c6.1-6.5,12-13.2,17.5-20.2
					c10-12.6,19.1-25.9,26.5-40.2c6.3-12,11.6-24.7,14.8-38c2.6-10.9,4-22.4,2.6-33.6c-1.2-9.7-4.4-19.3-10.4-27.2
					c-6.2-8.2-15.3-15.2-25.3-18.2c-12.7-3.7-26.5,0.4-35.3,10.2c-4,4.5-7.4,9.8-8.4,15.9c-0.9,5.5-0.5,11.2,0.9,16.6
					c2.2,8.9,7.8,20.9,17.9,22.9c5.3,1,11.5-1.3,14.9-5.5c3.4-4.2,2.6-9.5,0-13.9c-1.4-2.4-3.3-4.7-5.4-6.6c0.2,0.6,0.5,1.2,0.7,1.8
					c0-0.4,0.1-0.6-0.1,0.1c0.2-0.5-0.2,0.4-0.1,0.2c-0.1,0.1-0.2,0.2-0.3,0.3c-0.3,0.3-0.1,0.1,0,0c0.3-0.2-0.6,0.2-0.2,0.1
					c0.1,0,0.4-0.1,0.5-0.1c0.5-0.3-0.4,0,0.1,0c0.5,0,1,0,1.5,0c0.4,0-0.1,0-0.1,0c0.2,0,0.3,0,0.5,0.1c0.3,0.1,0.6,0.1,0.9,0.2
					c0.7,0.2,1.3,0.4,1.9,0.6c0.6,0.2,0.6,0.2,1.4,0.6c0.7,0.4,1.4,0.8,2.1,1.3c2.3,1.5,4.5,4.1,5.6,6.7c1.4,3.5,1.4,7.4,0.3,11.1
					c-1.5,5.3-5.3,9.7-10.1,12.7c-5.5,3.4-12.2,5.2-18.7,5.6c-16.1,1.1-32.5-4.9-44.3-16.1c-14.2-13.5-20.8-33.7-20.3-53
					c0.1-5.8,1-11.6,2.8-17.2c1.8-5.7,4.6-10.8,7.9-15.8c5.9-8.7,12.9-16.6,21-23.3c15.5-12.8,34.9-20.4,54.8-22.6
					c21.8-2.4,44.6,0.7,65.3,7.9c20.2,7,38.7,18.7,54.7,32.9c17,15.1,31.4,33,42.4,52.9c11.1,20,18.7,42.1,21.2,64.8
					c0.6,5.6,0.9,11.3,1,16.9C383.3,278,388.3,278,388.3,274.8z"/>
			</g>
		</g>
	</g>
	<g id="suckers">
		<path class="st2" d="M332.9,224.5c14,23.6,34.3,37.4,48.3,29.1c14-8.3,15.5-35.1,1.5-58.7s-34.3-37.4-48.3-29.1
			S318.9,200.9,332.9,224.5z"/>
		<path class="st2" d="M278.7,140.8c19.4,9.4,38.5,10,43.7-0.8c5.2-10.8-5.7-28.5-25.2-37.8c-19.4-9.4-38.5-10.1-43.7,0.8
			C248.3,113.8,259.2,131.4,278.7,140.8z"/>
		<path class="st2" d="M335.6,337.7c-2.6,33.1,8,60.9,27.8,62.4c19.8,1.5,40.2-23.8,42.8-56.9s-7.9-60.9-27.7-62.4
			C358.6,279.3,338.2,304.7,335.6,337.7z"/>
	</g>
</g>
</svg>
