<?xml version="1.0" encoding="utf-8"?>
<!-- Generator: Adobe Illustrator 26.1.0, SVG Export Plug-In . SVG Version: 6.00 Build 0)  -->
<svg version="1.1" id="Layer_1" xmlns="http://www.w3.org/2000/svg" xmlns:xlink="http://www.w3.org/1999/xlink" x="0px" y="0px"
	 viewBox="0 0 253.1 264.36" style="enable-background:new 0 0 253.1 264.36;" xml:space="preserve">
<style type="text/css">
	.st0{fill:url(#SVGID_1_);}
	.st1{fill:url(#SVGID_00000085223651633206474700000001779425910113399966_);}
	.st2{fill:url(#SVGID_00000181078210239677407760000004955060545813691063_);}
	.st3{fill:url(#SVGID_00000142178130818639473520000007475072951492351140_);}
	.st4{fill:url(#SVGID_00000129907615616082261650000016732502400276456886_);}
	.st5{fill:#FFFFFF;}
	.st6{fill:#010101;}
	.st7{fill:#E6E6E5;}
</style>
<g>
	
		<radialGradient id="SVGID_1_" cx="127.8344" cy="136.6945" r="100.5889" fx="129.1986" fy="167.9196" gradientUnits="userSpaceOnUse">
		<stop  offset="0" style="stop-color:#FBF5CB"/>
		<stop  offset="0.1124" style="stop-color:#FCE8B8"/>
		<stop  offset="0.3879" style="stop-color:#FCD090"/>
		<stop  offset="0.6373" style="stop-color:#FBBF77"/>
		<stop  offset="0.8497" style="stop-color:#FBB467"/>
		<stop  offset="1" style="stop-color:#FBB161"/>
	</radialGradient>
	<polygon class="st0" points="29.33,188.69 19.33,174.69 25.33,167.69 32.33,134.69 40.33,103.69 40.33,73.69 41.33,60.69 
		45.33,48.69 48.33,44.69 56.33,44.69 164.33,51.69 193.33,46.69 203.33,44.69 209.33,44.69 213.33,48.69 215.33,60.69 
		217.33,83.69 219.33,116.69 225.33,141.69 231.33,163.69 236.33,174.69 234.33,179.69 228.33,184.69 175.33,227.69 86.33,228.69 	
		"/>
	
		<radialGradient id="SVGID_00000083797652753832759790000008753471181630814874_" cx="128.5699" cy="209.1902" r="78.0348" fx="129.2865" fy="183.0325" gradientUnits="userSpaceOnUse">
		<stop  offset="0" style="stop-color:#FFFFFF"/>
		<stop  offset="0.5046" style="stop-color:#FBFBFA"/>
		<stop  offset="0.7959" style="stop-color:#F1F1F0"/>
		<stop  offset="0.9959" style="stop-color:#E6E6E5"/>
	</radialGradient>
	<path style="fill:url(#SVGID_00000083797652753832759790000008753471181630814874_);" d="M130.83,254.19c4-5,19.97-12.5,19.97-12.5
		c42-12,71-45,71-45l7-12c0-1,4-17-10-20s-22,8-36,14s-16,6-36-6c0,0-7-5-18-5h-0.47c-11,0-18,5-18,5c-20,12-22,12-36,6
		s-22-17-36-14s-10,19-10,20l7,12c0,0,29,33,71,45c0,0,15,6,19,11"/>
	
		<linearGradient id="SVGID_00000109726225586630635200000016663275604777561217_" gradientUnits="userSpaceOnUse" x1="124.9749" y1="76.8722" x2="124.9749" y2="14.1945">
		<stop  offset="0" style="stop-color:#544842"/>
		<stop  offset="0.2738" style="stop-color:#564A43"/>
		<stop  offset="0.4711" style="stop-color:#5C5048"/>
		<stop  offset="0.6442" style="stop-color:#675B51"/>
		<stop  offset="0.8035" style="stop-color:#776B5D"/>
		<stop  offset="0.952" style="stop-color:#8D816E"/>
		<stop  offset="1" style="stop-color:#958B75"/>
	</linearGradient>
	<path style="fill:url(#SVGID_00000109726225586630635200000016663275604777561217_);" d="M81.83,74.19c0,0-16,9-23-6l-1-11
		c0,0,7,12,22,14c0,0-19-11-17-30l3-12l2,9l4,5c0,0,3-13,6-15c0,0,6,7,12,9c0,0-3-12,5-23c0,0,3,17,28,15h8c0,0-10-3-13-7
		c0,0,13,4,37,3c0,0,24,1,27,24c0,0,4-2,2-9l-11-15c0,0,22,4,19,25l-14,24l-2-7l-4,2l-3-6l-2,6l-8-8c0,0,5,7-14,3s2,3,2,3
		s-16,4-34,0l-5-3c0,0,2,3,8,7c0,0-10,1-15-3c0,0-7-5-1,4l-6-1l1,2l-12,1H81.83z"/>
	
		<linearGradient id="SVGID_00000180334842966409386370000006295487170386838715_" gradientUnits="userSpaceOnUse" x1="30.3344" y1="155.1945" x2="30.3344" y2="72.1945">
		<stop  offset="0" style="stop-color:#664C1D"/>
		<stop  offset="0.2488" style="stop-color:#674D1F"/>
		<stop  offset="0.428" style="stop-color:#6B5224"/>
		<stop  offset="0.5853" style="stop-color:#725A2E"/>
		<stop  offset="0.7301" style="stop-color:#7C653F"/>
		<stop  offset="0.8651" style="stop-color:#877556"/>
		<stop  offset="0.9932" style="stop-color:#958973"/>
		<stop  offset="1" style="stop-color:#958B75"/>
	</linearGradient>
	<path style="fill:url(#SVGID_00000180334842966409386370000006295487170386838715_);" d="M39.83,72.19c0,0-1,13,5,39c0,0-7,19-8,44
		c0,0-3-17-4-34v-7c0,0-3-11,4-19l3-7c0,0-12,4-24-6l13,1l-13-5c0,0,11,1,17-2L39.83,72.19z"/>
	
		<linearGradient id="SVGID_00000088134963201128682470000009478319537377532040_" gradientUnits="userSpaceOnUse" x1="210.8344" y1="159.1945" x2="210.8344" y2="80.1145">
		<stop  offset="0" style="stop-color:#544842"/>
		<stop  offset="0.5238" style="stop-color:#554943"/>
		<stop  offset="0.7125" style="stop-color:#5A4D46"/>
		<stop  offset="0.8469" style="stop-color:#61544B"/>
		<stop  offset="0.9549" style="stop-color:#6D5E53"/>
		<stop  offset="1" style="stop-color:#736458"/>
	</linearGradient>
	<path style="fill:url(#SVGID_00000088134963201128682470000009478319537377532040_);" d="M187.83,81.19c0,0,21-3,28,1l1-2l6,1l-3,2
		l9,5v3l-3,4l-4,7l8-1l-4,5l5,2l-5,3l5,5l-12-4l7,9l8,14l-6-2l1,8v8l-6-16c0,0-4,20-7,26l1-20l1-15c0,0-9,2-13-5l8-3c0,0-10-4-15-10
		h5l-9-6c0,0-2-3,11-2c0,0-13-2-11-11C193.83,87.19,188.83,85.19,187.83,81.19z"/>
	<path class="st5" d="M65.51,57.35c0,0-10.68-8.16-14.68,2.84s1,36,2,38c-0.28,0.19,7.34-11.95,22.8-20.62
		c1.66-0.93-11.59-1.71-9.8-2.38l-7-8l-1-7c0,0,15,12,19,9L65.51,57.35z"/>
	<path class="st5" d="M188.83,58.19c0,0,12.8-10.93,17.47,2c2.53,7,1.53,19,1.53,19c-22,2-18,4-18,4c-4.7-4.3-6.86-5.5-13.53-8
		l6.53-9L188.83,58.19z"/>
	<g>
		<g>
			<path class="st6" d="M81.67,73.26c-5.13,2.11-11.57,2.91-16.51-0.14c-5.52-3.41-6.18-10.49-6.62-16.34
				c-0.84,0.23-1.68,0.45-2.52,0.68c5.22,10.22,16.56,14.5,27.36,15.66c1.57,0.17,1.74-2.21,0.36-2.65
				c-2.58-0.83-4.98-2.37-7.19-3.89c-2.91-2-5.67-4.33-7.92-7.05c-3.89-4.71-5.4-11.2-5.03-17.21c0.29-4.73,1.87-9.25,4.25-13.32
				c-0.84-0.23-1.68-0.45-2.52-0.68c-0.15,5.53,1.74,10.83,5.22,15.11c1.1,1.35,3-0.57,1.91-1.91c-3.03-3.72-4.55-8.43-4.43-13.2
				c0.04-1.35-1.85-1.82-2.52-0.68c-4.23,7.23-5.83,15.77-3.73,23.94c0.76,2.95,1.98,5.86,3.76,8.35c2.22,3.1,5.1,5.65,8.14,7.91
				c2.83,2.1,5.96,4.15,9.34,5.24c0.12-0.88,0.24-1.77,0.36-2.65c-9.87-1.07-20.26-4.99-25.03-14.33c-0.6-1.17-2.62-0.65-2.52,0.68
				c0.51,6.8,1.46,14.43,7.67,18.49c5.53,3.62,13.01,3.01,18.88,0.59C83.97,75.22,83.28,72.6,81.67,73.26L81.67,73.26z"/>
		</g>
	</g>
	<g>
		<g>
			<path class="st6" d="M95.97,72.2c-6.12-3.98-11.83-8.89-16.34-14.64c-4.37-5.57-7.01-12.09-5.56-19.23
				c0.8-3.94,2.63-7.6,5.22-10.67c-0.75-0.2-1.5-0.4-2.26-0.6c0.93,2.49,2.24,4.83,4.21,6.66c2.05,1.89,4.56,3.08,7.21,3.87
				c1.67,0.5,2.38-2.11,0.72-2.6c-4.55-1.35-7.86-4.15-9.54-8.64c-0.32-0.86-1.54-1.44-2.26-0.6c-4.94,5.85-7.44,13.52-6.02,21.13
				c1.44,7.73,7.16,14.26,12.75,19.46c3.25,3.02,6.77,5.78,10.49,8.2C96.06,75.48,97.42,73.14,95.97,72.2L95.97,72.2z"/>
		</g>
	</g>
	<g>
		<g>
			<path class="st6" d="M83.55,35.55c-0.9,6.97,1.4,14.16,4.81,20.17c3.12,5.5,7.58,9.96,13.36,12.59c1.57,0.71,2.94-1.61,1.36-2.33
				c-5.4-2.46-9.48-6.49-12.4-11.62c-3.2-5.64-5.28-12.28-4.44-18.81C86.48,33.83,83.77,33.85,83.55,35.55L83.55,35.55z"/>
		</g>
	</g>
	<g>
		<g>
			<path class="st6" d="M112.54,64.43c-7.05-2.71-12.03-8.8-15.81-15.1c-2.06-3.43-4.12-7.08-5.38-10.89
				c-1.36-4.11-1.29-8.44-0.29-12.62c1.16-4.82,3.36-9.29,5.81-13.57c-0.84-0.23-1.68-0.45-2.52-0.68
				c-0.09,5.67,2.59,11.21,7.08,14.68c5.12,3.96,11.77,4.28,17.98,4.32c6.84,0.04,13.76-0.06,20.53,1.14
				c3.39,0.61,6.76,1.52,9.9,2.94c3.06,1.38,5.92,3.16,8.69,5.04c5.94,4.02,12.81,9.16,13.27,16.98c0.1,1.73,2.8,1.74,2.7,0
				c-0.4-6.7-4.78-11.95-9.87-15.92c-5.22-4.06-10.98-7.83-17.28-9.96c-6.43-2.17-13.3-2.7-20.04-2.86
				c-6.51-0.15-13.58,0.66-19.85-1.48c-6.28-2.14-10.51-8.27-10.41-14.89c0.02-1.34-1.85-1.83-2.52-0.68
				C90.03,18.76,86.06,28,88.2,37.24c1,4.29,3.23,8.32,5.4,12.12c2.04,3.57,4.37,7.02,7.17,10.04c3.09,3.34,6.78,6.01,11.04,7.64
				C113.44,67.66,114.15,65.05,112.54,64.43L112.54,64.43z"/>
		</g>
	</g>
	<g>
		<g>
			<path class="st6" d="M111.54,39.31c7.27,12.2,19.88,20.95,33.78,23.78c3.98,0.81,8.05,1.14,12.11,0.96c1.73-0.08,1.74-2.78,0-2.7
				c-13.52,0.62-26.99-4.8-36.53-14.36c-2.71-2.71-5.06-5.74-7.02-9.03C112.98,36.46,110.65,37.81,111.54,39.31L111.54,39.31z"/>
		</g>
	</g>
	<g>
		<g>
			<path class="st6" d="M144.79,57.26c8.41,1.48,16.16,6.06,21.36,12.86c0.71,0.93,2.64,0.81,2.52-0.68
				c-0.18-2.12,0.14-4.17,1.07-6.09c-0.78,0-1.55,0-2.33,0c1.14,2.2,2.28,4.41,3.42,6.61c0.42,0.81,1.51,0.82,2.12,0.27
				c1.15-1.03,2.31-2.07,3.46-3.1c-0.75-0.2-1.5-0.4-2.26-0.6c0.68,2.74,1.25,5.51,1.7,8.3c0.12,0.76,1.01,1.06,1.66,0.94
				c1.01-0.19,1.62-1.05,1.61-2.05c-0.02-1.74-2.72-1.74-2.7,0c0.13-0.18,0.25-0.37,0.38-0.55c0.55,0.31,1.11,0.63,1.66,0.94
				c-0.45-2.79-1.02-5.56-1.7-8.3c-0.26-1.03-1.53-1.25-2.26-0.6c-1.15,1.03-2.31,2.07-3.46,3.1c0.71,0.09,1.41,0.18,2.12,0.27
				c-1.14-2.2-2.28-4.41-3.42-6.61c-0.45-0.86-1.9-0.9-2.33,0c-1.13,2.35-1.65,4.85-1.43,7.46c0.84-0.23,1.68-0.45,2.52-0.68
				c-5.62-7.36-13.82-12.49-22.97-14.1C143.81,54.36,143.08,56.96,144.79,57.26L144.79,57.26z"/>
		</g>
	</g>
	<g>
		<g>
			<path class="st6" d="M166.95,25.11c6.23,2.62,11.27,7.67,14.26,13.7c3.4,6.86,3.51,14.45,1.39,21.72
				c-1.33,4.57-3.37,8.87-5.61,13.06c-0.63,1.17,0.65,2.54,1.85,1.85c0.3-0.17,0.6-0.35,0.9-0.52c1.51-0.87,0.15-3.2-1.36-2.33
				c-0.3,0.17-0.6,0.35-0.9,0.52c0.62,0.62,1.23,1.23,1.85,1.85c4.17-7.82,7.89-16.46,7.42-25.51c-0.38-7.39-3.62-14.49-8.7-19.82
				c-2.93-3.08-6.46-5.46-10.37-7.11C166.06,21.83,165.37,24.45,166.95,25.11L166.95,25.11z"/>
		</g>
	</g>
	<g>
		<g>
			<path class="st6" d="M134.69,28.39c-5.5-0.88-10.74-2.82-15.55-5.61c-2.08-1.21-4.16-2.54-5.85-4.04
				c-0.55,0.71-1.09,1.41-1.64,2.12c6.12,2.62,12.43,4.25,19.06,4.84c6.3,0.55,12.62,0.2,18.93,0.37
				c6.73,0.19,13.54,1.35,19.33,4.98c5.19,3.25,8.78,8.92,10.48,14.72c2.36,8.09-0.19,16.03-3.58,23.42
				c-0.72,1.57,1.61,2.94,2.33,1.36c3.17-6.9,5.83-14.34,4.63-22.04c-0.97-6.21-4.08-12.31-8.58-16.7
				c-10.18-9.92-25.08-8.17-38.05-8.52c-8.03-0.22-15.76-1.6-23.18-4.77c-1.28-0.55-2.89,1.01-1.64,2.12
				c6.16,5.45,14.54,9.06,22.6,10.35C135.68,31.27,136.41,28.67,134.69,28.39L134.69,28.39z"/>
		</g>
	</g>
	<g>
		<g>
			<path class="st6" d="M167.23,24.62c7.46,2.15,15.67,4.69,20.49,11.23c4.99,6.77,3.21,15.16-0.65,22.01
				c-2.3,4.08-5.17,7.79-7.78,11.66c-0.97,1.45,1.36,2.8,2.33,1.36c4.95-7.35,10.93-14.48,11.84-23.64
				c0.83-8.4-4.1-15.46-11.1-19.63c-4.46-2.65-9.47-4.18-14.42-5.61C166.28,21.53,165.56,24.14,167.23,24.62L167.23,24.62z"/>
		</g>
	</g>
	<g>
		<g>
			<path class="st6" d="M188.69,83c3.15-0.59,6.27-1.39,9.45-1.8c3.57-0.46,7.23,0.25,10.74,0.89c2.68,0.49,5.32,1.13,7.93,1.89
				c3.63,1.05,7.15,1.46,10.93,1.53c-0.12-0.88-0.24-1.77-0.36-2.65c-7.01,2.43-14.38,3.3-21.76,2.58
				c-1.53-0.15-1.81,2.28-0.36,2.65c7.17,1.82,14.66,1.83,21.84,0.03c-0.35-0.82-0.69-1.64-1.04-2.47
				c-6.75,3.19-13.83,6.34-21.49,5.25c-6.26-0.89-11.96-4.29-15.09-9.88c-0.85-1.52-3.18-0.16-2.33,1.36
				c3.45,6.16,9.78,10.09,16.7,11.12c8.45,1.25,16.09-1.98,23.57-5.52c1.42-0.67,0.4-2.83-1.04-2.47
				c-6.71,1.68-13.7,1.67-20.41-0.03c-0.12,0.88-0.24,1.77-0.36,2.65c7.59,0.74,15.28-0.18,22.48-2.67
				c1.41-0.49,1.22-2.62-0.36-2.65c-2.55-0.05-5.13-0.08-7.61-0.7c-1.01-0.25-2-0.57-3-0.85c-2.83-0.81-5.7-1.47-8.6-1.96
				c-3.68-0.62-7.35-1.22-11.06-0.71c-3.2,0.44-6.33,1.22-9.49,1.81C186.27,80.71,186.99,83.31,188.69,83L188.69,83z"/>
		</g>
	</g>
	<g>
		<g>
			<path class="st6" d="M190.7,88.17c1.72,2.76,3.53,5.56,6.16,7.53c2.92,2.19,6.7,2.68,10.24,3.01c6.93,0.66,15.03-0.29,20.75-4.6
				c2.75-2.07,4.2-6.23,0.92-8.58c-1.41-1.01-2.76,1.33-1.36,2.33c1.48,1.06,0.04,3.11-0.91,3.9c-1.4,1.16-3.21,1.98-4.9,2.61
				c-3.42,1.28-7.06,1.83-10.71,1.82c-1.85,0-3.7-0.13-5.52-0.38c-1.88-0.26-3.88-0.56-5.59-1.44c-3.07-1.59-4.99-4.72-6.75-7.57
				C192.11,85.34,189.78,86.69,190.7,88.17L190.7,88.17z"/>
		</g>
	</g>
	<g>
		<g>
			<path class="st6" d="M220.92,102.86c-8.94-1.45-17.9-2.69-26.89-3.74c-1.33-0.15-1.84,1.94-0.68,2.52
				c12.1,6,24.46,11.46,37.05,16.35c1.16,0.45,2.04-1.04,1.52-1.98c-1.25-2.3-2.87-4.36-4.79-6.14c-0.2,0.75-0.4,1.5-0.6,2.26
				c1.97-0.69,3.94-1.38,5.91-2.08c1.17-0.41,1.39-2.29,0-2.6c-2.43-0.55-4.87-1.1-7.3-1.65c0.2,0.75,0.4,1.5,0.6,2.26
				c2.23-1.96,4.46-3.91,6.68-5.87c1.11-0.97-0.11-2.46-1.31-2.26c-3.21,0.55-6.43,0.95-9.67,1.21c0.32,0.77,0.64,1.54,0.95,2.3
				c2.48-2.66,4.24-5.87,5.1-9.41c0.41-1.69-2.19-2.41-2.6-0.72c-0.76,3.1-2.23,5.88-4.41,8.22c-0.74,0.79-0.27,2.4,0.95,2.3
				c3.48-0.28,6.95-0.71,10.39-1.31c-0.44-0.75-0.88-1.5-1.31-2.26c-2.23,1.96-4.46,3.91-6.68,5.87c-0.75,0.66-0.36,2.04,0.6,2.26
				c2.43,0.55,4.87,1.1,7.3,1.65c0-0.87,0-1.74,0-2.6c-1.97,0.69-3.94,1.38-5.91,2.08c-0.91,0.32-1.39,1.52-0.6,2.26
				c1.77,1.63,3.21,3.48,4.37,5.59c0.51-0.66,1.02-1.32,1.52-1.98c-12.37-4.81-24.51-10.17-36.4-16.07
				c-0.23,0.84-0.45,1.68-0.68,2.52c8.75,1.02,17.48,2.23,26.18,3.64C221.9,105.73,222.63,103.13,220.92,102.86L220.92,102.86z"/>
		</g>
	</g>
	<g>
		<g>
			<path class="st6" d="M194.01,47.81c4.17-1.06,8.66-1.98,12.98-1.85c1.97,0.06,3.48,0.69,4.42,2.49c0.94,1.79,1.47,3.88,1.92,5.83
				c0.99,4.29,1.35,8.71,1.65,13.09c0.31,4.59,0.43,9.19,0.38,13.78c-0.02,1.74,2.68,1.74,2.7,0c0.06-5.09-0.1-10.18-0.49-15.26
				c-0.38-4.89-0.84-9.86-2.23-14.59c-0.59-2-1.27-4.22-2.68-5.81c-1.32-1.48-3.18-2.07-5.1-2.21c-2.25-0.17-4.57,0.16-6.79,0.46
				c-2.52,0.34-5.01,0.83-7.47,1.45C191.61,45.63,192.33,48.24,194.01,47.81L194.01,47.81z"/>
		</g>
	</g>
	<g>
		<g>
			<path class="st6" d="M217.68,81.36c2.09-0.08,4.18-0.15,6.27-0.23c-0.23-0.84-0.45-1.68-0.68-2.52
				c-1.08,0.78-2.21,1.48-3.38,2.12c-0.62,0.34-0.87,1.25-0.48,1.85c0.41,0.63,1.18,0.84,1.85,0.48c1.17-0.63,2.3-1.34,3.38-2.12
				c0.47-0.34,0.82-0.92,0.62-1.52c-0.18-0.55-0.69-1.01-1.3-0.99c-2.09,0.08-4.18,0.15-6.27,0.23c-0.7,0.03-1.38,0.6-1.35,1.35
				C216.36,80.72,216.92,81.39,217.68,81.36L217.68,81.36z"/>
		</g>
	</g>
	<g>
		<g>
			<path class="st6" d="M216.59,57.73c1.41-0.56,2.83-1.12,4.24-1.68c-0.51-0.66-1.02-1.32-1.52-1.98
				c-0.47,1.05-1.06,2.05-1.74,2.98c-0.04,0.05-0.07,0.1-0.11,0.15c-0.15,0.2,0.12-0.14,0.01-0.01c-0.09,0.11-0.18,0.22-0.26,0.33
				c-0.18,0.22-0.36,0.43-0.56,0.63c-0.4,0.44-0.83,0.85-1.28,1.23c-0.53,0.46-0.51,1.44,0,1.91c0.57,0.52,1.34,0.5,1.91,0
				c1.85-1.6,3.36-3.63,4.36-5.86c0.23-0.51,0.25-1.03-0.11-1.5c-0.3-0.39-0.92-0.68-1.42-0.48c-1.41,0.56-2.83,1.12-4.24,1.68
				c-0.34,0.13-0.62,0.29-0.81,0.62c-0.17,0.29-0.24,0.72-0.14,1.04C215.14,57.42,215.89,58.01,216.59,57.73L216.59,57.73z"/>
		</g>
	</g>
	<g>
		<g>
			<path class="st6" d="M216.83,69.01c1.12-0.4,2.24-0.81,3.36-1.21c0.34-0.12,0.62-0.3,0.81-0.62c0.17-0.29,0.24-0.72,0.14-1.04
				c-0.11-0.33-0.31-0.64-0.62-0.81c-0.31-0.16-0.7-0.26-1.04-0.14c-1.12,0.4-2.24,0.81-3.36,1.21c-0.34,0.12-0.62,0.3-0.81,0.62
				c-0.17,0.29-0.24,0.72-0.14,1.04c0.11,0.33,0.31,0.64,0.62,0.81C216.1,69.03,216.49,69.13,216.83,69.01L216.83,69.01z"/>
		</g>
	</g>
	<g>
		<g>
			<path class="st6" d="M61.69,44.39c-2.93-0.94-6.02-1.3-9.07-1.56c-2.01-0.17-4.02-0.07-5.77,1.03
				c-3.96,2.48-4.88,8.09-5.75,12.27c-2.48,11.9-3.25,24.02-1.59,36.09c0.9,6.52,2.45,12.92,4.33,19.21c0.5,1.66,3.1,0.95,2.6-0.72
				c-3.07-10.27-5.15-20.78-5.17-31.54c-0.01-5.77,0.51-11.53,1.46-17.21c0.5-2.98,1.06-5.98,1.82-8.9
				c0.51-1.95,1.11-4.05,2.37-5.67c1.15-1.49,2.78-2.02,4.62-1.94c3.16,0.14,6.42,0.57,9.44,1.54
				C62.63,47.53,63.34,44.92,61.69,44.39L61.69,44.39z"/>
		</g>
	</g>
	<g>
		<g>
			<path class="st6" d="M43.88,110.65c-2.16,2.81-3.13,6.26-3.82,9.68c-0.82,4.07-1.45,8.19-1.99,12.31
				c-1.11,8.45-1.75,16.94-2.39,25.44c0.88-0.12,1.77-0.24,2.65-0.36c-2.52-10.61-3.48-21.51-2.9-32.4c0.09-1.74-2.61-1.73-2.7,0
				c-0.59,11.12,0.43,22.28,3,33.11c0.37,1.55,2.54,1.09,2.65-0.36c0.61-8.17,1.23-16.34,2.27-24.46c0.52-4.07,1.15-8.14,1.94-12.16
				c0.66-3.35,1.51-6.68,3.63-9.43C47.27,110.64,44.92,109.29,43.88,110.65L43.88,110.65z"/>
		</g>
	</g>
	<g>
		<g>
			<path class="st6" d="M36.05,102.86c-0.92,4.9,1.16,9.97,5.28,12.79c0.6,0.41,1.5,0.11,1.85-0.48c0.39-0.67,0.12-1.43-0.48-1.85
				c-3.08-2.11-4.71-6.17-4.04-9.74c0.13-0.72-0.2-1.46-0.94-1.66C37.06,101.74,36.19,102.14,36.05,102.86L36.05,102.86z"/>
		</g>
	</g>
	<g>
		<g>
			<path class="st6" d="M38.54,89.73C36.45,92.76,34,95.74,32.28,99c-1.47,2.79-1.82,6.06-1.42,9.16c0.74,5.85,4.2,11.19,9.3,14.18
				c1.5,0.88,2.86-1.45,1.36-2.33c-4.47-2.62-7.55-7.41-8.04-12.58c-0.27-2.81,0.18-5.59,1.68-8.01c1.77-2.86,3.81-5.57,5.72-8.33
				C41.87,89.66,39.53,88.31,38.54,89.73L38.54,89.73z"/>
		</g>
	</g>
	<g>
		<g>
			<path class="st6" d="M32.15,113.56c0.29,5,0.27,10.01-0.1,15.01c-0.22,2.98-0.56,5.4-1.59,8.27c-1.04,2.9-2.35,5.71-3.94,8.35
				c-1.4,2.31-3.12,4.84-5.61,6.08c-1.56,0.77-0.19,3.1,1.36,2.33c4.29-2.13,6.97-7.28,8.9-11.43c1.02-2.2,1.94-4.47,2.61-6.8
				c0.73-2.52,0.87-5.16,1.04-7.77c0.31-4.67,0.31-9.36,0.03-14.04C34.75,111.83,32.05,111.82,32.15,113.56L32.15,113.56z"/>
		</g>
	</g>
	<g>
		<g>
			<path class="st6" d="M206.28,106c-3.12-0.79-6.28-1.36-9.48-1.74c-1.16-0.14-1.78,1.57-0.95,2.3
				c9.59,8.57,21.19,14.7,33.69,17.73c1.69,0.41,2.41-2.19,0.72-2.6c-12.04-2.92-23.25-8.78-32.5-17.04
				c-0.32,0.77-0.64,1.54-0.95,2.3c2.95,0.35,5.88,0.91,8.76,1.64C207.25,109.03,207.97,106.43,206.28,106L206.28,106z"/>
		</g>
	</g>
	<g>
		<g>
			<path class="st6" d="M221.63,131.39c2.07,9.07,4.42,18.08,7.05,27.01c2.04,6.91,4.25,14.53,10.59,18.74
				c0.23-0.84,0.45-1.68,0.68-2.52c-2.69-0.13-5.25-1.12-7.31-2.85c-1.32-1.11-3.24,0.79-1.91,1.91c2.63,2.22,5.77,3.48,9.22,3.64
				c1.42,0.07,1.73-1.82,0.68-2.52c-6.05-4.01-7.86-11.99-9.76-18.52c-2.47-8.47-4.67-17.01-6.64-25.61
				C223.85,128.98,221.25,129.7,221.63,131.39L221.63,131.39z"/>
		</g>
	</g>
	<g>
		<g>
			<path class="st6" d="M216.7,118.86c-0.96,12.93-0.76,25.9-1.71,38.83c-0.12,1.58,2.2,1.75,2.65,0.36
				c1.43-4.42,3.05-8.8,4.28-13.28c1.24-4.5,1.9-9.1,2.37-13.74c0.17-1.73-2.53-1.72-2.7,0c-0.45,4.5-1.13,8.95-2.35,13.31
				c-1.23,4.38-2.8,8.66-4.2,12.99c0.88,0.12,1.77,0.24,2.65,0.36c0.96-12.93,0.76-25.9,1.71-38.83
				C219.53,117.13,216.82,117.14,216.7,118.86L216.7,118.86z"/>
		</g>
	</g>
	<g>
		<g>
			<path class="st6" d="M224.26,122.75c3.14,4.78,6.29,9.56,9.43,14.34c0.71-0.55,1.41-1.09,2.12-1.64
				c-2.28-1.88-5.16-2.69-7.8-3.92c-1.08-0.5-2.23,0.32-1.98,1.52c1.25,6.04,2.53,12.28,0.92,18.37c-0.44,1.68,2.16,2.4,2.6,0.72
				c1.73-6.58,0.42-13.29-0.92-19.81c-0.66,0.51-1.32,1.02-1.98,1.52c2.38,1.1,5.2,1.8,7.25,3.5c1.1,0.91,3.03-0.26,2.12-1.64
				c-3.14-4.78-6.29-9.56-9.43-14.34C225.64,119.94,223.31,121.29,224.26,122.75L224.26,122.75z"/>
		</g>
	</g>
	<g>
		<g>
			<path class="st6" d="M39.23,71.21c-7.09,5.3-16.44,6.85-24.85,4.05c-1.38-0.46-2.12,1.31-1.31,2.26c5.98,7,15.84,6.33,24.07,5.21
				c-0.24-0.87-0.48-1.74-0.72-2.6c-3.24,0.98-6.52,1.9-9.91,2.09c-4.04,0.22-7.99-0.52-11.88-1.57c-1.28-0.34-2.3,1.31-1.31,2.26
				c6.8,6.5,16.9,9,25.94,6.34c1.66-0.49,0.96-3.09-0.72-2.6c-8.12,2.38-17.19,0.2-23.31-5.65c-0.44,0.75-0.88,1.5-1.31,2.26
				c4.1,1.1,8.34,1.9,12.6,1.66c3.64-0.2,7.16-1.13,10.63-2.19c1.71-0.52,0.95-2.83-0.72-2.6c-7.3,1-16.14,1.7-21.44-4.52
				c-0.44,0.75-0.88,1.5-1.31,2.26c9.01,3,19.32,1.36,26.93-4.33C41.97,72.52,40.62,70.17,39.23,71.21L39.23,71.21z"/>
		</g>
	</g>
	<g>
		<g>
			<path class="st6" d="M32.75,136.89c-3.24,6.69-5.16,13.65-6.39,20.97c-0.58,3.48-1.28,6.97-3.03,10.08
				c-1.58,2.81-3.8,5.19-6.47,6.98c-1.03,0.69-0.75,2.61,0.68,2.52c3.41-0.22,6.66-1.35,9.4-3.42c1.37-1.03,0.03-3.38-1.36-2.33
				c-2.36,1.78-5.08,2.86-8.03,3.05c0.23,0.84,0.45,1.68,0.68,2.52c5.94-3.98,9.15-9.95,10.43-16.87c0.7-3.78,1.25-7.55,2.29-11.26
				c1.05-3.74,2.44-7.37,4.14-10.87C35.84,136.7,33.51,135.33,32.75,136.89L32.75,136.89z"/>
		</g>
	</g>
	<g>
		<g>
			<path class="st6" d="M27.33,179.34c-0.56,0.03-1.13,0.03-1.69-0.03c-0.07-0.01-0.14-0.02-0.21-0.02c-0.17-0.02,0.26,0.04,0,0
				c-0.14-0.02-0.27-0.05-0.41-0.07c-0.29-0.06-0.58-0.13-0.86-0.21c-0.27-0.08-0.52-0.18-0.78-0.27c-0.18-0.06,0.21,0.1,0.04,0.02
				c-0.06-0.03-0.13-0.06-0.19-0.09c-0.14-0.07-0.28-0.13-0.41-0.21c-0.24-0.13-0.47-0.27-0.69-0.43c-0.03-0.02-0.27-0.19-0.11-0.07
				c0.14,0.11-0.03-0.03-0.06-0.05c-0.12-0.1-0.23-0.2-0.34-0.3c-0.32,0.77-0.64,1.54-0.95,2.3c2.24-0.19,4.51-0.7,6.35-2.05
				c0.57-0.42,0.91-1.19,0.48-1.85c-0.36-0.56-1.24-0.93-1.85-0.48c-0.39,0.29-0.81,0.55-1.24,0.76c-0.1,0.05-0.2,0.09-0.3,0.14
				c-0.14,0.06-0.13,0.06,0.02,0c-0.05,0.02-0.1,0.04-0.15,0.06c-0.22,0.09-0.45,0.17-0.68,0.24c-0.46,0.14-0.93,0.25-1.41,0.34
				c-0.11,0.02-0.22,0.04-0.33,0.06c-0.05,0.01-0.42,0.08-0.09,0.01c-0.26,0.05-0.53,0.06-0.79,0.08c-0.55,0.05-1.01,0.3-1.23,0.83
				c-0.2,0.48-0.12,1.1,0.28,1.47c2.01,1.9,4.9,2.69,7.63,2.53c0.7-0.04,1.38-0.59,1.35-1.35C28.65,180,28.09,179.3,27.33,179.34
				L27.33,179.34z"/>
		</g>
	</g>
	<g>
		<g>
			<path class="st6" d="M231.01,178.59c1.84,0.29,3.7,0.53,5.55,0.69c-0.23-0.84-0.45-1.68-0.68-2.52c-0.94,0.49-1.9,0.95-2.87,1.38
				c-0.12,0.05-0.24,0.1-0.36,0.16c-0.07,0.03-0.14,0.06-0.21,0.09c0.13-0.06,0.16-0.07,0.07-0.03c-0.24,0.1-0.48,0.2-0.72,0.3
				c-0.5,0.2-1.01,0.39-1.51,0.57c-0.66,0.24-1.18,0.93-0.94,1.66c0.21,0.65,0.95,1.2,1.66,0.94c2.14-0.77,4.23-1.68,6.25-2.74
				c0.51-0.26,0.8-0.98,0.62-1.52c-0.2-0.6-0.68-0.94-1.3-0.99c-0.85-0.07-1.7-0.16-2.55-0.27c-0.19-0.02-0.38-0.05-0.58-0.07
				c-0.39-0.05,0.28,0.04-0.1-0.01c-0.12-0.02-0.23-0.03-0.35-0.05c-0.42-0.06-0.84-0.12-1.27-0.19c-0.37-0.06-0.7-0.06-1.04,0.14
				c-0.28,0.16-0.55,0.48-0.62,0.81C229.92,177.58,230.27,178.48,231.01,178.59L231.01,178.59z"/>
		</g>
	</g>
	<g>
		<g>
			<path class="st6" d="M112.86,211.89c4.62,2.5,10.2,3.05,15.36,3.15c5.83,0.11,11.39-0.84,16.97-2.47
				c1.66-0.49,0.96-3.09-0.72-2.6c-5.24,1.53-10.41,2.45-15.89,2.38c-4.79-0.06-10.08-0.47-14.37-2.79
				C112.69,208.73,111.33,211.06,112.86,211.89L112.86,211.89z"/>
		</g>
	</g>
	<g>
		<g>
			<path class="st6" d="M25.17,184.38c6.13,10.47,15,19.54,24.13,27.4c14.4,12.39,30.83,21.82,48.57,28.54
				c4.87,1.84,9.81,3.53,14.52,5.78c4.58,2.18,8.74,4.57,11.99,8.56c1.1,1.35,3-0.57,1.91-1.91c-5.55-6.81-14.26-9.99-22.25-12.99
				c-9.67-3.63-19.15-7.45-28.16-12.56c-14.09-7.98-27.06-18.15-37.88-30.22c-3.88-4.33-7.56-8.93-10.51-13.96
				C26.62,181.51,24.29,182.87,25.17,184.38L25.17,184.38z"/>
		</g>
	</g>
	<g>
		<g>
			<path class="st6" d="M229.17,183.01c-6.05,10.32-14.82,19.22-23.84,26.97c-6.54,5.62-13.56,10.67-20.95,15.11
				c-8.77,5.28-18.01,9.5-27.59,13.1c-4.72,1.77-9.5,3.44-14.04,5.64c-4.46,2.17-8.24,5.04-11.37,8.91
				c-1.08,1.34,0.81,3.26,1.91,1.91c2.81-3.47,6.1-6.12,10.08-8.12c4.01-2.01,8.25-3.54,12.45-5.1c9.59-3.58,18.92-7.59,27.79-12.74
				c13.87-8.05,26.69-18.23,37.35-30.23c3.89-4.38,7.59-9.02,10.55-14.09C232.38,182.87,230.05,181.51,229.17,183.01L229.17,183.01z
				"/>
		</g>
	</g>
	<g>
		<g>
			<path class="st6" d="M104.19,213.92c4.29-0.57,8.52-1.51,12.71-2.59c3.97-1.02,8.04-2.09,11.76-3.86c1.46-0.7,1.84-2.79,1.08-4.1
				c-0.88-1.5-2.64-1.77-4.1-1.08c-0.16,0.08-0.33,0.15-0.49,0.23c-0.49,0.24,0.44-0.15,0.07-0.03c-0.39,0.13-0.77,0.3-1.15,0.44
				c-0.81,0.3-1.63,0.57-2.46,0.83c-2.08,0.66-4.18,1.24-6.29,1.78c-2.11,0.54-4.23,1.04-6.36,1.49c-0.95,0.2-1.9,0.39-2.85,0.56
				c-0.4,0.07-0.81,0.14-1.21,0.21c-0.27,0.04-1.61,0.23-0.7,0.11c-1.61,0.21-3,1.23-3,3C101.19,212.38,102.57,214.14,104.19,213.92
				L104.19,213.92z"/>
		</g>
	</g>
	<g>
		<g>
			<path class="st6" d="M154.83,207.92c-0.72-0.09,0.71,0.12-0.05-0.01c-0.19-0.03-0.38-0.06-0.57-0.09
				c-0.46-0.07-0.91-0.15-1.37-0.23c-0.93-0.16-1.86-0.34-2.79-0.53c-2.24-0.46-4.48-0.96-6.7-1.52c-2.13-0.53-4.25-1.1-6.34-1.74
				c-0.9-0.27-1.79-0.56-2.67-0.87c-0.36-0.13-0.72-0.27-1.09-0.4c-0.15-0.06-0.82-0.37-0.05-0.01c-0.17-0.08-0.34-0.15-0.51-0.23
				c-1.47-0.68-3.23-0.42-4.1,1.08c-0.76,1.29-0.4,3.42,1.08,4.1c3.84,1.77,8,2.84,12.09,3.86c4.31,1.07,8.66,2.02,13.07,2.59
				c1.61,0.21,3-1.53,3-3C157.83,209.13,156.45,208.13,154.83,207.92L154.83,207.92z"/>
		</g>
	</g>
	<path class="st6" d="M131.12,205.19l9.36-12c0,0,4.16-8-2.08-11c0,0-1.04-2-9.36-2h-0.72c-8.32,0-9.36,2-9.36,2
		c-6.24,3-2.08,11-2.08,11l9.36,12"/>
	<path class="st5" d="M126.74,184.67c-0.05-0.2-0.14-0.4-0.23-0.59c-0.12-0.28-0.31-0.51-0.51-0.74c-0.06-0.07-0.13-0.14-0.21-0.21
		c-0.16-0.14-0.34-0.28-0.53-0.39c-0.41-0.24-0.79-0.32-1.25-0.38c-0.22-0.03-0.44-0.01-0.65,0.03c-0.03-0.01-0.05-0.02-0.08-0.03
		c-0.37-0.08-0.84-0.08-1.16,0.15c-0.16,0.12-0.34,0.24-0.48,0.38c-0.15,0.14-0.27,0.31-0.39,0.48c-0.17,0.24-0.28,0.52-0.39,0.79
		c-0.1,0.27-0.13,0.58-0.16,0.87c-0.03,0.3,0.02,0.59,0.06,0.88c0.05,0.29,0.17,0.56,0.29,0.83c0.12,0.26,0.31,0.5,0.51,0.71
		c0.19,0.2,0.42,0.38,0.67,0.51c0.25,0.13,0.52,0.25,0.8,0.29c0.57,0.1,1.16,0.11,1.71-0.09c0.26-0.1,0.54-0.21,0.77-0.37
		c0.3-0.22,0.51-0.4,0.73-0.69c0.39-0.5,0.64-1.16,0.58-1.8C126.82,185.1,126.79,184.88,126.74,184.67z"/>
	<g>
		<g>
			<path class="st6" d="M202.71,118.88c3.26,4.53,8.43,7.36,14.01,7.63c1.74,0.08,1.73-2.62,0-2.7c-4.56-0.21-9-2.58-11.68-6.29
				c-0.43-0.59-1.17-0.88-1.85-0.48C202.61,117.38,202.28,118.29,202.71,118.88L202.71,118.88z"/>
		</g>
	</g>
	<path class="st6" d="M86.33,167.69c0,0-16.5-0.5-16.5-9.5s12-9,20.5-7.5c6.96,1.23,13,4,13,8
		C103.33,164.69,98.33,167.69,86.33,167.69z"/>
	<path class="st6" d="M171.09,167.69c0,0,16.75-0.5,16.75-9.5s-12.18-9-20.81-7.5c-7.07,1.23-13.19,4-13.19,8
		C153.83,164.69,158.91,167.69,171.09,167.69z"/>
	<path class="st5" d="M81.23,153.35c-0.05-0.2-0.14-0.37-0.27-0.51c-0.11-0.16-0.25-0.29-0.42-0.39c-0.12-0.05-0.24-0.1-0.36-0.15
		c-0.06-0.02-0.12-0.02-0.18-0.02c-0.18-0.09-0.37-0.14-0.57-0.13c-0.21-0.01-0.4,0.04-0.58,0.13c-0.04,0.01-0.08,0.04-0.13,0.06
		c-0.11,0.04-0.22,0.09-0.33,0.14c-0.26,0.15-0.52,0.41-0.67,0.67c-0.16,0.28-0.26,0.61-0.25,0.93c0,0.16,0.02,0.33,0.07,0.48
		c0.04,0.12,0.11,0.32,0.2,0.44c0.06,0.09,0.18,0.27,0.29,0.36c0.09,0.08,0.25,0.22,0.38,0.28c0.08,0.04,0.3,0.15,0.44,0.18
		c0.15,0.03,0.29,0.05,0.44,0.06c0.02,0,0.04,0,0.06,0c0.02,0,0.03,0,0.05,0c0.12-0.01,0.29-0.03,0.41-0.06c0.01,0,0.02,0,0.03-0.01
		c0.16-0.04,0.31-0.11,0.45-0.18c0.01-0.01,0.03-0.02,0.04-0.03c0.06-0.04,0.12-0.09,0.17-0.13c0.05-0.04,0.12-0.09,0.17-0.13
		c0.01-0.01,0.03-0.02,0.04-0.04c0.1-0.11,0.19-0.23,0.27-0.35c0.09-0.13,0.16-0.34,0.21-0.46c0.02-0.04,0.03-0.08,0.04-0.13
		c0.03-0.17,0.07-0.35,0.06-0.52C81.29,153.69,81.27,153.52,81.23,153.35z"/>
	<path class="st5" d="M169.23,153.35c-0.05-0.2-0.14-0.37-0.27-0.51c-0.11-0.16-0.25-0.29-0.42-0.39c-0.12-0.05-0.24-0.1-0.36-0.15
		c-0.06-0.02-0.12-0.02-0.18-0.02c-0.18-0.09-0.37-0.14-0.57-0.13c-0.21-0.01-0.4,0.04-0.58,0.13c-0.04,0.01-0.08,0.04-0.13,0.06
		c-0.11,0.04-0.22,0.09-0.33,0.14c-0.26,0.15-0.52,0.41-0.67,0.67c-0.16,0.28-0.26,0.61-0.25,0.93c0,0.16,0.02,0.33,0.07,0.48
		c0.04,0.12,0.11,0.32,0.2,0.44c0.06,0.09,0.18,0.27,0.29,0.36c0.09,0.08,0.25,0.22,0.38,0.28c0.08,0.04,0.3,0.15,0.44,0.18
		c0.15,0.03,0.29,0.05,0.44,0.06c0.02,0,0.04,0,0.06,0c0.02,0,0.03,0,0.05,0c0.12-0.01,0.29-0.03,0.41-0.06c0.01,0,0.02,0,0.03-0.01
		c0.16-0.04,0.31-0.11,0.45-0.18c0.01-0.01,0.03-0.02,0.04-0.03c0.06-0.04,0.12-0.09,0.17-0.13c0.05-0.04,0.12-0.09,0.17-0.13
		c0.01-0.01,0.03-0.02,0.04-0.04c0.1-0.11,0.19-0.23,0.27-0.35c0.09-0.13,0.16-0.34,0.21-0.46c0.02-0.04,0.03-0.08,0.04-0.13
		c0.03-0.17,0.07-0.35,0.06-0.52C169.29,153.69,169.27,153.52,169.23,153.35z"/>
	<path class="st5" d="M67.83,139.19c0,0,6-2,18.97,6.24c1.02,0.65,2.02,1.31,3.15,1.76c3.26,1.28,9.6,2.72,13.89-3c0,0,5-9-8-13
		S70.83,136.19,67.83,139.19z"/>
	<path class="st5" d="M179.39,129.49c0,0-6.28-0.75-17.32,9.93c-0.87,0.84-1.72,1.69-2.73,2.35c-2.94,1.91-8.85,4.59-14.21-0.15
		c0,0-6.71-7.81,5.23-14.34C162.28,120.74,175.85,127.15,179.39,129.49z"/>
	<path class="st6" d="M129.95,252.17c-0.5-0.92-1.21-1.67-2.05-2.29c-0.27-0.19-0.74-0.22-1.04-0.14c-0.31,0.09-0.65,0.33-0.81,0.62
		c-0.17,0.31-0.25,0.69-0.14,1.04c0.11,0.34,0.31,0.57,0.6,0.78c-0.03-0.02-0.06-0.05-0.1-0.07c0.3,0.24,0.57,0.51,0.82,0.81
		c0.21,0.29,0.38,0.59,0.53,0.91c0.13,0.34,0.23,0.68,0.29,1.04c0.01,0.09,0.02,0.18,0.02,0.28c0.03,0.7,0.6,1.38,1.35,1.35
		c0.7-0.03,1.38-0.59,1.35-1.35C130.72,254.1,130.45,253.09,129.95,252.17z"/>
	<path class="st7" d="M134.21,224.76c-0.63-0.81-1.86-1.14-2.83-1.35c-0.64-0.14-1.3-0.21-1.95-0.22c-0.17-0.08-0.35-0.12-0.55-0.12
		c-1.08,0-2.19,0.17-3.19,0.55c-0.59,0.22-1.15,0.51-1.49,1.07c-0.35,0.59-0.39,1.36-0.03,1.95c0.35,0.57,0.93,0.78,1.52,1
		c0.51,0.19,1.02,0.37,1.54,0.52c1.02,0.31,2.09,0.53,3.15,0.56c1.02,0.03,2.25-0.09,3.12-0.68
		C134.57,227.33,135.04,225.84,134.21,224.76z"/>
</g>
</svg>
