<svg id="Layer_1" data-name="Layer 1" xmlns="http://www.w3.org/2000/svg" viewBox="0 0 800 800"><defs><style>.cls-1{fill:#039;}.cls-2{fill:#fc0;}</style></defs><rect class="cls-1" width="800" height="800" rx="400"/><polygon class="cls-2" points="400 39.77 388.29 75.83 350.38 75.83 381.05 98.11 369.33 134.16 400 111.88 430.67 134.16 418.95 98.11 449.62 75.83 411.71 75.83 400 39.77"/><polygon class="cls-2" points="411.71 701.89 400 665.85 388.29 701.89 350.38 701.89 381.05 724.17 369.33 760.23 400 737.95 430.67 760.23 418.95 724.17 449.62 701.89 411.71 701.89"/><polygon class="cls-2" points="86.97 424.91 117.63 447.19 105.92 411.14 136.58 388.86 98.68 388.86 86.97 352.81 75.25 388.86 37.35 388.86 68.01 411.14 56.3 447.19 86.97 424.91"/><polygon class="cls-2" points="243.48 81.71 231.77 117.76 193.86 117.76 224.53 140.04 212.82 176.09 243.48 153.81 274.15 176.09 262.44 140.04 293.1 117.76 255.2 117.76 243.48 81.71"/><polygon class="cls-2" points="128.9 196.29 117.19 232.34 79.28 232.34 109.95 254.62 98.24 290.67 128.9 268.39 159.57 290.67 147.86 254.62 178.52 232.34 140.62 232.34 128.9 196.29"/><polygon class="cls-2" points="140.62 545.38 128.9 509.33 117.19 545.38 79.28 545.38 109.95 567.66 98.24 603.71 128.9 581.43 159.57 603.71 147.86 567.66 178.52 545.38 140.62 545.38"/><polygon class="cls-2" points="255.2 659.96 243.48 623.91 231.77 659.96 193.86 659.96 224.53 682.24 212.82 718.29 243.48 696.01 274.15 718.29 262.44 682.24 293.1 659.96 255.2 659.96"/><polygon class="cls-2" points="762.65 388.86 724.75 388.86 713.03 352.81 701.32 388.86 663.42 388.86 694.08 411.14 682.37 447.19 713.03 424.91 743.7 447.19 731.99 411.14 762.65 388.86"/><polygon class="cls-2" points="556.52 81.71 544.8 117.76 506.9 117.76 537.57 140.04 525.85 176.09 556.52 153.81 587.18 176.09 575.47 140.04 606.14 117.76 568.23 117.76 556.52 81.71"/><polygon class="cls-2" points="640.43 290.67 671.1 268.39 701.76 290.67 690.05 254.62 720.72 232.34 682.81 232.34 671.1 196.29 659.38 232.34 621.48 232.34 652.14 254.62 640.43 290.67"/><polygon class="cls-2" points="682.81 545.38 671.1 509.33 659.38 545.38 621.48 545.38 652.14 567.66 640.43 603.71 671.1 581.43 701.76 603.71 690.05 567.66 720.72 545.38 682.81 545.38"/><polygon class="cls-2" points="568.23 659.96 556.52 623.91 544.8 659.96 506.9 659.96 537.57 682.24 525.85 718.29 556.52 696.01 587.18 718.29 575.47 682.24 606.14 659.96 568.23 659.96"/><path class="cls-2" d="M543.52,364.82C533.1,297,475.62,247,403.9,247c-73.24,0-133,49.38-147.91,117.86H192.18v51.12h61.11C261.62,495,326,553,405.11,553c60.73,0,110-24,131.68-63.74L483.27,455c-13.82,22.84-43.89,37.27-77,37.27-47.5,0-80-28.86-87.19-76.36H591l16.87-51.12ZM400.29,302.28c40.29,0,71,25.85,74.57,62.54H321.51C331.74,326.33,360,302.28,400.29,302.28Z"/></svg>