<svg width="230" height="230" viewBox="0 0 230 230" fill="none" xmlns="http://www.w3.org/2000/svg">
<path fill-rule="evenodd" clip-rule="evenodd" d="M115 205.88C165.192 205.88 205.88 165.192 205.88 115C205.88 64.8081 165.192 24.1195 115 24.1195C64.8081 24.1195 24.1195 64.8081 24.1195 115C24.1195 165.192 64.8081 205.88 115 205.88ZM115 215.625C170.574 215.625 215.625 170.574 215.625 115C215.625 59.4263 170.574 14.375 115 14.375C59.4263 14.375 14.375 59.4263 14.375 115C14.375 170.574 59.4263 215.625 115 215.625Z" fill="url(#paint0_linear_5968_76293)"/>
<path fill-rule="evenodd" clip-rule="evenodd" d="M173.839 125.916C176.405 128.257 179.818 129.684 183.565 129.684C191.537 129.684 198 123.221 198 115.248C198 107.276 191.537 100.813 183.565 100.813C179.889 100.813 176.535 102.186 173.986 104.448L157.686 82.8991C156.527 81.3673 154.085 82.1867 154.085 84.1074V99.3692L130.617 110.565C126.823 112.376 126.814 117.775 130.603 119.597L154.085 130.892V146.137C154.085 148.06 156.53 148.878 157.687 147.343L173.839 125.916Z" fill="url(#paint1_linear_5968_76293)"/>
<path fill-rule="evenodd" clip-rule="evenodd" d="M104.103 173.796C101.749 176.353 100.307 179.763 100.292 183.513C100.261 191.485 106.699 197.973 114.672 198.004C122.644 198.034 129.132 191.597 129.163 183.624C129.177 179.951 127.818 176.593 125.569 174.037L147.189 157.813C148.725 156.66 147.915 154.215 145.994 154.208L130.732 154.149L119.627 130.638C117.831 126.836 112.433 126.807 110.595 130.589L99.21 154.027L83.9648 153.968C82.0425 153.961 81.2147 156.403 82.7453 157.566L104.103 173.796Z" fill="url(#paint2_linear_5968_76293)"/>
<path fill-rule="evenodd" clip-rule="evenodd" d="M56.5035 103.886C53.9553 101.523 50.5512 100.067 46.8022 100.039C38.83 99.977 32.3173 106.39 32.2558 114.362C32.1942 122.334 38.6071 128.847 46.5793 128.909C50.2524 128.937 53.6156 127.591 56.1808 125.351L72.3201 147.033C73.4669 148.573 75.9147 147.773 75.9296 145.852L76.0474 130.591L99.601 119.576C103.41 117.795 103.46 112.397 99.6851 110.545L76.291 99.0691L76.4087 83.8243C76.4235 81.902 73.9848 81.0648 72.8159 82.5908L56.5035 103.886Z" fill="url(#paint3_linear_5968_76293)"/>
<path fill-rule="evenodd" clip-rule="evenodd" d="M126.605 56.5439C128.979 54.0045 130.449 50.6047 130.493 46.8543C130.585 38.8823 124.197 32.345 116.225 32.2526C108.253 32.1603 101.716 38.548 101.624 46.52C101.581 50.1945 102.915 53.5642 105.147 56.1385L83.4002 72.1963C81.8552 73.3372 82.6463 75.788 84.5668 75.8103L99.8276 75.987L110.751 99.583C112.518 103.399 117.916 103.47 119.782 99.702L131.348 76.3523L146.592 76.5289C148.515 76.5511 149.361 74.1157 147.84 72.9408L126.605 56.5439Z" fill="url(#paint4_linear_5968_76293)"/>
<defs>
<linearGradient id="paint0_linear_5968_76293" x1="126.931" y1="-20.9491" x2="97.6539" y2="248.973" gradientUnits="userSpaceOnUse">
<stop stop-color="#FFC85F"/>
<stop offset="1" stop-color="#DF2D62"/>
</linearGradient>
<linearGradient id="paint1_linear_5968_76293" x1="210.328" y1="119.038" x2="116.272" y2="108.189" gradientUnits="userSpaceOnUse">
<stop stop-color="#FFC85F"/>
<stop offset="1" stop-color="#DF2D62"/>
</linearGradient>
<linearGradient id="paint2_linear_5968_76293" x1="110.847" y1="210.317" x2="122.06" y2="116.301" gradientUnits="userSpaceOnUse">
<stop stop-color="#FFC85F"/>
<stop offset="1" stop-color="#DF2D62"/>
</linearGradient>
<linearGradient id="paint3_linear_5968_76293" x1="19.9575" y1="110.489" x2="113.928" y2="122.064" gradientUnits="userSpaceOnUse">
<stop stop-color="#FFC85F"/>
<stop offset="1" stop-color="#DF2D62"/>
</linearGradient>
<linearGradient id="paint4_linear_5968_76293" x1="120.146" y1="19.9684" x2="108.206" y2="113.901" gradientUnits="userSpaceOnUse">
<stop stop-color="#FFC85F"/>
<stop offset="1" stop-color="#DF2D62"/>
</linearGradient>
</defs>
</svg>
