<svg id="Layer_1" data-name="Layer 1" xmlns="http://www.w3.org/2000/svg" viewBox="0 0 13864.97 13859.74"><defs><style>.cls-1{fill:#fff;}</style></defs><path d="M13865,7306.35c-7.87,71.83-17.52,143.52-23.33,215.51-55.26,685.61-214.7,1346.57-469.74,1984.75-310.42,776.74-750.27,1473-1312.55,2091.3q-746.42,820.72-1713.29,1367.51c-704.79,400.24-1457.8,664.72-2255.87,802.15-475.33,81.85-954.3,103.68-1435.89,86.9-872.76-30.42-1707.91-225.45-2506.61-575q-1001.38-438.32-1818-1167.52c-720.76-643.31-1287.75-1401.59-1693.27-2278.76-316.23-684-512-1401.74-595.85-2151-42.7-381.39-50.93-764-28.1-1145.26,92-1536.24,636.2-2896.14,1622.76-4077,467.47-559.55,1014.3-1030.47,1632.92-1416.21q962.43-600.12,2067.31-862.1c382.56-89.9,770-151.29,1163.42-169.95C6510.36,11.05,6521.59,4,6533,0H7349c15.51,4.05,30.8,9.81,46.58,11.89,305.91,40.38,614.71,65.52,917.24,123.44C8948,256.94,9551,476.22,10125.54,774.61q1116.64,579.9,1958.89,1513.06,917.86,1020,1381.33,2314.33c200.48,563.28,327.47,1141.67,376,1737.51,4.8,58.89,15.3,117.31,23.16,175.94ZM269.06,6944.81c-9.46,3657.37,2966.81,6567.19,6481.7,6652.35,3845.79,93.16,6788.24-3001.58,6852.46-6517.43,70.36-3852.49-3037.58-6757.56-6532.43-6820.19C3277.9,191.57,232.6,3287.62,269.06,6944.81Z"/><path class="cls-1" d="M269.06,6944.81C232.6,3287.62,3277.9,191.57,7070.79,259.54c3494.85,62.63,6602.79,2967.7,6532.43,6820.19-64.22,3515.85-3006.67,6610.59-6852.46,6517.43C3235.87,13512,259.6,10602.18,269.06,6944.81Zm5182.83,3271.36c30.21,8.26,52.36,13,73.58,20.33,277.66,96.54,564.15,155.63,856.14,177.84,585.5,44.53,1155.36-31.43,1699.85-258.5q1326.42-553.16,1950.37-1849.74c151.11-313.75,251.29-644.09,304.61-987.38,29.32-188.78,52.77-378.06,52.31-571.31q-5.47-2325.12-2-4650.26c0-23,1.23-46.12-.35-69-7.88-114.47-129.75-246.59-250.39-246.19-652.71,2.17-1305.44.68-1958.16,2.11-31.78.07-66.47,10.25-94.77,25.22-99.41,52.58-146.28,136.44-145.81,250.45,1.53,374.44.62,748.89.4,1123.34,0,21.71-2.15,43.43-3.52,69.27-20-3.6-32.55-4.18-43.91-8.13-285.63-99.43-579.15-160.19-880.59-185.56-613.89-51.66-1207,35.89-1770.23,284.65-974.72,430.47-1648,1150.5-2018.61,2149.49C3102,5812.94,3020.87,6145.27,3020,6487.73c-4.47,1652.59-2.1,3305.19-1.89,4957.79,0,128.64,101.68,229.08,231.45,229.13,654.81.27,1309.63.9,1964.43-1.66,42.78-.16,90.8-17.75,127.11-41.44,81.5-53.18,111.61-135.44,111.31-232.16-1.16-370.26-.47-740.53-.47-1110.79Z"/><path d="M5451.89,10216.17v72.43c0,370.26-.69,740.53.47,1110.79.3,96.72-29.81,179-111.31,232.16-36.31,23.69-84.33,41.28-127.11,41.44-654.8,2.56-1309.62,1.93-1964.43,1.66-129.77,0-231.43-100.49-231.45-229.13-.21-1652.6-2.58-3305.2,1.89-4957.79.92-342.46,82-674.79,200.82-994.95,370.64-999,1043.89-1719,2018.61-2149.49,563.26-248.76,1156.34-336.31,1770.23-284.65,301.44,25.37,595,86.13,880.59,185.56,11.36,4,23.88,4.53,43.91,8.13,1.37-25.84,3.51-47.56,3.52-69.27.22-374.45,1.13-748.9-.4-1123.34-.47-114,46.4-197.87,145.81-250.45,28.3-15,63-25.15,94.77-25.22,652.72-1.43,1305.45.06,1958.16-2.11,120.64-.4,242.51,131.72,250.39,246.19,1.58,22.9.35,46,.35,69q0,2325.13,2,4650.26c.46,193.25-23,382.53-52.31,571.31-53.32,343.29-153.5,673.63-304.61,987.38Q9408,9601.27,8081.46,10155.84c-544.49,227.07-1114.35,303-1699.85,258.5-292-22.21-578.48-81.3-856.14-177.84C5504.25,10229.13,5482.1,10224.43,5451.89,10216.17Zm1243.69-2250c681.52,4.68,1236.72-564.81,1231.55-1237.76-5-652.89-531.25-1223.79-1234.37-1223.36-705.76.44-1234.16,581.67-1231.44,1238.61C5464,7397.83,6008.19,7972.07,6695.58,7966.15Zm3417.27-5260.51c166,0,165.29-.5,158-167.32-1.89-43.14-23-61.8-60.38-63.1-66.47-2.32-133.51-4.77-199.37,2-21.21,2.17-56.19,32.89-56.44,50.94-2.14,153.39-32.15,184,145.73,177.5C10104.52,2705.5,10108.69,2705.64,10112.85,2705.64Zm-2-502.66c164,0,162.33,0,160.19-160.09-.61-45.61-20-67.83-61.05-69.58-64.72-2.76-130.07-5-194.25,1.51-22.52,2.27-60.31,30.43-60.67,47.42-3.45,160-31,187.83,143.23,180.76C10102.44,2202.83,10106.63,2203,10110.82,2203Zm.53,2003.89c186,1.49,155,3.21,159.17-157.9,1.27-49.24-23.63-68.74-67.49-69.76-60.53-1.42-121.16-1.63-181.68.06-43,1.19-68.3,20.36-70.26,69-6.39,158.66-7.54,158.61,154,158.59Zm1.17-1231.59c-167.42,0-166.92.67-161.53,160,1.52,44.81,21.68,67.54,63,69,66.76,2.3,134,4,200.31-2,19.65-1.79,52.58-30.2,52.78-46.73,2.07-169.94,32.73-184.6-148.26-180.26C10116.7,2975.32,10114.61,2975.28,10112.52,2975.28Zm-4,731.76c169.18,0,167.82.05,162.21-163.06-1.59-46.35-24-64.88-64.8-66-62.67-1.69-125.47-1.85-188.14,0-44.56,1.33-65.63,24.62-66.82,72.14-3.93,156.91-5.2,156.87,151.28,156.86Zm9.15,774.27c-174.95,0-176.31,2.37-166.67,166.79,2.35,40,21.78,58.61,57.43,59.66,68.92,2,138.23,4,206.74-1.72,19.33-1.61,52-29.84,52.16-46.14C10269.26,4483.33,10297.2,4477.48,10117.71,4481.31ZM8269.22,2200.15c185.89,1.82,153.26,1.28,158.18-158.45,1.44-46.9-20.47-65.58-61.68-66.57-64.53-1.54-129.58-4.36-193.46,2.35-21.73,2.28-57.67,31.23-58.14,48.76-4.2,157.85-26.49,180.06,142.6,173.93C8260.88,2200,8265.05,2200.15,8269.22,2200.15Zm1.09,502.4c187.8,2.1,151.75-2.32,156.91-160,1.53-46.7-20.52-65.21-62.48-65.88-62.54-1-125.67-4.92-187.39,2.29-23.61,2.76-62.5,32.26-63,50.46-4.36,156.8-27.69,178.82,143.46,173.12C8262,2702.43,8266.14,2702.55,8270.31,2702.55Zm-4.54,500.22c189.22.86,156.93,6.93,161.47-160.48,1.18-43.51-19.78-62.67-58.09-64-64.5-2.2-129.19-2.26-193.7-.09-40.43,1.37-63.11,21.67-65.13,66.91-6.94,155.28-5.8,157.64,149.2,157.64Zm-3124.48,7295.3v-.6c35.47,0,71.42,3.42,106.21-1.47,17.05-2.39,44.11-18.74,45.62-31.3,5.69-47.22,6.57-96,.64-143-1.76-13.94-31.29-33.54-49.08-34.65-66.52-4.13-133.75-5.14-200,.55-18.82,1.61-47.6,27.79-51,46.46-25.8,143.19-7.08,164,135.09,164Zm-3.08,501.4c173.6-2.27,159.91,27.89,160.08-154,0-38.75-18-58-56.85-57.86-64.62.15-129.24.66-193.85-.09-40.24-.47-56,20.49-56.33,58.06-1.45,184.52-7,151.52,140.7,153.93C5134,10999.5,5136.13,10999.48,5138.21,10999.47Zm10.37,290.05c-33.4,0-66.83.78-100.2-.21-35.88-1.06-60.23,15.76-55.52,50.83,7.2,53.68-32.24,117.72,32,159.56,4.65,3,12.22,2.13,18.44,2.15q100.2.25,200.4.18c35.64,0,54.12-17.15,54.33-53.45,1.06-179.69,12.64-159.1-143.16-159.17C5152.75,11289.41,5150.66,11289.41,5148.58,11289.52Zm-1841.91-2511c-33.34,0-66.7.49-100-.13-36-.67-59.22,17-53.7,52.14,8.33,53.19-32.7,117.19,32.15,158.42,4.74,3,12.2,2.35,18.4,2.36q100,.18,200.07,0c36-.08,50.39-18,52.82-54.25,10.61-158.19,11-158.64-143.45-158.64C3310.84,8778.35,3308.76,8778.35,3306.67,8778.48Zm-4.16,716.1c162.55,0,162.55,0,153.3-154.56-.12-2.08.8-5.05-.26-6.12-17.86-18-34.6-49-54.26-51-64-6.54-129.12-1.67-193.79-2.74-40.66-.67-53.75,20.26-56.34,57.8-10.82,156.72-11.45,156.67,145.09,156.64Zm-3.05,500.85c33.33,0,66.67-.14,100,0,34.12.18,61.13-12.94,55.17-50.27-8.58-53.64,32.34-117.85-31.87-159.91-4.68-3.07-12.16-2.53-18.34-2.54-66.66-.16-133.62-3.54-199.8,2.13-18.72,1.61-47.66,27.85-50.65,46.26-24.34,149.69-10.37,164.44,139.24,164.44C3295.3,9995.57,3297.38,9995.57,3299.46,9995.43Zm2.15,502.65c174.75-1.55,153.13,22.38,154.13-159.18.2-35.87-17.14-53.82-53.51-53.65-64.63.3-129.28,1.08-193.88-.34-40.31-.88-56.88,18.16-56.82,56.48.3,182.26-14.66,154.55,143.83,156.69C3297.44,10498.11,3299.53,10498.08,3301.61,10498.08Zm-3.81,501.39c176.62-2.27,156.7,26.13,158.24-154.47.33-39.31-17.57-57.56-56.37-57.41q-96.81.39-193.63-.06c-35.74-.21-51.44,16.31-54.81,52.45-14.34,154.18-10.35,159.5,140.32,159.49Zm3.65,290c-162.79,2.57-150.38-29.24-149.73,157.16,0,2.08-.77,5,.3,6.12,16.61,16.56,32.38,45.46,50.45,47,66.23,5.68,133.25,2.19,200,2.26,35.57,0,53.65-16,53.51-53.15-.72-181,16.58-158.65-148.25-159.4C3305.62,11289.41,3303.53,11289.42,3301.45,11289.42ZM10112.7,4984c-35.4,0-71.3-3.61-106.06,1.13-28.38,3.88-58.24,13.12-43.37,56.9,51.28,151,82.44,173.44,239.23,166.55q6.26-.29,12.49-.37c38.68-.5,53.76-19.56,55.63-58.64C10278.61,4983.16,10279.54,4983.21,10112.7,4984ZM3445.5,8487.63c-30.82-63.8-55.6-115.61-80.83-167.19-21.05-43-165.56-66.19-199.09-31.68-5.49,5.65-10.94,14.3-11.11,21.69-1.11,48-2.83,96.1.61,143.83.85,11.79,19.71,31.51,30.82,31.87C3268.21,8488.88,3350.65,8487.63,3445.5,8487.63Zm6717-2993.89c24,72.06,47.87,143.46,71.7,214.86l28.54-2.48c2.4-44.48,6.42-88.95,6.85-133.45C10270.42,5490.09,10251.4,5476,10162.52,5493.74Z"/><path class="cls-1" d="M6695.58,7966.15c-687.39,5.92-1231.55-568.32-1234.26-1222.51C5458.6,6086.7,5987,5505.47,6692.76,5505c703.12-.43,1229.35,570.47,1234.37,1223.36C7932.3,7401.34,7377.1,7970.83,6695.58,7966.15Z"/><path class="cls-1" d="M10112.85,2705.64c-4.16,0-8.33-.14-12.48,0-177.88,6.51-147.87-24.11-145.73-177.5.25-18.05,35.23-48.77,56.44-50.94,65.86-6.76,132.9-4.31,199.37-2,37.38,1.3,58.49,20,60.38,63.1C10278.14,2705.14,10278.87,2705.67,10112.85,2705.64Z"/><path class="cls-1" d="M10110.82,2203c-4.19,0-8.38-.15-12.55,0-174.26,7.07-146.68-20.8-143.23-180.76.36-17,38.15-45.15,60.67-47.42,64.18-6.47,129.53-4.27,194.25-1.51,41,1.75,60.44,24,61.05,69.58C10273.15,2203,10274.77,2203,10110.82,2203Z"/><path class="cls-1" d="M10111.35,4206.87h-6.26c-161.54,0-160.39.07-154-158.59,2-48.66,27.27-67.83,70.26-69,60.52-1.69,121.15-1.48,181.68-.06,43.86,1,68.76,20.52,67.49,69.76C10266.37,4210.08,10297.32,4208.36,10111.35,4206.87Z"/><path class="cls-1" d="M10112.52,2975.28c2.09,0,4.18,0,6.27,0,181-4.34,150.33,10.32,148.26,180.26-.2,16.53-33.13,44.94-52.78,46.73-66.31,6-133.55,4.31-200.31,2-41.29-1.43-61.45-24.16-63-69C9945.6,2976,9945.1,2975.26,10112.52,2975.28Z"/><path class="cls-1" d="M10108.56,3707h-6.27c-156.48,0-155.21.05-151.28-156.86,1.19-47.52,22.26-70.81,66.82-72.14,62.67-1.89,125.47-1.73,188.14,0,40.81,1.1,63.21,19.63,64.8,66C10276.38,3707.09,10277.74,3707,10108.56,3707Z"/><path class="cls-1" d="M10117.71,4481.31c179.49-3.83,151.55,2,149.66,178.59-.18,16.3-32.83,44.53-52.16,46.14-68.51,5.72-137.82,3.74-206.74,1.72-35.65-1.05-55.08-19.65-57.43-59.66C9941.4,4483.68,9942.76,4481.34,10117.71,4481.31Z"/><path class="cls-1" d="M8269.22,2200.15c-4.17,0-8.34-.13-12.5,0-169.09,6.13-146.8-16.08-142.6-173.93.47-17.53,36.41-46.48,58.14-48.76,63.88-6.71,128.93-3.89,193.46-2.35,41.21,1,63.12,19.67,61.68,66.57C8422.48,2201.43,8455.11,2202,8269.22,2200.15Z"/><path class="cls-1" d="M8270.31,2702.55c-4.17,0-8.35-.12-12.51,0-171.15,5.7-147.82-16.32-143.46-173.12.51-18.2,39.4-47.7,63-50.46,61.72-7.21,124.85-3.3,187.39-2.29,42,.67,64,19.18,62.48,65.88C8422.06,2700.23,8458.11,2704.65,8270.31,2702.55Z"/><path class="cls-1" d="M8265.77,3202.77h-6.25c-155,0-156.14-2.36-149.2-157.64,2-45.24,24.7-65.54,65.13-66.91,64.51-2.17,129.2-2.11,193.7.09,38.31,1.31,59.27,20.47,58.09,64C8422.7,3209.7,8455,3203.63,8265.77,3202.77Z"/><path class="cls-1" d="M5141.29,10498.07h-12.52c-142.17,0-160.89-20.86-135.09-164,3.36-18.67,32.14-44.85,51-46.46,66.29-5.69,133.52-4.68,200-.55,17.79,1.11,47.32,20.71,49.08,34.65,5.93,47.08,5.05,95.82-.64,143-1.51,12.56-28.57,28.91-45.62,31.3-34.79,4.89-70.74,1.47-106.21,1.47Z"/><path class="cls-1" d="M5138.21,10999.48c-2.08,0-4.17,0-6.25,0-147.72-2.41-142.15,30.59-140.7-153.93.29-37.57,16.09-58.53,56.33-58.06,64.61.75,129.23.24,193.85.09,38.83-.09,56.89,19.11,56.85,57.86C5298.12,11027.36,5311.81,10997.2,5138.21,10999.48Z"/><path class="cls-1" d="M5148.58,11289.47c2.08-.06,4.17-.06,6.26-.06,155.8.07,144.22-20.52,143.16,159.17-.21,36.3-18.69,53.47-54.33,53.45q-100.2,0-200.4-.18c-6.22,0-13.79.88-18.44-2.15-64.21-41.84-24.77-105.88-32-159.56-4.71-35.07,19.64-51.89,55.52-50.83C5081.75,11290.3,5115.18,11289.52,5148.58,11289.47Z"/><path class="cls-1" d="M3306.67,8778.42c2.09-.07,4.17-.07,6.26-.07,154.43,0,154.06.45,143.45,158.64-2.43,36.27-16.87,54.17-52.82,54.25q-100,.24-200.07,0c-6.2,0-13.66.65-18.4-2.36-64.85-41.23-23.82-105.23-32.15-158.42-5.52-35.18,17.66-52.81,53.7-52.14C3240,8779,3273.33,8778.48,3306.67,8778.42Z"/><path class="cls-1" d="M3302.51,9494.58h-6.26c-156.54,0-155.91.08-145.09-156.64,2.59-37.54,15.68-58.47,56.34-57.8,64.67,1.07,129.78-3.8,193.79,2.74,19.66,2,36.4,33.06,54.26,51,1.06,1.07.14,4,.26,6.12C3465.06,9494.55,3465.06,9494.55,3302.51,9494.58Z"/><path class="cls-1" d="M3299.46,9995.5c-2.08.07-4.16.07-6.25.07-149.61,0-163.58-14.75-139.24-164.44,3-18.41,31.93-44.65,50.65-46.26,66.18-5.67,133.14-2.29,199.8-2.13,6.18,0,13.66-.53,18.34,2.54,64.21,42.06,23.29,106.27,31.87,159.91,6,37.33-21.05,50.45-55.17,50.27C3366.13,9995.29,3332.79,9995.43,3299.46,9995.5Z"/><path class="cls-1" d="M3301.61,10498.08c-2.08,0-4.17,0-6.25,0-158.49-2.14-143.53,25.57-143.83-156.69-.06-38.32,16.51-57.36,56.82-56.48,64.6,1.42,129.25.64,193.88.34,36.37-.17,53.71,17.78,53.51,53.65C3454.74,10520.46,3476.36,10496.53,3301.61,10498.08Z"/><path class="cls-1" d="M3297.8,10999.47h-6.25c-150.67,0-154.66-5.31-140.32-159.49,3.37-36.14,19.07-52.66,54.81-52.45q96.81.58,193.63.06c38.8-.15,56.7,18.1,56.37,57.41C3454.5,11025.6,3474.42,10997.2,3297.8,10999.47Z"/><path class="cls-1" d="M3301.45,11289.42c2.08,0,4.17,0,6.25,0,164.83.75,147.53-21.59,148.25,159.4.14,37.1-17.94,53.18-53.51,53.15-66.72-.07-133.74,3.42-200-2.26-18.07-1.55-33.84-30.45-50.45-47-1.07-1.07-.29-4-.3-6.12C3151.07,11260.18,3138.66,11292,3301.45,11289.42Z"/><path class="cls-1" d="M10112.7,4984c166.84-.8,165.91-.85,157.92,165.57-1.87,39.08-17,58.14-55.63,58.64q-6.24.09-12.49.37c-156.79,6.89-188-15.55-239.23-166.55-14.87-43.78,15-53,43.37-56.9C10041.4,4980.4,10077.3,4984,10112.7,4984Z"/><path class="cls-1" d="M3445.5,8487.63c-94.85,0-177.29,1.25-259.6-1.48-11.11-.36-30-20.08-30.82-31.87-3.44-47.73-1.72-95.87-.61-143.83.17-7.39,5.62-16,11.11-21.69,33.53-34.51,178-11.35,199.09,31.68C3389.9,8372,3414.68,8423.83,3445.5,8487.63Z"/><path class="cls-1" d="M10162.52,5493.74c88.88-17.74,107.9-3.65,107.09,78.93-.43,44.5-4.45,89-6.85,133.45l-28.54,2.48C10210.39,5637.2,10186.57,5565.8,10162.52,5493.74Z"/></svg>