<?xml version="1.0" standalone="no"?>
<!DOCTYPE svg PUBLIC "-//W3C//DTD SVG 20010904//EN"
 "http://www.w3.org/TR/2001/REC-SVG-20010904/DTD/svg10.dtd">
<svg version="1.0" xmlns="http://www.w3.org/2000/svg"
 width="50.000000pt" height="50.000000pt" viewBox="0 0 50.000000 50.000000"
 preserveAspectRatio="xMidYMid meet">

<g transform="translate(0.000000,50.000000) scale(0.100000,-0.100000)"
fill="#000000" stroke="none">
<path d="M157 451 c-49 -27 -93 -53 -98 -58 -7 -7 22 -29 86 -67 53 -31 100
-56 105 -56 14 0 70 34 70 43 0 14 -31 20 -43 8 -17 -17 -31 -14 -98 25 -71
42 -70 42 24 90 l48 25 85 -46 c75 -41 126 -53 110 -26 -5 8 -193 112 -199
110 -1 0 -42 -22 -90 -48z"/>
<path d="M32 249 l3 -124 103 -62 102 -63 0 125 0 125 -40 20 c-38 20 -40 20
-40 2 0 -10 11 -25 25 -32 23 -13 25 -18 25 -92 0 -56 -4 -78 -12 -77 -7 0
-40 17 -73 38 l-60 38 -3 100 c-2 75 -7 104 -18 114 -13 10 -14 -3 -12 -112z"/>
<path d="M363 307 l-103 -60 0 -44 c0 -51 23 -57 28 -6 3 25 13 35 75 71 l72
41 3 -71 c2 -39 1 -76 -1 -82 -3 -6 -43 -35 -91 -64 -60 -37 -86 -59 -86 -72
0 -16 16 -10 101 41 55 34 103 67 105 73 3 7 3 62 2 122 l-3 110 -102 -59z"/>
</g>
</svg>
