<svg width="256" height="256" viewBox="0 0 256 256" fill="none" xmlns="http://www.w3.org/2000/svg">
<mask id="mask0" mask-type="alpha" maskUnits="userSpaceOnUse" x="17" y="9" width="222" height="238">
<path d="M160.002 18.4752C140.2 7.04276 115.804 7.04277 96.002 18.4752L49.1504 45.5249C29.3487 56.9574 17.1504 78.0855 17.1504 100.951V155.05C17.1504 177.915 29.3487 199.043 49.1504 210.475L96.002 237.525C115.804 248.957 140.2 248.957 160.002 237.525L206.853 210.475C226.655 199.043 238.853 177.915 238.853 155.05V100.951C238.853 78.0855 226.655 56.9574 206.853 45.5249L160.002 18.4752Z" fill="#29E7E8"/>
</mask>
<g mask="url(#mask0)">
<path d="M159.998 18.4752C140.196 7.04276 115.8 7.04277 95.998 18.4752L49.1465 45.5249C29.3448 56.9574 17.1465 78.0855 17.1465 100.951V155.05C17.1465 177.915 29.3448 199.043 49.1465 210.475L95.9981 237.525C115.8 248.957 140.196 248.957 159.998 237.525L206.849 210.475C226.651 199.043 238.849 177.915 238.849 155.05V100.951C238.849 78.0855 226.651 56.9574 206.849 45.5249L159.998 18.4752Z" fill="url(#paint0_radial)"/>
<path fill-rule="evenodd" clip-rule="evenodd" d="M118.869 56H139.529V70.8878C162.059 74.2815 178.232 89.1607 180.789 109.243H152.132C149.289 99.2562 140.763 93.1707 129.632 93.1707C113.21 93.1707 103.5 105.888 103.5 127.811C103.5 150.125 114.237 163.622 130.895 163.622C144 163.622 153.158 155.976 153.947 144.664L154.026 142.947H133.184V123.286H181.974V137.096C181.974 164.784 166.345 182.788 139.529 186.089V200H118.869V185.82C90.6083 181.577 73.9736 160.992 73.9736 128.201C73.9736 95.6335 90.8063 74.9831 118.869 70.9008V56Z" fill="white"/>
</g>
<defs>
<radialGradient id="paint0_radial" cx="0" cy="0" r="1" gradientUnits="userSpaceOnUse" gradientTransform="translate(298.665 -48.0002) rotate(132.374) scale(411.497 375.487)">
<stop stop-color="#29E7E8"/>
<stop offset="1" stop-color="#651FFF"/>
</radialGradient>
</defs>
</svg>
