<?xml version="1.0" encoding="UTF-8" standalone="no"?>
<svg
   xmlns:dc="http://purl.org/dc/elements/1.1/"
   xmlns:cc="http://creativecommons.org/ns#"
   xmlns:rdf="http://www.w3.org/1999/02/22-rdf-syntax-ns#"
   xmlns:svg="http://www.w3.org/2000/svg"
   xmlns="http://www.w3.org/2000/svg"
   viewBox="0 0 1440 1440"
   height="1440"
   width="1440"
   xml:space="preserve"
   id="svg2"
   version="1.1"><metadata
     id="metadata8"><rdf:RDF><cc:Work
         rdf:about=""><dc:format>image/svg+xml</dc:format><dc:type
           rdf:resource="http://purl.org/dc/dcmitype/StillImage" /></cc:Work></rdf:RDF></metadata><defs
     id="defs6" /><g
     transform="matrix(1.3333333,0,0,-1.3333333,0,1440)"
     id="g10"><g
       transform="translate(735.8506,346.6064)"
       id="g12"><path
         id="path14"
         style="fill:#2be2b3;fill-opacity:1;fill-rule:nonzero;stroke:none"
         d="M 0,0 V -20.123 L -20.39,0 h -14.252 v -45.011 h 14.252 v 20.424 L 0.158,-45.011 14.252,-45.013 V 0 Z" /></g><g
       transform="translate(490.9111,301.5937)"
       id="g16"><path
         id="path18"
         style="fill:#2be2b3;fill-opacity:1;fill-rule:nonzero;stroke:none"
         d="M 0,0 H 37.833 V 12.562 H 0 v 19.741 h 37.88 v 12.71 H 0 -12.602 -14.114 V 0 h 1.512 z" /></g><g
       transform="translate(642.1064,301.5937)"
       id="g20"><path
         id="path22"
         style="fill:#2be2b3;fill-opacity:1;fill-rule:nonzero;stroke:none"
         d="M 0,0 H 34.879 V 12.562 H 0 V 16.3 H 34.879 V 28.861 H 0 v 3.59 H 34.879 V 45.013 H 0 -12.957 -14.113 V 0 h 1.41 z" /></g><path
       id="path24"
       style="fill:#2be2b3;fill-opacity:1;fill-rule:nonzero;stroke:none"
       d="m 417.379,334.084 h 20.978 v -9.841 h -20.978 z m 0,-22.364 h 20.978 v -10.126 h 14.07 v 45.012 h -2.106 -11.964 -20.978 -11.122 -2.948 V 324.243 311.72 301.594 h 14.07 z" /><g
       transform="translate(344.2163,317.584)"
       id="g26"><path
         id="path28"
         style="fill:#2be2b3;fill-opacity:1;fill-rule:nonzero;stroke:none"
         d="M 0,0 H 20.609 V -15.99 H 34.753 V 29.022 H 20.609 V 13.354 H 0 V 29.022 H -14.114 V -15.99 l 14.114,0 z" /></g><g
       transform="translate(567.2529,317.7393)"
       id="g30"><path
         id="path32"
         style="fill:#2be2b3;fill-opacity:1;fill-rule:nonzero;stroke:none"
         d="M 0,0 H 21.879 L 35.895,13.362 H 35.97 V 28.867 H 21.879 V 13.362 H 0 V 28.867 H -14.122 V -16.146 H 0 Z" /></g><path
       id="path34"
       style="fill:#2be2b3;fill-opacity:1;fill-rule:nonzero;stroke:none"
       d="m 603.254,317.739 h -14.122 v -16.146 h 14.122 z" /><path
       id="path36"
       style="fill:#2be2b3;fill-opacity:1;fill-rule:nonzero;stroke:none"
       d="m 329.897,382.455 h 23.997 v 395.951 h -23.997 z" /><path
       id="path38"
       style="fill:#2be2b3;fill-opacity:1;fill-rule:nonzero;stroke:none"
       d="m 725.849,382.455 h 23.997 v 395.951 h -23.997 z" /><g
       transform="translate(701.8516,382.4551)"
       id="g40"><path
         id="path42"
         style="fill:#2be2b3;fill-opacity:1;fill-rule:nonzero;stroke:none"
         d="m 0,0 h -24.597 v 185.377 h -335.359 v 24.597 l 359.956,0 z" /></g><g
       transform="translate(653.8574,382.4551)"
       id="g44"><path
         id="path46"
         style="fill:#2be2b3;fill-opacity:1;fill-rule:nonzero;stroke:none"
         d="M 0,0 H -23.997 V 136.783 H -305.962 V 161.98 H 0 Z" /></g><g
       transform="translate(605.8633,382.4551)"
       id="g48"><path
         id="path50"
         style="fill:#2be2b3;fill-opacity:1;fill-rule:nonzero;stroke:none"
         d="m 0,0 h -24.597 v 83.989 h -233.371 v 23.997 H 0 Z" /></g><path
       id="path52"
       style="fill:#2be2b3;fill-opacity:1;fill-rule:nonzero;stroke:none"
       d="m 479.879,382.455 h 23.997 v 95.988 h -23.997 z" /><path
       id="path54"
       style="fill:#2be2b3;fill-opacity:1;fill-rule:nonzero;stroke:none"
       d="m 425.885,382.455 h 23.997 v 89.989 h -23.997 z" /><path
       id="path56"
       style="fill:#2be2b3;fill-opacity:1;fill-rule:nonzero;stroke:none"
       d="m 377.891,382.455 h 23.997 v 95.988 h -23.997 z" /><g
       transform="translate(377.8911,778.4062)"
       id="g58"><path
         id="path60"
         style="fill:#2be2b3;fill-opacity:1;fill-rule:nonzero;stroke:none"
         d="m 0,0 v -209.974 h 359.956 v 24.597 H 24.597 L 24.597,0 Z" /></g><g
       transform="translate(431.8848,778.4062)"
       id="g62"><path
         id="path64"
         style="fill:#2be2b3;fill-opacity:1;fill-rule:nonzero;stroke:none"
         d="m 0,0 v -161.98 h 305.962 v 25.196 H 23.997 L 23.997,0 Z" /></g><g
       transform="translate(731.8477,670.4194)"
       id="g66"><path
         id="path68"
         style="fill:#2be2b3;fill-opacity:1;fill-rule:nonzero;stroke:none"
         d="m 0,0 h -257.968 v 107.987 h 24.597 V 23.997 H 0 Z" /></g><path
       id="path70"
       style="fill:#2be2b3;fill-opacity:1;fill-rule:nonzero;stroke:none"
       d="m 575.867,682.418 h 23.997 v 95.988 h -23.997 z" /><path
       id="path72"
       style="fill:#2be2b3;fill-opacity:1;fill-rule:nonzero;stroke:none"
       d="m 629.86,688.417 h 23.997 v 89.989 H 629.86 Z" /><path
       id="path74"
       style="fill:#2be2b3;fill-opacity:1;fill-rule:nonzero;stroke:none"
       d="m 677.854,682.418 h 23.997 v 95.988 h -23.997 z" /></g></svg>