<svg width="71" height="72" viewBox="0 0 71 72" fill="none" xmlns="http://www.w3.org/2000/svg">
<g clip-path="url(#clip0)">
<g clip-path="url(#clip1)">
<path d="M35.4 0.281372C15.9 0.281372 0 16.1814 0 35.6814C0 55.2814 15.9 71.1814 35.4 71.1814C55 71.1814 70.9 55.2814 70.9 35.6814C70.9 16.1814 55 0.281372 35.4 0.281372ZM35.3 51.3814H31.6H26.8H22.8V47.2814H26.8H31.6H35.3V51.3814ZM48.2 51.3814H43.4V38.2814C43.4 36.1814 42.9 34.5814 41.8 33.4814C40.8 32.3814 39.3 31.7814 37.5 31.7814C35.7 31.7814 34.2 32.3814 33.2 33.4814C32.1 34.5814 31.6 36.1814 31.6 38.2814V39.1814H35.3V43.2814H31.6H26.8H22.8V39.1814H26.8V17.9814H31.6V31.6814C33.2 28.9814 35.7 27.5814 39.1 27.5814C41.7 27.5814 43.9 28.4814 45.6 30.1814C47.3 31.9814 48.2 34.3814 48.2 37.5814V51.3814Z" fill="black"/>
</g>
</g>
<defs>
<clipPath id="clip0">
<rect width="71" height="71" fill="white" transform="translate(0 0.281372)"/>
</clipPath>
<clipPath id="clip1">
<rect width="70.9" height="70.9" fill="white" transform="translate(0 0.281372)"/>
</clipPath>
</defs>
</svg>
