<?xml version="1.0" standalone="no"?>
<!DOCTYPE svg PUBLIC "-//W3C//DTD SVG 20010904//EN"
 "http://www.w3.org/TR/2001/REC-SVG-20010904/DTD/svg10.dtd">
<svg version="1.0" xmlns="http://www.w3.org/2000/svg"
 width="64.000000pt" height="64.000000pt" viewBox="0 0 64.000000 64.000000"
 preserveAspectRatio="xMidYMid meet">

<g transform="translate(0.000000,64.000000) scale(0.100000,-0.100000)"
fill="#000000" stroke="none">
<path d="M223 622 c-109 -39 -178 -112 -210 -221 -29 -102 4 -228 82 -306 122
-121 328 -121 450 0 91 92 118 241 64 356 -69 146 -241 223 -386 171z m138
-134 c14 -55 6 -91 -35 -148 -70 -97 -80 -138 -51 -207 8 -20 13 -38 11 -40
-11 -11 -47 11 -80 47 -60 67 -60 148 -1 222 71 88 86 115 92 168 l6 53 23
-27 c13 -14 28 -45 35 -68z m108 -196 c19 -70 -8 -131 -81 -184 l-28 -19 -20
33 c-28 46 -25 76 11 144 18 33 39 72 47 88 l15 29 23 -26 c13 -15 28 -44 33
-65z"/>
</g>
</svg>
