<?xml version="1.0" encoding="UTF-8"?>
<svg width="1000px" height="1000px" viewBox="0 0 1000 1000" version="1.1" xmlns="http://www.w3.org/2000/svg" xmlns:xlink="http://www.w3.org/1999/xlink">
    <title>Icon_white_svg</title>
    <defs>
        <linearGradient x1="96.6768546%" y1="50%" x2="10.7371914%" y2="68.5042933%" id="linearGradient-1">
            <stop stop-color="#F231AF" offset="0%"></stop>
            <stop stop-color="#F231AF" stop-opacity="0" offset="100%"></stop>
        </linearGradient>
        <path d="M454.462956,0 C329.616333,0 218.397604,56.072524 156.968793,149.993411 L156.968793,149.993411 C105.620728,228.496126 96.7203968,320.668439 132.557805,402.87506 L132.557805,402.87506 L133.047677,403.944289 C134.151366,406.248154 144.338349,427.000659 162.227543,447.463704 L162.227543,447.463704 C197.0675,487.314657 231.600549,492.660805 254.429781,490.114739 L254.429781,490.114739 C289.7301,486.180447 318.845043,468.65926 336.421427,440.776589 L336.421427,440.776589 C362.803709,398.911231 362.195795,337.457115 334.621294,258.109649 L334.621294,258.109649 C328.725119,241.161475 310.228012,232.194124 293.294954,238.10147 L293.294954,238.10147 C276.361897,243.991094 267.414349,262.504715 273.304622,279.458796 L273.304622,279.458796 C300.519096,357.784291 290.131441,392.430873 281.508508,406.106378 L281.508508,406.106378 C274.490939,417.247631 262.964184,423.781156 247.258758,425.523823 L247.258758,425.523823 C224.895791,428.046259 200.396271,393.641879 191.791044,376.262468 L191.791044,376.262468 C165.196288,314.666576 172.284681,245.213914 211.2797,185.585168 L211.2797,185.585168 C260.68008,110.065662 351.589763,64.9808011 454.462956,64.9808011 L454.462956,64.9808011 C633.46113,64.9808011 779.077159,210.726831 779.077159,389.884807 L779.077159,389.884807 C779.077159,565.663781 635.99312,708.391157 453.329757,714.806534 L453.329757,714.806534 C310.942163,719.786427 133.649689,634.815168 63.7572999,381.24236 L63.7572999,381.24236 C58.9943242,363.945652 41.1346409,353.808647 23.8356549,358.564061 L23.8356549,358.564061 C6.55437513,363.337196 -3.59129426,381.224638 1.1775835,398.527253 L1.1775835,398.527253 C35.8758908,524.460046 100.208524,626.273147 187.211033,692.949356 L187.211033,692.949356 C260.792219,749.358599 350.5569,780 441.442975,780 L441.442975,780 C446.158734,780 450.886297,779.917297 455.602056,779.751891 L455.602056,779.751891 C673.400481,772.095972 844,600.853839 844,389.884807 L844,389.884807 C844,174.89878 669.257223,0 454.462956,0 Z" id="path-2"></path>
        <polygon id="path-4" points="0 0 733.603376 0 733.603376 491.506849 0 491.506849"></polygon>
    </defs>
    <g id="Icon_white_svg" stroke="none" stroke-width="1" fill="none" fill-rule="evenodd">
        <g id="Group-9" transform="translate(78.000000, 110.000000)">
            <path d="M598.432587,542.610341 L402.486682,449.010383 L402.486682,451.400998 L445.089258,575.276177 C451.493799,594.649013 442.199549,613.284004 423.457717,619.552728 C404.704091,625.809647 385.614316,616.636768 379.398491,597.818791 L274.213059,279.813866 C268.156463,261.515331 277.993271,242.697354 296.735102,236.434533 C315.488728,230.177614 334.047741,239.521673 340.263566,258.345552 L375.689047,365.433301 L466.16055,191.231249 C475.63172,173.127505 497.062751,165.973368 514.182806,174.603193 C532.199262,184.124334 538.078936,203.674252 528.05931,221.955079 L438.248313,386.972447 L641.141316,488.328622 C682.517241,523.514934 634.09986,571.333138 598.432587,542.610341" id="Fill-1" fill="#F231AF"></path>
            <g id="Group-5">
                <mask id="mask-3" fill="white">
                    <use xlink:href="#path-2"></use>
                </mask>
                <use id="Clip-4" fill="url(#linearGradient-1)" xlink:href="#path-2"></use>
                <path d="M454.462956,0 C329.616333,0 218.397604,56.072524 156.968793,149.993411 L156.968793,149.993411 C105.620728,228.496126 96.7203968,320.668439 132.557805,402.87506 L132.557805,402.87506 L133.047677,403.944289 C134.151366,406.248154 144.338349,427.000659 162.227543,447.463704 L162.227543,447.463704 C197.0675,487.314657 231.600549,492.660805 254.429781,490.114739 L254.429781,490.114739 C289.7301,486.180447 318.845043,468.65926 336.421427,440.776589 L336.421427,440.776589 C362.803709,398.911231 362.195795,337.457115 334.621294,258.109649 L334.621294,258.109649 C328.725119,241.161475 310.228012,232.194124 293.294954,238.10147 L293.294954,238.10147 C276.361897,243.991094 267.414349,262.504715 273.304622,279.458796 L273.304622,279.458796 C300.519096,357.784291 290.131441,392.430873 281.508508,406.106378 L281.508508,406.106378 C274.490939,417.247631 262.964184,423.781156 247.258758,425.523823 L247.258758,425.523823 C224.895791,428.046259 200.396271,393.641879 191.791044,376.262468 L191.791044,376.262468 C165.196288,314.666576 172.284681,245.213914 211.2797,185.585168 L211.2797,185.585168 C260.68008,110.065662 351.589763,64.9808011 454.462956,64.9808011 L454.462956,64.9808011 C633.46113,64.9808011 779.077159,210.726831 779.077159,389.884807 L779.077159,389.884807 C779.077159,565.663781 635.99312,708.391157 453.329757,714.806534 L453.329757,714.806534 C310.942163,719.786427 133.649689,634.815168 63.7572999,381.24236 L63.7572999,381.24236 C58.9943242,363.945652 41.1346409,353.808647 23.8356549,358.564061 L23.8356549,358.564061 C6.55437513,363.337196 -3.59129426,381.224638 1.1775835,398.527253 L1.1775835,398.527253 C35.8758908,524.460046 100.208524,626.273147 187.211033,692.949356 L187.211033,692.949356 C260.792219,749.358599 350.5569,780 441.442975,780 L441.442975,780 C446.158734,780 450.886297,779.917297 455.602056,779.751891 L455.602056,779.751891 C673.400481,772.095972 844,600.853839 844,389.884807 L844,389.884807 C844,174.89878 669.257223,0 454.462956,0 Z" id="Fill-3" mask="url(#mask-3)"></path>
            </g>
            <g id="Group-8" transform="translate(110.396624, 0.000000)">
                <mask id="mask-5" fill="white">
                    <use xlink:href="#path-4"></use>
                </mask>
                <g id="Clip-7"></g>
                <path d="M668.639749,390.567577 C668.639749,211.101503 522.92236,65.094103 343.812757,65.094103 C240.872131,65.094103 149.902855,110.257986 100.470093,185.909856 C61.4436062,245.643115 54.3505659,315.223426 80.9686614,376.921362 C89.5795296,394.331234 114.095109,428.795916 136.472735,426.269058 C152.188456,424.523337 163.722767,417.978361 170.744936,406.81758 C179.367616,393.118105 189.767986,358.410798 162.529766,279.94802 C156.635633,262.97014 165.594952,244.418152 182.539109,238.518205 C199.483266,232.600506 217.992498,241.583574 223.892538,258.561454 C251.485114,338.047994 252.087521,399.609822 225.693851,441.542641 C208.105946,469.4801 178.966012,487.037914 143.642553,490.973185 C120.804262,493.517795 86.2485765,488.168195 51.3857814,448.247394 C33.4789552,427.742565 23.2911995,406.959605 22.1867878,404.651702 L21.6965943,403.580598 C-14.1643056,321.229892 -5.26404601,228.901944 46.1176781,150.255717 C107.592663,56.1702121 218.884296,-0.000591769953 343.812757,-0.000591769953 C558.747825,-0.000591769953 733.605147,175.204738 733.605147,390.567577" id="Fill-6" fill="#F231AF" mask="url(#mask-5)"></path>
            </g>
        </g>
    </g>
</svg>