<svg width="800" height="600" xmlns="http://www.w3.org/2000/svg">

 <g>
  <title>Layer 1</title>
  <style transform="matrix(0.021436731204006243,0,0,0.021436731204006243,0,0) " type="text/css">.st0{fill:#23AF91;}</style>
  <g stroke="null" id="svg_6">
   <path stroke="null" id="svg_5" d="m276.22928,321.5l185.65964,164.24517l117.08911,-103.58374c20.58906,-18.21427 54.06867,-18.21427 74.83677,0c20.58906,18.21427 20.58906,47.83225 0,66.2049l-154.32846,136.84458c-20.94713,18.05588 -54.24771,18.05588 -75.19484,0l-222.71996,-197.506l0,117.20485c2.50649,25.81674 -19.15678,48.62417 -48.33954,50.84156c-29.18276,2.21739 -54.96385,-16.94719 -57.47034,-42.76393c-0.17904,-2.69254 -0.17904,-5.38509 0,-8.07763l0,-366.81949c-2.50649,-25.81674 19.15678,-48.62417 48.33954,-50.84156c29.18276,-2.21739 54.96385,16.94719 57.47034,42.76393c0.17904,2.69254 0.17904,5.38509 0,8.07763l0,117.20485l222.899,-197.506c20.94713,-18.05588 54.24771,-18.05588 75.19484,0l154.32846,136.84458c20.58906,18.21427 20.58906,47.83225 0,66.2049s-54.06867,18.21427 -74.83677,0l0,0l-117.08911,-103.58374l-185.83868,164.24517zm185.65964,-47.04032l0,0c-29.3618,0 -53.1735,21.0652 -53.1735,47.04032s23.8117,47.04032 53.1735,47.04032s53.1735,-21.0652 53.1735,-47.04032c0,-25.97513 -23.8117,-47.04032 -53.1735,-47.04032l0,0z" class="st0"/>
  </g>
 </g>
</svg>