<svg width="24" height="24" viewBox="0 0 24 24" fill="none" xmlns="http://www.w3.org/2000/svg">
<g clip-path="url(#clip0_6052_99642)">
<rect width="24" height="24" rx="12" fill="white"/>
<path d="M11.9976 0C9.62389 0 7.30353 0.703873 5.3299 2.02261C3.35627 3.34135 1.81802 5.21572 0.909655 7.4087C0.00129377 9.60167 -0.236375 12.0148 0.226704 14.3428C0.689782 16.6709 1.83281 18.8093 3.51124 20.4878C5.18968 22.1662 7.32813 23.3092 9.65618 23.7723C11.9842 24.2354 14.3973 23.9977 16.5903 23.0893C18.7833 22.181 20.6577 20.6427 21.9764 18.6691C23.2951 16.6955 23.999 14.3751 23.999 12.0015C23.999 10.4254 23.6886 8.86478 23.0854 7.4087C22.4823 5.95261 21.5983 4.62958 20.4839 3.51514C19.3694 2.40071 18.0464 1.51669 16.5903 0.913556C15.1342 0.310427 13.5736 0 11.9976 0V0ZM12.1921 12.3963L10.9437 16.6087H17.6209C17.674 16.6088 17.7263 16.6213 17.7738 16.6451C17.8212 16.669 17.8625 16.7035 17.8943 16.746C17.9261 16.7885 17.9476 16.8378 17.9571 16.8901C17.9666 16.9423 17.9638 16.9961 17.9489 17.0471L17.3683 19.0473C17.3406 19.1429 17.2826 19.2268 17.203 19.2865C17.1234 19.3462 17.0265 19.3784 16.927 19.3783H6.72841L8.45286 13.5546L6.54551 14.1352L6.96646 12.7737L8.87671 12.1931L11.2979 4.0121C11.3245 3.91623 11.3818 3.8317 11.4609 3.77142C11.5401 3.71114 11.6368 3.67842 11.7363 3.67824H14.32C14.3731 3.67805 14.4254 3.69017 14.4729 3.71364C14.5205 3.73712 14.5619 3.77131 14.594 3.81352C14.6261 3.85573 14.6479 3.90482 14.6578 3.95691C14.6677 4.009 14.6654 4.06267 14.651 4.11371L12.6188 11.0318L14.5262 10.4512L14.1168 11.836L12.1921 12.3963Z" fill="#315D9E"/>
</g>
<defs>
<clipPath id="clip0_6052_99642">
<rect width="24" height="24" rx="12" fill="white"/>
</clipPath>
</defs>
</svg>
