<svg fill="none" height="24" viewBox="0 0 24 24" width="24" xmlns="http://www.w3.org/2000/svg"><path d="m12 24c6.6274 0 12-5.3726 12-12 0-6.62742-5.3726-12-12-12-6.62742 0-12 5.37258-12 12 0 6.6274 5.37258 12 12 12z" fill="#fff"/><path d="m11.9995 0c-7.52685 0-14.05914 7.3766-11.391599 15.9995h3.590279v-10.22897l7.80132 7.90297 7.8013-7.90297v10.22947h3.5915c2.6004-8.29627-3.5086-15.99830015-11.3916-15.99830015z" fill="#f06923"/><path d="m6.93212 12v6.2898h-4.93212c2.05397 3.4211 5.76562 5.7102 9.9998 5.7102 4.2343 0 7.9462-2.2894 10.0002-5.7108h-4.9338v-6.2892l-5.0667 5.1456z" fill="#4d4e4e"/></svg>