<?xml version="1.0" standalone="no"?>
<!DOCTYPE svg PUBLIC "-//W3C//DTD SVG 20010904//EN"
 "http://www.w3.org/TR/2001/REC-SVG-20010904/DTD/svg10.dtd">
<svg version="1.0" xmlns="http://www.w3.org/2000/svg"
 width="64.000000pt" height="64.000000pt" viewBox="0 0 64.000000 64.000000"
 preserveAspectRatio="xMidYMid meet">

<g transform="translate(0.000000,64.000000) scale(0.100000,-0.100000)"
fill="#000000" stroke="none">
<path d="M240 631 c-92 -30 -163 -90 -207 -174 -24 -45 -28 -64 -28 -137 0
-73 4 -92 28 -137 34 -66 84 -116 150 -150 45 -24 64 -28 137 -28 73 0 92 4
137 28 66 34 116 84 150 150 24 45 28 64 28 137 0 73 -4 92 -28 137 -57 110
-154 174 -272 179 -38 2 -81 0 -95 -5z m58 -237 c26 -18 29 -58 8 -109 -16
-37 -41 -49 -97 -43 -47 4 -59 39 -35 103 24 62 76 83 124 49z m151 10 c39 -8
51 -43 27 -79 -13 -20 -25 -25 -55 -25 -35 0 -39 -3 -44 -30 -5 -21 -12 -30
-27 -30 -11 0 -20 6 -20 13 0 17 29 138 36 148 6 11 39 12 83 3z"/>
<path d="M220 345 c-17 -44 -13 -75 10 -75 22 0 37 23 42 66 2 24 -1 30 -19
32 -17 3 -26 -3 -33 -23z"/>
<path d="M396 354 c-9 -23 -8 -24 19 -24 18 0 25 5 25 20 0 24 -35 28 -44 4z"/>
</g>
</svg>
