<svg viewBox="0 0 228.62 228.33" xmlns="http://www.w3.org/2000/svg"><path d="m227.64 47.53a57.36 57.36 0 0 0 -20.55-34.84 56.67 56.67 0 0 0 -35.78-12.69q-57.55 0-115.15 0c-20 .23-39 11.82-48.7 29.24-5.46 9.38-7.46 19.89-7.46 30.61q0 52.43 0 104.88c-.07 8.13.29 15.94 2.83 23.74a58 58 0 0 0 39.17 37.79c-5.51-4.39-7.95-10.5-9.74-17.11-3.71-14.5-4-29.56-3.4-44.42-.06-35 0-69.93 0-104.88.05-6 .5-11.67 3.58-17a27.31 27.31 0 0 1 23.79-14q54.71 0 109.45 0c5.51 0 10.52-.4 15.78 1.59a27.2 27.2 0 0 1 17.54 19.7c1.08 5.29.79 11.16.81 16.55v102.6c0 5-.56 10-2.73 14.57-4.47 9.35-14.14 15.84-24.61 15.65-28.87 0-57.77 0-86.63 0-.06-9.41 0-18.82 0-28.24q35.36 0 70.69 0c5.07.28 10.91-2.29 13.24-7a15.68 15.68 0 0 0 1.6-7.58q0-42.78 0-85.53a13.21 13.21 0 0 0 -7-12.5c-3.9-2.26-8.07-1.68-12.42-1.76-27 .07-54 0-80.94.05a13.87 13.87 0 0 0 -13.93 14.29c-.11 41 0 82.15 0 123.14.21 8.14-.05 15.85 4.67 22.9 3.58 5.82 9.63 8.78 16.14 10.07 7.7 1.24 15.06.94 22.79 1q35.36 0 70.68 0a57.17 57.17 0 0 0 32.71-10.35c10.32-7.61 18.32-18.09 22-30.45 2.54-8.36 2.5-16.48 2.54-25.11q0-49 0-98a114.68 114.68 0 0 0 -.97-16.91zm-85.28 95h-56.53v-56.76h56.53z" fill="#45d492"/></svg>