<?xml version="1.0" standalone="no"?>
<!DOCTYPE svg PUBLIC "-//W3C//DTD SVG 20010904//EN"
 "http://www.w3.org/TR/2001/REC-SVG-20010904/DTD/svg10.dtd">
<svg version="1.0" xmlns="http://www.w3.org/2000/svg"
 width="64.000000pt" height="64.000000pt" viewBox="0 0 64.000000 64.000000"
 preserveAspectRatio="xMidYMid meet">

<g transform="translate(0.000000,64.000000) scale(0.100000,-0.100000)"
fill="#000000" stroke="none">
<path d="M222 575 l-34 -15 21 -27 c11 -16 40 -50 65 -78 l45 -50 38 21 c21
12 39 28 41 36 4 20 -100 128 -123 128 -11 -1 -35 -7 -53 -15z"/>
<path d="M428 499 l-17 -40 49 -32 50 -32 0 -57 c0 -32 -3 -58 -7 -58 -5 0
-21 -12 -37 -26 l-29 -25 18 -40 c21 -45 38 -47 68 -7 17 23 18 32 9 67 -9 37
-8 41 9 41 16 0 19 8 19 49 0 44 -3 49 -25 55 -21 5 -25 12 -25 44 0 39 -19
75 -48 91 -14 7 -20 2 -34 -30z"/>
<path d="M135 391 l-60 -6 2 -44 c3 -73 0 -71 127 -71 63 0 116 3 119 8 2 4 1
33 -1 65 l-4 57 -61 -2 c-34 -1 -89 -4 -122 -7z"/>
<path d="M277 175 c-38 -77 -44 -97 -32 -100 8 -3 22 -7 30 -10 32 -10 66 16
110 84 25 38 45 72 45 75 0 5 -87 46 -99 46 -4 0 -28 -43 -54 -95z"/>
</g>
</svg>
