<?xml version="1.0" encoding="utf-8"?>
<!-- Generator: Adobe Illustrator 25.2.3, SVG Export Plug-In . SVG Version: 6.00 Build 0)  -->
<svg version="1.1" id="Layer_1" xmlns="http://www.w3.org/2000/svg" xmlns:xlink="http://www.w3.org/1999/xlink" x="0px" y="0px"
	 viewBox="0 0 234 86.3" style="enable-background:new 0 0 234 86.3;" xml:space="preserve">
<style type="text/css">
	.st0{fill:#CC0000;}
	.st1{fill:#FFFFFF;}
</style>
<g>
	<path class="st0" d="M0,0v35.2L17.3,18L0,0z"/>
	<path class="st0" d="M54.2,18l17.3,17.3V0L54.2,18z"/>
	<path class="st0" d="M2.4,38.9l32.3,47.4L19.2,22.1L2.4,38.9z"/>
	<path class="st0" d="M36.9,86.3l32.3-47.4L52.4,22.1L36.9,86.3z"/>
	<path class="st0" d="M48.6,21.4H35.8H23l6.4,27.8L35.8,77l6.4-27.8L48.6,21.4z"/>
	<g>
		<path class="st1" d="M226.1,10.1h-1.7V9.6h3.8v0.5h-1.6V15H226L226.1,10.1z"/>
		<path class="st1" d="M233.4,10.5l-1.7,3.8h-0.4l-1.7-3.8V15H229V9.6h0.7l1.8,4l1.8-4h0.7V15h-0.5L233.4,10.5z"/>
	</g>
	<path class="st1" d="M112.4,21.5c9.9,0,15,4.7,13.7,13.6l-0.4,3.1c-0.8,5.3-3.5,8.9-7.3,10.9l4.7,14.4h-12.8l-3.2-12.2h-2.9
		l-1.8,12.2H90.4l6.2-41.9H112.4z M107.2,30.6l-1.7,11.9h3.7c1.1,0.1,2.2-0.3,3.1-1.1c0.8-0.7,1.4-1.8,1.4-2.9l0.6-4
		c0.3-2.4-0.9-3.9-3.3-3.9H107.2z"/>
	<path class="st1" d="M132.6,21.5h26.9l-1.4,9.7h-14.9l-1,6.5h14.3l-1.4,9.5h-14.3l-2.4,16.3h-12L132.6,21.5z"/>
	<path class="st1" d="M161.6,35c1.4-9.2,8-14.1,18.5-14.1c10.4,0,15.7,5,14.3,14.1l-2.2,14.9c-1.4,9.2-8.1,14.1-18.5,14.1
		c-10.4,0-15.6-4.9-14.3-14.1L161.6,35z M171.8,47.2c-0.5,3.7-0.9,7.8,3.1,7.8c4,0,4.9-4.1,5.4-7.8l1.4-9.6c0.5-3.6,0.9-7.7-3.2-7.7
		c-1.2-0.1-2.4,0.4-3.4,1.2c-0.9,0.8-1.5,2-1.5,3.2L171.8,47.2z"/>
	<path class="st1" d="M212.9,34.8l6.6-13.4h13.2l-11.8,20.3l5.9,21.6h-13.6l-2.4-13.4L204,63.4h-13.6l12.3-20.9l-5.6-21h13.1
		L212.9,34.8z"/>
</g>
</svg>
