<svg width="298" height="299" viewBox="0 0 298 299" fill="none" xmlns="http://www.w3.org/2000/svg">
<path d="M79.9391 114.365H79.31C92.1842 89.0588 118.473 71.7182 148.813 71.7182C168.384 71.7182 186.265 78.93 199.951 90.8423H200.429H231.491C213.1 65.0316 182.922 48.1953 148.813 48.1953C96.7598 48.1953 53.8684 87.395 48.0397 137.888L113.534 137.883V161.401H48.0293L48.0553 161.583C49.0068 169.694 50.9151 177.509 53.6604 184.924H113.523V244.786C120.985 247.552 128.872 249.471 137.041 250.417V184.929H160.559V250.423C168.732 249.476 176.615 247.563 184.076 244.791V184.924H243.939C248.016 173.937 250.241 162.051 250.241 149.644C250.241 137.238 248.016 125.352 243.939 114.365H230.009H79.9391ZM160.564 161.406H137.046V137.888H160.564V161.406ZM225.85 161.406H184.087V137.888H225.85C226.432 141.725 226.734 145.651 226.734 149.65C226.734 153.643 226.432 157.569 225.85 161.406Z" fill="black"/>
<path d="M148.729 0.915039C66.5858 0.915039 0 67.5061 0 149.644C0 231.782 66.5858 298.373 148.729 298.373C230.872 298.373 297.458 231.782 297.458 149.644C297.458 67.5061 230.872 0.915039 148.729 0.915039ZM148.729 274.813C79.6004 274.813 23.5593 218.772 23.5593 149.644C23.5593 80.5154 79.6004 24.4743 148.729 24.4743C217.857 24.4743 273.898 80.5154 273.898 149.644C273.898 218.772 217.857 274.813 148.729 274.813Z" fill="black"/>
</svg>
