<svg width="73" height="72" viewBox="0 0 73 72" fill="none" xmlns="http://www.w3.org/2000/svg">
<path d="M50.6902 4.29356C44.9731 10.1839 39.2561 16.0525 33.539 21.9428C33.474 21.9861 33.4307 22.0295 33.3657 22.0944L20.9138 34.5464C19.7227 35.7374 19.7227 37.7081 20.9138 38.8991L32.7161 50.7014L18.1852 65.9253C15.933 64.3877 13.7891 62.612 11.6669 60.4681C-3.55697 45.2659 -4.0767 26.4688 11.2554 11.1151C23.4042 -1.03371 37.7402 -3.09099 50.6902 4.29356Z" fill="url(#paint0_linear_2142_9681)"/>
<path d="M60.9117 60.7496C48.7846 72.8551 34.5353 75.0206 21.6719 68.0692L26.7826 62.7203C30.7022 58.6707 34.6002 54.6427 38.5199 50.5932L42.4612 46.6518L50.1922 38.9208C51.3833 37.7297 51.3833 35.7591 50.1922 34.568L46.6407 31.0165L38.4766 22.8524L52.8559 7.80177L54.1119 6.50244C56.2341 7.99667 58.3564 9.79409 60.3703 11.8081C75.4643 26.8587 76.1139 45.5257 60.9117 60.7496Z" fill="url(#paint1_linear_2142_9681)"/>
<defs>
<linearGradient id="paint0_linear_2142_9681" x1="41.5982" y1="-24.2028" x2="-55.241" y2="187.381" gradientUnits="userSpaceOnUse">
<stop stop-color="#00DECA"/>
<stop offset="0.37798" stop-color="#3A8AFA"/>
<stop offset="1" stop-color="#1A6AF4"/>
</linearGradient>
<linearGradient id="paint1_linear_2142_9681" x1="62.9782" y1="-17.5433" x2="-33.2659" y2="192.629" gradientUnits="userSpaceOnUse">
<stop stop-color="#00DECA"/>
<stop offset="0.37798" stop-color="#3A8AFA"/>
<stop offset="1" stop-color="#1A6AF4"/>
</linearGradient>
</defs>
</svg>
