<?xml version="1.0" standalone="no"?>
<!DOCTYPE svg PUBLIC "-//W3C//DTD SVG 20010904//EN"
 "http://www.w3.org/TR/2001/REC-SVG-20010904/DTD/svg10.dtd">
<svg version="1.0" xmlns="http://www.w3.org/2000/svg"
 width="64.000000pt" height="64.000000pt" viewBox="0 0 64.000000 64.000000"
 preserveAspectRatio="xMidYMid meet">

<g transform="translate(0.000000,64.000000) scale(0.100000,-0.100000)"
fill="#000000" stroke="none">
<path d="M220 624 c-227 -82 -293 -362 -125 -529 65 -66 125 -90 225 -90 100
0 160 24 225 90 66 65 90 125 90 225 0 100 -24 160 -90 225 -82 82 -222 116
-325 79z m250 -134 c0 -19 -7 -20 -145 -20 l-145 0 0 -150 0 -150 145 0 c138
0 145 -1 145 -20 0 -19 -7 -20 -165 -20 l-165 0 0 190 0 190 165 0 c158 0 165
-1 165 -20z m54 -71 c14 -11 26 -27 26 -35 0 -19 -34 -18 -50 2 -19 22 -65 14
-65 -11 0 -16 11 -23 48 -32 63 -15 77 -28 77 -68 0 -44 -38 -75 -92 -75 -31
0 -46 7 -71 32 -32 33 -32 33 -9 36 13 2 32 -4 42 -13 11 -10 30 -15 47 -13
22 2 28 8 28 28 0 21 -6 26 -45 33 -56 11 -80 32 -80 68 0 35 41 69 85 69 18
0 44 -9 59 -21z"/>
</g>
</svg>
