<svg width="32" height="32" viewBox="0 0 32 32" fill="none" xmlns="http://www.w3.org/2000/svg">
<circle cx="16" cy="16" r="16" fill="url(#paint0_linear_4706_3628)"/>
<path fill-rule="evenodd" clip-rule="evenodd" d="M16 28.75C23.0416 28.75 28.75 23.0416 28.75 16C28.75 8.95837 23.0416 3.25 16 3.25C8.95837 3.25 3.25 8.95837 3.25 16C3.25 23.0416 8.95837 28.75 16 28.75ZM16 30C23.732 30 30 23.732 30 16C30 8.26801 23.732 2 16 2C8.26801 2 2 8.26801 2 16C2 23.732 8.26801 30 16 30Z" fill="black"/>
<path fill-rule="evenodd" clip-rule="evenodd" d="M13.5 6.375C13.8452 6.375 14.125 6.65482 14.125 7V10.875H17.875V7C17.875 6.65482 18.1548 6.375 18.5 6.375C18.8452 6.375 19.125 6.65482 19.125 7V10.875H22.5C22.8452 10.875 23.125 11.1548 23.125 11.5C23.125 11.8452 22.8452 12.125 22.5 12.125H10.125V19.875H21.875V16.625H14C13.6548 16.625 13.375 16.3452 13.375 16C13.375 15.6548 13.6548 15.375 14 15.375H22.5C22.8452 15.375 23.125 15.6548 23.125 16V20.5C23.125 20.8452 22.8452 21.125 22.5 21.125H19.125V25C19.125 25.3452 18.8452 25.625 18.5 25.625C18.1548 25.625 17.875 25.3452 17.875 25V21.125H14.125V25C14.125 25.3452 13.8452 25.625 13.5 25.625C13.1548 25.625 12.875 25.3452 12.875 25V21.125H9.5C9.15482 21.125 8.875 20.8452 8.875 20.5V11.5C8.875 11.1548 9.15482 10.875 9.5 10.875H12.875V7C12.875 6.65482 13.1548 6.375 13.5 6.375Z" fill="black"/>
<defs>
<linearGradient id="paint0_linear_4706_3628" x1="0" y1="0" x2="32" y2="32" gradientUnits="userSpaceOnUse">
<stop stop-color="#EDAD4D"/>
<stop offset="1" stop-color="#FADB5C"/>
</linearGradient>
</defs>
</svg>
