<?xml version="1.0" encoding="utf-8"?>
<!-- Generator: Adobe Illustrator 25.4.1, SVG Export Plug-In . SVG Version: 6.00 Build 0)  -->
<svg version="1.1" xmlns="http://www.w3.org/2000/svg" xmlns:xlink="http://www.w3.org/1999/xlink" x="0px" y="0px"
	 viewBox="0 0 189 47" style="enable-background:new 0 0 189 47;" xml:space="preserve">
<style type="text/css">
	.st0{fill:#FFFFFF;}
	.st1{fill-rule:evenodd;clip-rule:evenodd;fill:#FFFFFF;}
	.st2{fill:#1C1D29;}
	.st3{fill-rule:evenodd;clip-rule:evenodd;fill:#EB9722;}
	.st4{fill-rule:evenodd;clip-rule:evenodd;fill:#F0D01C;}
	.st5{fill-rule:evenodd;clip-rule:evenodd;fill:#6A7892;}
	.st6{fill-rule:evenodd;clip-rule:evenodd;fill:#394458;}
	.st7{fill-rule:evenodd;clip-rule:evenodd;fill:#7A4B9E;}
	.st8{fill-rule:evenodd;clip-rule:evenodd;fill:#67318D;}
	.st9{fill-rule:evenodd;clip-rule:evenodd;fill:#FFF7D5;}
	.st10{fill-rule:evenodd;clip-rule:evenodd;fill:#1C1D29;}
	.st11{fill-rule:evenodd;clip-rule:evenodd;fill:#F89522;}
	.st12{fill-rule:evenodd;clip-rule:evenodd;fill:#FDCFB0;}
	.st13{fill-rule:evenodd;clip-rule:evenodd;fill:#F9A680;}
</style>
<g id="Layer_1">
	<g>
		<path class="st0" d="M59.75,15.81h3.97v11.25c0,1.54-0.35,2.67-1.05,3.37c-0.7,0.7-1.82,1.05-3.37,1.05h-5.08
			c-1.54,0-2.67-0.35-3.37-1.05c-0.7-0.7-1.05-1.82-1.05-3.37V15.81h3.97v11.25c0,0.88,0.44,1.32,1.32,1.32h3.31
			c0.88,0,1.32-0.44,1.32-1.32V15.81z"/>
		<path class="st0" d="M70.34,28.17h8.05v3.09H66.37V15.81h3.97V28.17z"/>
		<path class="st0" d="M84.8,31.26h-3.97V18.9h-4.63v-3.09h13.24v3.09H84.8V31.26z"/>
		<path class="st0" d="M98.26,31.26h-7.94v-3.09h1.99V18.9h-1.99v-3.09h7.94v3.09h-1.99v9.27h1.99V31.26z"/>
		<path class="st0" d="M109.62,31.26h-4.3l5.85-15.45h4.41l5.85,15.45h-4.3l-0.99-2.76h-5.52L109.62,31.26z M111.61,25.63h3.53
			l-1.77-5.19L111.61,25.63z"/>
		<path class="st0" d="M122.53,15.81h9.27c1.54,0,2.67,0.35,3.37,1.05s1.05,1.82,1.05,3.37v1.99c0,1.22-0.2,2.17-0.61,2.85
			s-1.05,1.12-1.93,1.35l2.76,4.86h-4.3l-2.54-4.63h-3.09v4.63h-3.97V15.81z M132.24,20.23c0-0.88-0.44-1.32-1.32-1.32h-4.41v4.63
			h4.41c0.88,0,1.32-0.44,1.32-1.32V20.23z"/>
		<path class="st0" d="M150.67,31.26h-12.25V15.81h12.25v3.09h-8.28v2.98h6.51v3.09h-6.51v3.2h8.28V31.26z"/>
		<path class="st0" d="M165.9,31.26h-4.19l-5.3-9.27v9.27h-3.97V15.81h4.19l5.3,9.27v-9.27h3.97V31.26z"/>
		<path class="st0" d="M171.3,31.26H167l5.85-15.45h4.41l5.85,15.45h-4.3l-0.99-2.76h-5.52L171.3,31.26z M173.29,25.63h3.53
			l-1.77-5.19L173.29,25.63z"/>
	</g>
</g>
<g id="Layer_2">
	<g>
		<path class="st1" d="M24.91,4.04c11.11,0,20.11,9.01,20.11,20.11s-9.01,20.11-20.11,20.11S4.8,35.26,4.8,24.15
			S13.81,4.04,24.91,4.04L24.91,4.04z M24.91,5.77c10.15,0,18.38,8.23,18.38,18.38c0,10.15-8.23,18.38-18.38,18.38
			S6.53,34.3,6.53,24.15C6.53,14,14.76,5.77,24.91,5.77L24.91,5.77z"/>
		<path class="st2" d="M8.68,15.21l2.32-1.64l0.95-0.67l0.18,1.16l1.38,8.91l0.15,0.95l-0.93-0.1l-2.58-0.28l-0.37-0.04l-0.19-0.33
			c-0.47-0.83-0.86-2.23-1.08-3.65c-0.23-1.45-0.3-2.94-0.12-3.86l0.06-0.29L8.68,15.21L8.68,15.21z M10.88,15.45l-1.12,0.79
			c-0.09,0.77-0.01,1.92,0.17,3.05c0.17,1.08,0.43,2.12,0.74,2.82l1.26,0.13L10.88,15.45L10.88,15.45z"/>
		<path class="st3" d="M9.09,15.82c0.77-0.55,1.55-1.09,2.32-1.64c0.46,2.97,0.92,5.94,1.38,8.91c-0.86-0.09-1.72-0.18-2.58-0.28
			C9.35,21.3,8.77,17.48,9.09,15.82L9.09,15.82z"/>
		<path class="st4" d="M11.74,16.25l0.73,4.72c-1.03,0.14-1.99,0.23-2.86,0.25c-0.35-1.25-0.58-2.81-0.6-4.04
			C9.82,16.85,10.74,16.54,11.74,16.25L11.74,16.25z"/>
		<path class="st2" d="M35.26,28.55l-1.1-1.09c-0.3-0.29-0.45-0.69-0.45-1.09c0-0.4,0.14-0.8,0.44-1.1l5.89-5.96
			c0.27-0.27,0.62-0.41,0.96-0.41l0,0c0.34,0,0.69,0.13,0.96,0.4c0.37,0.37,1,0.87,1.29,1.32c0.17,0.25,0.25,0.55,0.25,0.85
			c0,0.34-0.1,0.68-0.31,0.95c-0.02,0.03-4.44,4.51-6.02,6.1c-0.27,0.27-0.62,0.41-0.96,0.41C35.87,28.95,35.53,28.81,35.26,28.55
			L35.26,28.55z M35.31,26.36l0.9,0.89l5.7-5.76l-0.9-0.89L35.31,26.36L35.31,26.36z"/>
		<path class="st5" d="M35.75,27.92l-1.1-1.09c-0.26-0.25-0.26-0.67,0-0.93l5.89-5.96c0.25-0.26,0.67-0.26,0.93-0.01l1.1,1.09
			c0.26,0.25,0.26,0.67,0,0.93l-5.89,5.96C36.42,28.17,36.01,28.17,35.75,27.92L35.75,27.92z"/>
		<path class="st6" d="M35.57,27.74l-0.74-0.73c-0.17-0.17-0.17-0.45,0-0.63l6.19-6.26c0.17-0.17,0.45-0.17,0.63,0l0.74,0.73
			c0.17,0.17,0.17,0.45,0,0.63l-6.19,6.26C36.03,27.91,35.75,27.91,35.57,27.74L35.57,27.74z"/>
		<path class="st2" d="M31.68,23.46c0.87-0.88,0.86-0.87,0.91-0.9c0.23-0.18,0.51-0.28,0.78-0.28c0.32,0,0.65,0.12,0.9,0.37l0.01,0
			l0,0l0,0l5.63,5.57l0.01,0l0,0l0,0c0.25,0.25,0.38,0.59,0.38,0.92c0,0.22-0.05,0.43-0.15,0.63c-0.11,0.22-0.79,0.88-1.02,1.11
			c-0.25,0.25-0.57,0.38-0.89,0.38c-0.32,0-0.65-0.12-0.9-0.37l-5.63-5.57c-0.26-0.25-0.38-0.59-0.39-0.93
			C31.31,24.05,31.43,23.71,31.68,23.46L31.68,23.46z M33.38,24.1l-0.28,0.28l5.11,5.06l0.28-0.28L33.38,24.1L33.38,24.1z"/>
		<path class="st4" d="M32.26,24.06l0.8-0.81c0.18-0.18,0.47-0.18,0.65,0l5.63,5.57c0.18,0.18,0.18,0.47,0,0.65l-0.8,0.81
			c-0.18,0.18-0.47,0.18-0.65,0l-5.63-5.57C32.08,24.53,32.08,24.24,32.26,24.06L32.26,24.06z"/>
		<path class="st3" d="M33.06,24.85l0.8-0.81c0.18-0.18,0.47-0.18,0.65,0l4.03,3.99c0.18,0.18,0.18,0.47,0,0.65l-0.8,0.81
			c-0.18,0.18-0.47,0.18-0.65,0l-4.03-3.99C32.88,25.33,32.88,25.03,33.06,24.85L33.06,24.85z"/>
		<path class="st2" d="M18.62,32.31l-1.4-3.64c-0.7,0.96-1.44,2.29-2.16,3.78c-0.87,1.82-1.68,3.86-2.31,5.75
			c-0.55-0.46-1.08-0.95-1.57-1.47c0.61-1.74,1.34-3.55,2.13-5.19c1.14-2.39,2.41-4.44,3.56-5.44l1.04-0.89l0.51,1.33l2.15,5.57
			l0.16,0.41l-0.2,0.37l-4.05,7.73c-0.59-0.29-1.16-0.61-1.71-0.96L18.62,32.31L18.62,32.31z"/>
		<path class="st7" d="M19.68,32.41c-0.72-1.86-1.43-3.72-2.15-5.57c-1.85,1.59-4.13,6.42-5.57,10.65c1.1,1.03,2.33,1.92,3.65,2.67
			L19.68,32.41L19.68,32.41z"/>
		<path class="st2" d="M18.91,27c-0.81,1.56-1.42,3.66-1.87,5.87c-0.54,2.63-0.84,5.39-0.97,7.54c-0.68-0.36-1.34-0.75-1.96-1.19
			c0.16-2.04,0.46-4.45,0.93-6.76c0.53-2.63,1.3-5.15,2.36-6.96l0.28-0.47L18.23,25c2.42-0.14,4.86-0.5,7.31-0.85
			c2.48-0.36,4.96-0.72,7.49-0.87l0.53-0.03l0.33,0.42c1.47,1.89,2.56,4.65,3.27,7.71c0.44,1.9,0.74,3.92,0.9,5.94
			c-0.61,0.58-1.26,1.13-1.94,1.63c-0.11-2.38-0.43-4.84-0.95-7.11c-0.59-2.56-1.45-4.85-2.57-6.48c-2.24,0.16-4.5,0.49-6.76,0.82
			C23.54,26.51,21.24,26.84,18.91,27L18.91,27z"/>
		<path class="st8" d="M18.29,26.02c-1.98,3.37-2.9,9.57-3.2,13.84c2.87,1.73,6.23,2.73,9.82,2.73c4.63,0,8.88-1.66,12.18-4.41
			c-0.33-5.31-1.65-10.84-4.01-13.88C28.14,24.59,23.23,25.73,18.29,26.02L18.29,26.02z"/>
		<path class="st9" d="M16.68,30.04c-0.9,3.18-1.39,6.94-1.59,9.82c0.32,0.19,0.65,0.38,0.98,0.55C16.05,37,16.26,33.39,16.68,30.04
			L16.68,30.04z"/>
		<path class="st7" d="M36.08,38.96c-0.04-3.56-0.3-7.24-0.9-9.9c-2.03-0.49-4.06-0.98-6.09-1.47c-0.92,0.63-1.28,2.4-2.2,3.03
			c3.48,1.9,4.52,7.14,3.49,11.17C32.45,41.17,34.38,40.2,36.08,38.96L36.08,38.96z"/>
		<path class="st8" d="M18.29,26.02c-0.64,1.09-1.17,2.49-1.61,4.02c0.35,0.12,0.73,0.21,1.14,0.28c4.96,0.85,10.69,0.65,16-1.06
			c0.52-0.21,0.97-0.55,1.36-0.99c-0.57-1.55-1.27-2.91-2.09-3.97C28.14,24.59,23.23,25.73,18.29,26.02L18.29,26.02z"/>
		<path class="st2" d="M28.15,25.78c-0.78,0.11-1.55,0.22-2.33,0.33c-2.02,0.29-4.03,0.59-6.07,0.76c0.47,0.9,0.99,1.7,1.56,2.43
			c0.69,0.88,1.47,1.68,2.32,2.47c0.33-0.19,0.66-0.36,1-0.53c0.42-0.21,0.84-0.42,1.22-0.66L28.15,25.78L28.15,25.78z M25.55,24.21
			c1.38-0.2,2.77-0.4,4.12-0.56l1.74-0.21l-0.76,1.58l-3.18,6.64l-0.11,0.24l-0.22,0.15c-0.55,0.37-1.1,0.65-1.64,0.92
			c-0.49,0.25-0.99,0.5-1.44,0.8l-0.62,0.41l-0.56-0.49c-1.13-0.99-2.16-2.02-3.08-3.2c-0.93-1.19-1.74-2.52-2.4-4.1l-0.53-1.25
			l1.36-0.08C20.65,24.92,23.1,24.56,25.55,24.21L25.55,24.21z"/>
		<path class="st10" d="M29.78,24.6c-3.83,0.45-7.65,1.2-11.49,1.42c1.26,3,3.04,5.02,5.23,6.95c1-0.67,2.08-1.05,3.08-1.72
			L29.78,24.6L29.78,24.6z"/>
		<path class="st2" d="M20.22,42c1.19-3.03,2.59-5.9,4.11-8.59c1.59-2.82,3.33-5.44,5.11-7.81c-0.06,0.01-0.12,0.02-0.18,0.03
			c-1.56,1.33-3.52,3.99-5.4,7.05c-1.8,2.93-3.52,6.2-4.74,9.01c-0.62-0.2-1.22-0.42-1.8-0.68c1.27-2.92,3.04-6.32,4.9-9.34
			c2.06-3.35,4.25-6.28,6.04-7.7l0.21-0.16l0.27-0.04c1.79-0.23,3.16-0.44,5.05-0.55l-1.36,1.69c-2.24,2.77-4.44,5.95-6.42,9.46
			c-1.43,2.52-2.74,5.21-3.87,8.03C21.49,42.29,20.85,42.16,20.22,42L20.22,42z"/>
		<path class="st11" d="M21.17,42.22c2.75-6.91,6.57-13.04,10.5-17.92c-1.41,0.08-1.41,0.23-2.82,0.42
			c-3.23,2.57-8.04,10.65-10.64,16.65C19.16,41.73,20.15,42.01,21.17,42.22L21.17,42.22z"/>
		<path class="st3" d="M27.15,30.6c1.43-2.24,2.94-4.32,4.46-6.21c-0.58,0.05-1.16,0.11-1.75,0.17c-0.25,0.05-0.56,0.11-1.01,0.16
			c-1.45,1.15-3.21,3.41-4.95,6.08C24.98,30.78,26.06,30.72,27.15,30.6L27.15,30.6z"/>
		<path class="st2" d="M11.81,15.97c0.13,1.94,0.36,3.52,0.69,4.9c0.32,1.38,0.74,2.56,1.25,3.71c0.31,0.7,0.72,1.19,1.24,1.51
			c0.55,0.35,1.25,0.54,2.09,0.65l0,0c2.5,0.3,5.2,0.32,7.93,0c2.52-0.3,5.07-0.88,7.49-1.8c0.58-0.28,1.03-0.79,1.38-1.46
			c0.42-0.82,0.67-1.86,0.77-3.01l0-0.03c0.24-2.15,0.26-4,0.03-5.77c-0.23-1.77-0.7-3.47-1.43-5.32c-0.69-1.75-2.3-2.64-4.21-3.01
			c-3-0.58-6.68,0.08-8.99,0.8c-2.88,0.89-5.04,1.56-6.37,2.76C12.41,11.07,11.78,12.83,11.81,15.97L11.81,15.97z M10.62,21.3
			c-0.35-1.49-0.6-3.19-0.74-5.26l0-0.06c-0.04-3.79,0.8-5.98,2.51-7.51c1.65-1.48,3.98-2.21,7.08-3.17
			c2.53-0.78,6.57-1.5,9.93-0.85c2.52,0.49,4.68,1.73,5.66,4.22c0.79,2,1.3,3.84,1.55,5.78c0.25,1.93,0.24,3.93-0.02,6.23
			c-0.11,1.37-0.43,2.65-0.98,3.71c-0.54,1.04-1.3,1.86-2.29,2.32l-0.07,0.03c-2.59,0.98-5.3,1.61-7.98,1.92
			c-2.87,0.34-5.73,0.31-8.4-0.01l-0.01,0c-1.11-0.14-2.06-0.42-2.88-0.93c-0.85-0.53-1.51-1.29-1.99-2.38
			C11.43,24.1,10.97,22.81,10.62,21.3L10.62,21.3z"/>
		<path class="st8" d="M10.84,15.99c0.27,4.03,0.96,6.57,2.02,8.98c0.79,1.79,2.16,2.49,4.1,2.74c5,0.6,10.71,0.11,15.93-1.86
			c1.66-0.78,2.53-2.86,2.73-5.27c0.5-4.45,0.05-7.7-1.46-11.55c-2.03-5.16-10.29-4.06-14.39-2.79
			C13.78,8.09,10.77,9.04,10.84,15.99L10.84,15.99z"/>
		<path class="st9" d="M10.84,15.99c0.27,4.03,0.96,6.57,2.02,8.98c0.59,1.34,1.51,2.07,2.76,2.46c-4.09-5.4-4.58-13.85-2.46-18.34
			C11.59,10.43,10.81,12.41,10.84,15.99L10.84,15.99z"/>
		<path class="st7" d="M30.28,26.7c0.88-0.25,1.75-0.53,2.61-0.86c1.66-0.78,2.53-2.86,2.73-5.27c0.5-4.45,0.05-7.7-1.46-11.55
			c-1.47-3.74-6.22-4.19-10.28-3.67C30.36,8.28,31.62,21.05,30.28,26.7L30.28,26.7z"/>
		<path class="st10" d="M10.58,15.9c0.03,0.43,0.06,0.84,0.1,1.24c6.95-3.31,15.36-4.26,25.21-2.87c-0.25-1.82-0.75-3.58-1.5-5.49
			c-0.08-0.19-0.16-0.37-0.25-0.55c-8.25-0.25-17.38,1.78-23.35,4.71C10.64,13.8,10.57,14.77,10.58,15.9L10.58,15.9z"/>
		<path class="st2" d="M11.93,16.55c0.03,0.71,0.09,1.41,0.17,2.08c0.09,0.7,0.21,1.37,0.34,1.97c3.24,0.45,7.18,0.32,11.23-0.45
			c3.78-0.72,7.65-1.99,11.16-3.85c-0.04-0.77-0.12-1.53-0.24-2.28c-0.12-0.7-0.27-1.39-0.46-2.08c-4.56,0.15-8.63,0.64-12.22,1.39
			C18.01,14.14,14.69,15.26,11.93,16.55L11.93,16.55z M10.18,18.85c-0.12-0.93-0.19-1.91-0.2-2.91l-0.01-0.6l0.54-0.27
			c3.01-1.47,6.66-2.74,10.98-3.64c3.89-0.81,8.32-1.33,13.31-1.45l0.73-0.02l0.22,0.7c0.33,1.04,0.57,2.05,0.74,3.05
			c0.17,1.01,0.26,2.05,0.28,3.14l0.01,0.58l-0.5,0.28c-3.83,2.12-8.09,3.55-12.24,4.34c-4.55,0.86-8.98,0.96-12.55,0.36l-0.63-0.11
			l-0.16-0.62C10.5,20.84,10.31,19.88,10.18,18.85L10.18,18.85z"/>
		<path class="st12" d="M10.94,15.94c0.02,2.04,0.32,3.98,0.71,5.51c6.63,1.12,16.34-0.25,24.16-4.59
			c-0.04-2.07-0.36-3.95-0.97-5.92C24.46,11.19,16.53,13.21,10.94,15.94L10.94,15.94z"/>
		<path class="st9" d="M10.94,15.94c0.02,2.04,0.32,3.98,0.71,5.51c0.37,0.06,0.75,0.12,1.14,0.16c-0.59-2.04-0.87-4.15-0.86-6.14
			C11.59,15.63,11.26,15.78,10.94,15.94L10.94,15.94z"/>
		<path class="st13" d="M30.07,11.2c-5.77,0.47-10.65,1.52-14.69,2.91c4.71-1.09,10.99-1.86,14.92-1.45
			C30.2,12.23,30.14,11.7,30.07,11.2L30.07,11.2z"/>
		<path class="st13" d="M30.67,19.21c1.77-0.65,3.49-1.43,5.14-2.35c-0.04-2.07-0.36-3.95-0.97-5.92c-2.23,0.05-4.35,0.19-6.35,0.39
			C29.9,13.47,30.48,16.18,30.67,19.21L30.67,19.21z"/>
		<path class="st2" d="M32.23,30.71c-0.51-0.64-0.91-1.12-1.31-1.59c-0.46-0.54-0.91-1.07-1.29-1.55c-0.2-0.26-0.35-0.41-0.46-0.48
			c0,0.21,0.18,0.71,0.43,1.27c0.42,0.98,1.07,2.01,1.51,2.63c0.12,0.17,0.22,0.3,0.29,0.39l0.27,0.33l-0.07,0.42
			c-0.18,1.06-0.13,1.96,0.12,2.64c0.14,0.4,0.35,0.72,0.61,0.96c0.24,0.22,0.54,0.36,0.89,0.42c0.43,0.07,0.94,0.02,1.51-0.18
			c0.48-0.17,0.91-0.52,1.23-0.97c0.25-0.35,0.42-0.76,0.49-1.2c0.07-0.43,0.04-0.88-0.12-1.32c-0.21-0.58-0.64-1.16-1.37-1.67
			l-0.41-0.29l0.01-0.49c0-0.1,0-0.16,0.01-0.24c0.03-1.04,0.11-4.01-0.12-4.02c-0.41-0.01-0.49,1.38-0.52,2.57
			c-0.01,0.28-0.01,0.54-0.01,0.77c0,0.46-0.01,0.86-0.03,1.11l-0.21,2.35L32.23,30.71L32.23,30.71z M31.1,26.42
			c0.37,0.47,0.69,0.85,0.99,1.21c0.11-1.87,0.54-3.78,2.4-3.74c2,0.05,1.99,3.99,1.94,5.68c0.83,0.68,1.36,1.46,1.65,2.26
			c0.27,0.75,0.32,1.52,0.2,2.24c-0.12,0.72-0.4,1.39-0.81,1.96c-0.54,0.76-1.28,1.36-2.13,1.66c-0.87,0.31-1.7,0.39-2.44,0.26
			c-0.69-0.12-1.3-0.42-1.81-0.87c-0.49-0.44-0.88-1.02-1.13-1.72c-0.31-0.88-0.42-1.95-0.26-3.17c-0.04-0.05-0.07-0.1-0.11-0.15
			c-0.5-0.7-1.24-1.87-1.71-2.97c-0.6-1.39-0.79-2.77,0.13-3.54v0c0.01-0.01,0.04-0.03,0.09-0.07c0.32-0.22,0.78-0.43,1.41-0.26
			C29.98,25.35,30.52,25.68,31.1,26.42L31.1,26.42z M29.19,27.01L29.19,27.01L29.19,27.01C29.2,27,29.2,27,29.19,27.01L29.19,27.01z
			"/>
		<path class="st12" d="M32.96,30.13c-0.91-1.15-1.73-2.04-2.59-3.13c-0.88-1.12-1.43-0.95-1.71-0.75
			c-1.28,0.91,1.33,4.86,2.03,5.72c-0.65,3.78,1.4,5.92,4.34,4.87c2.32-0.83,3.72-4.52,0.46-6.8c0.02-0.98,0.22-5.18-1.02-5.21
			C32.67,24.79,33.08,28.8,32.96,30.13L32.96,30.13z"/>
		<path class="st13" d="M32.96,30.13c-0.23-0.3-0.46-0.58-0.69-0.85c-0.06,1.29-1.71,1.85-2.61,1.19c0.41,0.67,0.81,1.23,1.03,1.5
			c-0.32,1.83,0,3.28,0.75,4.17c0.95-1.02,3.18-0.67,4.27,0.36c1.88-1.23,2.71-4.41-0.22-6.46c0.01-0.33,0.04-0.4,0.02-1.19
			c-0.8,0.65-1.99,0.56-2.52,0.01C32.98,29.37,32.99,29.82,32.96,30.13L32.96,30.13z"/>
		<path class="st2" d="M32.17,31.38c0.56,0.12,0.95,0.51,1.16,1.02c0.09,0.23,0.15,0.47,0.17,0.72c0.02,0.24,0,0.49-0.05,0.74
			c-0.14,0.68-0.56,1.31-1.26,1.6c-0.42,0.17-1.05,0.18-1.61,0.05c-0.56-0.13-1.1-0.41-1.38-0.79l0,0
			c-0.28-0.38-0.36-0.96-0.31-1.49c0.03-0.28,0.09-0.56,0.18-0.79c0.12-0.3,0.29-0.56,0.52-0.72l0,0c0.2-0.14,0.42-0.21,0.67-0.19
			c0.25,0,0.52-0.01,0.8-0.03c0.28-0.02,0.55-0.06,0.81-0.11l0.15-0.03L32.17,31.38L32.17,31.38z M31.93,32.98
			c-0.01-0.02-0.02-0.04-0.03-0.06c-0.24,0.04-0.48,0.07-0.71,0.09c-0.23,0.02-0.47,0.03-0.72,0.03c-0.03,0.1-0.06,0.22-0.07,0.33
			c-0.02,0.21-0.01,0.39,0.04,0.46v0c0.05,0.07,0.24,0.14,0.48,0.19c0.28,0.07,0.56,0.08,0.69,0.03c0.19-0.08,0.3-0.28,0.35-0.51
			c0.02-0.1,0.03-0.21,0.02-0.32C31.98,33.13,31.96,33.05,31.93,32.98L31.93,32.98z"/>
		<path class="st12" d="M32.02,32.12c0.98,0.21,1.01,2.17-0.12,2.63c-0.55,0.22-1.75-0.02-2.08-0.48c-0.4-0.56-0.1-2.05,0.4-2
			C30.83,32.29,31.43,32.24,32.02,32.12L32.02,32.12z"/>
		<path class="st2" d="M35.35,34.5c0.01,0.02,0.06,0.03,0.11,0.04c0.12,0.01,0.27-0.01,0.42-0.06c0.18-0.06,0.36-0.15,0.52-0.26
			c0.27-0.18,0.47-0.39,0.48-0.54c0-0.03-0.05-0.11-0.11-0.21c-0.04-0.06-0.1-0.12-0.15-0.17l-0.05,0.03
			c-0.18,0.11-0.38,0.23-0.6,0.38C35.57,33.98,35.2,34.28,35.35,34.5L35.35,34.5z M35.33,36.05c-0.5-0.04-0.94-0.26-1.24-0.7
			c-0.87-1.29,0-2.21,1.03-2.9c0.21-0.14,0.45-0.29,0.67-0.42c0.03-0.02,0.06-0.03,0.26-0.16l0,0c0.2-0.13,0.42-0.18,0.65-0.16
			c0.26,0.02,0.53,0.14,0.77,0.32c0.19,0.14,0.37,0.33,0.53,0.54c0.27,0.36,0.44,0.81,0.41,1.23c-0.06,0.64-0.53,1.25-1.15,1.67
			c-0.28,0.19-0.59,0.34-0.91,0.44C36.01,36.03,35.66,36.08,35.33,36.05L35.33,36.05z"/>
		<path class="st12" d="M34.72,34.93c0.66,0.97,2.84-0.14,2.93-1.18c0.05-0.6-0.84-1.48-1.2-1.22
			C35.59,33.05,33.99,33.84,34.72,34.93L34.72,34.93z"/>
		<path class="st10" d="M16.35,14.82c1.19-0.18,2.35,1,2.61,2.64c0.25,1.64-0.5,3.12-1.69,3.3c-1.19,0.18-2.35-1-2.61-2.64
			C14.41,16.48,15.17,15.01,16.35,14.82L16.35,14.82z"/>
		<path class="st1" d="M17.12,15.83c0.5-0.08,1,0.42,1.1,1.12c0.11,0.69-0.21,1.32-0.71,1.4c-0.5,0.08-1-0.42-1.1-1.12
			C16.3,16.53,16.62,15.91,17.12,15.83L17.12,15.83z"/>
		<path class="st10" d="M25.12,12.71c1.33-0.21,2.64,1.12,2.93,2.96c0.28,1.84-0.56,3.5-1.9,3.71c-1.33,0.21-2.64-1.12-2.93-2.96
			C22.94,14.57,23.79,12.91,25.12,12.71L25.12,12.71z"/>
		<path class="st1" d="M25.99,13.84c0.56-0.09,1.12,0.47,1.24,1.25c0.12,0.78-0.24,1.48-0.8,1.57c-0.56,0.09-1.12-0.47-1.24-1.25
			C25.06,14.63,25.42,13.92,25.99,13.84L25.99,13.84z"/>
		<path class="st2" d="M34.22,32.11c0.04,0.05,0.12,0.07,0.22,0.07c0.15,0,0.33-0.05,0.51-0.13c0.21-0.09,0.41-0.21,0.59-0.36v0
			c0.31-0.25,0.54-0.54,0.53-0.75c0-0.06-0.08-0.17-0.18-0.29c-0.08-0.09-0.18-0.18-0.27-0.24l-0.11,0.08
			c-0.2,0.15-0.42,0.31-0.65,0.5l0,0C34.39,31.37,33.97,31.8,34.22,32.11L34.22,32.11z M34.44,33.69c-0.54,0-1.03-0.18-1.4-0.62
			c-1.07-1.3-0.21-2.39,0.85-3.25v0c0.23-0.19,0.48-0.37,0.72-0.54c0.08-0.06,0.16-0.12,0.28-0.2l0,0c0.19-0.15,0.41-0.22,0.66-0.22
			c0.28,0,0.58,0.1,0.85,0.27c0.22,0.13,0.44,0.32,0.63,0.54c0.32,0.37,0.56,0.83,0.56,1.29c0,0.7-0.45,1.41-1.09,1.93l0,0
			c-0.29,0.24-0.62,0.44-0.96,0.59C35.19,33.6,34.81,33.69,34.44,33.69L34.44,33.69z"/>
		<path class="st12" d="M33.63,32.59c0.85,1.03,3.21-0.47,3.2-1.66c0-0.69-1.11-1.6-1.49-1.26C34.42,30.37,32.69,31.44,33.63,32.59
			L33.63,32.59z"/>
		<path class="st2" d="M23.18,5.93c-2.38,0.31-4.73,0.9-6.92,1.49l-3.89,1.05l3-2.7c1.43-1.29,4.2-2.21,7.22-2.68
			c3.19-0.5,6.72-0.53,9.27,0l0.28,0.06l0.2,0.2c0.76,0.75,1.48,1.68,2.12,2.67c0.64,1.02,1.2,2.13,1.61,3.2l0.35,0.93l-0.95,0.32
			c-0.47,0.16-0.73,0.25-0.99,0.34c-0.39,0.14-0.78,0.27-1,0.35l-0.91,0.31l-0.31-0.92c-0.29-0.88-0.7-1.85-1.17-2.76
			c-0.35-0.69-0.73-1.32-1.12-1.84C27.72,5.57,25.42,5.64,23.18,5.93L23.18,5.93z M33.1,7.49c0.24,0.51,0.47,1.03,0.66,1.54L33.86,9
			l0.02-0.01C33.65,8.49,33.39,7.98,33.1,7.49L33.1,7.49z"/>
		<path class="st11" d="M16.01,6.49c4.43-1.2,9.53-2.36,14.5-1.42c1.05,1.27,2.07,3.39,2.67,5.18c0.7-0.24,1.3-0.45,1.99-0.68
			c-0.76-2-2.08-4.13-3.5-5.53C26.97,3.06,18.7,4.07,16.01,6.49L16.01,6.49z"/>
		<path class="st3" d="M29.21,4.87c0.44,0.05,0.87,0.12,1.3,0.2c1.05,1.27,2.07,3.39,2.67,5.18c0.7-0.24,1.3-0.45,1.99-0.68
			c-0.76-2-2.08-4.13-3.5-5.53c-0.94-0.2-2.03-0.31-3.19-0.35C28.72,4.05,28.96,4.45,29.21,4.87L29.21,4.87z"/>
		<path class="st2" d="M34.62,10.94c-0.17-0.03-0.35-0.05-0.53-0.07c-0.26-0.02-0.52-0.04-0.75-0.05c-0.53,0.74-0.71,2.13-0.59,3.58
			c0.13,1.51,0.59,3.03,1.35,3.91c0.02,0.02,0.04,0.04,0.06,0.06c0.26-0.08,0.52-0.17,0.78-0.27c0.21-0.08,0.42-0.16,0.63-0.26
			L34.62,10.94L34.62,10.94z M34.25,8.96c0.5,0.05,1.02,0.12,1.44,0.25l0.58,0.17L36.36,10l1.13,8.28l0.09,0.68L37,19.27
			c-0.46,0.25-0.95,0.46-1.44,0.64c-0.48,0.18-0.95,0.33-1.39,0.45l-0.43,0.12l-0.36-0.27c-0.24-0.18-0.46-0.39-0.66-0.63
			c-1.03-1.2-1.65-3.14-1.81-5.02c-0.16-1.92,0.15-3.85,1.01-4.97c0.14-0.18,0.29-0.35,0.45-0.49l0.26-0.23l0.34,0.01
			C33.32,8.9,33.78,8.92,34.25,8.96L34.25,8.96z"/>
		<path class="st3" d="M35.44,10.14c-0.74-0.21-1.83-0.27-2.48-0.29c-1.92,1.65-1.39,7.8,0.96,9.59c0.84-0.24,1.79-0.56,2.65-1.02
			L35.44,10.14L35.44,10.14z"/>
		<path class="st4" d="M32.01,11.62c-0.48,1.93-0.16,4.7,0.84,6.5c1.27-0.24,2.47-0.53,3.57-0.85l-0.81-5.92
			C34.49,11.39,33.27,11.48,32.01,11.62L32.01,11.62z"/>
		<path class="st2" d="M35.54,9.18c0.93,0,1.78,0.64,2.4,1.67c0.53,0.87,0.91,2.06,1.02,3.36c0.02,0.26,0.03,0.52,0.03,0.78
			c0,1.1-0.21,2.1-0.58,2.85c-0.45,0.91-1.13,1.49-1.98,1.57c-0.06,0-0.12,0.01-0.17,0.01c-0.93,0-1.78-0.64-2.4-1.67
			c-0.53-0.87-0.91-2.06-1.02-3.36c-0.02-0.26-0.03-0.52-0.03-0.78c0-1.1,0.21-2.1,0.58-2.85c0.45-0.91,1.13-1.49,1.98-1.57
			C35.43,9.18,35.49,9.18,35.54,9.18L35.54,9.18z M36.38,11.86c-0.29-0.48-0.59-0.77-0.85-0.77c-0.01,0-0.02,0-0.02,0
			c-0.16,0.01-0.34,0.21-0.49,0.53c-0.24,0.48-0.38,1.17-0.38,1.98c0,0.19,0.01,0.39,0.03,0.61c0.09,1,0.37,1.89,0.75,2.52
			c0.29,0.48,0.59,0.77,0.85,0.77c0.01,0,0.02,0,0.02,0c0.16-0.01,0.34-0.21,0.49-0.53c0.24-0.48,0.38-1.17,0.38-1.98
			c0-0.19-0.01-0.39-0.03-0.61C37.05,13.39,36.77,12.5,36.38,11.86L36.38,11.86z"/>
		<path class="st4" d="M35.54,10.14c1.19,0,2.31,1.86,2.51,4.16c0.2,2.3-0.6,4.16-1.78,4.16c-1.19,0-2.31-1.86-2.51-4.16
			C33.55,12,34.35,10.14,35.54,10.14L35.54,10.14z"/>
		<path class="st3" d="M36.17,10.74c0.78,0.54,1.42,1.91,1.56,3.52c0.18,2.08-0.54,3.76-1.61,3.76c-0.17,0-0.33-0.04-0.49-0.12
			C36.41,15.87,36.66,12.59,36.17,10.74L36.17,10.74z"/>
		<path class="st10" d="M35.71,12.16c0.61,0,1.19,0.96,1.29,2.14c0.1,1.18-0.31,2.14-0.92,2.14c-0.61,0-1.19-0.96-1.29-2.14
			C34.69,13.12,35.1,12.16,35.71,12.16L35.71,12.16z"/>
	</g>
</g>
</svg>
