<svg width="120" height="120" viewBox="0 0 120 120" fill="none" xmlns="http://www.w3.org/2000/svg">
<path fill-rule="evenodd" clip-rule="evenodd" d="M120 60C120 7.05881 112.941 0 60 0C7.05872 0 0 7.05881 0 60C0 112.941 7.05872 120 60 120C112.941 120 120 112.941 120 60Z" fill="#7A52D1"/>
<path fill-rule="evenodd" clip-rule="evenodd" d="M30 60.4551V36H42V60.6457C42.0308 66.8662 43.8149 71.0507 46.7673 73.9545C49.7915 76.8974 53.8304 78.5999 60 78.5999C66.1827 78.5999 70.2649 76.8898 73.2814 73.9543C76.2085 71.075 78 66.8457 78 60.4551V36H90V60.4551C90 69.2341 87.4263 76.8811 81.6625 82.5426C75.9833 88.0759 68.6737 90.5999 60 90.5999C51.3135 90.5999 44.0577 88.0684 38.3862 82.5425C32.6514 76.9095 30.0385 69.1295 30 60.4551ZM66 60V36H54V60.0667C54.0099 62.3302 54.6046 63.8525 55.589 64.9089C56.5972 65.979 57.9434 66.5981 60 66.5981C62.061 66.5981 63.4215 65.9763 64.4271 64.9088C65.4027 63.8618 66 62.3239 66 60Z" fill="white"/>
</svg>
