<svg id="svg" version="1.1" xmlns="http://www.w3.org/2000/svg" xmlns:xlink="http://www.w3.org/1999/xlink" width="400" height="400" viewBox="0, 0, 400,400"><g id="svgg"><path id="path0" d="M132.167 115.213 C 127.059 116.960,124.921 121.932,126.954 127.333 C 127.587 129.014,130.123 135.716,131.244 138.667 C 131.540 139.446,132.477 141.921,133.327 144.167 C 134.177 146.412,135.115 148.887,135.412 149.667 C 135.708 150.446,136.445 152.396,137.049 154.000 C 137.652 155.604,138.604 158.117,139.164 159.583 C 139.724 161.050,140.847 164.012,141.661 166.167 C 142.475 168.321,143.473 170.963,143.879 172.038 C 144.286 173.113,144.579 174.032,144.532 174.080 C 144.484 174.127,140.437 174.167,135.538 174.167 C 125.650 174.167,125.504 174.180,123.558 175.262 C 119.448 177.546,117.776 183.254,120.119 187.000 C 121.562 189.308,123.398 190.705,125.703 191.248 C 127.068 191.570,272.525 191.633,274.033 191.312 C 280.675 189.901,283.068 181.454,278.184 176.667 C 275.615 174.150,275.729 174.167,261.537 174.167 L 249.811 174.167 249.925 173.792 C 250.053 173.374,252.043 168.080,252.416 167.167 C 252.547 166.846,253.069 165.477,253.577 164.125 C 254.085 162.773,254.915 160.560,255.423 159.208 C 255.931 157.856,256.453 156.487,256.584 156.167 C 256.953 155.264,258.518 151.134,258.668 150.667 C 258.742 150.438,259.304 148.938,259.917 147.333 C 260.530 145.729,261.542 143.067,262.166 141.417 C 262.789 139.767,263.840 136.992,264.501 135.250 C 268.343 125.128,268.333 125.159,268.333 123.469 C 268.333 115.807,259.029 111.953,253.538 117.342 C 252.101 118.752,252.246 118.434,248.473 128.417 C 247.641 130.617,246.718 133.054,246.421 133.833 C 246.125 134.612,245.388 136.563,244.785 138.167 C 244.181 139.771,243.229 142.283,242.668 143.750 C 242.108 145.217,241.170 147.692,240.584 149.250 C 239.998 150.808,239.020 153.396,238.410 155.000 C 237.800 156.604,236.791 159.267,236.168 160.917 C 235.544 162.567,234.492 165.342,233.830 167.083 C 233.168 168.825,232.304 171.112,231.910 172.167 L 231.194 174.083 197.260 174.125 L 163.327 174.167 163.171 173.792 C 163.085 173.586,162.815 172.892,162.571 172.250 C 162.327 171.608,161.954 170.633,161.742 170.083 C 161.159 168.569,159.602 164.449,158.938 162.667 C 158.614 161.796,157.890 159.883,157.328 158.417 C 156.767 156.950,156.058 155.075,155.752 154.250 C 155.447 153.425,154.508 150.950,153.666 148.750 C 152.824 146.550,152.074 144.563,152.000 144.333 C 151.926 144.104,151.404 142.717,150.841 141.250 C 149.538 137.854,148.425 134.926,147.833 133.333 C 147.325 131.964,146.398 129.522,144.831 125.417 C 144.271 123.950,143.545 122.037,143.218 121.167 C 141.329 116.143,136.715 113.656,132.167 115.213 M126.750 208.003 C 118.182 208.917,116.254 220.700,124.065 224.406 C 126.068 225.356,125.548 225.333,145.502 225.333 C 163.336 225.333,163.994 225.344,164.154 225.643 C 164.245 225.813,164.538 226.544,164.806 227.268 C 165.253 228.476,166.280 231.190,169.247 239.000 C 169.856 240.604,170.834 243.192,171.420 244.750 C 172.006 246.308,172.943 248.783,173.503 250.250 C 174.062 251.717,174.999 254.192,175.585 255.750 C 176.170 257.308,177.108 259.783,177.668 261.250 C 178.229 262.717,179.181 265.229,179.785 266.833 C 180.388 268.438,181.125 270.387,181.421 271.167 C 182.307 273.494,184.869 280.269,186.745 285.250 C 188.879 290.913,189.395 291.994,190.497 293.118 C 194.798 297.501,202.876 296.403,205.390 291.094 C 205.799 290.230,208.299 283.799,208.666 282.667 C 208.741 282.438,209.262 281.050,209.825 279.583 C 211.129 276.188,212.242 273.259,212.833 271.667 C 213.322 270.351,214.574 267.054,215.333 265.083 C 215.580 264.442,216.063 263.167,216.405 262.250 C 217.709 258.760,218.855 255.728,219.083 255.167 C 219.214 254.846,219.736 253.477,220.244 252.125 C 220.751 250.773,221.582 248.560,222.090 247.208 C 222.597 245.856,223.120 244.487,223.250 244.167 C 223.380 243.846,223.903 242.477,224.410 241.125 C 224.918 239.773,225.749 237.560,226.256 236.208 C 226.764 234.856,227.286 233.487,227.417 233.167 C 227.547 232.846,228.076 231.458,228.591 230.083 C 229.107 228.708,229.721 227.079,229.956 226.462 L 230.383 225.341 252.150 225.295 L 273.917 225.250 275.043 224.798 C 283.487 221.415,282.238 209.161,273.332 208.006 C 271.851 207.814,128.550 207.811,126.750 208.003 M211.667 225.502 C 211.667 225.658,209.808 230.648,209.247 232.000 C 209.114 232.321,208.486 233.971,207.853 235.667 C 207.219 237.362,206.161 240.175,205.501 241.917 C 202.705 249.293,199.336 258.211,198.486 260.481 C 197.654 262.705,197.310 263.501,197.183 263.496 C 197.128 263.494,196.680 262.388,196.186 261.038 C 195.693 259.688,195.152 258.246,194.985 257.833 C 194.818 257.421,194.188 255.771,193.585 254.167 C 192.982 252.563,192.383 250.987,192.253 250.667 C 192.123 250.346,191.754 249.371,191.433 248.500 C 191.112 247.629,190.388 245.717,189.825 244.250 C 189.262 242.783,188.741 241.396,188.668 241.167 C 188.519 240.703,186.957 236.579,186.584 235.667 C 186.453 235.346,185.924 233.958,185.407 232.583 C 184.891 231.208,184.242 229.483,183.964 228.750 C 183.686 228.017,183.281 226.948,183.064 226.375 L 182.670 225.333 197.168 225.333 C 206.858 225.333,211.667 225.389,211.667 225.502 " stroke="none" fill="#fcfbfb" fill-rule="evenodd"></path><path id="path1" d="M198.127 58.451 C 198.334 58.491,198.634 58.490,198.794 58.448 C 198.953 58.406,198.783 58.374,198.417 58.375 C 198.050 58.377,197.920 58.411,198.127 58.451 M184.404 59.369 C 184.556 59.455,184.778 59.455,184.930 59.369 C 185.125 59.260,185.058 59.222,184.667 59.222 C 184.275 59.222,184.208 59.260,184.404 59.369 M214.875 59.282 C 215.035 59.323,215.298 59.323,215.458 59.282 C 215.619 59.240,215.487 59.205,215.167 59.205 C 214.846 59.205,214.715 59.240,214.875 59.282 M172.246 61.173 C 172.187 61.269,171.976 61.303,171.778 61.249 C 171.446 61.159,171.442 61.166,171.726 61.344 C 171.972 61.497,172.090 61.481,172.303 61.268 C 172.451 61.121,172.522 61.000,172.462 61.000 C 172.402 61.000,172.305 61.078,172.246 61.173 M166.876 62.426 C 166.736 62.528,166.444 62.578,166.227 62.536 C 165.987 62.490,165.833 62.541,165.833 62.665 C 165.833 62.787,165.722 62.826,165.555 62.762 C 165.402 62.703,165.216 62.751,165.141 62.869 C 165.034 63.038,165.005 63.034,165.003 62.849 C 165.000 62.660,164.944 62.666,164.706 62.881 C 164.544 63.028,163.963 63.196,163.414 63.254 C 162.866 63.313,162.293 63.472,162.142 63.607 C 161.922 63.805,161.851 63.810,161.780 63.635 C 161.718 63.480,161.689 63.476,161.680 63.620 C 161.672 63.739,161.552 63.779,161.389 63.716 C 161.222 63.652,161.154 63.677,161.217 63.780 C 161.279 63.880,161.110 63.956,160.802 63.964 C 160.516 63.973,160.238 64.040,160.183 64.115 C 160.128 64.189,159.822 64.276,159.503 64.308 C 159.183 64.339,158.733 64.463,158.503 64.582 C 158.272 64.701,157.746 64.889,157.333 65.000 C 156.921 65.111,156.528 65.287,156.461 65.392 C 156.373 65.530,156.338 65.524,156.336 65.371 C 156.334 65.214,156.192 65.233,155.792 65.447 C 155.494 65.605,155.197 65.721,155.132 65.703 C 155.067 65.686,154.354 65.904,153.548 66.189 C 152.223 66.658,151.815 66.782,151.470 66.821 C 151.408 66.828,151.248 66.943,151.114 67.077 C 150.980 67.211,150.693 67.354,150.477 67.395 C 149.878 67.509,149.500 67.686,149.500 67.851 C 149.500 67.933,149.421 68.000,149.323 68.000 C 149.226 68.000,149.202 67.906,149.269 67.792 C 149.336 67.677,149.246 67.705,149.070 67.853 C 148.787 68.091,148.266 68.284,147.507 68.433 C 147.019 68.529,146.000 69.055,146.000 69.211 C 146.000 69.300,145.855 69.334,145.679 69.288 C 145.490 69.239,144.976 69.434,144.429 69.764 C 143.918 70.071,143.388 70.280,143.250 70.227 C 143.113 70.174,143.000 70.218,143.000 70.325 C 143.000 70.432,142.925 70.473,142.833 70.417 C 142.742 70.360,142.667 70.378,142.667 70.457 C 142.667 70.535,142.385 70.697,142.042 70.816 C 141.698 70.935,140.329 71.559,139.000 72.202 C 137.671 72.846,136.508 73.386,136.417 73.401 C 136.203 73.438,135.282 74.031,135.148 74.219 C 135.092 74.297,134.999 74.356,134.941 74.349 C 134.794 74.332,132.936 75.208,132.833 75.343 C 132.787 75.403,132.412 75.618,132.000 75.820 C 130.879 76.368,128.292 77.850,126.057 79.222 C 125.585 79.512,124.835 79.970,124.391 80.239 C 123.947 80.508,122.533 81.441,121.250 82.312 C 119.967 83.183,118.635 84.082,118.292 84.311 C 117.948 84.539,117.667 84.788,117.667 84.863 C 117.667 84.938,117.549 85.000,117.406 85.000 C 117.262 85.000,116.868 85.262,116.531 85.582 C 116.193 85.902,115.869 86.164,115.812 86.165 C 115.721 86.166,115.193 86.554,113.333 87.984 C 113.104 88.161,112.729 88.468,112.500 88.667 C 112.271 88.866,111.827 89.229,111.513 89.473 C 110.944 89.915,109.825 90.841,109.667 91.000 C 109.621 91.046,108.646 91.869,107.500 92.828 C 105.457 94.540,104.333 95.575,101.252 98.583 C 100.407 99.408,99.573 100.207,99.400 100.357 C 99.226 100.508,98.408 101.360,97.583 102.252 C 96.758 103.143,95.821 104.151,95.500 104.493 C 95.179 104.834,94.592 105.481,94.195 105.932 C 93.798 106.382,93.179 107.060,92.820 107.439 C 92.461 107.818,92.167 108.198,92.167 108.284 C 92.167 108.370,91.998 108.593,91.792 108.781 C 91.585 108.968,91.229 109.365,91.000 109.663 C 90.771 109.961,90.461 110.328,90.311 110.478 C 90.161 110.627,89.842 111.042,89.603 111.398 C 89.363 111.755,89.167 111.986,89.167 111.912 C 89.167 111.838,88.862 112.213,88.489 112.745 C 88.117 113.277,87.723 113.805,87.614 113.919 C 87.506 114.033,87.304 114.291,87.167 114.493 C 87.029 114.694,86.729 115.088,86.500 115.367 C 86.271 115.647,86.084 115.922,86.085 115.979 C 86.086 116.037,85.843 116.343,85.544 116.660 C 85.245 116.977,85.000 117.333,85.000 117.451 C 85.000 117.570,84.923 117.667,84.830 117.667 C 84.736 117.667,84.569 117.873,84.458 118.125 C 84.347 118.377,84.214 118.621,84.162 118.667 C 84.110 118.712,83.887 119.013,83.667 119.333 C 83.446 119.654,83.222 119.954,83.167 120.000 C 82.990 120.150,81.667 122.201,81.667 122.326 C 81.667 122.394,81.518 122.582,81.337 122.746 C 81.156 122.910,81.048 123.110,81.097 123.189 C 81.146 123.268,81.116 123.333,81.030 123.333 C 80.944 123.333,80.659 123.746,80.395 124.250 C 80.132 124.754,79.867 125.166,79.807 125.166 C 79.747 125.166,79.729 125.335,79.767 125.542 C 79.806 125.748,79.792 125.823,79.738 125.708 C 79.598 125.414,79.278 125.448,79.392 125.745 C 79.443 125.880,79.371 126.105,79.231 126.245 C 79.091 126.385,79.038 126.502,79.113 126.505 C 79.188 126.508,79.117 126.587,78.955 126.682 C 78.792 126.776,78.698 126.916,78.746 126.993 C 78.793 127.069,78.715 127.177,78.572 127.231 C 78.429 127.286,78.359 127.407,78.416 127.499 C 78.473 127.591,78.447 127.667,78.359 127.667 C 78.270 127.667,78.237 127.817,78.285 128.000 C 78.352 128.255,78.290 128.333,78.025 128.333 C 77.799 128.333,77.708 128.413,77.765 128.562 C 77.813 128.687,77.736 128.835,77.593 128.890 C 77.450 128.945,77.333 129.142,77.333 129.328 C 77.333 129.514,77.240 129.668,77.125 129.669 C 76.986 129.671,77.000 129.726,77.167 129.833 C 77.384 129.974,77.381 129.995,77.144 129.997 C 76.963 129.999,76.833 130.202,76.759 130.592 C 76.698 130.918,76.540 131.226,76.408 131.276 C 76.277 131.327,76.210 131.435,76.261 131.517 C 76.312 131.600,76.282 131.667,76.195 131.667 C 76.107 131.667,75.989 131.854,75.932 132.082 C 75.874 132.311,75.737 132.480,75.626 132.457 C 75.515 132.435,75.397 132.604,75.364 132.833 C 75.331 133.063,75.148 133.419,74.956 133.625 C 74.759 133.838,74.696 134.000,74.810 134.000 C 74.961 134.000,74.966 134.085,74.831 134.338 C 74.731 134.524,74.578 134.631,74.490 134.577 C 74.402 134.522,74.283 134.708,74.227 134.989 C 74.171 135.270,74.062 135.500,73.984 135.500 C 73.907 135.500,73.883 135.603,73.931 135.729 C 73.980 135.854,73.916 136.060,73.789 136.187 C 73.663 136.313,73.551 136.454,73.541 136.500 C 73.530 136.546,73.479 136.715,73.427 136.875 C 73.376 137.035,73.296 137.284,73.251 137.427 C 73.203 137.581,73.083 137.638,72.960 137.567 C 72.844 137.501,72.802 137.504,72.866 137.575 C 72.929 137.646,72.802 137.987,72.583 138.333 C 72.365 138.680,72.231 139.009,72.287 139.065 C 72.343 139.121,72.293 139.167,72.177 139.167 C 72.053 139.167,72.006 139.275,72.064 139.425 C 72.121 139.574,72.093 139.641,71.998 139.582 C 71.906 139.525,71.833 139.668,71.833 139.907 C 71.833 140.141,71.758 140.333,71.667 140.333 C 71.231 140.333,71.776 141.200,72.989 142.434 C 73.178 142.627,73.333 142.854,73.333 142.939 C 73.333 143.023,73.465 143.212,73.625 143.358 C 73.785 143.505,74.291 144.103,74.749 144.687 C 75.207 145.272,75.657 145.842,75.749 145.954 C 75.841 146.066,76.048 146.329,76.209 146.537 C 77.469 148.174,78.906 149.926,79.024 149.972 C 79.102 150.003,79.167 150.113,79.167 150.216 C 79.167 150.320,79.320 150.558,79.507 150.744 C 79.694 150.931,80.380 151.758,81.031 152.583 C 81.682 153.408,82.260 154.121,82.316 154.167 C 82.371 154.212,82.492 154.373,82.583 154.524 C 82.820 154.913,85.010 157.655,85.458 158.123 C 85.665 158.339,85.833 158.558,85.833 158.610 C 85.833 158.662,86.193 159.127,86.633 159.644 C 87.473 160.631,89.632 163.356,89.917 163.791 C 90.008 163.930,90.233 164.207,90.417 164.407 C 90.811 164.835,93.010 167.590,93.250 167.957 C 93.342 168.097,93.567 168.373,93.750 168.571 C 93.933 168.768,94.496 169.478,95.000 170.148 C 95.504 170.818,96.085 171.523,96.292 171.713 C 96.498 171.904,96.667 172.153,96.667 172.266 C 96.667 172.379,96.731 172.497,96.809 172.528 C 96.888 172.558,97.485 173.258,98.136 174.083 C 98.786 174.908,99.472 175.736,99.660 175.923 C 99.847 176.109,100.000 176.353,100.000 176.464 C 100.000 176.576,100.057 176.667,100.127 176.667 C 100.196 176.667,100.664 177.210,101.165 177.875 C 101.666 178.540,102.172 179.143,102.288 179.217 C 102.405 179.290,102.500 179.431,102.500 179.531 C 102.500 179.630,102.669 179.878,102.875 180.081 C 103.081 180.284,103.438 180.701,103.667 181.007 C 104.216 181.740,105.099 182.828,105.507 183.273 C 105.686 183.470,105.833 183.686,105.833 183.754 C 105.833 183.823,106.002 184.045,106.208 184.248 C 106.415 184.451,106.771 184.867,107.000 185.173 C 107.783 186.219,108.480 187.083,108.823 187.434 C 109.012 187.627,109.167 187.842,109.167 187.911 C 109.167 187.980,109.314 188.197,109.493 188.393 C 109.901 188.838,110.784 189.927,111.333 190.660 C 111.563 190.966,111.919 191.382,112.125 191.586 C 112.331 191.789,112.500 192.036,112.500 192.136 C 112.500 192.235,112.595 192.377,112.712 192.450 C 112.828 192.523,113.334 193.127,113.835 193.792 C 114.336 194.456,114.804 195.000,114.873 195.000 C 114.943 195.000,115.000 195.091,115.000 195.202 C 115.000 195.314,115.153 195.558,115.340 195.744 C 115.528 195.931,116.214 196.758,116.864 197.583 C 117.515 198.408,118.112 199.108,118.191 199.139 C 118.269 199.169,118.333 199.287,118.333 199.400 C 118.333 199.514,118.502 199.763,118.708 199.953 C 118.915 200.144,119.496 200.848,120.000 201.518 C 120.504 202.188,121.067 202.898,121.250 203.096 C 121.433 203.294,121.658 203.570,121.750 203.710 C 122.021 204.124,124.220 206.867,124.601 207.266 C 124.794 207.468,125.001 207.761,125.061 207.917 C 125.134 208.108,125.265 208.163,125.460 208.085 C 126.430 207.698,132.816 207.666,200.833 207.708 L 273.750 207.753 274.833 208.131 C 275.429 208.339,276.120 208.657,276.368 208.838 C 276.617 209.019,276.898 209.167,276.994 209.167 C 277.090 209.167,277.683 209.673,278.310 210.292 C 283.118 215.030,281.100 223.092,274.595 225.133 C 273.847 225.367,271.260 225.409,252.105 225.491 L 230.459 225.583 229.562 227.917 C 228.596 230.426,227.970 232.091,227.492 233.417 C 227.327 233.875,226.729 235.450,226.164 236.917 C 225.598 238.383,224.998 239.958,224.830 240.417 C 224.661 240.875,224.321 241.775,224.074 242.417 C 223.826 243.058,223.489 243.958,223.325 244.417 C 223.160 244.875,222.562 246.450,221.997 247.917 C 221.431 249.383,220.831 250.958,220.662 251.417 C 220.494 251.875,220.121 252.850,219.835 253.583 C 219.548 254.317,219.212 255.217,219.088 255.583 C 218.963 255.950,218.627 256.850,218.340 257.583 C 218.054 258.317,217.450 259.892,217.000 261.083 C 216.550 262.275,215.948 263.850,215.663 264.583 C 215.378 265.317,215.004 266.292,214.833 266.750 C 214.107 268.694,213.632 269.968,213.341 270.750 C 213.171 271.208,212.568 272.783,212.003 274.250 C 211.437 275.717,210.835 277.292,210.664 277.750 C 210.494 278.208,210.159 279.108,209.920 279.750 C 209.680 280.392,209.345 281.292,209.174 281.750 C 209.004 282.208,208.404 283.783,207.841 285.250 C 207.278 286.717,206.549 288.629,206.220 289.500 C 204.495 294.070,201.009 296.338,196.348 295.924 L 195.113 295.815 195.578 296.449 C 195.834 296.798,196.165 297.199,196.313 297.341 C 196.462 297.483,196.658 297.719,196.750 297.865 C 196.968 298.212,199.153 300.959,199.583 301.427 C 199.767 301.626,199.992 301.903,200.083 302.043 C 200.368 302.477,202.527 305.203,203.367 306.189 C 203.807 306.706,204.167 307.171,204.167 307.223 C 204.167 307.276,204.335 307.495,204.542 307.710 C 204.939 308.125,207.134 310.859,207.417 311.290 C 207.508 311.430,207.733 311.711,207.917 311.914 C 208.100 312.117,208.662 312.826,209.167 313.489 C 209.671 314.151,210.252 314.851,210.458 315.044 C 210.665 315.236,210.833 315.486,210.833 315.600 C 210.833 315.713,210.898 315.831,210.976 315.861 C 211.094 315.907,212.531 317.660,213.791 319.296 C 213.952 319.504,214.159 319.767,214.251 319.879 C 214.343 319.991,214.793 320.562,215.251 321.146 C 215.709 321.731,216.215 322.329,216.375 322.475 C 216.535 322.621,216.667 322.809,216.667 322.893 C 216.667 322.977,216.835 323.211,217.042 323.414 C 217.248 323.618,217.604 324.034,217.833 324.340 C 218.383 325.073,219.266 326.162,219.673 326.607 C 219.853 326.803,220.000 327.018,220.000 327.083 C 220.000 327.149,220.147 327.364,220.327 327.560 C 220.734 328.005,221.617 329.093,222.167 329.827 C 222.396 330.133,222.752 330.549,222.958 330.752 C 223.165 330.955,223.333 331.177,223.333 331.246 C 223.333 331.314,223.480 331.530,223.660 331.727 C 224.046 332.149,224.916 333.216,225.500 333.986 C 225.729 334.288,226.067 334.712,226.250 334.928 C 226.433 335.145,227.141 336.035,227.822 336.907 C 229.095 338.534,229.367 338.686,230.083 338.166 C 230.175 338.100,230.415 338.060,230.617 338.078 C 230.822 338.096,230.940 338.037,230.883 337.946 C 230.820 337.843,230.979 337.821,231.307 337.886 C 231.641 337.953,231.833 337.925,231.833 337.810 C 231.833 337.710,231.983 337.667,232.167 337.715 C 232.350 337.763,232.500 337.744,232.500 337.674 C 232.500 337.603,232.669 337.556,232.875 337.569 C 233.081 337.582,233.288 337.541,233.335 337.477 C 233.381 337.413,233.644 337.333,233.918 337.299 C 234.192 337.265,234.596 337.137,234.816 337.016 C 235.035 336.895,235.448 336.768,235.733 336.734 C 236.943 336.591,237.173 336.535,237.426 336.326 C 237.648 336.141,237.717 336.144,237.843 336.344 C 237.970 336.544,237.995 336.538,237.997 336.310 C 238.000 336.044,238.777 335.721,238.964 335.909 C 239.014 335.959,238.956 336.000,238.833 336.000 C 238.711 336.000,238.655 336.043,238.708 336.097 C 238.761 336.150,238.998 336.066,239.236 335.911 C 239.473 335.755,239.667 335.684,239.667 335.751 C 239.667 335.819,239.760 335.800,239.875 335.708 C 239.990 335.617,240.215 335.564,240.376 335.590 C 240.537 335.616,240.631 335.577,240.585 335.503 C 240.539 335.429,240.627 335.320,240.779 335.262 C 240.932 335.203,241.108 335.238,241.171 335.340 C 241.252 335.471,241.353 335.460,241.517 335.304 C 241.645 335.183,241.938 335.062,242.167 335.037 C 242.396 335.011,242.608 334.917,242.639 334.827 C 242.670 334.738,242.772 334.712,242.866 334.770 C 242.960 334.828,243.103 334.773,243.183 334.646 C 243.280 334.493,243.329 334.483,243.331 334.616 C 243.333 334.766,243.459 334.772,243.833 334.642 C 244.108 334.546,244.333 334.402,244.333 334.322 C 244.333 334.242,244.446 334.220,244.583 334.273 C 244.721 334.326,244.833 334.282,244.833 334.175 C 244.833 334.068,244.902 334.023,244.986 334.075 C 245.070 334.126,245.176 334.075,245.223 333.959 C 245.281 333.814,245.311 333.810,245.320 333.946 C 245.332 334.123,246.896 333.689,247.417 333.364 C 247.508 333.307,247.719 333.239,247.884 333.213 C 248.049 333.187,248.405 333.052,248.674 332.913 C 248.943 332.774,249.201 332.661,249.247 332.661 C 249.335 332.663,250.942 332.079,251.667 331.782 C 251.896 331.688,252.121 331.599,252.167 331.583 C 252.487 331.474,253.023 331.248,253.667 330.952 C 254.079 330.762,254.492 330.598,254.583 330.589 C 254.675 330.580,255.125 330.395,255.583 330.179 C 256.042 329.963,256.817 329.596,257.307 329.365 C 257.797 329.134,258.303 328.944,258.432 328.944 C 258.561 328.944,258.667 328.891,258.667 328.826 C 258.667 328.761,258.910 328.614,259.208 328.500 C 260.543 327.988,265.038 325.781,265.692 325.315 C 265.936 325.142,266.244 325.000,266.378 325.000 C 266.512 325.000,266.801 324.864,267.019 324.698 C 267.238 324.532,267.792 324.202,268.250 323.965 C 268.708 323.729,269.421 323.343,269.833 323.107 C 270.246 322.871,270.790 322.594,271.042 322.490 C 271.294 322.386,271.500 322.233,271.500 322.150 C 271.500 322.068,271.615 322.000,271.755 322.000 C 271.896 322.000,272.054 321.887,272.106 321.750 C 272.159 321.612,272.318 321.500,272.460 321.500 C 272.602 321.500,272.964 321.312,273.265 321.083 C 273.565 320.854,273.882 320.667,273.968 320.667 C 274.055 320.667,274.223 320.550,274.341 320.407 C 274.460 320.264,274.823 320.036,275.148 319.901 C 275.472 319.765,275.778 319.600,275.827 319.534 C 275.877 319.468,276.404 319.119,277.000 318.760 C 277.596 318.400,278.121 318.060,278.167 318.004 C 278.212 317.948,278.606 317.681,279.041 317.409 C 279.477 317.138,279.833 316.870,279.833 316.812 C 279.833 316.754,280.058 316.614,280.333 316.500 C 280.608 316.386,280.833 316.232,280.833 316.158 C 280.833 316.083,280.965 315.979,281.125 315.926 C 281.285 315.873,281.671 315.606,281.981 315.332 C 282.291 315.058,282.647 314.833,282.771 314.833 C 282.895 314.833,283.091 314.683,283.205 314.500 C 283.320 314.317,283.477 314.167,283.555 314.167 C 283.693 314.167,283.902 314.018,285.376 312.863 C 285.765 312.559,286.271 312.163,286.500 311.984 C 286.729 311.805,287.560 311.154,288.346 310.538 C 289.133 309.921,290.040 309.211,290.364 308.959 C 290.687 308.708,291.216 308.258,291.539 307.959 C 292.483 307.087,293.373 306.302,294.311 305.512 C 294.793 305.107,295.757 304.226,296.452 303.554 C 297.148 302.883,297.742 302.333,297.772 302.333 C 297.865 302.333,302.346 297.779,303.698 296.309 C 305.471 294.382,307.176 292.455,307.917 291.538 C 308.100 291.312,308.439 290.929,308.670 290.688 C 308.900 290.447,309.312 289.950,309.585 289.583 C 309.858 289.217,310.122 288.879,310.171 288.833 C 310.521 288.510,311.500 287.181,311.500 287.030 C 311.500 286.928,311.633 286.774,311.796 286.687 C 311.959 286.600,312.390 286.091,312.754 285.556 C 313.119 285.021,313.473 284.558,313.542 284.528 C 313.610 284.497,313.667 284.400,313.667 284.312 C 313.667 284.143,313.844 283.906,314.474 283.234 C 314.689 283.004,314.880 282.718,314.897 282.598 C 314.915 282.478,315.039 282.266,315.173 282.127 C 315.307 281.988,315.529 281.706,315.667 281.501 C 315.804 281.296,316.048 280.956,316.208 280.746 C 316.369 280.536,316.500 280.319,316.500 280.264 C 316.500 280.209,316.725 279.928,317.000 279.640 C 317.275 279.353,317.500 279.030,317.500 278.923 C 317.500 278.817,317.643 278.576,317.818 278.388 C 317.993 278.200,318.287 277.750,318.472 277.387 C 318.658 277.025,318.927 276.630,319.071 276.510 C 319.215 276.390,319.333 276.214,319.333 276.118 C 319.333 276.022,319.440 275.825,319.570 275.680 C 319.700 275.535,319.832 275.313,319.862 275.187 C 319.892 275.060,320.067 274.789,320.250 274.583 C 320.731 274.043,321.556 272.660,321.556 272.394 C 321.556 272.269,321.618 272.167,321.694 272.167 C 321.771 272.167,321.833 272.062,321.833 271.934 C 321.833 271.807,321.951 271.657,322.094 271.602 C 322.237 271.547,322.312 271.433,322.259 271.348 C 322.207 271.263,322.280 271.077,322.422 270.935 C 322.564 270.793,322.760 270.449,322.857 270.172 C 322.953 269.894,323.110 269.715,323.205 269.773 C 323.300 269.833,323.343 269.779,323.301 269.652 C 323.259 269.526,323.363 269.275,323.533 269.093 C 323.703 268.911,323.807 268.672,323.765 268.561 C 323.722 268.451,323.812 268.313,323.964 268.255 C 324.202 268.163,324.207 268.127,323.995 267.994 C 323.791 267.864,323.801 267.838,324.052 267.836 C 324.217 267.834,324.313 267.768,324.264 267.689 C 324.215 267.610,324.321 267.412,324.500 267.250 C 324.679 267.088,324.785 266.890,324.736 266.811 C 324.687 266.732,324.718 266.667,324.804 266.667 C 324.890 266.667,325.016 266.498,325.083 266.292 C 325.150 266.085,325.225 265.860,325.248 265.792 C 325.272 265.723,325.301 265.587,325.313 265.490 C 325.324 265.393,325.418 265.366,325.522 265.430 C 325.636 265.500,325.680 265.456,325.633 265.316 C 325.591 265.190,325.656 264.987,325.778 264.865 C 325.900 264.743,326.000 264.498,326.000 264.321 C 326.000 264.145,326.061 264.000,326.136 264.000 C 326.210 264.000,326.398 263.735,326.552 263.411 C 326.845 262.798,326.930 262.424,326.691 262.800 C 326.570 262.991,325.000 261.419,325.000 261.106 C 325.000 261.056,324.831 260.840,324.625 260.626 C 324.419 260.412,323.837 259.688,323.333 259.018 C 322.829 258.348,322.248 257.644,322.042 257.453 C 321.835 257.263,321.667 257.014,321.667 256.900 C 321.667 256.787,321.602 256.669,321.524 256.639 C 321.445 256.608,320.849 255.908,320.198 255.083 C 319.547 254.258,318.861 253.431,318.674 253.244 C 318.487 253.058,318.333 252.820,318.333 252.716 C 318.333 252.613,318.270 252.503,318.193 252.472 C 318.022 252.405,315.833 249.700,315.833 249.557 C 315.833 249.501,315.665 249.289,315.458 249.086 C 315.252 248.882,314.896 248.466,314.667 248.160 C 314.117 247.427,313.234 246.338,312.827 245.893 C 312.647 245.697,312.500 245.481,312.500 245.412 C 312.500 245.344,312.331 245.122,312.125 244.919 C 311.919 244.716,311.563 244.299,311.333 243.993 C 310.550 242.947,309.853 242.083,309.510 241.732 C 309.321 241.539,309.167 241.325,309.167 241.256 C 309.167 241.187,309.020 240.970,308.840 240.773 C 308.433 240.328,307.549 239.240,307.000 238.507 C 306.771 238.201,306.415 237.784,306.208 237.581 C 306.002 237.378,305.833 237.143,305.833 237.060 C 305.833 236.976,305.702 236.789,305.542 236.644 C 305.381 236.500,304.950 235.986,304.583 235.502 C 304.217 235.019,303.767 234.445,303.583 234.227 C 303.400 234.008,303.119 233.662,302.958 233.457 C 301.325 231.370,300.261 230.074,300.143 230.028 C 300.064 229.997,300.000 229.887,300.000 229.784 C 300.000 229.680,299.847 229.442,299.660 229.256 C 299.472 229.069,298.786 228.242,298.135 227.417 C 297.484 226.592,296.906 225.879,296.851 225.833 C 296.795 225.787,296.675 225.627,296.583 225.476 C 296.377 225.138,294.206 222.402,293.750 221.907 C 293.567 221.707,293.342 221.430,293.250 221.290 C 293.031 220.955,291.147 218.581,290.042 217.247 C 289.560 216.667,289.167 216.152,289.167 216.103 C 289.167 216.055,288.998 215.839,288.792 215.623 C 288.395 215.208,286.199 212.474,285.917 212.043 C 285.825 211.903,285.600 211.627,285.417 211.429 C 285.233 211.232,284.671 210.522,284.167 209.852 C 283.662 209.182,283.081 208.477,282.875 208.287 C 282.669 208.096,282.500 207.847,282.500 207.734 C 282.500 207.621,282.436 207.503,282.357 207.472 C 282.279 207.442,281.682 206.742,281.031 205.917 C 280.380 205.092,279.694 204.264,279.507 204.077 C 279.320 203.891,279.167 203.647,279.167 203.536 C 279.167 203.424,279.110 203.333,279.040 203.333 C 278.970 203.333,278.503 202.790,278.002 202.125 C 277.500 201.460,276.995 200.857,276.878 200.783 C 276.762 200.710,276.667 200.569,276.667 200.469 C 276.667 200.370,276.498 200.122,276.292 199.919 C 276.085 199.716,275.729 199.299,275.500 198.993 C 274.951 198.260,274.067 197.172,273.660 196.727 C 273.480 196.530,273.333 196.314,273.333 196.246 C 273.333 196.177,273.165 195.951,272.958 195.743 C 272.752 195.535,272.508 195.264,272.415 195.141 C 272.323 195.017,271.986 194.579,271.667 194.167 C 271.347 193.754,271.011 193.316,270.918 193.193 C 270.826 193.069,270.594 192.807,270.404 192.609 C 270.214 192.412,270.010 192.119,269.951 191.958 C 269.849 191.681,266.292 191.667,198.453 191.667 C 149.447 191.667,126.765 191.612,126.118 191.492 C 119.244 190.222,116.585 181.563,121.549 176.615 C 124.052 174.119,124.705 174.000,135.841 174.000 L 144.485 174.000 144.253 173.375 C 144.125 173.031,143.803 172.188,143.536 171.500 C 143.269 170.813,142.773 169.500,142.434 168.583 C 142.095 167.667,141.639 166.467,141.420 165.917 C 141.201 165.367,140.743 164.167,140.402 163.250 C 140.061 162.333,139.580 161.058,139.333 160.417 C 139.086 159.775,138.607 158.500,138.267 157.583 C 137.928 156.667,137.472 155.467,137.253 154.917 C 137.034 154.367,136.576 153.167,136.236 152.250 C 135.895 151.333,135.414 150.058,135.167 149.417 C 134.920 148.775,134.440 147.500,134.101 146.583 C 133.762 145.667,133.305 144.467,133.086 143.917 C 132.868 143.367,132.410 142.167,132.069 141.250 C 131.728 140.333,131.231 139.021,130.964 138.333 C 130.696 137.646,130.401 136.858,130.307 136.583 C 130.213 136.308,129.946 135.596,129.714 135.000 C 126.266 126.152,126.007 125.350,126.007 123.500 C 126.007 115.498,135.664 111.658,141.198 117.459 C 142.410 118.731,143.242 120.473,144.995 125.417 C 145.158 125.875,145.493 126.775,145.741 127.417 C 145.989 128.058,146.403 129.146,146.661 129.833 C 146.920 130.521,147.489 132.021,147.926 133.167 C 148.364 134.313,148.898 135.718,149.113 136.291 C 149.329 136.863,149.683 137.801,149.901 138.374 C 150.119 138.948,150.522 140.017,150.797 140.750 C 151.072 141.483,151.656 143.021,152.093 144.167 C 152.530 145.313,153.055 146.700,153.259 147.250 C 153.463 147.800,153.817 148.737,154.047 149.333 C 154.614 150.807,155.134 152.174,156.137 154.833 C 156.604 156.071,157.257 157.796,157.588 158.667 C 157.918 159.537,158.285 160.512,158.403 160.833 C 158.589 161.339,159.198 162.951,160.764 167.083 C 160.973 167.633,161.326 168.571,161.550 169.167 C 161.774 169.762,162.158 170.775,162.405 171.417 C 162.651 172.058,162.968 172.902,163.108 173.292 L 163.365 174.000 197.172 174.000 C 219.225 174.000,231.016 173.943,231.082 173.836 C 231.138 173.745,231.413 173.051,231.693 172.294 C 232.179 170.982,232.448 170.270,233.422 167.707 C 233.658 167.089,234.029 166.096,234.247 165.500 C 234.465 164.904,234.878 163.817,235.165 163.083 C 235.452 162.350,235.789 161.450,235.915 161.083 C 236.040 160.717,236.332 159.929,236.563 159.333 C 236.794 158.737,237.424 157.087,237.962 155.667 L 238.940 153.083 238.428 152.417 C 238.147 152.050,237.823 151.690,237.708 151.617 C 237.594 151.543,237.500 151.402,237.500 151.302 C 237.500 151.203,237.331 150.955,237.125 150.752 C 236.919 150.549,236.563 150.133,236.333 149.827 C 235.550 148.781,234.853 147.917,234.510 147.566 C 234.321 147.373,234.167 147.158,234.167 147.089 C 234.167 147.020,234.020 146.803,233.840 146.607 C 233.433 146.162,232.549 145.073,232.000 144.340 C 231.771 144.034,231.415 143.618,231.208 143.414 C 231.002 143.211,230.833 142.977,230.833 142.893 C 230.833 142.809,230.702 142.621,230.542 142.475 C 230.381 142.329,229.875 141.731,229.418 141.146 C 228.960 140.562,228.510 139.991,228.418 139.879 C 228.325 139.767,228.119 139.504,227.958 139.296 C 226.697 137.660,225.261 135.907,225.143 135.861 C 225.064 135.831,225.000 135.713,225.000 135.600 C 225.000 135.486,224.831 135.236,224.625 135.044 C 224.419 134.851,223.838 134.151,223.333 133.489 C 222.829 132.826,222.267 132.117,222.083 131.914 C 221.900 131.711,221.675 131.430,221.583 131.290 C 221.301 130.859,219.105 128.125,218.708 127.710 C 218.502 127.495,218.333 127.281,218.333 127.235 C 218.333 127.190,217.922 126.649,217.420 126.034 C 215.530 123.721,214.167 121.998,214.167 121.925 C 214.167 121.883,213.998 121.672,213.792 121.456 C 213.395 121.041,211.199 118.308,210.917 117.877 C 210.825 117.737,210.600 117.456,210.417 117.253 C 210.233 117.049,209.671 116.341,209.167 115.678 C 208.662 115.015,208.081 114.316,207.875 114.123 C 207.669 113.931,207.500 113.680,207.500 113.567 C 207.500 113.454,207.436 113.336,207.357 113.306 C 207.279 113.275,206.682 112.575,206.031 111.750 C 205.380 110.925,204.694 110.097,204.507 109.911 C 204.320 109.724,204.167 109.480,204.167 109.369 C 204.167 109.258,204.110 109.167,204.040 109.167 C 203.970 109.167,203.503 108.623,203.002 107.958 C 202.500 107.294,201.995 106.690,201.878 106.617 C 201.762 106.543,201.667 106.402,201.667 106.302 C 201.667 106.203,201.498 105.955,201.292 105.752 C 201.085 105.549,200.729 105.133,200.500 104.827 C 199.951 104.093,199.067 103.005,198.660 102.560 C 198.480 102.364,198.333 102.147,198.333 102.079 C 198.333 102.011,198.165 101.785,197.958 101.576 C 197.752 101.368,197.508 101.097,197.415 100.974 C 197.323 100.851,196.986 100.412,196.667 100.000 C 196.347 99.587,196.011 99.149,195.918 99.026 C 195.826 98.903,195.581 98.632,195.375 98.424 C 195.169 98.215,195.000 97.989,195.000 97.921 C 195.000 97.853,194.853 97.636,194.673 97.440 C 194.266 96.995,193.383 95.907,192.833 95.173 C 192.604 94.867,192.248 94.451,192.042 94.248 C 191.835 94.045,191.667 93.810,191.667 93.726 C 191.667 93.643,191.535 93.456,191.375 93.311 C 191.215 93.166,190.783 92.651,190.417 92.165 C 190.050 91.680,189.619 91.144,189.458 90.975 C 189.298 90.805,189.167 90.613,189.167 90.548 C 189.167 90.482,189.013 90.276,188.826 90.089 C 188.639 89.903,187.953 89.075,187.302 88.250 C 186.651 87.425,186.055 86.725,185.976 86.694 C 185.898 86.664,185.833 86.546,185.833 86.433 C 185.833 86.320,185.665 86.071,185.458 85.880 C 185.252 85.689,184.671 84.985,184.167 84.315 C 183.662 83.645,183.100 82.935,182.917 82.737 C 182.733 82.540,182.508 82.263,182.417 82.123 C 182.134 81.692,179.939 78.959,179.542 78.544 C 179.335 78.328,179.167 78.093,179.167 78.021 C 179.167 77.950,178.979 77.715,178.750 77.500 C 178.521 77.285,178.333 77.050,178.333 76.979 C 178.333 76.907,178.165 76.672,177.958 76.456 C 177.561 76.041,175.366 73.308,175.083 72.877 C 174.992 72.737,174.767 72.459,174.583 72.260 C 174.128 71.765,171.956 69.029,171.750 68.690 C 171.658 68.540,171.538 68.379,171.482 68.333 C 171.427 68.287,170.849 67.575,170.198 66.750 C 169.547 65.925,168.861 65.097,168.674 64.911 C 168.487 64.724,168.333 64.480,168.333 64.369 C 168.333 64.258,168.274 64.167,168.202 64.167 C 168.027 64.167,166.791 62.504,166.955 62.487 C 167.634 62.420,168.141 62.164,167.500 62.212 C 167.296 62.228,167.015 62.324,166.876 62.426 M251.667 169.542 C 251.667 169.656,251.487 170.200,251.267 170.750 C 251.046 171.300,250.702 172.162,250.501 172.667 C 250.301 173.171,250.098 173.677,250.051 173.792 C 249.984 173.953,250.584 174.000,252.738 174.000 C 255.845 174.000,255.788 174.034,254.675 172.842 C 254.395 172.543,254.167 172.244,254.167 172.178 C 254.167 172.112,253.979 171.882,253.750 171.667 C 253.521 171.451,253.333 171.176,253.333 171.054 C 253.333 170.933,253.263 170.833,253.177 170.833 C 253.091 170.833,252.778 170.496,252.482 170.083 C 251.944 169.334,251.666 169.149,251.667 169.542 M121.333 222.750 C 121.644 223.071,121.936 223.333,121.982 223.333 C 122.028 223.333,121.811 223.071,121.500 222.750 C 121.189 222.429,120.897 222.167,120.851 222.167 C 120.805 222.167,121.022 222.429,121.333 222.750 M139.167 225.652 C 139.167 225.736,139.223 225.831,139.292 225.861 C 139.360 225.892,139.792 226.395,140.250 226.980 C 140.708 227.564,141.215 228.162,141.375 228.308 C 141.535 228.454,141.667 228.643,141.667 228.726 C 141.667 228.810,141.835 229.045,142.042 229.248 C 142.248 229.451,142.604 229.867,142.833 230.173 C 143.383 230.907,144.266 231.995,144.673 232.440 C 144.853 232.636,145.000 232.851,145.000 232.917 C 145.000 232.982,145.147 233.197,145.327 233.393 C 145.734 233.838,146.617 234.927,147.167 235.660 C 147.396 235.966,147.752 236.382,147.958 236.586 C 148.165 236.789,148.333 237.023,148.333 237.107 C 148.333 237.191,148.465 237.379,148.625 237.525 C 148.785 237.671,149.291 238.269,149.749 238.854 C 150.207 239.438,150.657 240.009,150.749 240.121 C 150.841 240.233,151.048 240.496,151.209 240.704 C 152.469 242.340,153.906 244.093,154.024 244.139 C 154.102 244.169,154.167 244.279,154.167 244.383 C 154.167 244.487,154.320 244.724,154.507 244.911 C 154.694 245.097,155.380 245.925,156.031 246.750 C 156.682 247.575,157.279 248.275,157.357 248.306 C 157.436 248.336,157.500 248.454,157.500 248.567 C 157.500 248.680,157.669 248.929,157.875 249.120 C 158.081 249.311,158.662 250.015,159.167 250.685 C 159.671 251.355,160.233 252.065,160.417 252.263 C 160.600 252.460,160.825 252.737,160.917 252.877 C 161.199 253.308,163.395 256.041,163.792 256.456 C 163.998 256.672,164.167 256.907,164.167 256.979 C 164.167 257.050,164.354 257.285,164.583 257.500 C 164.813 257.715,165.000 257.950,165.000 258.021 C 165.000 258.093,165.169 258.328,165.375 258.544 C 165.772 258.959,167.967 261.692,168.250 262.123 C 168.342 262.263,168.567 262.540,168.750 262.737 C 168.933 262.935,169.496 263.645,170.000 264.315 C 170.504 264.985,171.085 265.689,171.292 265.880 C 171.498 266.071,171.667 266.320,171.667 266.433 C 171.667 266.546,171.731 266.664,171.809 266.694 C 171.888 266.725,172.485 267.425,173.136 268.250 C 173.786 269.075,174.472 269.903,174.660 270.089 C 174.847 270.276,175.000 270.520,175.000 270.631 C 175.000 270.742,175.057 270.833,175.127 270.833 C 175.196 270.833,175.664 271.377,176.165 272.042 C 176.666 272.706,177.172 273.310,177.288 273.383 C 177.405 273.457,177.500 273.598,177.500 273.698 C 177.500 273.797,177.669 274.045,177.875 274.248 C 178.081 274.451,178.438 274.867,178.667 275.173 C 179.216 275.907,180.099 276.995,180.507 277.440 C 180.686 277.636,180.833 277.853,180.833 277.921 C 180.833 277.989,181.002 278.215,181.208 278.424 C 181.415 278.632,181.659 278.903,181.751 279.026 C 181.844 279.149,182.181 279.587,182.500 280.000 C 182.819 280.412,183.156 280.851,183.249 280.974 C 183.341 281.097,183.585 281.368,183.792 281.576 C 183.998 281.785,184.167 282.011,184.167 282.079 C 184.167 282.147,184.316 282.364,184.498 282.560 C 184.681 282.756,185.219 283.404,185.695 284.000 C 186.171 284.596,186.502 284.933,186.431 284.750 C 186.361 284.567,185.961 283.517,185.543 282.417 C 185.125 281.317,184.563 279.854,184.294 279.167 C 184.025 278.479,183.706 277.610,183.585 277.234 C 183.464 276.859,183.212 276.184,183.026 275.734 C 182.840 275.285,182.409 274.167,182.068 273.250 C 181.728 272.333,181.247 271.058,181.000 270.417 C 180.753 269.775,180.272 268.500,179.931 267.583 C 179.590 266.667,179.132 265.467,178.914 264.917 C 178.695 264.367,178.238 263.167,177.899 262.250 C 177.560 261.333,177.080 260.058,176.833 259.417 C 176.586 258.775,176.105 257.500,175.764 256.583 C 175.424 255.667,174.966 254.467,174.747 253.917 C 174.528 253.367,174.072 252.167,173.733 251.250 C 173.393 250.333,172.897 249.021,172.630 248.333 C 172.363 247.646,172.068 246.858,171.974 246.583 C 171.880 246.308,171.613 245.596,171.381 245.000 C 170.410 242.509,170.153 241.836,169.566 240.250 C 169.227 239.333,168.747 238.058,168.500 237.417 C 168.253 236.775,167.772 235.500,167.431 234.583 C 167.090 233.667,166.632 232.467,166.414 231.917 C 166.195 231.367,165.737 230.167,165.397 229.250 C 165.057 228.333,164.612 227.133,164.408 226.583 L 164.037 225.583 151.602 225.541 C 144.083 225.515,139.167 225.559,139.167 225.652 M183.000 225.669 C 183.000 225.761,183.380 226.830,183.845 228.044 C 184.310 229.257,184.954 230.963,185.276 231.833 C 186.034 233.882,186.623 235.436,186.919 236.167 C 187.237 236.950,188.718 240.872,189.437 242.833 C 189.756 243.704,190.123 244.679,190.253 245.000 C 190.454 245.496,191.790 249.028,193.028 252.333 C 193.217 252.838,193.486 253.512,193.626 253.833 C 193.766 254.154,193.977 254.717,194.095 255.083 C 194.213 255.450,194.772 256.950,195.337 258.417 C 195.902 259.883,196.503 261.476,196.672 261.955 C 197.207 263.470,197.248 263.489,197.635 262.397 C 197.998 261.372,198.431 260.210,199.336 257.833 C 199.633 257.054,200.011 256.042,200.177 255.583 C 200.343 255.125,200.697 254.188,200.964 253.500 C 201.231 252.813,201.729 251.500,202.072 250.583 C 202.804 248.623,204.348 244.541,204.940 243.000 C 205.169 242.404,205.512 241.504,205.702 241.000 C 205.892 240.496,206.219 239.633,206.430 239.083 C 206.641 238.533,207.235 236.958,207.752 235.583 C 208.268 234.208,208.878 232.596,209.107 232.000 C 209.336 231.404,209.679 230.504,209.869 230.000 C 210.809 227.503,211.051 226.874,211.266 226.369 C 211.395 226.068,211.500 225.750,211.500 225.661 C 211.500 225.559,206.305 225.500,197.250 225.500 C 187.757 225.500,183.000 225.556,183.000 225.669 M332.109 250.203 C 331.984 250.682,332.049 250.727,332.295 250.333 C 332.404 250.159,332.428 249.975,332.349 249.926 C 332.270 249.877,332.162 250.002,332.109 250.203 M331.391 252.089 C 331.283 252.319,331.267 252.500,331.354 252.500 C 331.539 252.500,331.722 252.081,331.641 251.844 C 331.609 251.753,331.497 251.863,331.391 252.089 M328.302 259.248 C 328.058 259.751,327.922 260.202,327.999 260.250 C 328.077 260.297,328.229 260.054,328.338 259.710 C 328.448 259.365,328.643 258.915,328.772 258.708 C 328.902 258.502,328.948 258.333,328.876 258.333 C 328.804 258.333,328.545 258.745,328.302 259.248 M327.230 261.625 C 327.170 261.877,327.041 262.196,326.944 262.333 C 326.788 262.556,326.796 262.556,327.020 262.333 C 327.361 261.994,327.702 261.167,327.500 261.167 C 327.412 261.167,327.290 261.373,327.230 261.625 " stroke="none" fill="#f4ba50" fill-rule="evenodd"></path><path id="path2" d="M194.583 58.470 C 194.400 58.508,194.195 58.624,194.128 58.728 C 194.041 58.862,194.004 58.854,194.003 58.702 C 193.999 58.429,190.543 58.601,190.176 58.892 C 189.990 59.041,189.965 59.035,190.065 58.868 C 190.160 58.710,190.092 58.675,189.806 58.734 C 188.835 58.936,187.107 59.121,185.470 59.198 C 185.040 59.218,184.731 59.303,184.782 59.385 C 184.835 59.472,184.706 59.482,184.479 59.410 C 184.138 59.301,183.773 59.293,182.708 59.373 C 182.594 59.382,182.500 59.459,182.500 59.546 C 182.500 59.632,182.392 59.661,182.261 59.611 C 182.129 59.560,181.979 59.608,181.927 59.718 C 181.861 59.858,181.807 59.862,181.744 59.733 C 181.659 59.557,181.034 59.585,180.500 59.789 C 180.362 59.842,180.125 59.869,179.973 59.851 C 179.821 59.832,179.652 59.889,179.598 59.976 C 179.544 60.064,179.349 60.096,179.166 60.048 C 178.982 60.000,178.707 60.063,178.555 60.189 C 178.333 60.372,178.265 60.375,178.207 60.201 C 178.151 60.036,178.080 60.031,177.900 60.180 C 177.755 60.301,177.667 60.309,177.667 60.203 C 177.667 60.108,177.517 60.070,177.333 60.118 C 177.150 60.166,177.000 60.277,177.000 60.364 C 177.000 60.451,176.850 60.475,176.667 60.417 C 176.475 60.356,176.333 60.387,176.333 60.489 C 176.333 60.587,176.254 60.667,176.157 60.667 C 176.060 60.667,176.020 60.602,176.069 60.523 C 176.118 60.444,175.747 60.475,175.246 60.591 C 174.744 60.708,174.333 60.770,174.333 60.729 C 174.333 60.688,174.169 60.743,173.968 60.850 C 173.767 60.958,173.366 61.054,173.077 61.065 C 172.788 61.075,172.431 61.183,172.284 61.305 C 172.102 61.456,171.928 61.476,171.735 61.368 C 171.410 61.186,170.793 61.300,170.927 61.517 C 170.976 61.597,170.800 61.637,170.534 61.606 C 170.269 61.575,169.917 61.648,169.753 61.768 C 169.543 61.922,169.362 61.938,169.147 61.823 C 168.903 61.692,168.861 61.711,168.938 61.913 C 169.054 62.215,168.733 62.260,168.608 61.958 C 168.546 61.811,168.445 61.844,168.260 62.074 C 168.117 62.251,168.000 62.308,168.000 62.199 C 168.000 61.918,167.581 61.952,167.330 62.254 C 167.209 62.400,166.989 62.466,166.810 62.409 C 166.633 62.353,166.500 62.391,166.500 62.499 C 166.500 62.602,166.572 62.642,166.659 62.588 C 166.747 62.534,167.101 62.867,167.445 63.328 C 167.789 63.789,168.130 64.167,168.202 64.167 C 168.274 64.167,168.333 64.258,168.333 64.369 C 168.333 64.480,168.487 64.724,168.674 64.911 C 168.861 65.097,169.547 65.925,170.198 66.750 C 170.849 67.575,171.427 68.287,171.482 68.333 C 171.538 68.379,171.658 68.540,171.750 68.690 C 171.956 69.029,174.128 71.765,174.583 72.260 C 174.767 72.459,174.992 72.737,175.083 72.877 C 175.366 73.308,177.561 76.041,177.958 76.456 C 178.165 76.672,178.333 76.907,178.333 76.979 C 178.333 77.050,178.521 77.285,178.750 77.500 C 178.979 77.715,179.167 77.950,179.167 78.021 C 179.167 78.093,179.335 78.328,179.542 78.544 C 179.939 78.959,182.134 81.692,182.417 82.123 C 182.508 82.263,182.733 82.540,182.917 82.737 C 183.100 82.935,183.662 83.645,184.167 84.315 C 184.671 84.985,185.252 85.689,185.458 85.880 C 185.665 86.071,185.833 86.320,185.833 86.433 C 185.833 86.546,185.898 86.664,185.976 86.694 C 186.055 86.725,186.651 87.425,187.302 88.250 C 187.953 89.075,188.639 89.903,188.826 90.089 C 189.013 90.276,189.167 90.482,189.167 90.548 C 189.167 90.613,189.298 90.805,189.458 90.975 C 189.619 91.144,190.050 91.680,190.417 92.165 C 190.783 92.651,191.215 93.166,191.375 93.311 C 191.535 93.456,191.667 93.643,191.667 93.726 C 191.667 93.810,191.835 94.045,192.042 94.248 C 192.248 94.451,192.604 94.867,192.833 95.173 C 193.383 95.907,194.266 96.995,194.673 97.440 C 194.853 97.636,195.000 97.853,195.000 97.921 C 195.000 97.989,195.169 98.215,195.375 98.424 C 195.581 98.632,195.826 98.903,195.918 99.026 C 196.011 99.149,196.347 99.587,196.667 100.000 C 196.986 100.412,197.323 100.851,197.415 100.974 C 197.508 101.097,197.752 101.368,197.958 101.576 C 198.165 101.785,198.333 102.011,198.333 102.079 C 198.333 102.147,198.480 102.364,198.660 102.560 C 199.067 103.005,199.951 104.093,200.500 104.827 C 200.729 105.133,201.085 105.549,201.292 105.752 C 201.498 105.955,201.667 106.203,201.667 106.302 C 201.667 106.402,201.762 106.543,201.878 106.617 C 201.995 106.690,202.500 107.294,203.002 107.958 C 203.503 108.623,203.970 109.167,204.040 109.167 C 204.110 109.167,204.167 109.258,204.167 109.369 C 204.167 109.480,204.320 109.724,204.507 109.911 C 204.694 110.097,205.380 110.925,206.031 111.750 C 206.682 112.575,207.279 113.275,207.357 113.306 C 207.436 113.336,207.500 113.454,207.500 113.567 C 207.500 113.680,207.669 113.931,207.875 114.123 C 208.081 114.316,208.662 115.015,209.167 115.678 C 209.671 116.341,210.233 117.049,210.417 117.253 C 210.600 117.456,210.825 117.737,210.917 117.877 C 211.199 118.308,213.395 121.041,213.792 121.456 C 213.998 121.672,214.167 121.883,214.167 121.925 C 214.167 121.998,215.530 123.721,217.420 126.034 C 217.922 126.649,218.333 127.190,218.333 127.235 C 218.333 127.281,218.502 127.495,218.708 127.710 C 219.105 128.125,221.301 130.859,221.583 131.290 C 221.675 131.430,221.900 131.711,222.083 131.914 C 222.267 132.117,222.829 132.826,223.333 133.489 C 223.838 134.151,224.419 134.851,224.625 135.044 C 224.831 135.236,225.000 135.486,225.000 135.600 C 225.000 135.713,225.064 135.831,225.143 135.861 C 225.261 135.907,226.697 137.660,227.958 139.296 C 228.119 139.504,228.325 139.767,228.418 139.879 C 228.510 139.991,228.960 140.562,229.418 141.146 C 229.875 141.731,230.381 142.329,230.542 142.475 C 230.702 142.621,230.833 142.809,230.833 142.893 C 230.833 142.977,231.002 143.211,231.208 143.414 C 231.415 143.618,231.771 144.034,232.000 144.340 C 232.549 145.073,233.433 146.162,233.840 146.607 C 234.020 146.803,234.167 147.020,234.167 147.089 C 234.167 147.158,234.321 147.373,234.510 147.566 C 234.853 147.917,235.550 148.781,236.333 149.827 C 236.563 150.133,236.919 150.549,237.125 150.752 C 237.331 150.955,237.500 151.203,237.500 151.302 C 237.500 151.402,237.594 151.543,237.709 151.617 C 237.824 151.690,238.128 152.031,238.384 152.375 C 238.986 153.182,239.103 153.163,239.400 152.208 C 239.535 151.773,239.879 150.817,240.164 150.083 C 240.448 149.350,241.064 147.737,241.532 146.500 C 243.137 142.258,244.020 139.916,244.327 139.083 C 244.497 138.625,245.097 137.050,245.662 135.583 C 246.227 134.117,246.981 132.129,247.337 131.167 C 248.138 129.004,248.531 127.970,249.834 124.583 C 250.398 123.117,250.994 121.540,251.158 121.080 C 254.338 112.153,266.654 112.824,268.263 122.012 C 268.686 124.432,268.580 124.835,265.158 133.750 C 264.595 135.217,264.074 136.604,264.000 136.833 C 263.926 137.063,263.176 139.050,262.334 141.250 C 261.491 143.450,260.663 145.625,260.493 146.083 C 259.804 147.945,259.649 148.356,258.669 150.917 C 258.108 152.383,257.267 154.596,256.802 155.833 C 256.336 157.071,255.785 158.533,255.578 159.083 C 255.371 159.633,254.845 161.021,254.409 162.167 C 253.973 163.313,253.195 165.368,252.680 166.735 L 251.744 169.221 252.164 169.723 C 252.395 169.998,252.752 170.402,252.958 170.620 C 253.165 170.837,253.333 171.074,253.333 171.145 C 253.333 171.217,253.521 171.451,253.750 171.667 C 253.979 171.882,254.167 172.158,254.167 172.279 C 254.167 172.401,254.237 172.500,254.323 172.500 C 254.409 172.500,254.722 172.838,255.018 173.250 L 255.557 174.000 264.119 174.000 C 273.779 174.000,274.408 174.058,276.333 175.126 C 284.380 179.590,281.278 191.177,271.917 191.619 C 269.690 191.724,269.606 191.780,270.404 192.609 C 270.594 192.807,270.826 193.069,270.918 193.193 C 271.011 193.316,271.347 193.754,271.667 194.167 C 271.986 194.579,272.323 195.017,272.415 195.141 C 272.508 195.264,272.752 195.535,272.958 195.743 C 273.165 195.951,273.333 196.177,273.333 196.246 C 273.333 196.314,273.480 196.530,273.660 196.727 C 274.067 197.172,274.951 198.260,275.500 198.993 C 275.729 199.299,276.085 199.716,276.292 199.919 C 276.498 200.122,276.667 200.370,276.667 200.469 C 276.667 200.569,276.762 200.710,276.878 200.783 C 276.995 200.857,277.500 201.460,278.002 202.125 C 278.503 202.790,278.970 203.333,279.040 203.333 C 279.110 203.333,279.167 203.424,279.167 203.536 C 279.167 203.647,279.320 203.891,279.507 204.077 C 279.694 204.264,280.380 205.092,281.031 205.917 C 281.682 206.742,282.279 207.442,282.357 207.472 C 282.436 207.503,282.500 207.621,282.500 207.734 C 282.500 207.847,282.669 208.096,282.875 208.287 C 283.081 208.477,283.662 209.182,284.167 209.852 C 284.671 210.522,285.233 211.232,285.417 211.429 C 285.600 211.627,285.825 211.903,285.917 212.043 C 286.199 212.474,288.395 215.208,288.792 215.623 C 288.998 215.839,289.167 216.055,289.167 216.103 C 289.167 216.152,289.560 216.667,290.042 217.247 C 291.147 218.581,293.031 220.955,293.250 221.290 C 293.342 221.430,293.567 221.707,293.750 221.907 C 294.206 222.402,296.377 225.138,296.583 225.476 C 296.675 225.627,296.795 225.787,296.851 225.833 C 296.906 225.879,297.484 226.592,298.135 227.417 C 298.786 228.242,299.472 229.069,299.660 229.256 C 299.847 229.442,300.000 229.680,300.000 229.784 C 300.000 229.887,300.064 229.997,300.143 230.028 C 300.261 230.074,301.325 231.370,302.958 233.457 C 303.119 233.662,303.400 234.008,303.583 234.227 C 303.767 234.445,304.217 235.019,304.583 235.502 C 304.950 235.986,305.381 236.500,305.542 236.644 C 305.702 236.789,305.833 236.976,305.833 237.060 C 305.833 237.143,306.002 237.378,306.208 237.581 C 306.415 237.784,306.771 238.201,307.000 238.507 C 307.549 239.240,308.433 240.328,308.840 240.773 C 309.020 240.970,309.167 241.187,309.167 241.256 C 309.167 241.325,309.321 241.539,309.510 241.732 C 309.853 242.083,310.550 242.947,311.333 243.993 C 311.563 244.299,311.919 244.716,312.125 244.919 C 312.331 245.122,312.500 245.344,312.500 245.412 C 312.500 245.481,312.647 245.697,312.827 245.893 C 313.234 246.338,314.117 247.427,314.667 248.160 C 314.896 248.466,315.252 248.882,315.458 249.086 C 315.665 249.289,315.833 249.501,315.833 249.557 C 315.833 249.700,318.022 252.405,318.193 252.472 C 318.270 252.503,318.333 252.613,318.333 252.716 C 318.333 252.820,318.487 253.058,318.674 253.244 C 318.861 253.431,319.547 254.258,320.198 255.083 C 320.849 255.908,321.445 256.608,321.524 256.639 C 321.602 256.669,321.667 256.787,321.667 256.900 C 321.667 257.014,321.835 257.263,322.042 257.453 C 322.248 257.644,322.829 258.348,323.333 259.018 C 323.837 259.688,324.419 260.412,324.625 260.626 C 324.831 260.840,325.000 261.056,325.000 261.106 C 325.000 261.472,326.553 262.964,326.747 262.785 C 326.867 262.674,326.934 262.532,326.896 262.470 C 326.859 262.407,326.904 262.309,326.997 262.252 C 327.090 262.194,327.167 262.004,327.167 261.830 C 327.167 261.656,327.325 261.366,327.518 261.186 C 327.711 261.006,327.819 260.778,327.758 260.679 C 327.697 260.581,327.730 260.500,327.831 260.500 C 327.932 260.500,327.995 260.406,327.971 260.292 C 327.912 260.016,328.685 258.333,328.870 258.333 C 328.950 258.333,328.993 258.202,328.966 258.042 C 328.936 257.865,329.007 257.769,329.146 257.799 C 329.303 257.832,329.348 257.740,329.287 257.507 C 329.238 257.320,329.252 257.200,329.318 257.241 C 329.497 257.351,330.037 256.362,329.910 256.156 C 329.850 256.059,329.926 255.841,330.078 255.672 C 330.231 255.504,330.342 255.265,330.325 255.141 C 330.265 254.705,330.335 254.482,330.500 254.583 C 330.670 254.688,330.728 254.480,330.675 253.958 C 330.659 253.798,330.730 253.667,330.833 253.667 C 330.936 253.667,330.973 253.592,330.917 253.500 C 330.860 253.408,330.898 253.333,331.000 253.333 C 331.102 253.333,331.140 253.258,331.083 253.167 C 331.027 253.075,331.042 253.000,331.117 253.000 C 331.192 253.000,331.345 252.853,331.457 252.673 C 331.627 252.402,331.621 252.361,331.423 252.437 C 331.224 252.514,331.217 252.458,331.384 252.099 C 331.494 251.863,331.645 251.669,331.720 251.668 C 331.794 251.667,331.811 251.526,331.756 251.353 C 331.694 251.156,331.750 251.003,331.909 250.943 C 332.066 250.882,332.120 250.739,332.052 250.562 C 331.983 250.382,332.008 250.319,332.123 250.390 C 332.239 250.461,332.269 250.374,332.208 250.141 C 332.144 249.894,332.175 249.819,332.307 249.900 C 332.415 249.967,332.505 249.923,332.512 249.802 C 332.546 249.203,332.697 248.786,332.997 248.465 C 333.233 248.212,333.278 248.051,333.156 247.903 C 333.037 247.761,333.039 247.662,333.161 247.587 C 333.259 247.526,333.296 247.407,333.243 247.322 C 333.190 247.236,333.231 247.167,333.333 247.167 C 333.436 247.167,333.473 247.092,333.417 247.000 C 333.360 246.908,333.401 246.833,333.508 246.833 C 333.615 246.833,333.659 246.721,333.606 246.583 C 333.554 246.446,333.588 246.333,333.682 246.333 C 333.776 246.333,333.811 246.265,333.759 246.181 C 333.707 246.097,333.739 246.003,333.831 245.973 C 333.922 245.942,334.025 245.692,334.058 245.417 C 334.092 245.142,334.251 244.617,334.412 244.250 C 334.572 243.883,334.733 243.366,334.768 243.101 C 334.803 242.836,334.894 242.536,334.970 242.434 C 335.164 242.175,335.568 240.809,335.555 240.458 C 335.549 240.298,335.621 240.167,335.716 240.167 C 335.811 240.167,335.842 240.120,335.784 240.062 C 335.727 240.005,335.791 239.742,335.928 239.479 C 336.064 239.215,336.140 239.000,336.096 239.000 C 336.053 239.000,336.112 238.756,336.229 238.458 C 336.346 238.160,336.431 237.804,336.419 237.667 C 336.406 237.529,336.466 237.323,336.552 237.208 C 336.637 237.094,336.652 237.000,336.583 237.000 C 336.515 237.000,336.553 236.887,336.667 236.750 C 336.781 236.612,336.833 236.500,336.782 236.500 C 336.732 236.500,336.830 236.012,337.000 235.417 C 337.170 234.821,337.268 234.333,337.218 234.333 C 337.167 234.333,337.209 234.233,337.311 234.110 C 337.414 233.987,337.453 233.842,337.399 233.787 C 337.344 233.733,337.363 233.590,337.439 233.469 C 337.516 233.349,337.585 233.213,337.594 233.167 C 337.763 232.254,337.907 231.692,338.036 231.443 C 338.123 231.275,338.223 230.806,338.257 230.403 C 338.292 229.999,338.410 229.349,338.519 228.959 C 338.753 228.129,338.792 227.946,338.899 227.167 C 338.943 226.846,338.989 226.583,339.002 226.583 C 339.015 226.583,339.047 226.358,339.074 226.083 C 339.101 225.808,339.287 224.796,339.488 223.833 C 339.688 222.871,339.879 221.708,339.911 221.250 C 339.943 220.792,340.055 219.929,340.159 219.333 C 340.263 218.737,340.387 218.025,340.434 217.750 C 340.515 217.279,340.575 216.688,340.760 214.500 C 340.803 213.996,340.910 212.758,340.999 211.750 C 341.087 210.742,341.202 209.429,341.253 208.833 C 341.408 207.033,341.496 204.076,341.484 201.083 C 341.473 198.337,341.476 198.070,341.521 197.625 C 341.548 197.363,341.317 191.600,341.251 190.896 C 341.225 190.609,341.160 189.972,341.109 189.479 C 340.918 187.667,340.812 186.389,340.756 185.250 C 340.725 184.608,340.656 183.896,340.604 183.667 C 340.552 183.438,340.469 182.823,340.420 182.302 C 340.371 181.781,340.295 181.256,340.251 181.135 C 340.208 181.015,340.098 180.279,340.007 179.500 C 339.916 178.721,339.808 177.896,339.767 177.667 C 339.726 177.438,339.650 176.927,339.599 176.531 C 339.548 176.136,339.466 175.747,339.417 175.667 C 339.367 175.586,339.290 175.216,339.247 174.844 C 339.203 174.471,339.134 173.885,339.094 173.542 C 339.054 173.198,338.981 172.804,338.932 172.667 C 338.883 172.529,338.803 172.229,338.755 172.000 C 338.417 170.400,338.143 169.155,338.003 168.583 C 337.913 168.217,337.695 167.263,337.518 166.464 C 337.342 165.665,337.083 164.653,336.944 164.214 C 336.720 163.511,336.594 162.998,336.236 161.333 C 336.187 161.104,336.076 160.845,335.990 160.758 C 335.904 160.671,335.833 160.432,335.833 160.226 C 335.833 160.021,335.649 159.342,335.424 158.718 C 335.199 158.094,334.923 157.246,334.810 156.833 C 334.552 155.884,334.590 156.000,334.346 155.417 C 334.230 155.142,334.102 154.736,334.060 154.516 C 334.018 154.295,333.910 153.977,333.820 153.808 C 333.729 153.638,333.704 153.500,333.765 153.500 C 333.825 153.500,333.789 153.397,333.684 153.271 C 333.580 153.146,333.378 152.639,333.235 152.146 C 333.092 151.653,332.826 150.936,332.645 150.553 C 332.463 150.169,332.303 149.700,332.288 149.511 C 332.274 149.322,332.199 149.167,332.121 149.167 C 332.044 149.167,332.023 149.097,332.076 149.012 C 332.129 148.926,332.102 148.813,332.015 148.760 C 331.929 148.706,331.732 148.280,331.576 147.813 C 331.421 147.345,331.191 146.765,331.065 146.523 C 330.939 146.281,330.835 146.036,330.834 145.979 C 330.834 145.921,330.707 145.584,330.552 145.229 C 330.398 144.874,330.285 144.527,330.302 144.458 C 330.319 144.390,330.258 144.333,330.167 144.333 C 330.075 144.333,330.001 144.240,330.001 144.125 C 330.003 143.857,328.779 141.104,327.964 139.541 C 327.617 138.876,327.333 138.183,327.333 137.999 C 327.333 137.816,327.270 137.667,327.192 137.667 C 327.041 137.667,326.379 136.308,326.473 136.191 C 326.503 136.152,326.459 136.075,326.374 136.019 C 326.143 135.866,324.833 133.399,324.833 133.115 C 324.833 132.980,324.716 132.824,324.573 132.769 C 324.429 132.714,324.355 132.600,324.407 132.515 C 324.459 132.431,324.445 132.337,324.376 132.306 C 324.307 132.275,324.092 131.950,323.899 131.583 C 323.214 130.281,321.446 127.252,320.694 126.093 C 320.274 125.446,319.794 124.669,319.627 124.366 C 319.310 123.793,317.740 121.444,316.094 119.083 C 315.775 118.625,315.233 117.839,314.889 117.337 C 314.546 116.835,314.174 116.310,314.063 116.171 C 313.952 116.031,313.517 115.486,313.097 114.961 C 312.677 114.435,312.333 113.929,312.333 113.836 C 312.333 113.743,312.254 113.667,312.157 113.667 C 312.060 113.667,312.027 113.592,312.083 113.500 C 312.140 113.408,312.069 113.333,311.927 113.333 C 311.784 113.333,311.667 113.221,311.667 113.083 C 311.667 112.946,311.587 112.833,311.490 112.833 C 311.393 112.833,311.360 112.758,311.417 112.667 C 311.473 112.575,311.445 112.500,311.353 112.500 C 311.261 112.500,310.833 112.031,310.401 111.458 C 309.969 110.885,309.533 110.342,309.433 110.250 C 309.332 110.158,308.971 109.736,308.631 109.312 C 308.290 108.888,307.711 108.213,307.343 107.812 C 306.976 107.411,306.674 107.038,306.671 106.983 C 306.669 106.927,306.348 106.544,305.958 106.131 C 305.569 105.718,304.575 104.645,303.750 103.748 C 301.962 101.804,299.117 98.967,296.315 96.333 C 293.489 93.678,293.396 93.595,291.750 92.254 C 291.200 91.806,290.769 91.378,290.792 91.303 C 290.815 91.228,290.740 91.166,290.625 91.165 C 290.510 91.164,290.161 90.900,289.849 90.579 C 289.537 90.258,289.246 90.032,289.202 90.076 C 289.158 90.120,288.862 89.896,288.544 89.578 C 288.227 89.260,287.915 89.000,287.851 89.000 C 287.788 89.000,287.458 88.737,287.118 88.417 C 286.778 88.096,286.469 87.833,286.431 87.833 C 286.291 87.833,283.414 85.634,283.361 85.486 C 283.330 85.401,283.236 85.374,283.152 85.425 C 283.069 85.477,283.000 85.440,283.000 85.343 C 283.000 85.246,282.894 85.167,282.764 85.167 C 282.634 85.167,282.503 85.106,282.472 85.032 C 282.422 84.911,281.406 84.155,280.412 83.500 C 280.203 83.362,279.567 82.931,278.997 82.542 C 278.428 82.152,277.896 81.833,277.814 81.833 C 277.733 81.833,277.667 81.758,277.667 81.667 C 277.667 81.575,277.554 81.500,277.417 81.500 C 277.279 81.500,277.167 81.443,277.167 81.374 C 277.167 81.305,276.960 81.156,276.708 81.044 C 276.456 80.932,276.061 80.670,275.829 80.462 C 275.598 80.254,275.129 79.940,274.787 79.765 C 274.446 79.591,274.167 79.380,274.167 79.297 C 274.167 79.215,274.098 79.190,274.013 79.242 C 273.929 79.294,273.760 79.242,273.638 79.126 C 273.516 79.010,273.130 78.766,272.780 78.583 C 272.430 78.400,271.999 78.116,271.822 77.952 C 271.645 77.788,271.500 77.696,271.500 77.749 C 271.500 77.801,271.087 77.579,270.582 77.256 C 270.077 76.933,269.070 76.370,268.344 76.006 C 267.619 75.641,266.978 75.265,266.919 75.171 C 266.861 75.077,266.682 75.000,266.522 75.000 C 266.361 75.000,266.061 74.843,265.854 74.650 C 265.648 74.458,265.390 74.288,265.281 74.271 C 264.868 74.210,264.000 73.787,264.000 73.646 C 264.000 73.566,263.894 73.500,263.764 73.500 C 263.495 73.500,262.470 72.988,262.315 72.777 C 262.259 72.701,262.181 72.663,262.143 72.694 C 262.025 72.788,260.667 72.126,260.667 71.975 C 260.667 71.897,260.524 71.833,260.350 71.833 C 260.177 71.833,259.595 71.618,259.059 71.354 C 258.522 71.090,257.915 70.823,257.708 70.759 C 257.502 70.696,257.333 70.574,257.333 70.489 C 257.333 70.403,257.252 70.333,257.153 70.333 C 256.833 70.333,254.754 69.455,254.628 69.267 C 254.560 69.166,254.504 69.137,254.503 69.202 C 254.501 69.267,253.881 69.054,253.125 68.727 C 252.369 68.401,251.675 68.119,251.583 68.100 C 251.492 68.082,251.253 67.977,251.053 67.867 C 250.852 67.757,250.590 67.667,250.469 67.667 C 250.349 67.667,249.800 67.488,249.250 67.268 C 247.491 66.566,245.897 65.993,245.484 65.914 C 245.264 65.872,244.896 65.764,244.667 65.673 C 244.438 65.583,244.025 65.420,243.750 65.312 C 243.475 65.203,243.075 65.085,242.861 65.050 C 242.647 65.014,242.047 64.823,241.528 64.626 C 241.008 64.429,240.412 64.256,240.203 64.243 C 239.994 64.229,239.657 64.136,239.453 64.036 C 238.960 63.794,234.905 62.662,234.167 62.560 C 233.846 62.516,233.177 62.366,232.681 62.227 C 232.185 62.089,231.473 61.941,231.098 61.899 C 230.723 61.857,230.304 61.779,230.167 61.725 C 229.671 61.532,227.242 60.976,226.917 60.981 C 226.733 60.984,226.114 60.878,225.541 60.746 C 224.968 60.613,224.293 60.467,224.041 60.421 C 223.789 60.375,223.396 60.298,223.167 60.251 C 222.938 60.204,222.262 60.128,221.667 60.082 C 221.071 60.036,220.396 59.957,220.167 59.907 C 219.170 59.689,217.675 59.474,216.750 59.416 C 215.143 59.314,213.442 59.150,213.342 59.089 C 213.291 59.057,212.650 58.986,211.916 58.930 C 211.183 58.874,210.021 58.783,209.333 58.728 C 208.646 58.674,207.371 58.619,206.500 58.606 C 205.629 58.594,204.862 58.508,204.794 58.417 C 204.714 58.307,204.671 58.309,204.669 58.423 C 204.668 58.537,204.226 58.558,203.375 58.485 C 201.823 58.353,195.983 58.430,195.481 58.589 C 195.285 58.651,195.078 58.635,195.021 58.552 C 194.964 58.469,194.767 58.432,194.583 58.470 M164.575 62.817 C 164.488 62.900,164.267 63.004,164.083 63.048 C 163.767 63.124,163.768 63.129,164.105 63.147 C 164.300 63.158,164.553 63.054,164.667 62.917 C 164.893 62.644,164.830 62.575,164.575 62.817 M121.491 176.625 L 120.917 177.250 121.542 176.676 C 122.123 176.141,122.243 176.000,122.116 176.000 C 122.088 176.000,121.807 176.281,121.491 176.625 M163.708 207.792 C 183.760 207.815,216.573 207.815,236.625 207.792 C 256.677 207.768,240.271 207.749,200.167 207.749 C 160.063 207.749,143.656 207.768,163.708 207.792 M278.326 210.375 C 279.017 211.111,279.167 211.243,279.167 211.118 C 279.167 211.091,278.810 210.735,278.375 210.326 L 277.583 209.583 278.326 210.375 M278.333 222.750 C 277.928 223.162,277.635 223.500,277.681 223.500 C 277.726 223.500,278.095 223.162,278.500 222.750 C 278.905 222.338,279.199 222.000,279.153 222.000 C 279.107 222.000,278.738 222.338,278.333 222.750 M136.388 225.458 C 141.505 225.483,149.830 225.483,154.888 225.458 C 159.945 225.434,155.758 225.414,145.583 225.414 C 135.408 225.414,131.270 225.434,136.388 225.458 M182.833 225.458 C 182.833 225.527,189.321 225.583,197.250 225.583 C 205.179 225.583,211.667 225.527,211.667 225.458 C 211.667 225.390,205.179 225.333,197.250 225.333 C 189.321 225.333,182.833 225.390,182.833 225.458 M230.442 225.458 C 230.372 225.571,245.168 225.571,265.417 225.456 C 269.633 225.433,263.507 225.395,251.802 225.373 C 240.096 225.351,230.485 225.390,230.442 225.458 " stroke="none" fill="#f4c45b" fill-rule="evenodd"></path><path id="path3" d="M203.794 58.451 C 204.001 58.491,204.301 58.490,204.460 58.448 C 204.620 58.406,204.450 58.374,204.083 58.375 C 203.717 58.377,203.586 58.411,203.794 58.451 M108.750 91.622 L 107.917 92.380 108.750 91.742 C 109.208 91.392,109.615 91.081,109.653 91.052 C 109.691 91.024,109.691 90.970,109.653 90.933 C 109.615 90.895,109.208 91.206,108.750 91.622 M103.917 95.867 C 103.430 96.374,103.382 96.461,103.739 96.191 C 104.161 95.871,104.783 95.161,104.634 95.169 C 104.606 95.171,104.283 95.485,103.917 95.867 M101.143 98.509 C 100.771 98.834,100.769 98.843,101.116 98.675 C 101.317 98.578,101.528 98.424,101.584 98.332 C 101.748 98.067,101.568 98.140,101.143 98.509 M100.310 99.343 C 99.937 99.667,99.936 99.676,100.282 99.509 C 100.484 99.411,100.694 99.257,100.751 99.166 C 100.914 98.901,100.735 98.973,100.310 99.343 M95.500 104.290 C 95.119 104.667,95.115 104.687,95.449 104.517 C 95.812 104.333,96.087 104.024,95.975 103.927 C 95.943 103.899,95.729 104.063,95.500 104.290 M94.500 105.417 C 94.285 105.646,94.178 105.831,94.263 105.828 C 94.405 105.823,95.092 105.000,94.953 105.000 C 94.919 105.000,94.715 105.188,94.500 105.417 M93.073 107.027 C 92.584 107.553,92.584 107.554,93.035 107.235 C 93.283 107.060,93.524 106.823,93.571 106.708 C 93.700 106.392,93.607 106.451,93.073 107.027 M91.833 108.417 C 91.716 108.559,91.657 108.712,91.702 108.758 C 91.748 108.804,91.882 108.725,92.000 108.583 C 92.118 108.441,92.177 108.288,92.131 108.242 C 92.085 108.196,91.951 108.275,91.833 108.417 M91.082 109.334 C 90.916 109.518,90.819 109.708,90.867 109.756 C 90.915 109.804,91.079 109.654,91.231 109.422 C 91.563 108.915,91.497 108.876,91.082 109.334 M89.512 111.272 C 89.322 111.514,89.169 111.795,89.172 111.897 C 89.175 112.000,89.260 111.933,89.362 111.750 C 89.463 111.567,89.660 111.285,89.799 111.125 C 89.938 110.965,90.008 110.833,89.955 110.833 C 89.901 110.833,89.702 111.031,89.512 111.272 M87.833 113.417 C 87.618 113.646,87.511 113.831,87.596 113.828 C 87.738 113.823,88.425 113.000,88.287 113.000 C 88.253 113.000,88.049 113.188,87.833 113.417 M87.012 114.439 C 86.822 114.681,86.672 114.962,86.678 115.064 C 86.684 115.166,86.771 115.081,86.870 114.875 C 86.970 114.669,87.106 114.500,87.174 114.500 C 87.242 114.500,87.341 114.388,87.394 114.250 C 87.536 113.878,87.400 113.946,87.012 114.439 M78.713 126.708 C 78.358 127.168,78.314 127.330,78.574 127.231 C 78.715 127.176,78.793 127.069,78.746 126.993 C 78.698 126.916,78.792 126.776,78.955 126.682 C 79.117 126.587,79.165 126.508,79.062 126.505 C 78.959 126.502,78.802 126.594,78.713 126.708 M77.944 127.944 C 77.753 128.136,77.823 128.333,78.083 128.333 C 78.221 128.333,78.333 128.221,78.333 128.083 C 78.333 127.823,78.136 127.753,77.944 127.944 M76.797 129.917 C 76.566 130.375,76.184 131.104,75.946 131.536 C 75.709 131.969,75.584 132.366,75.669 132.418 C 75.754 132.471,75.871 132.323,75.930 132.090 C 75.988 131.857,76.107 131.667,76.195 131.667 C 76.282 131.667,76.312 131.600,76.261 131.517 C 76.210 131.435,76.277 131.327,76.408 131.276 C 76.540 131.226,76.698 130.918,76.759 130.592 C 76.833 130.202,76.963 129.999,77.144 129.997 C 77.361 129.995,77.371 129.966,77.189 129.851 C 77.013 129.739,77.009 129.691,77.173 129.637 C 77.289 129.598,77.346 129.458,77.299 129.325 C 77.247 129.174,77.057 129.397,76.797 129.917 M74.946 133.268 L 74.642 133.917 75.004 133.562 C 75.203 133.368,75.340 133.076,75.308 132.914 C 75.267 132.705,75.161 132.809,74.946 133.268 M74.442 134.245 C 74.293 134.632,74.630 134.713,74.831 134.338 C 74.973 134.072,74.961 134.000,74.774 134.000 C 74.643 134.000,74.493 134.110,74.442 134.245 M73.449 136.208 C 73.308 136.506,73.168 136.862,73.138 137.000 C 73.108 137.137,73.019 137.297,72.941 137.354 C 72.863 137.411,72.659 137.786,72.488 138.187 C 72.317 138.588,72.268 138.775,72.380 138.603 C 72.492 138.430,72.752 138.082,72.958 137.829 C 73.165 137.576,73.333 137.263,73.333 137.134 C 73.333 137.005,73.423 136.810,73.533 136.700 C 73.643 136.590,73.675 136.500,73.605 136.500 C 73.534 136.500,73.594 136.382,73.738 136.238 C 74.026 135.950,74.083 135.667,73.852 135.667 C 73.771 135.667,73.589 135.910,73.449 136.208 M71.913 139.172 C 71.688 139.536,71.527 140.333,71.678 140.333 C 71.764 140.333,71.833 140.141,71.833 139.907 C 71.833 139.627,71.899 139.521,72.026 139.599 C 72.151 139.677,72.173 139.645,72.088 139.507 C 72.012 139.384,72.053 139.235,72.187 139.151 C 72.338 139.055,72.349 139.004,72.218 139.003 C 72.109 139.001,71.972 139.077,71.913 139.172 M71.271 140.756 C 71.219 140.890,71.220 141.112,71.273 141.250 C 71.331 141.401,71.274 141.500,71.128 141.500 C 70.989 141.500,70.798 141.795,70.678 142.193 C 70.564 142.574,70.362 142.995,70.230 143.127 C 70.087 143.270,70.032 143.505,70.096 143.705 C 70.167 143.929,70.141 144.004,70.018 143.928 C 69.916 143.865,69.825 143.912,69.816 144.032 C 69.806 144.152,69.787 144.400,69.774 144.583 C 69.761 144.767,69.659 144.899,69.549 144.877 C 69.362 144.841,68.929 145.984,69.074 146.130 C 69.110 146.165,68.989 146.344,68.807 146.527 C 68.624 146.710,68.517 146.970,68.569 147.105 C 68.622 147.243,68.591 147.306,68.498 147.249 C 68.352 147.158,68.266 147.517,68.289 148.125 C 68.293 148.240,68.235 148.333,68.159 148.333 C 68.015 148.333,67.744 148.995,67.800 149.208 C 67.818 149.277,67.750 149.333,67.649 149.333 C 67.547 149.333,67.507 149.443,67.558 149.578 C 67.610 149.713,67.579 149.868,67.490 149.923 C 67.401 149.978,67.368 150.088,67.417 150.167 C 67.465 150.246,67.429 150.357,67.336 150.415 C 67.243 150.473,67.167 150.665,67.167 150.843 C 67.167 151.021,67.084 151.167,66.982 151.167 C 66.881 151.167,66.841 151.279,66.894 151.417 C 66.946 151.554,66.933 151.667,66.864 151.667 C 66.737 151.667,66.304 152.961,66.341 153.231 C 66.353 153.313,66.268 153.438,66.152 153.509 C 66.037 153.580,65.937 153.907,65.930 154.235 C 65.923 154.564,65.852 154.833,65.774 154.833 C 65.695 154.833,65.676 154.950,65.730 155.092 C 65.785 155.234,65.769 155.313,65.695 155.267 C 65.533 155.167,64.796 157.253,64.759 157.917 C 64.754 158.008,64.696 158.124,64.629 158.174 C 64.563 158.224,64.480 158.411,64.446 158.591 C 64.412 158.770,64.343 159.029,64.294 159.167 C 64.006 159.973,63.834 160.866,63.935 161.029 C 64.012 161.154,63.976 161.172,63.831 161.082 C 63.672 160.984,63.639 161.020,63.712 161.212 C 63.769 161.359,63.745 161.502,63.661 161.531 C 63.507 161.583,63.138 163.079,63.102 163.792 C 63.092 163.998,63.027 164.167,62.958 164.167 C 62.890 164.167,62.845 164.223,62.860 164.292 C 62.875 164.360,62.800 164.628,62.694 164.886 C 62.587 165.144,62.500 165.470,62.500 165.610 C 62.500 165.751,62.314 166.627,62.086 167.558 C 61.213 171.129,60.291 175.879,59.996 178.333 C 59.924 178.929,59.714 180.392,59.529 181.583 C 59.345 182.775,59.142 184.537,59.079 185.500 C 59.016 186.463,58.936 187.475,58.902 187.750 C 58.173 193.644,58.143 205.560,58.842 211.750 C 58.935 212.575,59.053 213.925,59.104 214.750 C 59.155 215.575,59.346 217.225,59.529 218.417 C 59.712 219.608,59.925 221.146,60.002 221.833 C 60.079 222.521,60.298 223.742,60.488 224.548 C 60.678 225.354,60.833 226.240,60.833 226.518 C 60.833 226.795,61.023 227.861,61.256 228.886 C 61.488 229.911,61.873 231.612,62.111 232.667 C 62.349 233.721,62.641 234.883,62.759 235.250 C 62.878 235.617,63.131 236.569,63.321 237.367 C 63.512 238.164,63.755 239.026,63.860 239.283 C 63.966 239.540,64.081 239.938,64.116 240.167 C 64.190 240.646,64.855 242.748,65.436 244.337 C 65.654 244.936,65.834 245.536,65.834 245.671 C 65.835 245.806,65.932 246.104,66.050 246.333 C 66.169 246.563,66.404 247.200,66.573 247.750 C 66.742 248.300,66.994 248.975,67.133 249.250 C 67.272 249.525,67.443 249.975,67.513 250.250 C 67.993 252.134,72.657 262.519,74.400 265.583 C 74.557 265.858,74.802 266.346,74.944 266.667 C 75.087 266.987,75.252 267.287,75.310 267.333 C 75.369 267.379,75.585 267.754,75.790 268.167 C 76.216 269.022,76.758 269.976,77.969 272.000 C 78.436 272.779,79.020 273.773,79.268 274.208 C 79.517 274.644,79.783 275.000,79.860 275.000 C 79.937 275.000,80.000 275.086,80.000 275.191 C 80.000 275.393,81.084 277.098,81.450 277.470 C 81.569 277.591,81.667 277.753,81.667 277.828 C 81.667 277.965,82.540 279.315,83.119 280.071 C 83.283 280.286,83.529 280.631,83.667 280.837 C 84.166 281.588,85.148 282.926,85.486 283.318 C 85.677 283.539,85.833 283.820,85.833 283.943 C 85.833 284.066,85.890 284.167,85.958 284.167 C 86.027 284.167,86.339 284.542,86.651 285.000 C 86.963 285.458,87.282 285.833,87.359 285.833 C 87.437 285.833,87.500 285.907,87.500 285.998 C 87.500 286.153,91.496 291.229,91.897 291.583 C 92.000 291.675,92.302 292.012,92.566 292.333 C 93.614 293.606,95.145 295.300,96.352 296.523 C 97.050 297.230,97.669 297.931,97.726 298.081 C 97.784 298.232,97.907 298.308,97.999 298.251 C 98.091 298.194,98.167 298.225,98.167 298.321 C 98.167 298.546,101.441 301.833,101.664 301.833 C 101.757 301.833,101.833 301.946,101.833 302.083 C 101.833 302.221,101.890 302.334,101.958 302.335 C 102.027 302.335,102.610 302.842,103.253 303.460 C 104.326 304.490,105.178 305.255,108.411 308.083 C 109.039 308.633,110.348 309.700,111.318 310.455 C 112.289 311.209,113.212 311.951,113.370 312.103 C 113.527 312.256,113.798 312.464,113.971 312.565 C 114.144 312.667,114.869 313.200,115.581 313.750 C 116.294 314.300,117.042 314.862,117.245 315.000 C 117.448 315.137,117.935 315.475,118.327 315.750 C 118.719 316.025,119.236 316.362,119.476 316.500 C 119.715 316.637,119.987 316.836,120.081 316.940 C 120.225 317.103,120.768 317.478,121.982 318.255 C 122.129 318.349,122.795 318.780,123.460 319.213 C 124.126 319.646,124.707 320.000,124.753 320.000 C 124.799 320.000,125.147 320.225,125.526 320.500 C 125.906 320.775,126.284 321.000,126.365 321.000 C 126.447 321.000,126.605 321.075,126.715 321.167 C 127.250 321.609,128.726 322.500,128.924 322.500 C 129.046 322.500,129.194 322.576,129.252 322.670 C 129.310 322.763,129.734 323.044,130.196 323.295 C 130.657 323.545,131.383 323.949,131.809 324.192 C 132.749 324.729,139.855 328.284,141.250 328.915 C 141.800 329.164,142.523 329.510,142.856 329.684 C 143.189 329.858,143.574 330.000,143.710 330.000 C 143.846 330.000,144.286 330.179,144.687 330.398 C 145.088 330.617,145.705 330.888,146.058 331.000 C 146.410 331.112,146.898 331.307,147.141 331.434 C 147.384 331.561,147.666 331.665,147.766 331.666 C 147.867 331.666,148.197 331.791,148.500 331.942 C 149.120 332.251,150.906 332.926,151.917 333.232 C 152.283 333.344,152.879 333.564,153.240 333.722 C 153.602 333.880,154.089 334.052,154.324 334.104 C 154.558 334.156,155.237 334.372,155.833 334.584 C 156.429 334.796,157.554 335.164,158.333 335.401 C 159.112 335.638,160.365 336.020,161.117 336.250 C 161.869 336.479,162.615 336.667,162.774 336.667 C 162.933 336.667,163.668 336.848,164.407 337.069 C 167.023 337.852,174.696 339.480,176.258 339.583 C 176.446 339.596,176.683 339.657,176.783 339.719 C 176.884 339.781,177.668 339.906,178.525 339.996 C 179.382 340.086,180.496 340.231,181.000 340.319 C 182.657 340.610,183.653 340.717,187.417 341.011 C 188.700 341.112,189.933 341.223,190.156 341.258 C 192.568 341.641,203.357 341.745,207.167 341.422 C 209.656 341.212,210.289 341.171,211.042 341.177 C 211.477 341.181,211.833 341.121,211.833 341.044 C 211.833 340.967,212.152 340.901,212.542 340.897 C 215.517 340.865,215.986 340.823,216.238 340.571 C 216.382 340.427,216.500 340.390,216.500 340.488 C 216.500 340.586,216.692 340.667,216.927 340.667 C 217.161 340.667,217.318 340.610,217.276 340.542 C 217.202 340.422,217.781 340.356,218.972 340.349 C 219.324 340.347,219.487 340.280,219.417 340.167 C 219.346 340.052,219.456 340.016,219.727 340.065 C 219.960 340.107,220.183 340.054,220.227 339.946 C 220.283 339.808,220.311 339.814,220.320 339.964 C 220.330 340.121,220.416 340.134,220.645 340.012 C 220.816 339.920,221.002 339.891,221.057 339.946 C 221.113 340.002,221.287 339.943,221.445 339.815 C 221.690 339.617,221.710 339.617,221.589 339.818 C 221.475 340.008,221.552 340.031,221.995 339.943 C 222.296 339.883,222.687 339.833,222.864 339.833 C 223.041 339.833,223.148 339.772,223.102 339.697 C 223.056 339.622,223.239 339.593,223.509 339.632 C 223.814 339.677,224.000 339.631,224.000 339.509 C 224.000 339.402,224.076 339.361,224.169 339.418 C 224.417 339.571,226.166 339.146,226.169 338.932 C 226.171 338.830,226.233 338.847,226.312 338.970 C 226.462 339.207,227.667 339.083,227.667 338.830 C 227.667 338.758,227.817 338.737,228.000 338.785 C 228.195 338.836,228.333 338.790,228.333 338.675 C 228.333 338.553,228.461 338.518,228.667 338.583 C 229.208 338.755,229.067 338.483,227.751 336.824 C 227.065 335.959,226.371 335.079,226.210 334.871 C 226.049 334.662,225.841 334.400,225.749 334.287 C 225.657 334.175,225.207 333.605,224.749 333.020 C 224.291 332.436,223.785 331.838,223.625 331.692 C 223.465 331.546,223.333 331.357,223.333 331.274 C 223.333 331.190,223.165 330.955,222.958 330.752 C 222.752 330.549,222.396 330.133,222.167 329.827 C 221.617 329.093,220.734 328.005,220.327 327.560 C 220.147 327.364,220.000 327.149,220.000 327.083 C 220.000 327.018,219.853 326.803,219.673 326.607 C 219.266 326.162,218.383 325.073,217.833 324.340 C 217.604 324.034,217.248 323.618,217.042 323.414 C 216.835 323.211,216.667 322.977,216.667 322.893 C 216.667 322.809,216.535 322.621,216.375 322.475 C 216.215 322.329,215.709 321.731,215.251 321.146 C 214.793 320.562,214.343 319.991,214.251 319.879 C 214.159 319.767,213.952 319.504,213.791 319.296 C 212.531 317.660,211.094 315.907,210.976 315.861 C 210.898 315.831,210.833 315.713,210.833 315.600 C 210.833 315.486,210.665 315.236,210.458 315.044 C 210.252 314.851,209.671 314.151,209.167 313.489 C 208.662 312.826,208.100 312.117,207.917 311.914 C 207.733 311.711,207.508 311.430,207.417 311.290 C 207.134 310.859,204.939 308.125,204.542 307.710 C 204.335 307.495,204.167 307.276,204.167 307.223 C 204.167 307.171,203.807 306.706,203.367 306.189 C 202.527 305.203,200.368 302.477,200.083 302.043 C 199.992 301.903,199.767 301.626,199.583 301.427 C 198.988 300.779,196.921 298.146,196.752 297.818 C 196.662 297.643,196.537 297.500,196.475 297.500 C 196.413 297.500,196.093 297.133,195.764 296.685 C 195.322 296.084,195.022 295.843,194.618 295.767 C 191.756 295.230,189.321 292.718,187.899 288.833 C 187.647 288.146,187.267 287.154,187.054 286.630 C 186.841 286.106,186.667 285.579,186.667 285.459 C 186.667 285.257,185.260 283.375,184.499 282.560 C 184.316 282.364,184.167 282.147,184.167 282.079 C 184.167 282.011,183.998 281.785,183.792 281.576 C 183.585 281.368,183.341 281.097,183.249 280.974 C 183.156 280.851,182.819 280.412,182.500 280.000 C 182.181 279.587,181.844 279.149,181.751 279.026 C 181.659 278.903,181.415 278.632,181.208 278.424 C 181.002 278.215,180.833 277.989,180.833 277.921 C 180.833 277.853,180.686 277.636,180.507 277.440 C 180.099 276.995,179.216 275.907,178.667 275.173 C 178.438 274.867,178.081 274.451,177.875 274.248 C 177.669 274.045,177.500 273.797,177.500 273.698 C 177.500 273.598,177.405 273.457,177.288 273.383 C 177.172 273.310,176.666 272.706,176.165 272.042 C 175.664 271.377,175.196 270.833,175.127 270.833 C 175.057 270.833,175.000 270.742,175.000 270.631 C 175.000 270.520,174.847 270.276,174.660 270.089 C 174.472 269.903,173.786 269.075,173.136 268.250 C 172.485 267.425,171.888 266.725,171.809 266.694 C 171.731 266.664,171.667 266.546,171.667 266.433 C 171.667 266.320,171.498 266.071,171.292 265.880 C 171.085 265.689,170.504 264.985,170.000 264.315 C 169.496 263.645,168.933 262.935,168.750 262.737 C 168.567 262.540,168.342 262.263,168.250 262.123 C 167.967 261.692,165.772 258.959,165.375 258.544 C 165.169 258.328,165.000 258.093,165.000 258.021 C 165.000 257.950,164.813 257.715,164.583 257.500 C 164.354 257.285,164.167 257.050,164.167 256.979 C 164.167 256.907,163.998 256.672,163.792 256.456 C 163.395 256.041,161.199 253.308,160.917 252.877 C 160.825 252.737,160.600 252.460,160.417 252.263 C 160.233 252.065,159.671 251.355,159.167 250.685 C 158.662 250.015,158.081 249.311,157.875 249.120 C 157.669 248.929,157.500 248.680,157.500 248.567 C 157.500 248.454,157.436 248.336,157.357 248.306 C 157.279 248.275,156.682 247.575,156.031 246.750 C 155.380 245.925,154.694 245.097,154.507 244.911 C 154.320 244.724,154.167 244.487,154.167 244.383 C 154.167 244.279,154.102 244.169,154.024 244.139 C 153.906 244.093,152.469 242.340,151.209 240.704 C 151.048 240.496,150.841 240.233,150.749 240.121 C 150.657 240.009,150.207 239.438,149.749 238.854 C 149.291 238.269,148.785 237.671,148.625 237.525 C 148.465 237.379,148.333 237.191,148.333 237.107 C 148.333 237.023,148.165 236.789,147.958 236.586 C 147.752 236.382,147.396 235.966,147.167 235.660 C 146.617 234.927,145.734 233.838,145.327 233.393 C 145.147 233.197,145.000 232.982,145.000 232.917 C 145.000 232.851,144.853 232.636,144.673 232.440 C 144.266 231.995,143.383 230.907,142.833 230.173 C 142.604 229.867,142.248 229.451,142.042 229.248 C 141.835 229.045,141.667 228.810,141.667 228.726 C 141.667 228.643,141.535 228.454,141.375 228.308 C 141.215 228.162,140.709 227.564,140.251 226.980 C 139.793 226.395,139.335 225.828,139.232 225.719 C 139.096 225.576,137.267 225.502,132.564 225.452 C 125.439 225.376,125.184 225.344,123.372 224.308 C 118.292 221.401,117.429 214.395,121.636 210.228 C 122.226 209.644,122.802 209.167,122.917 209.167 C 123.032 209.167,123.216 209.058,123.326 208.926 C 123.436 208.793,123.891 208.564,124.337 208.415 C 125.216 208.123,125.256 207.952,124.601 207.266 C 124.220 206.867,122.021 204.124,121.750 203.710 C 121.658 203.570,121.433 203.294,121.250 203.096 C 121.067 202.898,120.504 202.188,120.000 201.518 C 119.496 200.848,118.915 200.144,118.708 199.953 C 118.502 199.763,118.333 199.514,118.333 199.400 C 118.333 199.287,118.269 199.169,118.191 199.139 C 118.112 199.108,117.515 198.408,116.864 197.583 C 116.214 196.758,115.528 195.931,115.340 195.744 C 115.153 195.558,115.000 195.314,115.000 195.202 C 115.000 195.091,114.943 195.000,114.873 195.000 C 114.804 195.000,114.336 194.456,113.835 193.792 C 113.334 193.127,112.828 192.523,112.712 192.450 C 112.595 192.377,112.500 192.235,112.500 192.136 C 112.500 192.036,112.331 191.789,112.125 191.586 C 111.919 191.382,111.563 190.966,111.333 190.660 C 110.784 189.927,109.901 188.838,109.493 188.393 C 109.314 188.197,109.167 187.980,109.167 187.911 C 109.167 187.842,109.012 187.627,108.823 187.434 C 108.480 187.083,107.783 186.219,107.000 185.173 C 106.771 184.867,106.415 184.451,106.208 184.248 C 106.002 184.045,105.833 183.823,105.833 183.754 C 105.833 183.686,105.686 183.470,105.507 183.273 C 105.099 182.828,104.216 181.740,103.667 181.007 C 103.438 180.701,103.081 180.284,102.875 180.081 C 102.669 179.878,102.500 179.630,102.500 179.531 C 102.500 179.431,102.405 179.290,102.288 179.217 C 102.172 179.143,101.666 178.540,101.165 177.875 C 100.664 177.210,100.196 176.667,100.127 176.667 C 100.057 176.667,100.000 176.576,100.000 176.464 C 100.000 176.353,99.847 176.109,99.660 175.923 C 99.472 175.736,98.786 174.908,98.136 174.083 C 97.485 173.258,96.888 172.558,96.809 172.528 C 96.731 172.497,96.667 172.379,96.667 172.266 C 96.667 172.153,96.498 171.904,96.292 171.713 C 96.085 171.523,95.504 170.818,95.000 170.148 C 94.496 169.478,93.933 168.768,93.750 168.571 C 93.567 168.373,93.342 168.097,93.250 167.957 C 93.010 167.590,90.811 164.835,90.417 164.407 C 90.233 164.207,90.008 163.930,89.917 163.791 C 89.632 163.356,87.473 160.631,86.633 159.644 C 86.193 159.127,85.833 158.662,85.833 158.610 C 85.833 158.558,85.665 158.339,85.458 158.123 C 85.010 157.655,82.820 154.913,82.583 154.524 C 82.492 154.373,82.371 154.212,82.316 154.167 C 82.260 154.121,81.682 153.408,81.031 152.583 C 80.380 151.758,79.694 150.931,79.507 150.744 C 79.320 150.558,79.167 150.320,79.167 150.216 C 79.167 150.113,79.102 150.003,79.024 149.972 C 78.906 149.926,77.469 148.174,76.209 146.537 C 76.048 146.329,75.841 146.066,75.749 145.954 C 75.657 145.842,75.207 145.272,74.749 144.687 C 74.291 144.103,73.785 143.505,73.625 143.358 C 73.465 143.212,73.333 143.024,73.333 142.940 C 73.333 142.857,73.165 142.618,72.958 142.410 C 72.752 142.202,72.508 141.931,72.417 141.807 C 71.684 140.824,71.359 140.526,71.271 140.756 M341.559 199.083 C 341.559 199.908,341.587 200.267,341.622 199.880 C 341.657 199.493,341.657 198.818,341.623 198.380 C 341.588 197.942,341.560 198.258,341.559 199.083 M341.545 201.333 C 341.545 201.746,341.578 201.915,341.618 201.708 C 341.657 201.502,341.657 201.165,341.618 200.958 C 341.578 200.752,341.545 200.921,341.545 201.333 M265.667 325.348 C 265.390 325.575,265.362 325.631,265.583 325.517 C 266.127 325.236,266.428 325.005,266.250 325.006 C 266.158 325.007,265.896 325.161,265.667 325.348 M260.792 327.762 C 260.169 328.100,260.207 328.241,260.833 327.917 C 261.108 327.774,261.333 327.623,261.333 327.579 C 261.333 327.472,261.315 327.478,260.792 327.762 M259.000 328.583 C 258.771 328.714,258.658 328.822,258.750 328.822 C 258.842 328.822,259.104 328.714,259.333 328.583 C 259.563 328.452,259.675 328.345,259.583 328.345 C 259.492 328.345,259.229 328.452,259.000 328.583 M243.167 334.684 C 243.167 334.786,243.054 334.826,242.917 334.773 C 242.779 334.720,242.667 334.750,242.667 334.839 C 242.667 334.927,242.817 335.000,243.000 335.000 C 243.185 335.000,243.333 334.889,243.333 334.750 C 243.333 334.612,243.296 334.500,243.250 334.500 C 243.204 334.500,243.167 334.583,243.167 334.684 M240.559 335.411 C 240.367 335.545,240.171 335.615,240.122 335.566 C 240.073 335.518,239.984 335.558,239.924 335.656 C 239.782 335.885,240.418 335.889,240.844 335.661 C 241.162 335.491,241.289 335.167,241.037 335.167 C 240.966 335.167,240.751 335.277,240.559 335.411 M239.447 335.775 C 239.388 335.834,239.132 335.898,238.878 335.915 C 238.064 335.973,238.000 335.996,238.000 336.234 C 238.000 336.387,238.117 336.438,238.333 336.382 C 238.517 336.334,238.667 336.238,238.667 336.168 C 238.667 336.099,238.857 336.042,239.090 336.042 C 239.522 336.042,239.789 335.900,239.639 335.750 C 239.593 335.704,239.507 335.715,239.447 335.775 M237.250 336.435 C 236.924 336.688,236.925 336.692,237.320 336.638 C 237.542 336.608,237.755 336.490,237.793 336.375 C 237.885 336.095,237.657 336.121,237.250 336.435 M236.344 336.660 C 236.217 336.739,236.022 336.767,235.910 336.724 C 235.797 336.681,235.416 336.775,235.061 336.933 C 234.277 337.282,234.277 337.282,233.708 337.332 C 233.353 337.363,233.323 337.391,233.575 337.455 C 233.925 337.544,235.667 337.178,235.667 337.015 C 235.667 336.961,235.859 336.906,236.094 336.892 C 236.527 336.867,236.784 336.728,236.648 336.592 C 236.607 336.552,236.470 336.582,236.344 336.660 M230.675 337.992 C 230.542 338.076,230.378 338.111,230.311 338.070 C 230.244 338.028,230.143 338.071,230.085 338.164 C 229.966 338.356,230.382 338.382,231.143 338.230 C 231.428 338.173,231.621 338.060,231.571 337.980 C 231.454 337.790,230.983 337.796,230.675 337.992 " stroke="none" fill="#f5b444" fill-rule="evenodd"></path><path id="path4" d="M134.208 114.788 C 134.552 114.824,135.115 114.824,135.458 114.788 C 135.802 114.752,135.521 114.723,134.833 114.723 C 134.146 114.723,133.865 114.752,134.208 114.788 M259.042 114.788 C 259.385 114.824,259.948 114.824,260.292 114.788 C 260.635 114.752,260.354 114.723,259.667 114.723 C 258.979 114.723,258.698 114.752,259.042 114.788 M265.660 117.208 C 266.350 117.944,266.500 118.077,266.500 117.951 C 266.500 117.925,266.144 117.568,265.708 117.160 L 264.917 116.417 265.660 117.208 M140.917 117.333 C 141.275 117.700,141.605 118.000,141.651 118.000 C 141.697 118.000,141.441 117.700,141.083 117.333 C 140.725 116.967,140.395 116.667,140.349 116.667 C 140.303 116.667,140.559 116.967,140.917 117.333 M126.053 123.500 C 126.053 124.096,126.084 124.340,126.121 124.042 C 126.158 123.744,126.158 123.256,126.121 122.958 C 126.084 122.660,126.053 122.904,126.053 123.500 M268.372 123.500 C 268.372 123.821,268.406 123.952,268.448 123.792 C 268.490 123.631,268.490 123.369,268.448 123.208 C 268.406 123.048,268.372 123.179,268.372 123.500 M243.685 140.685 C 243.583 140.980,243.528 141.250,243.563 141.286 C 243.599 141.321,243.712 141.109,243.815 140.815 C 243.917 140.520,243.972 140.250,243.937 140.214 C 243.901 140.179,243.788 140.391,243.685 140.685 M231.167 173.806 C 231.167 173.955,223.068 173.991,197.183 173.959 C 178.491 173.936,163.233 173.973,163.276 174.042 C 163.404 174.249,231.129 174.196,231.257 173.989 C 231.317 173.891,231.322 173.766,231.267 173.711 C 231.212 173.656,231.167 173.699,231.167 173.806 M135.750 174.000 L 126.917 174.088 135.698 174.127 C 141.416 174.153,144.516 174.109,144.583 174.000 C 144.640 173.908,144.663 173.851,144.635 173.873 C 144.607 173.894,140.608 173.952,135.750 174.000 M249.833 174.042 C 249.833 174.110,255.065 174.149,261.458 174.128 C 267.852 174.107,271.208 174.069,268.917 174.045 C 258.081 173.930,249.833 173.928,249.833 174.042 M278.250 176.667 C 278.608 177.033,278.938 177.333,278.984 177.333 C 279.030 177.333,278.775 177.033,278.417 176.667 C 278.059 176.300,277.728 176.000,277.682 176.000 C 277.637 176.000,277.892 176.300,278.250 176.667 M278.242 189.042 L 277.583 189.750 278.292 189.091 C 278.950 188.478,279.077 188.333,278.950 188.333 C 278.923 188.333,278.605 188.652,278.242 189.042 M163.722 191.625 C 183.782 191.648,216.557 191.648,236.555 191.625 C 256.554 191.602,240.142 191.583,200.083 191.583 C 160.025 191.583,143.662 191.602,163.722 191.625 M126.711 207.953 C 126.964 207.991,127.339 207.990,127.544 207.951 C 127.749 207.911,127.542 207.880,127.083 207.881 C 126.625 207.882,126.457 207.915,126.711 207.953 M272.794 207.951 C 273.001 207.991,273.301 207.990,273.460 207.948 C 273.620 207.906,273.450 207.874,273.083 207.875 C 272.717 207.877,272.586 207.911,272.794 207.951 M276.917 209.276 C 278.005 210.341,279.165 211.317,278.500 210.607 C 278.087 210.167,277.525 209.650,277.250 209.459 C 276.975 209.269,276.825 209.186,276.917 209.276 M121.583 222.833 C 121.941 223.200,122.272 223.500,122.318 223.500 C 122.363 223.500,122.108 223.200,121.750 222.833 C 121.392 222.467,121.062 222.167,121.016 222.167 C 120.970 222.167,121.225 222.467,121.583 222.833 M203.742 293.375 L 203.083 294.083 203.792 293.425 C 204.450 292.812,204.577 292.667,204.450 292.667 C 204.423 292.667,204.105 292.985,203.742 293.375 " stroke="none" fill="#fbd393" fill-rule="evenodd"></path></g></svg>