<svg id="Layer_1" data-name="Layer 1" xmlns="http://www.w3.org/2000/svg" viewBox="0 0 4000 4000"><defs><style>.cls-1{fill:#007aff;}.cls-2{opacity:0.7;}.cls-3{fill:#fff;}.cls-4{fill:#00004f;}.cls-5{fill:#ff699f;}.cls-6{opacity:0.3;}.cls-7{fill:#000072;}.cls-8{fill:#ff4893;}</style></defs><path class="cls-1" d="M3611.33,1559.85S3719,795.68,3327,186C3252.5,70.09,3108.23,19.07,2978.65,65.81c-172.62,62.25-421.19,201-652.27,510.07C2326.38,575.88,3118.19,647,3611.33,1559.85Z"/><g class="cls-2"><path class="cls-3" d="M3271.31,243.27C3205.78,122.1,3065.78,60.33,2933,97.15c-30.8,8.54-64.13,19.29-99.43,32.65a1171.18,1171.18,0,0,1,145.05-64C3108.23,19.07,3252.5,70.09,3327,186c392,609.71,284.34,1373.88,284.34,1373.88a2301,2301,0,0,0-125.65-206.31C3502.79,1076.1,3484.53,637.49,3271.31,243.27Z"/></g><path class="cls-4" d="M3611.32,1602.19a42.34,42.34,0,0,1-37.24-22.22c-248.58-460.16-575.3-697.08-805.62-814.81-250-127.79-444-146.94-445.92-147.12a42.37,42.37,0,0,1-30.07-67.52C2531.31,231.12,2789.63,89,2964.29,26c148.24-53.47,312.05,2.91,398.32,137.1,396,615.86,295.13,1370.84,290.66,1402.69a42.36,42.36,0,0,1-34.45,35.76A41.57,41.57,0,0,1,3611.32,1602.19ZM2403.77,545.36c82.62,16.54,227.6,55.16,399.34,142.41,221.39,112.47,527.22,329.08,776.65,732.87,10.45-242.64-5.54-771.85-288.39-1211.78C3226.59,108.1,3103.87,65.67,2993,105.63,2839.7,160.94,2617.2,281.84,2403.77,545.36Z"/><path class="cls-5" d="M3405.44,1348.48s74.81-531-197.57-954.63c-51.76-80.51-152-116-242-83.49C2845.89,353.62,2673.17,450,2512.61,664.77,2512.61,664.77,3062.79,714.16,3405.44,1348.48Z"/><g class="cls-6"><path class="cls-7" d="M3148.93,562.47c-51.76-80.51-152-116-242-83.49-86.26,31.11-199.83,89.73-316.53,200.08-48.75-11.66-77.75-14.29-77.75-14.29C2673.17,450,2845.89,353.62,2965.83,310.36c90-32.48,190.28,3,242,83.49,272.38,423.65,197.57,954.63,197.57,954.63q-25.09-46.47-51.61-88.77C3344.6,1067.46,3300.59,798.35,3148.93,562.47Z"/></g><path class="cls-4" d="M3405.44,1378.73a30.26,30.26,0,0,1-26.61-15.87c-330.27-611.4-863.63-667.47-869-668a30.27,30.27,0,0,1-21.46-48.24c166.08-222.12,345.71-321,467.17-364.76,103.43-37.31,217.61,2.05,277.75,95.6,275.3,428.17,205.21,953.07,202.09,975.2a30.25,30.25,0,0,1-24.6,25.55A29.67,29.67,0,0,1,3405.44,1378.73ZM2568,642.82c140.6,27.74,529.29,143.94,814.77,606.07,7-169.76-5.06-534.9-200.38-838.69-44.81-69.67-129.64-99.05-206.34-71.4C2869.91,377.1,2715.91,460.75,2568,642.82Z"/><path class="cls-1" d="M253.17,2093.82S-86.21,1400.73,97.35,699.5C132.23,566.24,253.56,473,391.24,477.22c183.42,5.65,462.78,60.48,778.31,282.6C1169.55,759.82,438.84,1073,253.17,2093.82Z"/><path class="cls-4" d="M253.15,2136.16a42.34,42.34,0,0,1-38-23.72C201,2083.57-129,1397.09,56.38,688.78,96.79,534.45,234.8,429.7,392.55,434.9c185.59,5.71,475.25,60.73,801.36,290.3a42.35,42.35,0,0,1-7.68,73.55c-1.73.74-180.19,79.1-378.25,278.14C625.53,1260.26,388.41,1586.84,294.83,2101.4a42.35,42.35,0,0,1-41.68,34.76ZM382.09,519.42c-114.53,0-214.12,77.48-243.78,190.81-132.44,506,16.51,1014,101.69,1241.45,111.89-461.24,335.46-762,511-937.61,136.21-136.21,262.06-217.9,335.46-259.25C801.88,570.5,552.85,524.56,389.94,519.54Q386,519.42,382.09,519.42Z"/><path class="cls-5" d="M383.35,1829S147.53,1347.43,275.07,860.18c24.24-92.59,108.54-157.39,204.22-154.45,127.44,3.93,321.55,42,540.79,196.37C1020.08,902.1,512.36,1119.7,383.35,1829Z"/><g class="cls-6"><path class="cls-7" d="M383.41,1002.21c24.24-92.6,108.54-157.4,204.21-154.45,91.66,2.82,217.8,23.32,363,92,42.72-26.2,69.48-37.69,69.48-37.69C800.84,747.76,606.73,709.66,479.29,705.73c-95.68-2.94-180,61.86-204.22,154.45C147.53,1347.43,383.35,1829,383.35,1829q9.45-52,21.53-100.39C354,1543,312.39,1273.5,383.41,1002.21Z"/></g><path class="cls-4" d="M383.34,1859.26a30.27,30.27,0,0,1-27.16-17c-9.83-20.07-239.27-497.34-110.36-989.79C274,744.91,370.57,672.27,480.21,675.5c129.08,4,330.53,42.23,557.29,201.87A30.24,30.24,0,0,1,1032,929.9c-4.89,2.12-494.54,220.84-618.89,904.52A30.21,30.21,0,0,1,387.5,1859,29.32,29.32,0,0,1,383.34,1859.26ZM472.92,735.88c-79.2,0-148.07,53.59-168.58,132-91.46,349.38,10.33,700.25,69.64,859.46,128-527.88,461.53-758.9,586.59-828.88-197-127.22-369.39-159-482.21-162.45C476.53,735.91,474.72,735.88,472.92,735.88Z"/><path class="cls-1" d="M2263.44,3909.65c1298.35-206.44,2048-1038.38,1526.71-1970.07q-19.93-35.55-42.23-71.25a413.92,413.92,0,0,1-39.42-82.27C3623,1542.9,3132.92,364,1735,586.26S236.8,2081.34,231,2339a413.52,413.52,0,0,1-12,90.44C-54.85,3528.91,932,4121.36,2263.44,3909.65Z"/><path class="cls-3" d="M201,2510.29s199.12-49.92,407.3,218.71c163.52,210.79,544.13,151.71,726.6-22.69s423.79-292.26,683.61-333.57,527.09-4.2,754.5,104.9c227.56,109.2,607.73,47.32,697.8-203.8,114.59-320,319.38-334.26,319.38-334.26,521.33,931.69-228.36,1763.63-1526.71,1970.07S-5.68,3557.73,201,2510.29Z"/><g class="cls-6"><path class="cls-7" d="M196.25,2535.52c-19.94,862.19,869.08,1305.19,2027,1121.08,1157.26-184,1865-880.36,1579.73-1693.31C4298.47,2885.34,3550.76,3705,2263.44,3909.65,975.5,4114.44,10.05,3566.72,196.25,2535.52Z"/></g><g class="cls-6"><path class="cls-7" d="M1341.93,2758.33s98.37,157.24,305.52,110.43c80.22-18.13,135.44-47.85,173.5-79.8,14.49-12.17,12.18-35.47-4.6-44.22-95.66-49.88-160.41-130.09-148.17-211.81,22.17-148,345.92-191.34,345.92-191.34s321.24-59.18,388.21,74.61c37.05,74,.18,170.59-75.58,247.76-13.28,13.53-8.24,36.47,9.36,43.51,46,18.39,107.52,29.35,189,21.74,211.45-19.75,256.2-199.74,256.2-199.74s118.8,156.78,1,321.94a114.86,114.86,0,0,0-20.06,46.93c-21.06,121.24-133,623.57-550.45,689.94s-679.67-376.45-737.3-485.18a114.71,114.71,0,0,0-33.63-38.39C1277.62,2944.22,1341.93,2758.33,1341.93,2758.33Z"/></g><g class="cls-2"><path class="cls-3" d="M219,2429.45A413.52,413.52,0,0,0,231,2339c5.84-257.67,106.1-1530.47,1504-1752.75S3623,1542.9,3708.5,1786.06a413.57,413.57,0,0,0,39.42,82.26q22.3,35.78,42.23,71.26c93.34,166.81,145.72,330.38,161.72,487.77-25.93-120.13-72.78-243.3-142.72-368.29q-19.93-35.55-42.23-71.26a414.17,414.17,0,0,1-39.43-82.26C3656,1702.26,3301.62,845.11,2370.51,699.3c0,.25.09.49.09.74-.68,43.79-98.35,77.77-218.15,75.91s-216.37-38.87-215.69-82.65a30.5,30.5,0,0,1,1.77-9.29c-59.7,4.54-121.16,11.65-184.54,21.73C356.06,928,255.8,2200.82,250,2458.49a414.13,414.13,0,0,1-12,90.44c-42.52,170.7-54.6,329.16-39.76,474.31C160.09,2846.92,164.5,2648.27,219,2429.45Z"/></g><path class="cls-4" d="M2462.38,2112.34l6.39-11.47c1.91-3.29,3.78-6.63,5.79-9.71,4-6.28,7.9-12.4,12-18.32,8.35-11.81,16.83-23.32,26.05-34.21A581,581,0,0,1,2714,1882.84c51.71-24.41,107.42-40.47,163.45-46.63a464.55,464.55,0,0,1,164.59,11.39,24.45,24.45,0,0,1-2.92,47.93l-.81.09c-49.3,6.22-96.11,16.52-139.47,33.58-21.82,8-42.41,18.59-62.56,29.12-20,11-38.93,23.73-57.35,36.79-36.57,26.77-69.28,58.27-100,91.39-15.32,16.63-29.86,34-43.95,51.52-6.89,8.88-14,17.61-20.43,26.55l-18,24.31-5,6.72a77,77,0,0,1-129.28-83.26Z"/><path class="cls-4" d="M1412.94,2377.09l-24.61-17.54c-8.92-6.49-18.35-12.6-27.66-18.9-18.83-12.3-38-24.3-57.75-35.35-39.47-22-80.34-41.76-123.42-55.86-21.56-6.71-43.48-13-65.93-17.19-22.42-3.77-45.29-7.48-68.5-8.29-46.51-2.77-94.22,2-143,11.34l-.74.15a24.44,24.44,0,0,1-17.7-44.64,464.51,464.51,0,0,1,152.94-61.88c55.18-11.53,113.13-13.54,169.85-6.37a580.53,580.53,0,0,1,239.76,85.65c12.15,7.49,23.77,15.8,35.38,24.44,5.77,4.34,11.4,8.94,17.13,13.68,2.86,2.3,5.67,4.9,8.51,7.43l9.64,8.93A77,77,0,0,1,1419.76,2382Z"/><path class="cls-4" d="M2078,2743.28c-198.48,31.56-416.59-104.2-395.58-244.46s327.88-181.36,327.88-181.36,304.48-56.1,368,70.72S2276.46,2711.72,2078,2743.28Z"/><path class="cls-4" d="M2115.37,2693c1.28,1.8,4.45,6.25,7,9.5,2.7,3.52,5.56,7.09,8.51,10.59,5.84,7.07,12.18,13.88,18.46,20.7a430.38,430.38,0,0,0,40.82,37.84,372.44,372.44,0,0,0,93.63,56.47,296.9,296.9,0,0,0,51.61,16.4,319.12,319.12,0,0,0,53.74,8.16c36.43,2.33,73.66-.94,110.74-8.9,37.06-8.16,74.28-20.8,107.69-37.33,33.82-16.24,64.29-37.71,88.61-64.59,24.54-26.86,41.91-59,55.5-94.28,13.25-35.56,22.23-74.51,27.39-117.6v-.18a1.77,1.77,0,0,1,3.27-.69c23.15,38.61,30.1,85.26,25.31,131.22-4.66,46.31-25,91.4-54.07,128.76-28.8,37.76-65.82,68.34-105.52,91.63-40.1,23.33-81.89,39.92-125.77,52.52-87.52,25-188,24.58-276.28-11.41-44.3-17.08-84.64-42.51-120.44-72.21a483.21,483.21,0,0,1-49.92-48.57c-7.75-8.67-15.09-17.68-22.12-27.09-3.53-4.7-7-9.46-10.38-14.42-3.56-5.22-6.36-9.37-10.6-16.44a48.33,48.33,0,0,1,80.67-53.09Z"/><path class="cls-4" d="M2121.1,2729c-1.85,8-3.22,12.85-5,18.92-1.69,5.77-3.49,11.37-5.39,16.93-3.76,11.12-7.94,22-12.62,32.61a484.17,484.17,0,0,1-32.39,61.66c-24.83,39.34-55.28,76-92.11,106-72.78,61.6-168.14,93.2-259.11,96.54-45.63,1.63-90.5-1.18-135.86-10.92-45-9.83-89.64-27.42-128.74-54.39-39.17-26.51-72.54-63-91.33-105.63-18.81-42.21-26.68-88.72-16.65-132.6a1.77,1.77,0,0,1,3.32-.36l.07.16c18.28,39.38,38.89,73.62,62.51,103.31,23.87,29.35,50.35,54.49,82,72.42,31.47,18,67.1,29,104.28,33.92,36.89,5.35,76.2,5.82,114,2.08,37.71-3.93,74.12-12.36,108-25.88a319.68,319.68,0,0,0,48.56-24.42,297.17,297.17,0,0,0,44-31.6,372.78,372.78,0,0,0,71.51-82.73,430.9,430.9,0,0,0,27.06-48.64c3.86-8.43,7.78-16.87,11.14-25.4,1.71-4.25,3.33-8.52,4.8-12.71,1.41-3.89,3-9.1,3.7-11.2l1.05-3.35A48.33,48.33,0,0,1,2121.1,2729Z"/><path class="cls-4" d="M1565.68,3005s217,611,640.35,543.63c183.77-29.22,290.93-167.92,353.39-315.54,81.42-192.37,86.75-399.89,86.75-399.89S2339.63,3030,2078,2743.31C1918.17,3097.05,1565.68,3005,1565.68,3005Z"/><path class="cls-8" d="M2131.49,3079.82c318.45-50.63,427.93,153.24,427.93,153.24C2497,3380.68,2389.8,3519.38,2206,3548.6s-328.68-69.4-433.84-190.37C1772.19,3358.23,1813,3130.46,2131.49,3079.82Z"/><g class="cls-6"><path class="cls-7" d="M2175.82,3358.62c140.88-22.41,242.66-100.85,316.23-201.1,47.4,38.55,67.37,75.53,67.37,75.53C2497,3380.68,2389.8,3519.38,2206,3548.6s-328.68-69.4-433.84-190.37c0,0,7.51-41.36,40.62-92.71C1913.84,3338,2034.93,3381,2175.82,3358.62Z"/></g><path class="cls-4" d="M2139.92,3596.23c-404.24,0-605.38-552.25-614.21-577.1a42.35,42.35,0,0,1,50.6-55.15c12.91,3.3,320.36,77.71,463.09-238.14a42.34,42.34,0,0,1,69.86-11.11c233.63,256,502.84,89.9,514.19,82.7a42.39,42.39,0,0,1,65.11,36.8c-.73,27.89-23,684.17-475.89,756.16A462.24,462.24,0,0,1,2139.92,3596.23ZM1633,3056.37c68.27,149.47,262.21,498.6,566.34,450.39s380.17-440.53,398.74-603.85c-106.45,41.54-315.51,86.24-508.84-88.62C1959.75,3040.43,1747.09,3062.87,1633,3056.37Z"/><ellipse class="cls-3" cx="2022.87" cy="2426.21" rx="131.02" ry="29.78" transform="translate(-355.9 347.76) rotate(-9.03)"/><ellipse class="cls-3" cx="2467.69" cy="1710.33" rx="177.55" ry="104.43" transform="translate(-491.64 2217.39) rotate(-44.45)"/><path class="cls-3" d="M1546.14,1961c-25.62,51.67-117.61,58.24-205.46,14.67S1202.4,1854.94,1228,1803.27s105.67-56.34,193.52-12.78S1571.77,1909.37,1546.14,1961Z"/><path class="cls-4" d="M1749.47,3994c-575.42,0-1057.56-166.83-1341.06-476C149,3235.2,69.3,2855.22,177.93,2419.21a371.51,371.51,0,0,0,10.69-81.11c5.92-259.58,108-1566,1539.72-1793.65l6.66,41.81-6.66-41.81c1431.75-227.66,1934,982.67,2020.13,1227.61a371.68,371.68,0,0,0,35.32,73.8c238.52,380.81,280.6,766.76,121.73,1116.14-223.89,492.35-835.26,862.25-1635.42,989.48C2090.46,3980.05,1916,3994,1749.47,3994Zm322-3393c-103.78,0-213.5,8.54-329.83,27h0C376.29,845.18,278.93,2092.24,273.28,2340a455.66,455.66,0,0,1-13.18,99.67c-101.42,407.1-28.56,760.22,210.72,1021.14,346.31,377.63,1014,529.77,1786,407s1359.55-474.5,1571.63-940.92C3975,2604.67,3934.73,2246.38,3712,1890.81a456.33,456.33,0,0,1-43.44-90.65C3593.36,1586.26,3185.63,601.05,2071.48,601.05Z"/></svg>