<svg width="24" height="24" viewBox="0 0 24 24" fill="none" xmlns="http://www.w3.org/2000/svg">
<path d="M12 24C18.6274 24 24 18.6274 24 12C24 5.37258 18.6274 0 12 0C5.37258 0 0 5.37258 0 12C0 18.6274 5.37258 24 12 24Z" fill="white"/>
<path d="M11.9995 0C4.47265 0 -2.05964 7.3766 0.607901 15.9995H4.19818V5.77053L11.9995 13.6735L19.8008 5.77053V16H23.3923C25.9927 7.70373 19.8837 0.00169985 12.0007 0.00169985L11.9995 0Z" fill="#F06923"/>
<path d="M6.93212 12V18.2898H2C4.05397 21.7109 7.76562 24 11.9998 24C16.2341 24 19.946 21.7106 22 18.2892H17.0662V12L11.9995 17.1456L6.93212 12Z" fill="#4D4E4E"/>
</svg>
