<svg fill="none" height="24" viewBox="0 0 24 24" width="24" xmlns="http://www.w3.org/2000/svg"><path d="m12 23.8456c6.5421 0 11.8456-5.3035 11.8456-11.8456 0-6.54222-5.3035-11.845703-11.8456-11.845703-6.54222 0-11.845703 5.303483-11.845703 11.845703 0 6.5421 5.303483 11.8456 11.845703 11.8456z" fill="#fff"/><path d="m12 24c-6.61736 0-12-5.3826-12-12 0-6.61736 5.38264-12 12-12 6.6174 0 12 5.38264 12 12 0 6.6174-5.3826 12-12 12zm0-23.672026c-6.44373 0-11.672026 5.247586-11.672026 11.672026 0 6.4244 5.247586 11.672 11.672026 11.672 6.4244 0 11.672-5.2476 11.672-11.672 0-6.42444-5.2283-11.672026-11.672-11.672026z" fill="#d0509d"/><path d="m11.9995.154297c-5.24755 0-9.70414 3.434083-11.247547 8.160773h5.980707v7.42763l5.22834-5.672h.0771l5.2283 5.6913v-7.44693h5.9807c-1.5434-4.72669-6-8.160773-11.2476-8.160773z" fill="#ffcd05"/><path d="m6.56007 16.1672v-7.67845h-6.038586l.077171-.21222c1.601285-4.9582 6.192925-8.27653 11.401945-8.27653 5.209 0 9.8006 3.31833 11.4019 8.27653l.0772.21222h-6.0386v7.67845l-5.4405-5.8842zm5.34403-6.2508h.2122l4.9968 5.4212v-7.17683h5.9229c-1.6399-4.6881-6.0386-7.832796-11.0354-7.832796s-9.39551 3.144696-11.035386 7.832796h5.922826v7.17683z" fill="#d0509d"/><path d="m18.2473 18.2508-1.6978-1.8328-4.553-4.9389-4.5531 4.9389-1.69775 1.8328v-2.4888-6.2122h-4.14791c-.19292.8103-.30868 1.6592-.30868 2.5466 0 5.9036 4.78457 10.7074 10.70744 10.7074 5.9228 0 10.7074-4.7845 10.7074-10.7074 0-.8681-.1158-1.717-.3087-2.5466h-4.1672v6.2122 2.4888z" fill="#d0519d"/></svg>