<svg width="24" height="24" viewBox="0 0 24 24" fill="none" xmlns="http://www.w3.org/2000/svg">
<path d="M12 23.8456C18.5421 23.8456 23.8456 18.5421 23.8456 12C23.8456 5.45778 18.5421 0.154297 12 0.154297C5.45778 0.154297 0.154297 5.45778 0.154297 12C0.154297 18.5421 5.45778 23.8456 12 23.8456Z" fill="white"/>
<path d="M12 24C5.38264 24 0 18.6174 0 12C0 5.38264 5.38264 0 12 0C18.6174 0 24 5.38264 24 12C24 18.6174 18.6174 24 12 24ZM12 0.327974C5.55627 0.327974 0.327974 5.57556 0.327974 12C0.327974 18.4244 5.57556 23.672 12 23.672C18.4244 23.672 23.672 18.4244 23.672 12C23.672 5.57556 18.4437 0.327974 12 0.327974Z" fill="#D0509D"/>
<path d="M11.9995 0.154297C6.75195 0.154297 2.29536 3.58838 0.751953 8.31507H6.73266V15.7427L11.961 10.0707H12.0381L17.2664 15.762V8.31507H23.2471C21.7037 3.58838 17.2471 0.154297 11.9995 0.154297Z" fill="#FFCD05"/>
<path d="M6.56007 16.1672V8.48875H0.521484L0.598655 8.27653C2.19994 3.31833 6.79158 0 12.0006 0C17.2096 0 21.8012 3.31833 23.4025 8.27653L23.4797 8.48875H17.4411V16.1672L12.0006 10.283L6.56007 16.1672ZM11.9041 9.9164H12.1163L17.1131 15.3376V8.16077H23.036C21.3961 3.47267 16.9974 0.327974 12.0006 0.327974C7.0038 0.327974 2.60509 3.47267 0.965214 8.16077H6.88804V15.3376L11.9041 9.9164Z" fill="#D0509D"/>
<path d="M18.2473 18.2508L16.5495 16.418L11.9965 11.4791L7.4434 16.418L5.74565 18.2508V15.762V9.5498H1.59774C1.40482 10.3601 1.28906 11.209 1.28906 12.0964C1.28906 18 6.07363 22.8038 11.9965 22.8038C17.9193 22.8038 22.7039 18.0193 22.7039 12.0964C22.7039 11.2283 22.5881 10.3794 22.3952 9.5498H18.228V15.762V18.2508H18.2473Z" fill="#D0519D"/>
</svg>
