<svg width="36" height="36" viewBox="0 0 36 36" fill="none" xmlns="http://www.w3.org/2000/svg">
<circle cx="18" cy="18" r="18" fill="url(#paint0_linear)"/>
<path fill-rule="evenodd" clip-rule="evenodd" d="M23.5954 10.1254C21.7987 13.3877 19.9518 16.1355 18.0785 18.321C16.1867 16.458 14.1655 13.8408 11.9487 10.3866C13.5234 8.19578 15.5658 6.74589 17.6928 6.66859C19.5449 6.60196 21.7591 7.96657 23.5954 10.1254ZM16.7422 21.0956L17.0355 29.3338C11.701 28.8514 8.23445 24.5657 9.10108 17.8093C9.30452 16.2208 9.73784 14.675 10.3403 13.2677C10.3403 13.2677 13.5082 18.2224 16.7422 21.0956ZM19.6593 20.9621L19.9526 29.2297C25.2369 28.3661 28.3943 23.8379 27.0521 17.1615C26.743 15.6236 26.1749 14.1471 25.443 12.8091C23.5671 16.0527 21.6304 18.7819 19.6593 20.9621Z" fill="white"/>
<defs>
<linearGradient id="paint0_linear" x1="19.7667" y1="-54.7714" x2="-63.0147" y2="23.3052" gradientUnits="userSpaceOnUse">
<stop stop-color="#68F7AA"/>
<stop offset="1" stop-color="#19B5A2"/>
</linearGradient>
</defs>
</svg>
