<svg width="24" height="24" viewBox="0 0 24 24" fill="none" xmlns="http://www.w3.org/2000/svg">
<path d="M16.8242 1H4.44922C2.93027 1 1.69922 2.23105 1.69922 3.75V20.25C1.69922 21.7689 2.93027 23 4.44922 23H16.8242C18.3432 23 19.5742 21.7689 19.5742 20.25V3.75C19.5742 2.23105 18.341 1 16.8242 1ZM10.6367 6.5C12.1557 6.5 13.3867 7.73105 13.3867 9.25C13.3867 10.7689 12.1557 12 10.6367 12C9.1182 12 7.88672 10.7689 7.88672 9.25C7.88672 7.73105 9.11992 6.5 10.6367 6.5ZM14.7617 17.5H6.51172C6.13359 17.5 5.82422 17.1906 5.82422 16.8125C5.82422 14.9133 7.3625 13.375 9.26172 13.375H12.0117C13.9101 13.375 15.4492 14.9141 15.4492 16.8125C15.4492 17.1906 15.1398 17.5 14.7617 17.5ZM21.6367 3.75H20.9492V7.875H21.6367C22.0148 7.875 22.3242 7.56563 22.3242 7.1875V4.4375C22.3242 4.05766 22.0148 3.75 21.6367 3.75ZM21.6367 9.25H20.9492V13.375H21.6367C22.0148 13.375 22.3242 13.0656 22.3242 12.6875V9.9375C22.3242 9.55937 22.0148 9.25 21.6367 9.25ZM21.6367 14.75H20.9492V18.875H21.6367C22.0164 18.875 22.3242 18.5672 22.3242 18.1875V15.4375C22.3242 15.0594 22.0148 14.75 21.6367 14.75Z" fill="#232323"/>
</svg>
