<svg width="22" height="20" viewBox="0 0 22 20" fill="none" xmlns="http://www.w3.org/2000/svg">
<path d="M6.875 3.12012C7.63555 3.12012 8.25 2.50566 8.25 1.74512C8.25 0.98457 7.63555 0.370117 6.875 0.370117H4.125C1.84766 0.370117 0 2.21777 0 4.49512V15.4951C0 17.7725 1.84766 19.6201 4.125 19.6201H6.875C7.63555 19.6201 8.25 19.0057 8.25 18.2451C8.25 17.4846 7.63555 16.8701 6.875 16.8701H4.125C3.36445 16.8701 2.75 16.2557 2.75 15.4951V4.49512C2.75 3.73457 3.36445 3.12012 4.125 3.12012H6.875ZM21.6777 10.7428C21.884 10.5494 22 10.2787 22 9.99512C22 9.71152 21.884 9.44082 21.6777 9.24746L15.4902 3.40371C15.1895 3.12012 14.7512 3.04277 14.373 3.20605C13.9949 3.36934 13.75 3.74316 13.75 4.15137V7.24512H8.25C7.48945 7.24512 6.875 7.85957 6.875 8.62012V11.3701C6.875 12.1307 7.48945 12.7451 8.25 12.7451H13.75V15.8389C13.75 16.2514 13.9949 16.6209 14.373 16.7842C14.7512 16.9475 15.1895 16.8701 15.4902 16.5865L21.6777 10.7428Z" fill="#232323"/>
</svg>
