<svg width="16" height="16" viewBox="0 0 16 16" fill="none" xmlns="http://www.w3.org/2000/svg">
<path fill-rule="evenodd" clip-rule="evenodd" d="M1.08171 1.81143C0.793559 1.58227 0.374166 1.63004 0.144958 1.91816C-0.084249 2.20633 -0.0364687 2.62573 0.251678 2.85493L14.9183 14.5216C15.2065 14.7508 15.6259 14.703 15.8551 14.4149C16.0843 14.1267 16.0365 13.7073 15.7484 13.4781L13.6477 11.8071C14.7838 10.6615 15.5523 9.39758 15.9312 8.49332C16.0229 8.27624 16.0229 8.03442 15.9312 7.81729C15.5201 6.81156 14.6506 5.40734 13.3506 4.21471C12.0422 3.01224 10.2449 1.99987 8.00035 1.99987C6.13683 1.99987 4.5816 2.69771 3.35883 3.6228L1.08171 1.81143ZM5.3412 5.19966L6.38593 6.03071C6.83407 5.68936 7.39353 5.48669 8.00035 5.48669C9.47317 5.48669 10.6671 6.68066 10.6671 8.15348C10.6671 8.5441 10.5831 8.91507 10.4323 9.24938L11.4899 10.0907C11.815 9.51847 12.0005 8.85823 12.0005 8.15531C12.0005 5.9707 10.2088 4.19823 8.00035 4.19823C6.97973 4.19823 6.04811 4.57682 5.3412 5.19966Z" fill="black"/>
<path d="M11.4642 13.4406C10.4673 13.9665 9.30997 14.3107 8.00035 14.3107C5.75581 14.3107 3.95851 13.2995 2.65068 12.0959C1.35062 10.8785 0.481689 9.47432 0.0683694 8.49332C-0.0227866 8.27624 -0.0227866 8.03442 0.0683694 7.81729C0.34022 7.1558 0.809143 6.32193 1.4682 5.48929L4.04806 7.54146C4.01654 7.74153 4.00017 7.94653 4.00017 8.15531C4.00017 10.34 5.79192 12.1124 8.00035 12.1124C8.51346 12.1124 9.00409 12.0167 9.45497 11.8424L11.4642 13.4406Z" fill="black"/>
</svg>
