<svg width="14" height="14" viewBox="0 0 14 14" fill="none" xmlns="http://www.w3.org/2000/svg">
<path d="M7 1.75C5.79141 1.75 4.8125 2.72945 4.8125 3.9375V5.25H11.375C12.3402 5.25 13.125 6.03477 13.125 7V12.25C13.125 13.2152 12.3402 14 11.375 14H2.625C1.6584 14 0.875 13.2152 0.875 12.25V7C0.875 6.03477 1.6584 5.25 2.625 5.25H3.0625V3.9375C3.0625 1.76285 4.82617 0 7 0C8.57227 0 9.92578 0.921211 10.5574 2.24957C10.7652 2.68598 10.5793 3.20742 10.1199 3.41523C9.68242 3.62305 9.18476 3.43711 8.97695 2.99961C8.62422 2.25941 7.87227 1.75 7 1.75ZM7.875 10.5C8.35898 10.5 8.75 10.109 8.75 9.625C8.75 9.14102 8.35898 8.75 7.875 8.75H6.125C5.64102 8.75 5.25 9.14102 5.25 9.625C5.25 10.109 5.64102 10.5 6.125 10.5H7.875Z" fill="#0056D2"/>
</svg>
