<svg width="16" height="18" viewBox="0 0 16 18" fill="none" xmlns="http://www.w3.org/2000/svg">
<path d="M8 0.333496C10.8393 0.333496 13.1429 2.50316 13.1429 5.17965V6.79503H13.7143C14.975 6.79503 16 7.7609 16 8.94888V15.4104C16 16.5984 14.975 17.5643 13.7143 17.5643H2.28571C1.02321 17.5643 0 16.5984 0 15.4104V8.94888C0 7.7609 1.02321 6.79503 2.28571 6.79503H2.85714V5.17965C2.85714 2.50316 5.16071 0.333496 8 0.333496ZM8 2.48734C6.42143 2.48734 5.14286 3.69282 5.14286 5.17965V6.79503H10.8571V5.17965C10.8571 3.69282 9.57857 2.48734 8 2.48734ZM9.14286 11.1027C9.14286 10.5071 8.63214 10.0258 8 10.0258C7.36786 10.0258 6.85714 10.5071 6.85714 11.1027V13.2566C6.85714 13.8522 7.36786 14.3335 8 14.3335C8.63214 14.3335 9.14286 13.8522 9.14286 13.2566V11.1027Z" fill="#232323"/>
</svg>
