<svg width="20" height="20" viewBox="0 0 20 20" fill="none" xmlns="http://www.w3.org/2000/svg">
<path d="M6.32099 5.11654C6.36635 4.1732 5.61228 3.38665 4.66934 3.38665H4.33832C3.26477 3.38665 2.34238 4.25531 2.34238 5.35395V13.0533C2.34238 15.0164 3.93487 16.6089 5.89793 16.6089H6.38407L6.39773 16.1229L6.42638 15.1044L6.42658 15.1044V15.0904C6.42658 12.5838 8.06723 10.4614 10.3343 9.74146C11.2194 10.8231 12.5669 11.5163 14.0747 11.5163C14.341 11.5163 14.5977 11.4793 14.8307 11.4349L17.2447 13.7633L17.2463 13.7649C18.1535 14.6318 18.6673 15.8317 18.6673 17.0892V17.1274C18.6673 17.4146 18.436 17.6459 18.1488 17.6459C17.8616 17.6459 17.6303 17.4146 17.6303 17.1274V17.0892C17.6303 16.1162 17.2343 15.1861 16.5298 14.5151L14.4197 12.5036L13.5747 11.6981V12.8655V16.1089V16.6089H14.0747H15.0932C15.3805 16.6089 15.6118 16.8402 15.6118 17.1274C15.6118 17.4146 15.3805 17.6459 15.0932 17.6459H5.92658C3.38996 17.6459 1.33398 15.5908 1.33398 13.0533V5.35395C1.33398 3.6952 2.67931 2.34962 4.33832 2.34962H4.66934C6.20478 2.34962 7.42841 3.6318 7.35595 5.16484L7.35592 5.16564C7.29694 6.45768 6.32086 7.52368 5.03701 7.70095L5.03698 7.70076L5.0232 7.70306L4.97418 7.71122C4.69124 7.74677 4.43295 7.54849 4.39441 7.26866C4.35516 6.98361 4.55436 6.72184 4.83595 6.68323L4.83596 6.68333L4.84599 6.68174L4.90097 6.67306C5.6898 6.56499 6.28431 5.90776 6.32099 5.11654ZM6.32099 5.11654C6.32098 5.11674 6.32097 5.11695 6.32096 5.11715L5.82154 5.09295L6.32101 5.11592C6.321 5.11612 6.32099 5.11633 6.32099 5.11654ZM11.4399 7.74158L11.3069 7.46881L11.0036 7.46089C10.1647 7.43901 9.48213 6.76462 9.48213 5.92368C9.48213 5.07034 10.1733 4.38712 10.9908 4.38665L11.308 4.38646C11.1303 4.68787 11.0284 5.03924 11.0284 5.41442C11.0284 6.26965 11.5569 6.99893 12.3044 7.29712C12.3563 8.22999 13.1288 8.96998 14.0747 8.96998C15.0206 8.96998 15.7931 8.22999 15.8451 7.29712C16.5926 6.99893 17.121 6.26965 17.121 5.41442C17.121 5.03925 17.0191 4.68789 16.8415 4.38648L17.13 4.38665C17.9808 4.38713 18.6673 5.07495 18.6673 5.92368C18.6673 6.76031 17.9892 7.43872 17.1176 7.46088L16.7929 7.46914L16.6685 7.76911C16.247 8.78503 15.2445 9.49776 14.0747 9.49776C13.2838 9.49776 12.5655 9.16901 12.0541 8.64197C11.812 8.38874 11.6082 8.08661 11.4399 7.74158ZM13.0562 3.38665C12.3341 3.38665 11.6999 3.76432 11.3406 4.33302L11.4483 4.08766C11.8986 3.0621 12.9068 2.34961 14.0747 2.34961C15.2444 2.34961 16.2469 3.06287 16.6685 4.07834L16.7212 4.20536C16.3516 3.7085 15.7599 3.38665 15.0932 3.38665H13.0562ZM13.0469 5.41442C13.0469 5.41314 13.0471 5.41269 13.0473 5.4122C13.0477 5.41135 13.0485 5.40988 13.0501 5.40831C13.0517 5.40674 13.0531 5.4059 13.054 5.40554C13.0542 5.40545 13.0544 5.40538 13.0546 5.40531C13.055 5.40522 13.0555 5.40517 13.0562 5.40517C13.0575 5.40517 13.0579 5.40533 13.0584 5.40554C13.0593 5.4059 13.0607 5.40674 13.0623 5.40831C13.0639 5.40988 13.0647 5.41135 13.0651 5.4122C13.0653 5.41269 13.0655 5.41314 13.0655 5.41442C13.0655 5.415 13.0654 5.41541 13.0654 5.41573C13.0653 5.41612 13.0652 5.41638 13.0651 5.41665C13.0647 5.41749 13.0639 5.41897 13.0623 5.42054C13.0607 5.4221 13.0593 5.42295 13.0584 5.42331C13.0579 5.42352 13.0575 5.42368 13.0562 5.42368C13.0556 5.42368 13.0551 5.42364 13.0548 5.42358C13.0545 5.42351 13.0542 5.42341 13.054 5.42331C13.0531 5.42295 13.0517 5.4221 13.0501 5.42054C13.0485 5.41897 13.0477 5.41749 13.0473 5.41665C13.0471 5.41616 13.0469 5.41571 13.0469 5.41442ZM15.1025 5.41442C15.1025 5.41571 15.1023 5.41616 15.1021 5.41665C15.1018 5.41749 15.1009 5.41897 15.0994 5.42054C15.0978 5.4221 15.0963 5.42295 15.0955 5.42331C15.095 5.42352 15.0945 5.42368 15.0932 5.42368C15.092 5.42368 15.0915 5.42352 15.091 5.42331C15.0902 5.42295 15.0887 5.4221 15.0871 5.42054C15.0856 5.41897 15.0847 5.41749 15.0844 5.41665C15.0843 5.41643 15.0842 5.41621 15.0841 5.41592C15.084 5.41557 15.084 5.41512 15.084 5.41442C15.084 5.41314 15.0842 5.41269 15.0844 5.4122C15.0845 5.41178 15.0848 5.41121 15.0853 5.41054C15.0857 5.40987 15.0863 5.4091 15.0871 5.40831C15.0887 5.40674 15.0902 5.4059 15.091 5.40554C15.0915 5.40533 15.092 5.40517 15.0932 5.40517C15.0939 5.40517 15.0943 5.4052 15.0946 5.40527C15.095 5.40534 15.0952 5.40543 15.0955 5.40554C15.0963 5.4059 15.0978 5.40674 15.0994 5.40831C15.1009 5.40988 15.1018 5.41135 15.1021 5.4122C15.1023 5.41269 15.1025 5.41314 15.1025 5.41442Z" fill="#8E9192" stroke="#8E9192"/>
</svg>
