<svg width="11" height="12" viewBox="0 0 11 12" fill="none" xmlns="http://www.w3.org/2000/svg">
<g clip-path="url(#clip0_3531_2725)">
<path d="M10.125 6C10.125 6.41461 9.78914 6.75023 9.375 6.75023H6V10.1252C6 10.5398 5.66414 10.875 5.25 10.875C4.83586 10.875 4.5 10.5398 4.5 10.1252V6.75023H1.125C0.710859 6.75023 0.375 6.41461 0.375 6C0.375 5.58539 0.710859 5.25023 1.125 5.25023H4.5V1.87523C4.5 1.46063 4.83586 1.125 5.25 1.125C5.66414 1.125 6 1.46063 6 1.87523V5.25023H9.375C9.78984 5.25 10.125 5.58516 10.125 6Z" fill="white"/>
</g>
<defs>
<clipPath id="clip0_3531_2725">
<rect width="10.5" height="12" fill="white"/>
</clipPath>
</defs>
</svg>
