<svg width="18" height="20" viewBox="0 0 18 20" fill="none" xmlns="http://www.w3.org/2000/svg">
<g clip-path="url(#clip0_3613_11263)">
<path d="M5.875 1.25C6.91016 1.25 7.75 2.08945 7.75 3.125V6.875C7.75 7.91016 6.91016 8.75 5.875 8.75H2.125C1.08945 8.75 0.25 7.91016 0.25 6.875V3.125C0.25 2.08945 1.08945 1.25 2.125 1.25H5.875ZM5.25 3.75H2.75V6.25H5.25V3.75ZM5.875 11.25C6.91016 11.25 7.75 12.0898 7.75 13.125V16.875C7.75 17.9102 6.91016 18.75 5.875 18.75H2.125C1.08945 18.75 0.25 17.9102 0.25 16.875V13.125C0.25 12.0898 1.08945 11.25 2.125 11.25H5.875ZM5.25 13.75H2.75V16.25H5.25V13.75ZM10.25 3.125C10.25 2.08945 11.0898 1.25 12.125 1.25H15.875C16.9102 1.25 17.75 2.08945 17.75 3.125V6.875C17.75 7.91016 16.9102 8.75 15.875 8.75H12.125C11.0898 8.75 10.25 7.91016 10.25 6.875V3.125ZM12.75 6.25H15.25V3.75H12.75V6.25ZM14 17.5H15.25V18.75H14V17.5ZM17.75 18.75H16.5V17.5H17.75V18.75ZM16.5 11.25H17.75V16.25H14V15H12.75V18.75H10.25V11.25H14V12.5H16.5V11.25Z" fill="#8E9192"/>
</g>
<defs>
<clipPath id="clip0_3613_11263">
<rect width="17.5" height="20" fill="white" transform="translate(0.25)"/>
</clipPath>
</defs>
</svg>
