<?xml version="1.0" encoding="UTF-8" standalone="no"?>
<!DOCTYPE svg PUBLIC "-//W3C//DTD SVG 1.1//EN" "http://www.w3.org/Graphics/SVG/1.1/DTD/svg11.dtd">
<svg width="100%" height="100%" viewBox="0 0 2000 2000" version="1.1" xmlns="http://www.w3.org/2000/svg" xmlns:xlink="http://www.w3.org/1999/xlink" xml:space="preserve" xmlns:serif="http://www.serif.com/" style="fill-rule:evenodd;clip-rule:evenodd;">
    <path d="M1835,724.577C1835,710.461 1823.54,699 1809.42,699L1524.58,699C1510.46,699 1499,710.461 1499,724.577C1499,738.693 1510.46,750.154 1524.58,750.154L1809.42,750.154C1823.54,750.154 1835,738.693 1835,724.577Z" style="fill:rgb(209,207,231);"/>
    <path d="M1895,787.423C1895,773.307 1883.54,761.846 1869.42,761.846L1584.58,761.846C1570.46,761.846 1559,773.307 1559,787.423C1559,801.539 1570.46,813 1584.58,813L1869.42,813C1883.54,813 1895,801.539 1895,787.423Z" style="fill:rgb(209,207,231);"/>
    <path d="M1595.51,757.97C1593.94,750.794 1579.69,750.478 1569,748.76L1820.43,746.501C1815.02,746.597 1801.43,753.985 1801.43,757.97C1801.43,770.856 1839.94,765.033 1820.54,768.423L1584.09,768.423C1586.55,767.134 1597.2,765.707 1595.51,757.97Z" style="fill:rgb(209,207,231);fill-rule:nonzero;"/>
    <g>
        <path d="M653.084,685.996C597.927,758.886 516,762.886 423.57,722.134C349.378,689.424 226.481,585.199 176.477,666.462C113.971,768.04 141.317,1033.71 219.449,1307.19C281.955,1525.97 558.023,1697.87 688.243,1756.47C824.975,1813.78 1149.22,1922.91 1352.37,1901.03C1555.51,1879.15 1481.29,1795.54 1418.78,1756.47C1326.32,1692.66 1150.79,1535.35 1188.29,1416.58C1225.79,1297.81 1370.6,1322.81 1438.31,1350.16C1539.89,1374.91 1775.84,1400.95 1907.11,1307.19C2038.37,1213.42 1899.29,989.428 1813.35,889.152C1668.8,688.6 1323.46,251.553 1098.44,107.781C873.417,-35.991 745.302,229.308 744,330.886C742.047,483.253 729.949,584.418 653.084,685.996Z" style="fill:url(#_Linear1);fill-rule:nonzero;"/>
    </g>
    <path d="M1512.26,172.507C1166.58,39.621 654.25,817.809 918.723,854.288C1181.1,890.477 1205.15,601.344 1566.98,866.65C1572.58,870.754 1579.45,874.011 1586.25,875.409C1960.07,952.253 2009.68,461.977 1747.65,425.836C1483.17,389.358 1708.47,247.933 1512.26,172.507Z" style="fill:none;fill-rule:nonzero;stroke:white;stroke-width:10px;stroke-dasharray:50,50;"/>
    <path d="M961.264,1026.51C661.844,901.064 103.25,1671.81 367.723,1708.29C630.101,1744.48 654.154,1455.34 1015.98,1720.65C1021.58,1724.75 1028.45,1728.01 1035.25,1729.41C1409.07,1806.25 1458.68,1315.98 1196.65,1279.84C932.174,1243.36 1157.47,1101.93 961.264,1026.51Z" style="fill:none;fill-rule:nonzero;stroke:white;stroke-width:10px;stroke-dasharray:50,50;"/>
    <path d="M665.317,352.971C675.041,354.215 679.615,365.657 673.427,373.26L553.77,520.296C547.753,527.69 536.006,525.898 532.467,517.046L464.084,345.963C460.546,337.111 467.821,327.715 477.277,328.924L665.317,352.971Z" style="fill:none;fill-rule:nonzero;stroke:rgb(189,188,220);stroke-width:15px;"/>
    <path d="M582.909,546.494C590.702,540.548 601.996,545.477 602.934,555.235L611.054,639.672C611.967,649.162 602.348,656.139 593.611,652.325L518.053,619.344C509.316,615.53 507.892,603.733 515.471,597.95L582.909,546.494Z" style="fill:none;fill-rule:nonzero;stroke:rgb(189,188,220);stroke-width:15px;"/>
    <path d="M665.35,228.326C675.137,228.884 680.502,239.977 674.863,247.996L641.805,295.004C636.321,302.802 624.477,301.838 620.327,293.256L596.009,242.974C591.859,234.392 598.457,224.509 607.974,225.052L665.35,228.326Z" style="fill:none;fill-rule:nonzero;stroke:rgb(126,146,177);stroke-width:15px;"/>
    <path d="M1480.98,1609.31C1476.01,1617.76 1463.69,1617.46 1459.14,1608.78L1371.06,1440.91C1366.63,1432.47 1372.91,1422.38 1382.44,1422.61L1566.62,1427.08C1576.15,1427.31 1581.93,1437.69 1577.1,1445.91L1480.98,1609.31Z" style="fill:none;fill-rule:nonzero;stroke:rgb(126,146,177);stroke-width:15px;"/>
    <path d="M1335.51,1457.39C1337.91,1466.89 1328.93,1475.34 1319.59,1472.36L1238.78,1446.59C1229.69,1443.69 1227.06,1432.11 1234.01,1425.58L1294.07,1369.1C1301.01,1362.56 1312.42,1365.9 1314.75,1375.14L1335.51,1457.39Z" style="fill:none;fill-rule:nonzero;stroke:rgb(185,186,218);stroke-width:15px;"/>
    <path d="M1595.56,1658.4C1591.19,1667.17 1578.88,1667.74 1573.73,1659.4L1543.53,1610.51C1538.52,1602.4 1544.06,1591.89 1553.59,1591.45L1609.38,1588.89C1618.9,1588.45 1625.39,1598.4 1621.15,1606.94L1595.56,1658.4Z" style="fill:none;fill-rule:nonzero;stroke:rgb(186,186,218);stroke-width:15px;"/>
    <path d="M1555,1025.36C1536.55,1051.13 1525.44,1081.41 1522.86,1112.99C1520.27,1144.57 1526.32,1176.26 1540.34,1204.68C1554.36,1233.1 1575.83,1257.17 1602.47,1274.33C1629.1,1291.5 1659.9,1301.11 1691.57,1302.14C1723.24,1303.17 1754.59,1295.58 1782.29,1280.18C1809.98,1264.78 1832.97,1242.15 1848.81,1214.7C1864.64,1187.26 1872.73,1156.03 1872.2,1124.34C1871.68,1092.66 1862.56,1061.72 1845.82,1034.81L1810.48,1056.8C1823.24,1077.3 1830.19,1100.89 1830.59,1125.04C1830.99,1149.18 1824.83,1172.98 1812.76,1193.9C1800.69,1214.82 1783.17,1232.07 1762.06,1243.8C1740.96,1255.54 1717.06,1261.33 1692.92,1260.54C1668.78,1259.76 1645.31,1252.43 1625.01,1239.35C1604.71,1226.27 1588.35,1207.92 1577.66,1186.26C1566.97,1164.61 1562.37,1140.45 1564.34,1116.38C1566.3,1092.32 1574.77,1069.23 1588.83,1049.6L1555,1025.36Z" style="fill:rgb(187,187,219);fill-rule:nonzero;"/>
    <path d="M1601.82,1202.15C1613.96,1217.52 1629.64,1229.72 1647.52,1237.73C1665.4,1245.73 1684.95,1249.3 1704.5,1248.13C1724.06,1246.95 1743.04,1241.07 1759.83,1230.98C1776.62,1220.89 1790.72,1206.89 1800.94,1190.17C1811.16,1173.46 1817.18,1154.52 1818.5,1134.98C1819.83,1115.43 1816.41,1095.86 1808.54,1077.92C1800.66,1059.98 1788.57,1044.21 1773.3,1031.95C1758.02,1019.69 1740,1011.3 1720.79,1007.5L1711.75,1053.19C1723.61,1055.53 1734.72,1060.71 1744.15,1068.27C1753.57,1075.84 1761.03,1085.57 1765.89,1096.63C1770.74,1107.7 1772.85,1119.78 1772.04,1131.83C1771.22,1143.89 1767.5,1155.57 1761.2,1165.88C1754.9,1176.2 1746.2,1184.83 1735.84,1191.06C1725.48,1197.28 1713.77,1200.91 1701.71,1201.64C1689.64,1202.36 1677.58,1200.16 1666.55,1195.22C1655.52,1190.28 1645.85,1182.75 1638.36,1173.27L1601.82,1202.15Z" style="fill:rgb(184,185,217);fill-rule:nonzero;"/>
    <path d="M1651.72,1078.14C1643.62,1085.51 1637.47,1094.77 1633.8,1105.08C1630.14,1115.4 1629.07,1126.47 1630.71,1137.3C1632.34,1148.12 1636.62,1158.38 1643.16,1167.16C1649.7,1175.94 1658.31,1182.98 1668.22,1187.63C1678.13,1192.29 1689.04,1194.44 1699.98,1193.87C1710.91,1193.31 1721.54,1190.06 1730.92,1184.41C1740.3,1178.75 1748.14,1170.88 1753.75,1161.47C1759.36,1152.06 1762.56,1141.42 1763.07,1130.48L1737.59,1129.29C1737.27,1136.04 1735.3,1142.6 1731.84,1148.41C1728.38,1154.21 1723.54,1159.07 1717.76,1162.56C1711.97,1166.04 1705.41,1168.05 1698.66,1168.4C1691.92,1168.74 1685.19,1167.42 1679.08,1164.55C1672.96,1161.67 1667.65,1157.34 1663.61,1151.92C1659.58,1146.5 1656.94,1140.17 1655.93,1133.49C1654.92,1126.81 1655.58,1119.99 1657.84,1113.62C1660.1,1107.26 1663.9,1101.55 1668.89,1097L1651.72,1078.14Z" style="fill:rgb(126,146,177);fill-rule:nonzero;"/>
    <path d="M235.705,808.332L393.798,758.118" style="fill:none;fill-rule:nonzero;stroke:white;stroke-width:10px;"/>
    <path d="M303.975,1035.19L515.401,968.054" style="fill:none;fill-rule:nonzero;stroke:white;stroke-width:10px;"/>
    <path d="M363.177,1052.75L479.078,1016.02" style="fill:none;fill-rule:nonzero;stroke:white;stroke-width:10px;"/>
    <path d="M250.502,769.064L366.403,732.331" style="fill:none;fill-rule:nonzero;stroke:white;stroke-width:10px;"/>
    <path d="M204.307,850.621L441.192,775.977" style="fill:none;fill-rule:nonzero;stroke:white;stroke-width:10px;"/>
    <path d="M188.488,892.597L481.459,800.43" style="fill:none;fill-rule:nonzero;stroke:white;stroke-width:10px;"/>
    <path d="M244.843,1022.08L537.814,929.911" style="fill:none;fill-rule:nonzero;stroke:white;stroke-width:10px;"/>
    <path d="M164.369,936.083L532.913,819.819" style="fill:none;fill-rule:nonzero;stroke:white;stroke-width:10px;"/>
    <path d="M193.393,1002.69L561.937,886.425" style="fill:none;fill-rule:nonzero;stroke:white;stroke-width:10px;"/>
    <path d="M156.008,974.684L544.038,851.846" style="fill:none;fill-rule:nonzero;stroke:white;stroke-width:10px;"/>
    <g transform="matrix(-1,0,0,1,1760,861)">
        <path d="M266.424,13.281C266.424,5.951 260.473,0 253.143,0L13.281,0C5.951,0 0,5.951 0,13.281C0,20.612 5.951,26.563 13.281,26.563L253.143,26.563C260.473,26.563 266.424,20.612 266.424,13.281Z" style="fill:rgb(209,207,231);"/>
    </g>
    <g transform="matrix(-1,0,0,1,1712.42,893.634)">
        <path d="M266.424,13.281C266.424,5.951 260.473,0 253.143,0L13.281,0C5.951,0 0,5.951 0,13.281C0,20.612 5.951,26.563 13.281,26.563L253.143,26.563C260.473,26.563 266.424,20.612 266.424,13.281Z" style="fill:rgb(209,207,231);"/>
    </g>
    <path d="M1683.47,891.621C1684.72,887.895 1696.02,887.731 1704.49,886.839L1505.12,885.666C1509.42,885.716 1520.2,889.552 1520.2,891.621C1520.2,898.313 1489.66,895.289 1505.04,897.049L1692.53,897.049C1690.57,896.38 1682.13,895.639 1683.47,891.621Z" style="fill:rgb(209,207,231);fill-rule:nonzero;"/>
    <g transform="matrix(-1,0,0,1,792,1667)">
        <path d="M266.424,21.763C266.424,9.752 256.672,0 244.661,0L21.763,0C9.752,0 0,9.752 0,21.763C0,33.774 9.752,43.526 21.763,43.526L244.661,43.526C256.672,43.526 266.424,33.774 266.424,21.763Z" style="fill:rgb(209,207,231);"/>
    </g>
    <g transform="matrix(-1,0,0,1,744.422,1720.47)">
        <path d="M266.424,21.763C266.424,9.752 256.672,0 244.661,0L21.763,0C9.752,0 0,9.752 0,21.763C0,33.774 9.752,43.526 21.763,43.526L244.661,43.526C256.672,43.526 266.424,33.774 266.424,21.763Z" style="fill:rgb(209,207,231);"/>
    </g>
    <path d="M715.472,1717.18C716.718,1711.07 728.019,1710.8 736.492,1709.34L537.123,1707.42C541.418,1707.5 552.195,1713.79 552.195,1717.18C552.195,1728.14 521.659,1723.19 537.039,1726.07L724.53,1726.07C722.574,1724.97 714.128,1723.76 715.472,1717.18Z" style="fill:rgb(209,207,231);fill-rule:nonzero;"/>
    <path d="M618,903L990,689C983.667,694.667 954,724 954,776C954,843.849 995.705,882.419 1052,917C1122,960 1174,983 1229,1015L1034,1131C913,1061.33 691.5,930.5 656,910C641.271,901.495 625,900 618,903Z" style="fill:rgb(102,102,102);fill-rule:nonzero;stroke:black;stroke-width:3px;"/>
    <path d="M559.499,949C498.564,1028.63 583.998,1126 610,1141C724.004,1206.77 1032,1386.5 1032,1386.5L1443.5,1147L1240.5,1028.5L1032,1159.5C1032,1159.5 793,1023.78 744,993.5C695.001,963.221 610.001,883 559.499,949Z" style="fill:rgb(35,35,35);fill-rule:nonzero;stroke:white;stroke-width:3px;"/>
    <path d="M1009,853C959.002,787 965.001,701.003 1027,679C1060,667.291 1132,735 1213,785.498C1279,826.643 1336,868 1391,902L1243,1003C1181.67,975.001 1049,905.8 1009,853Z" style="fill:rgb(179,179,179);fill-rule:nonzero;stroke:black;stroke-width:3px;"/>
    <ellipse cx="1508.5" cy="687" rx="311.5" ry="253" style="fill:white;stroke:black;stroke-width:4px;"/>
    <path d="M1301,475C1299.4,500.6 1363,782.333 1395,920C1451.5,935.5 1508.5,954.5 1645,913C1703.09,895.339 1757,838.333 1775,813C1718.33,722 1593,522.6 1561,453C1521,366 1444,349 1383,363C1322,377 1303,443 1301,475Z" style="fill:rgb(242,104,34);fill-rule:nonzero;stroke:black;stroke-width:3px;"/>
    <path d="M1697.5,886L1459,581L1508,420L1754.5,835L1730,860.5L1697.5,886Z" style="fill:rgb(209,89,34);fill-rule:nonzero;"/>
    <path d="M1446.5,931.5L1352,597L1412.5,556L1490,636.5L1475,660L1595.5,925.5C1580.83,927.667 1550,934 1523.5,936C1496.96,938.003 1464,934.5 1446.5,931.5Z" style="fill:rgb(209,89,34);fill-rule:nonzero;"/>
    <path d="M1534,474.5C1524,461.5 1498.5,486.5 1499.5,493C1493,503.833 1492.9,531.4 1508.5,537C1528,544 1544,487.5 1534,474.5Z" style="fill:rgb(116,130,140);fill-rule:nonzero;stroke:black;stroke-width:3px;"/>
    <path d="M1328,542.5C1322,521.3 1325.5,467.667 1328,443.5C1344,437.333 1380.1,423.9 1396.5,419.5C1412.9,415.1 1479,417.667 1510,419.5L1510,573L1355,606.5C1348.5,594 1334,563.7 1328,542.5Z" style="fill:rgb(149,166,179);fill-rule:nonzero;stroke:black;stroke-width:4px;stroke-linejoin:round;"/>
    <path d="M1501,624.5L1639.5,610.5L1650,685L1705.5,880.5L1662,905L1598.5,927C1575.33,905.667 1525.1,859.5 1509.5,845.5C1493.9,831.5 1450,776 1442,744.5L1446,648.5L1501,624.5Z" style="fill:rgb(75,83,93);fill-rule:nonzero;stroke:black;stroke-width:3px;stroke-linejoin:round;"/>
    <path d="M1639.5,652.5L1639.5,610.5L1650,685L1705.5,880.5L1662,905L1598.5,927C1575.33,905.667 1525.1,859.5 1509.5,845.5C1493.9,831.5 1607,912 1598.5,775C1598.5,775 1617,790 1627,747C1641.12,686.295 1639.5,652.5 1639.5,652.5Z" style="fill:rgb(64,71,79);fill-rule:nonzero;"/>
    <path d="M1464,641.5L1453.5,723C1453.5,723 1478.5,795.5 1515,834C1551.5,872.5 1598.5,915.5 1598.5,915.5L1643,910.5L1629.5,915.5L1598.5,927C1575.33,905.667 1525.1,859.5 1509.5,845.5C1493.9,831.5 1450,776 1442,744.5L1446,648.5L1464,641.5Z" style="fill:rgb(99,110,123);fill-rule:nonzero;"/>
    <path d="M1501,624.5L1639.5,610.5L1650,685L1705.5,880.5L1662,905L1598.5,927C1575.33,905.667 1525.1,859.5 1509.5,845.5C1493.9,831.5 1450,776 1442,744.5L1446,648.5L1501,624.5Z" style="fill:none;fill-rule:nonzero;stroke:black;stroke-width:3px;stroke-linejoin:round;"/>
    <circle cx="1473" cy="728" r="6" style="fill:rgb(191,214,230);stroke:black;stroke-width:2px;"/>
    <circle cx="1506" cy="708" r="6" style="fill:rgb(191,214,230);stroke:black;stroke-width:2px;"/>
    <circle cx="1541" cy="693" r="6" style="fill:rgb(191,214,230);stroke:black;stroke-width:2px;"/>
    <circle cx="1561" cy="730" r="6" style="fill:rgb(191,214,230);stroke:black;stroke-width:2px;"/>
    <circle cx="1578" cy="769" r="6" style="fill:rgb(191,214,230);stroke:black;stroke-width:2px;"/>
    <circle cx="1601" cy="829" r="6" style="fill:rgb(191,214,230);stroke:black;stroke-width:2px;"/>
    <path d="M1442,745.5C1447.67,730.833 1465.2,697.3 1488,686.5C1510.8,675.7 1545.83,668.333 1560.5,666L1646,909.5" style="fill:none;fill-rule:nonzero;stroke:black;stroke-width:3px;stroke-linejoin:round;"/>
    <path d="M1479,510.5C1442.5,561 1386.83,575.833 1346,587.5L1355,606L1508,572.5L1508,419.5C1501.83,435.833 1499.29,482.43 1479,510.5Z" style="fill:rgb(116,130,140);fill-rule:nonzero;"/>
    <path d="M1325.5,512.5C1323.5,527.7 1335.17,556.833 1338.5,565.5C1338.5,554.167 1333,522.2 1333,517C1333,511.8 1336.67,469.5 1338.5,449L1433,415.5L1394.5,419L1329.5,443C1329,459.833 1327.5,497.3 1325.5,512.5Z" style="fill:rgb(213,237,255);fill-rule:nonzero;"/>
    <path d="M1328,542.5C1322,521.3 1325.5,467.667 1328,443.5C1344,437.333 1380.1,423.9 1396.5,419.5C1412.9,415.1 1479,417.667 1510,419.5L1510,573L1355,606.5C1348.5,594 1334,563.7 1328,542.5Z" style="fill:none;fill-rule:nonzero;stroke:black;stroke-width:4px;stroke-linejoin:round;"/>
    <path d="M1346,482C1342,486.8 1344.33,496.667 1346,501L1351,507.5L1377,504C1375.17,500 1371.4,491.8 1371,491C1370.6,490.2 1372.83,478.333 1374,472.5C1366.33,473.667 1350,477.2 1346,482Z" style="fill:rgb(138,255,180);fill-rule:nonzero;"/>
    <path d="M1404.5,487.5C1403.3,486.7 1405,473.167 1406,466.5L1437,459C1437.67,463.667 1439.2,473.9 1440,477.5C1440.8,481.1 1438.33,489 1437,492.5L1408,498C1407.33,494.833 1405.7,488.3 1404.5,487.5Z" style="fill:rgb(138,255,180);fill-rule:nonzero;"/>
    <path d="M1439,478.5C1439.8,474.5 1437.67,464.167 1436.5,459.5L1470.5,452L1476,461.5L1472,481.5L1467.5,487L1436.5,492.5C1437,489.5 1438.2,482.5 1439,478.5Z" style="fill:rgb(79,161,159);fill-rule:nonzero;"/>
    <path d="M1370.5,488C1370.5,492.4 1374.83,500.833 1377,504.5L1408,498.5C1407.33,495.833 1405.8,489.8 1405,487C1404.2,484.2 1405.33,470.833 1406,464.5L1374.5,472.5C1373.17,475.833 1370.5,483.6 1370.5,488Z" style="fill:rgb(79,161,159);fill-rule:nonzero;"/>
    <path d="M1468,452L1355.5,476C1350.5,477.5 1345,480.619 1345,491.5C1345,504.5 1349,509 1355.5,508L1466.5,487C1471.5,485.5 1473.4,480.7 1475,467.5C1476.6,454.3 1471,451.667 1468,452Z" style="fill:none;fill-rule:nonzero;stroke:black;stroke-width:4px;stroke-linejoin:round;"/>
    <path d="M1375,472C1373.33,476.333 1371.5,479.5 1371.5,489C1371.5,498.5 1375.67,500.667 1377,504.5" style="fill:none;fill-rule:nonzero;stroke:black;stroke-width:4px;stroke-linejoin:round;"/>
    <path d="M1406.5,465C1404.83,469.333 1405,478.5 1405,483C1405,487.5 1407.17,494.667 1408.5,498.5" style="fill:none;fill-rule:nonzero;stroke:black;stroke-width:4px;stroke-linejoin:round;"/>
    <path d="M1436,459.5C1437.67,463.833 1439.5,468.5 1439.5,478C1439.5,487.5 1437.33,489.667 1436,493.5" style="fill:none;fill-rule:nonzero;stroke:black;stroke-width:4px;stroke-linejoin:round;"/>
    <path d="M1455.5,529L1377,547.5C1380,558.5 1387.43,574.576 1427,566.5C1451.5,561.5 1459.5,540 1455.5,529Z" style="fill:none;fill-rule:nonzero;stroke:black;stroke-width:4px;"/>
    <path d="M1482,647L1439,603.5L1485,593L1518,625.5C1521,631.5 1522.5,642.357 1502.5,649.5C1493.5,652.714 1482,647 1482,647Z" style="fill:rgb(149,166,179);fill-rule:nonzero;stroke:black;stroke-width:3px;stroke-linejoin:round;"/>
    <path d="M1482,647L1439,603.5L1450,600.5L1495.5,643C1505.5,651 1496.5,651 1496.5,651L1482,647Z" style="fill:rgb(189,211,227);fill-rule:nonzero;"/>
    <path d="M1482,647L1439,603.5L1485,593L1518,625.5C1521,631.5 1522.5,642.357 1502.5,649.5C1493.5,652.714 1482,647 1482,647Z" style="fill:none;fill-rule:nonzero;stroke:black;stroke-width:3px;stroke-linejoin:round;"/>
    <path d="M1426,606L1406.5,596L1486,579.5L1486,593.5L1426,606Z" style="fill:rgb(116,130,140);fill-rule:nonzero;stroke:black;stroke-width:3px;stroke-linejoin:round;"/>
    <path d="M1426,606L1406.5,596L1429.5,590.5L1444.5,601.5L1426,606Z" style="fill:rgb(197,220,237);fill-rule:nonzero;"/>
    <path d="M1426,606L1406.5,596L1486,579.5L1486,593.5L1426,606Z" style="fill:none;fill-rule:nonzero;stroke:black;stroke-width:3px;stroke-linejoin:round;"/>
    <path d="M1364.5,841.5C1364.5,855.94 1353.45,867.5 1340,867.5C1326.55,867.5 1315.5,855.94 1315.5,841.5C1315.5,827.06 1326.55,815.5 1340,815.5C1353.45,815.5 1364.5,827.06 1364.5,841.5Z" style="fill:rgb(142,159,171);fill-rule:nonzero;stroke:black;stroke-width:3px;"/>
    <path d="M1229.5,791.5C1229.5,803.197 1220.67,812.5 1210,812.5C1199.33,812.5 1190.5,803.197 1190.5,791.5C1190.5,779.803 1199.33,770.5 1210,770.5C1220.67,770.5 1229.5,779.803 1229.5,791.5Z" style="fill:rgb(142,159,171);fill-rule:nonzero;stroke:black;stroke-width:3px;"/>
    <path d="M1361,857L1458,713.5C1477,677.5 1458.9,644.682 1444.5,647.5C1421.5,652 1359.33,760.667 1325.5,820C1328,818.5 1336.2,815.9 1349,817.5C1361.8,819.1 1362.33,844.5 1361,857Z" style="fill:rgb(149,166,179);fill-rule:nonzero;stroke:black;stroke-width:3px;stroke-linejoin:round;"/>
    <path d="M1369,826C1367.4,832 1361.33,828.5 1358.5,826L1362,856L1436.5,745.5C1445.83,729.167 1462.1,709.8 1464.5,699C1466.9,688.2 1468,664 1457,653.5C1455.67,666.5 1451.9,696 1447.5,710C1443.1,724 1424.67,735.167 1416,739C1416.83,741.833 1418,749.9 1416,759.5C1414,769.1 1402.83,767.833 1397.5,766C1398.17,768 1399.1,774.2 1397.5,783C1395.9,791.8 1385.5,789.333 1380.5,787C1380.83,788.667 1381.3,794.1 1380.5,802.5C1379.7,810.9 1371.17,813.333 1367,813.5C1368.33,815.167 1370.6,820 1369,826Z" style="fill:rgb(116,130,140);fill-rule:nonzero;"/>
    <path d="M1449.5,647.5C1423,644.5 1361.83,757 1326.5,818.5L1336,817C1376.33,764.833 1466.1,649.38 1449.5,647.5Z" style="fill:rgb(194,216,233);fill-rule:nonzero;"/>
    <path d="M1348,781C1348.83,789.833 1351.85,804.673 1363.5,810.5C1374.5,816 1386,816 1388.5,815.5" style="fill:none;fill-rule:nonzero;stroke:black;stroke-width:3px;stroke-linejoin:round;"/>
    <path d="M1364.5,752.5C1364.17,764.5 1369.69,779.809 1380.5,786.5C1391,793 1401.16,792.5 1405,791.5" style="fill:none;fill-rule:nonzero;stroke:black;stroke-width:3px;stroke-linejoin:round;"/>
    <path d="M1409.5,682.5C1406.5,695.667 1402.8,724.7 1412,735.5C1421.2,746.3 1432.17,746 1436.5,744.5" style="fill:none;fill-rule:nonzero;stroke:black;stroke-width:3px;stroke-linejoin:round;"/>
    <path d="M1383,722.5C1382.67,734.5 1386.84,754.943 1394.5,763C1404,773 1416.17,769.333 1421,769" style="fill:none;fill-rule:nonzero;stroke:black;stroke-width:3px;stroke-linejoin:round;"/>
    <path d="M1361,857L1458,713.5C1477,677.5 1458.9,644.682 1444.5,647.5C1421.5,652 1359.33,760.667 1325.5,820C1328,818.5 1336.2,815.9 1349,817.5C1361.8,819.1 1362.33,844.5 1361,857Z" style="fill:none;fill-rule:nonzero;stroke:black;stroke-width:3px;stroke-linejoin:round;"/>
    <path d="M1322.5,853.5C1318.1,845.1 1320.67,829 1322.5,822C1315,817.5 1295,804.5 1279.5,796.5C1271.94,792.6 1244.33,782.5 1224.5,776.5C1225,780.167 1232,793.5 1227.5,801.5C1221.45,812.263 1212.67,813.833 1204.5,813C1221.33,825.167 1246.56,847.125 1268.5,857C1298.5,870.5 1318,870.5 1328.5,873.5C1336.9,875.9 1339,870.833 1339,868C1335.33,866.667 1326.9,861.9 1322.5,853.5Z" style="fill:rgb(137,153,165);fill-rule:nonzero;stroke:black;stroke-width:3px;"/>
    <path d="M1321,834.5C1321,834.5 1320.67,829 1322.5,822C1315,817.5 1295,804.5 1279.5,796.5C1271.94,792.6 1244.33,782.5 1224.5,776.5C1225,780.167 1228.5,786 1228.5,786C1228.5,786 1247,796.5 1274,804C1306,816 1321,834.5 1321,834.5Z" style="fill:rgb(198,220,237);fill-rule:nonzero;"/>
    <path d="M1258.5,852.5L1206.5,814.5L1218.5,810.5C1219.5,810 1222.1,811.8 1226.5,813C1230.55,814.103 1236.45,805.005 1239.32,800.164C1239.57,799.576 1239.81,799.164 1240,799C1239.8,799.349 1239.57,799.74 1239.32,800.164C1238.06,803.168 1236.74,810.744 1242,813C1245.5,814.5 1249.5,808.333 1254,804C1252.5,810.5 1250.52,821.719 1254,824.5C1259,828.5 1265.33,823 1271.5,817C1272.5,819.833 1269.5,832 1277,835.5C1284.47,838.987 1289.17,835.833 1294,831C1295.5,840.833 1301.1,861.1 1311.5,863.5C1321.9,865.9 1323.17,858.167 1322.5,854L1339,870.5L1334.5,874L1290.5,866L1258.5,852.5Z" style="fill:rgb(116,130,140);fill-rule:nonzero;"/>
    <path d="M1311.5,815.5C1307.33,816.667 1298.13,820.301 1294,830.5C1286.5,849 1297,860 1301,868" style="fill:none;fill-rule:nonzero;stroke:black;stroke-width:3px;"/>
    <path d="M1289,801C1284.83,802.167 1272.63,812.301 1268.5,822.5C1261,841 1268.5,850.5 1272.5,858.5" style="fill:none;fill-rule:nonzero;stroke:black;stroke-width:3px;"/>
    <path d="M1267.5,791C1263.34,792.167 1254.34,801.301 1250.2,811.5C1242.7,830 1246.21,838.5 1250.21,846.5" style="fill:none;fill-rule:nonzero;stroke:black;stroke-width:3px;"/>
    <path d="M1254,786.5C1249.83,787.667 1239,799 1235.5,806.5C1231.22,815.675 1231,824 1231,833.5" style="fill:none;fill-rule:nonzero;stroke:black;stroke-width:3px;"/>
    <path d="M1322.5,853.5C1318.1,845.1 1320.67,829 1322.5,822C1315,817.5 1295,804.5 1279.5,796.5C1271.94,792.6 1244.33,782.5 1224.5,776.5C1225,780.167 1232,793.5 1227.5,801.5C1221.45,812.263 1212.67,813.833 1204.5,813C1221.33,825.167 1246.56,847.125 1268.5,857C1298.5,870.5 1318,870.5 1328.5,873.5C1336.9,875.9 1339,870.833 1339,868C1335.33,866.667 1326.9,861.9 1322.5,853.5Z" style="fill:none;fill-rule:nonzero;stroke:black;stroke-width:3px;"/>
    <path d="M1166,849C1173.88,849 1200.67,831.333 1212.5,818C1215.17,810.333 1218.9,793.2 1212.5,786C1206.1,778.8 1188.17,768.667 1180,764.5C1165.83,766.833 1132.9,773.7 1114.5,782.5C1096.1,791.3 1111.5,828.167 1121.5,845.5C1134,847 1154.5,849 1166,849Z" style="fill:rgb(149,166,179);fill-rule:nonzero;stroke:black;stroke-width:3px;"/>
    <path d="M1023.5,747L1025.5,714.5L1111.5,687L1190.5,808L1138,841.5L1114.5,840L1023.5,747Z" style="fill:rgb(71,79,85);fill-rule:nonzero;"/>
    <path d="M1025.5,714.5L1023.5,747L1114.5,840L1138,841.5M1025.5,714.5L1111.5,687L1190.5,808L1138,841.5M1025.5,714.5L1138,841.5" style="fill:none;fill-rule:nonzero;stroke:black;stroke-width:3px;"/>
    <path d="M1110.5,700.5L1049,720L1140,827.5L1179.5,804.5L1110.5,700.5Z" style="fill:rgb(32,34,35);fill-rule:nonzero;stroke:black;stroke-width:3px;"/>
    <path d="M1159.44,752.671C1177,752.671 1195.1,760.837 1203.44,767.171C1205.1,769.004 1206.34,773.771 1197.94,778.171C1187.44,783.671 1186.94,774.171 1169.94,772.671C1152.94,771.171 1144.94,771.171 1137.44,767.171C1129.94,763.171 1139.91,752.671 1159.44,752.671Z" style="fill:rgb(152,170,183);fill-rule:nonzero;stroke:black;stroke-width:3px;"/>
    <path d="M1107.75,835C1106.29,841.78 1103.59,845.95 1099.5,845.95C1096.23,845.95 1091.26,844.145 1088.5,838.03C1088.67,838.853 1088.2,840.7 1085,841.5C1081,842.5 1073,829 1071.5,818.5C1070,808 1077,796 1084,789C1089.6,783.4 1094.33,790.524 1096,794.786C1097.47,793.402 1099,792.618 1100.5,792.503C1103.96,792.237 1106.24,798.615 1107.56,806C1109.88,800.5 1116.3,791 1123.5,797C1125.43,798.611 1126.91,801.284 1128,804.562C1129.67,802.041 1133.67,799.5 1138.5,799.5C1148.5,799.5 1154,843 1143.5,848C1135.1,852 1130.33,846 1129,842.5C1127.12,848.141 1112,853 1107.75,835Z" style="fill:rgb(149,166,179);fill-rule:nonzero;"/>
    <path d="M1096,794.786C1091.11,799.388 1086.88,810.627 1086.5,826.003C1086.37,831.184 1087.18,835.101 1088.5,838.03M1096,794.786C1097.47,793.402 1099,792.618 1100.5,792.503C1103.96,792.237 1106.24,798.615 1107.56,806M1096,794.786C1094.33,790.524 1089.6,783.4 1084,789C1077,796 1070,808 1071.5,818.5C1073,829 1081,842.5 1085,841.5C1088.2,840.7 1088.67,838.853 1088.5,838.03M1088.5,838.03C1091.26,844.145 1096.23,845.95 1099.5,845.95C1105.5,845.95 1108.5,837 1109,824C1109.16,819.783 1108.73,812.501 1107.56,806M1107.56,806C1109.88,800.5 1116.3,791 1123.5,797C1125.43,798.611 1126.91,801.284 1128,804.562M1129,842.5C1127.12,848.141 1112,853 1107.75,835M1129,842.5C1130.96,836.611 1132,816.543 1128,804.562M1129,842.5C1130.33,846 1135.1,852 1143.5,848C1154,843 1148.5,799.5 1138.5,799.5C1133.67,799.5 1129.67,802.041 1128,804.562" style="fill:none;fill-rule:nonzero;stroke:black;stroke-width:3px;"/>
    <path d="M1107.75,835C1106.29,841.78 1103.59,845.949 1099.5,845.949C1096.23,845.949 1091.25,844.145 1088.5,838.029C1088.67,838.853 1088.2,840.7 1085,841.5C1081,842.5 1073,829 1071.5,818.5C1070,808 1070.6,818.5 1080.5,818.5C1085,818.5 1088.5,812 1088.5,813C1089.97,811.616 1089.59,820.909 1096,822C1107.75,824 1107.17,810.115 1108.5,817.5C1110.81,812 1108.56,829.5 1120,829.5C1129,829.5 1128.91,816.722 1130,820C1131.67,817.479 1133.5,830 1140,831C1147.2,832.107 1146.94,819.381 1148.5,822C1150.96,826.132 1149.93,844.939 1143.5,848C1135.1,852 1130.33,846 1129,842.5C1127.12,848.141 1112,853 1107.75,835Z" style="fill:rgb(116,130,140);fill-rule:nonzero;"/>
    <path d="M1086.5,826.003C1086.37,831.184 1087.18,835.101 1088.5,838.03M1086.5,826.003C1086.68,818.623 1087.75,812.197 1089.36,807M1086.5,826.003C1086,826.335 1083.9,826.8 1079.5,826C1075.1,825.2 1072.33,820.667 1071.5,818.5M1096,794.786C1097.47,793.402 1099,792.618 1100.5,792.503C1103.96,792.237 1106.24,798.615 1107.56,806M1096,794.786C1094.33,790.524 1089.6,783.4 1084,789C1081.34,791.654 1078.69,795.026 1076.5,798.762M1096,794.786C1093.46,797.179 1091.09,801.368 1089.36,807M1071.5,818.5C1070.57,811.98 1072.91,804.883 1076.5,798.762M1071.5,818.5C1072.2,823.444 1074.35,829.053 1076.84,833.5M1088.5,838.03C1091.26,844.145 1096.23,845.95 1099.5,845.95C1104.78,845.95 1107.73,839.02 1108.71,828.5M1088.5,838.03C1088.67,838.853 1088.2,840.7 1085,841.5C1082.88,842.029 1079.65,838.498 1076.84,833.5M1107.56,806C1109.88,800.5 1116.3,791 1123.5,797C1125.43,798.611 1126.91,801.284 1128,804.562M1107.56,806C1107.95,808.128 1108.25,810.34 1108.48,812.5M1129,842.5C1127.12,848.141 1112,853 1107.75,835M1129,842.5C1130.33,846 1135.1,852 1143.5,848C1147.51,846.091 1149.19,838.57 1149.17,830M1129,842.5C1129.42,841.242 1129.8,839.336 1130.09,837M1107.75,835C1106,836.01 1101.4,838.03 1097,838.03C1092.6,838.03 1088.17,835.01 1086.5,833.5C1086,834 1086.5,835 1082.5,835C1080,835 1078.23,834 1076.84,833.5M1107.75,835C1109.5,836.833 1113.5,840.5 1117.5,840.5C1123.58,840.5 1127.39,838.167 1130.09,837M1128,804.562C1129.67,802.041 1133.67,799.5 1138.5,799.5C1142.59,799.5 1145.94,806.794 1147.73,815.751M1128,804.562C1129.09,807.839 1129.81,811.72 1130.24,815.751M1076.5,798.762C1076.83,801.342 1076.5,804.811 1080,807C1084,809.5 1087.07,807.167 1089.36,807M1089.36,807C1090.4,809.667 1093.65,814.331 1098,815C1104.5,816 1106.82,813.333 1108.48,812.5M1108.48,812.5C1108.95,816.94 1109.11,821.164 1109,824C1108.94,825.561 1108.84,827.064 1108.71,828.5M1108.48,812.5C1109.65,814.833 1113.6,819.3 1120,818.5C1126.4,817.7 1129.49,816.334 1130.24,815.751M1087,826.5C1088,827.5 1091.13,830.088 1096,831C1104,832.5 1106.47,829.833 1108.71,828.5M1108.71,828.5C1109.47,830 1112.8,832.8 1120,832C1127.2,831.2 1130.1,830.333 1130.65,830M1130.24,815.751C1131.82,817.001 1136.1,819.5 1140.5,819.5C1144.9,819.5 1147.15,817.001 1147.73,815.751M1130.24,815.751C1130.74,820.545 1130.83,825.55 1130.65,830M1147.73,815.751C1148.65,820.317 1149.16,825.315 1149.17,830M1130.65,830C1131.93,831.167 1135.7,833.5 1140.5,833.5C1145.3,833.5 1148.28,831.167 1149.17,830M1130.65,830C1130.55,832.567 1130.35,834.949 1130.09,837M1130.09,837C1131.23,838.833 1134.5,842.5 1138.5,842.5C1142.5,842.5 1147.02,840 1148.43,839" style="fill:none;fill-rule:nonzero;stroke:black;stroke-width:3px;"/>
    <path d="M1632.5,675.5C1625.5,657 1616,616 1641,611.5C1647.63,610.307 1663.68,616.847 1684,627.358C1695.02,633.054 1707.29,639.917 1720,647.347C1730.03,653.209 1740.33,659.423 1750.5,665.696C1758.65,670.722 1766.72,675.787 1774.5,680.737C1783.49,686.46 1792.1,692.031 1800,697.215C1806.14,701.247 1811.86,705.045 1817,708.5L1812,739L1803.61,762.5C1795.97,759.311 1787.29,755.631 1778,751.618C1759.98,743.837 1739.64,734.803 1720,725.659C1712.33,722.09 1704.77,718.504 1697.5,714.97C1687.27,709.998 1677.6,705.127 1669,700.547C1648.77,689.771 1634.43,680.602 1632.5,675.5Z" style="fill:rgb(149,166,179);fill-rule:nonzero;"/>
    <path d="M1684,627.358C1663.68,616.847 1647.63,610.307 1641,611.5C1616,616 1625.5,657 1632.5,675.5C1634.43,680.602 1648.77,689.771 1669,700.547M1684,627.358C1690.33,637.905 1697,656 1693.5,673.5C1691.2,685 1675.67,695.031 1669,700.547M1684,627.358C1695.02,633.054 1707.29,639.917 1720,647.347M1669,700.547C1677.6,705.127 1687.27,709.998 1697.5,714.97M1720,647.347C1723,656.065 1727,672 1721.5,685.5C1716,699 1703,709.147 1697.5,714.97M1720,647.347C1730.03,653.209 1740.33,659.423 1750.5,665.696M1697.5,714.97C1704.77,718.504 1712.33,722.09 1720,725.659M1750.5,665.696C1752,674.328 1752.76,688.351 1746,700.547C1738,714.97 1725.67,720.272 1720,725.659M1750.5,665.696C1758.65,670.722 1766.72,675.787 1774.5,680.737M1720,725.659C1739.64,734.803 1759.98,743.837 1778,751.618M1774.5,680.737C1777,688.585 1778.47,705.222 1773,714.97C1767,725.659 1755.83,735.1 1750.5,739.547M1774.5,680.737C1783.49,686.46 1792.1,692.031 1800,697.215M1800,697.215C1806.14,701.247 1811.86,705.045 1817,708.5L1812,739L1803.61,762.5C1795.97,759.311 1787.29,755.631 1778,751.618M1800,697.215C1800.67,703.644 1805.08,717.128 1801.5,725.659C1795,741.159 1786,744.5 1778,751.618" style="fill:none;fill-rule:nonzero;stroke:black;stroke-width:3px;"/>
    <path d="M1668,660C1659.6,654.4 1641.17,627.667 1633,615C1623,620 1625.7,631.1 1624.5,639.5C1623.3,647.9 1629,668 1632,677L1673,703.5L1804.5,763L1816,720C1807.5,717.833 1785.9,712.4 1767.5,708C1744.5,702.5 1678.5,667 1668,660Z" style="fill:rgb(116,130,140);fill-rule:nonzero;"/>
    <path d="M1684,627.358C1663.68,616.847 1647.63,610.307 1641,611.5C1616,616 1625.5,657 1632.5,675.5C1634.43,680.602 1648.77,689.771 1669,700.547M1684,627.358C1690.33,637.905 1697,656 1693.5,673.5C1691.2,685 1675.67,695.031 1669,700.547M1684,627.358C1695.02,633.054 1707.29,639.917 1720,647.347M1669,700.547C1677.6,705.127 1687.27,709.998 1697.5,714.97M1720,647.347C1723,656.065 1727,672 1721.5,685.5C1716,699 1703,709.147 1697.5,714.97M1720,647.347C1730.03,653.209 1740.33,659.423 1750.5,665.696M1697.5,714.97C1704.77,718.504 1712.33,722.09 1720,725.659M1750.5,665.696C1752,674.328 1752.76,688.351 1746,700.547C1738,714.97 1725.67,720.272 1720,725.659M1750.5,665.696C1758.65,670.722 1766.72,675.787 1774.5,680.737M1720,725.659C1739.64,734.803 1759.98,743.837 1778,751.618M1774.5,680.737C1777,688.585 1778.47,705.222 1773,714.97C1767,725.659 1755.83,735.1 1750.5,739.547M1774.5,680.737C1783.49,686.46 1792.1,692.031 1800,697.215M1800,697.215C1806.14,701.247 1811.86,705.045 1817,708.5L1812,739L1803.61,762.5C1795.97,759.311 1787.29,755.631 1778,751.618M1800,697.215C1800.67,703.644 1805.08,717.128 1801.5,725.659C1795,741.159 1786,744.5 1778,751.618" style="fill:none;fill-rule:nonzero;stroke:black;stroke-width:3px;"/>
    <g transform="matrix(0.998821,0.048552,-0.048552,0.998821,76.7066,-25.1281)">
        <ellipse cx="555.599" cy="1566.39" rx="273.304" ry="280.453" style="fill:white;stroke:black;stroke-width:4px;"/>
    </g>
    <path d="M784.5,1396.5L786.5,1572L849.5,1521.5L849.5,1357L784.5,1396.5Z" style="fill:rgb(71,79,85);fill-rule:nonzero;stroke:black;stroke-width:3px;"/>
    <path d="M556,1845.5L611.5,1608.5L487,1826C491.167,1832.5 489.5,1840 528.5,1845.5C551.473,1848.74 556.5,1845.5 556,1845.5Z" style="fill:rgb(116,130,140);fill-rule:nonzero;"/>
    <path d="M585.741,1718.5L611.5,1608.5L555.69,1706M585.741,1718.5C584.66,1720.33 581.4,1723.6 577,1722C572.6,1720.4 560.96,1710.67 555.69,1706M585.741,1718.5L580.003,1743M555.69,1706L544.241,1726M544.241,1726C551.494,1732.33 566.9,1744.9 570.5,1744.5C574.1,1744.1 578.335,1743.33 580.003,1743M544.241,1726L534.51,1743M580.003,1743L576.022,1760M534.51,1743C538.633,1749 548.641,1761.2 555.69,1762C562.738,1762.8 572.181,1761 576.022,1760M534.51,1743L524.779,1760M576.022,1760L570.5,1783.58M524.779,1760C528.52,1766.17 538.4,1779.1 548,1781.5C557.6,1783.9 567,1783.89 570.5,1783.58M524.779,1760L512.472,1781.5M570.5,1783.58L565.718,1804M512.472,1781.5C516.982,1788.5 529,1802.8 541,1804C553,1805.2 562.479,1804.5 565.718,1804M512.472,1781.5L499.736,1803.75M565.718,1804L561.737,1821M499.736,1803.75L487,1826C491.167,1832.5 489.5,1840 528.5,1845.5C551.473,1848.74 556.5,1845.5 556,1845.5L561.737,1821M499.736,1803.75C508.491,1809.67 529,1821.7 541,1822.5C553,1823.3 559.825,1821.83 561.737,1821" style="fill:none;fill-rule:nonzero;stroke:black;stroke-width:3px;"/>
    <path d="M611.5,1575C605.5,1552 582.333,1535.33 570,1525.5L575,1637L620,1613C618.667,1607 618.561,1602.07 611.5,1575Z" style="fill:rgb(155,28,46);fill-rule:nonzero;stroke:black;stroke-width:3px;"/>
    <path d="M789.5,1489L633,1631.5L650,1680.5L789.5,1553C799.5,1543 820.3,1518.4 823.5,1500C826.7,1481.6 802.167,1485 789.5,1489Z" style="fill:rgb(149,166,179);fill-rule:nonzero;"/>
    <path d="M675,1634.5C670.6,1641.3 664.5,1642 662,1641.5C662.667,1644.5 664,1651.4 664,1655C664,1658.6 660.333,1668.5 658.5,1673L791,1550L770.5,1541C769.333,1546.17 766.4,1556.9 764,1558.5C761.6,1560.1 757.333,1556.17 755.5,1554C755.333,1557.83 754,1566.1 750,1568.5C746,1570.9 741.667,1567.5 740,1565.5C739.5,1569.67 737.8,1578.6 735,1581C732.2,1583.4 723.833,1582 720,1581C720.167,1586 719.6,1597 716,1601C712.4,1605 704.5,1602.67 701,1601C700.5,1604.5 698.5,1612.7 694.5,1617.5C690.5,1622.3 683.5,1618.5 680.5,1616C680.5,1619.33 679.4,1627.7 675,1634.5Z" style="fill:rgb(116,130,140);fill-rule:nonzero;"/>
    <path d="M768.5,1509.5L768.5,1519.5C768.5,1519.5 731.064,1551.8 708,1573.5C685.174,1594.98 651,1630 651,1630L638.5,1625.5L768.5,1509.5Z" style="fill:rgb(213,237,255);fill-rule:nonzero;"/>
    <path d="M657.711,1609L633,1631.5L650,1680.5L681,1652.17M657.711,1609C663.474,1608.33 676.2,1609.1 681,1617.5C685.8,1625.9 683,1644.11 681,1652.17M657.711,1609L676.381,1592M681,1652.17L703.612,1631.5M676.381,1592C682.754,1591 695.696,1593.75 700.5,1600C705.5,1606.5 703.574,1623.33 703.612,1631.5M676.381,1592L697.797,1572.5M703.612,1631.5L722.5,1614.24M697.797,1572.5C703.364,1572 714.874,1573.3 720,1580C726.5,1588.5 723.5,1605.82 722.5,1614.24M697.797,1572.5L715,1556.84M722.5,1614.24L741,1597.33M715,1556.84C720.833,1555.56 729.5,1554.5 737,1562C745.5,1570.5 741.5,1587.55 741,1597.33M715,1556.84L732.5,1540.9M741,1597.33L756.676,1583M732.5,1540.9C737.833,1538.93 746.5,1539.47 752,1546C761.13,1556.84 756.951,1571.67 756.676,1583M732.5,1540.9L749.414,1525.5M756.676,1583L771.994,1569M749.414,1525.5L789.5,1489C802.167,1485 826.7,1481.6 823.5,1500C820.3,1518.4 799.5,1543 789.5,1553L771.994,1569M749.414,1525.5C754.276,1525 763.409,1529 767.5,1534C771.1,1538.4 772.329,1557.67 771.994,1569" style="fill:none;fill-rule:nonzero;stroke:black;stroke-width:3px;"/>
    <path d="M641.06,1626.57C626.06,1623.07 615.228,1636.57 612.06,1646.07C606.578,1662.5 610.004,1678.5 618.002,1685.5C640.231,1704.95 659.56,1676.07 663.06,1656.57C666.56,1637.07 656.06,1630.07 641.06,1626.57Z" style="fill:rgb(149,166,179);fill-rule:nonzero;"/>
    <path d="M634.5,1668.5C612.06,1665.5 617.169,1641.5 614.002,1651C608.52,1667.43 610.004,1678.5 618.003,1685.5C640.231,1704.95 659.56,1676.07 663.06,1656.57C666.56,1637.07 649.767,1670.54 634.5,1668.5Z" style="fill:rgb(116,130,140);fill-rule:nonzero;"/>
    <path d="M641.06,1626.57C626.06,1623.07 615.228,1636.57 612.06,1646.07C606.578,1662.5 610.004,1678.5 618.002,1685.5C640.231,1704.95 659.56,1676.07 663.06,1656.57C666.56,1637.07 656.06,1630.07 641.06,1626.57Z" style="fill:none;fill-rule:nonzero;stroke:black;stroke-width:3px;"/>
    <path d="M453.5,1510.5L371.5,1769.5C372.667,1770.5 381,1782 411.5,1801.5C442.921,1821.59 477,1840.5 509,1842.5C523.833,1825.33 560.9,1770.1 590.5,1686.5C620.1,1602.9 583.833,1538.67 562,1517L553.5,1488C542.833,1488.5 516.9,1490.5 498.5,1494.5C480.1,1498.5 460.833,1506.83 453.5,1510.5Z" style="fill:rgb(155,28,46);fill-rule:nonzero;"/>
    <path d="M460.998,1759C436.598,1737 423.833,1657.17 419.5,1619L372.498,1767C371.332,1767.67 376.598,1774.8 406.998,1798C437.398,1821.2 488.332,1837.67 509.999,1843L535.499,1803C520.832,1797.5 485.398,1781 460.998,1759Z" style="fill:rgb(121,24,37);fill-rule:nonzero;"/>
    <path d="M460,1668.5L482.5,1616.5L488.5,1625L465,1678.5L443.5,1683L426.5,1739L434.5,1758.5L416.5,1792L426.5,1762L415.356,1737.85C414.807,1736.67 414.747,1735.31 415.187,1734.08L433.785,1682C434.242,1680.72 435.2,1679.68 436.438,1679.13L460,1668.5Z" style="fill:rgb(209,37,62);fill-rule:nonzero;"/>
    <path d="M453.5,1510.5L371.5,1769.5C372.667,1770.5 381,1782 411.5,1801.5M453.5,1510.5C460.833,1506.83 480.1,1498.5 498.5,1494.5C516.9,1490.5 542.833,1488.5 553.5,1488L562,1517M453.5,1510.5L531.5,1530M562,1517C583.833,1538.67 620.1,1602.9 590.5,1686.5C560.9,1770.1 523.833,1825.33 509,1842.5C477,1840.5 442.921,1821.59 411.5,1801.5M562,1517L531.5,1530M411.5,1801.5L434,1759L426,1739L443.5,1683.5L464.5,1679L531.5,1530" style="fill:none;fill-rule:nonzero;stroke:black;stroke-width:3px;"/>
    <path d="M505.5,1516C491.9,1517.6 479.833,1510 475.5,1506L488.282,1463.5L495.5,1439.5L560.5,1432.5L528.5,1511.5C526.5,1512.33 519.1,1514.4 505.5,1516Z" style="fill:rgb(149,166,179);fill-rule:nonzero;"/>
    <path d="M494.5,1515.5C483.5,1511.5 479.833,1510 475.5,1506L488.282,1463.5L495.5,1439.5L537.5,1435.5L494.5,1515.5Z" style="fill:rgb(116,130,140);fill-rule:nonzero;"/>
    <path d="M515.5,1515L552.5,1445.5L555.5,1445.5L528.5,1512.5L515.5,1515Z" style="fill:rgb(213,237,255);fill-rule:nonzero;"/>
    <path d="M621.5,1690C624.833,1699.83 534,1643.5 534,1643.5L576.5,1588.5L630,1623.5C627.167,1627.17 620.5,1637.6 616.5,1650C612.5,1662.4 618.167,1680.17 621.5,1690Z" style="fill:rgb(149,166,179);fill-rule:nonzero;"/>
    <path d="M625.5,1629.5L577,1603.5L577,1588L629.5,1624L625.5,1629.5Z" style="fill:rgb(213,237,255);fill-rule:nonzero;"/>
    <path d="M596,1252C575.2,1250 569.333,1234.5 569,1227L503,1277.5C514.333,1274.17 543.1,1267.5 567.5,1267.5C591.9,1267.5 614,1276.17 622,1280.5L651,1245.5C641.333,1248.5 616.8,1254 596,1252Z" style="fill:rgb(76,84,90);fill-rule:nonzero;"/>
    <path d="M566,1637C562,1637 559,1624.67 558,1618.5L538.5,1647L614,1689L621,1691L614,1661L617.5,1647C615.5,1647.67 609.9,1649 603.5,1649C597.1,1649 592.833,1641 591.5,1637C589.167,1638.17 583.3,1640.3 578.5,1639.5C573.7,1638.7 573.5,1634.17 574,1632C573,1633.67 570,1637 566,1637Z" style="fill:rgb(116,130,140);fill-rule:nonzero;"/>
    <path d="M596.5,1601.58L576.5,1588.5L534,1643.5C534,1643.5 552.503,1654.98 572.5,1666.66M596.5,1601.58C588.333,1609.39 577.009,1618.71 572.5,1637.5C569.5,1650 572.667,1661.11 572.5,1666.66M596.5,1601.58L613.25,1612.54M572.5,1666.66C581.929,1672.17 591.69,1677.73 600,1682.16M613.25,1612.54L630,1623.5C627.167,1627.17 620.5,1637.6 616.5,1650C612.5,1662.4 618.167,1680.17 621.5,1690C622.62,1693.3 613.116,1689.14 600,1682.16M613.25,1612.54C606.333,1618.03 596.5,1621.5 592.5,1635.5C586.021,1658.18 595,1670 600,1682.16" style="fill:none;fill-rule:nonzero;stroke:black;stroke-width:3px;"/>
    <path d="M488.282,1463.5L495.5,1439.5L560.5,1432.5L548.551,1462M488.282,1463.5C491.521,1466.67 501.3,1473 514.5,1473C527.7,1473 542.7,1465.67 548.551,1462M488.282,1463.5L484.222,1477M548.551,1462L541.259,1480M484.222,1477C486.648,1481 494.384,1486.41 505.5,1488C519.5,1490 534.006,1482.33 541.259,1480M484.222,1477L480.312,1490M541.259,1480L534.88,1495.75M480.312,1490L475.5,1506C479.833,1510 491.9,1517.6 505.5,1516C519.1,1514.4 526.5,1512.33 528.5,1511.5L534.88,1495.75M480.312,1490C483.192,1493.83 491.351,1501.6 500.951,1502C514.951,1502.58 527.42,1498.5 534.88,1495.75" style="fill:none;fill-rule:nonzero;stroke:black;stroke-width:3px;stroke-linejoin:round;"/>
    <path d="M480,1458.5L403.5,1360C416.5,1334.67 453.5,1278.9 497.5,1258.5C541.5,1238.1 599.833,1260.67 623.5,1274.5C622.833,1285 626,1310.5 623.5,1330C621.05,1349.11 609.833,1408.33 602,1435.5L480,1458.5Z" style="fill:rgb(149,166,179);fill-rule:nonzero;"/>
    <path d="M536.5,1448L595.5,1420.5C606,1388 620,1354.5 623.5,1330C621.05,1349.11 609.833,1408.33 602,1435.5L536.5,1448Z" style="fill:rgb(213,237,255);fill-rule:nonzero;"/>
    <path d="M480,1458.5L403.5,1360C416.5,1334.67 453.5,1278.9 497.5,1258.5C541.5,1238.1 599.833,1260.67 623.5,1274.5C622.833,1285 620,1280 617.5,1299.5C615.05,1318.61 529.5,1310 494.5,1360C459.5,1410 504,1454 504,1454L480,1458.5Z" style="fill:rgb(116,130,140);fill-rule:nonzero;"/>
    <path d="M480,1458.5L403.5,1360C416.5,1334.67 453.5,1278.9 497.5,1258.5C541.5,1238.1 599.833,1260.67 623.5,1274.5C622.833,1285 626,1310.5 623.5,1330C621.05,1349.11 609.833,1408.33 602,1435.5L480,1458.5Z" style="fill:none;fill-rule:nonzero;stroke:black;stroke-width:3px;"/>
    <path d="M470.5,1197.92C527.306,1182.76 576.475,1206.3 602.955,1218.98L602.997,1219L612.997,1260C572.663,1262.17 502.997,1269 460.997,1300C434.074,1319.87 411.146,1352.73 398.651,1367.84C397.23,1369.55 394.565,1369.07 393.831,1366.97C381.787,1332.41 373.648,1267.43 414.802,1227.5C413.262,1221.53 411.701,1208.14 417.992,1199.5C417.692,1196.18 417.369,1192.06 417.072,1187.5C416.778,1182.99 416.51,1178.05 416.315,1173C416.096,1167.31 415.97,1161.49 416.006,1156C416.068,1146.52 416.612,1138.05 417.992,1133C421.598,1119.8 426.167,1120.5 428,1122.5C428.52,1130.5 429.557,1140.77 431.113,1151C432.053,1157.18 433.182,1163.35 434.5,1169C435.281,1172.35 436.885,1175.94 438.498,1179.16C440.243,1182.64 441.998,1185.68 442.731,1187.5C458.868,1184.63 465.553,1193.03 470.5,1197.92Z" style="fill:rgb(104,116,125);fill-rule:nonzero;"/>
    <path d="M414.802,1227.5C373.648,1267.43 381.787,1332.41 393.831,1366.97C394.565,1369.07 397.23,1369.55 398.651,1367.84C411.146,1352.73 434.074,1319.87 460.997,1300C502.997,1269 572.663,1262.17 612.997,1260L602.997,1219C571.664,1204 508.498,1173.73 438.498,1210.5C429.217,1215.38 421.38,1221.12 414.802,1227.5ZM414.802,1227.5C413.262,1221.53 411.701,1208.14 417.992,1199.5M470.5,1197.92C465.553,1193.03 458.868,1184.63 442.731,1187.5M417.992,1199.5C419.602,1197.29 421.728,1195.39 424.5,1194C431.667,1190.42 437.665,1188.4 442.731,1187.5M417.992,1199.5C417.692,1196.18 417.369,1192.06 417.072,1187.5M434.5,1169C433.182,1163.35 432.053,1157.18 431.113,1151M434.5,1169C434.5,1169.83 433.2,1171.8 428,1173C422.8,1174.2 418.044,1173.5 416.315,1173M434.5,1169C435.281,1172.35 436.885,1175.94 438.498,1179.16M442.731,1187.5C441.998,1185.68 440.243,1182.64 438.498,1179.16M416.006,1156C416.068,1146.52 416.612,1138.05 417.992,1133C421.598,1119.8 426.167,1120.5 428,1122.5C428.52,1130.5 429.557,1140.77 431.113,1151M416.006,1156C417.671,1156.67 421.7,1157.6 424.5,1156C427.3,1154.4 430.075,1152 431.113,1151M416.006,1156C415.97,1161.49 416.096,1167.31 416.315,1173M416.315,1173C416.51,1178.05 416.778,1182.99 417.072,1187.5M417.072,1187.5C419.01,1187.83 423.71,1188.1 427,1186.5C430.29,1184.9 436.037,1180.94 438.498,1179.16" style="fill:none;fill-rule:nonzero;stroke:black;stroke-width:3px;"/>
    <path d="M433.5,1261.5C416.7,1253.1 432.833,1222.33 442,1208C430.833,1216.67 406,1226 390.501,1265.5C377.596,1298.39 388.501,1368.5 396.501,1368.5C404.501,1368.5 429.001,1328 450.001,1308.5C466.801,1292.9 491.334,1282.33 501.501,1279L526,1258C503,1262.67 450.3,1269.9 433.5,1261.5Z" style="fill:rgb(76,84,90);fill-rule:nonzero;"/>
    <path d="M427.5,1193L425,1131.5L418,1131.5C418,1133.67 417.6,1139.3 416,1144.5C414.401,1149.7 416.667,1182.67 418,1198.5C417.333,1198.83 415.5,1201.3 413.5,1208.5C411.5,1215.7 414.334,1223.5 416,1226.5L440.5,1208.5C439.5,1207.17 434.2,1209.5 429,1207.5C423.8,1205.5 426.5,1195.17 427.5,1193Z" style="fill:rgb(76,84,90);fill-rule:nonzero;"/>
    <path d="M414.802,1227.5C373.648,1267.43 381.787,1332.41 393.831,1366.97C394.565,1369.07 397.23,1369.55 398.651,1367.84C411.146,1352.73 434.074,1319.87 460.997,1300C502.997,1269 572.663,1262.17 612.997,1260L602.997,1219C571.664,1204 508.498,1173.73 438.498,1210.5C429.217,1215.38 421.38,1221.12 414.802,1227.5ZM414.802,1227.5C413.262,1221.53 411.701,1208.14 417.992,1199.5M470.5,1197.92C465.553,1193.03 458.868,1184.63 442.731,1187.5M417.992,1199.5C419.602,1197.29 421.728,1195.39 424.5,1194C431.667,1190.42 437.665,1188.4 442.731,1187.5M417.992,1199.5C417.692,1196.18 417.369,1192.06 417.072,1187.5M434.5,1169C433.182,1163.35 432.053,1157.18 431.113,1151M434.5,1169C434.5,1169.83 433.2,1171.8 428,1173C422.8,1174.2 418.044,1173.5 416.315,1173M434.5,1169C435.281,1172.35 436.885,1175.94 438.498,1179.16M442.731,1187.5C441.998,1185.68 440.243,1182.64 438.498,1179.16M416.006,1156C416.068,1146.52 416.612,1138.05 417.992,1133C421.598,1119.8 426.167,1120.5 428,1122.5C428.52,1130.5 429.557,1140.77 431.113,1151M416.006,1156C417.671,1156.67 421.7,1157.6 424.5,1156C427.3,1154.4 430.075,1152 431.113,1151M416.006,1156C415.97,1161.49 416.096,1167.31 416.315,1173M416.315,1173C416.51,1178.05 416.778,1182.99 417.072,1187.5M417.072,1187.5C419.01,1187.83 423.71,1188.1 427,1186.5C430.29,1184.9 436.037,1180.94 438.498,1179.16" style="fill:none;fill-rule:nonzero;stroke:black;stroke-width:3px;"/>
    <circle cx="426" cy="1117" r="15" style="fill:rgb(104,116,125);stroke:black;stroke-width:3px;"/>
    <path d="M421.5,1120C419.5,1110.5 427.5,1106.17 432.5,1103C424.5,1099 409.799,1105 410.999,1119C412.199,1133 426,1133.17 432.5,1131C430.667,1131.5 423.233,1128.23 421.5,1120Z" style="fill:rgb(76,84,90);fill-rule:nonzero;"/>
    <circle cx="426" cy="1117" r="15" style="fill:none;stroke:black;stroke-width:3px;"/>
    <path d="M618.5,1188L500,1279.5C508.333,1277 535.775,1267.5 561,1267.5C590.5,1267.5 609.5,1273.67 622,1281.5L688,1201.5L618.5,1188Z" style="fill:rgb(104,116,125);fill-rule:nonzero;stroke:black;stroke-width:3px;stroke-linejoin:round;"/>
    <path d="M618.5,1188L500,1279.5C508.333,1277 535.775,1267.5 561,1267.5C590.5,1267.5 609.5,1273.67 622,1281.5L688,1201.5L618.5,1188Z" style="fill:none;fill-rule:nonzero;stroke:black;stroke-width:3px;stroke-linejoin:round;"/>
    <path d="M415.501,1376.5C427.5,1361.5 439.168,1369.5 446.001,1376.5L463.503,1422C457.002,1423.5 440.801,1425.6 428.001,1422C412.001,1417.5 401.103,1394.5 415.501,1376.5Z" style="fill:rgb(149,166,179);fill-rule:nonzero;stroke:black;stroke-width:3px;"/>
    <path d="M415.503,1376.5C427.502,1361.5 439.17,1369.5 446.003,1376.5C446.003,1376.5 436.005,1370.5 428.003,1389.5C420.002,1408.5 431,1422.5 431,1422.5C414.379,1422.5 401.105,1394.5 415.503,1376.5Z" style="fill:rgb(116,130,140);fill-rule:nonzero;"/>
    <path d="M415.501,1376.5C427.5,1361.5 439.168,1369.5 446.001,1376.5L463.503,1422C457.002,1423.5 440.801,1425.6 428.001,1422C412.001,1417.5 401.103,1394.5 415.501,1376.5Z" style="fill:none;fill-rule:nonzero;stroke:black;stroke-width:3px;"/>
    <path d="M494.5,1318.5C494.501,1313 526.286,1290.63 556.5,1284.5C585.425,1278.63 608.023,1281.55 618.992,1283.53C622.149,1284.1 624.815,1286.22 626.004,1289.2C628.432,1295.28 630.862,1302.95 629,1304.5C627.833,1308.67 624,1316.5 618.5,1316.5C610.5,1316.5 584.5,1314.5 567.5,1320.5C550.209,1326.6 532,1346 521,1350.5C510,1355 505.5,1350.5 496.5,1344.5C489.3,1339.7 492.167,1325.17 494.5,1318.5Z" style="fill:rgb(67,75,81);fill-rule:nonzero;"/>
    <path d="M494.5,1318.5C494.501,1313 526.286,1290.63 556.5,1284.5C585.425,1278.63 608.023,1281.55 618.992,1283.53C622.149,1284.1 624.815,1286.22 626.004,1289.2C628.432,1295.28 630.862,1302.95 629,1304.5M494.5,1318.5C494.5,1324 503.1,1332.2 511.5,1337C522,1343 548.5,1314 567.5,1310.5C592.698,1305.86 626,1307 629,1304.5M494.5,1318.5C492.167,1325.17 489.3,1339.7 496.5,1344.5C505.5,1350.5 510,1355 521,1350.5C532,1346 550.209,1326.6 567.5,1320.5C584.5,1314.5 610.5,1316.5 618.5,1316.5C624,1316.5 627.833,1308.67 629,1304.5" style="fill:none;fill-rule:nonzero;stroke:black;stroke-width:3px;"/>
    <path d="M576.5,1314.5L581.5,1345.5C593.5,1344 609.5,1341.5 606,1321C603.469,1306.17 583.167,1311 576.5,1314.5Z" style="fill:rgb(67,75,81);fill-rule:nonzero;stroke:black;stroke-width:3px;"/>
    <path d="M580,1355.5C566,1357.1 552.167,1367.17 545,1372C551,1382.5 567.8,1407 583,1405C608.5,1401.64 610.667,1371.17 612,1355.5C607.167,1354.83 594,1353.9 580,1355.5Z" style="fill:none;fill-rule:nonzero;stroke:black;stroke-width:3px;stroke-linejoin:round;"/>
    <path d="M476.499,1552C443.736,1592 499.332,1644.33 530.999,1672.5L604.999,1576.5C577,1552 519.499,1499.5 476.499,1552Z" style="fill:rgb(155,28,46);fill-rule:nonzero;stroke:black;stroke-width:3px;"/>
    <path d="M476.998,1550.5C445.498,1594.5 499.331,1644.33 530.998,1672.5L554.5,1640.5C476,1617 476.998,1550.5 476.998,1550.5Z" style="fill:rgb(128,25,39);fill-rule:nonzero;"/>
    <path d="M507.914,1565.31L489,1545.5L510,1559L524,1555.5L553.5,1576.5L550,1594L577.5,1613L567.5,1625.5L543.422,1603.27C542.218,1602.16 541.635,1600.53 541.861,1598.91L544.108,1582.81C544.351,1581.07 543.661,1579.32 542.291,1578.22L526.018,1565.12C524.753,1564.11 523.071,1563.77 521.509,1564.21L512.905,1566.67C511.119,1567.18 509.197,1566.66 507.914,1565.31Z" style="fill:rgb(209,37,62);fill-rule:nonzero;"/>
    <path d="M567,1557C556.6,1546.6 522.667,1535.33 507,1531C515.5,1531.83 515.5,1524 544.5,1534C556.654,1538.19 591.5,1562.83 605,1576L593,1591.5C588.667,1584.33 577.4,1567.4 567,1557Z" style="fill:rgb(209,37,62);fill-rule:nonzero;"/>
    <path d="M486.5,1541.82C483.096,1544.65 479.756,1548.02 476.499,1552C443.736,1592 499.332,1644.33 530.999,1672.5L577.635,1612M486.5,1541.82C528.04,1507.29 579.121,1553.86 604.999,1576.5L577.635,1612M486.5,1541.82L509.5,1559.5L525,1555.5L552.5,1576.5L550,1594L577.635,1612" style="fill:none;fill-rule:nonzero;stroke:black;stroke-width:3px;"/>
    <path d="M819.999,1441.5C820.999,1437.5 844.499,1411.5 852.999,1422.5C857.785,1428.69 853.06,1439.48 847.57,1448C852.047,1446.17 861.4,1444.5 863,1452.5C863.868,1456.84 860.023,1464.39 854.698,1471.5C856.965,1470.5 861.8,1469.9 863,1475.5C863.686,1478.7 860.611,1483.26 856.641,1487.5C860.428,1487.33 867,1489.6 863,1496C859,1502.4 844.333,1514 837.499,1519.5C834.499,1516.67 829,1510.4 831,1508C833,1505.6 840.167,1500.67 843.5,1498.5C839,1501 834,1504.5 831,1498.5C828.6,1493.7 831.667,1490.17 833.5,1489C826.7,1488.6 827,1475.07 828,1468.36C823.235,1471.61 818.1,1473.3 815.999,1467C812.799,1457.4 817.332,1446 819.999,1441.5Z" style="fill:rgb(149,166,179);fill-rule:nonzero;"/>
    <path d="M837.499,1460.5C836.312,1461.21 832.307,1465.42 828,1468.36M837.499,1460.5C836.666,1456.83 834.2,1448.7 831,1445.5C827.8,1442.3 821.667,1441.5 819,1441.5M837.499,1460.5C837.904,1460.26 838.807,1459.38 840,1458.05M847.57,1448C852.047,1446.17 861.4,1444.5 863,1452.5C863.5,1455 862.436,1458.57 860.426,1462.5M847.57,1448C849.647,1444.78 851.615,1441.23 852.999,1437.73M847.57,1448C845.047,1444.17 842.5,1437 837.499,1434C835.073,1432.54 830.333,1431.47 828,1431.46M847.57,1448C846.542,1449.59 845.487,1451.11 844.463,1452.5M833.5,1489C826.7,1488.6 827,1475.07 828,1468.36M833.5,1489C831.667,1490.17 828.6,1493.7 831,1498.5C834,1504.5 839,1501 843.5,1498.5M833.5,1489C835.415,1489.11 838.065,1487.83 841,1485.66M828,1468.36C823.235,1471.61 818.1,1473.3 815.999,1467C812.799,1457.4 817.332,1446 819.999,1441.5C820.357,1440.07 823.597,1435.82 828,1431.46M854.698,1471.5C856.965,1470.5 861.8,1469.9 863,1475.5C863.552,1478.08 861.665,1481.53 858.835,1485M854.698,1471.5C856.955,1468.49 858.946,1465.39 860.426,1462.5M854.698,1471.5C853.298,1467.83 854.5,1462.5 850,1459.5C846.25,1457 841.5,1457.53 840,1458.05M854.698,1471.5C853.681,1472.86 852.61,1474.2 851.507,1475.5M843.5,1498.5C840.167,1500.67 833,1505.6 831,1508C829,1510.4 834.499,1516.67 837.499,1519.5C840.283,1517.26 844.367,1514.01 848.5,1510.51M843.5,1498.5C844.598,1497.89 846.41,1496.63 848.5,1494.96M843.5,1498.5C845.167,1499.5 848.112,1501.95 848.5,1503.5C849,1505.5 848.5,1508.84 848.5,1510.51M856.641,1487.5C860.428,1487.33 867,1489.6 863,1496C862.262,1497.18 861.162,1498.54 859.815,1500M856.641,1487.5C857.414,1486.67 858.152,1485.84 858.835,1485M856.641,1487.5C855.48,1488.74 854.242,1489.96 852.999,1491.1M837.499,1423.61C843.464,1419.71 849.501,1417.97 852.999,1422.5C855.974,1426.35 855.274,1431.98 852.999,1437.73M837.499,1423.61C840.046,1423.57 844.5,1423.61 847.57,1426C849.77,1427.72 851.999,1434.65 852.999,1437.73M837.499,1423.61C834.157,1425.79 830.837,1428.64 828,1431.46M844.463,1452.5C846.607,1451.67 851.656,1452 854.698,1454C857.74,1456 859.784,1460 860.426,1462.5M844.463,1452.5C842.816,1454.73 841.249,1456.65 840,1458.05M851.507,1475.5C852.338,1475.33 854.151,1475.7 856,1477C858.835,1479 858.557,1483 858.835,1485M851.507,1475.5C849.882,1477.42 848.189,1479.24 846.5,1480.9M846.5,1480.9C847.672,1480.77 850.314,1480.8 851.507,1482C855.147,1485.66 852.999,1488.57 852.999,1491.1M846.5,1480.9C844.629,1482.73 842.763,1484.36 841,1485.66M852.999,1491.1C851.462,1492.52 849.917,1493.83 848.5,1494.96M852.999,1491.1C854.166,1491.4 856.8,1492.4 858,1494C859.2,1495.6 859.71,1498.67 859.815,1500M841,1485.66C842.477,1485.77 845.473,1486.44 846.5,1487.5C850,1491.1 848.19,1492.97 848.5,1494.96M848.5,1494.96C849.833,1495.64 852.12,1496.69 852.999,1498.5C854.212,1501 853.975,1503.67 854.212,1505.5M859.815,1500C858.227,1501.72 856.296,1503.6 854.212,1505.5M854.212,1505.5C852.383,1507.17 850.436,1508.87 848.5,1510.51" style="fill:none;fill-rule:nonzero;stroke:black;stroke-width:3px;"/>
    <path d="M768.501,1527.5C768.001,1537 782.001,1553 789,1553C795.09,1553 838.27,1519.32 849.392,1510.56C849.635,1510.37 849.329,1509.94 849.054,1510.08C845.73,1511.76 840.583,1514.06 839.001,1513C836.601,1511.4 848.5,1495.5 848.5,1495.5C848.5,1495.5 836.901,1500.3 834.501,1495.5C832.101,1490.7 851.499,1480.5 850,1476C850,1476 842.001,1478.5 839.001,1476C833.776,1471.65 842.5,1457 840,1458C838.117,1458.75 829.463,1466.25 822.001,1461.5C816.5,1458 827.5,1434 822.001,1438C809.001,1453.83 781.601,1487.2 776.001,1494C769.001,1502.5 769.001,1518 768.501,1527.5Z" style="fill:rgb(74,83,90);fill-rule:nonzero;"/>
    <path d="M800,1511.5C789.181,1503.26 791.002,1484 796.5,1469L772.502,1498.5C770.502,1507.83 767.302,1528.5 770.502,1536.5C773.702,1544.5 785.502,1551.17 791.002,1553.5L838.502,1519.5C827.502,1521.17 810.5,1519.5 800,1511.5Z" style="fill:rgb(53,59,64);fill-rule:nonzero;"/>
    <path d="M776.001,1494L777.158,1494.95L776.001,1494ZM822.001,1438L821.118,1436.79L820.963,1436.9L820.841,1437.05L822.001,1438ZM822.001,1461.5L822.806,1460.23L822.001,1461.5ZM840,1458L839.443,1456.61L840,1458ZM839.001,1476L838.04,1477.15L839.001,1476ZM850,1476L851.423,1475.53L850.958,1474.13L849.553,1474.57L850,1476ZM848.5,1495.5L849.701,1496.4L852.974,1492.03L847.926,1494.11L848.5,1495.5ZM849.054,1510.08L848.375,1508.74L849.054,1510.08ZM849.392,1510.56L850.32,1511.74L849.392,1510.56ZM789,1551.5C787.738,1551.5 785.874,1550.74 783.651,1549.13C781.485,1547.57 779.185,1545.37 777.092,1542.85C775,1540.34 773.152,1537.55 771.863,1534.85C770.563,1532.12 769.893,1529.6 769.999,1527.58L767.003,1527.42C766.86,1530.15 767.752,1533.19 769.155,1536.14C770.569,1539.11 772.564,1542.1 774.785,1544.77C777.004,1547.44 779.485,1549.83 781.897,1551.57C784.251,1553.26 786.762,1554.5 789,1554.5L789,1551.5ZM769.999,1527.58C770.253,1522.76 770.374,1516.63 771.296,1510.6C772.221,1504.56 773.92,1498.89 777.158,1494.95L774.843,1493.05C771.081,1497.61 769.28,1503.94 768.331,1510.15C767.379,1516.37 767.25,1522.74 767.003,1527.42L769.999,1527.58ZM777.158,1494.95C782.759,1488.15 810.16,1454.78 823.16,1438.95L820.841,1437.05C807.841,1452.88 780.442,1486.25 774.843,1493.05L777.158,1494.95ZM822.883,1439.21C823.166,1439.01 823.231,1439.02 823.131,1439.04C822.922,1439.08 822.501,1439.03 822.207,1438.68C822.028,1438.47 822.058,1438.32 822.079,1438.53C822.094,1438.69 822.093,1438.95 822.054,1439.34C821.895,1440.96 821.246,1443.55 820.539,1446.6C819.854,1449.56 819.137,1452.87 818.956,1455.69C818.866,1457.1 818.902,1458.48 819.188,1459.67C819.475,1460.86 820.057,1462.04 821.195,1462.77L822.806,1460.23C822.569,1460.08 822.292,1459.75 822.105,1458.97C821.919,1458.2 821.869,1457.16 821.95,1455.89C822.113,1453.34 822.772,1450.25 823.461,1447.28C824.13,1444.39 824.855,1441.51 825.04,1439.64C825.087,1439.16 825.107,1438.68 825.064,1438.24C825.025,1437.84 824.916,1437.24 824.501,1436.75C823.97,1436.12 823.216,1435.97 822.562,1436.09C822.016,1436.2 821.523,1436.49 821.118,1436.79L822.883,1439.21ZM821.195,1462.77C825.529,1465.52 830.141,1464.65 833.665,1463.2C835.44,1462.47 837.01,1461.56 838.229,1460.81C838.802,1460.46 839.407,1460.07 839.783,1459.84C840.238,1459.55 840.466,1459.43 840.557,1459.39L839.443,1456.61C839.063,1456.76 838.609,1457.03 838.201,1457.29C837.715,1457.59 837.276,1457.87 836.656,1458.26C835.49,1458.97 834.078,1459.78 832.521,1460.43C829.382,1461.72 825.935,1462.23 822.806,1460.23L821.195,1462.77ZM840.557,1459.39C840.537,1459.4 840.422,1459.45 840.241,1459.45C840.041,1459.46 839.75,1459.41 839.471,1459.21C839.2,1459.02 839.073,1458.77 839.017,1458.62C838.965,1458.48 838.962,1458.37 838.961,1458.36C838.961,1458.34 838.963,1458.4 838.92,1458.61C838.88,1458.8 838.816,1459.05 838.725,1459.35C838.543,1459.97 838.285,1460.73 837.983,1461.63C837.685,1462.52 837.353,1463.52 837.041,1464.56C836.424,1466.64 835.853,1469 835.804,1471.18C835.756,1473.33 836.216,1475.63 838.04,1477.15L839.961,1474.85C839.173,1474.19 838.764,1473.03 838.804,1471.24C838.843,1469.48 839.318,1467.43 839.916,1465.42C840.212,1464.43 840.53,1463.47 840.827,1462.59C841.119,1461.71 841.4,1460.89 841.602,1460.2C841.784,1459.59 841.98,1458.85 841.96,1458.26C841.951,1458 841.893,1457.25 841.216,1456.77C840.491,1456.25 839.725,1456.49 839.443,1456.61L840.557,1459.39ZM838.04,1477.15C839.122,1478.05 840.531,1478.42 841.836,1478.55C843.165,1478.68 844.572,1478.59 845.821,1478.42C847.078,1478.26 848.228,1478.01 849.06,1477.81C849.478,1477.71 849.819,1477.61 850.058,1477.55C850.178,1477.51 850.272,1477.48 850.338,1477.46C850.371,1477.46 850.397,1477.45 850.415,1477.44C850.425,1477.44 850.432,1477.44 850.437,1477.43L850.447,1477.43L849.553,1474.57L849.539,1474.57C849.526,1474.58 849.507,1474.58 849.481,1474.59C849.428,1474.61 849.347,1474.63 849.242,1474.66C849.032,1474.72 848.725,1474.8 848.346,1474.89C847.585,1475.08 846.547,1475.3 845.43,1475.45C844.303,1475.6 843.148,1475.66 842.134,1475.56C841.095,1475.46 840.379,1475.2 839.961,1474.85L838.04,1477.15ZM848.577,1476.47C848.577,1476.47 848.593,1476.52 848.571,1476.64C848.547,1476.77 848.483,1476.96 848.342,1477.23C848.052,1477.77 847.532,1478.45 846.782,1479.24C845.283,1480.83 843.154,1482.61 840.94,1484.5C838.779,1486.33 836.53,1488.28 834.982,1490.09C834.208,1490.99 833.532,1491.94 833.146,1492.91C832.752,1493.9 832.603,1495.06 833.159,1496.17L835.842,1494.83C835.798,1494.74 835.731,1494.53 835.932,1494.02C836.141,1493.5 836.575,1492.84 837.26,1492.04C838.627,1490.44 840.684,1488.65 842.885,1486.78C845.034,1484.95 847.323,1483.04 848.964,1481.3C849.784,1480.43 850.516,1479.53 850.991,1478.64C851.455,1477.76 851.8,1476.66 851.423,1475.53L848.577,1476.47ZM833.159,1496.17C834.059,1497.97 835.784,1498.74 837.467,1499.01C839.138,1499.27 841.008,1499.09 842.677,1498.77C844.366,1498.46 845.961,1497.99 847.124,1497.6C847.709,1497.4 848.19,1497.23 848.528,1497.1C848.697,1497.04 848.83,1496.98 848.923,1496.95C848.969,1496.93 849.005,1496.91 849.031,1496.9C849.043,1496.9 849.053,1496.89 849.06,1496.89L849.073,1496.89C849.073,1496.89 849.074,1496.89 848.5,1495.5C847.926,1494.11 847.927,1494.11 847.927,1494.11C847.926,1494.11 847.925,1494.11 847.923,1494.12L847.903,1494.12C847.884,1494.13 847.855,1494.14 847.815,1494.16C847.737,1494.19 847.619,1494.24 847.466,1494.29C847.16,1494.41 846.716,1494.57 846.176,1494.75C845.089,1495.11 843.634,1495.54 842.124,1495.83C840.592,1496.11 839.113,1496.23 837.934,1496.04C836.767,1495.86 836.142,1495.43 835.842,1494.83L833.159,1496.17ZM849.701,1496.4L847.299,1494.6L847.296,1494.6C847.295,1494.61 847.292,1494.61 847.289,1494.61C847.283,1494.62 847.274,1494.63 847.263,1494.65C847.24,1494.68 847.206,1494.73 847.162,1494.79C847.074,1494.9 846.945,1495.08 846.783,1495.3C846.459,1495.74 846,1496.38 845.456,1497.14C844.37,1498.67 842.942,1500.73 841.587,1502.84C840.241,1504.94 838.93,1507.15 838.106,1508.97C837.7,1509.87 837.367,1510.76 837.239,1511.55C837.134,1512.19 837.053,1513.5 838.169,1514.25L839.833,1511.75C840.348,1512.1 840.113,1512.56 840.2,1512.03C840.264,1511.64 840.466,1511.03 840.838,1510.21C841.57,1508.6 842.785,1506.53 844.113,1504.46C845.433,1502.4 846.83,1500.38 847.901,1498.88C848.435,1498.13 848.886,1497.51 849.204,1497.07C849.362,1496.86 849.487,1496.69 849.572,1496.57C849.615,1496.51 849.647,1496.47 849.669,1496.44C849.68,1496.43 849.688,1496.42 849.693,1496.41C849.696,1496.41 849.698,1496.4 849.699,1496.4L849.701,1496.4ZM838.169,1514.25C839.036,1514.83 840.126,1514.82 840.954,1514.71C841.859,1514.6 842.867,1514.33 843.861,1513.99C845.86,1513.3 848.05,1512.27 849.732,1511.42L848.375,1508.74C846.734,1509.57 844.689,1510.53 842.888,1511.15C841.982,1511.46 841.198,1511.66 840.589,1511.74C839.904,1511.82 839.756,1511.7 839.833,1511.75L838.169,1514.25ZM848.464,1509.38C842.907,1513.76 829.347,1524.35 816.421,1533.85C809.955,1538.61 803.666,1543.07 798.625,1546.34C796.101,1547.98 793.916,1549.3 792.189,1550.21C791.325,1550.66 790.602,1551 790.026,1551.22C789.413,1551.45 789.098,1551.5 789,1551.5L789,1554.5C789.664,1554.5 790.399,1554.29 791.093,1554.02C791.824,1553.74 792.664,1553.35 793.585,1552.86C795.429,1551.89 797.703,1550.52 800.258,1548.86C805.373,1545.54 811.716,1541.04 818.197,1536.27C831.164,1526.74 844.755,1516.12 850.32,1511.74L848.464,1509.38ZM849.732,1511.42C848.958,1511.81 848.358,1511.3 848.192,1511.06C848.085,1510.91 847.975,1510.67 847.981,1510.36C847.987,1510 848.15,1509.63 848.464,1509.38L850.32,1511.74C850.756,1511.4 850.972,1510.9 850.98,1510.41C850.989,1509.97 850.83,1509.6 850.643,1509.33C850.316,1508.87 849.425,1508.21 848.375,1508.74L849.732,1511.42Z" style="fill-rule:nonzero;"/>
    <defs>
        <linearGradient id="_Linear1" x1="0" y1="0" x2="1" y2="0" gradientUnits="userSpaceOnUse" gradientTransform="matrix(1.12538e-13,1837.89,-1837.89,1.12538e-13,1051.5,66)"><stop offset="0" style="stop-color:rgb(238,238,238);stop-opacity:1"/><stop offset="1" style="stop-color:rgb(185,185,185);stop-opacity:1"/></linearGradient>
    </defs>
</svg>
