<svg width="24" height="24" viewBox="0 0 24 24" fill="none" xmlns="http://www.w3.org/2000/svg">
<path d="M8.4 12.0004C11.0513 12.0004 13.2 9.85127 13.2 7.20039C13.2 4.54952 11.0513 2.40039 8.4 2.40039C5.74875 2.40039 3.6 4.54952 3.6 7.20039C3.6 9.85127 5.74875 12.0004 8.4 12.0004ZM10.3013 13.8004H6.49875C2.91038 13.8004 0 16.7104 0 20.2991C0 21.0191 0.582 21.6004 1.29975 21.6004H15.501C16.2188 21.6004 16.8 21.0191 16.8 20.2991C16.8 16.7104 13.89 13.8004 10.3013 13.8004ZM23.1 9.90039H21.3V8.10039C21.3 7.60539 20.8988 7.20039 20.4 7.20039C19.9013 7.20039 19.5 7.60352 19.5 8.10039V9.90039H17.7C17.205 9.90039 16.8 10.3054 16.8 10.8004C16.8 11.2954 17.2031 11.7004 17.7 11.7004H19.5V13.5004C19.5 13.9991 19.905 14.4004 20.4 14.4004C20.895 14.4004 21.3 13.9973 21.3 13.5004V11.7004H23.1C23.5988 11.7004 24 11.2991 24 10.8004C24 10.3016 23.5988 9.90039 23.1 9.90039Z" fill="#232323"/>
</svg>
