<svg width="16" height="16" viewBox="0 0 16 16" fill="none" xmlns="http://www.w3.org/2000/svg">
<rect width="16" height="16" rx="8" fill="#E0E3E3"/>
<path fill-rule="evenodd" clip-rule="evenodd" d="M15 2C15 1.44781 14.5531 1 14 1H2C0.895313 1 0 1.89531 0 3V13C0 14.1031 0.895313 15 2 15H14C15.1031 15 16 14.1031 16 13V6C16 4.89687 15.1031 4 14 4H2.5C2.22375 4 2 3.775 2 3.5C2 3.225 2.22375 3 2.5 3H14C14.5531 3 15 2.55219 15 2ZM8.9828 8.45234C9.02383 8.55312 8.98901 8.6668 8.90447 8.74062L8.36611 9.20234C8.37979 9.29961 8.38725 9.39922 8.38725 9.48945C8.38725 9.60078 8.37979 9.70039 8.36611 9.79766L8.90447 10.2594C8.98901 10.3332 9.02383 10.4457 8.9828 10.5477C8.92809 10.6871 8.8622 10.8219 8.7876 10.9496L8.72916 11.0445C8.6471 11.1734 8.5551 11.2953 8.45439 11.4113C8.37979 11.4945 8.25919 11.5238 8.14978 11.491L7.45725 11.2824C7.29065 11.4031 7.09545 11.5039 6.91019 11.5813L6.75478 12.2504C6.72991 12.3559 6.64288 12.4309 6.5285 12.459C6.35692 12.4859 6.18037 12.5 5.9889 12.5C5.81981 12.5 5.64326 12.4859 5.47168 12.459C5.3573 12.4309 5.27027 12.3559 5.2454 12.2504L5.08998 11.5813C4.89354 11.5039 4.70953 11.4031 4.54293 11.2824L3.8509 11.491C3.74099 11.5238 3.61977 11.4945 3.54616 11.4113C3.44533 11.2953 3.35333 11.1734 3.27127 11.0445L3.21308 10.9496C3.13761 10.8219 3.07196 10.6871 3.01689 10.5477C2.9766 10.4469 3.01054 10.3332 3.09584 10.2594L3.63369 9.79766C3.62002 9.70039 3.61293 9.60078 3.61293 9.5C3.61293 9.39922 3.62002 9.29961 3.63369 9.20234L3.09584 8.74062C3.01054 8.6668 2.9766 8.5543 3.01689 8.45234C3.07196 8.31289 3.13774 8.17812 3.21308 8.05039L3.27114 7.95547C3.3532 7.82656 3.44533 7.70469 3.54616 7.58926C3.61977 7.50547 3.74099 7.47641 3.8509 7.50945L4.54293 7.71758C4.70953 7.59641 4.89354 7.49563 5.08998 7.4191L5.2454 6.74996C5.27027 6.64355 5.3573 6.55906 5.47168 6.54113C5.64326 6.51407 5.81981 6.5 5.9889 6.5C6.18037 6.5 6.35692 6.51407 6.5285 6.54113C6.64288 6.55906 6.72991 6.64355 6.75478 6.74996L6.91019 7.4191C7.09545 7.49563 7.29065 7.59641 7.45725 7.71758L8.14978 7.50945C8.25919 7.47641 8.37979 7.50547 8.45439 7.58926C8.5551 7.70469 8.6471 7.82656 8.72916 7.95547L8.7876 8.05039C8.8622 8.17812 8.92809 8.31289 8.9828 8.45234ZM6.00009 10.4375C6.54963 10.4375 6.99474 10.018 6.99474 9.48945C6.99474 8.98203 6.54963 8.55195 6.00009 8.55195C5.45055 8.55195 5.00544 8.98203 5.00544 9.48945C5.00544 10.018 5.45055 10.4375 6.00009 10.4375ZM13.375 8.5498C12.8918 8.5498 12.5 8.94156 12.5 9.4248C12.5 9.90805 12.8918 10.2998 13.375 10.2998C13.8582 10.2998 14.25 9.90805 14.25 9.4248C14.25 8.94156 13.8582 8.5498 13.375 8.5498Z" fill="black"/>
</svg>
