<svg width="2000" height="2000" viewBox="0 0 2000 2000" fill="none" xmlns="http://www.w3.org/2000/svg">
<g clip-path="url(#clip0_68_191)">
<path d="M156 1175C140 1088.6 326.667 828.333 388 751H480C480 867 488 1127.8 520 1243C560 1387 968 1567 1004 1567C1040 1567 880 1691 804 1731C728 1771 556 1759 444 1731C332 1703 260 1519 272 1423C284 1327 176 1283 156 1175Z" fill="#FFD451"/>
<path d="M728 259C600 287.8 554.667 449.667 548 527C668 516.333 945.6 496.6 1096 503C1246.4 509.4 1521.33 815 1640 967C1685.33 893.667 1773.6 726.2 1764 643C1752 539 1540 463 1480 439C1420 415 1364 259 1272 227C1180 195 1088 295 1012 287C936 279 888 223 728 259Z" fill="#FFD451"/>
<path d="M605.953 232.918C573.837 273.235 548.307 356.924 548.63 386.574C576.578 371.74 635.299 351.665 674.773 300.217C700.268 266.987 722.249 183.446 726.236 142.241C691.404 169.805 630.029 202.694 605.953 232.918Z" fill="#8F6B18"/>
<path d="M396.535 1314.97C386.883 1340.84 356.907 1343.95 319.921 1342.96C285.808 1342.04 207.628 1296.19 203.258 1268.78C202.736 1265.5 206.472 1264.25 209.336 1265.92C245.628 1287.1 278.141 1253.92 315.901 1250.73C355.573 1247.39 406.187 1289.1 396.535 1314.97Z" fill="#8F6B18"/>
<path d="M303.573 1195.65C284.339 1220.38 250.84 1213.56 211.143 1199.92C174.187 1187.23 104.185 1109.73 110.216 1079.14C110.858 1075.89 114.823 1075.84 116.984 1078.36C148.144 1114.62 183.791 1090.35 225.99 1099.79C270.064 1109.64 322.807 1170.93 303.573 1195.65Z" fill="#8F6B18"/>
<path d="M300.677 970.027C281.442 994.752 257.88 994.279 206.684 965.574C158.882 938.771 147.155 866.701 161.468 837.138C162.913 834.153 166.872 834.19 168.861 836.844C198.042 875.777 210.105 882.438 252.323 891.877C296.397 901.731 319.911 945.302 300.677 970.027Z" fill="#8F6B18"/>
<path d="M313.353 898.248C334.715 921.159 358.141 918.587 406.574 885.432C451.796 854.474 457.049 781.645 440.157 753.475C438.452 750.632 434.512 751.022 432.768 753.842C407.175 795.222 395.754 802.932 354.546 816.098C311.526 829.842 291.99 875.336 313.353 898.248Z" fill="#8F6B18"/>
<path d="M290.155 770.441C267.886 750.338 182.631 727.915 214.705 657.976C240.441 601.856 228.814 571.998 221.561 553.775C219.905 549.614 224.029 546.665 227.681 549.257C263.88 574.95 264.913 580.083 288.543 610.391C314.187 643.282 299.959 744.158 290.155 770.441Z" fill="#8F6B18"/>
<path d="M283.634 781.533C309.66 781.007 378.301 814.756 397.018 750.671C411.567 700.856 435.101 687.128 450.296 679.204C454.267 677.132 453.162 672.284 448.703 671.861C411.852 668.367 407.905 671.157 375.647 677.51C340.141 684.502 292.142 758.729 283.634 781.533Z" fill="#8F6B18"/>
<path d="M327.887 615.296C356.314 624.883 417.578 688.271 462.886 626.081C499.241 576.181 530.971 571.715 550.412 569.126C554.852 568.534 555.406 563.495 551.359 561.578C511.241 542.576 506.259 544.186 468.265 538.403C427.033 532.128 346.013 593.887 327.887 615.296Z" fill="#8F6B18"/>
<path d="M443.76 479.214C469.083 489.728 525.206 554.65 562.757 494.777C592.665 447.091 620.193 443.519 637.211 441.652C641.483 441.184 642.201 436.466 638.458 434.354C602.237 413.921 597.99 415.361 564.304 408.243C527.851 400.541 458.909 458.694 443.76 479.214Z" fill="#8F6B18"/>
<path d="M393.36 542.57C382.356 514.66 315.967 456.662 375.799 408.284C423.808 369.465 426.672 337.551 428.281 318.004C428.648 313.54 433.653 312.732 435.771 316.679C456.767 355.79 455.41 360.847 463.096 398.502C471.436 439.366 413.831 523.39 393.36 542.57Z" fill="#8F6B18"/>
<path d="M295.049 1113.34C313.986 1138.3 337.552 1138.11 389.087 1110.01C437.207 1083.78 449.792 1011.86 435.833 982.126C434.424 979.124 430.465 979.115 428.445 981.744C398.801 1020.33 386.659 1026.84 344.332 1035.78C300.143 1045.1 276.111 1088.39 295.049 1113.34Z" fill="#8F6B18"/>
<path d="M275.254 681.632C292.897 594.289 494.24 430.322 597.694 332.3C547.161 395.276 425.006 534.091 359.626 604.241C272.529 697.692 301.158 774.088 319.062 838.861C357.218 976.905 288.294 984.279 294.41 1070.88C302.501 1185.45 412.976 1279.48 455.996 1387.32C419.412 1348.05 333.564 1245.16 301.633 1188.84C261.719 1118.45 258.803 1011.07 290.74 977.72C339.693 926.607 249.12 811.019 275.254 681.632Z" fill="#8F6B18"/>
<path d="M999 1753C1385.6 1753 1699 1439.6 1699 1053C1699 666.401 1385.6 353 999 353C612.401 353 299 666.401 299 1053C299 1439.6 612.401 1753 999 1753Z" fill="#BE9A30"/>
<path d="M999 1658C1333.13 1658 1604 1387.13 1604 1053C1604 718.868 1333.13 448 999 448C664.868 448 394 718.868 394 1053C394 1387.13 664.868 1658 999 1658Z" fill="#414141" stroke="white" stroke-width="10"/>
<path d="M1005.83 598L1117.43 663.15L725.257 889.625V1215.38L1005.83 1375.15L1398 1148.67V1277.42L1005.83 1507L609 1277.42V826.026L1005.83 598Z" fill="#BE9A30"/>
<path d="M1162.13 774L1263 833.046L850.013 1073.5C847.346 1075.05 844 1073.13 844 1070.04V960.634C844 959.565 844.568 958.577 845.492 958.04L1162.13 774Z" fill="white"/>
<path d="M1325.08 1059.51L1323.51 942.674L910.929 1183.58C908.265 1185.13 908.29 1188.99 910.973 1190.51L1006.04 1244.39C1006.97 1244.92 1008.11 1244.91 1009.03 1244.37L1325.08 1059.51Z" fill="white"/>
<path d="M1283.81 824L1181 764.82L1241.77 729.885C1242.72 729.339 1243.89 729.354 1244.82 729.924L1335.81 785.358C1339.05 787.332 1339 792.054 1335.71 793.955L1283.81 824Z" fill="white"/>
<path d="M1341.56 929.713L1342.36 1047.9L1402.5 1012.4C1403.44 1011.84 1404 1010.82 1403.97 1009.72L1400.61 903.654C1400.49 899.862 1396.36 897.58 1393.08 899.499L1341.56 929.713Z" fill="white"/>
<g style="mix-blend-mode:multiply" opacity="0.6">
<path d="M333.985 1281.82C459.897 1647.34 858.282 1841.58 1223.8 1715.67C1223.8 1715.67 836.912 1521.52 711 1156C585.088 790.48 767.834 392 767.834 392C402.314 517.912 208.073 916.297 333.985 1281.82Z" fill="#9E8B53"/>
</g>
<path d="M283 433C267.001 482 272.333 569.333 283 597C304 573.333 352 534 371.002 472C383.274 431.955 374.668 346 364.002 306C341.001 344 294.993 396.267 283 433Z" fill="#7FA81D"/>
<path d="M465 1520C465 1547.61 438 1561 403 1573C370.719 1584.07 281.445 1568.44 267.768 1544.28C266.134 1541.39 269.198 1538.91 272.465 1539.48C313.87 1546.64 332.734 1504.18 367 1488C403 1471 465 1492.39 465 1520Z" fill="url(#paint0_linear_68_191)"/>
<path d="M336.197 1440.7C326.818 1470.59 293.048 1475.91 251.09 1477.01C212.029 1478.03 119.355 1429.89 114.314 1399.13C113.778 1395.85 117.476 1394.42 120.38 1396.02C162.248 1419.1 187.165 1383.91 230 1378C274.739 1371.83 345.576 1410.81 336.197 1440.7Z" fill="url(#paint1_linear_68_191)"/>
<path d="M254.62 1230.32C245.241 1260.21 223 1268 165 1259C110.844 1250.6 74.6669 1187.17 77.7439 1154.47C78.0546 1151.17 81.7765 1149.82 84.5672 1151.61C125.516 1177.89 139.147 1179.91 182 1174C226.739 1167.83 263.999 1200.43 254.62 1230.32Z" fill="url(#paint2_linear_68_191)"/>
<path d="M241.409 1158.64C269.432 1172.64 290.481 1162.04 324.27 1114.05C355.819 1069.23 335.285 999.162 309.613 978.674C307.021 976.605 303.466 978.348 302.818 981.6C293.302 1029.32 285.297 1040.53 251.29 1067.27C215.787 1095.18 213.385 1144.64 241.409 1158.64Z" fill="url(#paint3_linear_68_191)"/>
<path d="M175.001 1047C147.11 1035.95 59.3951 1044.74 65 968C69.4974 906.425 48.1671 882.514 35.0028 867.976C31.9965 864.655 34.829 860.451 39.1572 861.603C82.0534 873.024 84.8159 877.471 117.549 897.608C153.072 919.462 175 1018.95 175.001 1047Z" fill="#7FA81D"/>
<path d="M172.768 1059.67C196.968 1050.08 273.076 1057.71 268.212 991.126C264.432 939.367 281.684 918.279 293.15 905.543C296.147 902.215 293.417 898.059 289.092 899.221C253.343 908.828 250.621 912.821 222.617 930.049C191.795 949.01 172.768 1035.33 172.768 1059.67Z" fill="#7FA81D"/>
<path d="M156.125 888.452C186.111 887.498 265.666 925.474 286.379 851.371C303 791.911 331.167 776.636 348.476 767.415C352.429 765.309 351.188 760.394 346.725 760.012C302.496 756.231 298.391 759.481 260.773 767.343C219.948 775.876 165.625 862.058 156.125 888.452Z" fill="#7FA81D"/>
<path d="M217.125 720.452C244.526 721.452 319.801 762.663 334.057 693.44C345.411 638.308 369.953 625.34 385.246 617.643C389.085 615.711 388.108 611.039 383.863 610.369C342.785 603.885 339.309 606.718 305.26 611.824C268.414 617.349 224.146 695.931 217.125 720.452Z" fill="#7FA81D"/>
<path d="M192.05 797.428C171.984 775.125 89.5109 743.99 128.659 677.75C160.071 624.599 151.6 593.697 146.275 574.821C145.059 570.51 149.466 568.004 152.83 570.961C186.171 600.267 186.668 605.479 207.03 638.072C229.128 673.444 204.525 772.302 192.05 797.428Z" fill="#7FA81D"/>
<path d="M299.44 1366.56C325.905 1383.32 347.918 1374.91 386.383 1330.57C422.299 1289.18 408.951 1217.39 385.48 1194.41C383.111 1192.09 379.398 1193.47 378.424 1196.64C364.136 1243.15 355.038 1253.5 318.503 1276.66C280.361 1300.85 272.975 1349.8 299.44 1366.56Z" fill="url(#paint4_linear_68_191)"/>
<path d="M130 969C116 881 247.333 657 310 529C284.666 605.667 218.735 778.423 181.999 867C133.06 985 186.586 1046.57 226 1101C310 1217 248 1248 284 1327C331.627 1431.52 468 1481 545.999 1567C497.999 1543 381.6 1476.6 332 1435C270 1383 229.733 1283.41 248 1241C276 1176 150.738 1099.36 130 969Z" fill="url(#paint5_linear_68_191)"/>
<path d="M832.742 1706.33C707.657 1720.83 509.061 1544.78 428.99 1431.25C506.957 1471.98 673.386 1556.49 715.366 1568.68C767.841 1583.93 888.576 1513.69 988.288 1480.8C1088 1447.9 1293.2 1523 1330.5 1516.74C1367.81 1510.47 1325.27 1453.35 1388.96 1401.37C1424.96 1371.98 1478.21 1381.97 1504.9 1362.71C1549.75 1330.36 1528.36 1255.28 1566.37 1200.45C1590.47 1165.69 1646.96 1158.3 1650.25 1140.3C1659.29 1090.78 1712.17 1073.01 1734.08 1043.32C1755.99 1013.63 1736.02 932.561 1742.14 912.46C1748.26 892.358 1787.57 994.454 1794.8 1075.06C1802.04 1155.67 1745.57 1197.12 1715.63 1212.23C1685.69 1227.33 1697.81 1350.04 1671.33 1413.22C1644.86 1476.4 1530.15 1544 1492.85 1550.27C1455.55 1556.53 1436.45 1610.46 1375.09 1627.92C1283.05 1654.11 1170.68 1636.11 1071.02 1647.67C1006.4 1655.16 993.539 1687.68 832.742 1706.33Z" fill="#803F16"/>
<path d="M732.988 1574.88C730.538 1582.6 725.684 1589.41 711.476 1594.34C694.721 1600.17 659.22 1593.13 636.846 1588.46" stroke="#B0571E" stroke-width="8" stroke-linecap="round"/>
<path d="M777.338 1652.15C781.504 1656.19 795.776 1670.86 800.416 1678.08C805.056 1685.3 809.943 1697.98 811.806 1703.42" stroke="#B0571E" stroke-width="8" stroke-linecap="round"/>
<path d="M855 1538.43C861.359 1555.31 868.767 1584.77 857.089 1606.54C844.061 1630.84 815.307 1644.03 802.91 1654.04" stroke="#B0571E" stroke-width="8" stroke-linecap="round"/>
<path d="M806.504 1653.13C823.737 1655.98 850.459 1652.3 871.565 1663.04C892.67 1673.78 911.838 1683.9 918.784 1687.62" stroke="#B0571E" stroke-width="8" stroke-linecap="round"/>
<path d="M1414.69 1395.47C1416.63 1403.17 1422.9 1421.67 1421.95 1435.35C1421 1449.04 1403.88 1499.66 1397.45 1520.13" stroke="#B0571E" stroke-width="8" stroke-linecap="round"/>
<path d="M476.721 1469.34C568.678 1551.76 774.542 1701.83 862.347 1642.78C972.104 1568.97 988.981 1550.53 1070.42 1560.47C1151.86 1570.42 1292.96 1591.63 1335.19 1575.34C1399.9 1550.38 1418.32 1454.15 1476.32 1453.29C1572.29 1451.85 1594.68 1377.02 1608.59 1345.84C1634.58 1287.56 1569.06 1241.83 1704.63 1144.66C1784.61 1087.34 1764.91 976.721 1752.82 940.794" stroke="#B0571E" stroke-width="8" stroke-linecap="round"/>
<path d="M1724.18 1067.25C1725.05 1074.83 1723.57 1083.03 1722.81 1090.53C1721.59 1102.79 1720.72 1115.57 1715.83 1127.24C1712.97 1134.04 1708.78 1139.46 1704.06 1145.21" stroke="#B0571E" stroke-width="5" stroke-linecap="round"/>
<path d="M1784.29 1046.32C1784.37 1047.04 1784.43 1047.75 1784.11 1048.45C1778.14 1061.85 1770.27 1075.08 1761.81 1087.28C1755.6 1096.24 1749.31 1102.5 1740.41 1108.81" stroke="#B0571E" stroke-width="5" stroke-linecap="round"/>
<path d="M1669.25 1172.04C1673.62 1169.38 1689.43 1161.86 1694.15 1159.76C1709.28 1153.05 1724.58 1146.49 1740.53 1141.67C1748.84 1139.17 1757.25 1137.99 1765.8 1136.7C1770.31 1136.02 1774.82 1135.46 1779.35 1134.93" stroke="#B0571E" stroke-width="5" stroke-linecap="round"/>
<path d="M1621.7 1235.72C1621.69 1236.32 1621.29 1235.46 1622.09 1234.41C1627.61 1227.14 1638.17 1220.37 1645.21 1214.96C1660.74 1203.04 1675.96 1192.76 1694.7 1185.85C1708.38 1180.8 1722.45 1176.35 1736.8 1173.34C1739.98 1172.67 1743.1 1172.36 1746.23 1171.47C1750.7 1170.19 1755.48 1169.02 1760.11 1168.48" stroke="#B0571E" stroke-width="5" stroke-linecap="round"/>
<path d="M1618.24 1169.42C1618.88 1173.01 1620.29 1176.37 1620.85 1180.19C1622.78 1193.45 1623.84 1206.8 1622.81 1220.23C1622.26 1227.56 1620.27 1233.74 1618.48 1240.75" stroke="#B0571E" stroke-width="5" stroke-linecap="round"/>
<path d="M1680.84 1093.51C1680.93 1094.98 1680.34 1096.84 1680.12 1098.16C1677.2 1115.38 1675.49 1133.22 1669.78 1149.95C1665.51 1162.49 1659.97 1175.61 1652.55 1186.94C1647.24 1195.05 1640.39 1202.2 1633.87 1209.49" stroke="#B0571E" stroke-width="5" stroke-linecap="round"/>
<path d="M1568.19 1207.02C1575.97 1213.39 1588.7 1238.1 1590.53 1253.88C1592.04 1266.89 1603.74 1319.25 1609.13 1341.41" stroke="#B0571E" stroke-width="8" stroke-linecap="round"/>
<path d="M1696.56 1229.95C1681.21 1237.23 1660.05 1252.12 1648.87 1265.06C1637.69 1277.99 1619.69 1301.89 1615.65 1311.08" stroke="#B0571E" stroke-width="8" stroke-linecap="round"/>
<path d="M1544.05 1290.3C1552.23 1297.11 1565.53 1311.56 1572.66 1332.07C1578.65 1349.3 1578.19 1384.27 1573.09 1408.62" stroke="#B0571E" stroke-width="8" stroke-linecap="round"/>
<path d="M1495.25 1452.55C1523.2 1452.21 1563.81 1456.23 1581.53 1454.18C1610.16 1450.86 1642.44 1437.42 1659 1425.32" stroke="#B0571E" stroke-width="8" stroke-linecap="round"/>
<path d="M1521.03 1355.99C1525.27 1368.27 1528.86 1388.98 1526.08 1399.52C1517.64 1431.53 1491.21 1438.96 1477.31 1452.69" stroke="#B0571E" stroke-width="8" stroke-linecap="round"/>
<path d="M1680.95 1341.32C1670.45 1346.42 1651.89 1354.87 1632.62 1366.32C1619.05 1374.38 1581.78 1406.15 1564.92 1420.23" stroke="#B0571E" stroke-width="8" stroke-linecap="round"/>
<path d="M1386.96 1534.43C1406.25 1523.14 1437.98 1505.24 1474.61 1493.24C1512 1480.99 1576.33 1491.3 1596.06 1488.37" stroke="#B0571E" stroke-width="8" stroke-linecap="round"/>
<path d="M1357.12 1564.07C1370.84 1556.34 1417.33 1546.42 1428.87 1545.08C1446.06 1543.09 1490.68 1537.59 1522.16 1534.27" stroke="#B0571E" stroke-width="8" stroke-linecap="round"/>
<path d="M1354.68 1474.67C1355.39 1493.01 1347.64 1530.32 1331.99 1543.23C1302.58 1567.49 1269.43 1573.11 1247.48 1579.69" stroke="#B0571E" stroke-width="8" stroke-linecap="round"/>
<path d="M1322.9 1578.7C1332.09 1577.48 1361.36 1577.83 1380.87 1582.16C1400.39 1586.49 1419.65 1590.11 1426.84 1591.37" stroke="#B0571E" stroke-width="8" stroke-linecap="round"/>
<path d="M1201.71 1576.76C1232.46 1573.19 1276.52 1598.5 1292.26 1606.01C1313.51 1616.15 1319.67 1626.75 1327.44 1631.5" stroke="#B0571E" stroke-width="8" stroke-linecap="round"/>
<path d="M1247.2 1508.95C1235.22 1519.55 1210.34 1539.98 1193.34 1550.1C1176.35 1560.21 1153.56 1566.83 1144.28 1568.88" stroke="#B0571E" stroke-width="8" stroke-linecap="round"/>
<path d="M1160.48 1571.85C1181.32 1581.55 1217.13 1595.67 1230.6 1611.71C1244.69 1628.5 1243.34 1633.5 1245.91 1639.02" stroke="#B0571E" stroke-width="8" stroke-linecap="round"/>
<path d="M1171.3 1492.06C1159.5 1505.7 1133.27 1532.15 1111.55 1541.65C1089.83 1551.14 1046.52 1556.3 1032.64 1558.07" stroke="#B0571E" stroke-width="8" stroke-linecap="round"/>
<path d="M1049.48 1557.57C1068.32 1560.56 1119.85 1575.01 1137.23 1590.05C1154.61 1605.1 1177.8 1628.66 1187.23 1638.55" stroke="#B0571E" stroke-width="8" stroke-linecap="round"/>
<path d="M954.671 1582.62C969.286 1576.57 1029.11 1584.94 1052.41 1596.5C1075.39 1607.89 1102.42 1617.85 1115.92 1638.58" stroke="#B0571E" stroke-width="8" stroke-linecap="round"/>
<path d="M1093.64 1478.28C1081.88 1492.24 1053.31 1523.19 1033.16 1535.22C1013 1547.26 985.906 1563.49 974.877 1570.1" stroke="#B0571E" stroke-width="8" stroke-linecap="round"/>
<path d="M865.885 1641.4C880.407 1634.54 928.865 1618.93 968.602 1620.76C1001.53 1622.28 1027.91 1635.7 1048.69 1646.38" stroke="#B0571E" stroke-width="8" stroke-linecap="round"/>
<path d="M908.288 1610.79C915.218 1602.23 935.707 1576.68 941.596 1547.3C947.485 1517.91 944.018 1502.9 941.593 1501.73" stroke="#B0571E" stroke-width="8" stroke-linecap="round"/>
<path d="M1017.23 1479.86C1017.21 1487.3 1016.24 1503.25 1006.5 1519.41C995.617 1537.44 959.677 1572.67 948.637 1585.26" stroke="#B0571E" stroke-width="8" stroke-linecap="round"/>
<path d="M792.315 1562.67C797.354 1577.27 802.041 1608.27 780.475 1615.43C758.909 1622.58 721.803 1624.17 703.339 1624.37" stroke="#B0571E" stroke-width="8" stroke-linecap="round"/>
<path d="M686.125 1617.16C694.365 1624.45 707.063 1642.85 713.14 1654.26C719.218 1665.68 718.934 1672.34 719.973 1676.74" stroke="#B0571E" stroke-width="8" stroke-linecap="round"/>
<path d="M603.27 1567.62C613.176 1577.14 633.86 1598.21 637.338 1606.34C641.883 1616.96 654.713 1634.7 657.877 1642.25" stroke="#B0571E" stroke-width="8" stroke-linecap="round"/>
<path d="M572.814 1546.43C582.011 1551.34 613.22 1563.27 633.739 1561.67C654.259 1560.06 668.696 1557.94 673.35 1557.07" stroke="#B0571E" stroke-width="8" stroke-linecap="round"/>
<path d="M536.596 1521.06C547.575 1532.23 569.524 1556.32 569.489 1563.3C569.454 1570.29 585.44 1586.98 589.141 1591.56" stroke="#B0571E" stroke-width="8" stroke-linecap="round"/>
<path opacity="0.2" d="M832.742 1706.33C707.657 1720.83 509.061 1544.78 428.99 1431.25C506.957 1471.98 673.386 1556.49 715.366 1568.68C767.841 1583.93 888.576 1513.69 988.288 1480.8C1088 1447.9 1293.2 1523 1330.5 1516.74C1367.81 1510.47 1325.27 1453.35 1388.96 1401.37C1424.96 1371.98 1478.21 1381.97 1504.9 1362.71C1549.75 1330.36 1528.36 1255.28 1566.37 1200.45C1590.47 1165.69 1646.96 1158.3 1650.25 1140.3C1659.29 1090.78 1712.17 1073.01 1734.08 1043.32C1755.99 1013.63 1736.02 932.561 1742.14 912.46C1748.26 892.358 1787.57 994.454 1794.8 1075.06C1802.04 1155.67 1745.57 1197.12 1715.63 1212.23C1685.69 1227.33 1697.81 1350.04 1671.33 1413.22C1644.86 1476.4 1530.15 1544 1492.85 1550.27C1455.55 1556.53 1436.45 1610.46 1375.09 1627.92C1283.05 1654.11 1170.68 1636.11 1071.02 1647.67C1006.4 1655.16 993.539 1687.68 832.742 1706.33Z" fill="url(#paint6_linear_68_191)"/>
<path d="M1234 1552C1197.2 1548.8 1159.33 1590 1145 1611L1181 1680L1343 1715L1454 1611C1487 1587.67 1562.8 1521.8 1602 1445C1641.2 1368.2 1595.67 1277.67 1568 1242C1567.33 1264.33 1562.4 1314.6 1548 1337C1530 1365 1520 1393 1474 1401C1428 1409 1397 1498 1383 1516C1369 1534 1280 1556 1234 1552Z" fill="#B89D1F"/>
<path d="M1578.43 1267.84C1578.06 1266.23 1576.46 1265.21 1574.84 1265.57C1573.23 1265.94 1572.21 1267.54 1572.57 1269.16L1578.43 1267.84ZM1569 1400L1566.94 1397.82L1569 1400ZM1471 1485L1473.34 1486.87L1471 1485ZM1391 1586L1390.72 1583.01L1391 1586ZM1572.57 1269.16C1577.07 1289.12 1582.18 1315.36 1582.83 1339.73C1583.47 1364.32 1579.52 1385.98 1566.94 1397.82L1571.06 1402.18C1585.68 1388.42 1589.48 1364.33 1588.82 1339.57C1588.17 1314.59 1582.93 1287.88 1578.43 1267.84L1572.57 1269.16ZM1566.94 1397.82C1550.09 1413.68 1532.77 1426.04 1515.92 1439C1499.13 1451.91 1482.89 1465.33 1468.66 1483.13L1473.34 1486.87C1487.11 1469.67 1502.87 1456.59 1519.58 1443.75C1536.23 1430.96 1553.91 1418.32 1571.06 1402.18L1566.94 1397.82ZM1468.66 1483.13C1464.28 1488.59 1459.47 1497.57 1454.24 1507.64C1448.95 1517.85 1443.12 1529.39 1436.61 1540.4C1430.1 1551.42 1423.01 1561.73 1415.27 1569.49C1407.51 1577.26 1399.36 1582.2 1390.72 1583.01L1391.28 1588.99C1401.87 1587.99 1411.26 1582 1419.51 1573.73C1427.78 1565.45 1435.17 1554.63 1441.78 1543.45C1448.39 1532.26 1454.32 1520.52 1459.57 1510.41C1464.88 1500.17 1469.42 1491.78 1473.34 1486.87L1468.66 1483.13ZM1390.72 1583.01C1305.19 1591.06 1250.14 1618.01 1215.42 1644.75C1180.7 1671.49 1166.46 1697.91 1162.45 1704.43L1167.55 1707.57C1171.54 1701.09 1185.3 1675.51 1219.08 1649.5C1252.86 1623.49 1306.81 1596.94 1391.28 1588.99L1390.72 1583.01Z" fill="#FFEE8A"/>
<path d="M1606 1322C1605.67 1333.5 1603.3 1359.1 1596.5 1369.5C1589.7 1379.9 1575.17 1394.17 1571 1398" stroke="#FFEE8A" stroke-width="6" stroke-linecap="round"/>
<path d="M1556 1331.5C1561 1361.5 1556 1374 1549.5 1389.5C1539.34 1413.73 1534.5 1422.5 1527.5 1434" stroke="#FFEE8A" stroke-width="6" stroke-linecap="round"/>
<path d="M1516 1387.5C1510 1420 1495.5 1424.5 1483 1444.5C1469.07 1466.78 1468.5 1475 1466 1491" stroke="#FFEE8A" stroke-width="6" stroke-linecap="round"/>
<path d="M1453 1416C1447 1448.5 1441.57 1450.54 1444 1474C1447 1503 1444 1513 1444 1530" stroke="#FFEE8A" stroke-width="6" stroke-linecap="round"/>
<path d="M1414 1470C1400 1501 1402.42 1520.56 1403.5 1530.5C1405.5 1549 1417.59 1554 1417.59 1571" stroke="#FFEE8A" stroke-width="6" stroke-linecap="round"/>
<path d="M1377 1527C1365 1540.5 1368.5 1541 1359 1559.5C1347.8 1581.31 1326.5 1577 1326.5 1594" stroke="#FFEE8A" stroke-width="6" stroke-linecap="round"/>
<path d="M1312.5 1547C1300.5 1560.5 1298 1567 1288.5 1585.5C1277.3 1607.31 1256 1603 1256 1620" stroke="#FFEE8A" stroke-width="6" stroke-linecap="round"/>
<path d="M1233 1555.5C1221 1569 1234.5 1588.5 1225 1607C1213.8 1628.81 1205 1639.5 1205 1656.5" stroke="#FFEE8A" stroke-width="6" stroke-linecap="round"/>
<path d="M1180 1577.5C1168 1591 1179 1615.5 1169.5 1634C1158.3 1655.81 1180 1661 1180 1678" stroke="#FFEE8A" stroke-width="6" stroke-linecap="round"/>
<path d="M1612.5 1402.5C1584 1437 1572 1435.44 1560.5 1439C1539.5 1445.5 1525 1437 1509.5 1447.5" stroke="#FFEE8A" stroke-width="6" stroke-linecap="round"/>
<path d="M1580.5 1471.5C1539.5 1477.5 1521.27 1494.94 1509.77 1498.5C1488.77 1505 1474.27 1496.5 1458.77 1507" stroke="#FFEE8A" stroke-width="6" stroke-linecap="round"/>
<path d="M1540.5 1526.5C1506 1546.5 1484.46 1553.44 1472.96 1557C1451.96 1563.5 1439.5 1554.5 1424 1565" stroke="#FFEE8A" stroke-width="6" stroke-linecap="round"/>
<path d="M1490.5 1577C1456 1597 1454.42 1584 1435 1592C1409.5 1602.5 1394 1598 1363 1590" stroke="#FFEE8A" stroke-width="6" stroke-linecap="round"/>
<path d="M1438.5 1621C1404 1641 1378.92 1619 1359.5 1627C1334 1637.5 1325.24 1600 1293 1606.5" stroke="#FFEE8A" stroke-width="6" stroke-linecap="round"/>
<path d="M1394.5 1658.54C1360 1678.54 1316.94 1650.55 1297.52 1658.54C1272.02 1669.04 1263.27 1631.54 1231.02 1638.04" stroke="#FFEE8A" stroke-width="6" stroke-linecap="round"/>
<path d="M1365.5 1690.5C1331 1710.5 1287.94 1682.5 1268.52 1690.5C1243.02 1701 1223.26 1666.84 1191.02 1673.35" stroke="#FFEE8A" stroke-width="6" stroke-linecap="round"/>
<path d="M1234 1552C1197.2 1548.8 1159.33 1590 1145 1611L1181 1680L1343 1715L1454 1611C1487 1587.67 1562.8 1521.8 1602 1445C1641.2 1368.2 1595.67 1277.67 1568 1242C1567.33 1264.33 1562.4 1314.6 1548 1337C1530 1365 1520 1393 1474 1401C1428 1409 1397 1498 1383 1516C1369 1534 1280 1556 1234 1552Z" fill="url(#paint7_linear_68_191)"/>
<path d="M818 1795C698 1795 529.333 1589.67 466 1463C535.333 1514.33 683.6 1621.4 722 1639C770 1661 892 1603 990 1581C1088 1559 1274 1661 1310 1659C1346 1657 1312 1593 1378 1547C1415.3 1521 1464.61 1537.67 1492 1521C1538 1493 1526 1413 1568 1361C1594.63 1328.03 1648.91 1327.17 1654 1309C1668 1259 1720 1247 1744 1219C1768 1191 1758 1105 1766 1085C1774 1065 1800 1175 1798 1259C1796 1343 1738 1379 1708 1391C1678 1403 1676 1531 1644 1593C1612 1655 1496 1711 1460 1713C1424 1715 1400 1768.33 1340 1779C1250 1795 1145.6 1763 1050 1763C988 1763 972.26 1795 818 1795Z" fill="#5D8016"/>
<path d="M738 1647.5C734.833 1655.17 729.491 1661.61 715.5 1665C699 1669 666.167 1657.5 645.5 1650" stroke="#78A51C" stroke-width="8" stroke-linecap="round"/>
<path d="M771.5 1732.5C775 1737.17 786.9 1754 790.5 1762C794.1 1770 797.333 1783.67 798.5 1789.5" stroke="#78A51C" stroke-width="8" stroke-linecap="round"/>
<path d="M857.5 1624.5C861.667 1642.67 865.446 1673.94 852 1695C837 1718.5 808.333 1728.67 795.5 1737.5" stroke="#78A51C" stroke-width="8" stroke-linecap="round"/>
<path d="M799 1737C815 1742 840.7 1741.4 859.5 1755C878.3 1768.6 895.333 1781.33 901.5 1786" stroke="#78A51C" stroke-width="8" stroke-linecap="round"/>
<path d="M1403 1544C1404 1552.17 1407.9 1572 1405.5 1586C1403.1 1600 1381.33 1650.17 1373 1670.5" stroke="#78A51C" stroke-width="8" stroke-linecap="round"/>
<path d="M507 1508C585 1604 763.4 1783.4 853 1733C965 1670 983 1653 1059 1673C1135 1693 1266.24 1731.75 1308 1720C1372 1702 1400 1604.96 1455 1611C1546 1621 1575.42 1546.49 1592 1516C1623 1459 1566 1404 1705 1320C1787 1270.45 1780.5 1154 1773 1115.5" stroke="#78A51C" stroke-width="8" stroke-linecap="round"/>
<path d="M1732 1242.5C1732 1250.42 1729.69 1258.7 1728.16 1266.34C1725.65 1278.84 1723.43 1291.92 1717.51 1303.37C1714.06 1310.05 1709.5 1315.13 1704.4 1320.5" stroke="#78A51C" stroke-width="5" stroke-linecap="round"/>
<path d="M1791.2 1228.1C1791.2 1228.86 1791.18 1229.59 1790.8 1230.28C1783.67 1243.38 1774.77 1256.09 1765.42 1267.66C1758.56 1276.15 1751.92 1281.86 1742.8 1287.3" stroke="#78A51C" stroke-width="5" stroke-linecap="round"/>
<path d="M1668.5 1344C1672.93 1341.78 1688.72 1335.92 1693.42 1334.32C1708.48 1329.2 1723.68 1324.27 1739.31 1321.21C1747.45 1319.62 1755.54 1319.41 1763.78 1319.1C1768.12 1318.94 1772.46 1318.9 1776.8 1318.9" stroke="#78A51C" stroke-width="5" stroke-linecap="round"/>
<path d="M1616.5 1404C1616.42 1404.61 1616.14 1403.68 1617.01 1402.69C1623.04 1395.86 1633.77 1390.14 1641.03 1385.4C1657.04 1374.96 1672.58 1366.18 1691.08 1361.29C1704.58 1357.72 1718.39 1354.81 1732.3 1353.42C1735.38 1353.11 1738.37 1353.17 1741.43 1352.62C1745.81 1351.84 1750.46 1351.2 1754.9 1351.2" stroke="#78A51C" stroke-width="5" stroke-linecap="round"/>
<path d="M1620.5 1335.2C1620.71 1338.98 1621.68 1342.61 1621.79 1346.62C1622.17 1360.53 1621.7 1374.43 1619.26 1388.16C1617.92 1395.65 1615.37 1401.78 1612.9 1408.8" stroke="#78A51C" stroke-width="5" stroke-linecap="round"/>
<path d="M1688.1 1264.4C1688.02 1265.92 1687.26 1267.77 1686.9 1269.11C1682.25 1286.52 1678.67 1304.72 1671.43 1321.29C1666.01 1333.71 1659.33 1346.57 1651.06 1357.38C1645.14 1365.11 1637.88 1371.66 1630.9 1378.4" stroke="#78A51C" stroke-width="5" stroke-linecap="round"/>
<path d="M1569 1368C1575.67 1375.5 1585 1402.5 1585 1419C1585 1432.6 1590.33 1488 1593 1511.5" stroke="#78A51C" stroke-width="8" stroke-linecap="round"/>
<path d="M1688 1407C1672.67 1412.67 1651 1425.5 1639 1437.5C1627 1449.5 1607.33 1472 1602.5 1481" stroke="#78A51C" stroke-width="8" stroke-linecap="round"/>
<path d="M1537 1451C1544 1459 1555 1475.5 1559.5 1497.5C1563.28 1515.99 1559 1552 1551.5 1576.5" stroke="#78A51C" stroke-width="8" stroke-linecap="round"/>
<path d="M1473 1612.5C1499.5 1615.5 1537.5 1624.5 1554.5 1624.5C1581.96 1624.5 1614 1614.5 1631 1604" stroke="#78A51C" stroke-width="8" stroke-linecap="round"/>
<path d="M1508 1516C1510.67 1529.17 1511.79 1550.95 1508 1561.5C1496.5 1593.5 1470.67 1598 1456 1610.5" stroke="#78A51C" stroke-width="8" stroke-linecap="round"/>
<path d="M1661 1520C1650.5 1524 1632 1530.5 1612.5 1540C1598.77 1546.69 1560 1575 1542.5 1587.5" stroke="#78A51C" stroke-width="8" stroke-linecap="round"/>
<path d="M1361.5 1684C1381 1674.67 1413 1660 1449 1652C1485.74 1643.84 1545.5 1662.17 1564.5 1661.5" stroke="#78A51C" stroke-width="8" stroke-linecap="round"/>
<path d="M1330 1711C1343.83 1704.67 1388.94 1700 1400 1700C1416.5 1700 1459.33 1699.67 1489.5 1700" stroke="#78A51C" stroke-width="8" stroke-linecap="round"/>
<path d="M1337.5 1618.5C1336.17 1637.5 1324.73 1675.06 1308.5 1686.5C1278 1708 1246 1709.83 1224.5 1714" stroke="#78A51C" stroke-width="8" stroke-linecap="round"/>
<path d="M1296 1722C1304.83 1721.83 1332.5 1725.7 1350.5 1732.5C1368.5 1739.3 1386.33 1745.33 1393 1747.5" stroke="#78A51C" stroke-width="8" stroke-linecap="round"/>
<path d="M1181.5 1705.5C1211 1705.5 1249.92 1736.87 1264 1746.5C1283 1759.5 1287.67 1771.17 1294.5 1777" stroke="#78A51C" stroke-width="8" stroke-linecap="round"/>
<path d="M1232 1641C1219.5 1650.5 1193.7 1668.6 1176.5 1677C1159.3 1685.4 1137 1689.5 1128 1690.5" stroke="#78A51C" stroke-width="8" stroke-linecap="round"/>
<path d="M1143 1695.5C1161.67 1708 1194.02 1726.85 1205 1745C1216.5 1764 1214.67 1769 1216.5 1775" stroke="#78A51C" stroke-width="8" stroke-linecap="round"/>
<path d="M1162 1614.5C1149.33 1627.17 1121.6 1651.3 1100 1658.5C1078.4 1665.7 1036.83 1665.83 1023.5 1666" stroke="#78A51C" stroke-width="8" stroke-linecap="round"/>
<path d="M1039.5 1667.5C1057 1672.83 1104.2 1693.9 1119 1711.5C1133.8 1729.1 1153.17 1756.17 1161 1767.5" stroke="#78A51C" stroke-width="8" stroke-linecap="round"/>
<path d="M947 1682C961.5 1677.5 1017.21 1693.3 1038 1708C1058.5 1722.5 1083 1736 1093.5 1759" stroke="#78A51C" stroke-width="8" stroke-linecap="round"/>
<path d="M1090 1591C1077.33 1604 1046.9 1632.5 1026.5 1642.5C1006.1 1652.5 978.667 1666 967.5 1671.5" stroke="#78A51C" stroke-width="8" stroke-linecap="round"/>
<path d="M856.5 1732C871 1726.67 918.584 1716.36 956 1723C987 1728.5 1010.5 1745.5 1029 1759" stroke="#78A51C" stroke-width="8" stroke-linecap="round"/>
<path d="M900 1705.5C907.5 1697.5 929.7 1673.6 938.5 1644C947.3 1614.4 945.667 1598.5 943.5 1597" stroke="#78A51C" stroke-width="8" stroke-linecap="round"/>
<path d="M1017.5 1583.5C1016.67 1591.17 1014 1607.5 1003 1623C990.722 1640.3 952.833 1672.33 941 1684" stroke="#78A51C" stroke-width="8" stroke-linecap="round"/>
<path d="M795.5 1642C798.667 1657.67 799.7 1690.2 778.5 1695C757.3 1699.8 722 1697 704.5 1695" stroke="#78A51C" stroke-width="8" stroke-linecap="round"/>
<path d="M689 1685.5C696 1694 706 1714.5 710.5 1727C715 1739.5 714 1746.33 714.5 1751" stroke="#78A51C" stroke-width="8" stroke-linecap="round"/>
<path d="M616 1624.5C624.333 1635.5 641.6 1659.7 644 1668.5C647.136 1680 657.333 1699.83 659.5 1708" stroke="#78A51C" stroke-width="8" stroke-linecap="round"/>
<path d="M589.5 1599C597.667 1605.17 625.9 1621.2 645.5 1622C665.1 1622.8 679 1622.33 683.5 1622" stroke="#78A51C" stroke-width="8" stroke-linecap="round"/>
<path d="M558 1568.5C567.167 1581.33 585.3 1608.8 584.5 1616C583.7 1623.2 597 1642.33 600 1647.5" stroke="#78A51C" stroke-width="8" stroke-linecap="round"/>
<path d="M818 1795C698 1795 529.333 1589.67 466 1463C535.333 1514.33 683.6 1621.4 722 1639C770 1661 892 1603 990 1581C1088 1559 1274 1661 1310 1659C1346 1657 1312 1593 1378 1547C1415.3 1521 1464.61 1537.67 1492 1521C1538 1493 1526 1413 1568 1361C1594.63 1328.03 1648.91 1327.17 1654 1309C1668 1259 1720 1247 1744 1219C1768 1191 1758 1105 1766 1085C1774 1065 1800 1175 1798 1259C1796 1343 1738 1379 1708 1391C1678 1403 1676 1531 1644 1593C1612 1655 1496 1711 1460 1713C1424 1715 1400 1768.33 1340 1779C1250 1795 1145.6 1763 1050 1763C988 1763 972.26 1795 818 1795Z" fill="url(#paint8_linear_68_191)"/>
<path d="M796.397 189.494C815.68 192.534 835.71 208.561 826.369 210.5C814.143 213.038 800.857 223.069 784 222.721C763.09 222.289 757.335 210.301 758.811 200.94C760.287 191.578 777.115 186.454 796.397 189.494Z" fill="#5D8016"/>
<path d="M804.935 229.893C818.57 232.043 826.129 239.732 826.129 244.746C826.129 248.643 826.129 253.388 796.169 253.388C781.383 253.082 777.313 244.606 778.357 237.986C779.4 231.366 791.3 227.743 804.935 229.893Z" fill="#5D8016"/>
<path d="M789.658 267.731C802.045 269.685 808.921 276.604 808.929 281.11C808.935 284.611 808.943 288.873 781.734 288.826C768.305 288.528 764.596 280.906 765.533 274.961C766.471 269.015 777.272 265.778 789.658 267.731Z" fill="#5D8016"/>
<path d="M851.818 292.374C838.532 286.262 827.383 288.533 824.463 292.901C822.193 296.296 819.43 300.428 845.873 317.973C859.101 326.365 867.629 321.365 870.563 314.988C873.497 308.61 865.104 298.486 851.818 292.374Z" fill="#5D8016"/>
<path d="M869.634 298.997C858.872 289.094 856.67 277.931 859.574 273.553C861.832 270.15 864.58 266.008 890.962 283.643C903.805 292.613 902.479 302.409 897.726 307.575C892.972 312.741 880.395 308.9 869.634 298.997Z" fill="#5D8016"/>
<path d="M920.953 285.113C915.306 274.619 918.615 264.345 923.585 260.906C927.447 258.233 932.148 254.979 949.237 274.796C957.367 284.786 951.288 293.293 944.133 297.143C936.977 300.993 926.599 295.607 920.953 285.113Z" fill="#5D8016"/>
<path d="M960.673 283.272C956.121 274.813 958.788 266.532 962.794 263.759C965.907 261.605 969.697 258.982 983.471 274.956C990.025 283.009 985.125 289.865 979.357 292.969C973.589 296.072 965.224 291.731 960.673 283.272Z" fill="#5D8016"/>
<path d="M1015.09 272.043C1006.87 273.288 991.969 266.366 996.695 265.184C996.695 265.184 993.763 257.318 1012.64 247.899C1022.05 243.529 1033.28 250.646 1034.87 257C1036.46 263.354 1031.87 269.5 1015.09 272.043Z" fill="#5D8016"/>
<path d="M853.077 246.04C840.269 254.723 828.963 255.354 825.717 252.126C823.194 249.617 820.123 246.563 845.208 224.444C857.785 213.725 866.68 216.176 870.091 221.208C873.502 226.24 865.885 237.358 853.077 246.04Z" fill="#5D8016"/>
<path d="M849.068 189.329C847.822 205.957 839.4 215.822 833.433 216.321C828.796 216.709 823.151 217.182 820.267 181.114C819.208 163.284 828.902 157.54 836.879 158.138C844.857 158.736 850.314 172.7 849.068 189.329Z" fill="#5D8016"/>
<path d="M1017.21 187.478C1015.84 205.727 1006.6 216.553 1000.05 217.101C994.965 217.526 988.77 218.044 985.605 178.463C984.442 158.896 995.081 152.593 1003.84 153.249C1012.59 153.905 1018.58 169.23 1017.21 187.478Z" fill="#5D8016"/>
<path d="M1040.62 150.276C1034.58 167.549 1038.72 181.167 1044.51 184.287C1049 186.712 1054.47 189.664 1073.2 154.648C1082.09 137.178 1074.86 127.147 1066.57 124.249C1058.28 121.35 1046.67 133.003 1040.62 150.276Z" fill="#5D8016"/>
<path d="M1108.87 124.889C1096.79 138.634 1095.52 152.812 1099.72 157.873C1102.97 161.807 1106.94 166.596 1137.43 141.161C1152.22 128.3 1149.28 116.289 1142.69 110.494C1136.09 104.698 1120.95 111.143 1108.87 124.889Z" fill="#5D8016"/>
<path d="M1183.37 122C1173.38 133.366 1177.29 149.669 1180.75 153.854C1183.45 157.106 1194.8 155.641 1208.87 143.412C1221.1 132.778 1219.8 114.412 1208.87 107.412C1201.87 102.93 1193.36 110.634 1183.37 122Z" fill="#5D8016"/>
<path d="M1159.37 193.5C1149.87 185 1146.73 167.479 1149.87 163.046C1152.31 159.602 1177.93 169.278 1192.87 180.422C1202.37 187.506 1198.37 198.787 1194.51 201.688C1187.86 206.682 1180.6 212.5 1159.37 193.5Z" fill="#5D8016"/>
<path d="M1085.82 199.648C1080.97 192.5 1077.68 178.039 1080.97 173.745C1083.52 170.408 1112.87 167.5 1122.37 179C1128.2 186.064 1125.47 198.33 1122.37 202C1116.87 208.5 1099.12 219.236 1085.82 199.648Z" fill="#5D8016"/>
<path d="M1038.99 235.786C1030.01 230.739 1018.66 218.121 1019.73 212.804C1020.56 208.673 1049.59 195.075 1065.8 202.572C1075.76 207.176 1079.63 219.911 1078.41 224.565C1076.23 232.807 1063.6 249.617 1038.99 235.786Z" fill="#5D8016"/>
<path d="M1271.52 139.557C1250.55 140.987 1238.08 155.565 1237.26 161C1236.62 165.223 1240.87 182.5 1273.37 179.5C1302.37 176.822 1317.37 163.5 1310.69 146.432C1307.63 138.61 1292.49 138.127 1271.52 139.557Z" fill="#5D8016"/>
<path d="M1531.37 717C1535.37 681.5 1512.95 653 1504.37 653C1498.87 653 1482.76 645.924 1466.3 694.138C1451.61 737.159 1474.37 755.28 1489.37 756C1502.46 756.629 1527.82 748.5 1531.37 717Z" fill="#5D8016"/>
<path d="M1771.45 969.814C1777.98 927.463 1756.94 895.213 1748.15 895.798C1742.51 896.174 1726.47 888.887 1706.31 947.158C1688.31 999.154 1710.41 1019.08 1725.73 1018.91C1739.12 1018.76 1765.66 1007.39 1771.45 969.814Z" fill="#5D8016"/>
<path d="M1368.85 465.967C1361.32 431.045 1330.99 411.181 1322.85 413.917C1317.64 415.671 1300.11 414.101 1299.89 465.047C1299.68 510.506 1327.03 520.423 1341.48 516.324C1354.09 512.744 1375.53 496.955 1368.85 465.967Z" fill="#5D8016"/>
<path d="M1477.88 637.88C1486.1 618.264 1478.06 598.227 1473.16 596.791C1470.02 595.87 1461.99 589.131 1444.52 613.926C1428.93 636.051 1438.9 650.215 1447.35 653.137C1454.73 655.688 1470.58 655.286 1477.88 637.88Z" fill="#5D8016"/>
<path d="M1283.26 412.061C1292.59 390.962 1285.15 370.113 1280.15 368.804C1276.95 367.965 1268.96 361.18 1249.87 388.152C1232.84 412.22 1242.52 426.774 1251.11 429.503C1258.62 431.886 1274.98 430.783 1283.26 412.061Z" fill="#5D8016"/>
<path d="M1303.48 335.051C1280.7 336.692 1267.02 349.589 1268.56 353.465C1269.55 355.95 1268.05 363.916 1300.97 366.67C1330.35 369.127 1337.52 357.084 1335.27 350.238C1333.31 344.26 1323.7 333.595 1303.48 335.051Z" fill="#5D8016"/>
<path d="M1252.48 289.051C1229.7 290.692 1216.02 303.589 1217.56 307.465C1218.55 309.95 1217.05 317.916 1249.97 320.67C1279.35 323.127 1286.52 311.084 1284.27 304.238C1282.31 298.26 1272.7 287.595 1252.48 289.051Z" fill="#5D8016"/>
<path d="M1163.1 244.012C1146.34 247.245 1135.38 260.262 1136.87 263C1137.82 264.756 1139.37 268.556 1164.03 267.685C1186.04 266.908 1190.29 257.341 1188.02 252.463C1186.03 248.203 1177.96 241.143 1163.1 244.012Z" fill="#5D8016"/>
<path d="M1108.22 292.154C1113.92 275.848 1132.39 266.518 1135.98 268.337C1138.28 269.503 1143.3 271.511 1140.17 295.996C1137.38 317.844 1122.29 323.866 1115.87 321C1110.26 318.497 1103.17 306.623 1108.22 292.154Z" fill="#5D8016"/>
<path d="M1224.31 360.432C1226.85 336.231 1216.61 319.808 1212.5 320.814C1209.87 321.459 1202.27 318.617 1193.53 352.778C1185.73 383.259 1196.31 392.704 1203.49 391.427C1209.75 390.312 1222.05 381.905 1224.31 360.432Z" fill="#5D8016"/>
<path d="M1182.09 324.743C1187.63 300.803 1176.18 280.876 1170.87 280.639C1167.46 280.487 1158.08 275.249 1143.72 307.459C1130.91 336.201 1143.46 349.105 1152.69 350.007C1160.76 350.794 1177.17 345.986 1182.09 324.743Z" fill="#5D8016"/>
<path d="M1212.82 257.335C1188.52 258.911 1173.96 272.12 1175.61 276.118C1176.67 278.682 1175.09 286.875 1210.23 289.875C1241.58 292.551 1249.2 280.188 1246.78 273.129C1244.67 266.965 1234.38 255.937 1212.82 257.335Z" fill="#5D8016"/>
<path d="M1536.35 599.844C1517.52 589.956 1496.86 596.238 1495.01 600.998C1493.82 604.051 1486.42 611.461 1509.61 631.01C1530.31 648.455 1545.28 639.74 1548.92 631.574C1552.1 624.443 1553.07 608.619 1536.35 599.844Z" fill="#5D8016"/>
<path d="M1792.37 869.5C1777.76 854.242 1760.98 846.31 1758.37 850.001C1756.69 852.367 1746.89 871.534 1763.37 897C1778.07 919.724 1793.4 911.394 1798.29 905.217C1802.56 899.824 1805.33 883.039 1792.37 869.5Z" fill="#5D8016"/>
<path d="M1785.75 789.778C1768.68 782.685 1752.44 782.231 1751.64 786.108C1751.13 788.594 1750.01 807.407 1772.18 822.024C1791.96 835.067 1801.32 822.996 1803.07 816.326C1804.59 810.501 1800.91 796.071 1785.75 789.778Z" fill="#5D8016"/>
<path d="M1763.85 707.376C1743.75 699.028 1724.64 698.494 1723.7 703.057C1723.1 705.983 1721.79 728.126 1747.88 745.33C1771.16 760.681 1782.17 746.474 1784.23 738.623C1786.02 731.767 1781.68 714.784 1763.85 707.376Z" fill="#5D8016"/>
<path d="M1719.37 632.838C1696.69 632.781 1678.05 639.864 1678.96 644.632C1679.55 647.69 1687.08 669.546 1719.06 675.753C1747.59 681.291 1752.56 663.227 1751.42 654.845C1750.42 647.528 1739.49 632.887 1719.37 632.838Z" fill="#5D8016"/>
<path d="M1684.94 743.372C1705.5 734.344 1724.7 732.919 1725.42 737.287C1725.89 740.089 1726.15 761.441 1699.16 779.319C1675.07 795.271 1664.7 782.055 1663.01 774.559C1661.54 768.014 1666.69 751.383 1684.94 743.372Z" fill="#5D8016"/>
<path d="M1647.72 684.913C1664.17 669.623 1681.83 661.957 1683.95 665.844C1685.31 668.337 1692.59 688.413 1672.98 714.178C1655.49 737.167 1641.34 728.101 1637.28 721.578C1633.74 715.883 1633.13 698.481 1647.72 684.913Z" fill="#5D8016"/>
<path d="M1592.3 648.782C1595.71 626.193 1624.53 605.839 1627.37 609C1629.19 611.027 1647.79 633.724 1633.26 664.152C1624.84 681.79 1616.49 686.707 1605.85 686.039C1595.21 685.372 1589.21 669.218 1592.3 648.782Z" fill="#5D8016"/>
<path d="M1673.85 571.198C1653.2 561.436 1620.23 574.005 1621.27 578.128C1621.93 580.772 1630.4 608.869 1663.76 613.777C1683.1 616.621 1691.84 612.429 1697.22 603.227C1702.59 594.026 1692.54 580.031 1673.85 571.198Z" fill="#5D8016"/>
<path d="M1659.37 506C1650.23 489.415 1617.46 485.415 1616.16 488.689C1615.33 490.789 1607.38 513.779 1627.41 533.268C1639.03 544.565 1655.02 547.646 1661.37 541.5C1669.87 533.268 1667.64 521.005 1659.37 506Z" fill="#5D8016"/>
<path d="M1639.72 430.762C1623.75 426.759 1601.81 445.243 1603.12 448.011C1603.96 449.786 1613.89 468.457 1638.15 467.247C1652.22 466.545 1663.65 458.188 1663.5 450.51C1663.29 440.226 1654.17 434.384 1639.72 430.762Z" fill="#5D8016"/>
<path d="M1564.36 385.489C1548.41 388.716 1532.83 408.246 1534.79 409.515C1536.04 410.33 1550.24 418.508 1572.55 409.014C1585.48 403.511 1593.93 394.137 1591.76 389.361C1588.85 382.963 1578.79 382.57 1564.36 385.489Z" fill="#5D8016"/>
<path d="M1565.72 451.313C1569.64 435.517 1558.66 413.076 1556.68 414.3C1555.4 415.084 1541.93 424.409 1540.96 448.636C1540.39 462.68 1545.24 474.333 1550.49 474.413C1557.52 474.521 1562.18 465.603 1565.72 451.313Z" fill="#5D8016"/>
<path d="M1633.42 391.354C1626.27 375.455 1597.47 368.293 1596.13 371.094C1595.27 372.889 1586.92 392.683 1603.56 412.378C1613.21 423.795 1627.2 428.305 1633.18 423.473C1641.17 417.001 1639.89 405.738 1633.42 391.354Z" fill="#5D8016"/>
<path d="M1547.99 364.921C1540.5 357.053 1522.1 358.784 1521.89 360.707C1521.76 361.939 1520.93 375.294 1534.78 383.436C1542.8 388.155 1551.96 387.919 1554.47 383.848C1557.83 378.394 1554.76 372.039 1547.99 364.921Z" fill="#5D8016"/>
<path d="M1483.77 354.235C1483.52 343.408 1468.78 332.345 1467.33 333.623C1466.41 334.443 1456.85 343.749 1461.6 359.042C1464.36 367.906 1471.28 373.872 1475.86 372.552C1482 370.783 1484 364.03 1483.77 354.235Z" fill="#5D8016"/>
<path d="M1605.37 310.5C1586.79 322.568 1578.44 360.259 1582.37 361.5C1584.89 362.296 1624.46 373.492 1645.52 348.475C1657.73 333.974 1659.99 315.059 1652.29 308.183C1641.99 298.974 1622.18 299.582 1605.37 310.5Z" fill="#5D8016"/>
<path d="M1529.49 300.785C1518.32 318.653 1522.52 353.841 1525.96 353.256C1528.17 352.881 1562.49 345.88 1571.91 316.084C1577.37 298.812 1573.75 281.952 1565.73 279.359C1555 275.885 1539.59 284.619 1529.49 300.785Z" fill="#5D8016"/>
<path d="M1474.64 301.278C1466.31 314.615 1469.44 340.879 1472.01 340.442C1473.66 340.162 1499.27 334.936 1506.3 312.697C1510.38 299.805 1507.68 287.221 1501.69 285.286C1493.68 282.693 1482.18 289.212 1474.64 301.278Z" fill="#5D8016"/>
<path d="M1430.13 269.39C1413.13 277.242 1399.12 305.452 1401.97 306.692C1403.79 307.488 1432.72 318.987 1454.23 301.414C1466.69 291.228 1472.21 276.929 1467.51 271.099C1461.22 263.29 1445.51 262.286 1430.13 269.39Z" fill="#5D8016"/>
<path d="M1363.85 247.511C1349.74 254.025 1338.13 277.427 1340.49 278.456C1342 279.116 1366 288.655 1383.84 274.078C1394.18 265.628 1398.75 253.765 1394.86 248.929C1389.64 242.451 1376.61 241.618 1363.85 247.511Z" fill="#5D8016"/>
<path d="M1331.49 329.663C1326.41 314.985 1335.21 290.386 1337.59 291.373C1339.11 292.006 1362.63 302.683 1364.5 325.647C1365.58 338.958 1360.2 350.479 1354.02 351.024C1345.73 351.755 1336.09 342.943 1331.49 329.663Z" fill="#5D8016"/>
<path d="M1292.84 301.205C1288.3 288.097 1296.16 266.131 1298.28 267.012C1299.64 267.577 1320.64 277.112 1322.31 297.618C1323.28 309.506 1318.48 319.793 1312.95 320.28C1305.55 320.933 1296.95 313.064 1292.84 301.205Z" fill="#5D8016"/>
<path d="M1316.35 229.56C1304.08 235.024 1294.55 255.918 1296.68 256.929C1298.04 257.578 1319.59 267.025 1334.91 254.354C1343.79 247.009 1347.46 236.375 1343.85 231.853C1339.02 225.797 1327.46 224.617 1316.35 229.56Z" fill="#5D8016"/>
<path d="M1732.87 395.5C1707.87 374.5 1670.42 384.221 1670.68 387.694C1670.85 389.921 1664.06 417.512 1690.87 443.5C1707.37 459.5 1725.37 470.5 1743.87 449.5C1750.68 441.764 1750.21 410.069 1732.87 395.5Z" fill="#5D8016"/>
<path d="M1562.9 476.899C1568.49 457.971 1592.81 446.458 1594.87 449.5C1596.19 451.45 1604.37 476.9 1597.37 501.5C1592.75 517.741 1576.64 518.321 1568.81 513.485C1558.31 507.006 1557.84 494.024 1562.9 476.899Z" fill="#5D8016"/>
<path d="M1567.14 550.657C1576.28 534.072 1609.04 530.072 1610.34 533.347C1611.18 535.446 1619.13 558.436 1599.09 577.925C1587.48 589.222 1571.48 592.304 1565.14 586.157C1556.64 577.925 1558.87 565.662 1567.14 550.657Z" fill="#5D8016"/>
<path d="M1691.14 799.36C1712.62 790.44 1740.37 794.485 1741.37 799.361C1742.01 802.487 1741.87 817 1710.87 833.5C1684.56 847.502 1671.07 837.39 1668.87 829C1666.95 821.674 1672.09 807.276 1691.14 799.36Z" fill="#5D8016"/>
<path d="M1701.37 849C1732.87 845.5 1744.23 849.403 1744.92 854.01C1745.36 856.964 1745.19 879.628 1715.47 899.835C1688.95 917.865 1675.37 902.001 1673.37 895C1670.54 885.101 1661.42 853.439 1701.37 849Z" fill="#5D8016"/>
<path d="M1527.35 549.844C1508.52 539.956 1487.86 546.238 1486.01 550.998C1484.82 554.051 1477.42 561.461 1500.61 581.01C1521.31 598.455 1536.28 589.74 1539.92 581.574C1543.1 574.443 1544.07 558.619 1527.35 549.844Z" fill="#5D8016"/>
<path d="M1540.35 485.149C1524.99 470.438 1503.4 470.762 1500.3 474.824C1498.32 477.428 1490.09 498.422 1507.87 523C1524.87 546.5 1544.37 534.5 1548.37 525C1551.4 517.805 1553.98 498.204 1540.35 485.149Z" fill="#5D8016"/>
<path d="M1446.51 479.143C1463.15 465.769 1482.23 466.763 1484.15 470.689C1485.38 473.207 1488.39 493.252 1467.6 515.846C1447.71 537.449 1432.87 525.519 1431.26 516.44C1430.04 509.563 1431.75 491.01 1446.51 479.143Z" fill="#5D8016"/>
<path d="M1506.14 411.077C1485.44 406.142 1469.35 414.251 1469.52 418.291C1469.63 420.882 1476.4 438.925 1505.01 450.048C1532.37 460.683 1539.67 444.969 1536.82 436.703C1534.66 430.443 1524.5 415.456 1506.14 411.077Z" fill="#5D8016"/>
<path d="M1418.99 430.387C1432.9 414.148 1452.42 411.771 1455.21 415.339C1457 417.627 1464.41 437.04 1448.3 463.185C1432.9 488.184 1415.29 478.934 1411.69 470.184C1408.96 463.557 1406.65 444.796 1418.99 430.387Z" fill="#5D8016"/>
<path d="M1427.26 549.844C1446.09 539.956 1466.75 546.238 1468.6 550.998C1469.79 554.051 1477.19 561.461 1454 581.01C1433.3 598.455 1418.33 589.74 1414.69 581.574C1411.51 574.443 1410.55 558.619 1427.26 549.844Z" fill="#5D8016"/>
<path d="M962.527 209.24C961.16 227.489 951.918 238.315 945.369 238.862C941.869 239.155 926.683 246.762 926.685 207.262C926.687 183.762 932.866 169.5 949.368 169.5C962.527 169.5 963.895 190.992 962.527 209.24Z" fill="#5D8016"/>
<path d="M920.017 225.057C918.774 241.646 910.373 251.488 904.42 251.986C901.237 252.252 887.433 259.166 887.435 223.259C887.436 201.896 893.054 188.931 908.054 188.931C920.017 188.931 921.26 208.469 920.017 225.057Z" fill="#5D8016"/>
<path d="M773.368 337C763.768 345.8 756.667 409 756 426H789.368C793.035 409 785.368 345.8 789.368 337C794.368 326 860.368 270 870.368 266C880.368 262 956.461 251.646 1007.37 230C1051.01 211.444 1091.27 169 1112.37 169C1145.37 169 1227.37 170.5 1265.87 161C1232.37 154 1201.87 157.3 1183.87 151C1143.68 136.934 1095.37 158 1079.37 161C1063.37 164 986.368 220 964.368 230C942.368 240 882.368 245 860.368 254C842.768 261.2 820.368 278.333 811.368 286C818.702 268.667 833.168 231.2 832.368 220C831.568 208.8 824.035 201.333 820.368 199C823.035 207 826.768 227.4 820.368 245C812.368 267 807.368 270 803.368 286C799.368 302 785.368 326 773.368 337Z" fill="url(#paint9_linear_68_191)"/>
<path d="M1179.37 226C1100.97 220.4 988.702 316.333 942.369 365L955.369 372C993.036 343.333 1073.57 284 1094.37 276C1120.37 266 1155.37 276 1174.37 286C1193.37 296 1207.37 309 1215.37 328C1223.37 347 1256.37 365 1278.37 372C1295.97 377.6 1320.37 432.333 1330.37 459C1327.7 445 1321.77 415 1319.37 407C1316.37 397 1310.37 365 1278.37 352C1237.23 335.286 1217.37 301 1198.37 286C1183.17 274 1138.7 261 1118.37 256C1131.7 250.667 1161.57 240 1174.37 240C1190.37 240 1284.37 271 1310.37 276C1331.17 280 1387.04 341.667 1412.37 372C1422.04 384.333 1447.17 415.4 1470.37 441C1499.37 473 1467.37 539 1463.37 550C1459.37 561 1467.37 608 1487.37 633C1503.37 653 1494.04 698.667 1487.37 719C1494.7 703.667 1509.37 669.6 1509.37 656C1509.37 639 1495.37 596 1487.37 577C1479.37 558 1502.37 501 1501.37 480C1500.57 463.2 1468.37 411.667 1452.37 388C1491.04 399.667 1571.37 425.2 1583.37 434C1598.37 445 1592.37 483 1597.37 500C1602.37 517 1599.37 584 1607.37 596C1615.37 608 1696.37 705 1726.37 775C1750.37 831 1742.37 916.333 1735.37 952C1744.7 929.333 1764.17 879.2 1767.37 860C1771.37 836 1737.37 726 1726.37 705C1715.37 684 1649.37 608 1633.37 588C1621.63 573.329 1618.37 470 1613.37 441C1608.37 412 1486.37 377 1480.37 372C1474.37 367 1452.37 352 1441.37 352C1430.37 352 1375.37 296 1382.37 301C1389.37 306 1427.37 316 1441.37 317C1455.37 318 1474.37 343 1480.37 352C1486.37 361 1557.37 372 1613.37 377C1658.17 381 1696.7 405.333 1710.37 417C1697.37 404.667 1668.37 378.4 1656.37 372C1641.37 364 1539.37 348 1509.37 343C1479.37 338 1461.37 316 1452.37 311C1443.37 306 1418.37 301 1400.37 296C1382.37 291 1277.37 233 1179.37 226Z" fill="url(#paint10_linear_68_191)"/>
<path d="M939.869 264C922.669 260 866.702 274.333 840.869 282L855.869 261L894.369 254.5C906.036 253 931.069 250 937.869 250C946.369 250 963.369 254.5 976.869 259.5C987.669 263.5 1007.37 264.167 1015.87 264C1009.54 267.333 995.169 274 988.369 274C979.869 274 961.369 269 939.869 264Z" fill="url(#paint11_linear_68_191)"/>
</g>
<defs>
<linearGradient id="paint0_linear_68_191" x1="360" y1="1577" x2="435" y2="1508" gradientUnits="userSpaceOnUse">
<stop stop-color="#88911E"/>
<stop offset="1" stop-color="#907F1E"/>
</linearGradient>
<linearGradient id="paint1_linear_68_191" x1="203.191" y1="1466.73" x2="307.803" y2="1417.52" gradientUnits="userSpaceOnUse">
<stop stop-color="#88911E"/>
<stop offset="1" stop-color="#907F1E"/>
</linearGradient>
<linearGradient id="paint2_linear_68_191" x1="121.613" y1="1256.35" x2="266" y2="1267" gradientUnits="userSpaceOnUse">
<stop stop-color="#88911E"/>
<stop offset="1" stop-color="#85991E"/>
</linearGradient>
<linearGradient id="paint3_linear_68_191" x1="352.484" y1="1080.98" x2="259.909" y2="1192.29" gradientUnits="userSpaceOnUse">
<stop stop-color="#88911E"/>
<stop offset="1" stop-color="#85991E"/>
</linearGradient>
<linearGradient id="paint4_linear_68_191" x1="417.794" y1="1300.53" x2="314.444" y2="1401.92" gradientUnits="userSpaceOnUse">
<stop stop-color="#88911E"/>
<stop offset="1" stop-color="#85991E"/>
</linearGradient>
<linearGradient id="paint5_linear_68_191" x1="129" y1="747" x2="562" y2="1627" gradientUnits="userSpaceOnUse">
<stop offset="0.29396" stop-color="#7EA71D"/>
<stop offset="1" stop-color="#95711D"/>
</linearGradient>
<linearGradient id="paint6_linear_68_191" x1="800.047" y1="1624.79" x2="1069.11" y2="1379.15" gradientUnits="userSpaceOnUse">
<stop stop-color="#803F16"/>
<stop offset="1" stop-color="#5D8016" stop-opacity="0"/>
</linearGradient>
<linearGradient id="paint7_linear_68_191" x1="1168" y1="1715" x2="1696" y2="1287" gradientUnits="userSpaceOnUse">
<stop stop-color="#B88D1F"/>
<stop offset="1" stop-color="#B89D1F" stop-opacity="0"/>
</linearGradient>
<linearGradient id="paint8_linear_68_191" x1="796" y1="1707" x2="1816" y2="1161" gradientUnits="userSpaceOnUse">
<stop stop-color="#33624D" stop-opacity="0.79"/>
<stop offset="1" stop-color="#5D8016" stop-opacity="0"/>
</linearGradient>
<linearGradient id="paint9_linear_68_191" x1="782.369" y1="424" x2="1200.37" y2="192" gradientUnits="userSpaceOnUse">
<stop stop-color="#BF9A30"/>
<stop offset="1" stop-color="#8F6B18"/>
</linearGradient>
<linearGradient id="paint10_linear_68_191" x1="964.369" y1="398" x2="1820.37" y2="602" gradientUnits="userSpaceOnUse">
<stop stop-color="#BF9A30"/>
<stop offset="1" stop-color="#906C19"/>
</linearGradient>
<linearGradient id="paint11_linear_68_191" x1="847.369" y1="289" x2="1037.37" y2="254" gradientUnits="userSpaceOnUse">
<stop stop-color="#B28E2A"/>
<stop offset="1" stop-color="#A68124"/>
</linearGradient>
<clipPath id="clip0_68_191">
<rect width="2000" height="2000" fill="white"/>
</clipPath>
</defs>
</svg>
