<svg width="2000" height="2000" viewBox="0 0 2000 2000" fill="none" xmlns="http://www.w3.org/2000/svg">
<g clip-path="url(#clip0_1048_45)">
<path d="M85.1779 1368.47C57.1779 1608.47 537.178 1652.47 589.178 1660.47H1441.18C1533.18 1660.47 1761.18 1560.47 1845.18 1432.47C1929.18 1304.47 1809.18 1092.47 1761.18 984.475C1713.18 876.474 1934.56 800.211 1873.18 512.475C1809.18 212.475 1529.18 152.475 1301.18 212.475C1150.27 252.189 1249.18 120.475 905.18 84.4745C561.18 48.4745 493.18 416.475 337.18 460.475C181.18 504.475 85.1779 760.475 177.18 984.475C269.182 1208.47 113.178 1128.47 85.1779 1368.47Z" fill="#BECDF9"/>
<ellipse cx="1022" cy="1680.5" rx="687" ry="52.5" fill="#2E3E79"/>
<path d="M1049.83 863.456L1049.81 863.385L1049.78 863.314C1046.97 854.72 1044.73 846.664 1043.01 839.098L1038.13 840.205C1033.69 820.63 1032.61 804.099 1034.03 789.869L1039 790.364C1040.83 771.98 1047 757.717 1055.45 745.676L1051.36 742.802C1061.27 728.691 1074.15 717.536 1086.98 706.788L1090.19 710.621C1091.14 709.824 1092.09 709.028 1093.05 708.229C1105.36 697.941 1117.97 687.408 1127.5 674.629L1123.5 671.64C1132.94 658.972 1139.2 644.055 1139.24 624.337L1144.24 624.348C1144.28 609.808 1141.1 593.053 1133.86 573.267L1129.17 574.986C1124.15 561.291 1117.11 545.984 1107.66 528.758L1112.04 526.354C1108.16 519.271 1103.87 511.877 1099.17 504.15C1094.83 497.012 1091.03 489.839 1087.74 482.65L1083.19 484.729C1075.96 468.927 1071.15 453.01 1068.5 437.178L1073.43 436.352C1070.7 420.076 1070.34 403.888 1072.06 388.011L1067.09 387.472C1068.88 370.94 1072.87 354.746 1078.77 339.135L1083.44 340.902C1089.13 325.862 1096.63 311.352 1105.7 297.606L1101.52 294.854C1110.57 281.127 1121.13 268.168 1132.94 256.197L1136.5 259.708C1147.85 248.193 1160.38 237.603 1173.85 228.144L1170.98 224.052C1184.51 214.55 1198.97 206.173 1214.11 199.121L1216.22 203.654C1230.98 196.781 1246.39 191.192 1262.23 187.078L1260.97 182.239C1277 178.074 1293.47 175.389 1310.14 174.375L1310.45 179.365C1326.57 178.384 1342.87 178.997 1359.15 181.378L1359.88 176.431C1376.02 178.793 1392.15 182.859 1408.07 188.798L1406.32 193.482C1421.1 199 1435.71 206.172 1449.96 215.145L1452.63 210.913C1466.15 219.422 1479.35 229.513 1492.09 241.3L1488.7 244.971C1500.16 255.57 1511.26 267.579 1521.9 281.093L1525.83 278.001C1535.61 290.419 1544.99 304.075 1553.89 319.033L1549.59 321.59C1553.73 328.555 1557.78 335.811 1561.71 343.364C1562.42 344.724 1563.06 346.177 1563.62 347.696L1568.31 345.948C1569.54 349.266 1570.44 352.791 1570.98 356.298L1566.04 357.062C1566.29 358.688 1566.46 360.305 1566.54 361.882C1567.04 371.372 1567.64 380.541 1568.34 389.401L1573.33 389.005C1574.85 408.15 1576.85 425.826 1579.29 442.154L1574.35 442.894C1577.29 462.587 1580.87 480.373 1585.03 496.453L1589.87 495.202C1594.88 514.585 1600.72 531.406 1607.25 546.044L1602.68 548.081C1611.12 566.993 1620.74 582.432 1631.3 595.127L1635.14 591.93C1647.7 607.027 1661.53 618.009 1676.15 626.296L1673.68 630.646C1690.17 639.996 1707.53 645.972 1724.97 650.513L1726.23 645.674C1738.52 648.876 1750.97 651.381 1763.32 653.868C1768.54 654.919 1773.74 655.967 1778.91 657.062L1777.87 661.954C1795.64 665.72 1812.69 669.994 1828.53 676.825L1830.51 672.234C1846.5 679.128 1861.39 688.595 1874.51 702.621L1870.85 706.035C1881.26 717.164 1890.58 731.377 1898.4 749.871L1903 747.924C1909.15 762.476 1914.36 779.524 1918.43 799.577L1913.53 800.574C1915.21 808.813 1916.69 817.58 1917.98 826.914C1919.12 835.245 1919.67 843.369 1919.65 851.287L1924.65 851.3C1924.6 868.594 1921.94 884.994 1916.94 900.482L1912.18 898.947C1907.25 914.223 1899.96 928.617 1890.59 942.115L1894.69 944.968C1885.46 958.253 1874.29 970.656 1861.43 982.163L1858.09 978.437C1846.35 988.951 1833.14 998.73 1818.66 1007.75L1821.3 1012C1807.65 1020.51 1792.92 1028.34 1777.28 1035.47L1775.2 1030.92C1760.6 1037.59 1745.19 1043.65 1729.1 1049.1L1730.7 1053.83C1715.26 1059.06 1699.21 1063.73 1682.69 1067.82L1681.49 1062.96C1665.71 1066.87 1649.49 1070.26 1632.93 1073.11L1633.78 1078.04C1617.53 1080.84 1600.97 1083.13 1584.2 1084.9L1583.67 1079.93C1567.31 1081.66 1550.75 1082.9 1534.08 1083.64L1534.3 1088.64C1517.71 1089.38 1501.01 1089.62 1484.31 1089.37L1484.38 1084.37C1467.8 1084.12 1451.21 1083.38 1434.71 1082.15L1434.33 1087.13C1417.64 1085.88 1401.03 1084.12 1384.61 1081.85L1385.29 1076.9C1368.76 1074.62 1352.41 1071.81 1336.36 1068.48L1335.34 1073.38C1318.8 1069.95 1302.56 1065.96 1286.72 1061.41L1288.1 1056.6C1271.95 1051.97 1256.24 1046.74 1241.08 1040.93L1239.29 1045.6C1223.44 1039.52 1208.17 1032.8 1193.62 1025.43L1195.88 1020.97C1180.81 1013.34 1166.55 1005.01 1153.21 995.985L1150.41 1000.13C1136.32 990.587 1123.24 980.265 1111.35 969.152L1114.76 965.498C1102.57 954.105 1091.66 941.887 1082.21 928.838L1078.16 931.77C1068.35 918.23 1060.07 903.791 1053.51 888.441L1058.11 886.476C1054.93 879.023 1052.16 871.35 1049.83 863.456Z" stroke="#2E3E79" stroke-width="10" stroke-dasharray="50 50"/>
<path d="M203.275 733.389L203.327 733.336L203.378 733.281C209.007 727.19 214.504 721.647 219.875 716.612L216.455 712.964C229.7 700.546 242.263 691.095 254.253 684.057L256.784 688.369C271.893 679.5 285.94 674.657 299.181 672.558L298.398 667.62C315.026 664.983 330.606 666.449 345.548 669.924L344.415 674.794C359.055 678.199 373.108 683.594 387.31 689.046L388.797 689.617L390.588 684.949C405.752 690.767 420.67 696.392 435.857 699.199L434.948 704.115C450.757 707.037 467.085 707.062 484.284 701.296L482.695 696.555C495.566 692.24 508.93 684.506 523.041 672.046L526.351 675.794C536.846 666.527 547.66 654.793 558.901 640.141L554.933 637.098C563.547 625.87 572.456 612.851 581.704 597.809L585.964 600.428C589.996 593.869 594.089 586.935 598.247 579.607C602.555 572.014 607.137 564.844 611.97 558.086L607.902 555.178C618.388 540.512 630.047 527.716 642.644 516.702L645.935 520.466C658.945 509.091 672.977 499.664 687.768 492.076L685.486 487.627C700.963 479.688 717.248 473.719 734.048 469.605L735.237 474.461C751.592 470.457 768.465 468.245 785.577 467.726L785.425 462.728C802.557 462.208 819.901 463.354 837.182 466.059L836.408 470.998C853.065 473.606 869.675 477.689 885.981 483.154L887.57 478.413C903.871 483.876 919.863 490.694 935.3 498.774L932.981 503.204C948.024 511.078 962.531 520.167 976.265 530.38L979.249 526.367C993.105 536.67 1006.19 548.101 1018.27 560.569L1014.68 564.048C1026.49 576.247 1037.32 589.449 1046.95 603.565L1051.08 600.748C1060.77 614.965 1069.27 630.1 1076.34 646.069L1071.76 648.093C1078.55 663.426 1084 679.538 1087.91 696.351L1092.78 695.218C1096.61 711.686 1098.99 728.817 1099.74 746.539L1094.74 746.748C1095.43 763.222 1094.69 780.227 1092.34 797.709L1097.3 798.374C1095.09 814.864 1091.48 831.759 1086.35 849.01L1081.56 847.584C1076.88 863.3 1070.92 879.332 1063.57 895.644L1068.13 897.699C1061.34 912.759 1053.39 928.039 1044.2 943.513L1039.9 940.959C1035.56 948.269 1030.93 955.624 1026.02 963.024C1025.17 964.305 1024.21 965.573 1023.15 966.811L1026.95 970.06C1024.64 972.756 1021.99 975.258 1019.19 977.439L1016.12 973.492C1014.82 974.505 1013.48 975.437 1012.15 976.273C1005.07 980.698 998.208 985.081 991.561 989.424L994.296 993.61C980.363 1002.71 967.376 1011.63 955.278 1020.38L952.348 1016.33C938.69 1026.2 926.146 1035.87 914.638 1045.34L917.815 1049.2C904.833 1059.88 893.195 1070.3 882.784 1080.47L879.289 1076.89C866.803 1089.1 856.035 1100.98 846.795 1112.58L850.706 1115.69C839.955 1129.19 831.341 1142.25 824.539 1154.94L820.132 1152.58C811.823 1168.09 806.13 1183.09 802.515 1197.7L807.369 1198.9C803.376 1215.03 802.008 1230.6 802.451 1245.74L797.453 1245.89C797.934 1262.35 800.496 1278.25 804.108 1293.73L808.977 1292.59C812.577 1308.02 817.263 1323.14 822.035 1338.12L817.271 1339.64C817.857 1341.48 818.444 1343.31 819.029 1345.14C823.292 1358.48 827.479 1371.58 830.935 1384.71L835.77 1383.44C839.83 1398.87 842.892 1414.33 843.843 1430.04L838.852 1430.34C839.754 1445.23 838.698 1460.27 834.709 1475.67L839.549 1476.93C835.906 1491 829.896 1505.38 820.812 1520.21L816.548 1517.59C809.315 1529.4 800.04 1541.55 788.309 1554.12L791.965 1557.53C782.169 1568.03 770.725 1578.77 757.419 1589.79L754.23 1585.94C748.363 1590.8 742.125 1595.72 735.494 1600.7C728.818 1605.72 722.048 1610.21 715.194 1614.21L717.71 1618.53C702.98 1627.11 687.837 1633.44 672.387 1637.7L671.058 1632.88C655.505 1637.17 639.618 1639.29 623.5 1639.42L623.541 1644.42C607.371 1644.56 590.996 1642.73 574.523 1639.13L575.592 1634.25C560.261 1630.89 544.807 1625.95 529.322 1619.56L527.414 1624.18C512.616 1618.07 497.822 1610.67 483.11 1602.1L485.627 1597.78C471.969 1589.82 458.365 1580.82 444.88 1570.9L441.915 1574.92C428.946 1565.37 416.099 1554.98 403.431 1543.83L406.735 1540.07C394.682 1529.46 382.785 1518.15 371.093 1506.22L367.522 1509.72C356.146 1498.11 344.97 1485.92 334.037 1473.22L337.826 1469.96C327.254 1457.68 316.908 1444.91 306.827 1431.73L302.856 1434.77C292.93 1421.79 283.263 1408.41 273.894 1394.69L278.023 1391.87C268.826 1378.4 259.915 1364.6 251.328 1350.53L247.06 1353.13C238.493 1339.09 230.247 1324.78 222.358 1310.26L226.752 1307.87C218.918 1293.45 211.438 1278.82 204.347 1264.03L199.839 1266.19C192.686 1251.28 185.926 1236.2 179.597 1221.03L184.212 1219.11C177.859 1203.88 171.943 1188.55 166.499 1173.18L161.786 1174.85C156.232 1159.17 151.165 1143.45 146.626 1127.74L151.43 1126.35C146.828 1110.43 142.773 1094.52 139.305 1078.71L134.421 1079.78C130.839 1063.45 127.876 1047.21 125.578 1031.12L130.528 1030.41C128.178 1013.96 126.529 997.692 125.627 981.673L120.635 981.954C119.691 965.189 119.558 948.685 120.287 932.528L125.282 932.754C126.034 916.11 127.711 899.859 130.371 884.092L125.44 883.26C128.232 866.708 132.094 850.663 137.094 835.232L141.851 836.773C146.906 821.174 153.136 806.234 160.608 792.062L156.185 789.73C163.875 775.146 172.864 761.342 183.229 748.438L187.128 751.57C192.174 745.287 197.554 739.222 203.275 733.389Z" stroke="#2E3E79" stroke-width="10" stroke-dasharray="50 50"/>
<circle cx="1000" cy="1000" r="700" fill="#5670D8"/>
<path d="M1000 1605C1334.13 1605 1605 1334.13 1605 1000C1605 665.868 1334.13 395 1000 395C665.868 395 395 665.868 395 1000C395 1334.13 665.868 1605 1000 1605Z" fill="#627EEA" stroke="#A2B6FB" stroke-width="10"/>
<path d="M1018.7 549.918V882.559L1299.84 1008.2L1018.7 549.918Z" fill="white" fill-opacity="0.602"/>
<path d="M1018.7 549.918L737.562 1008.2L1018.7 882.559V549.918Z" fill="white"/>
<path d="M1018.7 1223.73V1449.75L1300 1060.52L1018.7 1223.73Z" fill="white" fill-opacity="0.602"/>
<path d="M1018.7 1449.75V1223.73L737.562 1060.52L1018.7 1449.75Z" fill="white"/>
<path d="M1018.7 1171.41L1299.84 1008.2L1018.7 882.559V1171.41Z" fill="white" fill-opacity="0.2"/>
<path d="M737.562 1008.2L1018.7 1171.41V882.559L737.562 1008.2Z" fill="white" fill-opacity="0.602"/>
<g style="mix-blend-mode:multiply" opacity="0.3">
<path d="M1569 1414C1463 1622 1182 1700 1005 1700C504.5 1707.5 108.001 1160 397 646C415.999 672 500.002 1204 821.001 1386C1192 1582 1569 1414 1569 1414Z" fill="#3C4F9A"/>
</g>
<path d="M1946 1689L1941.5 1685C1939.5 1687.67 1934.8 1696.3 1932 1709.5C1929.2 1722.7 1907.17 1761.33 1896.5 1779L1911.5 1780.5C1920.67 1763.67 1942.19 1729.18 1944 1721.5C1946 1713 1947 1697 1946 1689Z" fill="#5C5C5C" stroke="white" stroke-width="30"/>
<path d="M1897 1781.5L1868 1768L1887 1722C1895 1712.17 1912.4 1690.6 1918 1683C1923.6 1675.4 1935.67 1677.83 1941 1680C1941.33 1681 1941.8 1687.5 1941 1705.5C1940.2 1723.5 1911.33 1763.67 1897 1781.5Z" fill="#3A4775" stroke="white" stroke-width="30"/>
<path d="M1779 1961L1774 1953.5L1913 1895L1916.5 1900C1909.5 1909 1886.48 1924.94 1861.5 1937C1832.5 1951 1796.67 1960.17 1779 1961Z" fill="#5C5C5C" stroke="white" stroke-width="30"/>
<path d="M1767 1953L1738 1916L1786.5 1873.5C1791.33 1876.17 1802.5 1881.9 1808.5 1883.5C1816 1885.5 1884.5 1879 1895 1879.5C1903.4 1879.9 1911.5 1889 1914.5 1893.5C1906.83 1898.5 1888.5 1916 1858 1930.5C1829.04 1944.27 1786.17 1952.83 1767 1953Z" fill="#3A4775" stroke="white" stroke-width="30"/>
<path d="M1673 1600L1645 1595L1527.5 1606.5L1634 1662.5L1867.5 1775.5C1871.83 1771.33 1881.8 1760.6 1887 1751C1892.2 1741.4 1889.17 1721 1887 1712L1673 1600Z" fill="#2B2B2B" stroke="white" stroke-width="30"/>
<path d="M1781 1904C1797.8 1895.6 1806.33 1875.83 1808.5 1867L1615.5 1624L1538.5 1610H1390.5C1384 1611.17 1366.2 1615.8 1347 1625C1327.8 1634.2 1316 1673.5 1312.5 1692L1538.5 1716.5L1718.5 1918C1732.33 1916.83 1764.2 1912.4 1781 1904Z" fill="#454545" stroke="white" stroke-width="30"/>
<path d="M1325.5 1200C1305.5 1180.4 1307.17 1116.83 1310.5 1087.5C1313 1085.33 1331.1 1077.1 1383.5 1061.5C1435.9 1045.9 1492.33 1079.33 1514 1098C1514.33 1111.17 1513 1142.2 1505 1161C1495 1184.5 1458.61 1231.57 1452.5 1233.5C1444.5 1236.03 1409.77 1236.9 1383.28 1236.71C1374.26 1236.65 1365.45 1233.99 1358.27 1228.52C1349.78 1222.04 1338.1 1212.35 1325.5 1200Z" fill="#AEAEAE" stroke="white" stroke-width="30"/>
<path d="M1397 1191C1380.6 1189.8 1368.83 1185.33 1367 1183.5C1371.33 1190.33 1382 1204.5 1399 1210.5C1414.23 1215.88 1427.5 1217.5 1432 1212C1434.96 1208.38 1431.83 1206.33 1429 1204.5L1438 1203.5C1439.33 1202.33 1441.6 1199 1440 1195C1438 1190 1417.5 1192.5 1397 1191Z" fill="white" stroke="white" stroke-width="30" stroke-linecap="round"/>
<path d="M1382.5 1104.5C1364 1103 1353.5 1114 1350 1118.5C1350.67 1121.33 1355.3 1129 1368.5 1137C1381.7 1145 1400.67 1139.33 1408.5 1135.5C1406 1125.67 1397.3 1105.7 1382.5 1104.5Z" fill="white" stroke="white" stroke-width="30" stroke-linecap="round"/>
<path d="M1479.5 1132.5C1469.1 1123.3 1451.5 1130.67 1444 1135.5V1140.5C1445 1144 1443.83 1145.66 1454.5 1151C1466.5 1157 1480 1155.83 1487 1153.5C1488.83 1150.33 1489.9 1141.7 1479.5 1132.5Z" fill="white" stroke="white" stroke-width="30" stroke-linecap="round"/>
<path d="M1267 1247L1293.5 1230.5C1303.5 1247.83 1323.4 1283 1323 1285C1322.6 1287 1349.17 1311.5 1362.5 1323.5L1386 1279L1383 1247H1400.5L1445.5 1256.5C1454.67 1329 1473 1474.5 1473 1476.5C1473 1478.5 1511.33 1550.33 1530.5 1586C1485.33 1597.83 1389.2 1623.4 1366 1631C1337 1640.5 1317.5 1690.5 1310 1699C1302.5 1707.5 1277.76 1701.27 1274 1686.5C1267 1659 1216.67 1422 1192.5 1295.5L1267 1247Z" fill="#3F5BBE"/>
<path d="M1267 1247L1293.5 1230.5C1303.5 1247.83 1323.4 1283 1323 1285C1322.6 1287 1349.17 1311.5 1362.5 1323.5L1386 1279L1383 1247H1400.5M1267 1247L1310.5 1295.5L1365.5 1338L1387.5 1306.5L1405 1273L1400.5 1247M1267 1247L1192.5 1295.5C1216.67 1422 1267 1659 1274 1686.5C1277.76 1701.27 1302.5 1707.5 1310 1699C1317.5 1690.5 1337 1640.5 1366 1631C1389.2 1623.4 1485.33 1597.83 1530.5 1586C1511.33 1550.33 1473 1478.5 1473 1476.5C1473 1474.5 1454.67 1329 1445.5 1256.5L1400.5 1247" stroke="white" stroke-width="30"/>
<path d="M1275 1688C1265.33 1645.67 1248 1564.8 1248 1564L1419 1606L1404.5 1619C1395.5 1623 1381 1622.29 1354.5 1636C1339.03 1644 1318.5 1683 1309.5 1698.5C1308.67 1699.33 1307.7 1700.8 1300.5 1702C1293.3 1703.2 1279 1697 1275 1688Z" fill="#253982" stroke="white" stroke-width="30"/>
<path d="M1358.5 1235C1342.9 1229.8 1314 1203 1304 1170V1219L1288.5 1241.5L1362.5 1322.5L1382.5 1287L1378.5 1241.5C1376.5 1241.83 1374.1 1240.2 1358.5 1235Z" fill="#AEAEAE" stroke="white" stroke-width="30"/>
<path d="M1294.5 1093C1303.3 1089.8 1303 1100.5 1303 1110.5L1301.5 1163C1291.5 1155.67 1271.67 1145 1271 1129C1270.5 1117 1283.5 1097 1294.5 1093Z" fill="#AEAEAE" stroke="white" stroke-width="30"/>
<path d="M1441.5 1127C1444.83 1145.33 1451.5 1180.5 1446.5 1182C1442.67 1183.15 1428.5 1185.5 1411 1182" stroke="white" stroke-width="30" stroke-linecap="round"/>
<ellipse cx="1387.5" cy="1128.5" rx="14.5" ry="12.5" fill="black"/>
<ellipse cx="1470.5" cy="1145" rx="11.5" ry="10" fill="black"/>
<path d="M1361 1177.5C1369.17 1186.17 1390.79 1202.07 1411.5 1204C1433 1206 1438.5 1202.83 1439 1202" stroke="white" stroke-width="30" stroke-linecap="round"/>
<mask id="path-33-inside-1_1048_45" fill="white">
<path d="M1391.5 1088C1373.5 1086 1354 1095.17 1346.5 1100C1351.83 1099.33 1368.81 1098.5 1376.5 1098.5C1385 1098.5 1407.17 1105 1420 1110L1418.5 1096.5C1417 1094.5 1409.5 1090 1391.5 1088Z"/>
</mask>
<path d="M1391.5 1088C1373.5 1086 1354 1095.17 1346.5 1100C1351.83 1099.33 1368.81 1098.5 1376.5 1098.5C1385 1098.5 1407.17 1105 1420 1110L1418.5 1096.5C1417 1094.5 1409.5 1090 1391.5 1088Z" fill="#454545"/>
<path d="M1346.5 1100L1330.25 1074.78L1350.22 1129.77L1346.5 1100ZM1391.5 1088L1388.19 1117.82L1391.5 1088ZM1418.5 1096.5L1448.32 1093.19L1447.41 1085.05L1442.5 1078.5L1418.5 1096.5ZM1420 1110L1409.11 1137.95L1455.29 1155.95L1449.82 1106.69L1420 1110ZM1362.75 1125.22C1364.35 1124.19 1368.78 1121.79 1374.42 1119.94C1380.18 1118.05 1384.99 1117.46 1388.19 1117.82L1394.81 1058.18C1380.01 1056.54 1366.07 1059.53 1355.71 1062.93C1345.22 1066.38 1336.15 1070.98 1330.25 1074.78L1362.75 1125.22ZM1388.19 1117.82C1395.29 1118.61 1399.13 1119.77 1400.61 1120.32C1401.36 1120.61 1401.22 1120.63 1400.48 1120.17C1400.1 1119.94 1399.39 1119.48 1398.49 1118.73C1397.7 1118.08 1396.14 1116.69 1394.5 1114.5L1442.5 1078.5C1438.86 1073.65 1434.48 1070.64 1431.88 1069.05C1428.75 1067.12 1425.33 1065.52 1421.77 1064.18C1414.62 1061.48 1405.71 1059.39 1394.81 1058.18L1388.19 1117.82ZM1388.68 1099.81L1390.18 1113.31L1449.82 1106.69L1448.32 1093.19L1388.68 1099.81ZM1430.89 1082.05C1423.37 1079.12 1413.62 1075.93 1404.56 1073.44C1396.71 1071.29 1385.35 1068.5 1376.5 1068.5V1128.5C1375.61 1128.5 1376.26 1128.43 1379.25 1129.02C1381.81 1129.53 1385.05 1130.31 1388.69 1131.31C1396.04 1133.32 1403.79 1135.88 1409.11 1137.95L1430.89 1082.05ZM1376.5 1068.5C1368.12 1068.5 1349.8 1069.35 1342.78 1070.23L1350.22 1129.77C1353.87 1129.31 1369.5 1128.5 1376.5 1128.5V1068.5Z" fill="white" mask="url(#path-33-inside-1_1048_45)"/>
<path d="M1447 1116C1443.8 1115.6 1451.67 1107.17 1456 1103C1461.83 1103 1475.6 1104.6 1484 1111C1492.4 1117.4 1494.33 1126.5 1492.5 1129.5C1492 1128.33 1488 1121.5 1478.5 1117C1470.45 1113.19 1451 1116.5 1447 1116Z" fill="#454545" stroke="white" stroke-width="30"/>
<mask id="path-36-inside-2_1048_45" fill="white">
<rect x="1343.06" y="1097" width="79.4768" height="45" rx="15" transform="rotate(6.45837 1343.06 1097)"/>
</mask>
<rect x="1343.06" y="1097" width="79.4768" height="45" rx="15" transform="rotate(6.45837 1343.06 1097)" stroke="white" stroke-width="45" mask="url(#path-36-inside-2_1048_45)"/>
<path d="M1448.5 1162.5L1470.56 1167.85C1477.04 1169.42 1483.78 1166.52 1487.1 1160.73L1496.67 1144.04C1499.89 1138.42 1497 1131.26 1490.77 1129.46L1459.42 1120.39C1451.37 1118.07 1443.55 1124.68 1444.5 1133V1133" stroke="white" stroke-width="30"/>
<path d="M1435.5 1120.5C1430.5 1119.5 1423.67 1120.5 1420 1121.5L1419.5 1129.5C1420.83 1129 1424.3 1127 1429.5 1127C1434.7 1127 1441 1129.33 1443.5 1130.5L1445.5 1125C1443.33 1124.17 1439.42 1121.28 1435.5 1120.5Z" fill="#454545" stroke="white" stroke-width="30"/>
<path d="M1347.5 1101.5L1303 1104V1112L1341.5 1114C1341.5 1113.17 1341.7 1110.8 1342.5 1108C1343.3 1105.2 1346.17 1102.5 1347.5 1101.5Z" fill="#454545" stroke="white" stroke-width="30"/>
<path d="M1303.5 1209.5L1280 1247L1330.5 1329L1335 1305.5L1361 1321.5L1347 1260.5L1303.5 1209.5Z" fill="#7D8BBE"/>
<path d="M1335 1305.5L1361 1321.5L1347 1260.5L1303.5 1209.5L1280 1247L1330.5 1329L1335 1305.5ZM1335 1305.5L1342 1270" stroke="white" stroke-width="30"/>
<path d="M1391.87 1279.66L1390.85 1275.02L1393.28 1277.68L1391.87 1279.66Z" fill="#7D8BBE" stroke="white" stroke-width="30"/>
<path d="M1336 1306L1362.5 1322.5L1379 1290" stroke="white" stroke-width="30"/>
<path d="M1362.5 1323L1365 1337.5" stroke="white" stroke-width="30"/>
<path d="M1471.5 1261.5L1444.5 1256.5L1468.5 1440.5L1498.5 1475.5L1519.5 1478.5L1565.5 1445.5L1471.5 1261.5Z" fill="#233780" stroke="white" stroke-width="30"/>
<path d="M1521.5 1422C1487 1429 1488.5 1556.5 1488.5 1567.5L1547.5 1575L1566.5 1447C1561.67 1440 1550.81 1416.06 1521.5 1422Z" fill="#243881" stroke="white" stroke-width="30"/>
<path d="M1458.5 1558C1452.9 1555.6 1449.17 1559 1448 1561L1484 1575.5C1484.17 1574.67 1484.4 1572.7 1484 1571.5C1483.5 1570 1465.5 1561 1458.5 1558Z" fill="#AEAEAE" stroke="white" stroke-width="30"/>
<path d="M1498 1615L1385.5 1611V1618.5L1498 1623C1553.83 1612.67 1665.5 1592.1 1665.5 1592.5V1586L1498 1615Z" fill="#5C5C5C" stroke="white" stroke-width="30"/>
<path d="M1737 1441.5L1567.5 1463.5L1514 1571L1385 1610L1498.5 1614.5L1665.5 1586L1737 1441.5Z" fill="#5C5C5C"/>
<path d="M1495 1605.5L1514 1571M1514 1571L1567.5 1463.5L1737 1441.5L1665.5 1586L1498.5 1614.5L1385 1610L1514 1571Z" stroke="white" stroke-width="30"/>
<path d="M1224 1292C1205.6 1282.8 1191.67 1293.67 1188 1300.5C1184.67 1372.33 1179.7 1519 1178.5 1529C1177.3 1539 1186 1545.83 1190.5 1548L1428.5 1608.5L1437.5 1554L1251 1498L1254 1349C1251.67 1333.83 1242.4 1301.2 1224 1292Z" fill="#3F5BBE" stroke="white" stroke-width="30"/>
<path d="M1454.86 1619.41L1454.86 1619.41L1454.86 1619.41ZM1454.86 1619.41L1454.86 1619.41L1454.86 1619.41ZM1441.85 1559.26C1442.43 1559.72 1442.93 1560.21 1443.36 1560.69C1442.65 1560.5 1441.96 1560.32 1441.3 1560.16L1441.85 1559.26M1441.85 1559.26V1559.26C1441.85 1559.26 1441.85 1559.26 1441.85 1559.26M1441.85 1559.26L1441.85 1559.26M1441.85 1559.26C1441.85 1559.26 1441.85 1559.26 1441.85 1559.26M1441.85 1559.26C1441.53 1559.01 1441.19 1558.76 1440.82 1558.53L1440.28 1559.93C1440.57 1559.99 1440.86 1560.05 1441.16 1560.13L1441.85 1559.26M1441.85 1559.26L1441.85 1559.26M1416.99 1557.18L1418.71 1557.64L1416.99 1557.18C1416.83 1557.8 1416.68 1558.44 1416.54 1559.09C1415.97 1559.53 1415.41 1560.01 1414.87 1560.54C1411.74 1563.62 1410.08 1567.36 1409.33 1570.86C1408.78 1573.46 1408.67 1575.95 1408.93 1578.31C1407.42 1580.76 1406.34 1583.73 1406.05 1587.25C1405.84 1589.82 1406 1592.21 1406.44 1594.4C1405.55 1596.4 1404.95 1598.71 1404.9 1601.32C1404.8 1606.38 1406.8 1610.48 1408.87 1613.32C1411.76 1617.31 1415.98 1619.38 1417.61 1620.17C1419.99 1621.32 1422.68 1622.32 1425.29 1623.18C1430.57 1624.9 1436.87 1626.43 1442.86 1627.56C1448.74 1628.66 1455.06 1629.5 1460.22 1629.55C1462.55 1629.58 1466.05 1629.48 1469.41 1628.44C1471.04 1627.94 1474.2 1626.76 1476.98 1623.89C1476.98 1623.89 1476.98 1623.88 1476.99 1623.88C1477.44 1623.82 1477.9 1623.75 1478.36 1623.66C1481.19 1623.11 1486.74 1621.25 1490.08 1615.81C1492.27 1614.98 1494.54 1613.67 1496.61 1611.61C1498.01 1610.2 1499.65 1608.26 1501.03 1605.89C1504.37 1604.31 1508.15 1601.39 1510.29 1596.41C1510.3 1596.38 1510.31 1596.35 1510.33 1596.31C1511.05 1594.62 1512.92 1590.27 1512.67 1585.26C1512.51 1582.2 1511.6 1578.83 1509.42 1575.72C1507.32 1572.73 1504.66 1570.84 1502.34 1569.65C1491.85 1564.28 1475.85 1556.63 1462.01 1551.24C1455.22 1548.59 1448.2 1546.19 1442.36 1545.04C1439.63 1544.5 1435.82 1543.95 1431.97 1544.47C1428.35 1544.96 1419.57 1547.4 1416.99 1557.18ZM1451.7 1614.97C1451.64 1614.57 1451.59 1614.18 1451.56 1613.79C1453.02 1613.99 1454.43 1614.16 1455.76 1614.29C1455.79 1614.29 1455.81 1614.29 1455.84 1614.3L1454.43 1619.14C1453.94 1618.81 1453.42 1618.35 1452.93 1617.72C1452.26 1616.83 1451.85 1615.84 1451.7 1614.97ZM1490.49 1578.08C1490.49 1578.08 1490.46 1578.08 1490.41 1578.08C1490.46 1578.08 1490.49 1578.08 1490.49 1578.08Z" fill="#AEAEAE" stroke="white" stroke-width="30"/>
<path d="M1499.5 1571C1499.9 1559 1511.67 1559.5 1517.5 1562C1512.5 1570.5 1502.2 1589.4 1501 1591C1499.5 1593 1499 1586 1499.5 1571Z" fill="#AEAEAE" stroke="white" stroke-width="30"/>
<path d="M1284 1067V1101C1284.5 1100.5 1286.8 1098.8 1292 1096C1297.2 1093.2 1300.83 1117.5 1302 1130L1312.5 1132.5L1321 1102C1331.33 1096.67 1363.5 1085.5 1409.5 1083.5C1455.5 1081.5 1515.67 1107.33 1540 1120.5C1547 1124.29 1558.5 1123.76 1558.5 1111.5C1558.5 1093 1547.67 1087.33 1535.5 1080.5C1540.5 1080.67 1557 1081.5 1558.5 1069.5C1559.89 1058.38 1538.17 1040.67 1524 1032C1532.5 1033 1560 1029 1548.5 1005.5C1538.12 984.29 1483.83 985.667 1452 990.5C1458.17 987.833 1471.6 981.2 1476 976C1481.5 969.5 1475.5 962.5 1435.5 961C1403.5 959.8 1362.5 982.167 1346 993.5C1338.33 987.5 1317.7 981 1296.5 1003C1275.3 1025 1279.33 1054.83 1284 1067Z" fill="#454545" stroke="white" stroke-width="30"/>
<path d="M1946 1689L1941.5 1685C1939.5 1687.67 1934.8 1696.3 1932 1709.5C1929.2 1722.7 1907.17 1761.33 1896.5 1779L1911.5 1780.5C1920.67 1763.67 1942.19 1729.18 1944 1721.5C1946 1713 1947 1697 1946 1689Z" fill="#5C5C5C" stroke="black" stroke-width="2"/>
<path d="M1897 1781.5L1868 1768L1887 1722C1895 1712.17 1912.4 1690.6 1918 1683C1923.6 1675.4 1935.67 1677.83 1941 1680C1941.33 1681 1941.8 1687.5 1941 1705.5C1940.2 1723.5 1911.33 1763.67 1897 1781.5Z" fill="#3A4775" stroke="black" stroke-width="2"/>
<path d="M1779 1961L1774 1953.5L1913 1895L1916.5 1900C1909.5 1909 1886.48 1924.94 1861.5 1937C1832.5 1951 1796.67 1960.17 1779 1961Z" fill="#5C5C5C" stroke="black" stroke-width="2"/>
<path d="M1767 1953L1738 1916L1786.5 1873.5C1791.33 1876.17 1802.5 1881.9 1808.5 1883.5C1816 1885.5 1884.5 1879 1895 1879.5C1903.4 1879.9 1911.5 1889 1914.5 1893.5C1906.83 1898.5 1888.5 1916 1858 1930.5C1829.04 1944.27 1786.17 1952.83 1767 1953Z" fill="#3A4775" stroke="black" stroke-width="2"/>
<path d="M1673 1600L1645 1595L1527.5 1606.5L1634 1662.5L1867.5 1775.5C1871.83 1771.33 1881.8 1760.6 1887 1751C1892.2 1741.4 1889.17 1721 1887 1712L1673 1600Z" fill="#2B2B2B" stroke="black" stroke-width="2"/>
<path d="M1781 1904C1797.8 1895.6 1806.33 1875.83 1808.5 1867L1615.5 1624L1538.5 1610H1390.5C1384 1611.17 1366.2 1615.8 1347 1625C1327.8 1634.2 1316 1673.5 1312.5 1692L1538.5 1716.5L1718.5 1918C1732.33 1916.83 1764.2 1912.4 1781 1904Z" fill="#454545" stroke="black" stroke-width="2"/>
<path d="M1325.5 1200C1305.5 1180.4 1307.17 1116.83 1310.5 1087.5C1313 1085.33 1331.1 1077.1 1383.5 1061.5C1435.9 1045.9 1492.33 1079.33 1514 1098C1514.33 1111.17 1513 1142.2 1505 1161C1495 1184.5 1458.61 1231.57 1452.5 1233.5C1444.5 1236.03 1409.77 1236.9 1383.28 1236.71C1374.26 1236.65 1365.45 1233.99 1358.27 1228.52C1349.78 1222.04 1338.1 1212.35 1325.5 1200Z" fill="#AEAEAE"/>
<path d="M1397 1191C1380.6 1189.8 1368.83 1185.33 1367 1183.5C1371.33 1190.33 1382 1204.5 1399 1210.5C1414.23 1215.88 1427.5 1217.5 1432 1212C1434.96 1208.38 1431.83 1206.33 1429 1204.5L1438 1203.5C1439.33 1202.33 1441.6 1199 1440 1195C1438 1190 1417.5 1192.5 1397 1191Z" fill="white"/>
<path d="M1382.5 1104.5C1364 1103 1353.5 1114 1350 1118.5C1350.67 1121.33 1355.3 1129 1368.5 1137C1381.7 1145 1400.67 1139.33 1408.5 1135.5C1406 1125.67 1397.3 1105.7 1382.5 1104.5Z" fill="white" stroke="black" stroke-width="2" stroke-linecap="round"/>
<path d="M1479.5 1132.5C1469.1 1123.3 1451.5 1130.67 1444 1135.5V1140.5C1445 1144 1443.83 1145.66 1454.5 1151C1466.5 1157 1480 1155.83 1487 1153.5C1488.83 1150.33 1489.9 1141.7 1479.5 1132.5Z" fill="white" stroke="black" stroke-width="2" stroke-linecap="round"/>
<path d="M1267 1247L1293.5 1230.5C1303.5 1247.83 1323.4 1283 1323 1285C1322.6 1287 1349.17 1311.5 1362.5 1323.5L1386 1279L1383 1247H1400.5L1445.5 1256.5C1454.67 1329 1473 1474.5 1473 1476.5C1473 1478.5 1511.33 1550.33 1530.5 1586C1485.33 1597.83 1389.2 1623.4 1366 1631C1337 1640.5 1317.5 1690.5 1310 1699C1302.5 1707.5 1277.76 1701.27 1274 1686.5C1267 1659 1216.67 1422 1192.5 1295.5L1267 1247Z" fill="#3F5BBE"/>
<path d="M1267 1247L1293.5 1230.5C1303.5 1247.83 1323.4 1283 1323 1285C1322.6 1287 1349.17 1311.5 1362.5 1323.5L1386 1279L1383 1247H1400.5M1267 1247L1310.5 1295.5L1365.5 1338L1387.5 1306.5L1405 1273L1400.5 1247M1267 1247L1192.5 1295.5C1216.67 1422 1267 1659 1274 1686.5C1277.76 1701.27 1302.5 1707.5 1310 1699C1317.5 1690.5 1337 1640.5 1366 1631C1389.2 1623.4 1485.33 1597.83 1530.5 1586C1511.33 1550.33 1473 1478.5 1473 1476.5C1473 1474.5 1454.67 1329 1445.5 1256.5L1400.5 1247" stroke="black" stroke-width="2"/>
<path d="M1409.5 1173C1402.7 1173.8 1407.67 1179.33 1411 1182C1414.17 1182.67 1421.8 1184.1 1427 1184.5C1433.5 1185 1447.5 1184.5 1447.5 1180C1447.5 1176.8 1418 1172 1409.5 1173Z" fill="#7F7F7F"/>
<path d="M1275 1688C1265.33 1645.67 1248 1564.8 1248 1564L1419 1606L1404.5 1619C1395.5 1623 1381 1622.29 1354.5 1636C1339.03 1644 1318.5 1683 1309.5 1698.5C1308.67 1699.33 1307.7 1700.8 1300.5 1702C1293.3 1703.2 1279 1697 1275 1688Z" fill="#253982"/>
<path d="M1358.5 1235C1342.9 1229.8 1314 1203 1304 1170V1219L1288.5 1241.5L1362.5 1322.5L1382.5 1287L1378.5 1241.5C1376.5 1241.83 1374.1 1240.2 1358.5 1235Z" fill="#7F7F7F"/>
<path d="M1294.5 1093C1303.3 1089.8 1303 1100.5 1303 1110.5L1301.5 1163C1291.5 1155.67 1271.67 1145 1271 1129C1270.5 1117 1283.5 1097 1294.5 1093Z" fill="#AEAEAE"/>
<path d="M1441.5 1127C1444.83 1145.33 1451.5 1180.5 1446.5 1182C1442.67 1183.15 1428.5 1185.5 1411 1182" stroke="black" stroke-width="2" stroke-linecap="round"/>
<ellipse cx="1387.5" cy="1128.5" rx="14.5" ry="12.5" fill="black"/>
<ellipse cx="1470.5" cy="1145" rx="11.5" ry="10" fill="black"/>
<path d="M1361 1177.5C1369.17 1186.17 1390.79 1202.07 1411.5 1204C1433 1206 1438.5 1202.83 1439 1202" stroke="black" stroke-width="2" stroke-linecap="round"/>
<path d="M1376.5 1097.5C1370.34 1097.5 1358.25 1098.03 1350.88 1098.59C1354.64 1096.56 1359.67 1094.26 1365.37 1092.39C1373.36 1089.77 1382.58 1088.02 1391.39 1088.99C1400.33 1089.99 1406.62 1091.6 1410.83 1093.19C1412.94 1093.98 1414.53 1094.77 1415.66 1095.46C1416.62 1096.05 1417.21 1096.55 1417.54 1096.91L1418.82 1108.48C1412.55 1106.11 1404.49 1103.49 1396.89 1101.41C1388.69 1099.16 1380.9 1097.5 1376.5 1097.5Z" fill="#454545" stroke="black" stroke-width="2"/>
<path d="M1447 1116C1443.8 1115.6 1451.67 1107.17 1456 1103C1461.83 1103 1475.6 1104.6 1484 1111C1492.4 1117.4 1494.33 1126.5 1492.5 1129.5C1492 1128.33 1488 1121.5 1478.5 1117C1470.45 1113.19 1451 1116.5 1447 1116Z" fill="#454545" stroke="black" stroke-width="2"/>
<rect x="1343.94" y="1098.11" width="77.4768" height="43" rx="14" transform="rotate(6.45837 1343.94 1098.11)" stroke="white" stroke-width="2"/>
<path d="M1448.5 1162.5L1470.56 1167.85C1477.04 1169.42 1483.78 1166.52 1487.1 1160.73L1496.67 1144.04C1499.89 1138.42 1497 1131.26 1490.77 1129.46L1459.42 1120.39C1451.37 1118.07 1443.55 1124.68 1444.5 1133V1133" stroke="white" stroke-width="2"/>
<path d="M1435.5 1120.5C1430.5 1119.5 1423.67 1120.5 1420 1121.5L1419.5 1129.5C1420.83 1129 1424.3 1127 1429.5 1127C1434.7 1127 1441 1129.33 1443.5 1130.5L1445.5 1125C1443.33 1124.17 1439.42 1121.28 1435.5 1120.5Z" fill="#454545"/>
<path d="M1347.5 1101.5L1303 1104V1112L1341.5 1114C1341.5 1113.17 1341.7 1110.8 1342.5 1108C1343.3 1105.2 1346.17 1102.5 1347.5 1101.5Z" fill="#454545"/>
<path d="M1303.5 1209.5L1280 1247L1330.5 1329L1335 1305.5L1361 1321.5L1347 1260.5L1303.5 1209.5Z" fill="#7D8BBE"/>
<path d="M1335 1305.5L1361 1321.5L1347 1260.5L1303.5 1209.5L1280 1247L1330.5 1329L1335 1305.5ZM1335 1305.5L1342 1270" stroke="black" stroke-width="2"/>
<path d="M1380.48 1293.04L1379.91 1290.47L1375.48 1270.29L1373.52 1270.71L1378.44 1293.09L1363.6 1319.51L1364.99 1261.41L1381.49 1243.97L1411.22 1276.58L1384.99 1313.58L1380.48 1293.04Z" fill="#7D8BBE" stroke="black" stroke-width="2"/>
<path d="M1336 1306L1362.5 1322.5L1379 1290" stroke="black" stroke-width="2"/>
<path d="M1362.5 1323L1365 1337.5" stroke="black" stroke-width="2"/>
<path d="M1471.5 1261.5L1444.5 1256.5L1468.5 1440.5L1498.5 1475.5L1519.5 1478.5L1565.5 1445.5L1471.5 1261.5Z" fill="#233780" stroke="black" stroke-width="2"/>
<path d="M1521.5 1422C1487 1429 1488.5 1556.5 1488.5 1567.5L1547.5 1575L1566.5 1447C1561.67 1440 1550.81 1416.06 1521.5 1422Z" fill="#243881" stroke="black" stroke-width="2"/>
<path d="M1458.5 1558C1452.9 1555.6 1449.17 1559 1448 1561L1484 1575.5C1484.17 1574.67 1484.4 1572.7 1484 1571.5C1483.5 1570 1465.5 1561 1458.5 1558Z" fill="#AEAEAE" stroke="black" stroke-width="2"/>
<path d="M1498 1615L1385.5 1611V1618.5L1498 1623C1553.83 1612.67 1665.5 1592.1 1665.5 1592.5V1586L1498 1615Z" fill="#5C5C5C" stroke="black" stroke-width="2"/>
<path d="M1737 1441.5L1567.5 1463.5L1514 1571L1385 1610L1498.5 1614.5L1665.5 1586L1737 1441.5Z" fill="#5C5C5C"/>
<path d="M1495 1605.5L1514 1571M1514 1571L1567.5 1463.5L1737 1441.5L1665.5 1586L1498.5 1614.5L1385 1610L1514 1571Z" stroke="black" stroke-width="2"/>
<path d="M1224 1292C1205.6 1282.8 1191.67 1293.67 1188 1300.5C1184.67 1372.33 1179.7 1519 1178.5 1529C1177.3 1539 1186 1545.83 1190.5 1548L1428.5 1608.5L1437.5 1554L1251 1498L1254 1349C1251.67 1333.83 1242.4 1301.2 1224 1292Z" fill="#3F5BBE" stroke="black" stroke-width="2"/>
<path d="M1489.83 1594.41C1489.79 1594.29 1489.74 1594.18 1489.68 1594.08C1490.09 1594.09 1490.49 1594.09 1490.88 1594.08C1492.29 1594.03 1493.64 1593.83 1494.77 1593.36C1495.93 1592.88 1496.9 1592.1 1497.42 1590.89C1498.17 1589.15 1498.76 1587.47 1498.69 1585.96C1498.65 1585.18 1498.42 1584.43 1497.95 1583.75C1497.48 1583.09 1496.81 1582.55 1495.95 1582.11C1485.69 1576.85 1470.16 1569.44 1456.92 1564.28C1450.32 1561.71 1444.24 1559.68 1439.65 1558.77C1437.37 1558.32 1435.38 1558.13 1433.85 1558.34C1432.33 1558.55 1430.94 1559.21 1430.53 1560.75C1429.52 1564.59 1429.59 1567.35 1430.22 1569.24C1429.3 1569.07 1428.34 1569.01 1427.42 1569.17C1426.43 1569.34 1425.47 1569.76 1424.68 1570.54C1423.89 1571.31 1423.32 1572.39 1423.02 1573.79C1422.35 1576.91 1423.24 1579.31 1424.66 1580.99C1425.08 1581.49 1425.54 1581.93 1426.02 1582.3C1425.34 1582.46 1424.65 1582.68 1423.98 1582.98C1422.01 1583.88 1420.24 1585.56 1420 1588.42C1419.67 1592.36 1421.37 1595.32 1422.96 1597.04C1421.92 1597.43 1420.85 1598.02 1420.07 1598.85C1419.4 1599.56 1418.92 1600.48 1418.9 1601.6C1418.88 1602.71 1419.31 1603.87 1420.19 1605.09C1420.85 1606 1422.16 1606.82 1423.71 1607.57C1425.31 1608.34 1427.34 1609.12 1429.63 1609.86C1434.21 1611.36 1439.91 1612.76 1445.44 1613.8C1450.97 1614.83 1456.37 1615.51 1460.36 1615.55C1462.34 1615.57 1464.06 1615.44 1465.29 1615.06C1465.9 1614.87 1466.49 1614.59 1466.92 1614.15C1467.39 1613.67 1467.6 1613.04 1467.49 1612.34C1467.24 1610.89 1466.75 1609.67 1466.11 1608.67C1467.93 1609.19 1469.8 1609.64 1471.49 1609.88C1473.01 1610.09 1474.48 1610.15 1475.67 1609.92C1476.86 1609.69 1478.02 1609.1 1478.45 1607.82C1479.16 1605.67 1479.27 1603.9 1479.08 1602.59C1479.88 1602.8 1480.77 1602.98 1481.66 1603.06C1483.36 1603.21 1485.38 1603.04 1486.71 1601.71C1488.03 1600.39 1489.27 1598.63 1489.77 1596.98C1490.02 1596.15 1490.12 1595.24 1489.83 1594.41Z" fill="#AEAEAE" stroke="black" stroke-width="2"/>
<path d="M1499.5 1571C1499.9 1559 1511.67 1559.5 1517.5 1562C1512.5 1570.5 1502.2 1589.4 1501 1591C1499.5 1593 1499 1586 1499.5 1571Z" fill="#AEAEAE" stroke="black" stroke-width="2"/>
<path d="M1284 1067V1101C1284.5 1100.5 1286.8 1098.8 1292 1096C1297.2 1093.2 1300.83 1117.5 1302 1130L1312.5 1132.5L1321 1102C1331.33 1096.67 1363.5 1085.5 1409.5 1083.5C1455.5 1081.5 1515.67 1107.33 1540 1120.5C1547 1124.29 1558.5 1123.76 1558.5 1111.5C1558.5 1093 1547.67 1087.33 1535.5 1080.5C1540.5 1080.67 1557 1081.5 1558.5 1069.5C1559.89 1058.38 1538.17 1040.67 1524 1032C1532.5 1033 1560 1029 1548.5 1005.5C1538.12 984.29 1483.83 985.667 1452 990.5C1458.17 987.833 1471.6 981.2 1476 976C1481.5 969.5 1475.5 962.5 1435.5 961C1403.5 959.8 1362.5 982.167 1346 993.5C1338.33 987.5 1317.7 981 1296.5 1003C1275.3 1025 1279.33 1054.83 1284 1067Z" fill="#454545"/>
<path d="M1631.79 1492.83L1625.62 1517.38L1640.42 1530.96L1631.79 1492.83Z" fill="white" fill-opacity="0.602"/>
<path d="M1631.79 1492.83L1606.16 1522.35L1625.62 1517.38L1631.79 1492.83Z" fill="white"/>
<path d="M1619.29 1542.56L1615.1 1559.24L1639.46 1534.82L1619.29 1542.56Z" fill="white" fill-opacity="0.602"/>
<path d="M1615.1 1559.25L1619.29 1542.56L1605.19 1526.21L1615.1 1559.25Z" fill="white"/>
<path d="M1620.26 1538.7L1640.42 1530.96L1625.62 1517.38L1620.26 1538.7Z" fill="white" fill-opacity="0.2"/>
<path d="M1606.16 1522.35L1620.26 1538.7L1625.62 1517.38L1606.16 1522.35Z" fill="white" fill-opacity="0.602"/>
<path d="M1577.06 365.61C1575.01 363.706 1573.92 361.351 1573.79 358.546C1573.66 355.74 1574.57 353.309 1576.52 351.253C1578.38 349.2 1580.71 348.131 1583.52 348.046C1586.33 347.961 1588.76 348.871 1590.81 350.776C1592.8 352.617 1593.86 354.941 1593.99 357.746C1594.14 360.573 1593.28 363.012 1591.42 365.065C1590.12 366.422 1588.6 367.34 1586.85 367.82C1585.13 368.321 1583.39 368.388 1581.63 368.019C1579.92 367.648 1578.39 366.845 1577.06 365.61Z" fill="white"/>
<path d="M1614.26 400.09C1612.21 398.185 1611.12 395.83 1610.99 393.025C1610.86 390.22 1611.77 387.789 1613.72 385.732C1615.58 383.679 1617.91 382.61 1620.72 382.526C1623.53 382.441 1625.96 383.351 1628.01 385.255C1630 387.097 1631.06 389.42 1631.18 392.226C1631.34 395.052 1630.48 397.492 1628.62 399.545C1627.32 400.901 1625.8 401.82 1624.05 402.3C1622.33 402.801 1620.59 402.867 1618.83 402.498C1617.12 402.127 1615.59 401.325 1614.26 400.09Z" fill="white"/>
<path d="M1651.46 434.569C1649.41 432.665 1648.32 430.31 1648.19 427.504C1648.06 424.699 1648.97 422.268 1650.92 420.212C1652.78 418.159 1655.11 417.09 1657.92 417.005C1660.73 416.92 1663.16 417.83 1665.21 419.735C1667.2 421.576 1668.26 423.9 1668.38 426.705C1668.53 429.531 1667.68 431.971 1665.82 434.024C1664.52 435.381 1663 436.299 1661.25 436.779C1659.53 437.28 1657.79 437.346 1656.03 436.977C1654.32 436.607 1652.79 435.804 1651.46 434.569Z" fill="white"/>
<path d="M1688.66 469.049C1686.61 467.144 1685.51 464.789 1685.39 461.984C1685.26 459.178 1686.17 456.747 1688.12 454.691C1689.98 452.638 1692.31 451.569 1695.12 451.484C1697.92 451.4 1700.36 452.309 1702.41 454.214C1704.4 456.056 1705.46 458.379 1705.58 461.184C1705.73 464.011 1704.88 466.451 1703.02 468.504C1701.72 469.86 1700.2 470.778 1698.45 471.258C1696.73 471.76 1694.99 471.826 1693.23 471.457C1691.52 471.086 1689.99 470.283 1688.66 469.049Z" fill="white"/>
<path d="M1725.86 503.528C1723.81 501.623 1722.71 499.269 1722.59 496.463C1722.46 493.658 1723.37 491.227 1725.32 489.17C1727.18 487.117 1729.51 486.048 1732.32 485.964C1735.12 485.879 1737.56 486.789 1739.61 488.693C1741.6 490.535 1742.65 492.858 1742.78 495.664C1742.93 498.49 1742.08 500.93 1740.22 502.983C1738.92 504.339 1737.4 505.258 1735.65 505.738C1733.93 506.239 1732.19 506.305 1730.43 505.936C1728.71 505.565 1727.19 504.763 1725.86 503.528Z" fill="white"/>
<path d="M1763.06 538.007C1761 536.103 1759.91 533.748 1759.79 530.943C1759.66 528.137 1760.57 525.706 1762.51 523.65C1764.38 521.597 1766.71 520.528 1769.52 520.443C1772.32 520.358 1774.75 521.268 1776.81 523.173C1778.8 525.014 1779.85 527.338 1779.98 530.143C1780.13 532.97 1779.28 535.409 1777.42 537.462C1776.12 538.819 1774.59 539.737 1772.85 540.217C1771.12 540.718 1769.38 540.784 1767.63 540.415C1765.91 540.045 1764.39 539.242 1763.06 538.007Z" fill="white"/>
<path d="M1800.26 572.487C1798.2 570.582 1797.11 568.227 1796.98 565.422C1796.86 562.617 1797.77 560.186 1799.71 558.129C1801.58 556.076 1803.91 555.007 1806.72 554.922C1809.52 554.838 1811.95 555.748 1814.01 557.652C1816 559.494 1817.05 561.817 1817.18 564.623C1817.33 567.449 1816.48 569.889 1814.62 571.942C1813.32 573.298 1811.79 574.216 1810.05 574.697C1808.32 575.198 1806.58 575.264 1804.83 574.895C1803.11 574.524 1801.59 573.721 1800.26 572.487Z" fill="white"/>
<path d="M1546.12 398.992C1544.07 397.087 1542.98 394.732 1542.85 391.927C1542.72 389.122 1543.63 386.691 1545.58 384.634C1547.44 382.581 1549.77 381.512 1552.58 381.428C1555.39 381.343 1557.82 382.253 1559.87 384.157C1561.86 385.999 1562.92 388.322 1563.04 391.128C1563.2 393.954 1562.34 396.394 1560.48 398.447C1559.18 399.803 1557.66 400.722 1555.91 401.202C1554.19 401.703 1552.45 401.769 1550.69 401.4C1548.98 401.029 1547.45 400.226 1546.12 398.992Z" fill="white"/>
<path d="M1583.32 433.471C1581.27 431.567 1580.18 429.212 1580.05 426.406C1579.92 423.601 1580.83 421.17 1582.78 419.114C1584.64 417.061 1586.97 415.992 1589.78 415.907C1592.59 415.822 1595.02 416.732 1597.07 418.636C1599.06 420.478 1600.12 422.802 1600.24 425.607C1600.39 428.433 1599.54 430.873 1597.68 432.926C1596.38 434.283 1594.86 435.201 1593.11 435.681C1591.39 436.182 1589.65 436.248 1587.89 435.879C1586.18 435.509 1584.65 434.706 1583.32 433.471Z" fill="white"/>
<path d="M1620.52 467.951C1618.47 466.046 1617.37 463.691 1617.25 460.886C1617.12 458.08 1618.03 455.649 1619.98 453.593C1621.84 451.54 1624.17 450.471 1626.98 450.386C1629.79 450.302 1632.22 451.211 1634.27 453.116C1636.26 454.958 1637.32 457.281 1637.44 460.086C1637.59 462.913 1636.74 465.352 1634.88 467.406C1633.58 468.762 1632.06 469.68 1630.31 470.16C1628.59 470.662 1626.85 470.728 1625.09 470.359C1623.38 469.988 1621.85 469.185 1620.52 467.951Z" fill="white"/>
<path d="M1657.72 502.43C1655.67 500.525 1654.57 498.171 1654.45 495.365C1654.32 492.56 1655.23 490.129 1657.18 488.072C1659.04 486.019 1661.37 484.95 1664.18 484.866C1666.98 484.781 1669.42 485.691 1671.47 487.595C1673.46 489.437 1674.51 491.76 1674.64 494.566C1674.79 497.392 1673.94 499.832 1672.08 501.885C1670.78 503.241 1669.26 504.16 1667.51 504.64C1665.79 505.141 1664.05 505.207 1662.29 504.838C1660.58 504.467 1659.05 503.665 1657.72 502.43Z" fill="white"/>
<path d="M1694.92 536.909C1692.87 535.005 1691.77 532.65 1691.65 529.844C1691.52 527.039 1692.43 524.608 1694.37 522.552C1696.24 520.499 1698.57 519.43 1701.38 519.345C1704.18 519.26 1706.61 520.17 1708.67 522.075C1710.66 523.916 1711.71 526.24 1711.84 529.045C1711.99 531.872 1711.14 534.311 1709.28 536.364C1707.98 537.721 1706.46 538.639 1704.71 539.119C1702.98 539.62 1701.24 539.686 1699.49 539.317C1697.77 538.947 1696.25 538.144 1694.92 536.909Z" fill="white"/>
<path d="M1732.12 571.389C1730.06 569.484 1728.97 567.129 1728.84 564.324C1728.72 561.518 1729.63 559.088 1731.57 557.031C1733.44 554.978 1735.77 553.909 1738.58 553.824C1741.38 553.74 1743.81 554.65 1745.87 556.554C1747.86 558.396 1748.91 560.719 1749.04 563.525C1749.19 566.351 1748.34 568.791 1746.48 570.844C1745.18 572.2 1743.65 573.118 1741.91 573.599C1740.18 574.1 1738.44 574.166 1736.69 573.797C1734.97 573.426 1733.45 572.623 1732.12 571.389Z" fill="white"/>
<path d="M1769.32 605.868C1767.26 603.964 1766.17 601.609 1766.04 598.803C1765.92 595.998 1766.83 593.567 1768.77 591.511C1770.63 589.458 1772.97 588.389 1775.78 588.304C1778.58 588.219 1781.01 589.129 1783.07 591.033C1785.06 592.875 1786.11 595.199 1786.24 598.004C1786.39 600.83 1785.54 603.27 1783.68 605.323C1782.38 606.679 1780.85 607.598 1779.11 608.078C1777.38 608.579 1775.64 608.645 1773.89 608.276C1772.17 607.906 1770.65 607.103 1769.32 605.868Z" fill="white"/>
<path d="M1515.18 432.373C1513.13 430.469 1512.04 428.114 1511.91 425.308C1511.78 422.503 1512.69 420.072 1514.64 418.016C1516.5 415.963 1518.83 414.894 1521.64 414.809C1524.45 414.724 1526.88 415.634 1528.93 417.538C1530.92 419.38 1531.98 421.704 1532.1 424.509C1532.26 427.335 1531.4 429.775 1529.54 431.828C1528.24 433.185 1526.72 434.103 1524.97 434.583C1523.25 435.084 1521.51 435.15 1519.75 434.781C1518.04 434.411 1516.51 433.608 1515.18 432.373Z" fill="white"/>
<path d="M1552.38 466.852C1550.33 464.948 1549.24 462.593 1549.11 459.788C1548.98 456.982 1549.89 454.551 1551.84 452.495C1553.7 450.442 1556.03 449.373 1558.84 449.288C1561.65 449.204 1564.08 450.113 1566.13 452.018C1568.12 453.859 1569.18 456.183 1569.3 458.988C1569.45 461.815 1568.6 464.254 1566.74 466.308C1565.44 467.664 1563.92 468.582 1562.17 469.062C1560.45 469.564 1558.71 469.63 1556.95 469.261C1555.24 468.89 1553.71 468.087 1552.38 466.852Z" fill="white"/>
<path d="M1589.58 501.332C1587.53 499.427 1586.43 497.072 1586.31 494.267C1586.18 491.462 1587.09 489.031 1589.04 486.974C1590.9 484.921 1593.23 483.852 1596.04 483.768C1598.84 483.683 1601.28 484.593 1603.33 486.497C1605.32 488.339 1606.37 490.662 1606.5 493.468C1606.65 496.294 1605.8 498.734 1603.94 500.787C1602.64 502.143 1601.12 503.062 1599.37 503.542C1597.65 504.043 1595.91 504.109 1594.15 503.74C1592.44 503.369 1590.91 502.567 1589.58 501.332Z" fill="white"/>
<path d="M1626.78 535.811C1624.73 533.907 1623.63 531.552 1623.51 528.746C1623.38 525.941 1624.29 523.51 1626.24 521.454C1628.1 519.401 1630.43 518.332 1633.24 518.247C1636.04 518.162 1638.48 519.072 1640.53 520.977C1642.52 522.818 1643.57 525.142 1643.7 527.947C1643.85 530.774 1643 533.213 1641.14 535.266C1639.84 536.623 1638.32 537.541 1636.57 538.021C1634.85 538.522 1633.1 538.588 1631.35 538.219C1629.63 537.849 1628.11 537.046 1626.78 535.811Z" fill="white"/>
<path d="M1663.98 570.291C1661.92 568.386 1660.83 566.031 1660.71 563.226C1660.58 560.42 1661.49 557.99 1663.43 555.933C1665.3 553.88 1667.63 552.811 1670.44 552.726C1673.24 552.642 1675.67 553.552 1677.73 555.456C1679.72 557.298 1680.77 559.621 1680.9 562.427C1681.05 565.253 1680.2 567.693 1678.34 569.746C1677.04 571.102 1675.51 572.02 1673.77 572.501C1672.04 573.002 1670.3 573.068 1668.55 572.699C1666.83 572.328 1665.31 571.525 1663.98 570.291Z" fill="white"/>
<path d="M1701.18 604.77C1699.12 602.866 1698.03 600.511 1697.9 597.705C1697.78 594.9 1698.69 592.469 1700.63 590.413C1702.5 588.359 1704.83 587.291 1707.64 587.206C1710.44 587.121 1712.87 588.031 1714.93 589.935C1716.92 591.777 1717.97 594.101 1718.1 596.906C1718.25 599.732 1717.4 602.172 1715.54 604.225C1714.24 605.581 1712.71 606.5 1710.97 606.98C1709.24 607.481 1707.5 607.547 1705.75 607.178C1704.03 606.807 1702.51 606.005 1701.18 604.77Z" fill="white"/>
<path d="M1738.38 639.249C1736.32 637.345 1735.23 634.99 1735.1 632.185C1734.98 629.379 1735.89 626.948 1737.83 624.892C1739.69 622.839 1742.03 621.77 1744.84 621.685C1747.64 621.6 1750.07 622.51 1752.13 624.415C1754.12 626.256 1755.17 628.58 1755.3 631.385C1755.45 634.212 1754.6 636.651 1752.74 638.704C1751.44 640.061 1749.91 640.979 1748.17 641.459C1746.44 641.96 1744.7 642.027 1742.95 641.658C1741.23 641.287 1739.71 640.484 1738.38 639.249Z" fill="white"/>
<path d="M1484.24 465.754C1482.19 463.85 1481.1 461.495 1480.97 458.69C1480.84 455.884 1481.75 453.453 1483.7 451.397C1485.56 449.344 1487.89 448.275 1490.7 448.19C1493.51 448.106 1495.94 449.015 1497.99 450.92C1499.98 452.761 1501.04 455.085 1501.16 457.89C1501.31 460.717 1500.46 463.156 1498.6 465.209C1497.3 466.566 1495.78 467.484 1494.03 467.964C1492.31 468.466 1490.57 468.532 1488.81 468.163C1487.1 467.792 1485.57 466.989 1484.24 465.754Z" fill="white"/>
<path d="M1521.44 500.234C1519.39 498.329 1518.29 495.974 1518.17 493.169C1518.04 490.364 1518.95 487.933 1520.9 485.876C1522.76 483.823 1525.09 482.754 1527.9 482.67C1530.71 482.585 1533.14 483.495 1535.19 485.399C1537.18 487.241 1538.24 489.564 1538.36 492.37C1538.51 495.196 1537.66 497.636 1535.8 499.689C1534.5 501.045 1532.98 501.964 1531.23 502.444C1529.51 502.945 1527.77 503.011 1526.01 502.642C1524.3 502.271 1522.77 501.469 1521.44 500.234Z" fill="white"/>
<path d="M1558.64 534.713C1556.59 532.809 1555.49 530.454 1555.37 527.648C1555.24 524.843 1556.15 522.412 1558.1 520.356C1559.96 518.303 1562.29 517.234 1565.1 517.149C1567.9 517.064 1570.34 517.974 1572.39 519.879C1574.38 521.72 1575.43 524.044 1575.56 526.849C1575.71 529.675 1574.86 532.115 1573 534.168C1571.7 535.525 1570.18 536.443 1568.43 536.923C1566.71 537.424 1564.97 537.49 1563.21 537.121C1561.5 536.751 1559.97 535.948 1558.64 534.713Z" fill="white"/>
<path d="M1595.84 569.193C1593.78 567.288 1592.69 564.933 1592.57 562.128C1592.44 559.322 1593.35 556.892 1595.29 554.835C1597.16 552.782 1599.49 551.713 1602.3 551.628C1605.1 551.544 1607.53 552.453 1609.59 554.358C1611.58 556.2 1612.63 558.523 1612.76 561.329C1612.91 564.155 1612.06 566.595 1610.2 568.648C1608.9 570.004 1607.38 570.922 1605.63 571.403C1603.9 571.904 1602.16 571.97 1600.41 571.601C1598.69 571.23 1597.17 570.427 1595.84 569.193Z" fill="white"/>
<path d="M1633.04 603.672C1630.98 601.768 1629.89 599.413 1629.76 596.607C1629.64 593.802 1630.55 591.371 1632.49 589.315C1634.36 587.261 1636.69 586.193 1639.5 586.108C1642.3 586.023 1644.73 586.933 1646.79 588.837C1648.78 590.679 1649.83 593.003 1649.96 595.808C1650.11 598.634 1649.26 601.074 1647.4 603.127C1646.1 604.483 1644.57 605.402 1642.83 605.882C1641.1 606.383 1639.36 606.449 1637.61 606.08C1635.89 605.709 1634.37 604.907 1633.04 603.672Z" fill="white"/>
<path d="M1670.24 638.151C1668.18 636.247 1667.09 633.892 1666.96 631.087C1666.84 628.281 1667.75 625.85 1669.69 623.794C1671.55 621.741 1673.89 620.672 1676.7 620.587C1679.5 620.502 1681.93 621.412 1683.99 623.317C1685.98 625.158 1687.03 627.482 1687.16 630.287C1687.31 633.114 1686.46 635.553 1684.6 637.606C1683.3 638.963 1681.77 639.881 1680.03 640.361C1678.3 640.862 1676.56 640.929 1674.81 640.559C1673.09 640.189 1671.57 639.386 1670.24 638.151Z" fill="white"/>
<path d="M1707.44 672.631C1705.38 670.726 1704.29 668.371 1704.16 665.566C1704.04 662.761 1704.95 660.33 1706.89 658.273C1708.75 656.22 1711.09 655.151 1713.9 655.067C1716.7 654.982 1719.13 655.892 1721.19 657.796C1723.17 659.638 1724.23 661.961 1724.36 664.767C1724.51 667.593 1723.66 670.033 1721.8 672.086C1720.5 673.442 1718.97 674.36 1717.23 674.841C1715.5 675.342 1713.76 675.408 1712.01 675.039C1710.29 674.668 1708.77 673.865 1707.44 672.631Z" fill="white"/>
<path d="M1453.3 499.136C1451.25 497.231 1450.15 494.876 1450.03 492.071C1449.9 489.266 1450.81 486.835 1452.76 484.778C1454.62 482.725 1456.95 481.656 1459.76 481.572C1462.57 481.487 1465 482.397 1467.05 484.301C1469.04 486.143 1470.1 488.466 1470.22 491.272C1470.37 494.098 1469.52 496.538 1467.66 498.591C1466.36 499.947 1464.84 500.866 1463.09 501.346C1461.37 501.847 1459.63 501.913 1457.87 501.544C1456.16 501.173 1454.63 500.371 1453.3 499.136Z" fill="white"/>
<path d="M1490.5 533.615C1488.45 531.711 1487.35 529.356 1487.23 526.55C1487.1 523.745 1488.01 521.314 1489.96 519.258C1491.82 517.205 1494.15 516.136 1496.96 516.051C1499.76 515.966 1502.2 516.876 1504.25 518.781C1506.24 520.622 1507.29 522.946 1507.42 525.751C1507.57 528.577 1506.72 531.017 1504.86 533.07C1503.56 534.427 1502.04 535.345 1500.29 535.825C1498.57 536.326 1496.83 536.392 1495.07 536.023C1493.36 535.653 1491.83 534.85 1490.5 533.615Z" fill="white"/>
<path d="M1527.7 568.095C1525.65 566.19 1524.55 563.835 1524.43 561.03C1524.3 558.224 1525.21 555.794 1527.16 553.737C1529.02 551.684 1531.35 550.615 1534.16 550.53C1536.96 550.446 1539.4 551.355 1541.45 553.26C1543.44 555.102 1544.49 557.425 1544.62 560.231C1544.77 563.057 1543.92 565.497 1542.06 567.55C1540.76 568.906 1539.24 569.824 1537.49 570.305C1535.77 570.806 1534.02 570.872 1532.27 570.503C1530.55 570.132 1529.03 569.329 1527.7 568.095Z" fill="white"/>
<path d="M1564.9 602.574C1562.84 600.669 1561.75 598.315 1561.62 595.509C1561.5 592.704 1562.41 590.273 1564.35 588.217C1566.22 586.163 1568.55 585.095 1571.36 585.01C1574.16 584.925 1576.59 585.835 1578.65 587.739C1580.64 589.581 1581.69 591.904 1581.82 594.71C1581.97 597.536 1581.12 599.976 1579.26 602.029C1577.96 603.385 1576.43 604.304 1574.69 604.784C1572.96 605.285 1571.22 605.351 1569.47 604.982C1567.75 604.611 1566.23 603.809 1564.9 602.574Z" fill="white"/>
<path d="M1602.1 637.053C1600.04 635.149 1598.95 632.794 1598.82 629.989C1598.7 627.183 1599.61 624.752 1601.55 622.696C1603.41 620.643 1605.75 619.574 1608.56 619.489C1611.36 619.404 1613.79 620.314 1615.85 622.219C1617.84 624.06 1618.89 626.384 1619.02 629.189C1619.17 632.016 1618.32 634.455 1616.46 636.508C1615.16 637.865 1613.63 638.783 1611.89 639.263C1610.16 639.764 1608.42 639.83 1606.67 639.461C1604.95 639.091 1603.43 638.288 1602.1 637.053Z" fill="white"/>
<path d="M1639.3 671.533C1637.24 669.628 1636.15 667.273 1636.02 664.468C1635.9 661.663 1636.81 659.232 1638.75 657.175C1640.61 655.122 1642.95 654.053 1645.76 653.969C1648.56 653.884 1650.99 654.794 1653.05 656.698C1655.03 658.54 1656.09 660.863 1656.22 663.669C1656.37 666.495 1655.52 668.935 1653.66 670.988C1652.36 672.344 1650.83 673.262 1649.09 673.743C1647.36 674.244 1645.62 674.31 1643.87 673.941C1642.15 673.57 1640.63 672.767 1639.3 671.533Z" fill="white"/>
<path d="M1676.5 706.012C1674.44 704.108 1673.35 701.753 1673.22 698.947C1673.09 696.142 1674 693.711 1675.95 691.655C1677.81 689.602 1680.15 688.533 1682.95 688.448C1685.76 688.363 1688.19 689.273 1690.25 691.177C1692.23 693.019 1693.29 695.343 1693.42 698.148C1693.57 700.974 1692.72 703.414 1690.85 705.467C1689.56 706.824 1688.03 707.742 1686.29 708.222C1684.56 708.723 1682.82 708.789 1681.07 708.42C1679.35 708.05 1677.83 707.247 1676.5 706.012Z" fill="white"/>
<path d="M1422.36 532.517C1420.31 530.613 1419.21 528.258 1419.09 525.452C1418.96 522.647 1419.87 520.216 1421.82 518.16C1423.68 516.107 1426.01 515.038 1428.82 514.953C1431.63 514.868 1434.06 515.778 1436.11 517.683C1438.1 519.524 1439.16 521.848 1439.28 524.653C1439.43 527.479 1438.58 529.919 1436.72 531.972C1435.42 533.329 1433.9 534.247 1432.15 534.727C1430.43 535.228 1428.69 535.294 1426.93 534.925C1425.22 534.555 1423.69 533.752 1422.36 532.517Z" fill="white"/>
<path d="M1459.56 566.997C1457.51 565.092 1456.41 562.737 1456.29 559.932C1456.16 557.126 1457.07 554.695 1459.02 552.639C1460.88 550.586 1463.21 549.517 1466.02 549.432C1468.82 549.348 1471.26 550.257 1473.31 552.162C1475.3 554.004 1476.35 556.327 1476.48 559.132C1476.63 561.959 1475.78 564.399 1473.92 566.452C1472.62 567.808 1471.1 568.726 1469.35 569.207C1467.63 569.708 1465.89 569.774 1464.13 569.405C1462.42 569.034 1460.89 568.231 1459.56 566.997Z" fill="white"/>
<path d="M1496.76 601.476C1494.7 599.571 1493.61 597.217 1493.49 594.411C1493.36 591.606 1494.27 589.175 1496.21 587.118C1498.08 585.065 1500.41 583.997 1503.22 583.912C1506.02 583.827 1508.45 584.737 1510.51 586.641C1512.5 588.483 1513.55 590.806 1513.68 593.612C1513.83 596.438 1512.98 598.878 1511.12 600.931C1509.82 602.287 1508.29 603.206 1506.55 603.686C1504.82 604.187 1503.08 604.253 1501.33 603.884C1499.61 603.513 1498.09 602.711 1496.76 601.476Z" fill="white"/>
<path d="M1533.96 635.955C1531.9 634.051 1530.81 631.696 1530.68 628.891C1530.56 626.085 1531.47 623.654 1533.41 621.598C1535.28 619.545 1537.61 618.476 1540.42 618.391C1543.22 618.306 1545.65 619.216 1547.71 621.121C1549.7 622.962 1550.75 625.286 1550.88 628.091C1551.03 630.918 1550.18 633.357 1548.32 635.41C1547.02 636.767 1545.49 637.685 1543.75 638.165C1542.02 638.666 1540.28 638.732 1538.53 638.363C1536.81 637.993 1535.29 637.19 1533.96 635.955Z" fill="white"/>
<path d="M1571.16 670.435C1569.1 668.53 1568.01 666.175 1567.88 663.37C1567.76 660.565 1568.67 658.134 1570.61 656.077C1572.47 654.024 1574.81 652.955 1577.62 652.87C1580.42 652.786 1582.85 653.696 1584.91 655.6C1586.9 657.442 1587.95 659.765 1588.08 662.571C1588.23 665.397 1587.38 667.837 1585.52 669.89C1584.22 671.246 1582.69 672.164 1580.95 672.645C1579.22 673.146 1577.48 673.212 1575.73 672.843C1574.01 672.472 1572.49 671.669 1571.16 670.435Z" fill="white"/>
<path d="M1608.36 704.914C1606.3 703.01 1605.21 700.655 1605.08 697.849C1604.96 695.044 1605.87 692.613 1607.81 690.557C1609.67 688.504 1612.01 687.435 1614.82 687.35C1617.62 687.265 1620.05 688.175 1622.11 690.079C1624.09 691.921 1625.15 694.245 1625.28 697.05C1625.43 699.876 1624.58 702.316 1622.72 704.369C1621.42 705.726 1619.89 706.644 1618.15 707.124C1616.42 707.625 1614.68 707.691 1612.93 707.322C1611.21 706.952 1609.69 706.149 1608.36 704.914Z" fill="white"/>
<path d="M1645.56 739.393C1643.5 737.489 1642.41 735.134 1642.28 732.329C1642.15 729.523 1643.06 727.092 1645.01 725.036C1646.87 722.983 1649.21 721.914 1652.01 721.829C1654.82 721.744 1657.25 722.654 1659.31 724.559C1661.29 726.4 1662.35 728.724 1662.48 731.529C1662.63 734.356 1661.78 736.795 1659.91 738.848C1658.62 740.205 1657.09 741.123 1655.35 741.603C1653.62 742.105 1651.88 742.171 1650.13 741.802C1648.41 741.431 1646.89 740.628 1645.56 739.393Z" fill="white"/>
<path d="M1319.35 282.231L1382.54 367.303L1478.66 345.769L1319.35 282.231Z" fill="white" fill-opacity="0.602"/>
<path d="M1600 142L1511 288L1600 247.973V142Z" fill="white"/>
<path d="M936 156L847 302L936 261.973V156Z" fill="white"/>
<path d="M292 717L203 863L292 822.973V717Z" fill="white"/>
<path d="M1705 1291.99V1364L1795 1240L1705 1291.99Z" fill="white" fill-opacity="0.602"/>
<path d="M1319 377V325.318L1256 288L1319 377Z" fill="white"/>
<path d="M999 201V149.318L936 112L999 201Z" fill="white"/>
<path d="M1655.88 1417.42L1691.03 1386.16L1678.52 1321L1655.88 1417.42Z" fill="white"/>
<path d="M1389 275L1479 223.018L1389 183V275Z" fill="white" fill-opacity="0.2"/>
<path d="M1738.95 1236.69L1830.16 1188.69L1752.11 1140L1738.95 1236.69Z" fill="white" fill-opacity="0.602"/>
<path d="M419 186L447 478L619 156L419 186Z" fill="#7799F1"/>
<path d="M397.721 371L316.72 581.829L437.186 528.97L397.721 371Z" fill="#4963BE"/>
<path d="M503.904 458L631.091 574L579.905 370L503.904 458Z" fill="white"/>
<path d="M1722.7 1407.92L1719.13 1448.15L1667.8 1472.88L1722.7 1407.92Z" fill="white"/>
</g>
<defs>
<clipPath id="clip0_1048_45">
<rect width="2000" height="2000" fill="white"/>
</clipPath>
</defs>
</svg>
