<svg width="2000" height="2000" viewBox="0 0 2000 2000" fill="none" xmlns="http://www.w3.org/2000/svg">
<g clip-path="url(#clip0_22_48)">
<path d="M1174 591C1067.54 756.604 1354 709.956 1410 671C1507 603.522 1682 543 1766 671C1934.3 927.458 1766.23 1348.21 1550 1547C1302 1775 726 1895 390 1763C131.151 1661.31 342 1467 437.999 1407C565.729 1327.17 534.687 1027.71 306 1135C77.3135 1242.29 193.126 754.008 437.999 531C662.001 327 881.999 159 1094 203C1333.54 252.716 1282 423 1174 591Z" fill="url(#paint0_linear_22_48)"/>
<path d="M1550.4 1119.72L1584 1094.05L1585.66 1157.97L1597.9 1137.96L1599.41 1180.88L1606.47 1169.66C1606.95 1174.42 1607.58 1186.37 1606.25 1196.18C1604.92 1205.98 1597.7 1224.81 1594.26 1233L1605.69 1231.71C1601.08 1255.63 1592.61 1282.55 1566.99 1298.33C1551.23 1308.04 1526.34 1309.93 1520.81 1310.35L1520.65 1310.36C1504.91 1311.06 1469.38 1303.7 1453.2 1268.71C1437.02 1233.73 1451.93 1189.5 1461.4 1171.76L1469.37 1184.82C1469.79 1180.24 1474.57 1168.7 1478.57 1162.49C1482.56 1156.27 1499.53 1138.34 1507.97 1133.21L1511.54 1143.68L1549.08 1104.8L1550.4 1119.72Z" fill="url(#paint1_linear_22_48)"/>
<path d="M1518.04 1235.08C1505.75 1261.91 1497.17 1281.73 1490.17 1301.69C1503.06 1277.16 1517.56 1249.38 1522.36 1238.01C1535.2 1207.64 1548.39 1175.48 1550.9 1162.45C1546.41 1167.64 1529.5 1210.04 1518.04 1235.08Z" fill="#81BD64"/>
<path d="M1407.21 1167.92L1381.76 1147.83L1379.72 1196.82L1370.57 1181.34L1368.9 1214.23L1363.62 1205.54C1363.2 1209.18 1362.57 1218.34 1363.47 1225.87C1364.37 1233.41 1369.68 1247.94 1372.22 1254.26L1363.47 1253.13C1366.72 1271.53 1372.89 1292.27 1392.34 1304.68C1404.32 1312.32 1423.38 1314.06 1427.62 1314.45L1427.74 1314.46C1439.8 1315.18 1467.13 1309.97 1479.96 1283.33C1492.78 1256.7 1481.89 1222.61 1474.83 1208.89L1468.57 1218.81C1468.3 1215.3 1464.77 1206.39 1461.78 1201.57C1458.8 1196.76 1446 1182.81 1439.59 1178.77L1436.72 1186.76L1408.4 1156.49L1407.21 1167.92Z" fill="url(#paint2_linear_22_48)"/>
<path d="M1430.65 1256.77C1439.74 1277.49 1446.09 1292.79 1451.21 1308.18C1441.63 1289.21 1430.84 1267.73 1427.29 1258.96C1417.81 1235.52 1408.08 1210.7 1406.32 1200.68C1409.7 1204.71 1422.16 1237.43 1430.65 1256.77Z" fill="#81BD64"/>
<g clip-path="url(#clip1_22_48)">
<path d="M1175.5 1182.5C1168.6 1166.3 1149.8 1158.7 1133.5 1165.5C1117.2 1172.3 1109.6 1191.2 1116.5 1207.4C1123.4 1223.6 1142.2 1231.3 1158.4 1224.4C1166.1 1221.2 1172.2 1215.1 1175.4 1207.4C1178.8 1199.5 1178.8 1190.5 1175.5 1182.5Z" fill="#FF2AD4"/>
<path d="M1121.4 1189.3H1129.6V1204.9V1211.3L1134.2 1206.9L1146.1 1195.7L1157.9 1206.9L1162.5 1211.3V1204.9V1189.3H1170.6C1171 1191.1 1171.2 1193 1171.2 1194.9C1171.2 1208.8 1159.9 1220.2 1146 1220.2C1132.1 1220.2 1120.7 1208.8 1120.7 1194.9C1120.7 1193 1120.9 1191.1 1121.4 1189.3ZM1119.3 1186.5C1114.7 1201.3 1122.9 1217 1137.7 1221.6C1152.5 1226.2 1168.2 1217.9 1172.7 1203.2C1173.5 1200.5 1174 1197.7 1174 1194.9C1174 1192.1 1173.6 1189.3 1172.7 1186.5H1159.8L1159.7 1204.9L1146.1 1191.8L1132.3 1204.9V1186.5H1119.3Z" fill="white"/>
<path d="M1132.3 1183.8H1135V1186.6V1198.6L1144.1 1189.9L1146 1188.1L1147.9 1189.9L1157 1198.5V1186.5V1183.8H1171.7C1165.5 1169.6 1148.9 1163.2 1134.8 1169.4C1128.4 1172.2 1123.2 1177.4 1120.4 1183.8H1132.3Z" fill="#FFCC00"/>
</g>
<ellipse cx="1571.43" cy="352.853" rx="294.373" ry="160.697" transform="rotate(-34.8173 1571.43 352.853)" fill="url(#paint3_linear_22_48)"/>
<path d="M210.473 1618.71C219.891 1753.69 362.523 1786.53 310.509 1874.37C258.737 1961.79 106.679 1826.44 64.7338 1685.01C27.4501 1559.3 100.645 1337.67 180.915 1396.23C242.174 1440.91 201.055 1483.73 210.473 1618.71Z" fill="url(#paint4_linear_22_48)"/>
<path d="M688.554 421.281C683.889 423.387 726.625 421.585 723.094 437.403C749.412 431.567 800.114 427.861 799.522 419.164C798.931 410.466 820.83 388.343 832.829 383.319C842.771 379.155 854.935 382.138 838.418 374.787C821.9 367.435 807.882 371.425 795.788 383.367C789.163 389.909 784.282 398.648 784.656 404.416C782.234 403.181 777.357 397.923 777.229 386.765C777.101 375.606 792.862 365.073 800.759 361.202C793.835 360.61 775.278 364.141 756.436 382.997C737.594 401.853 743.889 410.152 749.391 411.944C728.382 407.209 694.212 418.727 688.554 421.281Z" fill="url(#paint5_linear_22_48)"/>
<path d="M869.103 445.969C899.179 489.678 864.937 585.642 821.984 615.197C779.032 644.752 743.634 596.706 713.558 552.996C683.483 509.287 693.921 449.895 736.874 420.34C779.826 390.785 839.027 402.259 869.103 445.969Z" fill="url(#paint6_linear_22_48)"/>
<ellipse cx="736.242" cy="474.189" rx="6.03739" ry="14.4162" transform="rotate(-14.2245 736.242 474.189)" fill="#F79585"/>
<ellipse cx="719.553" cy="493.645" rx="6.03739" ry="14.4162" transform="rotate(-14.2245 719.553 493.645)" fill="#F79585"/>
<ellipse cx="755.645" cy="459.465" rx="6.03739" ry="14.4162" transform="rotate(-14.2245 755.645 459.465)" fill="#F79585"/>
<ellipse cx="776.598" cy="447.445" rx="6.03739" ry="14.4162" transform="rotate(-14.2245 776.598 447.445)" fill="#F79585"/>
<ellipse cx="801.252" cy="451.271" rx="6.03739" ry="14.4162" transform="rotate(-14.2245 801.252 451.271)" fill="#F79585"/>
<ellipse cx="827.457" cy="457.799" rx="6.03739" ry="14.4162" transform="rotate(-14.2245 827.457 457.799)" fill="#F79585"/>
<ellipse cx="849.606" cy="466.654" rx="6.03739" ry="14.4162" transform="rotate(-14.2245 849.606 466.654)" fill="#F79585"/>
<ellipse cx="751.091" cy="515.542" rx="4.96142" ry="11.847" transform="rotate(-14.2245 751.091 515.542)" fill="#F79585"/>
<ellipse cx="737.377" cy="531.53" rx="4.96142" ry="11.847" transform="rotate(-14.2245 737.377 531.53)" fill="#F79585"/>
<ellipse cx="767.037" cy="503.442" rx="4.96142" ry="11.847" transform="rotate(-14.2245 767.037 503.442)" fill="#F79585"/>
<ellipse cx="784.255" cy="493.564" rx="4.96142" ry="11.847" transform="rotate(-14.2245 784.255 493.564)" fill="#F79585"/>
<ellipse cx="804.515" cy="496.708" rx="4.96142" ry="11.847" transform="rotate(-14.2245 804.515 496.708)" fill="#F79585"/>
<ellipse cx="826.05" cy="502.073" rx="4.96142" ry="11.847" transform="rotate(-14.2245 826.05 502.073)" fill="#F79585"/>
<ellipse cx="844.252" cy="509.35" rx="4.96142" ry="11.847" transform="rotate(-14.2245 844.252 509.35)" fill="#F79585"/>
<ellipse cx="758.606" cy="559.87" rx="5.19057" ry="12.3941" transform="rotate(-14.2245 758.606 559.87)" fill="#F79585"/>
<ellipse cx="775.288" cy="547.212" rx="5.19057" ry="12.3941" transform="rotate(-14.2245 775.288 547.212)" fill="#F79585"/>
<ellipse cx="793.304" cy="536.877" rx="5.19057" ry="12.3941" transform="rotate(-14.2245 793.304 536.877)" fill="#F79585"/>
<ellipse cx="814.499" cy="540.166" rx="5.19057" ry="12.3941" transform="rotate(-14.2245 814.499 540.166)" fill="#F79585"/>
<ellipse cx="837.028" cy="545.779" rx="5.19057" ry="12.3941" transform="rotate(-14.2245 837.028 545.779)" fill="#F79585"/>
<ellipse cx="789.475" cy="583.01" rx="4.00577" ry="9.56506" transform="rotate(-14.2245 789.475 583.01)" fill="#F79585"/>
<ellipse cx="803.378" cy="575.035" rx="4.00577" ry="9.56506" transform="rotate(-14.2245 803.378 575.035)" fill="#F79585"/>
<ellipse cx="822.876" cy="574.661" rx="4.00577" ry="9.56506" transform="rotate(-14.2245 822.876 574.661)" fill="#F79585"/>
<path d="M869.103 445.969C899.179 489.678 864.937 585.642 821.984 615.197C779.032 644.752 743.634 596.706 713.558 552.996C683.483 509.287 693.921 449.895 736.874 420.34C779.826 390.785 839.027 402.259 869.103 445.969Z" fill="url(#paint7_linear_22_48)" fill-opacity="0.5"/>
<path d="M1039.38 656.312C987.333 626.285 922.295 663.882 922.295 723.936C922.295 783.99 951.313 836.033 998.877 868.141L1200.3 984.907L1200.8 984.717L1404.94 866.754L1039.38 656.312Z" fill="#FCADA7"/>
<g filter="url(#filter0_i_22_48)">
<path d="M998.878 868.136C951.314 836.027 922.297 781.966 922.297 723.93C922.297 695.354 937.247 671.509 958.506 658.01C957.496 658.577 959.515 657.442 958.506 658.01L639.878 837.037L588.718 867.947L553.834 888.007C575.787 876.841 603.29 875.958 627.829 890.215L715.577 940.176L792.474 984.649L996.607 1102.42L1200.24 984.775L998.815 868.01L998.878 868.136Z" fill="#F79792"/>
</g>
<g filter="url(#filter1_i_22_48)">
<path d="M1405 1102.55L996.665 1338.48L919.579 1294.01L919.264 1293.69L588.398 1102.55C565.751 1087.79 547.331 1067.67 534.336 1045.02C519.197 1018.91 510.996 988.878 510.996 957.778C510.996 929.77 525.063 906.619 545.502 892.867C548.278 891.164 550.99 889.587 553.892 888.073C575.845 876.907 603.348 876.024 627.887 890.281L715.13 940.62L792.027 984.904L792.532 984.715L996.665 1102.49L1200.29 984.841L1405 1102.49V1102.55Z" fill="#FC796F"/>
</g>
<path d="M294.346 1451.2C313.998 1419.26 328.401 1393.88 336 1368.81L405.838 1411.78C405.838 1411.78 365.091 1451.29 345.7 1482.8C337.262 1496.51 325.085 1514.14 335.089 1526.76C345.998 1540.52 470.447 1614.38 451.943 1644.45C449.847 1647.86 96.7258 1424.12 98.5606 1421.14C116.606 1391.83 236.565 1472.59 254.778 1477.34C272.99 1482.09 285.369 1465.79 294.346 1451.2Z" fill="#F3FEFF"/>
<g filter="url(#filter2_d_22_48)">
<path d="M730.159 1335.42C710.82 1366.85 685.481 1394.16 655.587 1415.8C625.693 1437.43 591.831 1452.97 555.934 1461.52C520.036 1470.07 482.806 1471.46 446.37 1465.62C409.933 1459.78 375.004 1446.82 343.575 1427.48C312.147 1408.14 284.836 1382.81 263.2 1352.91C241.565 1323.02 226.029 1289.16 217.481 1253.26C208.932 1217.36 207.538 1180.13 213.377 1143.69C219.217 1107.26 232.176 1072.33 251.514 1040.9L490.837 1188.16L730.159 1335.42Z" fill="#F3FEFF"/>
</g>
<g filter="url(#filter3_d_22_48)">
<rect x="257.803" y="984.887" width="610" height="88" rx="44" transform="rotate(31.6051 257.803 984.887)" fill="#F3FEFF"/>
</g>
<g filter="url(#filter4_i_22_48)">
<path d="M285.392 1201.47C279.367 1249.42 289.255 1331.83 272.557 1321.55C255.859 1311.28 239.338 1224.79 244.511 1176.31C249.685 1127.83 248.047 1105.69 282.964 1127.18C299.662 1137.45 291.418 1153.51 285.392 1201.47Z" fill="#E1F2F3"/>
</g>
<g filter="url(#filter5_i_22_48)">
<path d="M569.774 1381.15C529.683 1408.15 451.666 1436.46 468.364 1446.73C485.063 1457.01 569.712 1432.78 610.656 1406.31C651.6 1379.84 672.104 1371.32 637.186 1349.84C620.488 1339.56 609.866 1354.16 569.774 1381.15Z" fill="#E1F2F3"/>
</g>
<g filter="url(#filter6_i_22_48)">
<path d="M370.56 1253.87C357.918 1295.41 333.544 1389.61 316.845 1379.33C300.147 1369.06 303.898 1264.52 309.072 1216.04C314.245 1167.56 312.607 1145.42 347.525 1166.9C405.607 1202.64 383.202 1212.34 370.56 1253.87Z" fill="#E1F2F3"/>
</g>
<g filter="url(#filter7_i_22_48)">
<path d="M480.628 1326.3C449.249 1356.3 376.148 1420.52 392.846 1430.79C409.544 1441.07 501.172 1390.6 542.116 1364.13C583.06 1337.67 603.565 1329.15 568.647 1307.66C510.565 1271.92 512.007 1296.29 480.628 1326.3Z" fill="#E1F2F3"/>
</g>
<g filter="url(#filter8_i_22_48)">
<path d="M453.174 1304.71C413.542 1351.95 371.475 1417.65 354.777 1407.37C338.079 1397.1 371.283 1327.12 389.167 1277.07C407.05 1227.01 403.379 1202.45 449.369 1230.75C503.877 1264.29 492.805 1257.47 453.174 1304.71Z" fill="#E1F2F3"/>
</g>
<path d="M1534.4 1217.2C1564.01 1262.1 1573.94 1315.93 1562.02 1366.84C1550.09 1417.74 1517.28 1461.56 1470.8 1488.64C1424.32 1515.72 1367.99 1523.85 1314.19 1511.25C1260.39 1498.64 1213.53 1466.33 1183.92 1421.42L1359.16 1319.31L1534.4 1217.2Z" fill="url(#paint8_linear_22_48)"/>
<path d="M1498.74 1238.52C1520.26 1275.23 1526.31 1319 1515.56 1360.17C1504.81 1401.35 1478.15 1436.58 1441.43 1458.09C1404.71 1479.61 1360.95 1485.66 1319.77 1474.91C1278.59 1464.17 1243.37 1437.5 1221.85 1400.78L1360.3 1319.65L1498.74 1238.52Z" fill="#FFC380"/>
<path d="M1328.19 1356.81C1328.19 1356.81 1311 1396.09 1295.47 1416.59C1279.94 1437.09 1273.3 1432.07 1271.95 1431.05C1270.59 1430.02 1262.78 1424.09 1278.31 1403.59C1293.84 1383.09 1328.19 1356.81 1328.19 1356.81Z" fill="#FEFFBA"/>
<path d="M1406.59 1314.48C1406.59 1314.48 1441.52 1289.62 1465.38 1280.02C1489.24 1270.42 1492.35 1278.14 1492.99 1279.72C1493.62 1281.29 1497.27 1290.39 1473.41 1299.99C1449.56 1309.6 1406.59 1314.48 1406.59 1314.48Z" fill="#FEFFBA"/>
<path d="M1340.73 1349.55C1340.73 1349.55 1343.07 1401.28 1338.4 1432.28C1333.73 1463.28 1325.49 1462.05 1323.81 1461.8C1322.13 1461.54 1312.44 1460.07 1317.11 1429.07C1321.78 1398.08 1340.73 1349.55 1340.73 1349.55Z" fill="#FEFFBA"/>
<path d="M1390.33 1325.61C1390.33 1325.61 1441.75 1319.35 1473.01 1321.65C1504.27 1323.95 1503.67 1332.26 1503.54 1333.95C1503.42 1335.64 1502.69 1345.42 1471.43 1343.12C1440.16 1340.82 1390.33 1325.61 1390.33 1325.61Z" fill="#FEFFBA"/>
<path d="M1360.06 1341.26C1360.06 1341.26 1380.28 1392.07 1386.69 1424.61C1393.09 1457.15 1384.93 1458.77 1383.26 1459.1C1381.6 1459.42 1371.97 1461.31 1365.56 1428.77C1359.16 1396.23 1360.06 1341.26 1360.06 1341.26Z" fill="#FEFFBA"/>
<path d="M1380.66 1332.97C1380.66 1332.97 1421.46 1369.38 1449.83 1386.55C1478.2 1403.72 1482.52 1396.61 1483.4 1395.15C1484.28 1393.7 1489.35 1385.3 1460.98 1368.13C1432.6 1350.96 1380.66 1332.97 1380.66 1332.97Z" fill="#FEFFBA"/>
<path d="M1371.41 1341.03C1371.41 1341.03 1407.32 1378.34 1424.28 1404.71C1441.23 1431.08 1434.24 1435.59 1432.81 1436.51C1431.38 1437.42 1423.12 1442.72 1406.17 1416.35C1389.21 1389.99 1371.41 1341.03 1371.41 1341.03Z" fill="#FEFFBA"/>
<path d="M1064.12 318.18C1068.36 319.79 1030.51 320.436 1034.57 334.172C1010.98 330.411 965.979 329.799 965.986 322.114C965.993 314.43 945.341 296.106 934.446 292.312C925.418 289.167 914.852 292.428 929.004 285.096C943.157 277.764 955.774 280.542 967.163 290.419C973.402 295.83 978.23 303.265 978.242 308.36C980.308 307.147 984.303 302.265 983.755 292.439C983.207 282.614 968.663 274.169 961.459 271.174C967.538 270.292 984.137 272.429 1001.9 288.038C1019.65 303.646 1014.59 311.278 1009.83 313.143C1028.11 307.878 1058.97 316.229 1064.12 318.18Z" fill="url(#paint9_linear_22_48)"/>
<path d="M1055.81 391.276C1041.62 430.562 994.514 485.113 970.822 470.927C947.13 456.741 918.816 423.468 921.502 358.64C922.963 323.382 957.071 299.237 1001.89 304.202C1066.38 311.348 1067.24 359.655 1055.81 391.276Z" fill="#9B1C2E"/>
<path d="M1049.42 390.001C1036.6 425.338 994.265 474.474 973.075 461.786C951.885 449.098 926.601 419.27 929.169 361.01C930.566 329.324 961.184 307.543 1001.32 311.893C1059.08 318.153 1059.74 361.559 1049.42 390.001Z" fill="#841525"/>
<path d="M979.825 373.165C978.224 343.083 975.134 310.924 995.378 313.126C1014.53 315.209 1006.79 346.367 999.633 372.204C995.615 386.699 989.153 415.933 984.004 432.197C981.794 424.209 981.395 402.661 979.825 373.165Z" fill="#6F1522"/>
<path d="M979.074 351.448C979.179 349.023 979.073 346.178 978.962 343.216C978.921 342.112 978.879 340.992 978.848 339.871C978.729 335.678 978.744 331.38 979.378 327.443C980.012 323.503 981.247 320.053 983.467 317.46C985.628 314.938 988.839 313.09 993.726 312.497C999.207 313.318 1002.55 315.967 1004.58 319.594C1006.67 323.349 1007.42 328.279 1007.34 333.612C1007.21 342.534 1004.81 352.027 1003.31 357.946C1003.01 359.114 1002.75 360.143 1002.55 361.001C996.716 385.931 990.042 405.031 983.157 424.287C981.223 402.785 978.432 366.399 979.074 351.448Z" stroke="#F79585" stroke-width="3"/>
<ellipse cx="982.844" cy="435.73" rx="3.33397" ry="17.7812" transform="rotate(4.08548 982.844 435.73)" fill="#F69585"/>
<path d="M963.951 330.881C949.375 334.183 935.659 353.971 935.895 351.743C933.878 355.414 948.852 326.663 963.077 323.182C973.057 320.741 982.345 323.883 980.599 328.016C978.852 332.148 978.526 327.58 963.951 330.881Z" fill="#F69585"/>
<path d="M963.996 348.199C950.152 351.503 937.061 371.03 937.293 368.837C935.365 372.457 949.684 344.104 963.196 340.625C972.676 338.184 981.479 341.242 979.806 345.316C978.133 349.389 977.841 344.895 963.996 348.199Z" fill="#F69585"/>
<path d="M963.803 364.295C950.472 367.38 937.903 385.761 938.122 383.694C936.273 387.103 950.005 360.403 963.015 357.153C972.143 354.873 980.63 357.775 979.028 361.612C977.425 365.449 977.133 361.211 963.803 364.295Z" fill="#F69585"/>
<path d="M964.585 379.39C950.695 382.577 937.609 401.616 937.836 399.474C935.911 403.005 950.204 375.348 963.76 371.988C973.271 369.631 982.118 372.644 980.45 376.619C978.782 380.593 978.476 376.202 964.585 379.39Z" fill="#F69585"/>
<path d="M965.74 394.069C953.058 397.143 941.048 415.237 941.264 413.206C939.494 416.56 952.638 390.293 965.016 387.057C973.699 384.787 981.757 387.608 980.221 391.382C978.684 395.155 978.422 390.994 965.74 394.069Z" fill="#F69585"/>
<path d="M967.527 405.309C955.939 409.28 946.46 426.727 946.462 424.876C945.133 428.067 954.871 403.144 966.158 399.056C974.076 396.189 981.908 397.971 980.839 401.518C979.77 405.065 979.114 401.339 967.527 405.309Z" fill="#F69585"/>
<path d="M971.518 416.726C961.7 424.05 958.013 443.561 957.448 441.798C957.159 445.243 958.807 418.535 968.302 411.191C974.963 406.039 982.965 405.34 983.032 409.044C983.099 412.748 981.335 409.401 971.518 416.726Z" fill="#F69585"/>
<path d="M1022.14 339.462C1035.46 344.151 1046.51 365.168 1046.49 362.928C1048.04 366.776 1036.62 336.716 1023.64 331.883C1014.54 328.491 1005.58 330.725 1006.85 335.006C1008.11 339.287 1008.82 334.772 1022.14 339.462Z" fill="#F69585"/>
<path d="M1019.18 356.708C1032.46 361.323 1043.47 382.015 1043.45 379.809C1045 383.598 1033.62 354.003 1020.68 349.246C1011.6 345.908 1002.67 348.108 1003.93 352.323C1005.19 356.538 1005.9 352.092 1019.18 356.708Z" fill="#F69585"/>
<path d="M1015.88 372.842C1028.86 377.188 1039.61 396.687 1039.59 394.609C1041.11 398.179 1029.99 370.287 1017.35 365.807C1008.48 362.664 999.758 364.741 1000.99 368.714C1002.21 372.686 1002.91 368.496 1015.88 372.842Z" fill="#F69585"/>
<path d="M1011.98 386.571C1025.5 391.073 1036.7 411.276 1036.68 409.123C1038.26 412.822 1026.68 383.923 1013.51 379.282C1004.26 376.026 995.17 378.179 996.449 382.295C997.729 386.411 998.454 382.069 1011.98 386.571Z" fill="#F69585"/>
<path d="M1008.3 397.739C1020.63 402.012 1030.85 421.173 1030.83 419.131C1032.27 422.638 1021.7 395.234 1009.69 390.829C1001.27 387.738 992.976 389.776 994.144 393.679C995.312 397.582 995.972 393.465 1008.3 397.739Z" fill="#F69585"/>
<path d="M1003.17 409.923C1014.32 414.984 1022.09 433.258 1022.26 431.416C1023.28 434.719 1015.97 408.978 1005.13 403.83C997.52 400.218 989.553 401.242 990.278 404.875C991.003 408.508 992.012 404.862 1003.17 409.923Z" fill="#F69585"/>
<path d="M998.943 420.682C1008.01 428.912 1009.82 448.687 1010.55 446.986C1010.51 450.442 1011.42 423.699 1002.67 415.481C996.536 409.715 988.637 408.253 988.216 411.934C987.795 415.615 989.871 412.452 998.943 420.682Z" fill="#F69585"/>
<path d="M1049.42 390.001C1036.6 425.338 994.265 474.474 973.075 461.786C951.885 449.098 926.601 419.27 929.169 361.01C930.566 329.324 961.184 307.543 1001.32 311.893C1059.08 318.153 1059.74 361.559 1049.42 390.001Z" fill="url(#paint10_linear_22_48)"/>
<path d="M1228.63 489.034C1231.01 492.897 1200.61 470.347 1195.45 483.71C1179.04 466.355 1143.73 438.451 1148.42 432.362C1153.11 426.274 1147.9 399.161 1141.57 389.514C1136.33 381.52 1125.96 377.667 1141.65 380.477C1157.34 383.286 1165.65 393.176 1168.67 407.947C1170.32 416.039 1169.62 424.876 1166.52 428.924C1168.9 429.221 1175.04 427.784 1180.59 419.659C1186.14 411.534 1179.76 395.976 1175.87 389.212C1181.23 392.217 1193.09 404.025 1197.66 427.222C1202.23 450.418 1193.56 453.382 1188.66 451.964C1206.35 458.925 1225.74 484.35 1228.63 489.034Z" fill="url(#paint11_linear_22_48)"/>
<path d="M1177.51 541.936C1142.31 564.436 1071.73 578.993 1061.58 553.309C1051.44 527.624 1049.26 483.989 1090.89 434.221C1113.53 407.153 1155.29 408.791 1187.8 440.034C1234.58 484.994 1205.84 523.827 1177.51 541.936Z" fill="#9B1C2E"/>
<path d="M1173.22 537.028C1141.52 557.237 1078.01 570.405 1068.94 547.433C1059.87 524.461 1057.99 485.404 1095.53 440.772C1115.94 416.499 1153.49 417.883 1182.67 445.788C1224.65 485.945 1198.73 520.763 1173.22 537.028Z" fill="#841525"/>
<path d="M1128.29 481.274C1145.35 456.446 1162.49 429.063 1177.2 443.144C1191.12 456.464 1166 476.457 1144.58 492.581C1132.56 501.627 1109.63 520.87 1095.63 530.629C1098.75 522.949 1111.56 505.619 1128.29 481.274Z" fill="#6F1522"/>
<path d="M1140.93 463.597C1142.49 461.738 1144.14 459.417 1145.85 457.001C1146.49 456.101 1147.14 455.187 1147.8 454.279C1150.26 450.882 1152.89 447.483 1155.79 444.747C1158.7 442.01 1161.78 440.026 1165.12 439.324C1168.37 438.64 1172.04 439.131 1176.28 441.638C1180.12 445.629 1181.16 449.769 1180.56 453.878C1179.93 458.133 1177.52 462.495 1174.21 466.676C1168.67 473.671 1160.98 479.734 1156.18 483.515C1155.24 484.261 1154.4 484.918 1153.72 485.476C1133.9 501.689 1116.97 512.767 1099.78 523.841C1111.35 505.613 1131.31 475.061 1140.93 463.597Z" stroke="#F79585" stroke-width="3"/>
<ellipse cx="1092.56" cy="532.724" rx="3.33397" ry="17.7812" transform="rotate(41.6247 1092.56 532.724)" fill="#F69585"/>
<path d="M1141.47 438.074C1127.9 431.81 1104.96 439.144 1106.51 437.522C1102.67 439.203 1132.06 425.529 1145.46 431.437C1154.87 435.581 1160.32 443.733 1156.41 445.945C1152.51 448.158 1155.04 444.337 1141.47 438.074Z" fill="#F69585"/>
<path d="M1130.95 451.833C1117.96 446.018 1095.68 453.525 1097.2 451.928C1093.47 453.623 1122.1 439.866 1134.93 445.341C1143.93 449.181 1149.05 456.97 1145.24 459.18C1141.43 461.391 1143.94 457.649 1130.95 451.833Z" fill="#F69585"/>
<path d="M1120.99 464.479C1108.54 458.802 1087.37 465.719 1088.81 464.214C1085.26 465.79 1112.42 452.986 1124.72 458.335C1133.34 462.089 1138.31 469.562 1134.7 471.628C1131.09 473.693 1133.44 470.155 1120.99 464.479Z" fill="#F69585"/>
<path d="M1112.41 476.924C1099.46 470.989 1077.48 478.111 1078.96 476.551C1075.29 478.178 1103.47 464.957 1116.27 470.553C1125.25 474.479 1130.42 482.258 1126.68 484.394C1122.94 486.529 1125.37 482.86 1112.41 476.924Z" fill="#F69585"/>
<path d="M1104.38 489.267C1092.45 483.978 1071.91 491.008 1073.32 489.529C1069.87 491.11 1096.3 478.29 1108.08 483.266C1116.35 486.757 1121.02 493.904 1117.5 495.96C1113.99 498.016 1116.31 494.557 1104.38 489.267Z" fill="#F69585"/>
<path d="M1098.95 499.269C1087.34 495.357 1069.2 503.416 1070.33 501.95C1067.33 503.67 1090.24 489.841 1101.68 493.477C1109.7 496.028 1114.83 502.213 1111.82 504.374C1108.81 506.535 1110.56 503.181 1098.95 499.269Z" fill="#F69585"/>
<path d="M1095.16 510.753C1082.91 510.579 1068.1 523.803 1068.73 522.061C1066.4 524.616 1083.98 504.443 1095.98 504.405C1104.4 504.379 1111.18 508.7 1108.97 511.678C1106.77 514.656 1107.41 510.927 1095.16 510.753Z" fill="#F69585"/>
<path d="M1182.38 480.333C1190.08 492.167 1186.04 515.564 1187.38 513.774C1186.27 517.774 1195.53 486.978 1188.19 475.238C1183.03 467.002 1174.57 463.316 1172.96 467.48C1171.36 471.644 1174.67 468.498 1182.38 480.333Z" fill="#F69585"/>
<path d="M1169.52 492.205C1177.24 503.956 1173.36 527.073 1174.69 525.311C1173.61 529.26 1182.62 498.856 1175.26 487.201C1170.09 479.024 1161.67 475.328 1160.1 479.437C1158.53 483.546 1161.8 480.453 1169.52 492.205Z" fill="#F69585"/>
<path d="M1157.08 502.989C1164.72 514.34 1161.36 536.354 1162.61 534.693C1161.64 538.447 1169.82 509.558 1162.53 498.305C1157.41 490.409 1149.22 486.739 1147.78 490.638C1146.33 494.536 1149.44 491.637 1157.08 502.989Z" fill="#F69585"/>
<path d="M1145.61 511.494C1153.59 523.303 1150.17 546.15 1151.46 544.429C1150.46 548.324 1158.88 518.353 1151.27 506.647C1145.92 498.435 1137.4 494.6 1135.91 498.643C1134.41 502.687 1137.64 499.686 1145.61 511.494Z" fill="#F69585"/>
<path d="M1135.89 518.11C1143.07 529.011 1139.5 550.433 1140.73 548.802C1139.73 552.461 1148.05 524.291 1141.21 513.479C1136.41 505.894 1128.59 502.458 1127.14 506.265C1125.69 510.071 1128.72 507.209 1135.89 518.11Z" fill="#F69585"/>
<path d="M1124.4 524.642C1130.16 535.452 1125.18 554.674 1126.44 553.32C1125.24 556.559 1135.13 531.695 1129.67 521.006C1125.83 513.507 1118.89 509.464 1117.25 512.787C1115.62 516.109 1118.64 513.833 1124.4 524.642Z" fill="#F69585"/>
<path d="M1114.49 530.601C1116.67 542.654 1106.05 559.433 1107.67 558.529C1105.53 561.244 1122.55 540.597 1120.62 528.75C1119.27 520.438 1113.9 514.466 1111.32 517.128C1108.74 519.79 1112.32 518.547 1114.49 530.601Z" fill="#F69585"/>
<path d="M1173.22 537.028C1141.52 557.237 1078.01 570.405 1068.94 547.433C1059.87 524.461 1057.99 485.404 1095.53 440.772C1115.94 416.499 1153.49 417.883 1182.67 445.788C1224.65 485.945 1198.73 520.763 1173.22 537.028Z" fill="url(#paint12_linear_22_48)"/>
<path d="M706 702C706 730 668.613 798 640.999 798C613.384 798 649 751 654.999 702C660.141 660 640.999 622.5 663.999 616C691.5 613.5 706 655 706 702Z" fill="#8A594D"/>
<path d="M705.999 702C705.999 730 668.612 798 640.998 798C613.383 798 642.958 758.99 654.5 709.5C654.85 708 638.998 770 661.999 763.5C689.5 761 705.999 655 705.999 702Z" fill="#5C3B33"/>
<path d="M664.5 689.509C664.499 702.009 662.333 716.009 661 725.009C668 717.009 678 707.009 674.5 674.009C673.224 661.983 672 652.509 664.5 652.009C657 651.509 664.501 672.479 664.5 689.509Z" fill="#FFDCAA"/>
<ellipse cx="664.376" cy="640.686" rx="5.5" ry="7.3237" transform="rotate(-8.56003 664.376 640.686)" fill="#FFDCAA"/>
<circle cx="451.267" cy="753.091" r="144.386" transform="rotate(-16.9697 451.267 753.091)" fill="#F9D4D9"/>
<path d="M375.708 600.61C484.979 545.192 690.802 658.683 601.888 688.373C574.148 697.635 561.904 674.714 527.662 667.506C484.861 658.496 500.89 762.739 437.869 745.022C402.857 735.179 456.728 715.567 440.574 676.269C427.652 644.831 400.708 699.818 388.852 731.242C378.162 754.934 354.206 854.484 305.628 849.894C257.05 845.305 341.9 780 312.664 765.736C283.428 751.473 249.007 927.669 219.771 913.405C190.536 899.142 251.274 849.726 230.267 843.82C209.259 837.914 162.621 960.808 102.755 980.245C42.889 999.683 114.218 950.222 185.451 831.221C256.684 712.22 257.576 660.52 375.708 600.61Z" fill="#8A594D"/>
<path d="M526.781 624.946C542.779 608.891 452.219 595.421 404.239 590.496C413.294 585.612 445.174 578.732 505.858 591.863C581.713 608.276 614.129 624.17 626.215 652.899C636.739 677.917 620.102 684.048 602.456 693.066C584.809 702.083 541.564 672.443 524.029 671.018C491.895 668.407 494.007 765.715 436.226 746.826C407.283 737.365 434.886 713.443 438.454 706.651C446.581 691.18 442.914 674.66 429.401 668.972C410.484 661.009 371.352 786.768 359.363 810.599C347.375 834.429 330.08 855.287 296.928 848.582C272.978 843.738 307.207 798.581 313.091 784.368C314.993 779.774 310.682 766.06 306.765 765.211C316.488 760.64 336.07 753.427 339.643 766.52C344.108 782.887 364.058 728.049 382.785 691.001C401.511 653.953 430.943 636.965 459.847 650.708C471.511 656.254 470.157 678.541 487.157 658.385C504.157 638.23 506.783 645.013 526.781 624.946Z" fill="#5C3B33"/>
<path d="M240.219 729.125C274.773 666.682 321.158 625.32 348.443 615.612C335.185 634.552 294.983 684.83 279.144 707.578C264.192 729.051 196.163 819.982 160.019 871.437C157.386 875.58 155.314 878.576 153.935 880.163C155.838 877.408 157.872 874.492 160.019 871.437C175.855 846.517 212.011 780.098 240.219 729.125Z" fill="#FFDCAA"/>
<ellipse cx="291.533" cy="702.395" rx="12.0018" ry="38.1876" transform="rotate(33.13 291.533 702.395)" fill="#FFDCAA"/>
<circle cx="146.562" cy="146.562" r="146.562" transform="matrix(-0.871774 0.489908 0.489908 0.871774 931.148 1362.53)" fill="#E6FDFF"/>
<path d="M904.444 1402.14C806.804 1379.13 664.935 1509.16 741.412 1515.62C765.272 1517.64 770.591 1497.04 796.445 1484.69C828.763 1469.27 836.125 1555.3 882.852 1529.04C908.811 1514.46 862.162 1509.25 867.431 1474.86C871.647 1447.35 903.697 1485.91 919.195 1508.62C932.272 1525.41 970.545 1600 1008.31 1586.97C1046.08 1573.94 965.963 1538.36 986.473 1521.37C1006.98 1504.37 1068.37 1637.93 1088.88 1620.94C1109.39 1603.95 1051.53 1576.35 1067.1 1567.59C1082.68 1558.84 1143.5 1647.63 1194.89 1651.54C1246.28 1655.45 1179.98 1629.86 1100.33 1548.92C1020.69 1467.98 1010 1427.02 904.444 1402.14Z" fill="#BB2C37"/>
<path d="M774.788 1475.43C758.96 1465.74 842.561 1412.78 879.787 1399.6C871.64 1397.46 844.946 1398.14 799.194 1420.3C742.005 1448 717.789 1466.9 715.206 1492.09C712.888 1514.71 721.563 1524.17 737.788 1524.17C755.788 1524.17 785.517 1519.19 799.194 1514.67C824.259 1506.39 837.916 1566.13 882.787 1587.67C907.788 1599.67 910.096 1571.32 895.287 1533.67C890.049 1520.36 895.134 1509.81 904.788 1502.67C918.304 1492.69 943.65 1571.02 957.788 1587.67C971.926 1604.32 991.703 1615.4 1016.79 1603.67C1034.91 1595.2 1019.71 1573.35 1012.29 1563.17C1009.89 1559.88 980.834 1531.1 983.787 1529.67C975.169 1527.91 1003.79 1553.17 976.787 1553.17C962.896 1553.17 938.303 1501.3 916.253 1475.43C894.204 1449.57 874.133 1446.07 866.787 1468.67C860.287 1488.67 873.787 1553.17 828.788 1492.09C815.984 1474.71 794.573 1487.54 774.788 1475.43Z" fill="#7A1C23"/>
<path d="M1022.79 1464.17C967.876 1409.02 921.371 1403.13 897.787 1400.67C911.991 1413.18 958.786 1449.93 990.787 1478.25C1022.79 1506.58 1092.79 1559.17 1134.85 1581.78C1118.79 1563.67 1064.02 1505.59 1022.79 1464.17Z" fill="#FF6C78"/>
<ellipse cx="15.0013" cy="47.7313" rx="15.0013" ry="47.7313" transform="matrix(-0.685023 0.728521 0.728521 0.685023 958.34 1430.67)" fill="#FF6C78"/>
<ellipse cx="8.18109" cy="26.0308" rx="8.18109" ry="26.0308" transform="matrix(-0.685023 0.728521 0.728521 0.685023 948.996 1469.67)" fill="#FF6C78"/>
<path d="M1235.31 1676.34C1218.37 1676.2 1188.22 1672.51 1174.78 1667.45C1190.27 1678.68 1228.95 1701.89 1259.75 1704.88C1298.26 1708.61 1292.38 1693.31 1283.62 1687.93C1271.79 1680.66 1257.32 1676.52 1235.31 1676.34Z" fill="#BB2C37"/>
<path d="M562.692 270.299C585.908 279.714 587.733 299.676 585.743 308.481C574.541 309.294 552.945 311.559 534.125 304.141C510.769 294.936 496.479 272.979 486.662 260.788C502.331 260.035 539.475 260.885 562.692 270.299Z" fill="url(#paint13_linear_22_48)"/>
<path d="M553.706 284.913C561.562 287.394 580.664 300.352 585.74 306.48C578.732 301.487 566.746 292.042 553.709 287.714C538.7 282.731 525.691 278.145 517.486 275.554C528.359 278.809 545.501 282.323 553.706 284.913Z" fill="#6FB85E"/>
<path d="M562.692 270.299C585.908 279.714 587.733 299.676 585.743 308.481C574.541 309.294 552.945 311.559 534.125 304.141C510.769 294.936 496.479 272.979 486.662 260.788C502.331 260.035 539.475 260.885 562.692 270.299Z" fill="#0D1A4A" fill-opacity="0.4"/>
<path d="M524.226 282.97C558.135 273.773 577.117 294.509 582.369 306.027C570.555 316.443 548.369 337.302 521.063 344.997C487.177 354.547 452.586 342.165 431.279 336.889C448.133 322.748 490.317 292.168 524.226 282.97Z" fill="url(#paint14_linear_22_48)"/>
<path d="M526.601 306.911C537.476 303.012 569.799 301.262 580.667 303.796C568.606 304.17 547.208 303.801 528.982 310.035C507.996 317.212 489.582 323.135 478.223 327.208C493.124 321.612 515.242 310.983 526.601 306.911Z" fill="#6FB85E"/>
<path d="M607.316 432.699C594.848 402.459 571.704 335.815 578.873 311.16C587.835 280.341 517.701 467.85 520.579 505.871" stroke="url(#paint15_linear_22_48)" stroke-width="15"/>
<circle cx="39.6752" cy="39.6752" r="39.6752" transform="matrix(-0.991023 -0.133689 -0.133689 0.991023 571.455 496.72)" fill="url(#paint16_radial_22_48)"/>
<path d="M496.286 537.557C494.306 552.237 513.122 558.511 516.852 559.015C520.582 559.518 509.791 547.253 506.48 539.952C503.169 532.651 506.763 524.025 503.034 523.521C499.304 523.018 497.256 530.372 496.286 537.557Z" fill="#FF816C"/>
<ellipse cx="4.76102" cy="6.34803" rx="4.76102" ry="6.34803" transform="matrix(-0.919981 -0.391962 -0.391962 0.919981 512.912 508.744)" fill="#FF816C"/>
<circle cx="31.7401" cy="31.7401" r="31.7401" transform="matrix(-0.991023 -0.133689 -0.133689 0.991023 655.154 422.337)" fill="url(#paint17_radial_22_48)"/>
<path d="M595.018 455.007C593.434 466.75 608.487 471.77 611.471 472.172C614.454 472.575 605.822 462.763 603.173 456.922C600.524 451.081 603.4 444.18 600.416 443.778C597.432 443.375 595.794 449.258 595.018 455.007Z" fill="#FF816C"/>
<ellipse cx="3.80882" cy="5.07842" rx="3.80882" ry="5.07842" transform="matrix(-0.919981 -0.391962 -0.391962 0.919981 608.318 431.956)" fill="#FF816C"/>
<path d="M1445.65 1476.21C1449.6 1515.04 1437.89 1553 1413.1 1581.73C1388.32 1610.46 1352.49 1627.6 1313.49 1629.39C1274.5 1631.18 1235.53 1617.48 1205.17 1591.28C1174.81 1565.09 1155.53 1528.55 1151.59 1489.72L1298.62 1482.96L1445.65 1476.21Z" fill="url(#paint18_linear_22_48)"/>
<path d="M1415.55 1477.93C1417.05 1508.78 1406.23 1538.96 1385.47 1561.82C1364.71 1584.69 1335.72 1598.38 1304.87 1599.88C1274.02 1601.37 1243.85 1590.55 1220.98 1569.79C1198.11 1549.03 1184.42 1520.04 1182.93 1489.19L1299.24 1483.56L1415.55 1477.93Z" fill="#9BD674"/>
<path d="M1266.1 1496.67C1266.1 1496.67 1241.84 1516.15 1224.96 1524.11C1208.08 1532.08 1205.49 1526.62 1204.97 1525.5C1204.44 1524.39 1201.41 1517.95 1218.29 1509.98C1235.17 1502.02 1266.1 1496.67 1266.1 1496.67Z" fill="#B9FD8C"/>
<path d="M1330.74 1495.8C1330.74 1495.8 1361.57 1491.56 1380.14 1493.4C1398.71 1495.25 1398.12 1501.26 1398 1502.49C1397.88 1503.72 1397.17 1510.8 1378.59 1508.95C1360.02 1507.1 1330.74 1495.8 1330.74 1495.8Z" fill="#B9FD8C"/>
<path d="M1276.6 1496.21C1276.6 1496.21 1260.71 1530.27 1247.29 1548.64C1233.86 1567 1228.98 1563.44 1227.99 1562.72C1226.99 1561.99 1221.25 1557.78 1234.67 1539.42C1248.1 1521.05 1276.6 1496.21 1276.6 1496.21Z" fill="#B9FD8C"/>
<path d="M1316.55 1497.49C1316.55 1497.49 1351.72 1510.75 1371.05 1522.74C1390.38 1534.73 1387.21 1539.87 1386.56 1540.92C1385.91 1541.97 1382.15 1548.01 1362.82 1536.02C1343.49 1524.03 1316.55 1497.49 1316.55 1497.49Z" fill="#B9FD8C"/>
<path d="M1291.82 1497.38C1291.82 1497.38 1287.74 1536.86 1280.92 1559.94C1274.1 1583.02 1268.31 1581.31 1267.13 1580.96C1265.94 1580.61 1259.12 1578.59 1265.94 1555.51C1272.76 1532.43 1291.82 1497.38 1291.82 1497.38Z" fill="#B9FD8C"/>
<path d="M1307.85 1498.98C1307.85 1498.98 1321.85 1536.11 1334.33 1556.69C1346.8 1577.27 1351.97 1574.15 1353.02 1573.51C1354.08 1572.87 1360.16 1569.17 1347.69 1548.59C1335.21 1528.01 1307.85 1498.98 1307.85 1498.98Z" fill="#B9FD8C"/>
<path d="M1299.2 1501.05C1299.2 1501.05 1309.75 1537.12 1311.79 1559.78C1313.83 1582.43 1307.81 1582.98 1306.58 1583.09C1305.36 1583.2 1298.27 1583.83 1296.23 1561.18C1294.19 1538.52 1299.2 1501.05 1299.2 1501.05Z" fill="#B9FD8C"/>
<path d="M1786 1067C1727.81 1241.56 1978 1203 1834 1419C1763.94 1524.09 1614 1247 1662 1067C1692.88 951.201 1442 939 1526 827C1666 699 1830 935 1786 1067Z" fill="#8A594D"/>
<path d="M1718.36 934.294C1738.8 962.507 1756.81 997.646 1768.52 1020.14C1771.23 990.637 1777.45 951.713 1715.58 882.958C1693.04 857.902 1674.78 838.522 1657.03 849.659C1639.29 860.796 1690.51 895.858 1718.36 934.294Z" fill="#FFDCAA"/>
<ellipse cx="1632.24" cy="832.304" rx="15.3295" ry="20.4124" transform="rotate(-44.4873 1632.24 832.304)" fill="#FFDCAA"/>
<path d="M1944 1003C1944 1068.72 1912 1149 1864.56 1133C1826 1109 1864.56 1068.72 1864.56 1003C1864.56 937.278 1855.07 917 1864.56 895C1885.68 846.075 1944 937.278 1944 1003Z" fill="#8A594D"/>
<path d="M1855 1055.5C1864 1033.5 1864.5 994.5 1864.5 991.5C1869.17 1019.17 1864 1089 1890.5 1089C1909.27 1089 1944 1010 1944 1010C1944 1010 1938 1136 1874.5 1136C1831.5 1136 1847.44 1073.98 1855 1055.5Z" fill="#784D43"/>
<path d="M1669 1270C1646 1195 1646 1122.5 1665 1046C1686 1126.33 1739.2 1287.4 1788 1281C1836.8 1274.6 1703.55 1146 1788 1057C1786 1069.33 1781 1096.5 1781 1133.5C1781 1180.88 1854.12 1229.28 1876.5 1267C1903.5 1312.5 1857 1439 1795 1447C1733 1455 1699.29 1368.77 1669 1270Z" fill="#613F37"/>
<path d="M1756.1 851.252L1745.9 902.748" stroke="#71D67B" stroke-width="10" stroke-linecap="round"/>
<path d="M1588.91 997.732L1614.27 951.765" stroke="#FFEE8A" stroke-width="10" stroke-linecap="round"/>
<path d="M1854.96 1084.97L1880.32 1039" stroke="#FFEE8A" stroke-width="10" stroke-linecap="round"/>
<path d="M1697.54 1156.07L1731.74 1195.9" stroke="#FFEE8A" stroke-width="10" stroke-linecap="round"/>
<path d="M1805.36 1317.6L1791.46 1368.22" stroke="#FFEE8A" stroke-width="10" stroke-linecap="round"/>
<path d="M1718.96 1115.97L1744.32 1070" stroke="#5670D8" stroke-width="10" stroke-linecap="round"/>
<path d="M1933.69 1048.44L1907.4 1003" stroke="#5670D8" stroke-width="10" stroke-linecap="round"/>
<path d="M1818.96 1254.97L1844.32 1209" stroke="#5670D8" stroke-width="10" stroke-linecap="round"/>
<path d="M1776 1030.2L1819.35 1059.81" stroke="#71D67B" stroke-width="10" stroke-linecap="round"/>
<path d="M1549.11 833L1543.5 885.197" stroke="#71D67B" stroke-width="10" stroke-linecap="round"/>
<path d="M1598 851.197L1641.35 880.812" stroke="#5670D8" stroke-width="10" stroke-linecap="round"/>
<path d="M1690.51 1273.47L1740.84 1258.54" stroke="#71D67B" stroke-width="10" stroke-linecap="round"/>
<path d="M1756.43 965.274L1706.75 982.222" stroke="#DD28A4" stroke-width="10" stroke-linecap="round"/>
<path d="M1756.43 965.274L1706.75 982.222" stroke="#DD28A4" stroke-width="10" stroke-linecap="round"/>
<path d="M1756.43 965.274L1706.75 982.222" stroke="#DD28A4" stroke-width="10" stroke-linecap="round"/>
<path d="M1756.43 965.274L1706.75 982.222" stroke="#DD28A4" stroke-width="10" stroke-linecap="round"/>
<path d="M1756.43 965.274L1706.75 982.222" stroke="#DD28A4" stroke-width="10" stroke-linecap="round"/>
<path d="M1910.69 940.41L1861 957.358" stroke="#DD28A4" stroke-width="10" stroke-linecap="round"/>
<path d="M1910.69 940.41L1861 957.358" stroke="#DD28A4" stroke-width="10" stroke-linecap="round"/>
<path d="M1910.69 940.41L1861 957.358" stroke="#DD28A4" stroke-width="10" stroke-linecap="round"/>
<path d="M1910.69 940.41L1861 957.358" stroke="#DD28A4" stroke-width="10" stroke-linecap="round"/>
<path d="M1910.69 940.41L1861 957.358" stroke="#DD28A4" stroke-width="10" stroke-linecap="round"/>
<path d="M1734.02 1399.73L1729.66 1452.04" stroke="#DD28A4" stroke-width="10" stroke-linecap="round"/>
<path d="M1734.02 1399.73L1729.66 1452.04" stroke="#DD28A4" stroke-width="10" stroke-linecap="round"/>
<path d="M1734.02 1399.73L1729.66 1452.04" stroke="#DD28A4" stroke-width="10" stroke-linecap="round"/>
<path d="M1734.02 1399.73L1729.66 1452.04" stroke="#DD28A4" stroke-width="10" stroke-linecap="round"/>
<path d="M1734.02 1399.73L1729.66 1452.04" stroke="#DD28A4" stroke-width="10" stroke-linecap="round"/>
<path d="M1630 1054.34L1670.29 1088" stroke="#DD28A4" stroke-width="10" stroke-linecap="round"/>
<path d="M1630 1054.34L1670.29 1088" stroke="#DD28A4" stroke-width="10" stroke-linecap="round"/>
<path d="M1630 1054.34L1670.29 1088" stroke="#DD28A4" stroke-width="10" stroke-linecap="round"/>
<path d="M1630 1054.34L1670.29 1088" stroke="#DD28A4" stroke-width="10" stroke-linecap="round"/>
<path d="M1630 1054.34L1670.29 1088" stroke="#DD28A4" stroke-width="10" stroke-linecap="round"/>
<path d="M1257.53 517.782C1247.47 568.309 1294.36 627.547 1322.81 641.016C1334.61 617.647 1359.17 588.467 1356.13 533.252C1353.58 486.904 1299.1 446.219 1271.62 421.531C1268.62 439.118 1267.59 467.254 1257.53 517.782Z" fill="#61AB4F"/>
<path d="M1301.55 542.479C1304.43 563.976 1315.34 616.475 1322.46 640.47C1319.45 620.613 1312.8 576.356 1310.25 558.188C1307.69 540.02 1294.09 490.691 1287.6 468.298C1289.7 483.779 1298.67 520.982 1301.55 542.479Z" fill="#9BD674"/>
<path d="M1276.88 499.859C1280.61 511.528 1295.21 527.319 1302.05 533.755L1301.63 538.618C1297.12 534.102 1285.3 521.733 1280.33 513.567C1275.79 506.096 1270.77 489.016 1271.11 477.184C1271.47 479.88 1273.14 488.19 1276.88 499.859Z" fill="#9BD674"/>
<path d="M1286.71 558.987C1295.49 570.834 1301.76 573.784 1308.6 580.221L1310.18 585.773C1305.67 581.257 1289.44 572.116 1284.48 563.95C1279.94 556.48 1269.85 541.282 1270.19 529.45C1270.56 532.146 1279.42 549.14 1286.71 558.987Z" fill="#9BD674"/>
<path d="M1317.12 511.595C1316.02 524.242 1308.8 532.184 1305.66 541.389L1307.8 550.241C1309.75 543.921 1320.36 521.812 1320.96 511.927C1321.5 502.885 1320.75 481.065 1314.72 470.388C1315.68 473.036 1318.22 498.929 1317.12 511.595Z" fill="#9BD674"/>
<path d="M1332.9 527.988C1330.48 540.449 1317.38 558.473 1311.13 565.928L1312.15 570.88C1316.24 565.685 1326.9 551.519 1331.02 542.513C1334.78 534.273 1337.87 516.088 1336.08 503.954C1336.03 506.774 1335.33 515.527 1332.9 527.988Z" fill="#9BD674"/>
<path d="M1338.93 575.369C1334.24 587.856 1322.6 593.478 1316.35 600.933L1317.38 605.885C1321.46 600.69 1335.77 591.163 1339.89 582.157C1343.65 573.917 1350.9 538.36 1349.12 526.227C1349.06 529.046 1343.39 563.486 1338.93 575.369Z" fill="#9BD674"/>
<path d="M1288.81 588.307C1296.94 595.714 1306.08 600.437 1315.21 603.799L1316.79 608.605C1310.65 606.13 1296.42 599.194 1288.37 593.425C1281.01 588.148 1272.66 570.087 1268.17 558.671C1269.62 561.092 1281.75 581.862 1288.81 588.307Z" fill="#9BD674"/>
<g style="mix-blend-mode:multiply">
<path d="M1257.53 517.782C1247.47 568.309 1294.36 627.547 1322.81 641.016C1334.61 617.647 1359.17 588.467 1356.13 533.252C1353.58 486.904 1299.1 446.219 1271.62 421.531C1268.62 439.118 1267.59 467.254 1257.53 517.782Z" fill="url(#paint19_linear_22_48)"/>
</g>
<path d="M1373.71 507.035C1330.19 534.621 1319.68 609.433 1329.56 639.319C1354.62 631.73 1392.68 629.368 1430.55 589.067C1462.33 555.238 1454.18 487.733 1453.08 450.808C1438.28 460.771 1417.22 479.448 1373.71 507.035Z" fill="#61AB4F"/>
<path d="M1386.21 555.935C1372.64 572.857 1342.17 616.98 1329.72 638.691C1342.02 622.811 1369.45 587.454 1380.84 573.069C1392.23 558.684 1418.54 514.796 1430.27 494.649C1420.51 506.851 1399.78 539.014 1386.21 555.935Z" fill="#9BD674"/>
<path d="M1400.03 508.666C1394.16 519.422 1392.81 540.887 1392.86 550.275L1389.06 553.326C1389.21 546.947 1390.01 529.855 1392.49 520.626C1394.76 512.183 1403.66 496.762 1412.45 488.841C1410.76 490.968 1405.89 497.911 1400.03 508.666Z" fill="#9BD674"/>
<path d="M1364.02 556.588C1361.5 571.113 1363.7 577.692 1363.75 587.08L1360.83 592.056C1360.99 585.677 1356.4 567.625 1358.89 558.396C1361.16 549.953 1365.2 532.168 1373.99 524.246C1372.3 526.373 1366.11 544.516 1364.02 556.588Z" fill="#9BD674"/>
<path d="M1419.3 545.888C1409.39 553.823 1398.66 554.078 1389.83 558.153L1384.9 565.815C1390.82 562.861 1414.14 555.285 1421.71 548.896C1428.63 543.052 1443.9 527.449 1447.47 515.713C1446.22 518.241 1429.22 537.942 1419.3 545.888Z" fill="#9BD674"/>
<path d="M1418.33 568.626C1407.64 575.472 1385.55 578.427 1375.85 579.048L1372.97 583.208C1379.55 582.582 1397.16 580.52 1406.52 577.284C1415.08 574.323 1430.37 564.008 1437.92 554.342C1435.84 556.25 1429.02 561.779 1418.33 568.626Z" fill="#9BD674"/>
<path d="M1388.2 605.683C1375.92 610.905 1363.82 606.361 1354.12 606.983L1351.24 611.142C1357.82 610.516 1374.59 614.298 1383.95 611.062C1392.51 608.101 1423.24 588.809 1430.79 579.142C1428.72 581.051 1399.88 600.714 1388.2 605.683Z" fill="#9BD674"/>
<path d="M1344.25 578.343C1344.5 589.336 1347.39 599.213 1351.26 608.139L1348.86 612.594C1346.42 606.449 1341.62 591.36 1340.24 581.555C1338.98 572.584 1346.29 554.075 1351.46 542.953C1350.7 545.67 1344.04 568.78 1344.25 578.343Z" fill="#9BD674"/>
<g style="mix-blend-mode:multiply">
<path d="M1373.71 507.035C1330.19 534.621 1319.68 609.433 1329.56 639.319C1354.62 631.73 1392.68 629.368 1430.55 589.067C1462.33 555.238 1454.18 487.733 1453.08 450.808C1438.28 460.771 1417.22 479.448 1373.71 507.035Z" fill="url(#paint20_linear_22_48)"/>
</g>
<circle cx="76.9174" cy="76.9174" r="76.9174" transform="matrix(-0.942501 0.334204 0.334204 0.942501 1365.99 570.575)" fill="url(#paint21_linear_22_48)"/>
<path d="M1262.79 700.975C1285.95 738.725 1301.28 728.547 1301.28 728.547C1301.28 728.547 1284.01 706.801 1277.97 689.771C1266.44 661.315 1270.85 646.771 1260.1 644.798C1246.77 642.351 1247.48 676.03 1262.79 700.975Z" fill="#7D96F3"/>
<g style="mix-blend-mode:multiply">
<path d="M1289.79 739.881C1308.89 747.149 1331.67 747.951 1350.32 739.581C1368.97 731.211 1383.53 715.775 1390.79 696.67C1398.06 677.566 1396.85 654.027 1388.48 635.379C1380.11 616.73 1364.18 603.251 1345.07 595.983C1345.07 595.983 1366.74 651.517 1354.78 682.969C1342.81 714.421 1289.79 739.881 1289.79 739.881Z" fill="#4B62B9" fill-opacity="0.2"/>
</g>
<path d="M1357.19 613.386C1352.44 605.545 1338.07 603.495 1331.48 603.451C1329.92 601.359 1325.47 597.166 1320.2 597.13C1313.61 597.085 1299.41 599.125 1303.14 600.004L1303.14 600.004C1305.83 600.638 1319.28 603.807 1316.61 605.548C1305.39 606.351 1293.92 606.449 1289.31 609.671C1285.23 612.526 1304.05 611.061 1307.39 611.993C1305.38 614.822 1300.69 622.306 1298.02 629.605C1294.68 638.727 1314.81 623.651 1322.11 621.062C1329.41 618.474 1332.68 630.016 1340.23 628.133C1346.27 626.626 1339.92 619.513 1335.98 616.144C1345.03 618.492 1361.95 621.228 1357.19 613.386Z" fill="#293E91"/>
<circle cx="61.0213" cy="61.0213" r="61.0213" transform="matrix(-0.559867 0.828583 0.828583 0.559867 1378.33 513.8)" fill="url(#paint22_linear_22_48)"/>
<path d="M1373.89 645.655C1406.46 658.838 1411.45 645.119 1411.45 645.119C1411.45 645.119 1390.18 639.377 1378.3 631.351C1357.54 618.617 1353.5 607.258 1345.71 611.063C1336.04 615.783 1352.36 636.943 1373.89 645.655Z" fill="#7D96F3"/>
<g style="mix-blend-mode:multiply">
<path d="M1409.45 657.769C1425.07 653.407 1439.98 643.19 1447.94 629.062C1455.91 614.934 1457.93 598.222 1453.57 582.603C1449.2 566.984 1437.34 552.53 1423.21 544.57C1409.09 536.61 1392.56 535.512 1376.95 539.874C1376.95 539.874 1416.94 565.112 1424.12 590.825C1431.3 616.538 1409.45 657.769 1409.45 657.769Z" fill="#4B62B9" fill-opacity="0.2"/>
</g>
<path d="M1392.88 545.271C1386.15 542.505 1376.02 547.966 1371.79 551.042C1369.81 550.443 1364.99 549.861 1361.61 552.322C1357.38 555.398 1349.28 563.39 1352.07 562.194L1352.08 562.194C1354.09 561.331 1364.17 557.017 1363.29 559.386C1356.5 565.185 1349.23 570.651 1347.8 574.88C1346.54 578.626 1357.86 568.824 1360.44 567.843C1360.49 570.597 1361.02 577.582 1362.75 583.499C1364.92 590.896 1370.67 571.789 1374.11 566.698C1377.55 561.606 1385.07 567.433 1389 562.674C1392.15 558.867 1384.74 557.321 1380.64 557.024C1387.53 554.259 1399.61 548.037 1392.88 545.271Z" fill="#293E91"/>
<circle cx="61.0213" cy="61.0213" r="61.0213" transform="matrix(-1 0.0010209 0.0010209 1 1484.04 712.026)" fill="url(#paint23_linear_22_48)"/>
<path d="M1372.38 782.28C1379.72 816.64 1393.88 813.08 1393.88 813.08C1393.88 813.08 1386.71 792.248 1386.69 777.913C1385.6 753.582 1392.74 743.868 1385.22 739.55C1375.89 734.193 1367.52 759.575 1372.38 782.28Z" fill="#7D96F3"/>
<g style="mix-blend-mode:multiply">
<path d="M1382.29 818.52C1394.65 829.007 1411.48 835.628 1427.64 834.297C1443.8 832.966 1458.77 825.27 1469.26 812.901C1479.75 800.532 1485.06 782.606 1483.73 766.444C1482.4 750.282 1474.05 735.987 1461.68 725.5C1461.68 725.5 1463.21 772.768 1445.94 793.13C1428.68 813.493 1382.29 818.52 1382.29 818.52Z" fill="#4B62B9" fill-opacity="0.2"/>
</g>
<path d="M1466.14 741.723C1464.66 734.601 1454.46 729.269 1449.54 727.493C1448.92 725.515 1446.71 721.204 1442.77 719.783C1437.85 718.008 1426.69 715.779 1429.25 717.423L1429.25 717.423C1431.1 718.609 1440.32 724.535 1437.86 725.131C1429.26 722.765 1420.65 719.806 1416.35 720.998C1412.54 722.053 1427.01 725.933 1429.26 727.514C1427.01 729.099 1421.53 733.458 1417.6 738.211C1412.69 744.152 1431.73 738.196 1437.88 738.19C1444.02 738.184 1443.42 747.682 1449.56 748.269C1454.48 748.739 1451.6 741.737 1449.55 738.178C1455.7 742.327 1467.63 748.844 1466.14 741.723Z" fill="#293E91"/>
<circle cx="50.0143" cy="50.0143" r="50.0143" transform="matrix(-0.838067 0.545567 0.545567 0.838067 1525.14 580.972)" fill="url(#paint24_linear_22_48)"/>
<path d="M1479.76 679.116C1500.14 699.454 1508.29 690.686 1508.29 690.686C1508.29 690.686 1494.06 679.569 1487.65 669.723C1476.03 653.488 1476.6 643.623 1469.5 644.013C1460.7 644.495 1466.28 665.677 1479.76 679.116Z" fill="#7D96F3"/>
<g style="mix-blend-mode:multiply">
<path d="M1502.74 699.602C1515.93 701.288 1530.45 698.328 1540.96 690.198C1551.48 682.068 1558.33 670.094 1560.02 656.91C1561.7 643.726 1557.35 629.03 1549.22 618.515C1541.09 608.001 1528.97 601.905 1515.79 600.219C1515.79 600.219 1537.94 632.027 1535.16 653.731C1532.39 675.435 1502.74 699.602 1502.74 699.602Z" fill="#4B62B9" fill-opacity="0.2"/>
</g>
<path d="M1526.1 609.375C1521.9 605.142 1512.5 606.034 1508.33 607.008C1507.03 605.924 1503.58 603.95 1500.24 604.73C1496.07 605.705 1487.4 609.156 1489.89 609.144L1489.89 609.144C1491.69 609.135 1500.67 609.091 1499.25 610.598C1492.28 612.814 1485.04 614.622 1482.62 617.361C1480.47 619.787 1492.15 615.996 1494.4 616.076C1493.56 618.17 1491.74 623.615 1491.16 628.635C1490.44 634.911 1500.87 622.316 1505.09 619.568C1509.31 616.82 1513.14 623.619 1517.62 621.279C1521.21 619.408 1516.11 615.878 1513.11 614.348C1519.19 614.454 1530.3 613.609 1526.1 609.375Z" fill="#293E91"/>
</g>
<defs>
<filter id="filter0_i_22_48" x="553.834" y="657.846" width="648.402" height="494.577" filterUnits="userSpaceOnUse" color-interpolation-filters="sRGB">
<feFlood flood-opacity="0" result="BackgroundImageFix"/>
<feBlend mode="normal" in="SourceGraphic" in2="BackgroundImageFix" result="shape"/>
<feColorMatrix in="SourceAlpha" type="matrix" values="0 0 0 0 0 0 0 0 0 0 0 0 0 0 0 0 0 0 127 0" result="hardAlpha"/>
<feOffset dx="2" dy="50"/>
<feGaussianBlur stdDeviation="25"/>
<feComposite in2="hardAlpha" operator="arithmetic" k2="-1" k3="1"/>
<feColorMatrix type="matrix" values="0 0 0 0 0.803922 0 0 0 0 0.403922 0 0 0 0 0.439216 0 0 0 1 0"/>
<feBlend mode="normal" in2="shape" result="effect1_innerShadow_22_48"/>
</filter>
<filter id="filter1_i_22_48" x="510.996" y="879.637" width="894" height="508.842" filterUnits="userSpaceOnUse" color-interpolation-filters="sRGB">
<feFlood flood-opacity="0" result="BackgroundImageFix"/>
<feBlend mode="normal" in="SourceGraphic" in2="BackgroundImageFix" result="shape"/>
<feColorMatrix in="SourceAlpha" type="matrix" values="0 0 0 0 0 0 0 0 0 0 0 0 0 0 0 0 0 0 127 0" result="hardAlpha"/>
<feOffset dy="50"/>
<feGaussianBlur stdDeviation="25"/>
<feComposite in2="hardAlpha" operator="arithmetic" k2="-1" k3="1"/>
<feColorMatrix type="matrix" values="0 0 0 0 0.592157 0 0 0 0 0.243137 0 0 0 0 0.266667 0 0 0 0.8 0"/>
<feBlend mode="normal" in2="shape" result="effect1_innerShadow_22_48"/>
</filter>
<filter id="filter2_d_22_48" x="205.836" y="1038.9" width="528.322" height="436.261" filterUnits="userSpaceOnUse" color-interpolation-filters="sRGB">
<feFlood flood-opacity="0" result="BackgroundImageFix"/>
<feColorMatrix in="SourceAlpha" type="matrix" values="0 0 0 0 0 0 0 0 0 0 0 0 0 0 0 0 0 0 127 0" result="hardAlpha"/>
<feOffset dy="2"/>
<feGaussianBlur stdDeviation="2"/>
<feComposite in2="hardAlpha" operator="out"/>
<feColorMatrix type="matrix" values="0 0 0 0 0 0 0 0 0 0 0 0 0 0 0 0 0 0 0.25 0"/>
<feBlend mode="normal" in2="BackgroundImageFix" result="effect1_dropShadow_22_48"/>
<feBlend mode="normal" in="SourceGraphic" in2="effect1_dropShadow_22_48" result="shape"/>
</filter>
<filter id="filter3_d_22_48" x="208.211" y="985.413" width="572.59" height="401.572" filterUnits="userSpaceOnUse" color-interpolation-filters="sRGB">
<feFlood flood-opacity="0" result="BackgroundImageFix"/>
<feColorMatrix in="SourceAlpha" type="matrix" values="0 0 0 0 0 0 0 0 0 0 0 0 0 0 0 0 0 0 127 0" result="hardAlpha"/>
<feOffset dy="4"/>
<feGaussianBlur stdDeviation="10"/>
<feComposite in2="hardAlpha" operator="out"/>
<feColorMatrix type="matrix" values="0 0 0 0 0 0 0 0 0 0 0 0 0 0 0 0 0 0 0.25 0"/>
<feBlend mode="normal" in2="BackgroundImageFix" result="effect1_dropShadow_22_48"/>
<feBlend mode="normal" in="SourceGraphic" in2="effect1_dropShadow_22_48" result="shape"/>
</filter>
<filter id="filter4_i_22_48" x="243.545" y="1118.96" width="49.2871" height="207.468" filterUnits="userSpaceOnUse" color-interpolation-filters="sRGB">
<feFlood flood-opacity="0" result="BackgroundImageFix"/>
<feBlend mode="normal" in="SourceGraphic" in2="BackgroundImageFix" result="shape"/>
<feColorMatrix in="SourceAlpha" type="matrix" values="0 0 0 0 0 0 0 0 0 0 0 0 0 0 0 0 0 0 127 0" result="hardAlpha"/>
<feOffset dy="4"/>
<feGaussianBlur stdDeviation="2"/>
<feComposite in2="hardAlpha" operator="arithmetic" k2="-1" k3="1"/>
<feColorMatrix type="matrix" values="0 0 0 0 0 0 0 0 0 0 0 0 0 0 0 0 0 0 0.25 0"/>
<feBlend mode="normal" in2="shape" result="effect1_innerShadow_22_48"/>
</filter>
<filter id="filter5_i_22_48" x="466.057" y="1346.53" width="188.928" height="106.616" filterUnits="userSpaceOnUse" color-interpolation-filters="sRGB">
<feFlood flood-opacity="0" result="BackgroundImageFix"/>
<feBlend mode="normal" in="SourceGraphic" in2="BackgroundImageFix" result="shape"/>
<feColorMatrix in="SourceAlpha" type="matrix" values="0 0 0 0 0 0 0 0 0 0 0 0 0 0 0 0 0 0 127 0" result="hardAlpha"/>
<feOffset dy="4"/>
<feGaussianBlur stdDeviation="2"/>
<feComposite in2="hardAlpha" operator="arithmetic" k2="-1" k3="1"/>
<feColorMatrix type="matrix" values="0 0 0 0 0 0 0 0 0 0 0 0 0 0 0 0 0 0 0.25 0"/>
<feBlend mode="normal" in2="shape" result="effect1_innerShadow_22_48"/>
</filter>
<filter id="filter6_i_22_48" x="304.686" y="1158.69" width="80.8789" height="225.422" filterUnits="userSpaceOnUse" color-interpolation-filters="sRGB">
<feFlood flood-opacity="0" result="BackgroundImageFix"/>
<feBlend mode="normal" in="SourceGraphic" in2="BackgroundImageFix" result="shape"/>
<feColorMatrix in="SourceAlpha" type="matrix" values="0 0 0 0 0 0 0 0 0 0 0 0 0 0 0 0 0 0 127 0" result="hardAlpha"/>
<feOffset dy="4"/>
<feGaussianBlur stdDeviation="2"/>
<feComposite in2="hardAlpha" operator="arithmetic" k2="-1" k3="1"/>
<feColorMatrix type="matrix" values="0 0 0 0 0 0 0 0 0 0 0 0 0 0 0 0 0 0 0.25 0"/>
<feBlend mode="normal" in2="shape" result="effect1_innerShadow_22_48"/>
</filter>
<filter id="filter7_i_22_48" x="390.398" y="1289.89" width="196.047" height="146.266" filterUnits="userSpaceOnUse" color-interpolation-filters="sRGB">
<feFlood flood-opacity="0" result="BackgroundImageFix"/>
<feBlend mode="normal" in="SourceGraphic" in2="BackgroundImageFix" result="shape"/>
<feColorMatrix in="SourceAlpha" type="matrix" values="0 0 0 0 0 0 0 0 0 0 0 0 0 0 0 0 0 0 127 0" result="hardAlpha"/>
<feOffset dy="4"/>
<feGaussianBlur stdDeviation="2"/>
<feComposite in2="hardAlpha" operator="arithmetic" k2="-1" k3="1"/>
<feColorMatrix type="matrix" values="0 0 0 0 0 0 0 0 0 0 0 0 0 0 0 0 0 0 0.25 0"/>
<feBlend mode="normal" in2="shape" result="effect1_innerShadow_22_48"/>
</filter>
<filter id="filter8_i_22_48" x="350.217" y="1218.8" width="136.41" height="193.648" filterUnits="userSpaceOnUse" color-interpolation-filters="sRGB">
<feFlood flood-opacity="0" result="BackgroundImageFix"/>
<feBlend mode="normal" in="SourceGraphic" in2="BackgroundImageFix" result="shape"/>
<feColorMatrix in="SourceAlpha" type="matrix" values="0 0 0 0 0 0 0 0 0 0 0 0 0 0 0 0 0 0 127 0" result="hardAlpha"/>
<feOffset dy="4"/>
<feGaussianBlur stdDeviation="2"/>
<feComposite in2="hardAlpha" operator="arithmetic" k2="-1" k3="1"/>
<feColorMatrix type="matrix" values="0 0 0 0 0 0 0 0 0 0 0 0 0 0 0 0 0 0 0.25 0"/>
<feBlend mode="normal" in2="shape" result="effect1_innerShadow_22_48"/>
</filter>
<linearGradient id="paint0_linear_22_48" x1="442" y1="1559" x2="1686" y2="299" gradientUnits="userSpaceOnUse">
<stop stop-color="#FABD86"/>
<stop offset="0.539583" stop-color="#FF8E6E"/>
</linearGradient>
<linearGradient id="paint1_linear_22_48" x1="1552.62" y1="1088.01" x2="1509.87" y2="1309.86" gradientUnits="userSpaceOnUse">
<stop stop-color="#579262"/>
<stop offset="1" stop-color="#2B6736"/>
</linearGradient>
<linearGradient id="paint2_linear_22_48" x1="1405.89" y1="1143.57" x2="1436.01" y2="1314.21" gradientUnits="userSpaceOnUse">
<stop stop-color="#579262"/>
<stop offset="1" stop-color="#2B6736"/>
</linearGradient>
<linearGradient id="paint3_linear_22_48" x1="1313.91" y1="380.337" x2="1890.32" y2="311.72" gradientUnits="userSpaceOnUse">
<stop stop-color="#FBBE86"/>
<stop offset="1" stop-color="#FF8F6E"/>
</linearGradient>
<linearGradient id="paint4_linear_22_48" x1="164.458" y1="1385.75" x2="200.798" y2="1906.59" gradientUnits="userSpaceOnUse">
<stop stop-color="#FBB985"/>
<stop offset="1" stop-color="#FB9E7C"/>
</linearGradient>
<linearGradient id="paint5_linear_22_48" x1="751.747" y1="377.767" x2="805.321" y2="399.495" gradientUnits="userSpaceOnUse">
<stop stop-color="#4D7E41"/>
<stop offset="1" stop-color="#18460D"/>
</linearGradient>
<linearGradient id="paint6_linear_22_48" x1="736.874" y1="420.34" x2="855.217" y2="592.33" gradientUnits="userSpaceOnUse">
<stop stop-color="#D7223C"/>
<stop offset="1" stop-color="#9B1C2E"/>
</linearGradient>
<linearGradient id="paint7_linear_22_48" x1="736.874" y1="420.34" x2="855.217" y2="592.33" gradientUnits="userSpaceOnUse">
<stop stop-color="#9213A7" stop-opacity="0"/>
<stop offset="1" stop-color="#2C080D"/>
</linearGradient>
<linearGradient id="paint8_linear_22_48" x1="1316.33" y1="1432.54" x2="1534.67" y2="1231.62" gradientUnits="userSpaceOnUse">
<stop stop-color="#FFB25E"/>
<stop offset="1" stop-color="#DC660D"/>
</linearGradient>
<linearGradient id="paint9_linear_22_48" x1="1005.73" y1="283.19" x2="959.877" y2="305.477" gradientUnits="userSpaceOnUse">
<stop stop-color="#4D7E41"/>
<stop offset="1" stop-color="#18460D"/>
</linearGradient>
<linearGradient id="paint10_linear_22_48" x1="1043.09" y1="254.86" x2="986.393" y2="431.297" gradientUnits="userSpaceOnUse">
<stop stop-color="#841525" stop-opacity="0"/>
<stop offset="1" stop-color="#841536"/>
</linearGradient>
<linearGradient id="paint11_linear_22_48" x1="1203.65" y1="425.712" x2="1153.71" y2="415.449" gradientUnits="userSpaceOnUse">
<stop stop-color="#4D7E41"/>
<stop offset="1" stop-color="#18460D"/>
</linearGradient>
<linearGradient id="paint12_linear_22_48" x1="1250.54" y1="426.013" x2="1098.08" y2="531.372" gradientUnits="userSpaceOnUse">
<stop stop-color="#841525" stop-opacity="0"/>
<stop offset="1" stop-color="#841536"/>
</linearGradient>
<linearGradient id="paint13_linear_22_48" x1="574.721" y1="292.69" x2="484.06" y2="259.79" gradientUnits="userSpaceOnUse">
<stop stop-color="#194A0D"/>
<stop offset="1" stop-color="#4D7E41"/>
</linearGradient>
<linearGradient id="paint14_linear_22_48" x1="556.662" y1="297.755" x2="427.528" y2="337.984" gradientUnits="userSpaceOnUse">
<stop stop-color="#194A0D"/>
<stop offset="1" stop-color="#4D7E41"/>
</linearGradient>
<linearGradient id="paint15_linear_22_48" x1="623.199" y1="368.384" x2="557.854" y2="510.899" gradientUnits="userSpaceOnUse">
<stop stop-color="#18490C"/>
<stop offset="1" stop-color="#4F8143"/>
</linearGradient>
<radialGradient id="paint16_radial_22_48" cx="0" cy="0" r="1" gradientUnits="userSpaceOnUse" gradientTransform="translate(3.17401 -10.3155) rotate(54.758) scale(89.3846)">
<stop stop-color="#751919"/>
<stop offset="1" stop-color="#A32828"/>
</radialGradient>
<radialGradient id="paint17_radial_22_48" cx="0" cy="0" r="1" gradientUnits="userSpaceOnUse" gradientTransform="translate(2.53921 -8.25243) rotate(54.758) scale(71.5077)">
<stop stop-color="#751919"/>
<stop offset="1" stop-color="#A32828"/>
</radialGradient>
<linearGradient id="paint18_linear_22_48" x1="1233.01" y1="1541.38" x2="1440.98" y2="1485.57" gradientUnits="userSpaceOnUse">
<stop stop-color="#81BC63"/>
<stop offset="1" stop-color="#6B9A52"/>
</linearGradient>
<linearGradient id="paint19_linear_22_48" x1="1324.07" y1="630.811" x2="1266.28" y2="410.755" gradientUnits="userSpaceOnUse">
<stop stop-color="#427B34"/>
<stop offset="1" stop-color="#61AB4F" stop-opacity="0"/>
</linearGradient>
<linearGradient id="paint20_linear_22_48" x1="1337.82" y1="633.191" x2="1457.2" y2="439.51" gradientUnits="userSpaceOnUse">
<stop stop-color="#427B34"/>
<stop offset="1" stop-color="#61AB4F" stop-opacity="0"/>
</linearGradient>
<linearGradient id="paint21_linear_22_48" x1="76.9174" y1="0" x2="76.9174" y2="153.835" gradientUnits="userSpaceOnUse">
<stop stop-color="#5670D8"/>
<stop offset="1" stop-color="#2A3D88"/>
</linearGradient>
<linearGradient id="paint22_linear_22_48" x1="61.0213" y1="0" x2="61.0213" y2="122.043" gradientUnits="userSpaceOnUse">
<stop stop-color="#5670D8"/>
<stop offset="1" stop-color="#2A3D88"/>
</linearGradient>
<linearGradient id="paint23_linear_22_48" x1="61.0213" y1="0" x2="61.0213" y2="122.043" gradientUnits="userSpaceOnUse">
<stop stop-color="#5670D8"/>
<stop offset="1" stop-color="#2A3D88"/>
</linearGradient>
<linearGradient id="paint24_linear_22_48" x1="50.0143" y1="0" x2="50.0143" y2="100.029" gradientUnits="userSpaceOnUse">
<stop stop-color="#5670D8"/>
<stop offset="1" stop-color="#2A3D88"/>
</linearGradient>
<clipPath id="clip0_22_48">
<rect width="2000" height="2000" fill="white"/>
</clipPath>
<clipPath id="clip1_22_48">
<rect width="64" height="64" fill="white" transform="translate(1114 1163)"/>
</clipPath>
</defs>
</svg>
