<svg width="20" height="20" viewBox="0 0 20 20" fill="none" xmlns="http://www.w3.org/2000/svg">
<path d="M12.5 17.5C12.5 17.9193 12.2383 18.3672 11.7695 18.6797C11.3008 18.9922 10.6289 19.1667 10 19.1667C9.33594 19.1667 8.69922 18.9922 8.23047 18.6797C7.76172 18.3672 7.5 17.9193 7.5 17.5H12.5Z" fill="#227386"/>
<path d="M11.1903 1.98716V2.67947C13.9059 3.2142 15.9519 5.54245 15.9519 8.33331V9.0112C15.9519 10.7095 16.5955 12.3429 17.7561 13.6122L18.0314 13.9114C18.3439 14.254 18.422 14.7372 18.2286 15.1518C18.0351 15.5665 17.611 15.8333 17.1423 15.8333H2.85739C2.38867 15.8333 1.96351 15.5665 1.77148 15.1518C1.57945 14.7372 1.65626 14.254 1.96771 13.9114L2.24359 13.6122C3.40573 12.3429 4.0478 10.7095 4.0478 9.0112V8.33331C4.0478 5.54245 6.06034 3.2142 8.80945 2.67947V1.98716C8.80945 1.35002 9.34141 0.833313 9.99986 0.833313C10.6583 0.833313 11.1903 1.35002 11.1903 1.98716Z" fill="#227386"/>
<ellipse cx="17.0833" cy="2.91665" rx="2.08333" ry="2.08333" fill="#D34E50"/>
</svg>
