<svg fill="none" height="96" viewBox="0 0 96 96" width="96" xmlns="http://www.w3.org/2000/svg" xmlns:xlink="http://www.w3.org/1999/xlink"><linearGradient id="a" gradientUnits="userSpaceOnUse" x1="48" x2="48" y1="0" y2="96"><stop offset="0" stop-color="#1a936f"/><stop offset="1" stop-color="#dafe9f"/></linearGradient><clipPath id="b"><rect height="96" rx="48" width="96"/></clipPath><g clip-path="url(#b)"><path d="m96 0h-96v96h96z" fill="url(#a)"/><g stroke="#fff" stroke-width="2"><path d="m24.0001 49.6272c4.1534 11.4219 18.8021 13.9861 25.9997 13.0186.2338-.0314.4005-.2315.4001-.4675-.0067-3.8963-.1991-10.3837-5.7598-16.8711-5.5156-6.4349-16.4595-14.777-23.5596-18.7045-.3597-.1989-.8046.1292-.7611.5379.3975 3.7362.2244 12.9818 3.6807 22.4866z"/><path d="m69.6842 54.8056c-2.4735 6.4851-11.1175 8.0049-15.5148 7.5069-.2358-.0266-.4093-.2288-.4087-.4661.0082-2.659.1722-5.8525 3.4739-9.5252 3.2342-3.5974 9.5628-8.2314 13.8474-10.5618.3594-.1955.8147.1401.7813.5478-.1942 2.3721-.223 7.3696-2.1791 12.4984z"/><path d="m60.2681 33.9381c2.2685 6.5673-3.3984 13.2883-7.0896 15.7227-.1931.1274-.4487.0889-.6016-.0848-1.8478-2.1011-3.6248-4.5948-3.4497-9.5517.1708-4.8344 2.0489-12.4499 3.8385-16.9873.1501-.3805.7146-.4155.9506-.0814 1.3738 1.9435 4.5597 5.7941 6.3518 10.9825z"/><path d="m52.7998 66.2402c2.88 5.9201 6.432 17.664 1.44 21.12" stroke-linecap="round"/><path d="m31.6797 44.1602c.8 2.08 3.552 7.2 8.16 11.04s8.64 6.0799 10.08 6.72" stroke-linecap="round"/><path d="m54.2402 61.4398c2.72-1.6 8.64-5.568 10.56-8.64" stroke-linecap="round"/><path d="m55.2003 36.4805c-.32 4.1599-1.152 12.48-1.92 12.48" stroke-linecap="round"/></g></g></svg>