<svg width="24" height="24" viewBox="0 0 24 24" fill="none" xmlns="http://www.w3.org/2000/svg">
<path d="M15 21C15 21.5031 14.6859 22.0406 14.1234 22.4156C13.5609 22.7906 12.7547 23 12 23C11.2031 23 10.4391 22.7906 9.87656 22.4156C9.31406 22.0406 9 21.5031 9 21H15Z" fill="#232323"/>
<path d="M13.4279 2.38462V3.21538C16.6867 3.85707 19.1419 6.65096 19.1419 10V10.8135C19.1419 12.8514 19.9142 14.8115 21.307 16.3346L21.6373 16.6938C22.0123 17.1048 22.106 17.6846 21.8739 18.1822C21.6418 18.6798 21.1329 19 20.5704 19H3.42848C2.86601 19 2.35582 18.6798 2.12538 18.1822C1.89495 17.6846 1.98712 17.1048 2.36086 16.6938L2.69192 16.3346C4.08648 14.8115 4.85697 12.8514 4.85697 10.8135V10C4.85697 6.65096 7.27202 3.85707 10.5709 3.21538V2.38462C10.5709 1.62005 11.2093 1 11.9994 1C12.7896 1 13.4279 1.62005 13.4279 2.38462Z" fill="#232323"/>
<circle cx="20.5" cy="3.5" r="2.5" fill="#C00205"/>
</svg>
