<svg width="20" height="20" viewBox="0 0 20 20" fill="none" xmlns="http://www.w3.org/2000/svg">
<path fill-rule="evenodd" clip-rule="evenodd" d="M4.27148 8.01188C4.27148 9.27588 6.83529 10.3035 10.0007 10.3035C13.166 10.3035 15.7298 9.27588 15.7298 8.01188C15.7298 6.74788 13.166 5.72021 10.0007 5.72021C6.83529 5.72021 4.27148 6.74788 4.27148 8.01188ZM19.1673 8.29834C19.1673 5.45166 15.0638 3.14209 10.0007 3.14209C4.9375 3.14209 0.833984 5.45166 0.833984 8.29834C0.833984 11.145 4.9375 13.4546 10.0007 13.4546C15.0638 13.4546 19.1673 11.145 19.1673 8.29834ZM3.93454 9.73779C3.50163 9.32601 3.09342 8.74593 3.09342 8.01188C3.09342 7.27783 3.50163 6.69775 3.93454 6.28597C4.36458 5.88135 4.92676 5.56624 5.49251 5.32633C6.72786 4.84652 8.31055 4.57438 9.96842 4.57438C11.6908 4.57438 13.2734 4.84652 14.4766 5.32633C15.0745 5.56624 15.6367 5.88135 16.0664 6.28597C16.4997 6.69775 16.8757 7.27783 16.8757 8.01188C16.8757 8.74593 16.4997 9.32601 16.0664 9.73779C15.6367 10.1424 15.0745 10.4575 14.4766 10.6652C13.2734 11.1772 11.6908 11.4494 10.0007 11.4494C8.31055 11.4494 6.72786 11.1772 5.49251 10.6652C4.92676 10.4575 4.36458 10.1424 3.93454 9.73779ZM19.1673 11.2386C18.6947 11.8008 18.1038 12.2878 17.4486 12.6709V14.9805C18.5299 14.2285 19.1673 13.3047 19.1673 12.277V11.2386ZM16.3027 15.6071V13.3226C15.2858 13.7917 14.1221 14.1462 12.8652 14.361V16.6634C14.1615 16.4521 15.3324 16.0977 16.3027 15.6071ZM9.90337 14.5687C9.3533 14.5689 8.81281 14.5691 8.2819 14.515V16.8138C8.8022 16.8608 9.34137 16.8606 9.89058 16.8604C9.92723 16.8604 9.96392 16.8604 10.0007 16.8604C10.0374 16.8604 10.0741 16.8604 10.1107 16.8604C10.6599 16.8606 11.1991 16.8608 11.7194 16.8138V14.515C11.1885 14.5691 10.648 14.5689 10.0979 14.5687C10.0655 14.5687 10.0331 14.5687 10.0007 14.5687C9.96819 14.5687 9.93576 14.5687 9.90337 14.5687ZM7.13607 16.6634V14.361C5.87923 14.1462 4.71549 13.7917 3.69857 13.3226V15.6071C4.66895 16.0977 5.83984 16.4521 7.13607 16.6634ZM0.833984 12.277C0.833984 13.3047 1.471 14.2285 2.55273 14.9805V12.6709C1.89818 12.2878 1.307 11.8008 0.833984 11.2386V12.277Z" fill="#F7931A"/>
</svg>
