<svg width="72" height="84" viewBox="0 0 72 84" fill="none" xmlns="http://www.w3.org/2000/svg">
<path d="M1.12967 68.765C0.433381 71.2717 0.414629 73.9187 1.07535 76.435C1.73607 78.9513 3.05254 81.2466 4.89 83.086L15.2595 72.7011L4.89 62.3129C3.10079 64.102 1.80521 66.325 1.12967 68.765ZM56.7407 72.6913L67.1134 83.0762C68.4759 81.7125 69.5568 80.0934 70.2942 78.3112C71.0316 76.529 71.4112 74.6188 71.4112 72.6896C71.4112 70.7605 71.0316 68.8503 70.2942 67.0681C69.5568 65.2859 68.4759 63.6667 67.1134 62.3031L56.7407 72.6913ZM36.0017 62.3129L25.6322 51.928L4.89 31.1581C2.14007 33.9125 0.595189 37.648 0.595189 41.543C0.595189 45.438 2.14007 49.1736 4.89 51.928L25.6322 72.7011C28.3829 75.4543 32.1127 77.0009 36.0017 77.0009C39.8907 77.0009 43.6205 75.4543 46.3712 72.7011L67.1134 51.928C69.8625 49.1731 71.4069 45.4378 71.4069 41.543C71.4069 37.6482 69.8625 33.9129 67.1134 31.1581L36.0017 62.3129ZM36.0017 31.1581C34.6393 32.5215 33.5585 34.1404 32.8212 35.9223C32.0838 37.7042 31.7042 39.6141 31.7042 41.543C31.7042 43.4719 32.0838 45.3818 32.8212 47.1637C33.5585 48.9456 34.6393 50.5646 36.0017 51.928L51.556 36.3505C52.9185 34.9869 53.9993 33.3677 54.7368 31.5855C55.4742 29.8033 55.8537 27.8931 55.8537 25.964C55.8537 24.0348 55.4742 22.1246 54.7368 20.3424C53.9993 18.5603 52.9185 16.9411 51.556 15.5774L36.0017 31.1581ZM20.4474 15.5774C19.0853 16.9413 18.0049 18.5605 17.2677 20.3427C16.5305 22.1248 16.151 24.035 16.151 25.964C16.151 27.893 16.5305 29.8031 17.2677 31.5853C18.0049 33.3674 19.0853 34.9866 20.4474 36.3505L36.0017 20.7699C37.3641 19.4065 38.4449 17.7876 39.1823 16.0057C39.9196 14.2238 40.2992 12.3138 40.2992 10.3849C40.2992 8.45606 39.9196 6.5461 39.1823 4.7642C38.4449 2.9823 37.3641 1.36339 36.0017 0L20.4474 15.5774Z" fill="url(#paint0_linear_243_16074)"/>
<defs>
<linearGradient id="paint0_linear_243_16074" x1="36.0017" y1="0" x2="36.0017" y2="83.086" gradientUnits="userSpaceOnUse">
<stop stop-color="#F5595C"/>
<stop offset="1" stop-color="#F94167"/>
</linearGradient>
</defs>
</svg>
