<svg width="2000" height="2000" viewBox="0 0 2000 2000" fill="none" xmlns="http://www.w3.org/2000/svg">
<g clip-path="url(#clip0_45_18)">
<path d="M1783 941.001C1801.1 977.801 1669.99 1189.26 1647 1221L1647 1155C1667.32 1136.92 1753 1005 1753 953.001C1753 890.7 1712.39 821.486 1687.52 752.275C1678.91 715.945 1669.54 687.226 1689.61 636.008C1706.43 593.087 1612.71 467.747 1601.8 403.005C1613.9 437.317 1673.75 509.457 1688.28 546.204C1707.22 594.075 1728.03 592.525 1702.87 693.986C1689.44 748.132 1760.37 895.001 1783 941.001Z" fill="#317C3E"/>
<path d="M1523.72 336.133C1540.11 307.482 1589.19 303.765 1627.98 358.217C1666.78 412.67 1658.64 454.086 1648.17 480.828C1617.36 483.868 1589.73 469.094 1541.27 426.062C1506.31 377.26 1511.41 357.664 1523.72 336.133Z" fill="#317C3E"/>
<path d="M1541.27 557.293C1536.3 532.993 1562.15 506.541 1611.07 518.023C1659.99 529.504 1675.94 556.92 1683.3 577.208C1667.42 594.21 1650.05 611.928 1595.79 599.34C1551.85 589.145 1545 575.554 1541.27 557.293Z" fill="#317C3E"/>
<path d="M1561.77 650.646C1556.8 626.346 1582.66 599.895 1631.58 611.376C1680.5 622.857 1696.45 650.274 1703.81 670.562C1687.93 687.563 1670.56 705.282 1616.3 692.694C1572.35 682.498 1565.51 668.908 1561.77 650.646Z" fill="#317C3E"/>
<path d="M1770.98 696.81C1790.67 702.905 1810.84 724.026 1793.09 757.934C1775.33 791.842 1748.94 809.519 1731.69 805.873C1717.97 793.349 1704.26 772.02 1713.82 728.577C1721.56 693.391 1756.76 692.409 1770.98 696.81Z" fill="#317C3E"/>
<path d="M1872.66 932.965C1878.71 952.673 1870.9 986.396 1834.17 1001.08C1797.43 1015.75 1764.97 1008.07 1758.28 991.762C1760.9 973.372 1770.1 939.491 1811.38 922.935C1844.82 909.526 1868.3 918.735 1872.66 932.965Z" fill="#317C3E"/>
<path d="M1638.8 860.393C1634.56 880.567 1645.39 913.445 1683.3 924.74C1721.21 936.035 1752.84 925.446 1758.03 908.598C1753.75 890.521 1741.53 857.611 1698.92 844.859C1664.4 834.531 1641.86 845.826 1638.8 860.393Z" fill="#317C3E"/>
<path d="M1599.74 748.135C1595.5 768.309 1606.33 801.187 1644.24 812.482C1682.15 823.777 1713.78 813.188 1718.97 796.34C1714.69 778.263 1702.47 745.353 1659.86 732.601C1625.34 722.273 1602.8 733.568 1599.74 748.135Z" fill="#317C3E"/>
<path d="M1822.25 799.63C1835.97 809.488 1845.65 833.772 1821.66 862.454C1797.66 891.136 1771.65 902.569 1759.12 895.548C1749.6 869.566 1740.89 870.425 1767.82 818.176C1784.3 786.217 1812.33 792.512 1822.25 799.63Z" fill="#317C3E"/>
<path d="M1647.1 954.903C1655.44 940.199 1678.55 927.983 1709.63 948.771C1740.72 969.558 1754.86 994.202 1749.22 1007.4C1724.41 1019.66 1726.2 1028.22 1671.36 1007.03C1637.83 994.065 1641.09 965.519 1647.1 954.903Z" fill="#317C3E"/>
<path d="M1614.1 1031.9C1622.44 1017.2 1645.55 1004.98 1676.63 1025.77C1707.72 1046.56 1721.86 1071.2 1716.22 1084.4C1691.41 1096.66 1693.2 1105.22 1638.36 1084.03C1604.83 1071.06 1608.09 1042.52 1614.1 1031.9Z" fill="#317C3E"/>
<path d="M1866.08 1062.34C1870.9 1085.47 1857.9 1119.64 1806.05 1126.49C1754.21 1133.34 1716.6 1120.5 1710.34 1101.43C1725.1 1065.65 1715.32 1058.3 1792.49 1029.96C1839.69 1012.63 1862.61 1045.63 1866.08 1062.34Z" fill="#317C3E"/>
<path d="M1805.39 1235.84C1790.49 1254.18 1755.79 1265.68 1717.73 1229.82C1679.68 1193.95 1665.87 1156.69 1676.7 1139.79C1713.76 1128.63 1713.28 1116.4 1784 1158.33C1827.25 1183.97 1816.14 1222.59 1805.39 1235.84Z" fill="#317C3E"/>
<path d="M1710.98 404.608C1737.3 398.074 1767.36 425.111 1757.05 479.062C1746.73 533.013 1717.52 551.686 1695.69 560.648C1676.4 544.079 1658.4 514.543 1667.54 466.077C1676.67 417.612 1691.21 409.518 1710.98 404.608Z" fill="#317C3E"/>
<path d="M1790.49 546.824C1816.9 552.973 1831.38 590.727 1797.66 634.083C1763.93 677.44 1729.42 680.78 1705.91 678.836C1696.26 655.306 1689.27 626.495 1723.85 581.808C1754.03 542.801 1770.65 542.202 1790.49 546.824Z" fill="#317C3E"/>
<path d="M1538.29 458.055C1577.59 469.793 1643.56 709.69 1651.21 748.133L1602.81 703.27C1603.36 676.073 1564.84 523.562 1526.7 488.215C1481.01 445.866 1402.64 428.606 1334.97 399.798C1302.47 381.418 1275.04 368.766 1251.12 319.232C1231.07 277.724 1075.43 261.258 1020.53 225.253C1053.92 239.705 1147.51 244.844 1184.35 259.162C1232.33 277.814 1245.34 261.499 1302.65 348.919C1333.24 395.571 1489.17 443.383 1538.29 458.055Z" fill="#426671"/>
<path d="M955.025 131.393C966.511 100.453 1014.32 88.7733 1061.49 136.162C1108.66 183.55 1107.39 225.741 1101.42 253.832C1071.53 261.861 1041.86 251.795 987.02 217.251C944.56 174.811 946.393 154.646 955.025 131.393Z" fill="#426671"/>
<path d="M1024.97 352.127C1003.77 339.255 1001.95 302.311 1043.62 274.236C1085.29 246.162 1116.24 253.096 1136.13 261.489C1137.8 284.691 1138.99 309.474 1092.88 340.715C1055.53 366.019 1040.9 361.801 1024.97 352.127Z" fill="#426671"/>
<path d="M1174.96 422.945C1153.75 410.072 1151.93 373.128 1193.6 345.054C1235.27 316.979 1266.23 323.914 1286.11 332.306C1287.79 355.508 1288.98 380.292 1242.86 411.532C1205.51 436.836 1190.89 432.618 1174.96 422.945Z" fill="#426671"/>
<path d="M1351.02 300.885C1368.88 290.583 1398.08 290.146 1410.88 326.217C1423.68 362.288 1418.71 393.661 1404.31 403.834C1385.79 405.384 1360.83 400.94 1335.47 364.4C1314.92 334.804 1338.13 308.323 1351.02 300.885Z" fill="#426671"/>
<path d="M1593.35 386.829C1611.91 395.789 1631.34 424.44 1617.13 461.362C1602.93 498.284 1575.23 516.866 1558.72 510.692C1547.02 496.264 1528.41 466.493 1544.34 424.958C1557.23 391.317 1579.94 380.36 1593.35 386.829Z" fill="#426671"/>
<path d="M1381.15 509.026C1393.06 525.85 1424.54 540.256 1458.6 520.126C1492.65 499.996 1506.38 469.602 1497.56 454.34C1481.39 445.192 1448.94 431.783 1410.62 454.371C1379.59 472.666 1372.55 496.879 1381.15 509.026Z" fill="#426671"/>
<path d="M1272.26 461.368C1284.18 478.192 1315.65 492.598 1349.71 472.468C1383.76 452.339 1397.5 421.944 1388.67 406.682C1372.5 397.534 1340.06 384.125 1301.74 406.713C1270.7 425.008 1263.66 449.221 1272.26 461.368Z" fill="#426671"/>
<path d="M1461.28 333.173C1477.84 329.805 1502.23 339.216 1506.96 376.31C1511.69 413.404 1502.39 440.257 1488.73 444.669C1463.19 433.996 1457.9 440.968 1437.89 385.695C1425.65 351.886 1449.32 335.604 1461.28 333.173Z" fill="#426671"/>
<path d="M1456.11 567.176C1451 551.069 1457.74 525.816 1494.12 517.148C1530.5 508.48 1558.19 514.854 1564.04 527.965C1556.16 554.493 1563.65 559.007 1510.84 584.815C1478.53 600.601 1459.81 578.805 1456.11 567.176Z" fill="#426671"/>
<path d="M1490.16 643.72C1485.04 627.613 1491.79 602.36 1528.16 593.692C1564.54 585.024 1592.23 591.398 1598.08 604.509C1590.2 631.037 1597.7 635.551 1544.88 661.359C1512.58 677.145 1493.86 655.35 1490.16 643.72Z" fill="#426671"/>
<path d="M1683.76 479.593C1704.01 491.79 1720.22 524.551 1690.01 567.231C1659.79 609.911 1624.81 628.775 1606.57 620.397C1590.36 585.252 1578.32 587.43 1609.99 511.567C1629.36 465.165 1669.14 470.786 1683.76 479.593Z" fill="#426671"/>
<path d="M1769.76 642.046C1773.09 665.445 1757.93 698.711 1705.76 702.245C1653.59 705.779 1616.87 690.578 1611.84 671.141C1628.85 636.379 1619.55 628.418 1698.37 605.051C1746.58 590.758 1767.35 625.151 1769.76 642.046Z" fill="#426671"/>
<path d="M1158.05 121.56C1181.32 107.654 1217.96 124.773 1223.78 179.392C1229.61 234.01 1207.09 260.376 1188.82 275.3C1165.54 265.06 1139.73 242.038 1134.37 193.011C1129.01 143.984 1140.56 132.012 1158.05 121.56Z" fill="#426671"/>
<path d="M1254.28 184.617C1276.74 169.429 1314.27 184.472 1323.15 238.678C1332.02 292.884 1311.01 320.47 1293.6 336.393C1269.79 327.473 1243.91 313.015 1234.63 257.281C1226.54 208.631 1237.4 196.031 1254.28 184.617Z" fill="#426671"/>
<path d="M685 1701C630.6 1672.2 625 1601 629 1569L1389 1441C1419.67 1443.67 1477.13 1488.17 1529 1493C1647 1504 1681 1457 1733 1417C1730.33 1459.67 1703.4 1554.6 1617 1593C1530.6 1631.4 1461 1563.67 1437 1525C1431.67 1573 1402.6 1682.6 1329 1737C1255.4 1791.4 1114.33 1735.67 1053 1701C953 1713 739.4 1729.8 685 1701Z" fill="url(#paint0_linear_45_18)"/>
<path d="M1639 1379C1630.27 1402.29 1597.69 1426.25 1578.33 1437.91C1575.85 1439.4 1575.64 1442.93 1578.16 1444.37C1604.69 1459.5 1659.28 1461 1706 1404C1740.31 1362.14 1670.51 1286.13 1665 1299C1656 1320 1651 1347 1639 1379Z" fill="url(#paint1_linear_45_18)"/>
<path d="M1752.5 1422.5C1757.3 1403.3 1733.55 1360.86 1749.5 1358.5C1763 1356.5 1796.09 1397.73 1793 1424C1789 1458 1760.5 1471 1752.5 1471C1743.96 1471 1746.5 1446.5 1752.5 1422.5Z" fill="url(#paint2_linear_45_18)"/>
<path d="M1415 1753C1445.4 1740.2 1429 1645.82 1441 1641C1475 1627.34 1521 1737 1489 1783C1451.81 1836.45 1377 1823 1333 1817C1289 1811 1377 1769 1415 1753Z" fill="url(#paint3_linear_45_18)"/>
<path d="M1497 1619C1488 1585 1665.66 1692.94 1659 1699C1637 1719 1573.2 1707 1546 1699C1512 1689 1506 1653 1497 1619Z" fill="#B0FBCC"/>
<path d="M638 1743C637 1693 579 1669 574 1669C577 1673 598.793 1688.49 595 1724C584 1827 529 1820 511 1827C493 1834 511 1770 529 1730C543.4 1698 523 1648.67 511 1628L471 1592C473.667 1598 477.4 1621.8 471 1669C463 1728 349 1724 316 1708C283 1692 378 1662 397 1646C412.2 1633.2 415.333 1584.67 415 1562L392 1523C393.667 1536 393.2 1571.6 378 1610C362.8 1648.4 281 1638 262 1628C270 1606 315.6 1589.6 334 1560C352.4 1530.4 361.333 1469.33 356 1460C346.667 1478.67 318.8 1519.4 282 1533C245.2 1546.6 215.333 1527.33 205 1516C204.333 1508 211 1492.2 243 1493C283 1494 284 1442 302 1425C316.4 1411.4 314 1383.33 311 1371C312.667 1364.67 305.2 1357 262 1377C218.8 1397 190 1362.67 181 1343C174.333 1327.33 167.2 1300.6 192 1319C223 1342 281 1318 297 1319C309.8 1319.8 305.666 1307.33 302 1301C297 1301.33 278.2 1301.8 243 1301C207.8 1300.2 187 1256 181 1234C191.666 1234 219 1239 243 1259C267 1279 301.667 1258 316 1245C294 1226.67 251 1188.2 255 1181C259 1173.8 316 1205.33 344 1222L349 1273L362 1234H397L356 1362C370.333 1361 402.2 1361.2 415 1370C427.8 1378.8 507.667 1349.67 546 1334C542 1349.67 526.2 1387.2 495 1412C463.8 1436.8 396.667 1416.33 367 1403C364.333 1401.33 359.6 1403.4 362 1425C365 1452 399 1459 453 1466C496.2 1471.6 594.333 1447.67 638 1435C616.666 1457.67 561.4 1507.4 511 1525C462.737 1541.85 434.465 1533.15 425.129 1525.95C450.602 1547.26 503.66 1588.85 521 1592C538.6 1595.2 655 1554 711 1533C701.667 1558.33 676.4 1612.8 650 1628C623.6 1643.2 588.333 1642.33 574 1640C584.666 1645.67 608.2 1658 617 1662C628 1667 829 1588 842 1583C855 1578 854 1649 815 1681C783.8 1706.6 732.667 1709.67 711 1708C733 1712.67 784.6 1722.4 815 1724C845.4 1725.6 940.333 1692 984 1675C983 1697.67 965 1751.8 901 1787C837 1822.2 735 1772.33 692 1743C705 1781.33 719.4 1863 673 1883C626.6 1903 594.333 1891.33 584 1883C580.666 1877 580.4 1863.6 606 1858C638 1851 639 1793 638 1743Z" fill="url(#paint4_linear_45_18)"/>
<path d="M710 298C739 307 793 354 792 368C769 375.333 723.768 386.088 704.5 381.5C683.5 376.5 648.167 358 631.5 356C633 338 694.333 337.333 723 340C717.337 332.449 682.017 312.338 655.681 297.285C651.081 294.655 653.206 287.96 658.471 288.557C674.656 290.39 695.173 293.399 710 298Z" fill="#327B40"/>
<path d="M851 266C813.8 293.6 803.833 335.5 803.5 353H860C859.167 347.333 868.5 326 870.5 308C873 285.5 942 217.5 942.5 209.5C943 201.5 897.5 231.5 851 266Z" fill="#327B40"/>
<path d="M761.5 240C769.5 278.833 787.2 358 794 364" stroke="#327B40" stroke-width="10" stroke-linecap="round"/>
<path d="M545 345.481C565.096 379.66 607.382 448.888 615.754 452.375" stroke="#327B40" stroke-width="12" stroke-linecap="round"/>
<path d="M441 497.936C469.001 511.713 526.902 538.819 534.503 537.021" stroke="#327B40" stroke-width="12" stroke-linecap="round"/>
<path d="M410 562C425.2 542.8 475 540 498 541C502 556.667 504.4 584.2 482 569C459.6 553.8 428 570 415 580C407 582 394.8 581.2 410 562Z" fill="#327B40"/>
<path d="M482 469C482 484.2 492.667 516 498 530L532 505C515.333 486.667 482 453.8 482 469Z" fill="#327B40"/>
<path d="M434 425C424 440 526.333 476 556 491L594 440C540 425 437.883 419.176 434 425Z" fill="#327B40"/>
<path d="M605 338C596.2 382.8 608.667 418 616 430L646 425L622 298C620 292.667 613.8 293.2 605 338Z" fill="#327B40"/>
<circle cx="756.5" cy="207.5" r="97.5" fill="url(#paint5_radial_45_18)"/>
<circle cx="397.5" cy="484.5" r="75.5" fill="url(#paint6_radial_45_18)"/>
<circle cx="499" cy="270" r="149" fill="url(#paint7_radial_45_18)"/>
<g opacity="0.5">
<path d="M467.982 203.574L532.019 356.425" stroke="white" stroke-width="10" stroke-linecap="round"/>
<path d="M512.936 198.155L487.063 361.845" stroke="white" stroke-width="10" stroke-linecap="round"/>
<path d="M585.109 265.106L421 288.174" stroke="white" stroke-width="10" stroke-linecap="round"/>
<path d="M570.068 323.092L433.647 229" stroke="white" stroke-width="10" stroke-linecap="round"/>
<path d="M563.453 217.143L446 334.056" stroke="white" stroke-width="10" stroke-linecap="round"/>
</g>
<g opacity="0.5">
<path d="M740.846 166.638L778.558 256.653" stroke="white" stroke-width="7" stroke-linecap="round"/>
<path d="M767.319 163.447L752.083 259.845" stroke="white" stroke-width="7" stroke-linecap="round"/>
<path d="M809.823 202.875L713.178 216.46" stroke="white" stroke-width="7" stroke-linecap="round"/>
<path d="M800.965 237.023L720.626 181.612" stroke="white" stroke-width="7" stroke-linecap="round"/>
<path d="M797.069 174.629L727.9 243.48" stroke="white" stroke-width="7" stroke-linecap="round"/>
</g>
<g opacity="0.5">
<path d="M385.526 453.208L413.668 520.381" stroke="white" stroke-width="6" stroke-linecap="round"/>
<path d="M405.282 450.826L393.912 522.763" stroke="white" stroke-width="6" stroke-linecap="round"/>
<path d="M437 480.249L364.879 490.386" stroke="white" stroke-width="6" stroke-linecap="round"/>
<path d="M430.39 505.732L370.437 464.382" stroke="white" stroke-width="6" stroke-linecap="round"/>
<path d="M427.482 459.17L375.865 510.55" stroke="white" stroke-width="6" stroke-linecap="round"/>
</g>
<path d="M989 1716C1375.6 1716 1689 1402.6 1689 1016C1689 629.401 1375.6 316 989 316C602.401 316 289 629.401 289 1016C289 1402.6 602.401 1716 989 1716Z" fill="#CC7915"/>
<path d="M1574.33 1161.01L1575.89 1154.79H1575.85C1650.67 842.309 1458.57 527.435 1144.28 449.562C827.987 371.175 507.535 562.534 428.687 877.054C349.767 1191.53 542.343 1510.04 858.609 1588.43C1175 1666.84 1495.45 1475.49 1574.33 1161.01Z" fill="#F7931A" stroke="#FFBA67" stroke-width="10"/>
<path d="M1261.14 931.941C1272.95 852.959 1212.82 810.503 1130.6 782.181L1157.27 675.193L1092.14 658.965L1066.18 763.136C1049.06 758.866 1031.47 754.842 1014 750.853L1040.15 645.995L975.067 629.767L948.378 736.72C934.209 733.494 920.293 730.306 906.792 726.946L906.868 726.61L817.056 704.182L799.732 773.742C799.732 773.742 848.05 784.818 847.032 785.5C873.405 792.082 878.174 809.54 877.382 823.378L846.997 945.262C848.813 945.723 851.169 946.39 853.768 947.435C851.595 946.895 849.283 946.306 846.884 945.732L804.295 1116.47C801.072 1124.49 792.891 1136.51 774.453 1131.95C775.105 1132.89 727.117 1120.13 727.117 1120.13L694.783 1194.68L779.535 1215.81C795.302 1219.76 810.753 1223.9 825.968 1227.79L799.018 1336.01L864.07 1352.23L890.758 1245.17C908.53 1249.99 925.776 1254.44 942.66 1258.64L916.061 1365.2L981.19 1381.43L1008.14 1273.41C1119.19 1294.43 1202.7 1285.96 1237.85 1185.51C1266.17 1104.64 1236.44 1057.99 1178.01 1027.57C1220.56 1017.75 1252.62 989.766 1261.16 931.949L1261.14 931.935L1261.14 931.941ZM1112.34 1140.6C1092.21 1221.47 956.048 1177.75 911.901 1166.79L947.664 1023.42C991.808 1034.44 1133.38 1056.25 1112.34 1140.6H1112.34ZM1132.48 930.769C1114.12 1004.33 1000.79 966.958 964.025 957.794L996.45 827.77C1033.21 836.934 1151.61 854.038 1132.49 930.769H1132.48Z" fill="white"/>
<g style="mix-blend-mode:multiply" opacity="0.5">
<path d="M1376 1585C1397.87 1569.16 920.931 1613 700 1277C508 985 584 561 632 417C584 437 289 629.401 289 1016C248 1489 868 1953 1376 1585Z" fill="#CC7915"/>
</g>
<path d="M333 1431C325 1463 372 1524 380 1524C380 1504 376.067 1451.25 396 1441C431 1423 466 1423 500 1406C534 1389 531 1322 537 1295C543 1268 603 1273 638 1241C673 1209 669.409 1159.05 647 1140C627 1123 609.333 1111.33 595 1111C603.667 1126.67 641 1151 605 1183C582.816 1202.72 541.144 1174.27 483 1198C434 1218 425 1295 424 1322C423 1349 353 1351 333 1431Z" fill="#314C7C"/>
<path d="M440.5 1361C410.038 1368.21 393 1403.83 378.5 1423.5C390 1413.17 416.35 1383.36 424 1378C454 1357 452.522 1381.59 478.5 1352C496.5 1331.5 490.5 1297.5 496.5 1282.5C502.5 1267.5 533.5 1256 571 1242.5C601 1231.7 621.833 1193 628.5 1175C623.667 1182.17 610.4 1200.5 596 1216.5C578 1236.5 520 1254.5 504.5 1262.5C489 1270.5 481 1287 481 1318C481 1331.09 478.5 1352 440.5 1361Z" fill="#6397F4"/>
<path d="M139 1037C141 1045 171 1109 139 1138C107 1167 83.0002 1238 117 1265C151 1292 197 1312 233 1303" stroke="black"/>
<path d="M382 1542C410.8 1574 513.667 1587 585 1585L530 1542H456C394 1542 392 1492 374 1396C356 1300 261.38 1327.78 224 1218C191.651 1123 266 1087 326 1028C354 994 410 911.6 410 854C410 782 348 762 338 742C328 722 382 702 410 646C425.232 615.537 420 588 392 564C369.6 544.8 356.667 468 362 438C350 465.333 326 526.4 326 552C326 584 266 642 224 702C182 762 220 820 266 888C302.8 942.4 308 982.667 306 996C280.667 1011.33 220.8 1061.2 184 1138C138 1234 300 1326 326 1356C352 1386 346 1502 382 1542Z" fill="#314C7C"/>
<path d="M330 1500C339.6 1513.6 380.667 1540.33 400 1552L454 1572C428.667 1576 369.651 1591.62 343 1583C309 1572 298 1512 258 1500C218 1488 187 1498 174 1479C161 1460 166 1440 166 1413C166 1391.4 135.333 1382 120 1380C122 1376.33 146 1353.85 166 1360C205 1372 214 1424 225 1440C236 1456 258 1448 282 1454C306 1460 318 1483 330 1500Z" fill="#314C7C"/>
<path d="M223 1258C251.8 1258.8 292.333 1307.33 311 1334C274.333 1340.67 190.6 1352.8 109 1320C6.99994 1279 52.0001 1157.56 99.0001 1119C138 1087 87.9999 994 87.9999 969C87.9999 940 103.5 915.167 122.5 908.5C118.167 911.833 107.229 935.48 114 959C123.5 992 187.851 1006.27 208 1060C226 1108 157.258 1129.92 144 1194C138 1223 187 1257 223 1258Z" fill="#314C7C"/>
<path d="M275 1105C250 1120 214.333 1194.33 215 1227C224.667 1215.33 234.443 1175.54 275 1163C315.557 1150.46 393 1192.58 464 1144C521 1105 500.509 1016.03 521 998C546 976 597 941 613 897C625.8 861.8 594 813.667 576 800C581.333 813.667 574.8 849.8 562 885C546 929 491.692 911 464 941C428 980 449 1008 436 1047C423 1086 332.009 1070.79 275 1105Z" fill="#314C7C"/>
<path d="M313 679C335.4 653.4 341 619.667 337 605C342 613.333 354.77 637.074 344 664C336 684 282.112 706.98 293 744C308 795 364 849 364 900C364 940.8 315.667 1002 293 1010C305 1000.67 338.8 937.4 350 907C364 869 291 793 282 767C273 741 285 711 313 679Z" fill="#6397F4"/>
<path d="M423 1113C453.276 1106.36 476.667 1020 484 983C484 1012 476.5 1052 465.5 1082.5C441.976 1147.73 369.5 1127 324.5 1128C286.24 1128.85 241.475 1176.69 228.923 1194.07C226.731 1198.01 225.5 1200.3 225.5 1200C225.5 1199.25 226.711 1197.13 228.923 1194.07C237.818 1178.07 262.535 1134.73 285 1125.5C343.214 1101.59 345.5 1130 423 1113Z" fill="#6397F4"/>
<path d="M147 1100C152.965 1085.32 147.5 1051.5 140.5 1034C147 1045.17 159.7 1072.2 158.5 1091C157 1114.5 146 1132 119.5 1184.5C92.4808 1238.03 114 1269.5 131.5 1286C149 1302.5 199 1299.5 234 1293.5C262 1288.7 286.667 1315.83 295.5 1330C291.333 1326.67 281.475 1310.72 261.5 1306C234 1299.5 240 1306 182.5 1309C133.973 1311.53 106 1283 98.4998 1248C91.1027 1213.48 140.5 1116 147 1100Z" fill="#6397F4"/>
<path d="M218 1471.5C190.5 1460.5 185.333 1438 179.5 1425.5C183.5 1430.67 193.8 1443.6 203 1454C214.5 1467 237.5 1467 266.5 1467C295.5 1467 303.5 1479 316 1512C326 1538.4 387.5 1560.33 417 1568C409 1567 388.8 1564.2 356 1553C315 1539 308 1511 292 1487C278.239 1466.36 233.764 1477.81 218 1471.5Z" fill="#6397F4"/>
</g>
<defs>
<linearGradient id="paint0_linear_45_18" x1="1180.49" y1="1417" x2="1180.49" y2="1759.77" gradientUnits="userSpaceOnUse">
<stop stop-color="#CC7915"/>
<stop offset="1" stop-color="#ADFFD2"/>
</linearGradient>
<linearGradient id="paint1_linear_45_18" x1="1180.49" y1="1417" x2="1180.49" y2="1759.77" gradientUnits="userSpaceOnUse">
<stop stop-color="#CC7915"/>
<stop offset="1" stop-color="#ADFFD2"/>
</linearGradient>
<linearGradient id="paint2_linear_45_18" x1="1180.49" y1="1417" x2="1180.49" y2="1759.77" gradientUnits="userSpaceOnUse">
<stop stop-color="#CC7915"/>
<stop offset="1" stop-color="#ADFFD2"/>
</linearGradient>
<linearGradient id="paint3_linear_45_18" x1="1459" y1="1731" x2="1473" y2="1593" gradientUnits="userSpaceOnUse">
<stop stop-color="#AFFACB"/>
<stop offset="1" stop-color="#CC7915"/>
</linearGradient>
<linearGradient id="paint4_linear_45_18" x1="175" y1="1274" x2="984" y2="1854" gradientUnits="userSpaceOnUse">
<stop stop-color="#457D3A"/>
<stop offset="1" stop-color="#CB7114"/>
</linearGradient>
<radialGradient id="paint5_radial_45_18" cx="0" cy="0" r="1" gradientUnits="userSpaceOnUse" gradientTransform="translate(756.5 207.5) rotate(90) scale(97.5)">
<stop stop-color="#FEDC65"/>
<stop offset="1" stop-color="#FEB865"/>
</radialGradient>
<radialGradient id="paint6_radial_45_18" cx="0" cy="0" r="1" gradientUnits="userSpaceOnUse" gradientTransform="translate(397.5 484.5) rotate(90) scale(75.5)">
<stop stop-color="#FEDC65"/>
<stop offset="1" stop-color="#FEB865"/>
</radialGradient>
<radialGradient id="paint7_radial_45_18" cx="0" cy="0" r="1" gradientUnits="userSpaceOnUse" gradientTransform="translate(499 270) rotate(90) scale(149)">
<stop stop-color="#FEDC65"/>
<stop offset="1" stop-color="#FEB865"/>
</radialGradient>
<clipPath id="clip0_45_18">
<rect width="2000" height="2000" fill="white"/>
</clipPath>
</defs>
</svg>
