<svg width="2000" height="2000" viewBox="0 0 2000 2000" fill="none" xmlns="http://www.w3.org/2000/svg">
<defs>
<linearGradient id="paint0_linear_34_64" x1="1300" y1="1613.39" x2="1852" y2="1065.39" gradientUnits="userSpaceOnUse">
<stop offset="0.345913" stop-color="#FFD53A"/>
<stop offset="1" stop-color="#68AC57"/>
</linearGradient>
<linearGradient id="paint1_linear_34_64" x1="901.756" y1="195.263" x2="1655.96" y2="714.961" gradientUnits="userSpaceOnUse">
<stop offset="0.334913" stop-color="#FFD53A"/>
<stop offset="1" stop-color="#0C9972"/>
</linearGradient>
<linearGradient id="paint2_linear_34_64" x1="1666" y1="1527" x2="1690" y2="1475" gradientUnits="userSpaceOnUse">
<stop stop-color="#FFDA50"/>
<stop offset="1" stop-color="#90B750"/>
</linearGradient>
<linearGradient id="paint3_linear_34_64" x1="1582" y1="517" x2="1613" y2="778" gradientUnits="userSpaceOnUse">
<stop stop-color="#CA7D2E"/>
<stop offset="1" stop-color="#0C9972"/>
</linearGradient>
<clipPath id="clip0_34_64">
<rect width="2000" height="2000" fill="white"/>
</clipPath>
</defs>
<g clip-path="url(#clip0_34_64)">
<path d="M1784 1337.39C1816 1276.59 1770.67 1130.72 1744 1065.39C1676 1146.72 1527.2 1337.39 1476 1449.39C1424.8 1561.39 1172 1560.06 1052 1545.39C1113.33 1592.06 1258.4 1684.59 1348 1681.39C1460 1677.39 1532 1629.39 1568 1569.39C1604 1509.39 1744 1413.39 1784 1337.39Z" fill="url(#paint0_linear_34_64)"/>
<path d="M627.181 287.959C544.598 317.354 461.286 443.494 530.84 497.106C694.697 458.318 1063.17 383.728 1226.22 395.673C1389.26 407.619 1602.23 734.733 1688.33 896.797C1726.55 872.277 1800.3 813.195 1789.49 773.025C1775.97 722.812 1749.55 739.482 1764.84 685.02C1780.14 630.558 1750.48 549.958 1713.18 496.589C1675.87 443.219 1740 294.36 1626.55 206.679C1513.09 118.997 1360.63 203.682 1289.26 194.214C1217.88 184.745 1229.25 190.289 1003.76 156.339C778.267 122.39 761.901 240.006 627.181 287.959Z" fill="url(#paint1_linear_34_64)"/>
<circle cx="486.5" cy="136.891" r="40.5" fill="#FFD53A"/>
<circle cx="413.5" cy="264.891" r="73.5" fill="#FFD53A"/>
<path d="M383.678 547.36C365.882 591.337 312.527 640.46 303.205 640.667C296.804 640.809 274.351 558.202 293.963 512.778C317.077 459.241 353.435 406.083 384.529 388.353C388.601 386.031 393.649 387.592 395.419 391.932C408.542 424.109 402.349 501.223 383.678 547.36Z" fill="#3E805F"/>
<path d="M249.508 651.231C261.671 699.543 270.023 796.808 244.551 794.88C219.223 792.963 178.628 773.272 163.225 726.253C145.998 673.664 195.182 594.987 200.111 549.134C200.923 541.579 208.35 535.551 213.591 541.052C232.484 560.88 238.683 608.234 249.508 651.231Z" fill="#3E805F"/>
<path d="M197.254 870.736C224.543 904.122 239.186 991.192 228.325 1010.45C221.447 1022.64 135.979 1021.51 120.539 900.289C114.902 856.031 89.5192 859.89 72.9391 844.186C67.4226 838.96 72.889 830.15 80.2635 828.319C106.894 821.708 143.997 805.583 197.254 870.736Z" fill="#3E805F"/>
<path d="M327.417 1332.92C370.535 1332.53 447.61 1375.6 455.832 1396.13C461.039 1409.12 406.667 1475.07 302.457 1411.25C264.409 1387.95 251.534 1410.16 228.909 1413.27C221.381 1414.3 217.93 1404.52 221.117 1397.63C232.627 1372.72 243.27 1333.69 327.417 1332.92Z" fill="#3E805F"/>
<path d="M169.533 1045.72C206.779 1062.86 255.851 1132.04 255.543 1155.51C255.347 1170.36 206.803 1223.96 129.98 1128.77C101.45 1093.42 93.3859 1075.16 73.9362 1058.23C68.2476 1053.27 68.7268 1043.82 75.6444 1040.82C99.1696 1030.59 126.789 1026.06 169.533 1045.72Z" fill="#3E805F"/>
<path d="M341.172 885.496C301.909 897.304 243.719 959.012 240.772 982.294C238.905 997.036 279.549 1056.84 368.829 973.223C401.985 942.169 412.502 925.21 434.112 911.133C440.432 907.016 441.268 897.592 434.834 893.654C412.954 880.262 386.23 871.945 341.172 885.496Z" fill="#3E805F"/>
<path d="M361.018 681.668C321.756 693.476 263.566 755.184 260.618 778.465C258.751 793.207 299.396 853.016 388.675 769.395C421.831 738.341 432.348 721.382 453.958 707.305C460.279 703.188 461.114 693.763 454.68 689.825C432.801 676.434 406.077 668.116 361.018 681.668Z" fill="#3E805F"/>
<path d="M399.143 1117.22C364.171 1138.62 323.576 1213.09 326.642 1236.36C328.584 1251.09 383.095 1298.6 448.189 1195.04C472.363 1156.58 478.224 1137.5 495.547 1118.39C500.613 1112.8 499.026 1103.48 491.803 1101.3C467.238 1093.91 439.277 1092.66 399.143 1117.22Z" fill="#3E805F"/>
<path d="M244.483 1206.21C278.989 1216.69 315.014 1242.83 325.393 1260.67C331.965 1271.97 314.608 1325.25 233.894 1308.99C194.174 1301 161.408 1260.5 136.864 1236.44C131.433 1231.11 132.766 1221.45 139.836 1218.65C169.671 1206.82 209.467 1195.57 244.483 1206.21Z" fill="#3E805F"/>
<path d="M328.938 1032.08C299.654 1053.12 273.981 1089.49 269.909 1109.72C267.33 1122.53 300.938 1167.37 372.101 1125.96C407.12 1105.58 425.081 1056.69 440.557 1026C443.981 1019.2 439.603 1010.49 432.007 1010.11C399.953 1008.54 358.655 1010.72 328.938 1032.08Z" fill="#3E805F"/>
<path d="M462.293 1270.34C447.411 1303.19 443.302 1347.51 449.867 1367.08C454.025 1379.47 505.518 1401.56 546.536 1330.17C566.721 1295.04 557.895 1243.7 555.997 1209.38C555.576 1201.79 547.433 1196.42 540.663 1199.88C512.099 1214.51 477.394 1237 462.293 1270.34Z" fill="#3E805F"/>
<path d="M226.313 1070.24C189.489 922.983 260.876 698.936 322.8 575.092C286.314 761.169 247.361 822.019 250.073 986.45C252.784 1150.88 401.613 1325.04 502.655 1387.15L486.686 1427.81C410.066 1363.38 275.34 1266.29 226.313 1070.24Z" fill="#436156"/>
<path d="M283.53 1067C296.094 1112.75 283.53 1184.18 276.249 1190C271.249 1194 203.249 1142 191.25 1094C177.107 1037.43 173.715 973.115 187.655 940.147C189.48 935.83 194.438 934.004 198.48 936.378C228.445 953.975 270.35 1019.01 283.53 1067Z" fill="#6BC58A"/>
<path d="M240 1231C279 1262 344.697 1334.21 323.288 1348.14C302 1362 257.789 1371.01 217 1343C171.379 1311.68 162.684 1219.3 138.757 1179.88C134.815 1173.38 137.055 1164.08 144.56 1165.27C171.611 1169.55 205.29 1203.41 240 1231Z" fill="#6BC58A"/>
<path d="M331.77 1437.13C373.724 1447.09 438.229 1507.38 441.293 1529.27C443.233 1543.14 374.638 1594.14 288.763 1507.2C257.409 1475.46 239.585 1493.94 216.876 1491.53C209.32 1490.72 208.313 1480.4 213.061 1474.47C230.205 1453.05 249.893 1417.71 331.77 1437.13Z" fill="#6BC58A"/>
<path d="M715.838 1725.32C749.859 1698.83 837.251 1686.25 856.246 1697.56C868.274 1704.72 865.121 1790.14 743.569 1802.71C699.19 1807.3 702.448 1832.77 686.356 1848.97C681.002 1854.36 672.323 1848.69 670.667 1841.28C664.687 1814.5 649.444 1777.02 715.838 1725.32Z" fill="#6BC58A"/>
<path d="M416 1593C456 1584 536.997 1609.17 551 1628C559.867 1639.92 553.841 1711.98 435 1683C390.867 1672.24 373.375 1662.63 347.637 1660.98C340.11 1660.5 334.753 1652.7 338.423 1646.11C350.903 1623.7 370.096 1603.33 416 1593Z" fill="#6BC58A"/>
<path d="M455.081 1361.47C431.055 1394.69 422.292 1479.06 434.086 1499.35C441.555 1512.19 510.165 1535.03 530.325 1414.38C537.811 1369.57 535.869 1349.71 544.492 1325.41C547.014 1318.3 541.955 1310.3 534.452 1311.08C508.936 1313.73 482.652 1323.34 455.081 1361.47Z" fill="#6BC58A"/>
<path d="M347.081 1187.47C323.055 1220.69 314.292 1305.06 326.086 1325.35C333.555 1338.19 402.165 1361.03 422.325 1240.38C429.811 1195.57 427.869 1175.71 436.492 1151.41C439.014 1144.3 433.955 1136.3 426.452 1137.08C400.936 1139.73 374.652 1149.34 347.081 1187.47Z" fill="#6BC58A"/>
<path d="M641.847 1510.38C627.054 1548.62 640.021 1632.44 656.585 1649.06C667.073 1659.59 739.235 1664.24 728.067 1542.43C723.92 1497.19 716.994 1478.48 719.156 1452.78C719.788 1445.26 712.863 1438.81 705.804 1441.47C681.799 1450.52 658.823 1466.5 641.847 1510.38Z" fill="#6BC58A"/>
<path d="M573 1675C606.78 1662.37 651.278 1661.27 670.358 1669.14C682.44 1674.13 701 1727 627 1763.1C590.585 1780.86 539.962 1768.58 505.849 1764.37C498.301 1763.43 493.492 1754.95 497.408 1748.43C513.934 1720.92 538.721 1687.81 573 1675Z" fill="#6BC58A"/>
<path d="M534.367 1485.36C523.878 1519.87 525.561 1564.35 534.613 1582.9C540.345 1594.64 594.271 1609.86 625.669 1533.75C641.119 1496.29 625.699 1446.54 619.359 1412.75C617.956 1405.28 609.184 1401.01 602.922 1405.33C576.499 1423.54 545.01 1450.35 534.367 1485.36Z" fill="#6BC58A"/>
<path d="M784.998 1593.69C793.121 1628.83 816.769 1666.54 833.868 1678.1C844.695 1685.42 899.023 1671.71 888.264 1590.08C882.97 1549.91 844.785 1514.48 822.437 1488.37C817.492 1482.59 807.759 1483.26 804.486 1490.13C790.672 1519.1 776.756 1558.04 784.998 1593.69Z" fill="#6BC58A"/>
<path d="M476 1578C357.326 1483.36 278 1262 252 1126C336 1296 342 1368 444 1497C546 1626 770 1674 888 1662L900 1704C800 1699.33 634 1704 476 1578Z" fill="#436156"/>
<path d="M1033.5 1748C995.1 1762.4 919.333 1724 890 1698L908.5 1689.5C924.5 1711.5 984.5 1734 1016.5 1734C1037.45 1734 1101.68 1685.45 1173 1667.5C1210 1662.5 1239.5 1656 1288.5 1681C1329.56 1701.95 1463.5 1621 1529 1616.5C1493.67 1625.17 1416 1677.64 1378 1688.5C1328.5 1702.64 1328 1723.5 1229.5 1688.5C1176.93 1669.82 1081.5 1730 1033.5 1748Z" fill="#33AE98"/>
<path d="M1603.22 1545.37C1630.12 1564.48 1629 1613.69 1571 1646.95C1513 1680.22 1472.58 1668.05 1447 1655C1447 1624.05 1464.42 1598 1512 1554C1564 1524 1583 1531 1603.22 1545.37Z" fill="#2AA068"/>
<path d="M1381.4 1541.1C1406.07 1538.54 1429.86 1566.87 1413.63 1614.43C1397.4 1661.98 1368.55 1675.16 1347.63 1680.5C1332.27 1663.03 1316.35 1644 1334.2 1591.24C1348.67 1548.5 1362.86 1543.03 1381.4 1541.1Z" fill="#33AE98"/>
<path d="M1286.49 1552.34C1311.16 1549.78 1334.94 1578.11 1318.71 1625.67C1302.48 1673.22 1273.63 1686.4 1252.72 1691.74C1237.36 1674.27 1221.43 1655.24 1239.29 1602.48C1253.75 1559.74 1267.95 1554.27 1286.49 1552.34Z" fill="#2AA068"/>
<path d="M1220 1756C1212 1775 1189 1793 1157 1772C1125 1751 1110 1723 1115.32 1706.19C1129.13 1693.77 1151.71 1682.22 1194 1696C1228.26 1707.16 1225.78 1742.28 1220 1756Z" fill="#2AA068"/>
<path d="M975 1834C954.793 1838.08 922 1827 911 1789C900 1751 910.833 1719.46 927.721 1714.39C945.765 1718.81 978.579 1731.29 991 1774C1001.06 1808.6 989.59 1831.05 975 1834Z" fill="#33AE98"/>
<path d="M1068.74 1625.55C1049.08 1619.35 1015.3 1626.89 1000.33 1663.51C985.371 1700.13 992.802 1732.65 1009.06 1739.47C1027.47 1736.99 1061.42 1728.06 1078.3 1686.9C1091.96 1653.57 1082.94 1630.02 1068.74 1625.55Z" fill="#2AA068"/>
<path d="M1185.74 1580.55C1166.08 1574.35 1132.3 1581.89 1117.34 1618.51C1102.37 1655.13 1109.8 1687.65 1126.06 1694.47C1144.47 1691.99 1178.42 1683.06 1195.3 1641.9C1208.96 1608.57 1199.94 1585.02 1185.74 1580.55Z" fill="#33AE98"/>
<path d="M1125.29 1813.17C1114.13 1825.86 1089.01 1833.1 1062.82 1806.41C1036.64 1779.72 1027.81 1752.7 1036.03 1740.93C1062.82 1734 1062.82 1725.25 1112.17 1757.19C1142.36 1776.72 1133.34 1804 1125.29 1813.17Z" fill="#33AE98"/>
<path d="M1516.68 1725C1520.6 1751.82 1490.74 1779.09 1438.06 1763.53C1385.39 1747.96 1369.67 1717.05 1362.9 1694.45C1381.28 1676.88 1412.44 1661.87 1459.78 1675.72C1507.11 1689.58 1513.74 1704.83 1516.68 1725Z" fill="#2AA068"/>
<path d="M1367.34 1790.15C1358.63 1815.83 1319.64 1826.53 1279.8 1788.71C1239.97 1750.89 1240.03 1716.22 1244.28 1693.01C1268.64 1685.72 1298 1681.6 1339.07 1720.39C1374.93 1754.26 1373.89 1770.86 1367.34 1790.15Z" fill="#33AE98"/>
<path d="M1000 1712C1386.6 1712 1700 1398.6 1700 1012C1700 625.401 1386.6 312 1000 312C613.401 312 300 625.401 300 1012C300 1398.6 613.401 1712 1000 1712Z" fill="#0C9A73"/>
<path d="M1006.5 1617C1337.04 1617 1605 1349.04 1605 1018.5C1605 687.958 1337.04 420 1006.5 420C675.958 420 408 687.958 408 1018.5C408 1349.04 675.958 1617 1006.5 1617Z" fill="#0AC18E" stroke="white" stroke-width="10"/>
<path d="M1191.45 819.556C1161.64 751.949 1093.13 737.494 1009.26 751.498L982.309 647L918.768 663.412L945.268 767.609C928.555 771.825 911.39 775.439 894.375 780.257L867.875 676.663L804.334 693.075L831.286 797.573C817.584 801.488 703 830.849 703 830.849L720.466 898.908C720.466 898.908 767.143 885.808 766.691 886.862C792.59 880.087 804.786 893.036 810.508 905.232L884.588 1191.62C885.492 1199.9 883.986 1214.06 866.219 1218.88C867.273 1219.48 819.994 1230.77 819.994 1230.77L826.92 1310.12C826.92 1310.12 940.45 1281.06 955.357 1277.3L982.61 1383L1046.15 1366.59L1018.9 1260.13C1036.36 1256.07 1053.38 1251.85 1069.94 1247.48L1097.04 1353.34L1160.58 1336.92L1133.33 1231.37C1231.2 1207.58 1300.31 1145.85 1286.16 1051.44C1277.13 994.522 1214.94 947.844 1163.29 942.574C1195.07 914.417 1211.18 873.311 1191.45 819.556ZM1160.89 1068.75C1173.53 1162.26 1043.59 1173.7 1000.68 1185L963.337 1045.11C1006.4 1033.82 1139.5 986.391 1160.89 1068.75ZM1082.59 878.28C1095.99 961.396 984.868 971.033 949.033 980.218L915.004 853.285C950.99 844.401 1055.34 801.337 1082.59 878.28Z" fill="white"/>
<g style="mix-blend-mode:multiply">
<path d="M688 1637C1078 1833 1522 1625 1658 1249C1658 1249 1386.6 1409 1000 1409C398 1397 367.649 699.208 338 781C214.025 1123 379.988 1482.2 688 1637Z" fill="#0F614A" fill-opacity="0.5"/>
</g>
<circle cx="1660" cy="1515" r="40" fill="url(#paint2_linear_34_64)"/>
<circle cx="1724.5" cy="1438.5" r="24.5" fill="#FFDA50"/>
<path d="M1596 546C1612.25 578.668 1616 706 1612 768L1638 832C1644 766 1654.4 616.4 1648 546C1641.6 475.6 1441.33 420.666 1342 402C1259.33 372 1081.6 321.2 1032 358C982.4 394.8 910 416 880 422C882 428 898.4 439.2 948 436C1010 432 1046 390 1094 376C1142 362 1238 406 1286 422C1334 438 1556 465.577 1596 546Z" fill="url(#paint3_linear_34_64)"/>
<path d="M1552 412C1547.79 433.884 1576.67 472.667 1607 510C1614.33 523.667 1630.8 551 1638 551C1647 551 1646 484 1638 406C1630 328 1590 329 1572 299C1554 269 1559 255 1538 239C1517 223 1513 148 1498 140C1483 132 1496 254 1498 282C1501.57 332 1562 360 1552 412Z" fill="#BB522A"/>
<path d="M1186 302C1146 270 1057 133 1066 116C1081.45 86.8214 1259 236 1362 236C1431.78 236 1407 302 1467 348C1515 384.8 1527.67 442.667 1528 467C1516.67 461.667 1491.6 448.8 1482 440C1470 429 1435 405 1389 388C1343 371 1335 349 1270 325C1205 301 1215.18 325.34 1186 302Z" fill="#CA7D2E"/>
<path d="M1331 453C1350.2 457.8 1381.83 450.5 1394.5 446.5L1411.5 450.5C1388.5 461.833 1336.6 485.8 1307 505C1270 529 1210 506 1183 505C1156 504 1145 546 1121 560C1097 574 1047 570 1009 560C971 550 897 572 877 560C857 548 897 541 920 536C943 531 993 481 1009 475C1025 469 1074 461 1096 453C1118 445 1149 416 1174 409C1199 402 1307 447 1331 453Z" fill="#BB522A"/>
<path d="M997 334C998.6 344.4 1024 350.333 1038 354L1026 362.5C1012 362.167 974.2 370.8 935 366C886 360 903 323 889 298C875 273 831 290 805 275C779 260 781 237 785 222C789 207 786 208 759 191C732 174 723 118 740 139C757 160 848 170 878 175C908 180 902 203 903 230C904 257 991 269 1002 283C1013 297 995 321 997 334Z" fill="#BB522A"/>
<path d="M851 367C864.6 377.4 930.667 397.333 962 406C940.667 406 891.4 408.2 865 417C832 428 812 413 796 406C780 399 781 394 722 394C663 394 645 353 623 342C601 331 530 342 506 342C482 342 458 326 444 306C430 286 386 275 367 267C348 259 484 245 534 267C561.475 279.089 603 245 653 245C703 245 759.394 320.208 771 329C804 354 834 354 851 367Z" fill="#CA7D2E"/>
<path d="M832 434C852 438.8 867.5 420.5 910 415C875 424 838.4 501.6 824 516C806 534 730 525 708 523C686 521 663 566 639 574C615 582 519 566 493 566C472.2 566 449.667 592.667 441 606C438 609.667 432.4 610.8 434 586C436 555 468 545 493 509C518 473 535 473 576 473C617 473 589 455.5 643 439.5C690.303 425.484 685 455 708 447C731 439 714 434 740 427C766 420 807 428 832 434Z" fill="#BB522A"/>
<path d="M1544 325C1523 310.5 1520 275.667 1517 253C1520 257.667 1527.8 278.5 1535 298.5C1544 323.5 1567 330 1585 340.5C1600.28 349.414 1590.42 389.381 1597 413.5C1601.5 430 1631.5 509.5 1636 551C1626.67 522.333 1605.8 461.2 1597 446C1586 427 1585 396 1585 359C1585 346.631 1559.17 335.477 1544 325Z" fill="#FFCF5C"/>
<path d="M1248 269C1220.8 271.4 1164.67 210 1140 179C1154 186 1195 221.5 1208 234C1242.84 267.499 1307 269 1335 279C1363 289 1361 333 1422.5 347C1458.02 355.087 1493.67 418 1499 444C1487.33 428.667 1462 395.4 1454 385C1444 372 1361 334.5 1354 311.5C1347 288.5 1282 266 1248 269Z" fill="#FFCF5C"/>
<path d="M1272.5 468C1300 472.5 1363.67 460.333 1401.5 449.5C1378.33 456.667 1324.7 472.8 1295.5 480C1259 489 1239 461.5 1195 449.5C1183.34 446.321 1162.5 461.5 1136.5 489.5C1107.53 520.697 1063 515.5 1048.5 511.5C1036.9 508.3 985.833 526.5 968 536C973.5 532.333 989.7 522.3 1010.5 511.5C1036.5 498 1064 502 1088 505.5C1112 509 1144.5 467.5 1166.5 449.5C1188.5 431.5 1249.97 464.314 1272.5 468Z" fill="#FFCF5C"/>
<path d="M824 228C824 207.2 793.667 185 778.5 176.5C787.5 180.5 807.7 189.9 816.5 195.5C827.5 202.5 826.549 236 855.5 244C879.912 250.746 895.875 255 909 269C922.125 283 916.987 316.163 941 336C957 351.729 1001 345 1031 360.5C1018 360.5 955.4 347.4 941 345C923 342 913 293 903.5 274C894 255 824 254 824 228Z" fill="#FFCF5C"/>
<path d="M581 309.5C509.5 327.5 476 292.167 461 283.5C477 286.667 505.211 310.036 553.5 304C593.5 299 621 294.5 661 328C701 361.5 732 356 756.5 352.5C781 349 820 396.5 844 396.5C883.34 396.5 900.594 404.883 931.436 406.428C931.971 406.452 932.493 406.476 933 406.5C932.475 406.478 931.953 406.454 931.436 406.428C909.445 405.436 864.182 404.157 847 406.5C825 409.5 798 379 784.5 370.5C771 362 739 365 718 368C697 371 627.406 297.817 581 309.5Z" fill="#FFCF5C"/>
<path d="M583 501.5C559 511 501.5 534 485.5 547.5C499.5 533.5 511.096 530.111 545 511C573.084 495.17 612.74 479.839 652.5 492.5C692.26 505.161 710.931 481.02 728 471C745.069 460.98 779.239 470.278 797 463C826.066 451.089 870.402 428.501 894.681 419.484C895.129 419.315 895.568 419.154 896 419C895.567 419.157 895.127 419.318 894.681 419.484C878.433 425.606 851.508 441.589 815.5 463C798.569 473.067 761.568 471.696 749 469.5C736.432 467.304 720.131 485.912 705.5 494.5C673 513.578 629.5 483.094 583 501.5Z" fill="#FFCF5C"/>
<path d="M1742 897C1726 871.4 1752 859 1752 822C1756.33 825 1765 835.2 1765 852C1765 873 1765 887 1771 905C1777 923 1799 942 1802 963C1805 984 1789 1025 1777 1044C1765 1063 1777 1093 1777 1102C1777 1111 1771 1136 1771 1153C1771 1170 1748 1208 1736 1223C1724 1238 1719 1240 1709 1261C1699 1282 1713 1291 1719 1307C1725 1323 1713 1366 1700 1391C1687 1416 1629 1437 1608 1442C1587 1447 1558 1458 1540 1460C1522 1462 1510 1486 1486 1502C1462 1518 1464 1523 1447 1565C1433.4 1598.6 1411.83 1591 1405.5 1583C1405.5 1580.5 1421.5 1558 1429.5 1523C1437.5 1488 1464 1484 1478 1473C1492 1462 1503 1452 1515 1442C1527 1432 1521 1422 1515 1402C1509 1382 1486 1355 1478 1345C1470 1335 1464 1327 1464 1307C1464 1287 1470 1268 1478 1254C1486 1240 1486 1232 1486 1217C1486 1202 1503 1181 1510 1167C1517 1153 1515 1151 1503 1130C1491 1109 1502 1107 1510 1069C1518 1031 1510 1026 1515 1011C1520 996 1531 973 1531 983C1531 993 1533 1018 1531 1044C1529 1070 1540 1115 1540 1130C1540 1145 1551 1155 1546 1167C1541 1179 1527 1203 1521 1208C1515 1213 1515 1229 1510 1240C1506 1248.8 1499 1262.33 1496 1268C1491.33 1281.33 1484.8 1311.8 1496 1327C1510 1346 1529 1368 1540 1385C1551 1402 1561 1420 1570 1422C1579 1424 1608 1412 1629 1402C1650 1392 1649 1393 1665 1373C1681 1353 1674 1334 1674 1316V1254C1675 1244.33 1681.6 1220.6 1700 1203C1723 1181 1723 1175 1733 1136C1743 1097 1752 1088 1752 1062C1752 1036 1752 1030 1765 1011C1775.4 995.8 1777.33 959.667 1777 947C1772 938.667 1758 922.6 1742 897Z" fill="#614F43"/>
<path d="M1809.5 1054C1799.5 1056 1769.5 1076 1766 1076L1762.5 1112.5C1772.67 1107.67 1797.1 1095 1813.5 1083C1834 1068 1825 1076 1838 1072C1851 1068 1846.5 1054 1854.5 1039C1862.5 1024 1865 1018.5 1871.5 1002C1876.7 988.8 1885 969.833 1888.5 962C1871.5 958.5 1868.2 980.4 1863 984C1856.5 988.5 1841 1034 1830 1046C1819 1058 1819.5 1052 1809.5 1054Z" fill="#614F43"/>
<path d="M1748 1236C1740.4 1229.6 1737.17 1214 1736.5 1207L1704.5 1240.5C1709.83 1242.17 1724.8 1247.3 1742 1254.5C1763.5 1263.5 1750.5 1262.5 1757 1267C1763.5 1271.5 1762.5 1271 1764.5 1281C1766.5 1291 1775.5 1290 1783.5 1299C1791.5 1308 1795.5 1300.5 1811 1299C1826.5 1297.5 1819.5 1293 1831.5 1293C1843.5 1293 1852 1299.5 1847.5 1293C1843 1286.5 1842.5 1287.5 1823.5 1283.5C1804.5 1279.5 1800 1281 1792.5 1281C1785 1281 1790.5 1269 1778 1259C1765.5 1249 1757.5 1244 1748 1236Z" fill="#614F43"/>
<path d="M1412 1192.5C1405.6 1188.1 1409.33 1158.33 1412 1144C1414.67 1149.5 1420 1161.8 1420 1167C1420 1173.5 1428.5 1182.5 1439.5 1192.5C1450.5 1202.5 1459.5 1217 1465.5 1227C1470.3 1235 1482.5 1246 1488 1250.5L1475.5 1265.5C1468.17 1258.67 1451.6 1243.2 1444 1236C1434.5 1227 1436 1222.5 1434 1212.5C1432 1202.5 1420 1198 1412 1192.5Z" fill="#614F43"/>
<path d="M1445.5 1166.5C1444.3 1177.7 1438.67 1192.5 1436 1198.5L1448.5 1212C1453.17 1199.67 1456.8 1160 1458 1154C1459.5 1146.5 1457 1130.5 1452 1124C1447 1117.5 1442.5 1098.5 1436 1098.5C1429.5 1098.5 1440 1114.5 1442.5 1124C1445 1133.5 1447 1152.5 1445.5 1166.5Z" fill="#614F43"/>
<path d="M1504.5 1292.5C1495.7 1295.7 1491.5 1323.83 1490.5 1337.5L1510 1358.5C1510.17 1346.83 1510.4 1321.5 1510 1313.5C1509.5 1303.5 1526 1297 1534 1286.5C1542 1276 1548.5 1274.5 1551.5 1269.5C1554.5 1264.5 1558.5 1253 1563.5 1235C1568.5 1217 1570 1225 1578.5 1216.5C1587 1208 1598.5 1202 1606.5 1194.5C1614.5 1187 1614 1166.5 1610.5 1172.5C1607 1178.5 1600.5 1189 1588.5 1194.5C1576.5 1200 1568 1215 1570 1206.5C1572 1198 1581 1182.5 1578.5 1182.5C1576 1182.5 1565 1197.5 1558.5 1206.5C1552 1215.5 1550.5 1254.5 1544.5 1257C1539.7 1259 1535.5 1264.5 1534 1267C1527.83 1274.17 1513.3 1289.3 1504.5 1292.5Z" fill="#614F43"/>
<path d="M1864.44 1300.42C1839.83 1300.36 1827.02 1292.39 1829.62 1286.27C1835.4 1272.67 1843.35 1267.23 1856.98 1262.15C1870.61 1257.08 1885.88 1256.39 1892.54 1274.26C1897.56 1287.76 1884.83 1300.46 1864.44 1300.42Z" fill="#05674C"/>
<path d="M1823.04 1244.53C1808.9 1263.94 1784.01 1274.07 1782 1268.5C1777.54 1256.1 1790.08 1240.69 1795 1227C1799.92 1213.31 1810.18 1202.24 1824.21 1207.28C1834.81 1211.08 1834.76 1228.46 1823.04 1244.53Z" fill="#05674C"/>
<path d="M1818.85 1261.29C1815.43 1270.78 1817.76 1284.44 1820.64 1284.62C1827.06 1285.04 1829.36 1276.88 1833.36 1272.61C1837.36 1268.35 1842.28 1259.82 1835.85 1253.79C1831 1249.24 1821.69 1253.43 1818.85 1261.29Z" fill="#05674C"/>
<path d="M1763.89 1196.69C1754 1198.68 1743.53 1207.75 1744.87 1210.31C1747.83 1216.01 1756.01 1213.76 1761.73 1214.97C1767.45 1216.18 1777.29 1215.97 1779.12 1207.34C1780.49 1200.83 1772.08 1195.04 1763.89 1196.69Z" fill="#05674C"/>
<path d="M1759.5 1229C1756.8 1238.72 1765.1 1252.39 1767.5 1254C1771.17 1256.47 1781.5 1247.5 1784.5 1241.5C1789.13 1232.24 1790.5 1221.5 1779.5 1217C1773.34 1214.48 1762.83 1217 1759.5 1229Z" fill="#05674C"/>
<path d="M1814.46 1332.54C1804.01 1321.01 1799.32 1300.16 1803.33 1298.2C1812.23 1293.85 1820.31 1304.14 1828.52 1307.87C1836.73 1311.61 1848.75 1320.88 1843.11 1333.26C1838.86 1342.61 1823.12 1342.09 1814.46 1332.54Z" fill="#05674C"/>
<path d="M1721.29 1289.03C1710.84 1277.51 1709.02 1260.39 1710.16 1254.7C1713.5 1238 1732.29 1258.77 1740.5 1262.5C1748.71 1266.24 1757.64 1279.12 1752 1291.5C1747.75 1300.84 1729.95 1298.58 1721.29 1289.03Z" fill="#05674C"/>
<path d="M1571 965.247C1559 1009 1532.5 1020.5 1524 1015C1518 1011.12 1511 992.861 1511 965.247C1511 937.633 1517.5 910 1544 910C1564 910 1580.94 929 1571 965.247Z" fill="#05674C"/>
<path d="M1918 937.247C1906 981 1871 987 1871 987C1871 987 1858 964.861 1858 937.247C1858 909.633 1864.5 882 1891 882C1911 882 1927.94 901 1918 937.247Z" fill="#05674C"/>
<path d="M1782.41 775.85C1786.28 821.053 1780.5 827.5 1765.5 851C1762.43 855.806 1735.66 822.513 1726.11 796.603C1716.56 770.693 1713.1 742.518 1737.96 733.352C1756.73 726.434 1779.2 738.402 1782.41 775.85Z" fill="#05674C"/>
<path d="M1800.27 873.135C1786.03 890.578 1773.04 894.066 1768.28 894.066C1756.02 894.066 1767.49 873.604 1773.04 861.072C1778.59 848.54 1787.1 837.307 1799.13 842.635C1808.2 846.656 1812.07 858.684 1800.27 873.135Z" fill="#05674C"/>
<path d="M1828.94 939.402C1813.48 956.692 1799.84 960.717 1797.17 955.058C1791.21 942.467 1792.36 933.457 1797.33 920.683C1802.29 907.908 1811.37 896.723 1828.13 903.239C1840.78 908.157 1841.74 925.078 1828.94 939.402Z" fill="#05674C"/>
<path d="M1733.23 1077.74C1746.02 1102.98 1744.55 1120.26 1736.93 1120.8C1719.97 1121.99 1710.24 1116.68 1697.92 1105.36C1685.61 1094.05 1676.92 1078.77 1691.76 1062.61C1702.96 1050.42 1722.63 1056.83 1733.23 1077.74Z" fill="#05674C"/>
<path d="M1752.46 969.311C1769.29 975.961 1779.59 974.351 1779 969.739C1777.69 959.478 1773.31 953.839 1764.98 946.895C1756.65 939.95 1746.35 935.358 1738.33 944.971C1732.29 952.226 1738.52 963.801 1752.46 969.311Z" fill="#05674C"/>
<path d="M1819.47 984.396C1807.54 988.279 1799.12 986.225 1799.95 982.848C1801.5 976.5 1803.02 971.125 1808.66 966.418C1814.31 961.71 1821.57 958.937 1828.16 966.834C1833.13 972.794 1829.35 981.18 1819.47 984.396Z" fill="#05674C"/>
<path d="M1875.35 1036.12C1863.12 1038.15 1855.51 1035.15 1857.02 1032.13C1859.85 1026.46 1862.44 1021.69 1868.84 1018.07C1875.24 1014.45 1885.62 1011.97 1890.24 1020.14C1893.72 1026.3 1885.49 1034.43 1875.35 1036.12Z" fill="#05674C"/>
<path d="M1861.42 1068.54C1851.34 1069.35 1844.68 1065.81 1845.67 1063.09C1847.53 1057.97 1849.27 1053.67 1854.31 1050.83C1859.35 1047.98 1867.84 1046.57 1872.45 1054.74C1875.94 1060.9 1869.77 1067.86 1861.42 1068.54Z" fill="#05674C"/>
<path d="M1815.28 1035.99C1820.46 1049.4 1827.22 1055.02 1828.87 1051.6C1831.98 1045.18 1834.48 1039.56 1833.89 1030.91C1833.29 1022.26 1829.52 1010.39 1820.16 1011.04C1813.1 1011.52 1810.99 1024.87 1815.28 1035.99Z" fill="#05674C"/>
<path d="M1735.6 1048.39C1746.25 1059.66 1754.94 1062.59 1754.96 1058.54C1755 1050.93 1754.83 1044.37 1750.49 1036.01C1746.15 1027.66 1737.47 1017.36 1729.15 1021.69C1722.86 1024.95 1726.78 1039.04 1735.6 1048.39Z" fill="#05674C"/>
<path d="M1503.8 1014.71C1522.91 1035.41 1520.27 1053.12 1514.58 1055.78C1510.56 1057.66 1498.65 1055.33 1484.1 1046.25C1469.56 1037.17 1457.13 1024.67 1465.83 1010.73C1472.4 1000.22 1487.96 997.564 1503.8 1014.71Z" fill="#05674C"/>
<path d="M1412.12 1074.57C1417.91 1102.14 1433.88 1110.26 1439.34 1107.16C1443.2 1104.98 1448.21 1093.92 1449.23 1076.8C1450.26 1059.68 1447.27 1042.31 1430.87 1041.33C1418.5 1040.59 1407.31 1051.74 1412.12 1074.57Z" fill="#05674C"/>
<path d="M1451.03 1104.51C1448.12 1111.76 1447.69 1122.1 1451.03 1123.76C1452.5 1124.5 1457.87 1128.52 1467 1120.36C1476.13 1112.19 1482.49 1102.91 1474.67 1094.16C1468.77 1087.56 1457.22 1089.04 1451.03 1104.51Z" fill="#05674C"/>
<path d="M1442.5 1135.5C1444.94 1140.77 1448.91 1154.13 1446.5 1155.5C1445.43 1156.11 1435.55 1153.37 1428.44 1147.67C1421.34 1141.97 1416.25 1135.33 1421.71 1128.52C1425.83 1123.39 1437.28 1124.25 1442.5 1135.5Z" fill="#05674C"/>
<path d="M1405.66 1123.18C1410.07 1132.7 1417.24 1156.82 1412.88 1159.3C1410.96 1160.39 1393.11 1155.46 1380.28 1145.16C1367.45 1134.86 1358.26 1122.87 1368.12 1110.58C1375.56 1101.31 1396.24 1102.87 1405.66 1123.18Z" fill="#05674C"/>
<path d="M1452.5 1247C1460.98 1253.18 1474.66 1270.78 1472.05 1275.06C1470.9 1276.94 1461 1288 1436.68 1278.51C1420.46 1275.72 1408 1264 1418 1247C1424.03 1236.75 1434.41 1233.81 1452.5 1247Z" fill="#05674C"/>
<path d="M1448.5 1313C1458 1317.46 1474.72 1331.69 1472.96 1336.38C1472.19 1338.46 1454.95 1352.66 1438.5 1353C1422.05 1353.34 1407.69 1343.53 1407.36 1327.78C1407.12 1315.89 1428.24 1303.48 1448.5 1313Z" fill="#05674C"/>
<path d="M1576 1083.45C1552.54 1099.05 1531.32 1089.49 1529.59 1083.45C1528.38 1079.19 1534.23 1060.93 1545.5 1048C1556.77 1035.07 1571.62 1029.71 1584 1040.5C1593.34 1048.64 1595.43 1070.53 1576 1083.45Z" fill="#05674C"/>
<path d="M1494.51 1160.56C1505.91 1168.13 1516.21 1163.49 1517.05 1160.56C1517.65 1158.49 1514.8 1149.61 1509.33 1143.33C1503.86 1137.05 1496.64 1134.45 1490.63 1139.69C1486.09 1143.65 1485.07 1154.28 1494.51 1160.56Z" fill="#05674C"/>
<path d="M1562.22 1151.04C1555.75 1175.64 1570.12 1190.97 1575.78 1190.68C1579.78 1190.48 1593.67 1180.14 1601.42 1166.73C1609.18 1153.33 1609.41 1139.07 1596.58 1131.65C1586.89 1126.05 1567.58 1130.66 1562.22 1151.04Z" fill="#05674C"/>
<path d="M1610.13 1158.36C1602.96 1168.76 1607.1 1178.35 1609.79 1179.17C1611.7 1179.75 1619.93 1177.26 1625.82 1172.3C1631.7 1167.34 1634.21 1160.71 1629.46 1155.08C1625.88 1150.83 1616.07 1149.73 1610.13 1158.36Z" fill="#05674C"/>
<path d="M1572 1235.5C1557.26 1246.07 1548.76 1261.29 1552 1263.71C1554.29 1265.41 1571.26 1267.54 1581.61 1263.71C1591.97 1259.87 1601.18 1253.42 1597.5 1243.5C1594.73 1236.01 1584.22 1226.74 1572 1235.5Z" fill="#05674C"/>
<path d="M1545.22 1292.66C1530.01 1288.93 1515.26 1291.9 1515.5 1295.38C1515.67 1297.84 1523.79 1310.16 1532.12 1314.8C1540.45 1319.43 1549.85 1321.85 1554.29 1313.87C1557.64 1307.85 1557.82 1295.75 1545.22 1292.66Z" fill="#05674C"/>
<path d="M1543.48 1250.14C1542.53 1261.4 1537.1 1270.8 1534.77 1269.83C1533.13 1269.15 1526.57 1260.76 1525.32 1253.99C1524.07 1247.22 1524.59 1240.24 1531.07 1239.05C1535.96 1238.14 1544.27 1240.81 1543.48 1250.14Z" fill="#05674C"/>
</g>
</svg>
