<svg width="2000" height="2000" viewBox="0 0 2000 2000" fill="none" xmlns="http://www.w3.org/2000/svg">
<defs>
<linearGradient id="paint0_linear_34_52" x1="1578" y1="1338" x2="1364" y2="1800" gradientUnits="userSpaceOnUse">
<stop stop-color="#B2F8C6"/>
<stop offset="0.0001" stop-color="#37537F"/>
<stop offset="0.326416" stop-color="#37537F"/>
<stop offset="0.639963" stop-color="#AFF4C4"/>
<stop offset="1" stop-color="#AFF4C4"/>
</linearGradient>
<linearGradient id="paint1_linear_34_52" x1="180.965" y1="867.876" x2="368.341" y2="1438.99" gradientUnits="userSpaceOnUse">
<stop stop-color="#773D33"/>
<stop offset="1" stop-color="#7D121E"/>
</linearGradient>
<linearGradient id="paint2_linear_34_52" x1="440.656" y1="756.542" x2="581.411" y2="1560.96" gradientUnits="userSpaceOnUse">
<stop stop-color="#426671"/>
<stop offset="0.372917" stop-color="#426671"/>
<stop offset="1" stop-color="#7D1926"/>
</linearGradient>
<linearGradient id="paint3_linear_34_52" x1="487.521" y1="1067.13" x2="426.131" y2="1146.58" gradientUnits="userSpaceOnUse">
<stop stop-color="#426671"/>
<stop offset="1" stop-color="#436570"/>
</linearGradient>
<linearGradient id="paint4_linear_34_52" x1="530.31" y1="1173.57" x2="468.921" y2="1253.02" gradientUnits="userSpaceOnUse">
<stop stop-color="#436570"/>
<stop offset="0.669792" stop-color="#4E585A"/>
</linearGradient>
<linearGradient id="paint5_linear_34_52" x1="496.907" y1="1294.55" x2="435.517" y2="1373.99" gradientUnits="userSpaceOnUse">
<stop stop-color="#436570"/>
<stop offset="0.669792" stop-color="#4E585A"/>
</linearGradient>
<linearGradient id="paint6_linear_34_52" x1="348.224" y1="1377.72" x2="416.624" y2="1451.22" gradientUnits="userSpaceOnUse">
<stop stop-color="#436570"/>
<stop offset="0.669792" stop-color="#4E585A"/>
</linearGradient>
<linearGradient id="paint7_linear_34_52" x1="1089.59" y1="261.306" x2="1454" y2="680" gradientUnits="userSpaceOnUse">
<stop stop-color="#317C3E"/>
<stop offset="0.4875" stop-color="#317C3E"/>
<stop offset="0.971875" stop-color="#9B1C2E"/>
</linearGradient>
<linearGradient id="paint8_linear_34_52" x1="1489" y1="410.5" x2="1298" y2="374" gradientUnits="userSpaceOnUse">
<stop stop-color="#5E5538"/>
<stop offset="1" stop-color="#327D3F"/>
</linearGradient>
<clipPath id="clip0_34_52">
<rect width="2000" height="2000" fill="white"/>
</clipPath>
</defs>
<g clip-path="url(#clip0_34_52)">
<path d="M1620 1448C1607.2 1484.8 1534.67 1500.67 1500 1504L1480 1448L1646 1100L1742 1072C1768.67 1038.67 1787.6 992 1818 968C1856 938 1852 912 1860 872C1866.4 840 1912 824 1934 820C1923.33 840 1900.4 918.8 1902 954C1904 998 1932 1006 1902 1040C1872 1074 1888 1080 1882 1170C1876 1260 1746 1224 1742 1274C1738 1324 1692 1344 1646 1366C1600 1388 1636 1402 1620 1448Z" fill="#314C7C"/>
<path d="M1290 1676C1308.46 1653.15 1362 1600.67 1382 1572L1474 1470C1512.67 1482.67 1599.2 1502.4 1636 1480C1672.8 1457.6 1682 1408 1682 1386C1688 1402.67 1712 1442.5 1696 1480C1682.13 1512.51 1624 1544 1590 1554C1602 1563.33 1644.74 1582.05 1665.5 1590C1719 1610.5 1754.5 1589.93 1760.5 1592.5C1788.5 1604.5 1706.5 1652.5 1636 1652.5C1597.07 1652.5 1538 1645.33 1518 1632C1518.67 1663.33 1523.69 1740.57 1502.5 1774C1444.5 1865.5 1381.39 1850.6 1358 1856C1345 1859 1409.74 1801.3 1421 1774C1437.5 1734 1448.5 1665.5 1415 1695.5C1372.02 1733.99 1248.12 1742.5 1216.5 1742.5C1207 1742.5 1269 1702 1290 1676Z" fill="url(#paint0_linear_34_52)"/>
<path d="M572.766 1706.45C530.797 1695.54 513.406 1594.39 509.956 1545.18L605.95 1571.88C609.741 1585.12 621.049 1617.83 635.956 1642.79C654.589 1674 750.829 1647.39 801.305 1664.04C851.782 1680.69 872.041 1615.65 903.319 1638.25C934.598 1660.85 938.422 1628.83 996.974 1631.2C1055.53 1633.57 1088.82 1589.08 1117.62 1580.15C1146.42 1571.22 1100.19 1630.42 1117.62 1638.25C1135.05 1646.08 1146.22 1587.02 1165.03 1580.15C1183.84 1573.28 1217.35 1547.85 1230.03 1559.86C1240.18 1569.47 1251.45 1555.4 1265.03 1543.86C1274.21 1575.81 1276.03 1638.25 1265.03 1664.04C1257.97 1680.6 1254.03 1698.86 1210.03 1698.86C1195.82 1698.86 1193.58 1728.26 1165.03 1740.34C1136.48 1752.42 1121.91 1725.92 1090.03 1719.86C1058.15 1713.8 1024.5 1746.79 996.974 1763.86C969.452 1780.93 931.483 1709.94 912.178 1710.51C892.873 1711.08 891.527 1718.16 859.648 1740.34C827.77 1762.51 746.653 1755.57 718.811 1728.26C690.968 1700.95 625.226 1720.09 572.766 1706.45Z" fill="#314C7C"/>
<path d="M531 1615C496.6 1588.6 520 1488.67 536 1442L614 1504C612.333 1517.67 610 1552.2 614 1581C619 1617 718 1630 758 1665C798 1700 842 1648 862 1681C882 1714 898 1686 951 1711C1004 1736 1052 1708 1082 1711C1112 1714 1114 1751 1127 1765C1140 1779 1166 1784 1186 1785C1206 1786 1217 1833 1224 1849C1229.6 1861.8 1265 1854.33 1282 1849C1278 1882 1229 1887 1211 1887C1193 1887 1182 1872 1173 1861C1164 1850 1145 1861 1114 1861C1083 1861 1056 1813 1029 1795C1002 1777 966 1803 934 1808C902 1813 860 1758 842 1751C824 1744 820 1750 782 1758C744 1766 672 1728 657 1692C642 1656 574 1648 531 1615Z" fill="#B46A47"/>
<path d="M415 1525C429.4 1494.6 433 1454.33 427 1433L387 1367C414.333 1382.33 486.6 1421 509 1453C537 1493 528 1534 530 1580C532 1626 591 1633 641 1645C691 1657 666.201 1706.25 697 1725C743 1753 829 1715 863 1745C890.2 1769 935 1823 945 1861C923 1840 869.2 1830.8 834 1810C790 1784 687 1859 601 1815C571.153 1799.73 551 1749 543 1713C535 1677 451.721 1696.84 415 1645C381 1597 397 1563 415 1525Z" fill="#E5B15A"/>
<path d="M477 1621C453 1605 467 1503.67 477 1455V1575C477 1622 534 1633 564 1652C594 1671 608 1712 620 1742C632 1772 670 1763 731 1757C779.8 1752.2 822.667 1779 838 1793C833 1790.33 813 1782.2 773 1771C723 1757 648 1783 627 1771C606 1759 599 1708 576 1679C553 1650 507 1641 477 1621Z" fill="white"/>
<path d="M671 1618C671.151 1618.3 671.303 1618.6 671.455 1618.9C678.918 1633.21 709.948 1672.21 730.5 1682C756.996 1694.62 818.915 1695.48 848 1704.97C891 1719 884.5 1722.97 915.5 1750.97C946.5 1778.97 998 1742 1023 1739C1048 1736 1078.07 1799.5 1113 1799.5C1146 1799.5 1163.33 1818.67 1169 1827C1158.5 1818.5 1138.5 1801.61 1118 1807C1098.08 1812.23 1057 1765.97 1039 1750.97C1021 1735.97 973.5 1766.28 951.5 1772.28C929.5 1778.28 899.5 1747.28 874 1721.78C855.5 1703.28 752 1702.5 726.5 1691C696.313 1677.38 683.646 1643.19 671.455 1618.9C671.292 1618.59 671.14 1618.29 671 1618Z" fill="white"/>
<path d="M1572 516C1546.4 460 1592 376 1646 340C1618 404 1590 492 1680 540C1726.32 564.705 1776 652 1762 692C1748 732 1804 956 1776 1028C1753.6 1085.6 1694.67 1093.33 1668 1090L1618 830C1626 803.333 1642.8 738.4 1646 692C1650 634 1604 586 1572 516Z" fill="#314C7C"/>
<path d="M1682 768C1660 796 1660 778 1677 844L1698 1036C1732.67 996 1806.4 901.6 1824 844C1846 772 1806 734 1802 708C1798 682 1844 638 1850 578C1854.36 534.354 1799.99 479.695 1768 402C1754 368 1750 283.333 1754 234C1746.67 246.667 1727.2 287.6 1708 350C1684 428 1718 490 1726 514C1734 538 1714 568 1682 618C1650 668 1703.01 741.265 1682 768Z" fill="#426671"/>
<path d="M1728 1034C1699.2 1034 1707.67 1050.33 1695 1065C1695 1082.33 1683.57 1147 1671 1191C1660.89 1226.38 1618 1327 1600 1377C1629.33 1344.33 1696 1269.2 1728 1250C1768 1226 1776 1187 1788 1141C1800 1095 1816 1094 1856 1078C1888 1065.2 1838.67 943.667 1816 881C1809.33 911.667 1799.2 969.8 1788 997C1774 1031 1764 1034 1728 1034Z" fill="#426671"/>
<path d="M1799.5 1062.5C1817.63 1062.5 1820 1002.67 1823 975.5C1824.33 993.167 1827.12 1048.95 1816.5 1062.5C1802 1081 1771.55 1070.66 1760 1081C1741 1098 1683.33 1184.83 1663.5 1216L1684.5 1140C1692.33 1132.83 1710.3 1113.2 1723.5 1098C1740 1079 1766 1062.5 1799.5 1062.5Z" fill="#9EE6E6"/>
<path d="M1758 517C1757.2 492.2 1745 428.667 1736 401C1758 439 1757.91 448.845 1766 477C1789 557 1745 587 1745 627C1745 700.335 1760.37 750.853 1753 784C1745 820 1720.33 881 1685 916L1679 877C1694.33 861 1713.2 827 1730 803C1751 773 1730 690.745 1730 636C1730 588 1759 548 1758 517Z" fill="#9EE7E7"/>
<circle cx="1003" cy="1016" r="700" fill="#9B1C2E"/>
<circle cx="1001.13" cy="1007.6" r="590.833" fill="white" stroke="#7B1625" stroke-width="15"/>
<path d="M760.333 1262.87C766.989 1262.9 773.524 1261.09 779.221 1257.65C784.918 1254.21 789.556 1249.26 792.627 1243.36L878.493 1080.31H745.773C736.119 1080.31 726.861 1076.47 720.035 1069.65C713.208 1062.82 709.373 1053.56 709.373 1043.91V970.827C709.373 966.046 710.315 961.313 712.144 956.897C713.973 952.481 716.655 948.468 720.035 945.088C723.415 941.708 727.427 939.027 731.844 937.197C736.26 935.368 740.993 934.427 745.773 934.427H955.68L1118.73 625.493C1121.85 619.628 1126.5 614.718 1132.19 611.283C1137.87 607.848 1144.38 606.018 1151.03 605.987H1425.8C1329.85 504.729 1200.83 441.155 1062.08 426.764C923.329 412.374 784.009 448.117 669.323 527.529C554.637 606.941 472.16 724.776 436.811 859.719C401.462 994.662 415.576 1137.8 476.6 1263.24H760.333V1262.87Z" fill="#9B1C2E"/>
<path d="M1242.49 751.493C1235.8 751.492 1229.24 753.362 1223.55 756.891C1217.86 760.42 1213.27 765.468 1210.29 771.467L1124.33 934.053H1257.05C1266.69 934.078 1275.93 937.924 1282.73 944.748C1289.54 951.571 1293.36 960.816 1293.36 970.453V1043.53C1293.36 1053.17 1289.54 1062.42 1282.73 1069.24C1275.93 1076.06 1266.69 1079.91 1257.05 1079.93H1047.15L884.093 1388.77C880.998 1394.66 876.354 1399.59 870.663 1403.02C864.972 1406.46 858.449 1408.28 851.8 1408.28H577.027C672.959 1509.57 801.978 1573.18 940.74 1587.6C1079.5 1602.01 1218.84 1566.29 1333.55 1486.88C1448.25 1407.47 1530.75 1289.63 1566.11 1154.68C1601.47 1019.72 1587.35 876.571 1526.32 751.12H1242.49V751.493Z" fill="#9B1C2E"/>
<g style="mix-blend-mode:multiply">
<path d="M1111 1381C857 1475 518.5 1294.17 318.5 1163.5C318.5 1163.5 343.5 1349 509 1513C674.5 1677 832 1710 1004 1718C1103 1722.6 1424 1683 1609 1365C1789.13 1055.37 1660 777 1660 777C1517 1062 1472.28 1247.3 1111 1381Z" fill="#912635" fill-opacity="0.5"/>
</g>
<path d="M178.396 1081.97C164.533 1151.07 338.328 1344.66 401.336 1421.8L414.26 1403.56C402.093 1377.4 323.701 1270.41 262.568 1199.13C165.623 1086.08 216.804 1037.29 269.106 960.346C321.408 883.401 343.679 810.944 332.571 712.108C324.596 641.142 425.521 481.557 420.423 429.173C377.497 493.395 294.475 648.175 305.796 753.52C319.946 885.2 195.724 995.603 178.396 1081.97Z" fill="url(#paint1_linear_34_52)"/>
<path d="M495.866 394.858C486.817 432.703 438.585 459.263 408.234 467.852C390.66 446.671 379.748 407.101 388.797 369.256C397.846 331.411 429.15 306.462 458.717 313.532C488.283 320.602 504.916 357.013 495.866 394.858Z" fill="#773D33"/>
<path d="M371.702 444.228C380.768 487.309 373.136 520.607 356.344 544.105C331.665 539.008 301.234 516.951 286.065 484.713C270.896 452.476 279.015 416.735 304.201 404.884C329.386 393.033 364.046 407.849 371.702 444.228Z" fill="#773D33"/>
<path d="M428.426 597.849C384.578 601.791 354.973 618.837 337.42 641.773C349.519 663.878 379.518 686.518 414.784 691.586C450.05 696.653 481.848 678.426 485.806 650.875C489.765 623.323 465.453 594.52 428.426 597.849Z" fill="#773D33"/>
<path d="M449.022 492.238C404.485 510.358 379.008 537.616 368.001 567.177C387.696 586.4 426.259 600.466 464.71 594.496C503.161 588.526 530.551 559.335 525.887 529.294C521.223 499.254 486.631 476.935 449.022 492.238Z" fill="#773D33"/>
<path d="M282.905 529.823C317.799 558.715 332.979 590.422 334.504 620.104C311.362 631.804 272.725 633.529 239.86 617.279C206.995 601.03 190.643 567.042 203.338 541.366C216.033 515.691 253.438 505.425 282.905 529.823Z" fill="#773D33"/>
<path d="M239.742 630.401C283.324 650.713 307.415 679.203 316.939 709.275C296.313 727.495 257.099 739.627 218.992 731.754C180.885 723.88 154.979 693.363 161.131 663.592C167.282 633.821 202.94 613.249 239.742 630.401Z" fill="#773D33"/>
<path d="M234.079 747.43C275.146 772.438 295.937 803.418 302.077 834.359C279.561 850.186 239.246 857.905 202.243 845.865C165.241 833.824 142.871 800.628 152.278 771.72C161.685 742.812 199.401 726.311 234.079 747.43Z" fill="#773D33"/>
<path d="M403.044 815.474C355.374 821.755 323.836 841.691 305.717 867.511C319.917 891.087 353.674 914.44 392.386 918.379C431.098 922.318 464.975 900.994 468.052 870.75C471.13 840.506 443.299 810.171 403.044 815.474Z" fill="#773D33"/>
<path d="M354.242 922.298C306.571 928.578 275.034 948.514 256.914 974.335C271.114 997.911 304.871 1021.26 343.583 1025.2C382.295 1029.14 416.172 1007.82 419.25 977.574C422.327 947.33 394.497 916.995 354.242 922.298Z" fill="#773D33"/>
<path d="M184.324 855.7C227.905 876.012 251.997 904.502 261.521 934.573C240.894 952.794 201.681 964.926 163.573 957.052C125.466 949.179 99.5612 918.662 105.712 888.891C111.864 859.119 147.522 838.547 184.324 855.7Z" fill="#773D33"/>
<path d="M141.379 972.012C176.501 1004.85 190.556 1039.41 190.274 1070.95C165.01 1081.87 123.967 1081.23 90.1877 1061.91C56.4081 1042.6 41.2571 1005.55 56.3471 979.157C71.4371 952.767 111.72 944.282 141.379 972.012Z" fill="#773D33"/>
<path d="M295.555 1027.6C247.885 1033.88 216.347 1053.82 198.228 1079.64C212.428 1103.21 246.185 1126.57 284.897 1130.51C323.609 1134.45 357.486 1113.12 360.563 1082.88C363.641 1052.63 335.81 1022.3 295.555 1027.6Z" fill="#773D33"/>
<path d="M336.582 1144.68C289.7 1155.35 260.148 1178.13 244.502 1205.52C260.828 1227.68 296.607 1247.8 335.517 1248.13C374.428 1248.46 406.18 1224.08 406.438 1193.68C406.696 1163.28 376.171 1135.66 336.582 1144.68Z" fill="#773D33"/>
<path d="M402.291 1243.91C362.658 1263.86 341.228 1290.81 333.279 1318.81C352.81 1335.04 389.317 1345.14 424.247 1336.82C459.176 1328.5 482.223 1299.63 475.722 1272.34C469.221 1245.05 435.759 1227.07 402.291 1243.91Z" fill="#773D33"/>
<path d="M156.295 1096.72C197.803 1120.99 219.147 1151.59 225.84 1182.41C203.612 1198.64 163.442 1207.08 126.23 1195.71C89.0175 1184.33 66.0554 1151.54 74.9424 1122.47C83.8293 1093.4 121.243 1076.23 156.295 1096.72Z" fill="#773D33"/>
<path d="M171.028 1214.52C218.983 1211.03 253.901 1224.17 276.868 1245.79C267.73 1271.75 239.393 1301.45 202.277 1313.14C165.162 1324.83 127.672 1310.79 118.542 1281.8C109.412 1252.8 130.532 1217.46 171.028 1214.52Z" fill="#773D33"/>
<path d="M221.704 1318.66C265.894 1299.71 303.19 1300.74 331.956 1313.68C331.791 1341.2 314.699 1378.52 283.43 1401.68C252.161 1424.84 212.144 1423.82 194.05 1399.39C175.956 1374.96 184.388 1334.66 221.704 1318.66Z" fill="#773D33"/>
<path d="M423.403 702.875C375.423 699.745 340.605 713.152 317.801 734.947C327.134 760.838 355.693 790.322 392.895 801.73C430.097 813.137 467.48 798.824 476.392 769.76C485.305 740.696 463.92 705.519 423.403 702.875Z" fill="#773D33"/>
<path d="M301.546 1012.96C288.546 975.407 362.936 823.377 406.27 756.57C408.677 754.765 384.603 837.821 344.88 933.517C307.501 1023.57 409.945 1077.96 458.631 1173.66C510.993 1276.58 451.409 1328.94 436.964 1431.86C425.409 1514.19 520.021 1526.35 575.994 1531.16C569.975 1536.58 590.439 1551.03 575.994 1558.25C557.938 1567.28 447.798 1551.03 406.27 1486.02C364.741 1421.02 442.381 1307.27 436.964 1226.02C431.548 1144.77 317.796 1059.91 301.546 1012.96Z" fill="url(#paint2_linear_34_52)"/>
<path d="M395.436 1121.3C382.797 1153.8 364.271 1175.44 317.616 1190.78C270.96 1206.11 240.262 1198.75 231.231 1171.28C222.2 1143.81 231.231 1115.24 281.685 1094.21C325.019 1076.16 362.936 1103.24 395.436 1121.3Z" fill="#426671"/>
<path d="M439.43 1223.48C453.234 1245.34 427.972 1274.8 394.857 1295.71C361.742 1316.62 323.706 1315.85 309.902 1293.99C296.098 1272.13 301.987 1209.38 348.953 1208.53C395.919 1207.68 425.625 1201.61 439.43 1223.48Z" fill="#426671"/>
<path d="M544.913 1083.78C551.691 1104.4 528.8 1130.45 493.783 1141.96C458.767 1153.47 425.687 1172.61 418.909 1151.99C412.131 1131.37 434.221 1078.8 469.238 1067.29C504.254 1055.78 538.135 1063.16 544.913 1083.78Z" fill="url(#paint3_linear_34_52)"/>
<path d="M587.702 1190.23C594.481 1210.85 571.589 1236.89 536.573 1248.4C501.557 1259.92 468.476 1279.06 461.698 1258.44C454.92 1237.82 477.011 1185.25 512.027 1173.74C547.043 1162.23 580.924 1169.61 587.702 1190.23Z" fill="url(#paint4_linear_34_52)"/>
<path d="M554.299 1311.2C561.077 1331.82 538.186 1357.87 503.17 1369.38C468.153 1380.89 435.073 1400.03 428.295 1379.41C421.517 1358.79 443.608 1306.22 478.624 1294.71C513.64 1283.2 547.521 1290.58 554.299 1311.2Z" fill="url(#paint5_linear_34_52)"/>
<path d="M292.596 1399.56C287.732 1420.71 312.91 1444.55 348.833 1452.81C384.755 1461.07 419.448 1477.11 424.311 1455.95C429.175 1434.8 402.367 1384.47 366.445 1376.21C330.523 1367.95 297.459 1378.41 292.596 1399.56Z" fill="url(#paint6_linear_34_52)"/>
<path d="M320.888 1042.56C298.514 1042.01 256.642 1045.67 219.051 1034.33C168.252 1019 157.996 993.225 165.634 964.824C171.566 942.766 213.378 922.534 251.808 945.642C290.239 968.749 310.268 1015.9 320.888 1042.56Z" fill="#426671"/>
<ellipse cx="70.5727" cy="52.3618" rx="70.5727" ry="52.3618" transform="matrix(-0.83114 0.556064 0.556064 0.83114 436.913 915.539)" fill="#426671"/>
<path d="M370.158 821.571C386.239 845.607 424.86 816.956 457.255 795.283C489.65 773.61 502.875 736.555 486.794 712.52C470.713 688.485 431.417 686.57 399.022 708.243C366.627 729.916 354.078 797.536 370.158 821.571Z" fill="#426671"/>
<path d="M315.863 935.538C344.525 931.385 335.311 884.114 329.713 845.483C324.115 806.852 296.342 778.902 267.679 783.056C239.017 787.209 220.319 821.893 225.917 860.524C231.515 899.155 287.2 939.691 315.863 935.538Z" fill="#426671"/>
<path d="M350.243 921.423C331.91 905.129 360.292 876.181 382.121 851.621C403.95 827.062 436.507 820.362 454.84 836.656C473.172 852.95 470.337 886.068 448.508 910.628C426.68 935.187 368.575 937.718 350.243 921.423Z" fill="#426671"/>
<path d="M1492 336C1548 406 1634 712 1642 728C1628 718 1580 690.8 1580 662C1580 626 1498 424 1472 370C1447.43 318.968 1335.25 284.97 1278 308C1158.67 356 1206 424 1126 456C1062.2 481.519 800 336 732 308C664 280 630.194 319.721 612 336C574 370 566.667 425.333 560 456C556 433.333 553.2 377.6 574 336C600 284 672 248 732 266C782.72 281.216 1034.86 450.447 1112 424C1182 400 1170 312 1258 280C1334 252.363 1432.02 261.02 1492 336Z" fill="url(#paint7_linear_34_52)"/>
<path d="M509 472C522.5 406.5 551.667 386.333 569.5 368C572 371.833 574.6 381.6 565 390C553 400.5 524.602 452.815 522.5 472C518.5 508.5 514.862 537 519 567C523.138 597 542.5 626.938 574 644C593.2 654.4 616 657 625 657C612 659.167 580.8 660.1 560 646.5C534 629.5 516.5 600.5 509 575.5C501.5 550.5 499.008 520.478 509 472Z" fill="#327D3F"/>
<path d="M930 306C928.4 358.8 970 400.667 1002 418H1022C982 390 958.8 338.4 954 316C949.2 293.6 966 213.333 982 192C960.667 206 931.6 253.2 930 306Z" fill="#327D3F"/>
<path d="M676 249C695.02 251.624 752.833 280.286 775.5 297.619L809 306.5C786.333 280.5 715.5 230.5 671.5 230.5C595.465 230.5 555.5 249 520.5 273.5C555 263.5 618.5 241.069 676 249Z" fill="#327C3E"/>
<path d="M569.5 483.5C556.732 465.624 555.5 419.333 558 396.5C565.5 385.833 586.1 362.5 580.5 378.5C565.45 421.5 576 466 587 483.5C603.5 509.749 629 525 644 540.5C633.333 532.667 589.5 511.5 569.5 483.5Z" fill="#327D3F"/>
<path d="M685 505C702.097 512.891 747.123 505.536 770.88 496.414C772.899 495.639 775.391 498.541 774.278 500.396C760.168 523.927 746.982 558.776 676 554.5C634.5 552 600.5 532.5 606.5 512.5C612.5 492.5 658.996 492.998 685 505Z" fill="#327D3F"/>
<path d="M750.643 385.009C731.814 384.846 693.793 410.063 675.888 428.146C674.366 429.683 670.901 428.062 671.153 425.914C674.34 398.661 672.032 361.473 738.495 336.186C777.352 321.402 816.363 325.198 819.117 345.897C821.871 366.595 779.282 385.258 750.643 385.009Z" fill="#327D3F"/>
<path d="M498.843 319.056C482.022 323.299 456.095 355.309 445.525 376.429C444.559 378.36 440.737 377.938 440.276 375.829C434.556 349.633 420.953 315.484 472.592 276.293C502.843 253.335 539.069 247.703 548.046 266.396C557.023 285.089 524.64 312.55 498.843 319.056Z" fill="#327D3F"/>
<path d="M535.216 238.63C523.141 231.014 489.878 233.481 470.579 239.021C468.504 239.616 466.108 236.456 467.302 234.658C479.729 215.955 493.259 189.174 546.062 197.726C577.678 202.846 602.188 221.694 595.994 238.048C589.799 254.403 554.194 250.599 535.216 238.63Z" fill="#327D3F"/>
<path d="M664.862 186.555C650.944 183.383 629.201 158.088 619.496 140.511C618.452 138.622 614.523 139.157 614.093 141.272C609.625 163.278 600.217 191.77 643.559 223.119C669.51 241.889 700.163 245.935 707.369 230C714.575 214.065 686.739 191.54 664.862 186.555Z" fill="#327D3F"/>
<path d="M604.66 285.481C595.807 289.093 584.36 307.24 579.035 320.609C578.236 322.615 574.008 322.718 573.221 320.708L573.088 320.367C567.404 305.857 560.259 287.613 585.436 262.229C601.515 246.017 622.61 239.617 629.526 249.992C636.442 260.366 619.472 279.438 604.66 285.481Z" fill="#327D3F"/>
<path d="M863 273.5C856.916 259.357 826.578 232.184 806.798 222.176C804.868 221.199 805.129 217.17 807.233 216.666L807.261 216.659C832.731 210.554 875.801 200.231 917 242C941.394 266.732 947.399 303.422 932.5 312.5C917.601 321.578 872.457 295.482 863 273.5Z" fill="#327D3F"/>
<path d="M1031.2 299.226C1037.29 285.084 1067.63 257.91 1087.41 247.902C1089.34 246.926 1089.08 242.896 1086.97 242.392L1086.94 242.385C1061.47 236.28 1018.4 225.957 977.205 267.726C952.811 292.458 946.806 329.148 961.705 338.226C976.604 347.304 1021.75 321.208 1031.2 299.226Z" fill="#327D3F"/>
<path d="M994.692 544.395C983.045 554.464 943.89 565.671 921.725 566.042C919.562 566.078 918.038 569.818 919.71 571.189L919.733 571.208C939.984 587.817 974.229 615.904 1029.53 596.306C1062.27 584.702 1083.69 554.312 1074.24 539.641C1064.8 524.97 1012.8 528.745 994.692 544.395Z" fill="#327D3F"/>
<path d="M1139.49 558.435C1144.5 572.994 1140.32 613.506 1132.41 634.214C1131.63 636.235 1134.54 639.042 1136.43 638.001L1136.46 637.987C1159.42 625.379 1198.24 604.06 1200.65 545.44C1202.07 510.732 1181.85 479.537 1164.71 482.835C1147.58 486.134 1131.71 535.805 1139.49 558.435Z" fill="#327D3F"/>
<path d="M1425.64 422.694C1417.78 432.224 1388.95 446.213 1370.79 450.107C1368.67 450.56 1367.79 454.647 1369.67 455.717C1388.63 466.513 1419.9 483.221 1461.21 460.177C1486.29 446.19 1499.54 418.461 1489.81 407.812C1480.09 397.164 1438.23 407.436 1425.64 422.694Z" fill="#327D3F"/>
<path d="M1349.68 399.253C1345.59 407.647 1342.81 417.174 1336.76 422.785C1335.14 424.28 1335.62 428.833 1337.8 429.086C1349.44 430.437 1364.62 429.155 1387 415.5C1408.59 402.326 1412.09 380.396 1401.57 373.281C1391.04 366.167 1357.31 383.592 1349.68 399.253Z" fill="#327D3F"/>
<path d="M1328.96 351.653C1322.8 344.641 1317.59 336.19 1310.27 332.379C1308.32 331.364 1307.58 326.848 1309.62 326.025C1320.48 321.645 1335.46 318.864 1360.66 326.113C1384.96 333.105 1394.14 353.328 1385.87 362.973C1377.61 372.618 1340.47 364.737 1328.96 351.653Z" fill="#327D3F"/>
<path d="M1256.68 408.253C1252.02 417.811 1231.09 435.144 1216.38 442.533C1214.44 443.504 1214.57 447.79 1216.65 448.386C1235.2 453.701 1264.84 460.719 1294.87 433.02C1313.46 415.873 1319.09 389.396 1308.57 382.282C1298.04 375.167 1264.31 392.592 1256.68 408.253Z" fill="#327D3F"/>
<path d="M1095.62 504.045C1085.95 500.023 1059.26 500.844 1043.53 504.951C1041.44 505.498 1038.69 502.192 1039.86 500.37C1050.12 484.327 1067.49 459.893 1107.71 460.786C1132.67 461.34 1154.12 477.261 1150.97 489.396C1147.83 501.531 1111.49 510.652 1095.62 504.045Z" fill="#327D3F"/>
<path d="M1050 183.5C1065.68 171.734 1094.62 141.619 1113.82 130.69C1115.7 129.621 1115.42 125.281 1113.34 124.693C1085.26 116.764 1029.74 97.6146 988.205 139.726C963.811 164.458 957.806 201.148 972.705 210.226C987.604 219.304 1030.86 197.861 1050 183.5Z" fill="#327D3F"/>
<path d="M578.237 550.826C588.961 560.906 623.458 566.823 644.203 566.397C646.366 566.353 647.839 570.044 646.207 571.463C629.745 585.768 610.372 607.004 558.722 586.139C527.651 573.588 506.651 550.04 516.342 536.378C526.032 522.717 561.432 535.029 578.237 550.826Z" fill="#327D3F"/>
<path d="M481.118 631.176C483.44 645.709 468.97 677.579 456.972 694.508C455.721 696.273 457.948 699.564 460.039 699.01C481.118 693.417 509.568 689.307 521.297 634.851C528.353 602.091 520.655 571.493 503.909 571.843C487.163 572.194 477.479 608.401 481.118 631.176Z" fill="#327D3F"/>
<path d="M629.5 613C653.225 619.488 703.761 603.708 729.699 587.862C731.545 586.734 734.191 589.023 733.251 590.971C717.937 622.714 701.181 666.757 649.198 672.163C596.422 677.651 549.577 660.286 553.001 633.986C556.424 607.687 594.274 603.367 629.5 613Z" fill="#327D3F"/>
<path d="M1137 502.5C1155 483 1170.33 432.833 1170.5 405.5L1189 380.5C1185 414 1178.57 477.5 1152.5 507C1137.3 524.2 1085.5 541.167 1062 545C1076 535.833 1117.33 523.809 1137 502.5Z" fill="#327C3E"/>
<path d="M1409.5 362C1466.68 368.064 1479.33 390 1497.5 405L1501.5 421.5C1474.83 407.666 1456.21 386.323 1415.5 377.5C1371.57 367.979 1322.5 381.166 1289.5 384.5C1315.33 378.5 1343.5 355 1409.5 362Z" fill="url(#paint8_linear_34_52)"/>
</g>
</svg>
