<svg width="2000" height="2000" viewBox="0 0 2000 2000" fill="none" xmlns="http://www.w3.org/2000/svg"> 
<defs>
<linearGradient id="paint0_linear_74_20" x1="1241.71" y1="234" x2="1976" y2="1183" gradientUnits="userSpaceOnUse">
<stop stop-color="#5F9B4D"/>
<stop offset="1" stop-color="#2E497D"/>
</linearGradient>
<linearGradient id="paint1_linear_74_20" x1="1453" y1="773" x2="1640" y2="930" gradientUnits="userSpaceOnUse">
<stop stop-color="#548859"/>
<stop offset="1" stop-color="#3F656E"/>
</linearGradient>
<linearGradient id="paint2_linear_74_20" x1="1417" y1="876" x2="1573" y2="888" gradientUnits="userSpaceOnUse">
<stop stop-color="#578E56"/>
<stop offset="1" stop-color="#446E6A"/>
</linearGradient>
<linearGradient id="paint3_linear_74_20" x1="1450.38" y1="608.266" x2="1522.13" y2="747.302" gradientUnits="userSpaceOnUse">
<stop stop-color="#578E56"/>
<stop offset="1" stop-color="#446E6A"/>
</linearGradient>
<linearGradient id="paint4_linear_74_20" x1="1581.13" y1="714.924" x2="1551.33" y2="821.742" gradientUnits="userSpaceOnUse">
<stop stop-color="#578E56"/>
<stop offset="1" stop-color="#446E6A"/>
</linearGradient>
<linearGradient id="paint5_linear_74_20" x1="1813" y1="730" x2="1768" y2="871" gradientUnits="userSpaceOnUse">
<stop stop-color="#578E56"/>
<stop offset="1" stop-color="#3C6070"/>
</linearGradient>
<linearGradient id="paint6_linear_74_20" x1="1763.99" y1="607.034" x2="1718.99" y2="748.034" gradientUnits="userSpaceOnUse">
<stop stop-color="#578E56"/>
<stop offset="1" stop-color="#3C6070"/>
</linearGradient>
<linearGradient id="paint7_linear_74_20" x1="1640.89" y1="790.609" x2="1714.41" y2="838.238" gradientUnits="userSpaceOnUse">
<stop stop-color="#578E56"/>
<stop offset="1" stop-color="#3C6070"/>
</linearGradient>
<linearGradient id="paint8_linear_74_20" x1="1376" y1="574" x2="1675" y2="582" gradientUnits="userSpaceOnUse">
<stop stop-color="#609C4E"/>
<stop offset="1" stop-color="#497663"/>
</linearGradient>
<linearGradient id="paint9_linear_74_20" x1="1497.5" y1="490.5" x2="1581.5" y2="524.5" gradientUnits="userSpaceOnUse">
<stop stop-color="#619D4F"/>
<stop offset="1" stop-color="#50825D"/>
</linearGradient>
<linearGradient id="paint10_linear_74_20" x1="1226" y1="349" x2="1179.22" y2="483.245" gradientUnits="userSpaceOnUse">
<stop stop-color="#619D4F"/>
<stop offset="1" stop-color="#50825D"/>
</linearGradient>
<linearGradient id="paint11_linear_74_20" x1="1482.06" y1="274.054" x2="1470.68" y2="361.666" gradientUnits="userSpaceOnUse">
<stop stop-color="#619D4F"/>
<stop offset="1" stop-color="#50825D"/>
</linearGradient>
<linearGradient id="paint12_linear_74_20" x1="1470.21" y1="408.989" x2="1537.2" y2="403.689" gradientUnits="userSpaceOnUse">
<stop stop-color="#619D4F"/>
<stop offset="1" stop-color="#50825D"/>
</linearGradient>
<linearGradient id="paint13_linear_74_20" x1="1091.66" y1="168.133" x2="1161.2" y2="226.211" gradientUnits="userSpaceOnUse">
<stop stop-color="#619D4F"/>
<stop offset="1" stop-color="#50825D"/>
</linearGradient>
<linearGradient id="paint14_linear_74_20" x1="1090.19" y1="254.542" x2="1144.73" y2="229.374" gradientUnits="userSpaceOnUse">
<stop stop-color="#619D4F"/>
<stop offset="1" stop-color="#50825D"/>
</linearGradient>
<linearGradient id="paint15_linear_74_20" x1="909.236" y1="112.341" x2="1024.98" y2="208.998" gradientUnits="userSpaceOnUse">
<stop stop-color="#619D4F"/>
<stop offset="1" stop-color="#50825D"/>
</linearGradient>
<linearGradient id="paint16_linear_74_20" x1="1339.5" y1="180.763" x2="1440.47" y2="281.521" gradientUnits="userSpaceOnUse">
<stop stop-color="#50825D"/>
<stop offset="1" stop-color="#619D4F"/>
</linearGradient>
<linearGradient id="paint17_linear_74_20" x1="947.468" y1="497.67" x2="1032.05" y2="382.818" gradientUnits="userSpaceOnUse">
<stop stop-color="#50825D"/>
<stop offset="1" stop-color="#619D4F"/>
</linearGradient>
<linearGradient id="paint18_linear_74_20" x1="1035.63" y1="351.121" x2="1178.26" y2="349.319" gradientUnits="userSpaceOnUse">
<stop stop-color="#50825D"/>
<stop offset="1" stop-color="#619D4F"/>
</linearGradient>
<linearGradient id="paint19_linear_74_20" x1="781.108" y1="320.523" x2="902.245" y2="335.43" gradientUnits="userSpaceOnUse">
<stop stop-color="#50825D"/>
<stop offset="1" stop-color="#619D4F"/>
</linearGradient>
<linearGradient id="paint20_linear_74_20" x1="736.495" y1="458.734" x2="780.321" y2="353.692" gradientUnits="userSpaceOnUse">
<stop stop-color="#50825D"/>
<stop offset="1" stop-color="#619D4F"/>
</linearGradient>
<linearGradient id="paint21_linear_74_20" x1="602.495" y1="472.734" x2="646.321" y2="367.693" gradientUnits="userSpaceOnUse">
<stop stop-color="#50825D"/>
<stop offset="1" stop-color="#619D4F"/>
</linearGradient>
<linearGradient id="paint22_linear_74_20" x1="1446.22" y1="587.3" x2="1520.13" y2="552.664" gradientUnits="userSpaceOnUse">
<stop stop-color="#619D4F"/>
<stop offset="1" stop-color="#50825D"/>
</linearGradient>
<linearGradient id="paint23_linear_74_20" x1="1519.66" y1="257" x2="1614" y2="459.5" gradientUnits="userSpaceOnUse">
<stop stop-color="#5E994F"/>
<stop offset="1" stop-color="#4F805E"/>
</linearGradient>
<linearGradient id="paint24_linear_74_20" x1="1286" y1="333" x2="1013" y2="429" gradientUnits="userSpaceOnUse">
<stop stop-color="#5D9750"/>
<stop offset="1" stop-color="#609C4E"/>
</linearGradient>
<linearGradient id="paint25_linear_74_20" x1="993" y1="160" x2="1233" y2="252" gradientUnits="userSpaceOnUse">
<stop stop-color="#609C4E"/>
<stop offset="1" stop-color="#5F9A4F"/>
</linearGradient>
<linearGradient id="paint26_linear_74_20" x1="598.574" y1="198.889" x2="819.237" y2="271.555" gradientUnits="userSpaceOnUse">
<stop stop-color="#578E56"/>
<stop offset="1" stop-color="#609C4E"/>
</linearGradient>
<clipPath id="clip0_74_20">
<rect width="2000" height="2000" fill="white"/>
</clipPath>
</defs>
<g clip-path="url(#clip0_74_20)">
<path d="M1156 1835C906.4 1889.4 706.667 1687 700 1587L852 1439C952 1435 1192 1403.8 1352 1311C1512 1218.2 1480 816.334 1464 695C1496 688.334 1640 655 1696 727C1758.61 807.499 1864 919 1796 1019C1728 1119 1833.49 1154.04 1816 1287C1796 1439 1594.89 1564.88 1464 1635C1352 1695 1468 1767 1156 1835Z" fill="#FFEA85"/>
<path d="M842 212C847.011 222 796.408 311.224 727.236 347.274C658.064 383.323 583.985 378 577.494 365.547C574.083 359 609.075 289.323 678.247 253.273C747.42 217.224 836.948 201.918 842 212Z" fill="#5A908A"/>
<path d="M548.848 221.065C562.38 213.198 581.074 287.167 550.801 363.224C520.858 424.022 457.246 449.771 444.648 443.566C438.025 440.305 412.876 352.887 486.145 307.183C552.264 265.939 539.1 226.733 548.848 221.065Z" fill="#5A908A"/>
<path d="M294.276 358.287C302.441 346.496 346.728 400.586 351.206 475.459C350.021 537.546 307.268 583.655 294.403 583.41C287.64 583.281 232.766 520.546 275.765 454.125C314.57 394.184 288.395 366.782 294.276 358.287Z" fill="#5A908A"/>
<path d="M172.999 565C179.538 552.236 242.194 564.791 256.498 638.421C263.504 700.123 227.2 751.463 214.414 752.915C207.693 753.678 139.124 699.507 172.999 628C190.154 591.786 168.288 574.196 172.999 565Z" fill="#5A908A"/>
<path d="M74.361 747.873C73.9217 733.537 134.848 714.267 182.938 771.829C218.875 822.471 211.886 884.962 201.392 892.408C195.875 896.323 109.67 882.01 104.791 803.036C102.321 763.041 74.6776 758.2 74.361 747.873Z" fill="#5A908A"/>
<path d="M72.5978 922.509C68.8536 908.354 124.719 876.958 185.613 924.483C232.88 967.576 229.194 1027.96 231.717 1040.58C237.999 1072 133.52 1047.42 123 983C110.999 909.509 75.2952 932.707 72.5978 922.509Z" fill="#5A908A"/>
<path d="M631.223 501.485C643.48 491.751 581.409 447.387 499.551 447.862C432.021 453.591 384.862 503.445 386.049 517.438C386.673 524.794 458.915 580.07 528.176 528.495C590.679 481.951 622.392 508.498 631.223 501.485Z" fill="#5A908A"/>
<path d="M532.223 627.485C544.48 617.751 482.409 573.387 400.551 573.862C333.021 579.591 285.862 629.445 287.049 643.438C287.673 650.794 359.915 706.07 429.176 654.495C491.679 607.951 523.392 634.498 532.223 627.485Z" fill="#5A908A"/>
<path d="M446.974 755.967C457.679 746.364 402.526 701.413 330.384 701.064C270.924 706.108 229.862 755.445 231.049 769.438C231.673 776.794 295.901 832.75 356.425 781.916C411.044 736.041 439.261 762.884 446.974 755.967Z" fill="#5A908A"/>
<path d="M417.87 820.734C423.066 807.324 353.536 792.223 289.057 824.582C238.328 856.006 224 895 231.456 930.528C236.277 953.499 317.947 957.607 348.889 884.875C376.812 819.239 414.126 830.394 417.87 820.734Z" fill="#5A908A"/>
<path d="M398.469 931.705C397.507 917.357 328.114 933.077 283.37 989.668C250.69 1039.6 264.228 1102.34 275.978 1110.03C282.155 1114.08 365.807 1097.99 363.087 1019C360.632 947.715 399.162 942.042 398.469 931.705Z" fill="#5A908A"/>
<path d="M772.758 1365.78C707.833 1375.59 641.613 1372.51 577.878 1356.73C514.142 1340.94 454.14 1312.76 401.296 1273.79C348.453 1234.81 303.803 1185.81 269.897 1129.58C235.99 1073.36 213.491 1011 203.683 946.075C193.876 881.15 196.952 814.93 212.736 751.194C228.521 687.459 256.704 627.456 295.678 574.613C334.651 521.77 383.651 477.12 439.88 443.213C496.109 409.307 604.076 346.808 669 337C669 337 206.991 512.719 238.031 918.636C270.206 1339.41 772.758 1365.78 772.758 1365.78Z" fill="#436156"/>
<path d="M241.894 793.619C253.075 793.919 307.873 880.63 307.025 958.627C306.177 1036.62 266.535 1099.43 252.493 1099.28C245.111 1099.2 200.183 1035.47 201.031 957.475C201.879 879.477 230.621 793.317 241.894 793.619Z" fill="#6BC58A"/>
<path d="M111.587 1056.37C111.034 1040.73 185.074 1059.15 237.853 1121.72C277.334 1176.8 270.026 1245.04 258.612 1253.22C252.612 1257.52 163.669 1238.45 157.938 1152.29C152.765 1074.53 111.985 1067.64 111.587 1056.37Z" fill="#6BC58A"/>
<path d="M112.478 1345.57C105.933 1332.81 174.519 1319.28 242.648 1350.65C296.833 1380.99 317.319 1440.44 311.033 1451.67C307.729 1457.57 226.526 1476.36 188.247 1407.11C153.703 1344.62 117.193 1354.77 112.478 1345.57Z" fill="#6BC58A"/>
<path d="M237.527 1550.03C229.357 1538.24 269.986 1488.92 341.656 1511.04C399.365 1533.97 427.506 1590.2 422.754 1602.16C420.256 1608.45 340.143 1643.35 293.075 1579.75C269.238 1547.54 243.412 1558.52 237.527 1550.03Z" fill="#6BC58A"/>
<path d="M352.234 1723.27C339.387 1716.9 351.14 1654.09 424.58 1638.84C486.187 1631.04 537.989 1666.69 539.604 1679.45C540.453 1686.16 487.164 1755.42 415.229 1722.47C378.799 1705.77 361.49 1727.86 352.234 1723.27Z" fill="#6BC58A"/>
<path d="M505.383 1807.22C491.136 1803.84 489.809 1739.77 560.441 1708.5C620.736 1687.15 672.242 1718.89 684.557 1722.62C715.224 1731.9 644.264 1812.43 582.498 1791.31C512.038 1767.22 515.647 1809.65 505.383 1807.22Z" fill="#6BC58A"/>
<path d="M397.701 1116.04C394.901 1100.64 326.501 1134.44 288.302 1206.84C261.494 1269.08 283.204 1334.18 296.102 1339.74C302.882 1342.66 385.702 1305.04 372.902 1219.64C361.351 1142.57 399.719 1127.13 397.701 1116.04Z" fill="#6BC58A"/>
<path d="M462.092 1262.77C459.292 1247.37 390.892 1281.17 352.692 1353.57C325.885 1415.82 347.594 1480.92 360.492 1486.47C367.272 1489.39 450.092 1451.77 437.292 1366.37C425.741 1289.3 464.109 1273.86 462.092 1262.77Z" fill="#6BC58A"/>
<path d="M535.159 1398.55C531.743 1384.58 466.089 1412 431.746 1475.45C408.142 1530.26 432.272 1589.74 445.17 1595.29C451.95 1598.21 531.588 1567.98 515.32 1490.63C500.639 1420.83 537.62 1408.61 535.159 1398.55Z" fill="#6BC58A"/>
<path d="M578.534 1454.77C569.162 1443.86 523.045 1498.04 521.157 1570.16C524.932 1629.71 552.554 1660.74 587.397 1670.93C609.926 1677.52 652.077 1607.44 602.546 1545.85C557.846 1490.26 585.285 1462.63 578.534 1454.77Z" fill="#6BC58A"/>
<path d="M667.228 1524.23C654.122 1518.31 635.246 1586.91 664.034 1653.06C692.641 1705.43 754.351 1723.09 766.676 1716.36C773.154 1712.82 798.439 1631.48 727.506 1596.61C663.493 1565.14 676.669 1528.49 667.228 1524.23Z" fill="#6BC58A"/>
<path d="M1226.54 1398.99C1204.56 1460.86 1170.61 1517.8 1126.62 1566.55C1082.63 1615.3 1029.48 1654.91 970.183 1683.12C910.889 1711.32 846.62 1727.58 781.046 1730.94C715.471 1734.31 649.875 1724.73 588.003 1702.75C526.131 1680.77 469.194 1646.82 420.444 1602.83C371.694 1558.84 332.085 1505.69 303.878 1446.39C275.671 1387.1 259.42 1322.83 256.051 1257.26C252.682 1191.68 248.51 1067 270.492 1005.13C270.492 1005.13 207.465 1495.39 580.014 1659.52C966.197 1829.66 1226.54 1398.99 1226.54 1398.99Z" fill="#436156"/>
<circle cx="1000" cy="1000" r="700" fill="#244D8D"/>
<circle cx="1000" cy="1000" r="605" fill="#D9D9D9" stroke="#5C83BF" stroke-width="10"/>
<path d="M1000 1535.06C1295.51 1535.06 1535.06 1295.51 1535.06 1000C1535.06 704.494 1295.51 464.939 1000 464.939C704.494 464.939 464.939 704.494 464.939 1000C464.939 1295.51 704.494 1535.06 1000 1535.06Z" fill="white"/>
<path d="M1000 400C881.331 400 765.328 435.189 666.658 501.118C567.989 567.047 491.085 660.754 445.673 770.39C400.26 880.026 388.378 1000.67 411.529 1117.05C434.68 1233.44 491.825 1340.35 575.736 1424.26C659.648 1508.18 766.558 1565.32 882.946 1588.47C999.335 1611.62 1119.97 1599.74 1229.61 1554.33C1339.25 1508.92 1432.95 1432.01 1498.88 1333.34C1564.81 1234.67 1600 1118.67 1600 1000C1600.23 921.436 1584.98 843.596 1555.13 770.924C1525.27 698.252 1481.4 632.173 1426.01 576.457C1370.62 520.742 1304.79 476.483 1232.3 446.206C1159.8 415.929 1082.05 400.229 1003.49 400H1000ZM1010.17 1020.34L947.7 1230.99H1281.84C1284.05 1230.92 1286.26 1231.27 1288.34 1232.05C1290.41 1232.83 1292.31 1234 1293.93 1235.51C1295.55 1237.03 1296.85 1238.84 1297.77 1240.86C1298.69 1242.87 1299.2 1245.05 1299.27 1247.26V1252.78L1270.22 1353.03C1268.94 1357.77 1266.08 1361.93 1262.12 1364.84C1258.16 1367.74 1253.33 1369.21 1248.43 1369.01H737.046L822.761 1077L726.877 1106.05L748.669 1039.23L844.552 1010.17L965.133 600.484C966.461 595.77 969.327 591.636 973.277 588.74C977.226 585.844 982.03 584.353 986.925 584.504H1116.22C1118.44 584.426 1120.64 584.785 1122.72 585.561C1124.79 586.337 1126.69 587.514 1128.31 589.026C1129.93 590.537 1131.24 592.352 1132.15 594.368C1133.07 596.384 1133.58 598.561 1133.66 600.775V606.295L1031.96 952.058L1127.85 923.002L1107.51 992.736L1010.17 1020.34Z" fill="#345D9D"/>
<g style="mix-blend-mode:multiply" opacity="0.2">
<path d="M1500.69 1492.3C1229.44 1767.76 786.234 1771.17 510.771 1499.92C235.308 1228.67 231.896 785.463 503.15 510C495.493 517.897 450.538 987.292 726.001 1258.55C1001.46 1529.8 1500.69 1492.3 1500.69 1492.3Z" fill="#244D8D"/>
</g>
<path d="M896 310.5C832.441 309.296 771.5 258 743.5 234C776.167 234 832.5 270 904 273C978.178 276.112 1172.5 240.5 1259.5 265C1350 290.486 1390.26 355.765 1427.5 396.504C1486 460.5 1502 421.504 1602 451.004C1695.13 478.477 1711 562.5 1711 616.5C1711 665 1633.46 750.5 1640 819C1647.5 897.5 1723.5 917 1736.5 978.5C1747.1 1028.66 1733 1119 1695 1148C1672.5 1165.17 1623.33 1227.67 1594 1253C1596 1217 1642 1165 1666 1135C1690 1105 1708 1063 1706 1009C1704 955 1612 913 1604 807C1599.17 743 1690 647 1670 579C1628.38 437.5 1533 491.5 1456 463.5C1352.26 425.776 1346 345 1262.5 307C1218.17 286.826 1028 313 896 310.5Z" fill="url(#paint0_linear_74_20)"/>
<path d="M1549 884C1507.77 830.738 1526.33 732.667 1528 696C1530.33 711.667 1544.19 813.464 1563 842C1592 886 1623.33 890.667 1657 905L1668 930C1634.67 919.667 1573 915 1549 884Z" fill="url(#paint1_linear_74_20)"/>
<path d="M1573 876C1567 923 1502 913 1476 897C1450 881 1423.66 922 1419 914C1405 890.001 1458.13 836 1499 836C1539.87 836 1573 853.909 1573 876Z" fill="url(#paint2_linear_74_20)"/>
<path d="M1532.34 740.994C1489.2 760.586 1463.56 700.028 1463.51 669.499C1463.46 638.97 1414.74 638.106 1419.09 629.932C1432.16 605.41 1506.02 622.242 1527.49 657.015C1548.97 691.788 1551.14 729.387 1532.34 740.994Z" fill="url(#paint3_linear_74_20)"/>
<path d="M1706 807C1701.65 788.419 1710 739.667 1717 724V790C1717 828.601 1741.79 828 1765 887C1789 948 1772 952 1765 979C1759.4 1000.6 1738 1012 1728 1015C1722.67 1005.67 1715.2 987.6 1728 990C1744 993 1756.8 946.869 1751 914C1745 880 1717 854 1706 807Z" fill="#3C6070"/>
<path d="M1552.06 818.832C1580 818.832 1595.72 804 1595.72 784.999C1595.72 765.999 1618.87 730.505 1614.67 725.458C1610.48 720.411 1580 730.75 1552.06 763C1533 784.999 1537.34 813.481 1552.06 818.832Z" fill="url(#paint4_linear_74_20)"/>
<path d="M1768 891C1803.84 881.579 1821.97 850.638 1815.57 826.265C1809.16 801.891 1826.89 748.553 1819.8 743.494C1812.72 738.435 1777.11 761.974 1752.14 812.765C1735.11 847.413 1747.32 889.098 1768 891Z" fill="url(#paint5_linear_74_20)"/>
<path d="M1718.99 768.034C1754.84 758.612 1772.97 727.672 1766.56 703.299C1760.15 678.925 1777.88 625.586 1770.8 620.527C1763.71 615.468 1728.1 639.008 1703.14 689.799C1686.11 724.447 1698.31 766.131 1718.99 768.034Z" fill="url(#paint6_linear_74_20)"/>
<path d="M1721.92 847.39C1701.98 856.534 1682.07 849.181 1675.85 835.623C1669.63 822.065 1641.5 804.313 1642.84 799.338C1644.18 794.363 1669.32 791.768 1699.81 805.638C1720.61 815.099 1730.67 838.757 1721.92 847.39Z" fill="url(#paint7_linear_74_20)"/>
<path d="M1593 530C1627.4 531.6 1658.67 553.333 1670 564L1675 580C1665.67 571.667 1643.4 553.4 1629 547C1611 539 1572 547 1550 547C1513 547 1497 541 1471 530C1450.2 521.2 1417.67 526.333 1404 530C1407 533.667 1409.6 545.6 1396 564C1379 587 1300 602 1282 600C1264 598 1290.5 561 1318 541C1341.62 523.821 1386 514 1413 512C1440 510 1497 524 1513 530C1529 536 1550 528 1593 530Z" fill="url(#paint8_linear_74_20)"/>
<path d="M1516 527.5C1539 548.5 1577.5 541.5 1591.5 534C1596.67 530 1592.85 505.469 1580 497C1558 482.5 1500 484 1492.5 483.5C1485 483 1487.44 501.427 1516 527.5Z" fill="url(#paint9_linear_74_20)"/>
<path d="M1234.94 433.588C1253.64 400.628 1237.6 353.437 1226.2 337.216C1220.61 331.463 1187.09 339.672 1187.09 358.715C1187.09 398 1174.97 457.954 1176 467.5C1177.03 477.046 1211.73 474.511 1234.94 433.588Z" fill="url(#paint10_linear_74_20)"/>
<path d="M1458.5 322C1458.5 351 1465.26 363.587 1475.67 374.932C1480.51 378.794 1495.5 364.745 1495.5 350C1495.5 322 1474.91 272.267 1473 265C1471.1 257.733 1458.5 285.783 1458.5 322Z" fill="url(#paint11_linear_74_20)"/>
<path d="M1510.38 428.957C1532.26 428.111 1540.6 421.615 1547.39 411.845C1549.48 407.34 1536.33 394.158 1525.21 394.588C1504.09 395.405 1470.08 415.531 1464.92 417.47C1459.77 419.409 1483.07 430.014 1510.38 428.957Z" fill="url(#paint12_linear_74_20)"/>
<path d="M1149 186C1172.4 203.993 1188.16 203.46 1188 219.5C1187.79 241 1142.9 228.648 1131 219.5C1108.41 202.128 1098 167 1106 153C1109.68 146.549 1119.78 163.53 1149 186Z" fill="url(#paint13_linear_74_20)"/>
<path d="M1131.58 256.483C1150.25 250.285 1160.72 254.373 1163.28 243.859C1166.72 229.766 1134.59 227.176 1125.1 230.328C1107.07 236.312 1094.25 256.787 1097.28 267.83C1098.67 272.919 1108.26 264.223 1131.58 256.483Z" fill="url(#paint14_linear_74_20)"/>
<path d="M1037 136C1075.94 165.944 1069.57 182 1069.57 197.828C1069.57 233 1015.8 234.225 995.999 219C958.399 190.088 928.687 111.8 941.999 88.5C948.132 77.7644 988.365 98.604 1037 136Z" fill="url(#paint15_linear_74_20)"/>
<path d="M1349 255C1370.54 279.724 1390.91 274.746 1408.69 273.484C1415.9 271.689 1434 238.5 1401.5 214C1376.22 194.942 1313.5 188 1309.5 192.5C1304.02 198.669 1322.1 224.124 1349 255Z" fill="url(#paint16_linear_74_20)"/>
<path d="M994.999 493C1027.9 477.48 1032.74 432.828 1028.84 415.44C1012 400.999 961.382 421.211 942 456.999C926.923 484.839 907.954 554.215 913 557.499C919.917 562.001 942 518 994.999 493Z" fill="url(#paint17_linear_74_20)"/>
<path d="M1068.03 386.216C1100.25 403.1 1134.48 399.813 1146 386.216C1177.53 349 1105.01 316.104 1064.78 322.229C1033.48 326.993 972.075 344.995 972.499 351C973.08 359.233 1016.12 359.02 1068.03 386.216Z" fill="url(#paint18_linear_74_20)"/>
<path d="M804.528 354.012C829.905 372.041 859.306 373.198 870.639 362.997C901.661 335.076 843.967 298.828 809.146 299.385C782.059 299.818 727.923 308.006 727.591 313.147C727.135 320.194 763.651 324.973 804.528 354.012Z" fill="url(#paint19_linear_74_20)"/>
<path d="M772.455 446.117C795.022 427.857 803.448 401.744 797.135 389.003C779.856 354.128 732.807 396.832 724.557 428.243C718.14 452.677 711.89 503.35 716.423 504.941C722.637 507.121 736.105 475.528 772.455 446.117Z" fill="url(#paint20_linear_74_20)"/>
<path d="M638.454 460.117C654.267 435.773 669.448 415.744 663.135 403.003C645.855 368.128 604.499 403.003 590.556 442.243C557.223 536.058 620.967 556.91 625.5 558.5C631.714 560.681 608 507 638.454 460.117Z" fill="url(#paint21_linear_74_20)"/>
<path d="M1461.07 553.13C1480.74 533.132 1515.71 537.568 1528.66 543.637C1533.5 546.985 1531.25 569.233 1520.11 577.469C1501.02 591.573 1448.78 593.026 1442.06 593.838C1435.34 594.65 1436.65 577.959 1461.07 553.13Z" fill="url(#paint22_linear_74_20)"/>
<path d="M1440 358C1411.81 335.687 1405.67 282.167 1407 257C1412.33 273.167 1426.87 337.5 1450 353C1508.22 392.01 1568 402.5 1590.5 418.5C1605.15 428.919 1626.83 457.667 1632.5 471L1614 463C1611.33 463.167 1598.1 460.3 1590.5 441.5C1581 418 1512 415 1440 358Z" fill="url(#paint23_linear_74_20)"/>
<path d="M1205 321C1221.8 302.6 1268 303.333 1289 306L1329 341C1314 336 1278.6 325 1257 321C1230 316 1205 357 1181 388C1157 419 1114 410 1069 410C1033 410 1003.33 437.333 993 451C998 442.333 1012.6 421 1031 405C1054 385 1123 385 1145 388C1167 391 1184 344 1205 321Z" fill="url(#paint24_linear_74_20)"/>
<path d="M1143 238C1167 237.2 1194.33 255 1205 264H1227C1221.67 257.333 1205.4 240.4 1183 226C1155 208 1088 224 1057 221C1032.2 218.6 1004 168.667 993 144C991.333 152 995 176.8 1023 212C1058 256 1113 239 1143 238Z" fill="url(#paint25_linear_74_20)"/>
<path d="M831 359C868.6 360.2 911 323.833 927.5 305.5L965 299.5C947 318.5 905.4 359.9 883 373.5C855 390.5 796.5 381.5 728 373.5C673.2 367.1 631.5 414.833 617.5 439.5C624.333 419.833 645.8 377.1 677 363.5C716 346.5 784 357.5 831 359Z" fill="#609C4E"/>
<path d="M823.491 254.252C798.163 319.889 707.995 282.402 676.186 250.106C644.377 217.809 591.856 267.577 587.966 254.386C576.297 214.816 672.068 155.813 730.994 170.317C789.919 184.822 831.332 222.401 823.491 254.252Z" fill="url(#paint26_linear_74_20)"/>
<circle cx="916" cy="1435" r="39" fill="#C8AD30"/>
<path d="M798 1614C825.2 1626 846 1650.33 853 1661C857.667 1661 870.2 1661.6 883 1664C895.8 1666.4 921.667 1625 933 1604C923.333 1591 897.677 1559.68 887 1543C879 1530.5 858.667 1474.33 853 1447C849.667 1462.67 841.6 1502 836 1534C830.4 1566 846.333 1594 859 1604C854.333 1602.33 848.2 1597.2 829 1590C809.8 1582.8 762.333 1587 741 1590C748.667 1593 770.8 1602 798 1614Z" fill="#2A4E45"/>
<path d="M1071 1653C1050.2 1673 1023.67 1674 1013 1672L951 1711C963.667 1718 992 1728 1071 1728C1135.28 1728 1170.5 1711 1196 1677C1217.75 1648 1208.67 1617.67 1201 1598C1197.33 1608 1179.06 1647.35 1162 1661C1142 1677 1078 1684 1090 1677C1099.6 1671.4 1116.67 1626 1124 1604C1115 1612 1091.8 1633 1071 1653Z" fill="#2A4E45"/>
<path d="M1248 1672C1268 1672 1293.67 1650 1304 1639C1298.67 1617 1286 1575.2 1278 1584C1270 1592.8 1269.33 1607.67 1270 1614L1241 1584C1235 1613.33 1228 1672 1248 1672Z" fill="#2A4E45"/>
<path d="M1389 1502C1388.2 1526 1375.33 1545.33 1369 1552L1393 1608C1418.33 1590 1448.3 1578.7 1487 1540C1516 1511 1509.33 1487.33 1519 1472L1655 1376C1663 1357.33 1683.4 1313.6 1701 1288C1723 1256 1709 1144 1701 1108C1694.6 1079.2 1671.67 1060 1661 1054C1664.33 1060.33 1677 1092.97 1677 1108C1677 1155 1661.67 1190.33 1649 1232L1575 1288C1558.33 1283.67 1519.4 1273.2 1497 1266C1469 1257 1437 1211 1432 1209C1427 1207 1443 1256 1458 1288C1470 1313.6 1520.33 1357.33 1544 1376C1538.67 1385.67 1519.8 1408.4 1487 1422C1454.2 1435.6 1417.33 1427.67 1403 1422C1408.33 1428.33 1421.6 1443.8 1432 1455C1442.4 1466.2 1436.33 1479.67 1432 1485C1428 1490.67 1419.8 1497.2 1419 1478C1418.2 1458.8 1393.33 1442 1381 1436C1384 1448 1389.8 1478 1389 1502Z" fill="#2A4E45"/>
<path d="M1443 1447C1464 1431 1519 1417 1550 1412L1630 1421C1625 1429.67 1625.6 1437.4 1616 1447C1604 1459 1519 1485 1486 1491C1453 1497 1407 1515 1390 1513C1373 1511 1423.58 1461.8 1443 1447Z" fill="#407668"/>
<ellipse cx="1093.5" cy="1461" rx="55.5" ry="55" fill="#C8AD30"/>
<ellipse cx="1287" cy="1334.5" rx="39" ry="38.5" fill="#C8AD30"/>
<ellipse cx="1361" cy="1242.5" rx="39" ry="38.5" fill="#C8AD30"/>
<ellipse cx="1572" cy="1053.5" rx="39" ry="38.5" fill="#C8AD30"/>
<path d="M1319 1407C1303.04 1441.32 1305 1521.67 1313 1564L1343 1635C1350.33 1630.33 1370 1619 1390 1611C1415 1601 1411 1581 1410 1557C1409 1533 1368.58 1495.07 1365 1471C1358 1424 1376 1356 1377 1344C1378 1332 1339 1364 1319 1407Z" fill="#407668"/>
<path d="M1231 1542C1260 1572 1269.67 1621.67 1296 1647L1332.5 1642.5C1359 1624.5 1372.5 1621.43 1372.5 1601.5C1372.5 1588 1386.08 1548.33 1254 1492C1186 1463 1111.33 1458 1081 1472C1083.67 1471.67 1108.19 1477.15 1129 1483C1161 1492 1213.2 1523.58 1231 1542Z" fill="#58A28F"/>
<path d="M959 1502C964.6 1586.8 862 1649.33 810 1670C810 1676.33 825.794 1694.82 884 1683C948 1670 997.9 1641.11 1017 1578C1040 1502 970 1390 959 1382C948 1374 952 1396 959 1502Z" fill="#58A28F"/>
<path d="M1020.15 1573.33C974.554 1583.73 860.154 1638.33 810.154 1668.33C808.154 1676.33 825.155 1722.33 887.154 1728.33C1008.15 1740.04 1012.84 1667.33 1062.15 1636.33C1097.15 1614.33 1148.15 1589.33 1184.15 1562.33C1141.15 1549.33 1065.75 1562.93 1020.15 1573.33Z" fill="#407668"/>
<path d="M1143 1631C1172.6 1627.8 1190.67 1640.33 1196 1647V1617C1196 1605.8 1217.67 1573.67 1232 1565C1229.67 1570.67 1226 1597.98 1226 1617C1226 1647 1245.33 1657.33 1258 1666C1252.33 1669.67 1242.5 1683.63 1232 1688C1196 1703 1173 1702 1165 1703C1157 1704 1165 1669 1149 1661C1136.2 1654.6 1099 1653 1082 1653C1090 1647 1113.4 1634.2 1143 1631Z" fill="#407668"/>
<path d="M1623 1102C1647.5 1136 1672 1194.5 1674 1198.5L1679.5 1176C1665 1155.5 1640.5 1106 1623 1088.5C1611.16 1076.66 1583.33 1058 1570.5 1054.5C1580.17 1060.5 1608.11 1081.34 1623 1102Z" fill="#2A4E45"/>
<path d="M1625 1161C1604 1187 1606 1273 1607 1283L1647 1382C1650.67 1378 1662.8 1365.2 1674 1334C1688 1295 1648 1221 1654 1178C1657.21 1155 1669 1138 1666 1131C1663 1124 1646 1135 1625 1161Z" fill="#58A28F"/>
<path d="M1526 1262C1539 1301 1562.67 1347.67 1567 1377C1591 1389 1615.91 1450.14 1638 1417C1662 1381 1669 1355 1670 1339C1648.67 1310.67 1610.84 1238.72 1584 1215C1541 1177 1472 1138 1453 1135C1434 1132 1507.33 1206 1526 1262Z" fill="#407668"/>
<path d="M1438 1417C1466.8 1448.2 1556 1456.67 1597 1457C1600.67 1459 1619.2 1451.6 1632 1434C1644.8 1416.4 1649.33 1401.67 1654 1393C1650.67 1388 1636.8 1373 1608 1353C1572 1328 1542 1362 1511 1369C1480 1376 1378 1289 1357 1280C1336 1271 1402 1378 1438 1417Z" fill="#58A28F"/>
<path d="M922.5 1567.5C931.3 1545.5 918.333 1466.5 910 1430C926 1473.5 930.4 1505.7 934 1536.5C937.6 1567.3 924 1588.67 918.5 1595L902.5 1602.5C905.5 1600 913.7 1589.5 922.5 1567.5Z" fill="#2A4E45"/>
<path d="M1098.5 1447L1022.5 1561L1048 1545.5L1098.5 1447Z" fill="#3B5866"/>
<path d="M1273.5 1448.5C1267.1 1412.5 1275.5 1363.83 1285 1339C1282 1358.17 1277.5 1375.87 1277.5 1398.5C1277.5 1432.5 1295.83 1500.5 1307 1537.5L1296 1528C1290 1511.17 1279.9 1484.5 1273.5 1448.5Z" fill="#58A28F"/>
<path d="M1424.5 1315C1457 1336 1527.5 1354 1532.5 1353.5L1528.5 1345C1503.83 1337.17 1470.8 1329.89 1457.5 1324C1427 1310.5 1386 1274 1361 1238.5C1374.5 1260.5 1380.9 1286.83 1424.5 1315Z" fill="#2A4E45"/>
</g>
</svg>
