<svg width="2000" height="2000" viewBox="0 0 2000 2000" fill="none" xmlns="http://www.w3.org/2000/svg"> 
<defs>
<linearGradient id="paint0_linear_64_41" x1="1168.34" y1="79" x2="1168.34" y2="221" gradientUnits="userSpaceOnUse">
<stop stop-color="#FFDA67"/>
<stop offset="0.633333" stop-color="#FFD965"/>
<stop offset="1" stop-color="#C59D23"/>
</linearGradient>
<linearGradient id="paint1_linear_64_41" x1="1351.84" y1="151" x2="1351.84" y2="240" gradientUnits="userSpaceOnUse">
<stop stop-color="#FFDA67"/>
<stop offset="0.633333" stop-color="#FFD965"/>
<stop offset="1" stop-color="#C59D23"/>
</linearGradient>
<linearGradient id="paint2_linear_64_41" x1="1602.34" y1="148" x2="1602.34" y2="284" gradientUnits="userSpaceOnUse">
<stop stop-color="#FFDA67"/>
<stop offset="0.633333" stop-color="#FFD965"/>
<stop offset="1" stop-color="#C5B523"/>
</linearGradient>
<linearGradient id="paint3_linear_64_41" x1="749.342" y1="1645" x2="1001.34" y2="1650" gradientUnits="userSpaceOnUse">
<stop stop-color="#3B7256"/>
<stop offset="1" stop-color="#73543E"/>
</linearGradient>
<linearGradient id="paint4_linear_64_41" x1="1508.34" y1="1640" x2="620.342" y2="1689" gradientUnits="userSpaceOnUse">
<stop stop-color="#73553F"/>
<stop offset="1" stop-color="#3C7357"/>
</linearGradient>
<linearGradient id="paint5_linear_64_41" x1="1459.05" y1="264.39" x2="1666.2" y2="1535.2" gradientUnits="userSpaceOnUse">
<stop stop-color="#276534" stop-opacity="0"/>
<stop offset="1" stop-color="#317273"/>
</linearGradient>
<linearGradient id="paint6_linear_64_41" x1="1406.37" y1="718.325" x2="1550.16" y2="1620.2" gradientUnits="userSpaceOnUse">
<stop stop-color="#276534" stop-opacity="0"/>
<stop offset="1" stop-color="#317273"/>
</linearGradient>
<linearGradient id="paint7_linear_64_41" x1="1728.88" y1="450" x2="1728.88" y2="1590.16" gradientUnits="userSpaceOnUse">
<stop stop-color="#145E62" stop-opacity="0"/>
<stop offset="1" stop-color="#145E62"/>
</linearGradient>
<clipPath id="clip0_64_41">
<rect width="2000" height="2000" fill="white"/>
</clipPath>
</defs>
<g clip-path="url(#clip0_64_41)">
<circle cx="1168.34" cy="150" r="71" fill="url(#paint0_linear_64_41)"/>
<circle cx="977.842" cy="161.5" r="23.5" fill="#FFDA67"/>
<circle cx="977.842" cy="161.5" r="23.5" fill="#FFDA67"/>
<circle cx="977.842" cy="161.5" r="23.5" fill="#FFDA67"/>
<circle cx="1049.34" cy="122" r="40" fill="#FFDA67"/>
<circle cx="1049.34" cy="122" r="40" fill="#FFDA67"/>
<circle cx="1049.34" cy="122" r="40" fill="#FFDA67"/>
<path d="M1494.84 225C1417.84 233 1337.34 337 1333.34 345L1338.34 367C1365.01 338.333 1401.13 278.28 1446.34 253C1492.84 227 1574.34 225 1624.34 225C1606.01 222.333 1556.44 218.6 1494.84 225Z" fill="#15762C"/>
<path d="M1206.34 248C1203.84 230 1175.01 179.167 1156.84 151C1164.84 159.833 1186.44 186.6 1208.84 223C1231.24 259.4 1212.84 309.167 1200.84 329.5L1185.84 316C1192.68 299.833 1208.12 260.832 1206.34 248Z" fill="#24702D"/>
<path d="M1318.84 241.5C1311.84 260 1301.34 308 1302.34 313L1311.84 325C1313.01 312 1316.04 282.8 1318.84 268C1323.85 241.5 1334.17 223.5 1346.84 204C1336.51 216 1324.03 227.8 1318.84 241.5Z" fill="#24702D"/>
<circle cx="1674.84" cy="311.5" r="40.5" fill="#FFDA67"/>
<circle cx="1674.84" cy="311.5" r="40.5" fill="#FFDA67"/>
<circle cx="1674.84" cy="311.5" r="40.5" fill="#FFDA67"/>
<circle cx="1727.84" cy="366.5" r="17.5" fill="#FFDA67"/>
<circle cx="1727.84" cy="366.5" r="17.5" fill="#FFDA67"/>
<circle cx="1727.84" cy="366.5" r="17.5" fill="#FFDA67"/>
<circle cx="1351.84" cy="195.5" r="44.5" fill="url(#paint1_linear_64_41)"/>
<circle cx="1602.34" cy="216" r="68" fill="url(#paint2_linear_64_41)"/>
<path d="M298.611 333.761C334.247 337.488 343.856 386.514 337.727 445.11C331.597 503.705 296.99 548.106 276.415 545.954C255.839 543.801 226.311 492.692 232.44 434.096C238.569 375.501 262.976 330.033 298.611 333.761Z" fill="#6CC849"/>
<path d="M99.5033 790.43C114.49 765.996 148.693 773.218 183.321 794.458C217.949 815.697 233.557 853.237 224.903 867.345C216.25 881.453 173.67 887.888 139.042 866.649C104.414 845.409 84.5166 814.864 99.5033 790.43Z" fill="#6CC849"/>
<path d="M182.042 526.617C205.79 510.566 233.946 531.284 256.694 564.941C279.442 598.598 278.131 639.231 264.419 648.499C250.707 657.767 209.276 646.021 186.528 612.364C163.78 578.708 158.293 542.668 182.042 526.617Z" fill="#6CC849"/>
<path d="M152.044 644.617C175.792 628.566 203.948 649.284 226.696 682.941C249.444 716.598 248.133 757.231 234.421 766.499C220.709 775.767 179.278 764.021 156.53 730.364C133.782 696.708 128.295 660.668 152.044 644.617Z" fill="#6CC849"/>
<path d="M391.941 744.743C380.038 718.667 345.211 721.674 308.256 738.542C271.3 755.411 251.241 790.772 258.113 805.828C264.986 820.884 306.466 832.453 343.421 815.585C380.377 798.717 403.843 770.819 391.941 744.743Z" fill="#6CC849"/>
<path d="M407.97 619.985C397.008 594.447 362.262 596.99 324.933 613.014C287.604 629.039 266.46 663.269 272.79 678.014C279.12 692.759 319.994 704.491 357.323 688.467C394.652 672.442 418.933 645.522 407.97 619.985Z" fill="#6CC849"/>
<path d="M92.8287 914.652C113.021 894.307 144.655 909.183 173.487 937.8C202.319 966.417 208.898 1006.54 197.24 1018.28C185.581 1030.03 142.66 1026.53 113.828 997.908C84.9955 969.291 72.6364 934.996 92.8287 914.652Z" fill="#6CC849"/>
<path d="M87.8855 1027.39C105.19 1009.96 134.295 1024.69 161.464 1051.65C188.634 1078.62 196.268 1114.98 186.276 1125.05C176.285 1135.11 137.508 1130.13 110.338 1103.16C83.1678 1076.2 70.5811 1044.83 87.8855 1027.39Z" fill="#6CC849"/>
<path d="M43.1744 1183.19C50.2103 1156.92 86.275 1155.06 127.213 1166.03C168.15 1176.99 195.485 1207.73 191.422 1222.9C187.36 1238.06 147.362 1254.61 106.425 1243.64C65.4873 1232.68 36.1386 1209.46 43.1744 1183.19Z" fill="#6CC849"/>
<path d="M212.64 949.297C225.838 974.742 260.47 969.988 296.531 951.284C332.592 932.58 350.849 896.255 343.228 881.564C335.608 866.872 293.599 857.402 257.538 876.106C221.477 894.811 199.442 923.852 212.64 949.297Z" fill="#6CC849"/>
<path d="M210.334 1086.84C226.646 1105.79 255.097 1094.81 281.961 1071.69C308.826 1048.57 317.037 1014.07 307.619 1003.12C298.201 992.176 260.632 992.566 233.768 1015.68C206.903 1038.8 194.022 1067.88 210.334 1086.84Z" fill="#6CC849"/>
<path d="M194.35 1204.46C210.661 1223.42 239.112 1212.43 265.977 1189.31C292.841 1166.2 301.053 1131.69 291.635 1120.75C282.216 1109.8 244.648 1110.19 217.783 1133.31C190.919 1156.43 178.038 1185.5 194.35 1204.46Z" fill="#6CC849"/>
<path d="M222.579 1292.96C242.046 1315.59 267.405 1309.87 288.863 1291.41C310.32 1272.94 311.524 1239.16 300.283 1226.1C289.043 1213.03 252.802 1206.1 231.345 1224.57C209.887 1243.03 203.111 1270.34 222.579 1292.96Z" fill="#6CC849"/>
<path d="M103.978 1344.47C104.742 1373.11 137.957 1383.95 178.544 1382.86C219.132 1381.78 251.399 1357.09 250.958 1340.55C250.517 1324.01 216.875 1297.17 176.288 1298.25C135.7 1299.33 103.214 1315.83 103.978 1344.47Z" fill="#6CC849"/>
<path d="M188.177 1421.5C188.941 1450.14 222.156 1460.98 262.744 1459.9C303.331 1458.82 335.598 1434.12 335.157 1417.58C334.716 1401.05 301.074 1374.2 260.487 1375.28C219.9 1376.37 187.414 1392.86 188.177 1421.5Z" fill="#6CC849"/>
<path d="M266.406 1515.62C272.088 1544.53 301.331 1543.25 331.373 1542.45C361.416 1541.65 385.3 1523.37 384.973 1511.13C384.647 1498.89 359.745 1479.02 329.703 1479.82C299.661 1480.62 260.725 1486.71 266.406 1515.62Z" fill="#6CC849"/>
<path d="M334.437 1637.3C354.25 1664.2 383.633 1648.75 414.064 1633.39C444.496 1618.04 460.153 1587.73 453.897 1575.33C447.641 1562.93 412.483 1554.6 382.052 1569.95C351.62 1585.31 314.624 1610.39 334.437 1637.3Z" fill="#6CC849"/>
<path d="M427.654 1691.23C447.467 1718.13 476.85 1702.68 507.281 1687.32C537.712 1671.97 553.37 1641.66 547.114 1629.26C540.858 1616.86 505.7 1608.53 475.268 1623.88C444.837 1639.24 407.841 1664.32 427.654 1691.23Z" fill="#6CC849"/>
<path d="M527.974 1752.52C556.178 1770.44 577.981 1745.4 600.796 1720.08C623.612 1694.75 627.247 1660.84 616.93 1651.54C606.612 1642.25 570.819 1647.19 548.003 1672.51C525.187 1697.84 499.77 1734.6 527.974 1752.52Z" fill="#6CC849"/>
<path d="M627.189 1780.42C652.162 1802.62 677.69 1781.39 704.265 1760.05C730.839 1738.7 739.855 1705.8 731.158 1694.97C722.462 1684.15 686.338 1683.3 659.764 1704.65C633.189 1725.99 602.215 1758.22 627.189 1780.42Z" fill="#6CC849"/>
<path d="M756.673 1784.4C785.587 1801.15 806.347 1775.24 828.107 1749.01C849.867 1722.77 852.11 1688.73 841.421 1679.87C830.732 1671 795.171 1677.41 773.41 1703.64C751.65 1729.88 727.759 1767.66 756.673 1784.4Z" fill="#6CC849"/>
<path d="M354.431 1290.62C324.976 1290.07 320.048 1318.93 314.489 1348.46C308.93 1378 321.757 1405.2 333.789 1407.47C345.822 1409.73 370.502 1389.58 376.061 1360.05C381.62 1330.52 383.887 1291.17 354.431 1290.62Z" fill="#6CC849"/>
<path d="M401.719 1389.45C372.263 1388.9 367.335 1417.75 361.776 1447.29C356.218 1476.82 369.044 1504.03 381.076 1506.29C393.109 1508.55 417.79 1488.41 423.348 1458.87C428.907 1429.34 431.174 1390 401.719 1389.45Z" fill="#6CC849"/>
<path d="M467.379 1454.45C437.923 1453.9 432.995 1482.76 427.437 1512.29C421.878 1541.82 434.704 1569.03 446.737 1571.29C458.769 1573.56 483.45 1553.41 489.008 1523.88C494.567 1494.34 496.834 1455 467.379 1454.45Z" fill="#6CC849"/>
<path d="M551.922 1507.87C522.466 1507.32 517.538 1536.17 511.979 1565.71C506.421 1595.24 519.247 1622.45 531.279 1624.71C543.312 1626.98 567.993 1606.83 573.551 1577.3C579.11 1547.76 581.377 1508.42 551.922 1507.87Z" fill="#6CC849"/>
<path d="M636.463 1561.29C607.007 1560.74 602.079 1589.6 596.52 1619.13C590.962 1648.66 603.788 1675.87 615.821 1678.13C627.853 1680.4 652.534 1660.25 658.092 1630.72C663.651 1601.18 665.918 1561.84 636.463 1561.29Z" fill="#6CC849"/>
<path d="M687.865 1577.3C663.107 1593.27 675.104 1619.97 686.958 1647.59C698.811 1675.2 724.627 1690.64 735.879 1685.81C747.13 1680.98 756.385 1650.49 744.531 1622.88C732.678 1595.26 712.622 1561.33 687.865 1577.3Z" fill="#6CC849"/>
<path d="M753.527 1589.12C736.892 1613.43 758.298 1633.39 779.928 1654.26C801.557 1675.12 831.336 1679.35 839.837 1670.53C848.337 1661.72 845.056 1630.03 823.426 1609.17C801.797 1588.3 770.162 1564.8 753.527 1589.12Z" fill="#6CC849"/>
<path d="M280.342 520C298.341 620.001 202.767 943.576 204.208 987.87C206.009 1043.24 199.822 1090.02 191.122 1130.48C182.421 1170.94 164.556 1267.33 245.217 1323.74C273.528 1343.54 302.418 1347.37 339.528 1436.7C385.55 1547.49 528.543 1627.54 612.839 1662.36C742.294 1715.83 844.38 1656.38 918.214 1644" stroke="#6CC849" stroke-width="25" stroke-linecap="round"/>
<path d="M1326.34 262C1326.34 306 1267.69 324 1195.34 324C1122.99 324 1064.34 287.405 1064.34 262C1064.34 236.595 1122.99 194 1195.34 194C1267.69 194 1326.34 218 1326.34 262Z" fill="#1F643E"/>
<path d="M1083.52 125.089C1110.83 147.295 1096.49 187.757 1065.02 226.463C1033.55 265.169 985.319 278.077 969.55 265.255C953.781 252.434 952.855 199.559 984.327 160.853C1015.8 122.147 1056.21 102.882 1083.52 125.089Z" fill="#1F643E"/>
<path d="M899.232 125.256C931.789 138.638 929.734 181.517 910.769 227.657C891.804 273.798 849.352 300.073 830.554 292.346C811.756 284.62 795.612 234.261 814.577 188.12C833.542 141.98 866.675 111.874 899.232 125.256Z" fill="#1F643E"/>
<path d="M768.953 172.496C796.853 183.964 793.78 223.904 775.908 267.384C758.037 310.864 720.344 336.574 704.235 329.953C688.125 323.332 675.603 276.982 693.474 233.502C711.346 190.021 741.052 161.029 768.953 172.496Z" fill="#344B38"/>
<path d="M571.156 194.785C604.27 190.456 623.286 230.52 630.032 282.125C636.778 333.73 614.705 379.165 595.585 381.664C576.465 384.164 538.94 346.52 532.194 294.915C525.448 243.309 538.041 199.114 571.156 194.785Z" fill="#1F643E"/>
<path d="M916.077 277.489C893.383 304.397 915.013 341.477 953.148 373.639C991.283 405.801 1041.07 409.494 1054.17 393.958C1067.28 378.421 1058.33 326.3 1020.2 294.138C982.063 261.977 938.77 250.581 916.077 277.489Z" fill="#344B38"/>
<path d="M758.884 339.346C745.015 366.746 770.822 393.889 809.654 413.544C848.486 433.198 891.501 426.343 899.508 410.522C907.516 394.702 889.462 352.243 850.629 332.588C811.797 312.933 772.753 311.946 758.884 339.346Z" fill="#1F643E"/>
<path d="M617.884 376.346C604.015 403.746 629.822 430.889 668.654 450.544C707.486 470.198 750.501 463.343 758.508 447.522C766.516 431.702 748.462 389.243 709.629 369.588C670.797 349.933 631.753 348.946 617.884 376.346Z" fill="#344B38"/>
<path d="M530.665 449.875C514.113 482.577 532.486 508.682 563.503 524.381C594.519 540.08 633.429 525.608 642.986 506.726C652.543 487.845 643.422 443.461 612.406 427.762C581.389 412.063 547.217 417.174 530.665 449.875Z" fill="#1F643E"/>
<path d="M416.604 339.405C384.457 353.697 387.726 396.478 407.981 442.038C428.237 487.598 471.395 512.645 489.956 504.393C508.518 496.14 523.218 445.371 502.963 399.811C482.707 354.25 448.752 325.113 416.604 339.405Z" fill="#344B38"/>
<path d="M368.641 471.088C336.494 485.381 339.763 528.161 360.019 573.722C380.274 619.282 423.432 644.328 441.993 636.076C460.555 627.824 475.255 577.054 455 531.494C434.744 485.934 400.789 456.796 368.641 471.088Z" fill="#1F643E"/>
<path d="M298.489 604C268.342 624 283.497 656.595 298.49 690.318C313.483 724.041 345.428 742.58 359.167 736.472C372.906 730.364 383.787 692.784 368.794 659.061C353.801 625.338 328.636 584 298.489 604Z" fill="#344B38"/>
<path d="M192.276 738.258C171.025 773.36 202.34 799.465 234.035 826.807C265.73 854.148 307.469 857.713 318.608 844.8C329.747 831.887 322.73 788.072 291.035 760.731C259.34 733.389 213.526 703.156 192.276 738.258Z" fill="#1F643E"/>
<path d="M174.764 869.344C153.513 904.445 184.828 930.551 216.523 957.893C248.218 985.234 289.957 988.799 301.097 975.886C312.236 962.973 305.218 919.158 273.523 891.817C241.828 864.475 196.015 834.242 174.764 869.344Z" fill="#344B38"/>
<path d="M152.22 1011.94C145.106 1052.36 183.744 1065.37 223.183 1079.39C262.622 1093.42 302.824 1081.64 308.538 1065.57C314.252 1049.5 291.86 1011.19 252.421 997.17C212.982 983.145 159.335 971.532 152.22 1011.94Z" fill="#1F643E"/>
<path d="M167.07 1137.63C153.58 1176.38 189.637 1195.41 226.323 1215.56C263.01 1235.72 304.578 1230.53 312.79 1215.58C321.002 1200.64 305.029 1159.24 268.343 1139.08C231.657 1118.93 180.559 1098.88 167.07 1137.63Z" fill="#344B38"/>
<path d="M223.244 1286.47C217.79 1327.14 256.928 1338.55 296.908 1350.95C336.888 1363.35 376.574 1349.94 381.626 1333.65C386.677 1317.36 362.736 1280 322.756 1267.6C282.776 1255.21 228.698 1245.8 223.244 1286.47Z" fill="#1F643E"/>
<path d="M595.131 598.433C581.946 564.743 546.886 572.676 510.758 580.212C474.63 587.748 449.765 615.06 452.835 629.779C455.905 644.498 490.341 663.067 526.469 655.53C562.597 647.994 608.316 632.123 595.131 598.433Z" fill="#344B38"/>
<path d="M505.131 698.433C491.946 664.743 456.886 672.676 420.758 680.212C384.63 687.748 359.765 715.06 362.835 729.779C365.905 744.498 400.341 763.067 436.469 755.53C472.597 747.994 518.316 732.123 505.131 698.433Z" fill="#1F643E"/>
<path d="M462.131 803.433C448.946 769.743 413.886 777.676 377.758 785.212C341.63 792.748 316.765 820.06 319.835 834.779C322.905 849.498 357.341 868.067 393.469 860.53C429.597 852.994 475.316 837.123 462.131 803.433Z" fill="#344B38"/>
<path d="M441.131 924.433C427.946 890.743 392.886 898.676 356.758 906.212C320.63 913.748 295.765 941.06 298.835 955.779C301.905 970.498 336.341 989.067 372.469 981.53C408.597 973.994 454.316 958.123 441.131 924.433Z" fill="#1F643E"/>
<path d="M420.131 1045.43C406.946 1011.74 371.886 1019.68 335.758 1027.21C299.63 1034.75 274.765 1062.06 277.835 1076.78C280.905 1091.5 315.341 1110.07 351.469 1102.53C387.597 1094.99 433.316 1079.12 420.131 1045.43Z" fill="#344B38"/>
<path d="M426.053 1111.28C396.323 1090.67 371.643 1116.8 345.854 1143.2C320.065 1169.6 314.652 1206.14 325.408 1216.64C336.164 1227.15 375.103 1223.36 400.892 1196.96C426.681 1170.56 455.784 1131.9 426.053 1111.28Z" fill="#1F643E"/>
<path d="M443.427 1191.35C408.031 1183.87 395.407 1217.52 381.864 1251.85C368.321 1286.18 377.49 1321.96 391.476 1327.48C405.463 1333 439.893 1314.42 453.436 1280.09C466.979 1245.75 478.823 1198.83 443.427 1191.35Z" fill="#344B38"/>
<path d="M1098.34 264C1036.34 259.333 917.942 263.6 868.342 286C806.342 314 750.344 328.909 700.343 338C650.342 347.091 532.562 372 506.342 490C497.139 531.416 506.342 566 422.342 650C318.169 754.173 294.342 954 294.342 1066C294.342 1238 409.675 1326 458.342 1404" stroke="#126341" stroke-width="25" stroke-linecap="round"/>
<path d="M1372.34 297C1358.84 318 1322.84 383.167 1304.84 426.5C1270.18 416.333 1196.24 394.2 1177.84 387C1159.44 379.8 1113.51 372 1092.84 369C1096.18 354.333 1104.94 320 1113.34 300C1123.84 275 1088.84 243 1078.84 232.5C1068.84 222 1136.84 239 1170.84 255C1204.84 271 1213.84 319.5 1237.84 307C1261.84 294.5 1272.84 260.5 1269.84 248C1266.84 235.5 1251.84 224 1247.84 219C1243.84 214 1295.81 239.198 1304.84 255C1318.84 279.5 1296.01 296.833 1292.34 315C1297.01 309 1317.94 291.1 1330.34 279.5C1345.84 265 1393.34 247 1399.84 248C1406.34 249 1381.91 282.118 1372.34 297Z" fill="#2B686C"/>
<path d="M865.342 328C896.088 333.211 918.675 359.333 935.342 372H1106.34C1112.68 357.333 1110.49 318.134 1123.34 306C1141.34 289 1178.01 262 1206.34 251C1179.68 247.333 1118.14 244.2 1085.34 261C1052.54 277.8 1028.34 309.333 1020.34 323C1008.68 317.333 976.342 292.5 910.342 283C848.224 274.059 796.675 305.333 777.342 328C800.008 326 835.842 323 865.342 328Z" fill="#15762C"/>
<path d="M1159.34 284.5C1159.34 262.5 1140.68 228.667 1131.34 214.5C1140.68 218.667 1164.34 227.8 1182.34 239C1208.84 255.489 1247.68 315.667 1269.34 346C1269.51 338.333 1280 314.831 1269.34 296.5C1256.84 275 1237.84 250.5 1233.34 246.5C1228.84 242.5 1283.34 266.5 1305.84 284.5C1323.84 298.9 1335.68 334.833 1339.34 351C1354.84 343.5 1391.67 319.777 1423.84 312.5C1465.84 303 1498.51 301.667 1519.34 307C1523.34 316 1459.34 331.5 1427.34 357.5C1404.96 375.689 1361.01 410.5 1344.84 431C1316.68 421.667 1257.94 401.4 1248.34 395C1238.74 388.6 1174.01 374 1142.84 367.5C1148.34 349 1159.34 306.5 1159.34 284.5Z" fill="#15762C"/>
<circle cx="1037.84" cy="1048.5" r="696.5" fill="#396F8E"/>
<path d="M1037.84 1650.5C1370.32 1650.5 1639.84 1380.98 1639.84 1048.5C1639.84 716.025 1370.32 446.5 1037.84 446.5C705.366 446.5 435.842 716.025 435.842 1048.5C435.842 1380.98 705.366 1650.5 1037.84 1650.5Z" fill="#186C9D" stroke="#95D8FF" stroke-width="10"/>
<path d="M1159.52 1328.34L1159.56 1328.27C1165.31 1328.38 1171.05 1327.75 1176.64 1326.4C1209.33 1318.75 1236.98 1290.21 1243.55 1259.39L1373.65 770.746L1270.22 770.223L1184.93 1089.92L954.336 769.141L954.187 769.291L954.299 768.917L916.203 768.656V768.694C910.441 768.605 904.69 769.219 899.077 770.522C866.428 778.208 838.78 806.752 832.175 837.535L702.029 1326.29L805.497 1326.74L890.756 1007.05L1121.35 1327.86H1121.46L1159.52 1328.34ZM913.517 921.861L931.538 854.326L1162.17 1175.18L1144.15 1242.71L913.554 921.824L913.517 921.861Z" fill="white"/>
<path d="M1749.9 1520.5C1742.4 1556 1730.52 1550.38 1721.52 1550.38C1708.02 1550.38 1702.28 1531.45 1717.02 1505.38C1729.4 1483.5 1736.4 1480 1752.4 1461C1752.4 1483.5 1754.11 1500.56 1749.9 1520.5Z" fill="#D16F6F"/>
<path d="M1700.53 1540.26C1700.4 1563.17 1692.39 1561.18 1686.86 1562.31C1678.56 1564.01 1672.63 1553.02 1678.4 1535.03C1683.25 1519.93 1687.11 1516.89 1694.55 1503.12C1697.39 1517.05 1700.6 1527.39 1700.53 1540.26Z" fill="#D16F6F"/>
<path d="M1715.91 1555.73C1693.3 1559.48 1696.54 1567.08 1696.3 1572.72C1695.94 1581.19 1707.74 1585.3 1724.58 1576.74C1738.72 1569.56 1741.11 1565.27 1753.52 1555.74C1739.32 1555.14 1728.6 1553.61 1715.91 1555.73Z" fill="#D16F6F"/>
<path d="M1736.5 1600.36C1717.96 1619.02 1726.07 1623.93 1729.63 1629.35C1734.97 1637.48 1748.72 1633.39 1758.68 1614.13C1767.04 1597.96 1766.39 1592.35 1771.57 1575.14C1757.94 1584.11 1746.92 1589.88 1736.5 1600.36Z" fill="#D16F6F"/>
<path d="M1723.44 1641.79C1691.79 1627.67 1689.53 1639.95 1684.52 1646.87C1677 1657.25 1688.46 1672.28 1716.84 1675.55C1740.67 1678.29 1747.28 1674.87 1770.89 1673.21C1753.47 1660.6 1741.22 1649.72 1723.44 1641.79Z" fill="#D16F6F"/>
<path d="M1610.72 1715.6C1576.06 1715.57 1578.99 1727.71 1577.23 1736.07C1574.58 1748.61 1591.16 1757.68 1618.42 1749.12C1641.3 1741.93 1645.94 1736.12 1666.84 1725C1645.81 1720.57 1630.19 1715.62 1610.72 1715.6Z" fill="#D16F6F"/>
<path d="M1486.83 1734.97C1454.38 1722.78 1452.87 1735.17 1448.28 1742.38C1441.4 1753.2 1453.73 1767.51 1482.27 1769.06C1506.21 1770.37 1512.6 1766.56 1536.07 1763.49C1517.93 1751.95 1505.05 1741.83 1486.83 1734.97Z" fill="#D16F6F"/>
<path d="M1337.87 1756.77C1305.43 1744.57 1303.91 1756.97 1299.32 1764.18C1292.44 1774.99 1304.78 1789.3 1333.31 1790.86C1357.25 1792.16 1363.64 1788.35 1387.11 1785.28C1368.97 1773.74 1356.09 1763.62 1337.87 1756.77Z" fill="#D16F6F"/>
<path d="M1324.66 1702.19C1308.95 1721.48 1317.04 1725.34 1320.9 1730.11C1326.69 1737.26 1339.25 1732.13 1346.81 1713.07C1353.17 1697.07 1352.03 1691.85 1355.29 1675.18C1343.3 1684.89 1333.48 1691.35 1324.66 1702.19Z" fill="#D16F6F"/>
<path d="M1346.06 1652.77C1323.36 1647.57 1323.46 1655.96 1321.06 1661.18C1317.45 1669 1326.95 1677.42 1346.09 1675.89C1362.16 1674.6 1366.07 1671.49 1381.43 1667.33C1368.31 1661.28 1358.81 1655.69 1346.06 1652.77Z" fill="#D16F6F"/>
<path d="M1257.06 1686.77C1234.36 1681.57 1234.46 1689.96 1232.06 1695.18C1228.45 1703 1237.95 1711.42 1257.09 1709.89C1273.16 1708.6 1277.07 1705.49 1292.43 1701.33C1279.31 1695.28 1269.81 1689.69 1257.06 1686.77Z" fill="#D16F6F"/>
<path d="M1179.83 1737.39C1156.72 1740.3 1159.7 1748.15 1159.24 1753.87C1158.53 1762.46 1170.35 1767.1 1187.8 1759.09C1202.45 1752.36 1205.06 1748.09 1218.05 1738.91C1203.65 1737.73 1192.81 1735.75 1179.83 1737.39Z" fill="#D16F6F"/>
<path d="M1220.12 1751.42C1212.15 1773.31 1220.49 1774.24 1225.37 1777.27C1232.69 1781.81 1242.22 1773.42 1243.06 1754.23C1243.76 1738.13 1241.16 1733.87 1238.92 1718.12C1231.3 1730.39 1224.59 1739.12 1220.12 1751.42Z" fill="#D16F6F"/>
<path d="M1294.94 1722.57C1289.8 1736.7 1295.19 1737.3 1298.33 1739.25C1303.06 1742.19 1309.21 1736.77 1309.75 1724.39C1310.2 1713.99 1308.52 1711.24 1307.08 1701.07C1302.16 1709 1297.83 1714.63 1294.94 1722.57Z" fill="#D16F6F"/>
<path d="M1256.74 1645.93C1258.43 1673.61 1267.98 1670.67 1274.74 1671.67C1284.89 1673.16 1291.32 1659.48 1283.13 1638.13C1276.27 1620.21 1271.39 1616.79 1261.48 1600.65C1258.98 1617.67 1255.8 1630.39 1256.74 1645.93Z" fill="#D16F6F"/>
<path d="M1188.71 1686.26C1181.75 1713.15 1192.04 1713.54 1198.37 1716.74C1207.87 1721.54 1218.44 1710.66 1217.05 1687.63C1215.89 1668.3 1212.17 1663.43 1207.47 1644.77C1199.71 1660.13 1192.62 1671.16 1188.71 1686.26Z" fill="#D16F6F"/>
<path d="M1140.63 1492.29C1117.8 1508.11 1125.34 1515.13 1128.05 1521.68C1132.11 1531.52 1147.22 1530.18 1161.21 1511.83C1172.94 1496.43 1173.31 1490.31 1181.93 1473.11C1166.03 1479.68 1153.45 1483.41 1140.63 1492.29Z" fill="#D16F6F"/>
<path d="M1131.41 1534.07C1107.2 1537.75 1110.79 1544.89 1110.63 1550.21C1110.37 1558.19 1123.1 1562 1141.05 1553.83C1156.12 1546.98 1158.62 1542.92 1171.8 1533.86C1156.54 1533.38 1145.01 1532.01 1131.41 1534.07Z" fill="#D16F6F"/>
<path d="M1116.59 1578.33C1092.38 1582 1092.51 1585.18 1092.34 1590.5C1092.09 1598.48 1108.28 1606.25 1126.23 1598.09C1141.3 1591.24 1155.34 1594.47 1168.34 1594.47C1155.34 1582.5 1130.19 1576.26 1116.59 1578.33Z" fill="#D16F6F"/>
<path d="M1157.16 1643.11C1132.86 1646.16 1132.12 1643.07 1130.51 1637.99C1128.1 1630.38 1141.57 1618.5 1161.06 1621.47C1177.42 1623.96 1190.05 1617.03 1202.56 1613.5C1193.31 1628.55 1170.81 1641.39 1157.16 1643.11Z" fill="#D16F6F"/>
<path d="M953.239 1676.27C933.251 1662.13 934.787 1659.34 937.025 1654.51C940.38 1647.27 958.338 1647.59 970.719 1662.93C981.109 1675.81 995.11 1679.23 1006.73 1685.06C989.742 1689.92 964.464 1684.21 953.239 1676.27Z" fill="#D16F6F"/>
<path d="M1066.08 1530.01C1063.45 1552.09 1071.84 1553.14 1077.03 1553.15C1085.55 1553.15 1094.93 1548.13 1091.34 1530.01C1088.34 1514.8 1082.23 1509.36 1076.49 1495.07C1071.99 1508.09 1067.55 1517.61 1066.08 1530.01Z" fill="#D16F6F"/>
<path d="M1099.96 1631.43C1093.52 1647.32 1099.55 1649.81 1103.4 1650.86C1109.74 1652.59 1117.73 1650.76 1118.74 1636.56C1119.6 1624.64 1116.16 1619.35 1114.79 1607.56C1108.8 1616.33 1103.57 1622.51 1099.96 1631.43Z" fill="#D16F6F"/>
<path d="M1051.11 1641.69C1043.87 1654.78 1049.32 1658.28 1052.85 1660.04C1058.65 1662.93 1066.28 1662.93 1068.32 1650.25C1070.03 1639.61 1067.21 1634.1 1066.84 1623.11C1060.56 1629.83 1055.18 1634.35 1051.11 1641.69Z" fill="#D16F6F"/>
<path d="M1086.05 1662.84C1063.49 1655.69 1060.38 1654.08 1059.34 1659.5C1057.64 1668.41 1061.35 1689.38 1081.01 1689.25C1097.51 1689.14 1105.26 1689.65 1121.34 1686.5C1108.63 1679.2 1098.72 1666.86 1086.05 1662.84Z" fill="#D16F6F"/>
<path d="M1036.6 1671.86C1021.94 1662.13 1020.05 1660.35 1018.2 1664.01C1015.16 1670.02 1015.61 1681.33 1027.59 1689.69C1036.6 1695.98 1044.83 1694.94 1056.97 1695.98C1049.38 1688.16 1044.83 1677.32 1036.6 1671.86Z" fill="#D16F6F"/>
<path d="M1022.11 1597.73C1033.34 1621.03 1042.35 1616.82 1047.52 1613.58C1056.01 1608.26 1062.22 1597.47 1047.29 1581.93C1034.76 1568.89 1025.27 1567.37 1010.59 1556.94C1014.26 1572.53 1015.81 1584.63 1022.11 1597.73Z" fill="#D16F6F"/>
<path d="M990.84 1622.5C990.84 1643.12 1008.84 1644.6 1008.84 1638.5C1008.84 1632.5 1013.52 1628.5 1013.52 1618.5C1013.52 1600.42 1008.34 1603.5 1003.84 1587.5C1000.34 1603.5 990.84 1610.5 990.84 1622.5Z" fill="#D16F6F"/>
<path d="M1395.34 1609.5C1377.31 1626.63 1383.81 1632.72 1384.95 1638.75C1386.67 1647.78 1400.15 1649.21 1415.84 1636C1429.01 1624.92 1428.34 1602 1432.76 1585.91C1419.26 1592.41 1405.34 1600 1395.34 1609.5Z" fill="#D16F6F"/>
<path d="M1333.34 1620.5C1327.71 1640.71 1346.87 1650.82 1352.34 1647.5C1360.2 1642.72 1366.78 1630.5 1360.84 1619C1357.82 1613.14 1354.34 1604.5 1354.34 1587C1342.34 1600.5 1337.22 1606.59 1333.34 1620.5Z" fill="#D16F6F"/>
<path d="M1562.84 1698.28C1542.71 1712.32 1553.02 1718.8 1558.89 1720.27C1568.89 1722.77 1576.55 1720.27 1580.9 1714.62C1591.27 1701.17 1590.89 1694.27 1603.38 1681.27C1583.89 1684.77 1574.15 1690.4 1562.84 1698.28Z" fill="#D16F6F"/>
<path d="M1507.9 1697.51C1487.76 1711.54 1494.39 1717.4 1496.75 1722.97C1500.3 1731.32 1513.6 1729.87 1525.96 1713.84C1536.32 1700.4 1536.66 1695.14 1544.29 1680.21C1530.28 1686.17 1519.2 1689.62 1507.9 1697.51Z" fill="#D16F6F"/>
<path d="M1489.54 1676.31C1470.72 1670.21 1459.93 1669.83 1454.93 1683.83C1449.93 1697.83 1471.53 1695.73 1487.84 1695.87C1501.53 1695.98 1505.07 1693.64 1518.38 1691.27C1507.73 1685.17 1500.11 1679.74 1489.54 1676.31Z" fill="#D16F6F"/>
<path d="M1571.43 1648.76C1549.18 1638.42 1547.44 1647.1 1543.82 1651.94C1538.39 1659.21 1546.34 1669.97 1566.4 1672.59C1583.24 1674.79 1587.95 1672.43 1604.69 1671.52C1592.49 1662.4 1583.93 1654.57 1571.43 1648.76Z" fill="#D16F6F"/>
<path d="M1489.6 1641.38C1481.42 1664.51 1490.21 1665.42 1495.38 1668.56C1503.13 1673.28 1513.09 1664.35 1513.8 1644.13C1514.39 1627.16 1511.6 1622.69 1509.11 1606.12C1501.19 1619.12 1494.2 1628.38 1489.6 1641.38Z" fill="#D16F6F"/>
<path d="M1432.6 1659.38C1424.42 1682.51 1433.21 1683.42 1438.38 1686.56C1446.13 1691.28 1456.09 1682.35 1456.8 1662.13C1457.39 1645.16 1454.6 1640.69 1452.11 1624.12C1444.19 1637.12 1437.2 1646.38 1432.6 1659.38Z" fill="#D16F6F"/>
<path d="M1394.04 1684C1387.57 1702.31 1394.53 1703.02 1398.62 1705.51C1404.75 1709.25 1412.63 1702.18 1413.19 1686.18C1413.66 1672.75 1411.46 1669.21 1409.48 1656.1C1403.21 1666.38 1397.68 1673.71 1394.04 1684Z" fill="#D16F6F"/>
<path d="M1658.22 1610.2C1638.16 1625.48 1645.32 1631.67 1648.07 1637.6C1652.19 1646.5 1665.85 1644.78 1677.76 1627.47C1687.75 1612.94 1687.82 1607.3 1694.9 1591.23C1680.74 1597.78 1669.48 1601.62 1658.22 1610.2Z" fill="#D16F6F"/>
<path d="M1620.44 1586.39C1598.95 1579.85 1598.2 1588.25 1595.34 1593.32C1591.05 1600.94 1599.41 1609.92 1618.13 1609.51C1633.84 1609.17 1637.95 1606.28 1653.25 1603.02C1641.14 1596.2 1632.51 1590.06 1620.44 1586.39Z" fill="#D16F6F"/>
<path d="M1576.9 1564.37C1565.3 1588.85 1575.19 1591.23 1580.73 1595.54C1589.05 1602 1601.25 1593.62 1604.08 1571.22C1606.45 1552.42 1603.73 1547 1602.56 1528.16C1592.27 1541.4 1583.42 1550.62 1576.9 1564.37Z" fill="#D16F6F"/>
<path d="M1655.34 1553.5C1655.34 1563.32 1649.42 1579.24 1635.75 1579.24C1614.34 1579.24 1624 1556.15 1630.78 1547.46C1639.34 1536.5 1641.98 1535.77 1649.42 1522C1652.26 1535.92 1655.34 1540.63 1655.34 1553.5Z" fill="#D16F6F"/>
<path d="M733.342 1653.5C725.342 1653.5 709.342 1659 708.342 1655L657.842 1632.5C670.175 1643.83 702.742 1675 708.342 1675C715.342 1675 750.342 1659 776.342 1659C802.342 1659 837.342 1674 849.342 1675C861.342 1676 923.342 1668 944.342 1659C965.342 1650 999.342 1659 1011.34 1659C1023.34 1659 1024.34 1635 1031.34 1629C1038.34 1623 1079.34 1607 1090.34 1595C1099.14 1585.4 1116.68 1567.67 1124.34 1560C1116.34 1564.33 1098.34 1574.6 1090.34 1581C1080.34 1589 1075.34 1595 1072.34 1585C1069.34 1575 1072.34 1569 1093.34 1560C1110.14 1552.8 1137.01 1519.67 1148.34 1504C1144.68 1508 1134.74 1517.8 1124.34 1525C1111.34 1534 1074.34 1554 1064.34 1560C1056.34 1564.8 1061.01 1585.33 1064.34 1595C1061.68 1598.33 1051.34 1606.6 1031.34 1613C1006.34 1621 1020.34 1617 1006.34 1635C992.342 1653 988.342 1641 972.342 1641C956.342 1641 875.342 1649 856.342 1659C837.342 1669 800.342 1649 776.342 1641C752.342 1633 751.453 1653.5 733.342 1653.5Z" fill="url(#paint3_linear_64_41)"/>
<path d="M774.342 1774C749.542 1770.8 650.008 1656.67 603.342 1600L586.342 1578C605.675 1592.33 648.742 1614.2 654.342 1619C661.342 1625 678.342 1654 698.342 1676C718.342 1698 736.342 1707 763.342 1732C790.342 1757 798.342 1749 804.342 1749C810.342 1749 819.342 1743 854.342 1732C889.342 1721 909.342 1727 957.342 1727C1005.34 1727 1102.34 1743 1115.34 1749C1128.34 1755 1137.34 1749 1154.34 1743C1171.34 1737 1192.34 1707 1211.34 1688C1230.34 1669 1244.34 1670 1283.34 1663C1322.34 1656 1315.34 1647 1343.34 1638C1371.34 1629 1423.34 1621 1405.34 1629C1387.34 1637 1376.34 1647 1353.34 1654C1330.34 1661 1306.34 1670 1278.34 1676C1255.94 1680.8 1224.34 1705.33 1211.34 1717C1188.01 1733.33 1143.34 1767.6 1151.34 1774C1161.34 1782 1214.34 1774 1223.34 1774C1232.34 1774 1294.34 1739 1315.34 1727C1336.34 1715 1376.34 1717 1387.34 1707C1398.34 1697 1398.34 1690 1446.34 1676C1494.34 1662 1492.34 1664 1513.34 1654C1534.34 1644 1536.34 1638 1554.34 1629C1572.34 1620 1566.34 1615 1576.34 1596C1586.34 1577 1601.34 1579 1640.34 1570C1679.34 1561 1682.34 1565 1702.34 1554C1722.34 1543 1731.34 1527 1733.34 1542C1735.34 1557 1732.34 1550 1720.34 1565C1708.34 1580 1694.34 1579 1660.34 1579C1626.34 1579 1620.34 1587 1606.34 1591C1592.34 1595 1568.34 1638 1587.34 1629C1606.34 1620 1606.34 1629 1627.34 1629H1702.34C1730.34 1629 1749.34 1616 1738.34 1629C1727.34 1642 1710.34 1647 1682.34 1654C1654.34 1661 1665.34 1654 1648.34 1647C1631.34 1640 1614.34 1639 1596.34 1638C1578.34 1637 1577.34 1644 1561.34 1647C1545.34 1650 1531.34 1664 1522.34 1670C1513.34 1676 1486.34 1678 1430.34 1699C1374.34 1720 1397.34 1722 1430.34 1717C1463.34 1712 1506.34 1717 1546.34 1717C1586.34 1717 1613.34 1734 1606.34 1739C1599.34 1744 1592.34 1741 1554.34 1739C1516.34 1737 1369.34 1760 1330.34 1760C1291.34 1760 1218.34 1796 1206.34 1800C1194.34 1804 1143.34 1790 1129.34 1789C1115.34 1788 1105.34 1786 1064.34 1774C1023.34 1762 973.342 1750 957.342 1749C941.342 1748 909.342 1749 889.342 1760C869.342 1771 805.342 1778 774.342 1774Z" fill="url(#paint4_linear_64_41)"/>
<path d="M1014.34 1668.5C1001.94 1667.3 965.508 1657.33 948.842 1652.5L961.842 1647L1014.34 1655C1020.18 1656.67 1034.84 1660 1046.84 1660C1061.84 1660 1054.84 1655 1066.84 1647C1078.84 1639 1077.84 1644.5 1089.84 1644.5C1101.84 1644.5 1097.84 1649 1104.84 1644.5C1111.84 1640 1108.84 1641.5 1122.34 1638.5C1133.14 1636.1 1149.51 1633.5 1156.34 1632.5C1146.84 1637.17 1125.24 1648.2 1114.84 1655C1101.84 1663.5 1029.84 1670 1014.34 1668.5Z" fill="#73553F"/>
<path d="M1403.36 454.884C1362.68 410.09 1394.3 313.99 1415.19 271.54C1418.71 284.299 1432.42 319.013 1459.14 355.798C1492.53 401.78 1585.53 425.188 1647.51 496.508C1709.48 567.829 1665.45 650.715 1659.15 700.31C1652.85 749.905 1730.32 801.557 1757.57 862.825C1784.82 924.092 1733.86 990.966 1728.51 1037.55C1723.15 1084.13 1774.8 1118.57 1785.66 1141.08C1796.53 1163.59 1776.54 1243.99 1735.25 1290.72C1693.95 1337.45 1726.96 1416.35 1692.32 1486.27C1664.61 1542.21 1517.55 1562.85 1466.75 1563.04C1477.14 1553.25 1497.22 1533.79 1516.45 1514.94C1540.06 1491.79 1564.46 1478.54 1559.1 1427.99C1553.74 1377.44 1595.63 1352.04 1606.47 1330.28C1617.31 1308.51 1586.79 1297.78 1569.23 1260.64C1551.66 1223.51 1585.6 1202.26 1595.12 1163.57C1604.64 1124.88 1551.22 1070.73 1544.37 1037.57C1537.53 1004.4 1569.05 950.692 1586.26 915.033C1603.46 879.374 1564.8 862.821 1522.55 815.426C1480.3 768.032 1525.69 693.495 1542.03 643.692C1558.37 593.89 1454.2 510.877 1403.36 454.884Z" fill="#0E4C50"/>
<path d="M1412.55 286.254C1410.06 320.944 1410.87 395.949 1434.1 418.446C1463.14 446.567 1602.6 516.684 1603.8 559.343C1605 602.001 1547.93 728.438 1580.64 770.246C1613.35 812.053 1686.2 853.031 1676.64 900.3C1667.09 947.569 1612.87 1012.12 1628.04 1061.07C1643.22 1110.02 1717.14 1122.25 1704.55 1168.59C1691.96 1214.92 1642.41 1281.57 1650.8 1333.05C1664.17 1415.07 1660.16 1425.8 1635.77 1452.64C1616.25 1474.1 1523.99 1531.8 1480.31 1557.97" stroke="#24C86F" stroke-width="5" stroke-linecap="round"/>
<path d="M1393.55 332.92C1391.8 339.871 1394.75 358.229 1398.88 365.621C1408.02 381.986 1415.25 383.665 1418.15 386.763" stroke="#24C86F" stroke-width="5" stroke-linecap="round"/>
<path d="M1435.93 328.155C1439.35 337.359 1441.88 367.324 1438.85 376.961C1435.82 386.597 1432.37 397.539 1429.26 406.379" stroke="#24C86F" stroke-width="5" stroke-linecap="round"/>
<path d="M1386.86 389.006C1388.68 398.708 1399.99 414.9 1409.01 418.965C1432.3 429.453 1438.79 429.585 1450.02 432.278" stroke="#24C86F" stroke-width="5" stroke-linecap="round"/>
<path d="M1462.35 366.702C1463.37 372.964 1464.73 381.313 1467.57 398.706C1470.4 416.1 1464.67 427.986 1462.14 436.017" stroke="#24C86F" stroke-width="5" stroke-linecap="round"/>
<path d="M1397 442.35C1406.77 449.328 1420.85 456.317 1438.1 460.648C1455.35 464.978 1480.11 460.943 1488.87 458.8" stroke="#24C86F" stroke-width="5" stroke-linecap="round"/>
<path d="M1492.79 394.595C1499.79 403.691 1511.02 425.193 1513.95 436.142C1516.89 447.092 1516.23 463.387 1513.79 470.452" stroke="#24C86F" stroke-width="5" stroke-linecap="round"/>
<path d="M1440.77 490.211C1450.01 493.943 1468.73 498.509 1487.65 495.425C1503.59 492.826 1524.94 490.3 1533.89 487.887" stroke="#24C86F" stroke-width="5" stroke-linecap="round"/>
<path d="M1538.76 420.67C1543.79 426.517 1553.78 443.078 1553.5 462.55C1553.22 482.023 1552.02 494.693 1551.57 499.29" stroke="#24C86F" stroke-width="5" stroke-linecap="round"/>
<path d="M1579.24 448.355C1584.48 459.882 1597.32 475.407 1601.17 499.062C1603.89 515.76 1596.48 536.49 1597.24 541.129" stroke="#24C86F" stroke-width="5" stroke-linecap="round"/>
<path d="M1502.91 549.362C1502.47 551.1 1538.11 548.195 1559.38 551.585C1580.65 554.975 1592.91 567.546 1601.97 574.64" stroke="#24C86F" stroke-width="5" stroke-linecap="round"/>
<path d="M1628.99 488.813C1637.68 502.396 1639.48 521.387 1636.7 536.124C1633.93 550.861 1610.12 589.263 1597.18 602.562" stroke="#24C86F" stroke-width="5" stroke-linecap="round"/>
<path d="M1469.94 514.74C1474.48 516.142 1509.77 527.904 1529.04 528.677C1553.65 529.664 1568.77 523.866 1577.38 520.796" stroke="#24C86F" stroke-width="5" stroke-linecap="round"/>
<path d="M1528.18 585.239C1533.65 589.348 1555.16 593.552 1569.06 602.146C1581.86 610.059 1582.01 628.605 1586.3 632.904" stroke="#24C86F" stroke-width="5" stroke-linecap="round"/>
<path d="M1544.93 621.792C1546.75 632.924 1554.6 650.214 1557.13 656.943C1559.67 663.672 1570.7 677.16 1574.44 674.835" stroke="#24C86F" stroke-width="5" stroke-linecap="round"/>
<path d="M1534.2 670.681C1541.37 683.796 1539.42 702.685 1545.89 715.915C1550.44 725.229 1566.78 741.366 1570.52 739.041" stroke="#24C86F" stroke-width="5" stroke-linecap="round"/>
<path d="M1514.93 724.533C1523.86 735.219 1519.12 750.276 1537.58 770.837C1554.36 789.53 1597.32 796.382 1601.06 794.057" stroke="#24C86F" stroke-width="5" stroke-linecap="round"/>
<path d="M1512.27 792.104C1521.21 802.79 1551.24 819.322 1577.71 822.863C1599.22 825.742 1635.84 835 1650.84 838.5" stroke="#24C86F" stroke-width="5" stroke-linecap="round"/>
<path d="M1565.34 847C1574.28 857.686 1614.47 871.206 1637.34 885C1668.84 904 1665.1 922.825 1668.84 920.5" stroke="#24C86F" stroke-width="5" stroke-linecap="round"/>
<path d="M1593.34 900C1602.28 910.686 1607.47 913.242 1625.34 933C1634.84 943.5 1641.84 970 1641.84 982.5" stroke="#24C86F" stroke-width="5" stroke-linecap="round"/>
<path d="M1568.56 956.487C1577.49 967.172 1600.12 969.198 1609.76 979.769C1614.14 984.582 1625.9 994.993 1629.19 1015.17" stroke="#24C86F" stroke-width="5" stroke-linecap="round"/>
<path d="M1550.12 1006.63C1562.93 1036.68 1576.13 1033.82 1588.95 1037.44C1604.97 1041.97 1624.88 1063.73 1637.64 1080.22" stroke="#24C86F" stroke-width="5" stroke-linecap="round"/>
<path d="M1566.61 1072.51C1579.42 1102.56 1604.02 1107.84 1616.84 1111.46C1632.86 1115.99 1682.5 1117.19 1695.26 1133.68" stroke="#24C86F" stroke-width="5" stroke-linecap="round"/>
<path d="M1599.4 1145.73C1632.16 1152.53 1638.33 1155.1 1653.92 1166.84C1663.42 1174.01 1682.23 1199.37 1682.25 1221.51" stroke="#24C86F" stroke-width="5" stroke-linecap="round"/>
<path d="M1582.55 1205.62C1596.43 1233.35 1600.28 1246.13 1617.33 1255.66C1633.15 1264.51 1657.7 1256.22 1657.71 1278.36" stroke="#24C86F" stroke-width="5" stroke-linecap="round"/>
<path d="M1611 1309.54C1630.5 1332.08 1619.88 1344.35 1636.93 1353.88C1652.76 1362.73 1653.17 1374.09 1657.64 1392.65" stroke="#24C86F" stroke-width="5" stroke-linecap="round"/>
<path d="M1583.78 1367.55C1603.27 1390.08 1586.4 1405.69 1595.65 1422.75C1604.27 1438.63 1629.79 1433.61 1634.25 1452.17" stroke="#24C86F" stroke-width="5" stroke-linecap="round"/>
<path d="M1564.75 1418.5C1584.24 1441.04 1589.37 1447.85 1585.07 1463.76C1581.03 1478.7 1568.29 1484.35 1556.61 1509.82" stroke="#24C86F" stroke-width="5" stroke-linecap="round"/>
<path d="M1663.15 1510.31C1639.17 1522.08 1618.04 1524.81 1601.83 1522.45C1586.43 1520.21 1557.04 1508.97 1533.91 1524.95" stroke="#24C86F" stroke-width="5" stroke-linecap="round"/>
<path d="M1701.67 1433.32C1685.93 1455.89 1677.79 1471.68 1659.33 1478.08C1642.16 1484.04 1614.81 1471.58 1598.88 1482.29" stroke="#24C86F" stroke-width="5" stroke-linecap="round"/>
<path d="M1708.23 1354.4C1688.32 1369.08 1694.09 1382.42 1682.84 1392.82C1672.97 1401.95 1660.17 1399.38 1655.53 1419.42" stroke="#24C86F" stroke-width="5" stroke-linecap="round"/>
<path d="M1778.56 1163.67C1772.13 1190.43 1764.23 1208.14 1742.81 1222.35C1721.39 1236.55 1675.05 1239.11 1665.86 1257.75" stroke="#24C86F" stroke-width="5" stroke-linecap="round"/>
<path d="M1738.22 1278.09C1702.22 1291.1 1715.23 1304.69 1696.5 1317.75C1677.76 1330.8 1665.31 1324.97 1650.59 1327.37" stroke="#24C86F" stroke-width="5" stroke-linecap="round"/>
<path d="M1735.04 989.346C1718.41 1002.06 1696.5 995.627 1672.88 1005.19C1657.7 1011.34 1640.12 1024.82 1625.91 1043.56" stroke="#24C86F" stroke-width="5" stroke-linecap="round"/>
<path d="M1722.96 1025.6C1706.33 1038.31 1702.75 1038.95 1684.08 1056.22C1669.08 1070.09 1664.32 1089.44 1664.12 1105.9" stroke="#24C86F" stroke-width="5" stroke-linecap="round"/>
<path d="M1728.56 1077.54C1732.41 1101.19 1747.56 1105.87 1730.3 1127.97C1717.74 1144.05 1709.27 1157.82 1703.61 1171.6" stroke="#24C86F" stroke-width="5" stroke-linecap="round"/>
<path d="M1665.14 542.916C1662.31 557.9 1652.49 594.635 1641.02 611.13C1626.45 632.074 1595.05 651.239 1583.85 657.587" stroke="#24C86F" stroke-width="5" stroke-linecap="round"/>
<path d="M1671.35 611.898C1668.52 626.883 1641.8 668.855 1625.28 682.261C1605.43 698.37 1583.44 712.413 1572.25 718.761" stroke="#24C86F" stroke-width="5" stroke-linecap="round"/>
<path d="M1656.34 678.627C1645.73 701.784 1634.82 715.959 1627.39 730.485C1617.02 750.745 1596.04 763.212 1584.84 769.56" stroke="#24C86F" stroke-width="5" stroke-linecap="round"/>
<path d="M1657.25 732.76C1654.69 756.748 1647.46 772.041 1644.55 778.399C1641.37 785.346 1630.79 799.925 1613.98 802.666" stroke="#24C86F" stroke-width="5" stroke-linecap="round"/>
<path d="M1681.91 773.737C1680.86 798.192 1682.48 802.214 1677.52 813.021C1674.34 819.967 1670.91 829.812 1658.94 844.619" stroke="#24C86F" stroke-width="5" stroke-linecap="round"/>
<path d="M1726.7 827.861C1725.65 852.316 1718.64 863.458 1713.88 872.804C1709.13 882.149 1697.21 894.091 1677.44 905.17" stroke="#24C86F" stroke-width="5" stroke-linecap="round"/>
<path d="M1754.19 886.231C1753.14 910.686 1737.27 936.843 1712.8 954.403C1688.33 971.962 1664.32 965.876 1644.54 976.956" stroke="#24C86F" stroke-width="5" stroke-linecap="round"/>
<path d="M1403.36 454.884C1362.68 410.09 1394.3 313.99 1415.19 271.54C1418.71 284.299 1432.42 319.013 1459.14 355.798C1492.53 401.78 1585.53 425.188 1647.51 496.508C1709.48 567.829 1665.45 650.715 1659.15 700.31C1652.85 749.905 1730.32 801.557 1757.57 862.825C1784.82 924.092 1733.86 990.966 1728.51 1037.55C1723.15 1084.13 1774.8 1118.57 1785.66 1141.08C1796.53 1163.59 1776.54 1243.99 1735.25 1290.72C1693.95 1337.45 1726.96 1416.35 1692.32 1486.27C1664.61 1542.21 1517.55 1562.85 1466.75 1563.04C1477.14 1553.25 1497.22 1533.79 1516.45 1514.94C1540.06 1491.79 1564.46 1478.54 1559.1 1427.99C1553.74 1377.44 1595.63 1352.04 1606.47 1330.28C1617.31 1308.51 1586.79 1297.78 1569.23 1260.64C1551.66 1223.51 1585.6 1202.26 1595.12 1163.57C1604.64 1124.88 1551.22 1070.73 1544.37 1037.57C1537.53 1004.4 1569.05 950.692 1586.26 915.033C1603.46 879.374 1564.8 862.821 1522.55 815.426C1480.3 768.032 1525.69 693.495 1542.03 643.692C1558.37 593.89 1454.2 510.877 1403.36 454.884Z" fill="url(#paint5_linear_64_41)"/>
<path d="M1366.82 853.235C1338.24 821.336 1360.67 753.289 1375.46 723.253C1377.92 732.312 1387.52 756.975 1406.28 783.148C1429.72 815.865 1495.2 832.767 1538.74 883.546C1582.27 934.325 1551.12 992.961 1546.6 1028.11C1542.07 1063.26 1596.56 1100.14 1615.65 1143.68C1634.74 1187.22 1598.74 1234.48 1594.89 1267.49C1591.04 1300.51 1627.36 1325.1 1634.97 1341.1C1642.59 1357.1 1628.38 1414.05 1599.21 1447.05C1570.04 1480.06 1593.16 1536.12 1568.64 1585.59C1549.03 1625.18 1445.4 1639.33 1409.61 1639.3C1416.95 1632.39 1431.13 1618.66 1444.71 1605.35C1461.38 1589.01 1478.59 1579.7 1474.9 1543.83C1471.2 1507.97 1500.76 1490.09 1508.43 1474.69C1516.1 1459.29 1494.62 1451.58 1482.31 1425.19C1470 1398.79 1493.94 1383.84 1500.71 1356.43C1507.48 1329.02 1469.94 1290.45 1465.18 1266.91C1460.41 1243.37 1482.71 1205.38 1494.89 1180.15C1507.07 1154.92 1479.86 1143.05 1450.18 1109.3C1420.49 1075.56 1452.59 1022.85 1464.19 987.581C1475.78 952.316 1402.54 893.108 1366.82 853.235Z" fill="#276534"/>
<path d="M1373.58 733.679C1371.76 758.272 1372.21 811.465 1388.54 827.494C1408.95 847.531 1507.07 897.708 1507.84 927.964C1508.62 958.219 1468.2 1047.7 1491.17 1077.45C1514.14 1107.21 1565.39 1136.5 1558.58 1169.99C1551.77 1203.48 1513.47 1249.08 1524.08 1283.85C1534.68 1318.61 1586.74 1327.53 1577.79 1360.34C1568.85 1393.16 1533.82 1440.26 1539.65 1476.8C1548.93 1535.01 1546.09 1542.61 1528.86 1561.56C1515.07 1576.72 1449.99 1617.34 1419.17 1635.75" stroke="#2FA257" stroke-width="5" stroke-linecap="round"/>
<path d="M1360.11 766.711C1358.87 771.635 1360.92 784.663 1363.81 789.918C1370.23 801.554 1375.31 802.768 1377.35 804.974" stroke="#2FA257" stroke-width="5" stroke-linecap="round"/>
<path d="M1389.98 763.469C1392.37 770.007 1394.1 791.266 1391.95 798.09C1389.8 804.914 1387.36 812.662 1385.15 818.921" stroke="#2FA257" stroke-width="5" stroke-linecap="round"/>
<path d="M1355.31 806.463C1356.58 813.349 1364.51 824.869 1370.86 827.781C1387.25 835.294 1391.83 835.409 1399.73 837.355" stroke="#2FA257" stroke-width="5" stroke-linecap="round"/>
<path d="M1408.53 790.891C1409.23 795.335 1410.18 801.26 1412.15 813.604C1414.11 825.948 1410.05 834.359 1408.26 840.046" stroke="#2FA257" stroke-width="5" stroke-linecap="round"/>
<path d="M1362.36 844.325C1369.23 849.306 1379.14 854.308 1391.29 857.435C1403.43 860.562 1420.88 857.78 1427.05 856.289" stroke="#2FA257" stroke-width="5" stroke-linecap="round"/>
<path d="M1429.92 810.77C1434.84 817.244 1442.71 832.528 1444.76 840.303C1446.81 848.077 1446.32 859.631 1444.59 864.633" stroke="#2FA257" stroke-width="5" stroke-linecap="round"/>
<path d="M1393.11 878.409C1399.61 881.085 1412.8 884.384 1426.13 882.259C1437.36 880.468 1452.4 878.745 1458.72 877.063" stroke="#2FA257" stroke-width="5" stroke-linecap="round"/>
<path d="M1462.26 829.412C1465.79 833.574 1472.8 845.351 1472.57 859.159C1472.34 872.967 1471.48 881.949 1471.16 885.207" stroke="#2FA257" stroke-width="5" stroke-linecap="round"/>
<path d="M1490.73 849.176C1494.4 857.367 1503.41 868.419 1506.09 885.207C1507.98 897.057 1502.73 911.734 1503.25 915.026" stroke="#2FA257" stroke-width="5" stroke-linecap="round"/>
<path d="M1436.79 920.558C1436.48 921.789 1461.59 919.845 1476.57 922.318C1491.54 924.791 1500.16 933.746 1506.53 938.806" stroke="#2FA257" stroke-width="5" stroke-linecap="round"/>
<path d="M1525.71 878.029C1531.8 887.689 1533.04 901.163 1531.06 911.605C1529.08 922.047 1512.24 949.202 1503.11 958.591" stroke="#2FA257" stroke-width="5" stroke-linecap="round"/>
<path d="M1413.62 895.898C1416.82 896.907 1441.66 905.363 1455.23 905.974C1472.57 906.754 1483.23 902.691 1489.3 900.542" stroke="#2FA257" stroke-width="5" stroke-linecap="round"/>
<path d="M1454.53 946.083C1458.38 949.015 1473.52 952.066 1483.3 958.205C1492.3 963.858 1492.37 977.011 1495.39 980.074" stroke="#2FA257" stroke-width="5" stroke-linecap="round"/>
<path d="M1466.27 972.059C1467.53 979.959 1473.03 992.246 1474.8 997.026C1476.58 1001.81 1484.32 1011.41 1486.96 1009.77" stroke="#2FA257" stroke-width="5" stroke-linecap="round"/>
<path d="M1458.63 1006.69C1463.66 1016.02 1462.25 1029.41 1466.79 1038.81C1469.98 1045.43 1481.46 1056.93 1484.1 1055.29" stroke="#2FA257" stroke-width="5" stroke-linecap="round"/>
<path d="M1444.96 1044.82C1451.23 1052.43 1447.87 1063.09 1460.84 1077.73C1472.63 1091.04 1502.88 1096.04 1505.52 1094.41" stroke="#2FA257" stroke-width="5" stroke-linecap="round"/>
<path d="M1442.98 1092.73C1449.25 1100.34 1470.38 1112.16 1489.02 1114.76C1504.17 1116.87 1536.77 1127.6 1539.41 1125.96" stroke="#2FA257" stroke-width="5" stroke-linecap="round"/>
<path d="M1480.68 1132.29C1486.95 1139.9 1507.21 1143.75 1522.69 1154.45C1535.78 1163.5 1551.77 1180.4 1554.41 1178.76" stroke="#2FA257" stroke-width="5" stroke-linecap="round"/>
<path d="M1500.32 1179.28C1506.59 1186.89 1502.22 1189.87 1518.26 1199.71C1522.19 1202.12 1541.31 1206.87 1543.95 1205.24" stroke="#2FA257" stroke-width="5" stroke-linecap="round"/>
<path d="M1482.35 1209.49C1488.63 1217.1 1504.56 1218.61 1511.33 1226.13C1514.41 1229.56 1522.68 1236.98 1524.96 1251.3" stroke="#2FA257" stroke-width="5" stroke-linecap="round"/>
<path d="M1469.28 1244.99C1478.25 1266.34 1487.55 1264.35 1496.58 1266.97C1507.86 1270.23 1521.85 1285.72 1530.81 1297.46" stroke="#2FA257" stroke-width="5" stroke-linecap="round"/>
<path d="M1480.78 1291.76C1489.76 1313.11 1507.07 1316.94 1516.1 1319.55C1527.38 1322.81 1562.35 1323.82 1571.31 1335.56" stroke="#2FA257" stroke-width="5" stroke-linecap="round"/>
<path d="M1503.76 1343.79C1526.83 1348.72 1531.17 1350.56 1542.13 1358.94C1548.81 1364.05 1562.02 1382.1 1561.99 1397.8" stroke="#2FA257" stroke-width="5" stroke-linecap="round"/>
<path d="M1491.79 1386.21C1501.52 1405.92 1504.21 1414.99 1516.2 1421.81C1527.34 1428.13 1544.64 1422.34 1544.61 1438.04" stroke="#2FA257" stroke-width="5" stroke-linecap="round"/>
<path d="M1511.66 1460C1525.35 1476.04 1517.85 1484.71 1529.85 1491.53C1540.98 1497.85 1541.25 1505.91 1544.37 1519.09" stroke="#2FA257" stroke-width="5" stroke-linecap="round"/>
<path d="M1492.38 1501.05C1506.08 1517.09 1494.16 1528.1 1500.65 1540.23C1506.69 1551.52 1524.68 1548.05 1527.79 1561.22" stroke="#2FA257" stroke-width="5" stroke-linecap="round"/>
<path d="M1478.89 1537.12C1492.59 1553.16 1496.19 1558.01 1493.13 1569.28C1490.26 1579.86 1481.27 1583.83 1473.01 1601.85" stroke="#2FA257" stroke-width="5" stroke-linecap="round"/>
<path d="M1548.05 1602.55C1531.14 1610.81 1516.25 1612.68 1504.84 1610.95C1493.99 1609.32 1473.31 1601.25 1456.98 1612.51" stroke="#2FA257" stroke-width="5" stroke-linecap="round"/>
<path d="M1575.32 1548.07C1564.19 1564.02 1558.43 1575.2 1545.42 1579.68C1533.31 1583.85 1514.07 1574.92 1502.83 1582.47" stroke="#2FA257" stroke-width="5" stroke-linecap="round"/>
<path d="M1580.07 1492.13C1566.02 1502.47 1570.06 1511.95 1562.12 1519.29C1555.15 1525.73 1546.14 1523.87 1542.84 1538.06" stroke="#2FA257" stroke-width="5" stroke-linecap="round"/>
<path d="M1629.93 1357.09C1625.36 1376.05 1619.76 1388.59 1604.65 1398.59C1589.53 1408.6 1556.89 1410.26 1550.38 1423.45" stroke="#2FA257" stroke-width="5" stroke-linecap="round"/>
<path d="M1601.33 1438.11C1575.95 1447.22 1585.08 1456.9 1571.87 1466.1C1558.65 1475.29 1549.88 1471.12 1539.51 1472.77" stroke="#2FA257" stroke-width="5" stroke-linecap="round"/>
<path d="M1599.57 1233.33C1587.83 1242.29 1572.41 1237.66 1555.76 1244.37C1545.05 1248.68 1532.64 1258.18 1522.6 1271.42" stroke="#2FA257" stroke-width="5" stroke-linecap="round"/>
<path d="M1591 1259C1579.26 1267.96 1576.74 1268.4 1563.56 1280.59C1552.97 1290.38 1549.58 1304.08 1549.42 1315.75" stroke="#2FA257" stroke-width="5" stroke-linecap="round"/>
<path d="M1594.85 1295.85C1597.53 1312.64 1608.19 1316 1596 1331.62C1587.12 1342.99 1581.13 1352.72 1577.12 1362.48" stroke="#2FA257" stroke-width="5" stroke-linecap="round"/>
<path d="M1551.08 916.513C1549.06 927.131 1542.08 953.15 1533.97 964.81C1523.67 979.615 1501.52 993.105 1493.63 997.57" stroke="#2FA257" stroke-width="5" stroke-linecap="round"/>
<path d="M1555.34 965.453C1553.32 976.071 1534.42 1005.75 1522.77 1015.2C1508.76 1026.56 1493.24 1036.45 1485.35 1040.91" stroke="#2FA257" stroke-width="5" stroke-linecap="round"/>
<path d="M1544.65 1012.73C1537.13 1029.11 1529.43 1039.13 1524.17 1049.41C1516.83 1063.74 1502.03 1072.52 1494.13 1076.98" stroke="#2FA257" stroke-width="5" stroke-linecap="round"/>
<path d="M1545.2 1051.12C1543.35 1068.12 1538.24 1078.94 1536.18 1083.44C1533.92 1088.36 1532.59 1102.24 1526.68 1112.8" stroke="#2FA257" stroke-width="5" stroke-linecap="round"/>
<path d="M1562.5 1080.26C1561.72 1097.6 1563.02 1102.54 1564.34 1110.85C1566.15 1122.21 1562.69 1135.42 1554.23 1145.88" stroke="#2FA257" stroke-width="5" stroke-linecap="round"/>
<path d="M1593.96 1118.79C1593.18 1136.12 1588.22 1144 1584.86 1150.62C1581.5 1157.23 1566.04 1185.01 1552.09 1192.8" stroke="#2FA257" stroke-width="5" stroke-linecap="round"/>
<path d="M1613.23 1160.27C1612.45 1177.61 1601.23 1196.11 1583.96 1208.48C1566.69 1220.85 1549.79 1216.46 1535.84 1224.25" stroke="#2FA257" stroke-width="5" stroke-linecap="round"/>
<path d="M1366.82 853.235C1338.24 821.336 1360.67 753.289 1375.46 723.253C1377.92 732.312 1387.52 756.975 1406.28 783.148C1429.72 815.865 1495.2 832.767 1538.74 883.546C1582.27 934.325 1551.12 992.961 1546.6 1028.11C1542.07 1063.26 1596.56 1100.14 1615.65 1143.68C1634.74 1187.22 1598.74 1234.48 1594.89 1267.49C1591.04 1300.51 1627.36 1325.1 1634.97 1341.1C1642.59 1357.1 1628.38 1414.05 1599.21 1447.05C1570.04 1480.06 1593.16 1536.12 1568.64 1585.59C1549.03 1625.18 1445.4 1639.33 1409.61 1639.3C1416.95 1632.39 1431.13 1618.66 1444.71 1605.35C1461.38 1589.01 1478.59 1579.7 1474.9 1543.83C1471.2 1507.97 1500.76 1490.09 1508.43 1474.69C1516.1 1459.29 1494.62 1451.58 1482.31 1425.19C1470 1398.79 1493.94 1383.84 1500.71 1356.43C1507.48 1329.02 1469.94 1290.45 1465.18 1266.91C1460.41 1243.37 1482.71 1205.38 1494.89 1180.15C1507.07 1154.92 1479.86 1143.05 1450.18 1109.3C1420.49 1075.56 1452.59 1022.85 1464.19 987.581C1475.78 952.316 1402.54 893.108 1366.82 853.235Z" fill="url(#paint6_linear_64_41)"/>
<path d="M1640.41 562.16C1648.41 544.56 1639.77 461.096 1646.41 450.66C1653.41 439.66 1732.81 569.36 1758.41 598.16C1790.41 634.16 1782.41 686.16 1782.41 728.16C1782.41 770.16 1808.41 770.16 1816.41 790.16C1824.41 810.16 1808.41 852.16 1816.41 886.16C1824.41 920.16 1900.41 946.16 1900.41 1042.16C1900.41 1111.59 1832.41 1276.16 1808.41 1308.16C1784.41 1340.16 1762.41 1346.16 1736.41 1362.16C1710.41 1378.16 1714.41 1434.16 1678.41 1448.16C1642.41 1462.16 1640.41 1488.16 1622.41 1516.16C1608.01 1538.56 1577.74 1574.83 1564.41 1590.16C1559.08 1576.16 1551.61 1534.16 1564.41 1478.16C1580.41 1408.16 1606.41 1414.16 1622.41 1326.16C1638.41 1238.16 1640.41 1278.16 1678.41 1222.16C1716.41 1166.16 1702.41 1164.16 1696.41 1096.16C1690.41 1028.16 1704.41 1046.16 1714.41 988.16C1724.41 930.16 1664.41 908.16 1662.41 864.16C1660.41 820.16 1672.41 726.16 1678.41 686.16C1684.41 646.16 1656.41 640.16 1640.41 620.16C1624.41 600.16 1630.41 584.16 1640.41 562.16Z" fill="#145E62"/>
<path d="M1652.41 476.16C1661.41 520.16 1666.01 576.36 1684.41 593.16C1707.41 614.16 1744.41 676.16 1736.41 711.16C1728.41 746.16 1714.41 800.16 1725.41 829.16C1736.41 858.16 1746.89 927.076 1764.41 945.16C1795.41 977.16 1825.41 1028.16 1808.41 1070.16C1791.41 1112.16 1775.41 1194.16 1764.41 1239.16C1753.41 1284.16 1675.41 1308.16 1673.41 1335.16C1671.41 1362.16 1678.41 1396.16 1660.41 1406.16C1642.41 1416.16 1611.41 1420.16 1598.41 1463.16C1589.33 1493.18 1576.41 1548.16 1567.41 1571.16" stroke="#198A8C" stroke-width="8" stroke-linecap="round"/>
<path d="M1704.41 531.66C1705.91 536.827 1708.01 556.86 1704.41 571.66C1700.81 586.46 1698.74 593.494 1695.91 599.16" stroke="#198A8C" stroke-width="8" stroke-linecap="round"/>
<path d="M1739.41 584.66C1741.07 590.994 1741.41 612.16 1739.41 622.16C1737.41 632.16 1731.74 644.327 1727.91 652.16" stroke="#198A8C" stroke-width="8" stroke-linecap="round"/>
<path d="M1637.41 578.16C1643.57 589.16 1656.91 605.458 1668.41 614.16C1686.91 628.16 1699.24 626.827 1711.41 631.16" stroke="#198A8C" stroke-width="8" stroke-linecap="round"/>
<path d="M1679.91 655.16C1686.57 661.494 1694.91 670.16 1708.91 685.66C1722.91 701.16 1727.91 714.16 1730.41 723.16" stroke="#198A8C" stroke-width="8" stroke-linecap="round"/>
<path d="M1771.41 636.66C1771.74 653.994 1767.08 681.185 1761.41 694.66C1757.41 704.16 1742.07 718.994 1734.41 726.16" stroke="#198A8C" stroke-width="8" stroke-linecap="round"/>
<path d="M1682.41 702.66C1683.41 715.16 1695.61 734.16 1701.91 742.66C1711.91 756.16 1714.74 761.827 1720.91 768.66" stroke="#198A8C" stroke-width="8" stroke-linecap="round"/>
<path d="M1674.41 773.66C1675.41 786.16 1692.61 801.66 1698.91 810.16C1708.91 823.66 1721.74 833.327 1727.91 840.16" stroke="#198A8C" stroke-width="8" stroke-linecap="round"/>
<path d="M1666.91 852.66C1667.91 865.16 1692.91 880.938 1710.41 890.66C1723.91 898.16 1741.74 902.827 1747.91 909.66" stroke="#198A8C" stroke-width="8" stroke-linecap="round"/>
<path d="M1719.41 951.66C1726.41 968.66 1746.09 978.319 1764.91 985.16C1781.41 991.16 1796.24 997.327 1802.41 1004.16" stroke="#198A8C" stroke-width="8" stroke-linecap="round"/>
<path d="M1717.41 1004.16C1724.41 1021.16 1744.09 1030.82 1762.91 1037.66C1779.41 1043.66 1799.74 1066.83 1805.91 1073.66" stroke="#198A8C" stroke-width="8" stroke-linecap="round"/>
<path d="M1705.91 1041.16C1712.91 1058.16 1725.09 1090.82 1743.91 1097.66C1760.41 1103.66 1777.24 1148.33 1783.41 1155.16" stroke="#198A8C" stroke-width="8" stroke-linecap="round"/>
<path d="M1699.41 1196.16C1706.41 1213.16 1710.74 1221.88 1718.91 1240.16C1729.41 1263.66 1714.91 1285.16 1711.41 1296.16" stroke="#198A8C" stroke-width="8" stroke-linecap="round"/>
<path d="M1661.91 1252.16C1653.91 1277.16 1649.24 1280.88 1657.41 1299.16C1667.91 1322.66 1661.91 1341.66 1671.41 1354.66" stroke="#198A8C" stroke-width="8" stroke-linecap="round"/>
<path d="M1626.41 1334.66C1626.41 1360.16 1631.91 1363.43 1631.91 1378.16C1631.91 1395.16 1642.91 1397.66 1637.91 1415.16" stroke="#198A8C" stroke-width="8" stroke-linecap="round"/>
<path d="M1598.91 1411.66C1587.91 1434.66 1581.91 1452.93 1581.91 1467.66C1581.91 1484.66 1587.41 1481.16 1587.41 1502.16" stroke="#198A8C" stroke-width="8" stroke-linecap="round"/>
<path d="M1706.41 1130.16C1713.41 1147.16 1725.59 1179.82 1744.41 1186.66C1760.91 1192.66 1765.91 1232.66 1761.91 1244.66" stroke="#198A8C" stroke-width="8" stroke-linecap="round"/>
<path d="M1799.41 777.66C1804.41 796.16 1789.41 826.16 1779.91 840.66C1768.64 857.853 1744.57 868.827 1738.41 875.66" stroke="#198A8C" stroke-width="8" stroke-linecap="round"/>
<path d="M1808.91 870.66C1804.41 892.16 1800.72 892.827 1794.91 909.16C1786.91 931.66 1778.58 944.327 1772.41 951.16" stroke="#198A8C" stroke-width="8" stroke-linecap="round"/>
<path d="M1849.91 937.16C1849.91 961.16 1850.91 974.16 1844.91 990.16C1837.87 1008.93 1819.57 1019.83 1813.41 1026.66" stroke="#198A8C" stroke-width="8" stroke-linecap="round"/>
<path d="M1891.91 1031.16C1891.91 1055.16 1874.91 1061.16 1848.91 1080.66C1832.88 1092.68 1801.57 1103.83 1795.41 1110.66" stroke="#198A8C" stroke-width="8" stroke-linecap="round"/>
<path d="M1884.91 1110.16C1864.91 1130.66 1854.41 1134.16 1828.41 1153.66C1812.38 1165.68 1783.57 1179.83 1777.41 1186.66" stroke="#198A8C" stroke-width="8" stroke-linecap="round"/>
<path d="M1855.91 1188.16C1839.91 1212.16 1830.91 1224.66 1804.91 1244.16C1788.88 1256.18 1750.07 1264.83 1743.91 1271.66" stroke="#198A8C" stroke-width="8" stroke-linecap="round"/>
<path d="M1819.91 1274.66C1803.91 1298.66 1783.91 1309.66 1749.91 1318.16C1724.91 1324.41 1685.57 1315.33 1679.41 1322.16" stroke="#198A8C" stroke-width="8" stroke-linecap="round"/>
<path d="M1743.41 1353.16C1722.91 1353.16 1711.91 1364.66 1703.41 1371.66C1694.73 1378.8 1677.07 1386.33 1670.91 1393.16" stroke="#198A8C" stroke-width="8" stroke-linecap="round"/>
<path d="M1698.41 1421.16C1677.91 1421.16 1667.41 1441.16 1649.91 1441.16C1638.67 1441.16 1605.07 1455.83 1598.91 1462.66" stroke="#198A8C" stroke-width="8" stroke-linecap="round"/>
<path d="M1698.41 1421.16C1677.91 1421.16 1667.41 1441.16 1649.91 1441.16C1638.67 1441.16 1605.07 1455.83 1598.91 1462.66" stroke="#198A8C" stroke-width="8" stroke-linecap="round"/>
<path d="M1639.91 1472.16C1625.41 1484.66 1625.91 1490.16 1611.41 1501.16C1602.46 1507.95 1587.57 1526.83 1581.41 1533.66" stroke="#198A8C" stroke-width="8" stroke-linecap="round"/>
<path d="M1776.41 724.66C1775.41 737.16 1765.2 763.16 1758.91 771.66C1748.91 785.16 1730.57 793.327 1724.41 800.16" stroke="#198A8C" stroke-width="8" stroke-linecap="round"/>
<path d="M1640.41 562.16C1648.41 544.56 1639.77 461.096 1646.41 450.66C1653.41 439.66 1732.81 569.36 1758.41 598.16C1790.41 634.16 1782.41 686.16 1782.41 728.16C1782.41 770.16 1808.41 770.16 1816.41 790.16C1824.41 810.16 1808.41 852.16 1816.41 886.16C1824.41 920.16 1900.41 946.16 1900.41 1042.16C1900.41 1111.59 1832.41 1276.16 1808.41 1308.16C1784.41 1340.16 1762.41 1346.16 1736.41 1362.16C1710.41 1378.16 1714.41 1434.16 1678.41 1448.16C1642.41 1462.16 1640.41 1488.16 1622.41 1516.16C1608.01 1538.56 1577.74 1574.83 1564.41 1590.16C1559.08 1576.16 1551.61 1534.16 1564.41 1478.16C1580.41 1408.16 1606.41 1414.16 1622.41 1326.16C1638.41 1238.16 1640.41 1278.16 1678.41 1222.16C1716.41 1166.16 1702.41 1164.16 1696.41 1096.16C1690.41 1028.16 1704.41 1046.16 1714.41 988.16C1724.41 930.16 1664.41 908.16 1662.41 864.16C1660.41 820.16 1672.41 726.16 1678.41 686.16C1684.41 646.16 1656.41 640.16 1640.41 620.16C1624.41 600.16 1630.41 584.16 1640.41 562.16Z" fill="url(#paint7_linear_64_41)"/>
</g>
</svg>
