<svg width="2000" height="2000" viewBox="0 0 2000 2000" fill="none" xmlns="http://www.w3.org/2000/svg">
<path d="M1000 1766C894.4 1785.2 721.333 1654 648 1586C765.333 1572.67 1032 1538 1160 1506C1288 1474 1484 876.667 1572 670C1616 687.333 1715.2 752.4 1760 778C1816 810 1788 1070 1716 1154C1644 1238 1716.53 1329.27 1668 1470C1628 1586 1520 1686 1428 1658C1336 1630 1132 1742 1000 1766Z" fill="#C8C149"/>
<circle cx="580.5" cy="163.5" r="59.5" fill="#C8C149"/>
<circle cx="300.5" cy="493.5" r="49.5" fill="#C8C149"/>
<circle cx="278.5" cy="655.5" r="38.5" fill="#C8C149"/>
<circle cx="280" cy="720" r="13" fill="#C8C149"/>
<circle cx="317" cy="391" r="26" fill="#C8C149"/>
<circle cx="321" cy="335" r="16" fill="#C8C149"/>
<circle cx="491" cy="215" r="30" fill="#C8C149"/>
<circle cx="435.5" cy="173.5" r="19.5" fill="#C8C149"/>
<path d="M301.501 738C312.322 713.652 348.667 698.167 365.5 696L420.5 706.5L379 747C373.834 746.333 360.9 745.4 350.5 747C340.1 748.6 333.167 760.667 331 766.5C329 757.7 334.834 744.363 338.5 738.529C339.776 736.5 347.5 732.529 336 738.529C314.787 749.597 305.236 759.059 297 764C287 770 289.501 765 301.501 738Z" fill="#2A7639"/>
<path d="M393.001 714.5C379.001 704 347.3 684.8 332.5 692C314 701 305 723.5 304 714.5C303 705.5 304.716 675.457 342.5 668C354.295 665.672 360.887 665.247 364.266 665.401C363.037 664.583 361.74 663.088 361 660.5C356 643 357.7 652 364.5 630C371.3 608 407.833 633.833 428 643L416 692L393.001 714.5Z" fill="#6B8C33"/>
<path d="M370.5 517C374.1 532.2 385 545.667 390 550.5L409.999 615.5C403.333 617.333 381.999 618.3 356.5 628.5C341.5 634.5 338.333 657.333 346 668C349.234 672.5 345.1 660.2 359.5 651C373.9 641.8 411.833 651.167 429 657L462 623.5L436.5 536C416.166 518.167 373.5 481.7 365.5 478.5C355.5 474.5 366 498 370.5 517Z" fill="#2A7639"/>
<path d="M507.5 541.5C513.1 530.3 541.833 508.5 561.5 501L627 450.5L645.5 364.5C648.167 352 651.5 333.5 657.5 317C663.661 300.058 693 285 693 285C679 285 669 287.5 649 301.5C630.093 314.735 610.334 345.333 604 361C599 357.667 589 351.4 579 347C566.5 341.5 561.5 302 557 294.5C552.5 287 542.5 316.5 542.5 336.5C542.5 354.469 548.334 387.333 554.5 402C549.334 406.833 534.198 407.626 507.5 405C477 402 446.5 417.5 428.5 425C414.1 431 488.834 450.333 535 458.5C520.167 477.667 492 484 479.5 529.5C475.262 544.928 478.5 567.333 483.5 579.5C485.167 570.167 501.9 552.7 507.5 541.5Z" fill="#2A7639"/>
<path d="M461.5 479C471.5 471.5 451.456 517.508 454 531.5C458 553.5 462.488 571.464 470.027 591L422 648.5C370.5 608 305 633.2 291 634C273.5 635 297.5 609.5 311.5 600.5C323.078 593.057 359.5 580.5 378.5 577.5C369 565 305.5 564.5 297.5 562C289.5 559.5 321.5 549 357 541C385.4 534.6 412.166 546.666 422 553.5C424.333 554.333 425.247 550.637 429.5 531.5C435.5 504.5 451.5 486.5 461.5 479Z" fill="#6B8C33"/>
<path d="M304.5 506.5C341 510.5 416.8 550 418 552L392 544.5L304.5 506.5Z" fill="#6B8C33"/>
<path d="M307 651.5C320.194 651.5 353.667 663.5 369 671.5L356.5 674.5C352.667 672.5 342.5 668.5 324 660C305.372 651.441 289.667 659.833 280 664.5C283.667 661.5 297 651.5 307 651.5Z" fill="#668F39"/>
<path d="M526 266C528.4 217.6 570.334 171.167 591 154C577.834 172.667 552.374 201.022 545.5 225.5C527.809 288.5 542.833 358.667 551.5 404L528.5 392.5C526.667 370.5 523.6 314.4 526 266Z" fill="#6B8C33"/>
<path d="M500 372C540 374.4 565.334 387 573 393C576.334 370.667 571.951 335.757 586 310C610 266 653 238 681 230C701 219 645 281 623 333C601 385 611.603 382.183 625 367C655 333 658.667 333.333 681 320C700 308.657 663.009 378.583 655 393C635 429 637.333 427.667 635 437L562 496C554.333 493.667 531.2 491.8 500 503C461.001 517 459 537 463 517C466.2 501 477.667 484.333 483 478C447 474 422 493 398 496C374 499 423 469 447 453C466.2 440.2 509.667 437 529 437C533.667 436.333 538.2 431.6 519 418C495 401 399 393 389 393C379 393 450 369 500 372Z" fill="#6B8C33"/>
<path d="M1855.56 1471.36C1851.45 1508.69 1798.46 1539.71 1792 1539C1769.77 1536.55 1780.88 1500.92 1784.98 1463.59C1789.09 1426.26 1800.5 1396.89 1822.73 1399.33C1844.97 1401.78 1859.66 1434.02 1855.56 1471.36Z" fill="#687246"/>
<path d="M1663.62 1495.13C1647.26 1518.4 1656.55 1553.11 1665.49 1559.4C1682.88 1571.63 1702.46 1557.21 1718.82 1533.94C1735.18 1510.67 1742.12 1487.37 1724.73 1475.14C1707.34 1462.91 1679.98 1471.86 1663.62 1495.13Z" fill="#687246"/>
<path d="M1663.62 1495.13C1647.26 1518.4 1656.55 1553.11 1665.49 1559.4C1682.88 1571.63 1702.46 1557.21 1718.82 1533.94C1735.18 1510.67 1742.12 1487.37 1724.73 1475.14C1707.34 1462.91 1679.98 1471.86 1663.62 1495.13Z" fill="#687246"/>
<path d="M1510.62 1487.13C1494.26 1510.4 1503.55 1545.11 1512.49 1551.4C1529.88 1563.63 1549.46 1549.21 1565.82 1525.94C1582.18 1502.67 1589.12 1479.37 1571.73 1467.14C1554.34 1454.91 1526.98 1463.86 1510.62 1487.13Z" fill="#687246"/>
<path d="M1548.38 1577.59C1523.27 1564.23 1489.96 1577.72 1484.83 1587.37C1474.84 1606.14 1491.56 1623.8 1516.67 1637.16C1541.78 1650.52 1576.01 1648.77 1586 1630C1595.99 1611.23 1573.48 1590.95 1548.38 1577.59Z" fill="#687246"/>
<path d="M1454.56 1624.11C1429.87 1618.68 1405.9 1632.25 1404.34 1639.38C1401.29 1653.24 1420.2 1662.68 1444.89 1668.1C1469.58 1673.53 1497.62 1667.64 1500.67 1653.78C1503.71 1639.92 1479.25 1629.54 1454.56 1624.11Z" fill="#687246"/>
<path d="M1410.42 1665.85C1381.72 1659.54 1353.86 1675.31 1352.04 1683.6C1348.5 1699.71 1370.48 1710.68 1399.18 1716.99C1427.88 1723.3 1460.48 1716.45 1464.02 1700.34C1467.57 1684.23 1439.12 1672.16 1410.42 1665.85Z" fill="#687246"/>
<path d="M1341.01 1613.6C1344.45 1587.31 1368.45 1568.78 1376.86 1569.88C1393.22 1572.02 1396.37 1594.12 1392.92 1620.41C1389.48 1646.7 1372.35 1672.09 1355.99 1669.94C1339.64 1667.8 1337.56 1639.89 1341.01 1613.6Z" fill="#687246"/>
<path d="M1269.01 1672.6C1272.45 1646.31 1296.45 1627.78 1304.86 1628.88C1321.22 1631.02 1324.37 1653.12 1320.92 1679.41C1317.48 1705.7 1300.35 1731.09 1283.99 1728.94C1267.64 1726.8 1265.56 1698.89 1269.01 1672.6Z" fill="#687246"/>
<path d="M1188.29 1699.11C1198.76 1674.75 1226.9 1663.45 1234.69 1666.8C1249.85 1673.31 1246.87 1695.43 1236.4 1719.79C1225.93 1744.14 1202.53 1763.92 1187.38 1757.4C1172.22 1750.89 1177.82 1723.47 1188.29 1699.11Z" fill="#687246"/>
<path d="M1250.77 1768.01C1229.09 1752.74 1199.2 1757.85 1194.32 1764.78C1184.82 1778.27 1198.94 1795.55 1220.61 1810.82C1242.29 1826.09 1272.57 1830.69 1282.07 1817.2C1291.57 1803.71 1272.45 1783.28 1250.77 1768.01Z" fill="#687246"/>
<path d="M990.939 1755.61C972.009 1737.05 941.688 1737.27 935.749 1743.32C924.199 1755.1 935.346 1774.43 954.276 1793C973.206 1811.56 1002.35 1820.98 1013.9 1809.2C1025.45 1797.43 1009.87 1774.18 990.939 1755.61Z" fill="#687246"/>
<path d="M860.193 1748.1C848.797 1727.06 822.584 1719.19 815.853 1722.84C802.76 1729.93 807.239 1749.57 818.636 1770.61C830.032 1791.65 852.671 1807.52 865.763 1800.43C878.855 1793.34 871.59 1769.15 860.193 1748.1Z" fill="#687246"/>
<path d="M774.818 1707.87C775.093 1683.94 756.014 1664.32 748.36 1664.23C733.472 1664.06 727.836 1683.4 727.56 1707.33C727.285 1731.26 739.35 1756.13 754.238 1756.3C769.126 1756.47 774.542 1731.8 774.818 1707.87Z" fill="#687246"/>
<path d="M821.234 1655.52C843.971 1648.05 868.425 1660.34 870.814 1667.61C875.459 1681.76 858.716 1692.95 835.979 1700.42C813.242 1707.89 785.891 1703.87 781.246 1689.72C776.601 1675.58 798.498 1662.98 821.234 1655.52Z" fill="#687246"/>
<path d="M1110.08 1676.65C1131.75 1661.38 1161.64 1666.48 1166.53 1673.42C1176.03 1686.9 1161.91 1704.19 1140.23 1719.46C1118.56 1734.73 1088.28 1739.32 1078.78 1725.84C1069.27 1712.35 1088.4 1691.92 1110.08 1676.65Z" fill="#687246"/>
<path d="M990.077 1675.65C1011.75 1660.38 1044.39 1669.38 1050.36 1677.86C1061.98 1694.35 1048.63 1712.73 1026.96 1728C1005.28 1743.27 973.242 1745.37 961.624 1728.88C950.005 1712.39 968.402 1690.92 990.077 1675.65Z" fill="#687246"/>
<path d="M895.913 1679.95C914.068 1667.16 941.401 1674.7 946.405 1681.8C956.136 1695.61 944.956 1711 926.802 1723.79C908.647 1736.58 881.813 1738.34 872.082 1724.53C862.35 1710.71 877.758 1692.74 895.913 1679.95Z" fill="#687246"/>
<path d="M1123.4 1749.65C1101.73 1734.38 1076.88 1734.57 1072 1741.5C1062.5 1754.99 1062.32 1783.57 1084 1798.84C1105.68 1814.11 1131.5 1812.32 1141 1798.84C1150.5 1785.35 1145.08 1764.92 1123.4 1749.65Z" fill="#687246"/>
<path d="M1343.21 1710.42C1314.51 1704.11 1286.65 1719.89 1284.83 1728.17C1281.29 1744.28 1303.27 1755.26 1331.97 1761.56C1360.67 1767.87 1393.27 1761.03 1396.81 1744.92C1400.35 1728.8 1371.91 1716.73 1343.21 1710.42Z" fill="#687246"/>
<path d="M1401.46 1563.62C1407.09 1538.98 1436.06 1524.58 1445.74 1526.79C1464.56 1531.09 1466.84 1552.64 1461.21 1577.28C1455.57 1601.92 1434.14 1623.82 1415.31 1619.52C1396.49 1615.22 1395.82 1588.26 1401.46 1563.62Z" fill="#687246"/>
<path d="M1760.05 1609.94C1789.6 1626.71 1822.93 1617.56 1820.71 1593.51C1818.85 1573.36 1809.57 1564.25 1795.63 1556.33C1781.68 1548.41 1727.38 1543.92 1717.39 1561.52C1707.4 1579.11 1730.5 1593.16 1760.05 1609.94Z" fill="#687246"/>
<path d="M1619.68 1616.34C1640.11 1643.49 1674.34 1648.35 1681.87 1625.41C1688.18 1606.19 1683.3 1594.13 1673.65 1581.32C1664.01 1568.5 1615.98 1542.77 1599.81 1554.94C1583.64 1567.11 1599.25 1589.19 1619.68 1616.34Z" fill="#687246"/>
<path d="M692 1576C711.333 1624.67 784.8 1724.98 868 1732.98C972 1742.98 976.391 1732.98 1058 1732.98C1112 1732.98 1190 1784 1242 1758C1294 1732 1442.72 1576.48 1559 1552C1673 1528 1682 1604 1797 1529" stroke="url(#paint0_linear_54_5)" stroke-width="16" stroke-linecap="round"/>
<path d="M1591.36 750.635L1591.27 750.424L1591.19 750.213C1452.99 425.745 1076.68 273.784 750.542 409.84C423.917 546.101 271.837 924.59 410.01 1249C548.065 1573.12 924.235 1727.5 1248.89 1589.32C1403.05 1525.2 1525.21 1403.05 1589.35 1248.9C1657.44 1090.51 1657.29 910.451 1591.36 750.635Z" fill="#23262F" stroke="#3DA774" stroke-width="80"/>
<path d="M1460.02 728.968C1450.31 673.252 1420.66 622.974 1376.61 587.52C1335.56 554.156 1284.27 535.961 1231.37 536C1075.64 536 919.832 536 763.961 536C682.779 536.934 605.655 583.988 566.281 654.712C544.119 692.794 536 735.464 536 778.986C536 920.893 536 1062.83 536 1204.79C535.716 1237.8 537.177 1269.5 547.488 1301.17C559.419 1337.8 580.155 1370.95 607.875 1397.7C635.596 1424.45 669.456 1443.98 706.484 1454.6C684.118 1436.77 674.214 1411.97 666.948 1385.13C651.889 1326.26 650.712 1265.12 653.147 1204.79C652.903 1062.69 653.147 920.88 653.147 778.986C653.35 754.626 655.177 731.607 667.679 709.967C677.276 692.768 691.282 678.437 708.254 668.447C725.226 658.457 744.553 653.17 764.246 653.129C912.296 653.129 1060.39 653.129 1208.52 653.129C1230.88 653.129 1251.22 651.505 1272.57 659.584C1290.25 665.78 1306.06 676.373 1318.51 690.364C1330.97 704.356 1339.66 721.287 1343.77 739.564C1348.15 761.041 1346.98 784.873 1347.06 806.756V1223.3C1347.06 1243.6 1344.78 1263.9 1335.98 1282.46C1317.83 1320.42 1278.58 1346.76 1236.08 1345.99C1118.89 1345.99 1001.58 1345.99 884.437 1345.99C884.193 1307.79 884.437 1269.59 884.437 1231.34C980.124 1231.34 1075.77 1231.34 1171.38 1231.34C1191.96 1232.48 1215.66 1222.04 1225.12 1202.92C1229.82 1193.37 1232.06 1182.79 1231.61 1172.15C1231.61 1056.36 1231.61 940.611 1231.61 824.903C1232.26 814.607 1229.92 804.343 1224.88 795.342C1219.84 786.341 1212.32 778.984 1203.2 774.155C1187.37 764.979 1170.44 767.334 1152.79 767.009C1043.19 767.293 933.593 767.009 824.24 767.212C816.68 767.176 809.191 768.663 802.218 771.584C795.245 774.506 788.932 778.801 783.655 784.216C778.379 789.63 774.246 796.052 771.504 803.098C768.762 810.144 767.467 817.671 767.696 825.228C767.249 991.685 767.696 1158.75 767.696 1325.17C768.548 1358.21 767.493 1389.52 786.652 1418.14C801.184 1441.77 825.742 1453.78 852.167 1459.02C883.422 1464.06 913.297 1462.84 944.674 1463.08C1040.36 1463.08 1135.99 1463.08 1231.57 1463.08C1279.09 1463 1325.44 1448.33 1364.35 1421.06C1406.24 1390.17 1438.71 1347.62 1453.65 1297.44C1463.96 1263.5 1463.8 1230.53 1463.96 1195.49C1463.96 1062.87 1463.96 930.245 1463.96 797.621C1464.34 774.671 1463.02 751.724 1460.02 728.968ZM1113.86 1114.66H884.396V884.219H1113.86V1114.66Z" fill="#45D492"/>
<g style="mix-blend-mode:multiply" opacity="0.5">
<path d="M1398 1546C1420.2 1530.64 960.862 1596 739.931 1260C547.931 968 623.931 544 671.931 400C626 426 317.999 604 317.999 996C298 1462 871.999 1910 1398 1546Z" fill="#AB82A0"/>
</g>
<path d="M718 1595C812.333 1611.33 1015.2 1637.6 1072 1612C1143 1580 1265 1479 1347 1485C1412.6 1489.8 1443.67 1487 1451 1485" stroke="url(#paint1_linear_54_5)" stroke-width="12" stroke-linecap="round"/>
<path d="M1296.29 1468.5C1287.06 1493.94 1267.59 1510.21 1252.79 1504.84C1242.71 1504.84 1233.48 1474.5 1242.71 1449.06C1251.93 1423.62 1271.41 1407.35 1286.21 1412.72C1301 1418.08 1305.52 1443.06 1296.29 1468.5Z" fill="#755B3F"/>
<path d="M1394.28 1464.8C1375.6 1484.38 1351.23 1491.45 1339.84 1480.59C1330.61 1476.53 1334.36 1445.04 1353.04 1425.46C1371.71 1405.88 1396.09 1398.81 1407.48 1409.67C1418.87 1420.53 1412.96 1445.22 1394.28 1464.8Z" fill="#576E4E"/>
<path d="M1343.08 1491.86C1318.91 1483.7 1290.53 1482.6 1285 1499C1278.6 1507.84 1298.87 1543.08 1323.05 1551.24C1347.22 1559.39 1371.29 1552.71 1376.83 1536.31C1382.36 1519.91 1367.25 1500.01 1343.08 1491.86Z" fill="#576E4E"/>
<path d="M1437.24 1491.94C1413.06 1483.78 1384.69 1482.68 1379.16 1499.08C1372.76 1507.92 1393.03 1543.16 1417.2 1551.31C1441.38 1559.47 1465.45 1552.79 1470.99 1536.39C1476.52 1519.99 1461.41 1500.09 1437.24 1491.94Z" fill="#576E4E"/>
<path d="M1261.24 1531.94C1237.06 1523.78 1208.69 1522.68 1203.16 1539.08C1196.76 1547.92 1217.03 1583.16 1241.2 1591.31C1265.38 1599.47 1289.45 1592.79 1294.99 1576.39C1300.52 1559.99 1285.41 1540.09 1261.24 1531.94Z" fill="#576E4E"/>
<path d="M1180.24 1579.94C1156.06 1571.78 1127.69 1570.68 1122.16 1587.08C1115.76 1595.92 1136.03 1631.16 1160.2 1639.31C1184.38 1647.47 1208.45 1640.79 1213.99 1624.39C1219.52 1607.99 1204.41 1588.09 1180.24 1579.94Z" fill="#576E4E"/>
<path d="M1107.11 1618.27C1086.75 1611.4 1062.98 1610.07 1058.61 1623.01C1053.39 1629.93 1070.94 1658.27 1091.3 1665.14C1111.67 1672.01 1131.72 1667.09 1136.08 1654.14C1140.45 1641.2 1127.48 1625.14 1107.11 1618.27Z" fill="#576E4E"/>
<path d="M991.113 1622.27C970.747 1615.4 946.977 1614.07 942.611 1627.01C937.393 1633.93 954.936 1662.27 975.302 1669.14C995.667 1676.01 1015.72 1671.09 1020.08 1658.14C1024.45 1645.2 1011.48 1629.14 991.113 1622.27Z" fill="#576E4E"/>
<path d="M899.983 1622.57C881.164 1612.18 858.009 1606.64 851.411 1618.6C845.046 1624.49 857.27 1655.49 876.089 1665.88C894.908 1676.26 915.513 1674.98 922.111 1663.02C928.709 1651.06 918.802 1632.95 899.983 1622.57Z" fill="#576E4E"/>
<path d="M803.983 1615.57C785.164 1605.18 762.009 1599.64 755.411 1611.6C749.046 1617.49 761.27 1648.49 780.089 1658.88C798.908 1669.26 819.513 1667.98 826.111 1656.02C832.709 1644.06 822.802 1625.95 803.983 1615.57Z" fill="#576E4E"/>
<path d="M1485.71 1486.33C1459.88 1502.3 1431.41 1503.07 1422.12 1488.05C1413.24 1481.03 1426.24 1447.9 1452.07 1431.93C1477.89 1415.95 1506.36 1415.18 1515.66 1430.2C1524.95 1445.22 1511.54 1470.35 1485.71 1486.33Z" fill="#576E4E"/>
<path d="M1185.67 1523.57C1181.12 1550.24 1164.85 1569.72 1149.34 1567.08C1139.41 1568.87 1124.93 1540.66 1129.48 1513.98C1134.04 1487.3 1150.3 1467.82 1165.82 1470.47C1181.34 1473.12 1190.22 1496.89 1185.67 1523.57Z" fill="#755B3F"/>
<path d="M1099.22 1565.39C1094.2 1594.8 1076.26 1616.28 1059.15 1613.37C1048.21 1615.34 1032.24 1584.23 1037.26 1554.82C1042.28 1525.4 1060.22 1503.92 1077.33 1506.84C1094.44 1509.76 1104.24 1535.97 1099.22 1565.39Z" fill="#755B3F"/>
<path d="M986.013 1592.75C971.998 1613.87 950.681 1624.38 938.399 1616.22C929.222 1614 927.523 1584.35 941.538 1563.23C955.553 1542.12 976.87 1531.61 989.151 1539.76C1001.43 1547.91 1000.03 1571.64 986.013 1592.75Z" fill="#755B3F"/>
<path d="M908.385 1580.79C891.422 1606.35 867.716 1620.46 855.434 1612.31C845.882 1610.65 846.948 1576.83 863.91 1551.27C880.873 1525.72 904.58 1511.61 916.861 1519.76C929.143 1527.91 925.348 1555.24 908.385 1580.79Z" fill="#755B3F"/>
<path d="M812.655 1575.41C797.739 1597.89 775.692 1609.5 763.41 1601.34C754.118 1599.29 753.265 1568.37 768.18 1545.89C783.096 1523.42 805.143 1511.81 817.425 1519.96C829.706 1528.12 827.571 1552.94 812.655 1575.41Z" fill="#755B3F"/>
<path d="M254 727C253 676 175.231 507.831 170 531C163 562 164.4 625.6 170 644C177 667 177 714 135 804C92.9997 894 166 884 191 934C216 984 189 956 171 1046C153 1136 201 1156 242 1191C283 1226 277 1282 283 1314C289 1346 336 1372 358 1386C380 1400 385 1427 397 1454C409 1481 500 1488 513 1523C523.4 1551 660 1586 727 1600C699 1578.33 638.2 1530.2 619 1511C595 1487 590 1438 578 1418C566 1398 498 1390 480 1381C462 1372 431 1316 420 1297C409 1278 388 1276 366 1265C344 1254 348 1170 345 1125C342 1080 298 1071 278 1052C258 1033 303 908 307 884C311 860 279 841 263 830C247 819 255 778 254 727Z" fill="#A9BE45"/>
<path d="M174 543C190.667 596.333 223 709 214 744C205.301 777.828 186 852 196 868C206 884 241 900 244 925C247 950 211.536 1055.43 223 1086C235 1118 316 1188 316 1232C316 1276 365 1323 384 1347C403 1371 428 1420 448 1428C468 1436 503 1441 523 1465C539 1484.2 599.667 1533 628 1555" stroke="#FFCD69" stroke-width="5" stroke-linecap="round"/>
<path d="M171.5 620C171.5 620 179.432 640.437 186.5 652C194.652 665.338 209.5 684 209.5 684" stroke="#FFCD69" stroke-width="5" stroke-linecap="round"/>
<path d="M175 704.5C175 704.5 182.757 728.798 187.5 742.5C192 755.5 203.5 775 203.5 775" stroke="#FFCD69" stroke-width="5" stroke-linecap="round"/>
<path d="M152.5 774C152.5 774 161.415 812.244 166 826C172 844 192 857 192 857" stroke="#FFCD69" stroke-width="5" stroke-linecap="round"/>
<path d="M133.5 872C133.5 872 179.747 883.247 190 893.5C205.5 909 243 932 243 932" stroke="#FFCD69" stroke-width="5" stroke-linecap="round"/>
<path d="M191.5 930C191.5 930 210.935 949.957 223 958C230.5 963 235 982 235 982" stroke="#FFCD69" stroke-width="5" stroke-linecap="round"/>
<path d="M251 732.5C251 732.5 245.414 770.871 233.5 789C222 806.5 196 824.5 196 824.5" stroke="#FFCD69" stroke-width="5" stroke-linecap="round"/>
<path d="M249 810C249 810 231.415 837.567 225.5 858C220 877 232 901 232 901" stroke="#FFCD69" stroke-width="5" stroke-linecap="round"/>
<path d="M290 855C290 855 291.755 895.895 283.5 915.5C271.5 944 240.5 960 240.5 960" stroke="#FFCD69" stroke-width="5" stroke-linecap="round"/>
<path d="M282 962.5C282 962.5 275.495 986.931 261 1002.5C247.5 1017 226 1025 226 1025" stroke="#FFCD69" stroke-width="5" stroke-linecap="round"/>
<path d="M269.5 1024C269.5 1024 260.995 1042.43 246.5 1058C233 1072.5 227 1091.5 227 1091.5" stroke="#FFCD69" stroke-width="5" stroke-linecap="round"/>
<path d="M281.5 1061C281.5 1061 287.574 1089.12 283.5 1110C279.501 1130.5 265.5 1143.5 265.5 1143.5" stroke="#FFCD69" stroke-width="5" stroke-linecap="round"/>
<path d="M307.501 1078C307.501 1078 315.074 1122.62 311.001 1143.5C307.001 1164 301 1189.5 301 1189.5" stroke="#FFCD69" stroke-width="5" stroke-linecap="round"/>
<path d="M342.5 1137.5C342.5 1137.5 338.574 1181.12 334.5 1202C330.5 1222.5 319 1245.5 319 1245.5" stroke="#FFCD69" stroke-width="5" stroke-linecap="round"/>
<path d="M346.5 1227.5C346.5 1227.5 350.574 1252.12 346.5 1273C342.5 1293.5 350 1306 350 1306" stroke="#FFCD69" stroke-width="5" stroke-linecap="round"/>
<path d="M384 1278C384 1278 393.674 1299.5 398 1323C401.781 1343.54 393.675 1358.5 393.675 1358.5" stroke="#FFCD69" stroke-width="5" stroke-linecap="round"/>
<path d="M419.675 1305.5C419.675 1305.5 419.674 1335.5 424 1359C427.781 1379.54 419.675 1394.5 419.675 1394.5" stroke="#FFCD69" stroke-width="5" stroke-linecap="round"/>
<path d="M448.5 1351C448.5 1351 462.675 1373.5 467 1397C470.781 1417.54 467 1431.5 467 1431.5" stroke="#FFCD69" stroke-width="5" stroke-linecap="round"/>
<path d="M491 1389C491 1389 499.674 1401.5 504 1425C507.781 1445.54 514.5 1456 514.5 1456" stroke="#FFCD69" stroke-width="5" stroke-linecap="round"/>
<path d="M539 1403C539 1403 553.173 1424.5 557.499 1448C561.28 1468.54 557.5 1494 557.5 1494" stroke="#FFCD69" stroke-width="5" stroke-linecap="round"/>
<path d="M584 1447C584 1447 584.174 1465 588.5 1488.5C592.281 1509.04 592.5 1527 592.5 1527" stroke="#FFCD69" stroke-width="5" stroke-linecap="round"/>
<path d="M603 1536C603 1536 581.279 1539.12 566.5 1536C553.582 1533.27 524.5 1532 524.5 1532" stroke="#FFCD69" stroke-width="5" stroke-linecap="round"/>
<path d="M481.402 1480C481.402 1480 501.062 1496.63 523.88 1503.72C543.826 1509.92 569.553 1509.2 569.553 1509.2" stroke="#FFCD69" stroke-width="5" stroke-linecap="round"/>
<path d="M526.499 1469C526.499 1469 509.309 1464.9 485.414 1465.03C464.528 1465.15 453 1460.5 453 1460.5" stroke="#FFCD69" stroke-width="5" stroke-linecap="round"/>
<path d="M381 1406.5C381 1406.5 399.369 1430.48 423.195 1428.68C444.022 1427.1 461.5 1433 461.5 1433" stroke="#FFCD69" stroke-width="5" stroke-linecap="round"/>
<path d="M175.499 1042C175.499 1042 180.499 1064.5 192.999 1084.5C203.5 1101.3 232.999 1105.5 232.999 1105.5" stroke="#FFCD69" stroke-width="5" stroke-linecap="round"/>
<path d="M179.5 1123C179.5 1123 207.701 1126.76 226.5 1141C243 1153.5 273.5 1155 273.5 1155" stroke="#FFCD69" stroke-width="5" stroke-linecap="round"/>
<path d="M212.5 1163C212.5 1163 234.201 1166.35 253 1180.59C269.5 1193.09 300 1194.59 300 1194.59" stroke="#FFCD69" stroke-width="5" stroke-linecap="round"/>
<path d="M264.5 1213C264.5 1213 276.701 1221.76 295.5 1236C312 1248.5 322.5 1262.5 322.5 1262.5" stroke="#FFCD69" stroke-width="5" stroke-linecap="round"/>
<path d="M282 1266.88C282 1266.88 296 1271 312 1280.5C329.799 1291.07 354 1312.38 354 1312.38" stroke="#FFCD69" stroke-width="5" stroke-linecap="round"/>
<path d="M290 1313.5C290 1313.5 320.5 1327 336.5 1336.5C354.299 1347.07 381 1343 381 1343" stroke="#FFCD69" stroke-width="5" stroke-linecap="round"/>
<path d="M324.5 1359.5C324.5 1359.5 350.5 1375 370 1377.5C390.532 1380.13 412.5 1389.42 412.5 1389.42" stroke="#FFCD69" stroke-width="5" stroke-linecap="round"/>
<path d="M195 983.5C195 983.5 190.504 1000.93 204.999 1016.5C218.499 1031 221.499 1049.5 221.499 1049.5" stroke="#FFCD69" stroke-width="5" stroke-linecap="round"/>
<path d="M231.5 658C231.5 658 235.501 678.5 231.5 696C228.017 711.239 215.5 729.5 215.5 729.5" stroke="#FFCD69" stroke-width="5" stroke-linecap="round"/>
<path d="M254 727C253 676 175.231 507.831 170 531C163 562 164.4 625.6 170 644C177 667 177 714 135 804C92.9997 894 166 884 191 934C216 984 189 956 171 1046C153 1136 201 1156 242 1191C283 1226 277 1282 283 1314C289 1346 336 1372 358 1386C380 1400 385 1427 397 1454C409 1481 500 1488 513 1523C523.4 1551 660 1586 727 1600C699 1578.33 638.2 1530.2 619 1511C595 1487 590 1438 578 1418C566 1398 498 1390 480 1381C462 1372 431 1316 420 1297C409 1278 388 1276 366 1265C344 1254 348 1170 345 1125C342 1080 298 1071 278 1052C258 1033 303 908 307 884C311 860 279 841 263 830C247 819 255 778 254 727Z" fill="url(#paint2_linear_54_5)"/>
<path d="M322.472 1019.58C298.585 991.144 261.168 861.223 275.176 871.381C293.919 884.973 323.621 920.509 329.33 933.312C336.467 949.315 358.991 975.074 425.44 1004.01C491.889 1032.94 446.569 1062.9 456.651 1102.44C466.733 1141.98 468.304 1113.53 521.429 1154.12C574.554 1194.7 557.49 1228.97 551.501 1268.05C545.512 1307.14 575.68 1334.92 587.685 1355.37C599.689 1375.82 586.056 1412.89 580.551 1431.24C575.046 1449.59 585.21 1466.82 591.487 1487.44C597.764 1508.06 651.057 1483.17 660.613 1508.66C668.257 1529.05 766.853 1595.63 736.365 1635.83C741.527 1610.36 618.979 1620.02 620.437 1600.17C622.26 1575.37 565.533 1564.35 562.611 1547.57C559.688 1530.78 504.742 1501.4 510.422 1487.73C516.102 1474.06 506.476 1428.32 503.477 1412.56C500.479 1396.81 511.179 1385.52 518.122 1368.81C525.064 1352.1 482.587 1308 462.687 1281.89C442.787 1255.77 462.902 1229.47 464.9 1209.35C466.898 1189.23 382.01 1142.57 368.287 1131.36C354.565 1120.14 363.225 1094.2 366.837 1080.4C370.448 1066.6 346.358 1048.02 322.472 1019.58Z" fill="#7C8C33"/>
<path d="M278.707 879.9C295.013 917.221 331.057 994.666 352.827 1009.48C373.868 1023.8 420.13 1055.08 422.246 1068.7C424.362 1082.32 412.598 1108.08 422.913 1123.24C433.229 1138.4 503.444 1178.96 511.73 1201.28C520.403 1224.65 508.98 1302.33 530.067 1326.45C551.153 1350.56 546.473 1400.11 547.427 1422.49C548.38 1444.87 557.983 1483.86 550.713 1497.95C543.443 1512.04 526.408 1531.78 526.806 1554.64C527.124 1572.93 697.906 1595.12 737.684 1618.87" stroke="#54B97C" stroke-width="5" stroke-linecap="round"/>
<path d="M316.995 920.887C316.995 920.887 322.385 935.938 324.003 945.707C325.869 956.974 326.569 974.41 326.569 974.41" stroke="#54B97C" stroke-width="5" stroke-linecap="round"/>
<path d="M355.549 968.897C355.549 968.897 362.887 985.979 366.82 995.792C370.552 1005.1 373.512 1021.37 373.512 1021.37" stroke="#54B97C" stroke-width="5" stroke-linecap="round"/>
<path d="M401.347 996.063C401.347 996.063 414.725 1021.35 418.772 1031.12C424.067 1043.89 419.194 1060.73 419.194 1060.73" stroke="#54B97C" stroke-width="5" stroke-linecap="round"/>
<path d="M458.861 1040.55C458.861 1040.55 438.576 1069.17 437.797 1079.76C436.62 1095.78 426.823 1126.59 426.823 1126.59" stroke="#54B97C" stroke-width="5" stroke-linecap="round"/>
<path d="M454.457 1100.49C454.457 1100.49 453.231 1120.87 450.387 1131.13C448.62 1137.51 455.227 1150.11 455.227 1150.11" stroke="#54B97C" stroke-width="5" stroke-linecap="round"/>
<path d="M326.772 1021.14C326.772 1021.14 348.263 1039.46 363.565 1043.61C378.337 1047.62 401.398 1044.86 401.398 1044.86" stroke="#54B97C" stroke-width="5" stroke-linecap="round"/>
<path d="M365.023 1062.64C365.023 1062.64 387.998 1069.21 401.074 1077.54C413.233 1085.28 418.072 1104.26 418.072 1104.26" stroke="#54B97C" stroke-width="5" stroke-linecap="round"/>
<path d="M363.827 1107.21C363.827 1107.21 382.451 1130.47 396.43 1137.21C416.75 1147 441.629 1140.72 441.629 1140.72" stroke="#54B97C" stroke-width="5" stroke-linecap="round"/>
<path d="M419.787 1162.24C419.787 1162.24 435.107 1172.47 450.616 1173.97C465.06 1175.36 480.83 1169.31 480.83 1169.31" stroke="#54B97C" stroke-width="5" stroke-linecap="round"/>
<path d="M456.2 1189.88C456.2 1189.88 469.755 1195.85 485.264 1197.35C499.708 1198.74 512.144 1206.24 512.144 1206.24" stroke="#54B97C" stroke-width="5" stroke-linecap="round"/>
<path d="M467.27 1215.98C467.27 1215.98 477.375 1234.34 489.642 1243.81C501.687 1253.1 515.69 1253.43 515.69 1253.43" stroke="#54B97C" stroke-width="5" stroke-linecap="round"/>
<path d="M460.981 1237.92C460.981 1237.92 478.161 1266.05 490.428 1275.52C502.473 1284.81 518.026 1295.87 518.026 1295.87" stroke="#54B97C" stroke-width="5" stroke-linecap="round"/>
<path d="M470.065 1287.52C470.065 1287.52 493.151 1309.52 505.418 1318.99C517.463 1328.28 534.87 1335.3 534.87 1335.3" stroke="#54B97C" stroke-width="5" stroke-linecap="round"/>
<path d="M510.976 1338.79C510.976 1338.79 520.514 1354.26 532.782 1363.73C544.827 1373.02 546.654 1383.51 546.654 1383.51" stroke="#54B97C" stroke-width="5" stroke-linecap="round"/>
<path d="M514.359 1384.67C514.359 1384.67 519.291 1401.15 528.152 1416.13C535.897 1429.22 547.566 1433.49 547.566 1433.49" stroke="#54B97C" stroke-width="5" stroke-linecap="round"/>
<path d="M507.731 1417.06C507.731 1417.06 522.108 1433.5 530.969 1448.48C538.714 1461.58 550.383 1465.84 550.383 1465.84" stroke="#54B97C" stroke-width="5" stroke-linecap="round"/>
<path d="M513.533 1455.99C513.533 1455.99 516.446 1475.21 525.307 1490.18C533.052 1503.28 541.841 1509.09 541.841 1509.09" stroke="#54B97C" stroke-width="5" stroke-linecap="round"/>
<path d="M508.148 1497.45C508.148 1497.45 509.323 1508.51 518.184 1523.49C525.929 1536.59 527.211 1545.58 527.211 1545.58" stroke="#54B97C" stroke-width="5" stroke-linecap="round"/>
<path d="M488.209 1528.43C488.209 1528.43 490.644 1547.09 499.505 1562.07C507.25 1575.16 521.549 1587.28 521.549 1587.28" stroke="#54B97C" stroke-width="5" stroke-linecap="round"/>
<path d="M526.779 1558.53C526.779 1558.53 534.357 1547.94 547.688 1536.41C559.34 1526.34 563.512 1518.19 563.512 1518.19" stroke="#54B97C" stroke-width="5" stroke-linecap="round"/>
<path d="M577.606 1453.64C577.606 1453.64 578.901 1475.7 564.808 1486.28C552.49 1495.53 545.614 1507.25 545.614 1507.25" stroke="#54B97C" stroke-width="5" stroke-linecap="round"/>
<path d="M517.015 1154.11C517.015 1154.11 525.021 1168.87 527.666 1185.9C529.888 1200.2 515.523 1216.82 515.523 1216.82" stroke="#54B97C" stroke-width="5" stroke-linecap="round"/>
<path d="M553.612 1200.44C553.612 1200.44 539.757 1216.19 536.145 1233.13C532.975 1247.99 516.76 1263.62 516.76 1263.62" stroke="#54B97C" stroke-width="5" stroke-linecap="round"/>
<path d="M554.461 1238.39C554.461 1238.39 544.018 1250.76 540.406 1267.69C537.236 1282.55 521.022 1298.18 521.022 1298.18" stroke="#54B97C" stroke-width="5" stroke-linecap="round"/>
<path d="M549.552 1291.03C549.552 1291.03 546.975 1301.76 543.364 1318.69C540.193 1333.55 541.073 1346.32 541.073 1346.32" stroke="#54B97C" stroke-width="5" stroke-linecap="round"/>
<path d="M565.658 1329.06C565.658 1329.06 559.86 1338.11 555.53 1351.09C550.713 1365.52 547.49 1388.95 547.49 1388.95" stroke="#54B97C" stroke-width="5" stroke-linecap="round"/>
<path d="M583.559 1358.49C583.559 1358.49 573.095 1380.7 568.765 1393.67C563.948 1408.11 547.174 1418.84 547.174 1418.84" stroke="#54B97C" stroke-width="5" stroke-linecap="round"/>
<path d="M586.45 1400.45C586.45 1400.45 579.444 1421.57 569.816 1432.41C559.678 1443.82 551.932 1459.57 551.932 1459.57" stroke="#54B97C" stroke-width="5" stroke-linecap="round"/>
<path d="M478.153 1131.51C478.153 1131.51 489.002 1138.88 488.416 1154.45C487.87 1168.96 495.07 1180.55 495.07 1180.55" stroke="#54B97C" stroke-width="5" stroke-linecap="round"/>
<path d="M301.896 970.841C301.896 970.841 309.5 984.018 320.107 991.667C329.344 998.328 345.045 1002.26 345.045 1002.26" stroke="#54B97C" stroke-width="5" stroke-linecap="round"/>
<path d="M322.472 1019.58C298.585 991.144 261.168 861.223 275.176 871.381C293.919 884.973 323.621 920.509 329.33 933.312C336.467 949.315 358.991 975.074 425.44 1004.01C491.889 1032.94 446.569 1062.9 456.651 1102.44C466.733 1141.98 468.304 1113.53 521.429 1154.12C574.554 1194.7 557.49 1228.97 551.501 1268.05C545.512 1307.14 575.68 1334.92 587.685 1355.37C599.689 1375.82 586.056 1412.89 580.551 1431.24C575.046 1449.59 585.21 1466.82 591.487 1487.44C597.764 1508.06 651.175 1486.14 660.731 1511.63C668.376 1532.03 767.768 1593.59 737.28 1633.79C742.442 1608.32 626.701 1588.82 628.159 1568.97C629.982 1544.17 470.342 1600.14 467.42 1583.35C464.497 1566.56 504.742 1501.4 510.422 1487.73C516.102 1474.06 506.476 1428.32 503.477 1412.56C500.479 1396.81 511.179 1385.52 518.122 1368.81C525.064 1352.1 482.587 1308 462.687 1281.89C442.787 1255.77 462.902 1229.47 464.9 1209.35C466.898 1189.23 382.01 1142.57 368.287 1131.36C354.565 1120.14 363.225 1094.2 366.837 1080.4C370.448 1066.6 346.358 1048.02 322.472 1019.58Z" fill="url(#paint3_linear_54_5)"/>
<path d="M641.778 1545.47C664.138 1547.02 714.45 1605.63 739.809 1634.84C620.37 1645.8 563.791 1614.67 533.842 1600.84C496.405 1583.57 426.378 1583.2 409.489 1579.62C392.6 1576.05 380.725 1542.63 372.204 1528.33C363.683 1514.03 320.741 1511.58 297.026 1502.77C273.31 1493.96 237.16 1438.71 227.877 1417.38C218.593 1396.05 167.673 1363.31 134.674 1333.18C101.675 1303.04 80.2583 1108.21 78.8688 1090.15C77.4793 1072.09 149.525 1160.58 172.886 1209.4C196.247 1258.22 260.16 1291.4 279.776 1303.07C299.392 1314.74 310.229 1371.93 325.702 1394.68C343.81 1421.31 435.419 1434.42 462.031 1446.32C514.27 1469.7 508.125 1532.93 535.839 1541.88C579.388 1555.93 613.828 1543.52 641.778 1545.47Z" fill="#7C8C33"/>
<path d="M83.7305 1094.32C103.947 1167.04 153.513 1314.61 190.049 1323.05C235.718 1333.6 248.899 1417.09 320.384 1433.52C391.868 1449.95 436.488 1491.49 439.775 1512.61C443.062 1533.73 523.221 1589.48 569.567 1580.04C606.643 1572.49 684.721 1606.96 719.126 1625.13" stroke="#4FC087" stroke-width="4" stroke-linecap="round"/>
<path d="M131.131 1231L140.564 1159.28" stroke="#4FC087" stroke-width="4" stroke-linecap="round"/>
<path d="M125.489 1220.3C125.489 1220.3 113.27 1216.78 107.271 1211.68C99.2573 1204.87 94.0576 1188.22 94.0576 1188.22" stroke="#4FC087" stroke-width="4" stroke-linecap="round"/>
<path d="M111.302 1181.1C111.302 1181.1 117.36 1166.76 118.128 1157.02C119.066 1145.11 118.754 1138.53 113.139 1126.83" stroke="#4FC087" stroke-width="4" stroke-linecap="round"/>
<path d="M101.334 1224.49C101.334 1224.49 113.293 1244.65 119.462 1252.23C125.651 1259.83 131.033 1264.78 143.954 1265.95" stroke="#4FC087" stroke-width="4" stroke-linecap="round"/>
<path d="M163.747 1198.59C163.747 1198.59 157.718 1214.12 157.387 1223.88C157.098 1232.38 159.099 1261.96 150.697 1273.69" stroke="#4FC087" stroke-width="4" stroke-linecap="round"/>
<path d="M187.878 1239.43C187.878 1239.43 189.721 1262.95 186.727 1273.41C182.188 1289.26 178.8 1300.65 172.516 1308.95" stroke="#4FC087" stroke-width="4" stroke-linecap="round"/>
<path d="M217.905 1265.46C217.905 1265.46 219.765 1288.48 216.771 1298.94C212.232 1314.79 207.809 1315.64 201.906 1327.45" stroke="#4FC087" stroke-width="4" stroke-linecap="round"/>
<path d="M111.634 1274.86C111.634 1274.86 120.043 1285.42 130.717 1287.52C146.898 1290.71 156.78 1300.91 164.774 1301.18" stroke="#4FC087" stroke-width="4" stroke-linecap="round"/>
<path d="M126.288 1314.88C126.288 1314.88 146.006 1323.56 154.967 1324.86C172.702 1327.44 189.948 1326.04 197.942 1326.32" stroke="#4FC087" stroke-width="4" stroke-linecap="round"/>
<path d="M154.722 1346.86C154.722 1346.86 177.828 1347.96 186.669 1348.95C204.169 1350.9 219.151 1352.77 227.062 1352.82" stroke="#4FC087" stroke-width="4" stroke-linecap="round"/>
<path d="M182.961 1369.83C182.961 1369.83 195.506 1372.56 204.348 1373.54C221.847 1375.49 243.621 1383.62 251.532 1383.66" stroke="#4FC087" stroke-width="4" stroke-linecap="round"/>
<path d="M211.166 1393.8C211.166 1393.8 216.48 1396.99 226.006 1399.8C244.859 1405.37 266.731 1409.65 275.121 1410.98" stroke="#4FC087" stroke-width="4" stroke-linecap="round"/>
<path d="M235.55 1427.15C235.55 1427.15 247.874 1434.57 257.801 1434.9C278.289 1435.6 311.355 1434.22 323.348 1434.62" stroke="#4FC087" stroke-width="4" stroke-linecap="round"/>
<path d="M260.333 1463.51C260.333 1463.51 278.035 1472.61 299.811 1464.84C319.119 1457.96 366.818 1453.06 375.208 1454.39" stroke="#4FC087" stroke-width="4" stroke-linecap="round"/>
<path d="M310.501 1503.73C310.501 1503.73 343.918 1506.87 365.689 1499.09C384.994 1492.2 425.723 1502.71 434.065 1503.91" stroke="#4FC087" stroke-width="4" stroke-linecap="round"/>
<path d="M377.514 1534.01C377.514 1534.01 393.919 1527.84 412.079 1532.68C424.97 1536.12 450.125 1535.55 458.468 1536.76" stroke="#4FC087" stroke-width="4" stroke-linecap="round"/>
<path d="M402.281 1570.87C402.281 1570.87 443.604 1576.78 465.744 1573.02C478.898 1570.79 497.613 1566.27 505.955 1567.47" stroke="#4FC087" stroke-width="4" stroke-linecap="round"/>
<path d="M504.247 1588.38C504.247 1588.38 523.584 1593.53 545.723 1589.78C558.877 1587.55 566.501 1581.94 574.598 1579.21" stroke="#4FC087" stroke-width="4" stroke-linecap="round"/>
<path d="M612.042 1581.48C612.042 1581.48 609.5 1567.89 593.713 1561.35C581.386 1556.24 574.961 1553.71 567.067 1550.44" stroke="#4FC087" stroke-width="4" stroke-linecap="round"/>
<path d="M665.689 1598.81C665.689 1598.81 664.292 1589.75 654.34 1573.41C647.402 1562.01 638.094 1550.84 630.2 1547.58" stroke="#4FC087" stroke-width="4" stroke-linecap="round"/>
<path d="M634.387 1630.76C634.387 1630.76 641.853 1624.06 660.966 1623.08C674.29 1622.4 688.539 1619.53 695.171 1614.14" stroke="#4FC087" stroke-width="4" stroke-linecap="round"/>
<path d="M576.826 1616.81C576.826 1616.81 584.211 1605.84 601.253 1604.63C620.31 1603.27 626.834 1595.22 633.759 1590.22" stroke="#4FC087" stroke-width="4" stroke-linecap="round"/>
<path d="M245.609 1287.41C245.609 1287.41 246.585 1313.23 244.442 1321.87C240.202 1338.96 239.484 1353.71 236.785 1361.15" stroke="#4FC087" stroke-width="4" stroke-linecap="round"/>
<path d="M276.211 1304.95C276.211 1304.95 281.209 1344.94 279.066 1353.58C274.826 1370.67 269.164 1393.24 266.465 1400.68" stroke="#4FC087" stroke-width="4" stroke-linecap="round"/>
<path d="M298.114 1337.71C298.114 1337.71 297.112 1367.3 296.811 1376.19C296.151 1395.68 298.02 1412.73 295.321 1420.17" stroke="#4FC087" stroke-width="4" stroke-linecap="round"/>
<path d="M321.305 1391.53C321.305 1391.53 323.859 1405.85 325.024 1414.67C327.015 1429.74 332.292 1436.43 332.292 1436.43" stroke="#4FC087" stroke-width="4" stroke-linecap="round"/>
<path d="M366.848 1420.59C366.848 1420.59 371.398 1431.49 377.232 1438.95C386.599 1450.93 388.656 1458.6 388.656 1458.6" stroke="#4FC087" stroke-width="4" stroke-linecap="round"/>
<path d="M425.789 1438.09C425.789 1438.09 433.593 1451.56 435.022 1460.92C437.479 1477.01 431.543 1495.58 431.543 1495.58" stroke="#4FC087" stroke-width="4" stroke-linecap="round"/>
<path d="M467.325 1452.51C467.325 1452.51 484.646 1487.61 484.138 1502.61C483.377 1525.09 471.271 1546.95 471.271 1546.95" stroke="#4FC087" stroke-width="4" stroke-linecap="round"/>
<path d="M512.132 1518.06C512.132 1518.06 524.845 1541.5 524.337 1556.5C523.931 1568.49 540.1 1578.54 540.1 1578.54" stroke="#4FC087" stroke-width="4" stroke-linecap="round"/>
<path d="M641.778 1545.47C664.138 1547.02 714.45 1605.63 739.809 1634.84C620.37 1645.8 563.791 1614.67 533.842 1600.84C496.405 1583.57 426.378 1583.2 409.489 1579.62C392.6 1576.05 380.725 1542.63 372.204 1528.33C363.683 1514.03 320.741 1511.58 297.026 1502.77C273.31 1493.96 237.16 1438.71 227.877 1417.38C218.593 1396.05 167.673 1363.31 134.674 1333.18C101.675 1303.04 80.2583 1108.21 78.8688 1090.15C77.4793 1072.09 149.525 1160.58 172.886 1209.4C196.247 1258.22 260.16 1291.4 279.776 1303.07C299.392 1314.74 310.229 1371.93 325.702 1394.68C343.81 1421.31 435.419 1434.42 462.031 1446.32C514.27 1469.7 508.125 1532.93 535.839 1541.88C579.388 1555.93 613.828 1543.52 641.778 1545.47Z" fill="url(#paint4_linear_54_5)"/>
<path d="M681.452 1529.39C677.546 1548.57 716.938 1605.1 736.504 1633.51C774.229 1535.72 760.335 1480.58 755.304 1452.04C749.016 1416.37 765.19 1357.38 766.044 1342.31C766.897 1327.24 740.471 1309.15 729.977 1298.52C719.483 1287.88 727.452 1251.17 725.338 1229.09C723.223 1207.01 683.423 1163.21 666.961 1150.23C650.499 1137.25 633.865 1086.48 615.288 1051.42C596.712 1016.36 431.387 951.102 415.924 945.555C400.461 940.007 460.866 1022.06 498.052 1053.54C535.237 1085.03 549.195 1146.83 554.779 1166.16C560.363 1185.49 607.815 1208.47 624.064 1227C643.082 1248.68 632.963 1328.91 637.106 1354.18C645.238 1403.78 701.981 1413.95 703.272 1439.42C705.301 1479.46 686.334 1505.41 681.452 1529.39Z" fill="#A3BB47"/>
<path d="M418.422 950.654C477.253 985.293 594.609 1062.76 593.383 1095.54C591.851 1136.51 661.756 1167.84 659.281 1231.94C656.806 1296.05 682.613 1343.65 700.31 1351.53C718.006 1359.42 747.867 1440.35 728.697 1477.04C713.361 1506.4 725.102 1580.42 732.89 1613.76" stroke="#D1C060" stroke-width="4" stroke-linecap="round"/>
<path d="M526.775 1023.66L461.836 1014.21" stroke="#D1C060" stroke-width="4" stroke-linecap="round"/>
<path d="M518.751 1016.33C518.751 1016.33 518.546 1005.19 515.503 998.913C511.438 990.523 498.102 982.111 498.102 982.111" stroke="#D1C060" stroke-width="4" stroke-linecap="round"/>
<path d="M487.81 994.886C487.81 994.886 473.847 996.505 465.146 994.788C454.509 992.688 448.831 990.831 439.926 983.272" stroke="#D1C060" stroke-width="4" stroke-linecap="round"/>
<path d="M528.101 997.026C528.101 997.026 542.911 1011.97 548.086 1019C553.277 1026.05 556.338 1031.77 554.319 1042.93" stroke="#D1C060" stroke-width="4" stroke-linecap="round"/>
<path d="M490.747 1043.23C490.747 1043.23 505.747 1041.93 514.367 1044.02C521.864 1045.84 547.262 1054.69 559.492 1050.47" stroke="#D1C060" stroke-width="4" stroke-linecap="round"/>
<path d="M520.774 1073.43C520.774 1073.43 540.909 1080.69 550.759 1080.71C565.693 1080.73 576.452 1080.65 585.184 1077.37" stroke="#D1C060" stroke-width="4" stroke-linecap="round"/>
<path d="M536.463 1105C536.463 1105 556.156 1112.15 566.007 1112.17C580.941 1112.19 582.726 1108.68 594.441 1106.58" stroke="#D1C060" stroke-width="4" stroke-linecap="round"/>
<path d="M569.725 1017.9C569.725 1017.9 576.97 1027.54 576.294 1037.02C575.269 1051.4 581.862 1062.19 580.216 1068.98" stroke="#D1C060" stroke-width="4" stroke-linecap="round"/>
<path d="M601.267 1039.93C601.267 1039.93 604.205 1058.62 603.234 1066.47C601.313 1082.02 596.029 1096.18 594.383 1102.97" stroke="#D1C060" stroke-width="4" stroke-linecap="round"/>
<path d="M622.533 1071.6C622.533 1071.6 618.049 1091.3 616.828 1098.98C614.41 1114.17 612.517 1127.22 610.695 1133.89" stroke="#D1C060" stroke-width="4" stroke-linecap="round"/>
<path d="M635.965 1100.92C635.965 1100.92 635.392 1112.13 634.171 1119.81C631.753 1135 633.725 1155.28 631.903 1161.95" stroke="#D1C060" stroke-width="4" stroke-linecap="round"/>
<path d="M650.28 1130.46C650.28 1130.46 651.813 1135.7 652.03 1144.39C652.46 1161.6 651.045 1181.03 650.23 1188.41" stroke="#D1C060" stroke-width="4" stroke-linecap="round"/>
<path d="M673.692 1159.05C673.692 1159.05 677.278 1171.21 675.233 1179.65C671.013 1197.04 662.015 1224.52 659.545 1234.7" stroke="#D1C060" stroke-width="4" stroke-linecap="round"/>
<path d="M699.648 1188.71C699.648 1188.71 703.439 1205.81 691.517 1222.24C680.946 1236.81 665.428 1275.73 664.613 1283.11" stroke="#D1C060" stroke-width="4" stroke-linecap="round"/>
<path d="M722.999 1240.66C722.999 1240.66 717.875 1269.52 705.945 1285.95C695.366 1300.51 694.964 1337.32 694.049 1344.62" stroke="#D1C060" stroke-width="4" stroke-linecap="round"/>
<path d="M733.695 1304.36C733.695 1304.36 724.431 1316.66 724.388 1333.11C724.358 1344.78 717.936 1365.8 717.021 1373.11" stroke="#D1C060" stroke-width="4" stroke-linecap="round"/>
<path d="M760.091 1334.13C760.091 1334.13 755.517 1370.31 747.02 1388.02C741.971 1398.55 733.608 1413.19 732.692 1420.5" stroke="#D1C060" stroke-width="4" stroke-linecap="round"/>
<path d="M751.374 1424.13C751.374 1424.13 751.328 1441.64 742.831 1459.35C737.782 1469.87 731.079 1474.92 726.786 1481.07" stroke="#D1C060" stroke-width="4" stroke-linecap="round"/>
<path d="M719.948 1513.12C719.948 1513.12 708.66 1507.68 706.662 1492.82C705.102 1481.21 704.4 1475.19 703.401 1467.76" stroke="#D1C060" stroke-width="4" stroke-linecap="round"/>
<path d="M722.468 1562.44C722.468 1562.44 714.874 1559.07 702.925 1546.73C694.595 1538.13 687.023 1527.6 686.024 1520.16" stroke="#D1C060" stroke-width="4" stroke-linecap="round"/>
<path d="M757.78 1543.86C757.78 1543.86 750.16 1548.51 744.802 1564.35C741.066 1575.39 735.195 1586.68 728.921 1590.95" stroke="#D1C060" stroke-width="4" stroke-linecap="round"/>
<path d="M759.137 1492.07C759.137 1492.07 747.807 1495.62 742.732 1509.65C737.057 1525.35 728.482 1528.89 722.475 1533.5" stroke="#D1C060" stroke-width="4" stroke-linecap="round"/>
<path d="M549.13 1133.62C549.13 1133.62 571.481 1140.71 579.536 1141C595.479 1141.58 608.554 1144.55 615.692 1144.08" stroke="#D1C060" stroke-width="4" stroke-linecap="round"/>
<path d="M557.263 1163.61C557.263 1163.61 591.054 1177.52 599.109 1177.81C615.051 1178.39 636.125 1179.1 643.264 1178.63" stroke="#D1C060" stroke-width="4" stroke-linecap="round"/>
<path d="M580.75 1189.98C580.75 1189.98 606.857 1196.31 614.703 1198.22C631.9 1202.39 646.368 1208.09 653.507 1207.63" stroke="#D1C060" stroke-width="4" stroke-linecap="round"/>
<path d="M622.345 1222.54C622.345 1222.54 634.265 1228.16 641.703 1231.27C654.415 1236.6 659.016 1242.66 659.016 1242.66" stroke="#D1C060" stroke-width="4" stroke-linecap="round"/>
<path d="M637.025 1267.88C637.025 1267.88 645.486 1274.36 650.634 1281.07C658.902 1291.85 665.13 1295.45 665.13 1295.45" stroke="#D1C060" stroke-width="4" stroke-linecap="round"/>
<path d="M638.446 1321.7C638.446 1321.7 648.381 1331.53 656.23 1335C669.723 1340.97 687.356 1340.48 687.356 1340.48" stroke="#D1C060" stroke-width="4" stroke-linecap="round"/>
<path d="M641.265 1360.13C641.265 1360.13 667.883 1383.21 681.111 1386.42C700.954 1391.23 722.921 1386.35 722.921 1386.35" stroke="#D1C060" stroke-width="4" stroke-linecap="round"/>
<path d="M688.032 1413.71C688.032 1413.71 705.537 1430.09 718.765 1433.29C729.348 1435.86 734.33 1451.9 734.33 1451.9" stroke="#D1C060" stroke-width="4" stroke-linecap="round"/>
<path d="M681.452 1529.39C677.546 1548.57 716.938 1605.1 736.504 1633.51C774.229 1535.72 760.335 1480.58 755.304 1452.04C749.016 1416.37 765.19 1357.38 766.044 1342.31C766.897 1327.24 740.471 1309.15 729.977 1298.52C719.483 1287.88 727.452 1251.17 725.338 1229.09C723.223 1207.01 683.423 1163.21 666.961 1150.23C650.499 1137.25 633.865 1086.48 615.288 1051.42C596.712 1016.36 431.387 951.102 415.924 945.555C400.461 940.007 460.866 1022.06 498.052 1053.54C535.237 1085.03 549.195 1146.83 554.779 1166.16C560.363 1185.49 607.815 1208.47 624.064 1227C643.082 1248.68 632.963 1328.91 637.106 1354.18C645.238 1403.78 701.981 1413.95 703.272 1439.42C705.301 1479.46 686.333 1505.41 681.452 1529.39Z" fill="url(#paint5_linear_54_5)"/>
<path d="M866.5 222.5C840.454 222.5 799 245.167 781 252.5C790.333 252.5 818.5 240 874.5 252.5C935.793 266.182 979.054 310 1018.5 310C1094.5 310 1178 326 1370 346C1562 366 1681.65 464.456 1706 522C1728 574 1700 666 1676 740C1652 814 1814 953.199 1814 1026C1814 1092 1633.33 1251.33 1530 1330V1378C1624.67 1304 1821.2 1139.6 1850 1074C1878.8 1008.4 1817.25 949.977 1754 848C1656 690 1767.17 692 1744 542C1706 296 1252 306 1044 284C982.056 277.448 918 222.5 866.5 222.5Z" fill="url(#paint6_linear_54_5)"/>
<path d="M881.5 245C872 291 824.5 285 795.5 291C766.5 297 707.962 363.843 701 347C710 323 722 261.794 763 242.5C814 218.5 891.526 196.454 881.5 245Z" fill="#368372"/>
<path d="M1045.32 262.989C1067.97 221.84 1027.95 195.555 1009.8 172.16C991.64 148.764 990.535 59.9191 974.302 68.2052C965.56 92.3009 934.938 146.637 953.585 187.934C976.782 239.305 1021.42 306.416 1045.32 262.989Z" fill="#368372"/>
<path d="M1053 291C1026.6 285.4 1012 264.667 1008 255C1011 252.667 1018.6 249.4 1025 255C1031.4 260.6 1079 288.667 1102 302C1096.67 300.667 1079.4 296.6 1053 291Z" fill="#368372"/>
<path d="M927 242C948 242 934.5 191.5 917.5 175C900.695 158.689 899.037 175.604 884.51 111.266C884.245 110.092 882.995 109.354 881.91 109.873C864.057 118.413 858.587 150.145 871.5 182.5C888.173 224.28 893.347 242 927 242Z" fill="#275F52"/>
<path d="M1224 278.529C1231.5 274 1215.43 250.972 1192 247.5C1169.06 244.1 1136.88 259.82 1109.73 237.484C1108.8 236.719 1107.38 236.878 1106.83 237.945C1097.99 254.939 1120.41 278.677 1144 282.5C1187.33 289.525 1205.7 289.578 1224 278.529Z" fill="#275F52"/>
<path d="M1276.26 388.06C1276.26 395.365 1256.58 401.902 1239.34 392.269C1222.52 382.878 1209.31 356.306 1180.27 357.006C1179.07 357.035 1178.04 356.041 1178.29 354.862C1181.45 339.445 1208.06 335.319 1225.44 344.722C1257.64 362.136 1276.26 371.5 1276.26 388.06Z" fill="#275F52"/>
<path d="M1439.75 284.712C1447.25 280.183 1431.18 257.155 1407.75 253.683C1384.8 250.283 1352.63 266.003 1325.48 243.667C1324.55 242.902 1323.13 243.06 1322.58 244.128C1313.74 261.122 1336.16 284.86 1359.75 288.683C1403.08 295.708 1421.45 295.761 1439.75 284.712Z" fill="#275F52"/>
<path d="M1276.18 286.164C1284.09 289.924 1300.1 270.021 1296.67 246.58C1293.32 223.628 1268.99 197.345 1282.56 164.915C1283.02 163.804 1282.46 162.486 1281.27 162.292C1262.91 159.295 1252.34 194.52 1248 218C1237.68 273.801 1259 278 1276.18 286.164Z" fill="#368372"/>
<path d="M1405.96 240.428C1413.87 244.188 1429.88 224.286 1426.45 200.844C1423.1 177.893 1398.77 151.61 1412.34 119.179C1412.81 118.069 1412.24 116.751 1411.05 116.557C1392.69 113.559 1382.13 148.785 1377.78 172.265C1367.46 228.065 1388.78 232.265 1405.96 240.428Z" fill="#368372"/>
<path d="M1826.9 693.194C1842.31 697.026 1877.21 676.567 1883 634C1888.72 591.924 1858.39 533.697 1900.02 483.691C1900.79 482.766 1900.6 481.332 1899.55 480.743C1868.73 463.453 1831.69 520.852 1811.99 560.279C1766.01 652.332 1798.6 686.159 1826.9 693.194Z" fill="#368372"/>
<path d="M1503.29 793.364C1503.67 806.246 1485.01 828.361 1455.68 822.557C1426.88 816.857 1392.46 779.701 1353.38 799.012C1352.26 799.566 1350.86 799.025 1350.58 797.808C1344.04 770.058 1387.38 755.367 1416.4 749.663C1484.57 736.262 1502.6 769.719 1503.29 793.364Z" fill="#368372"/>
<path d="M1524.47 309.301C1526.98 304.52 1515.12 294.165 1500.6 295.694C1486.57 297.17 1470.03 311.14 1450.73 302.713C1449.62 302.232 1448.28 302.744 1448.16 303.941C1447.08 314.698 1467.79 321.79 1481.78 324.966C1515.9 332.712 1519.02 319.68 1524.47 309.301Z" fill="#368372"/>
<path d="M1509.96 290.428C1517.87 294.188 1533.88 274.286 1530.45 250.844C1527.1 227.893 1502.77 201.61 1516.34 169.179C1516.81 168.069 1516.24 166.751 1515.05 166.557C1496.69 163.559 1486.13 198.785 1481.78 222.265C1471.46 278.065 1492.78 282.265 1509.96 290.428Z" fill="#275F52"/>
<path d="M1825.42 778.495C1835.11 776.416 1835.75 747.542 1816.53 728.882C1797.66 710.567 1757.6 703.767 1747.54 665.087C1747.24 663.922 1745.99 663.217 1744.92 663.767C1725.99 673.499 1740.86 712.621 1753.2 736.783C1782.38 793.934 1804.4 783.009 1825.42 778.495Z" fill="#275F52"/>
<path d="M1765.21 1092.28C1769.14 1084.09 1748.57 1067.41 1724.25 1070.87C1700.43 1074.26 1673.05 1099.4 1639.45 1085.13C1638.35 1084.66 1637.02 1085.22 1636.82 1086.4C1633.51 1105.48 1670.06 1116.6 1694.42 1121.21C1752.23 1132.15 1756.67 1110.06 1765.21 1092.28Z" fill="#275F52"/>
<path d="M1819 1229C1815.07 1220.81 1841.18 1207.23 1865.5 1210.69C1889.33 1214.08 1925.94 1241.13 1959.92 1226.92C1961.03 1226.46 1962.35 1227.02 1962.51 1228.21C1965.21 1247.56 1920.1 1262.21 1895.33 1261.03C1842 1258.5 1827.53 1246.78 1819 1229Z" fill="#275F52"/>
<path d="M1696.72 1261.27C1692.88 1253.04 1719.14 1239.74 1743.41 1243.47C1767.21 1247.11 1803.52 1274.57 1837.65 1260.73C1838.77 1260.28 1840.08 1260.85 1840.23 1262.05C1842.72 1281.42 1797.45 1295.58 1772.69 1294.13C1719.39 1291.02 1705.06 1279.13 1696.72 1261.27Z" fill="#275F52"/>
<path d="M1672.23 1064.57C1676.18 1053.94 1669.09 1027.35 1640.44 1016.42C1612.25 1005.68 1566.9 1016.73 1538.85 980.297C1538.11 979.344 1536.69 979.188 1535.91 980.103C1519.89 998.844 1553.42 1033.47 1577.42 1053.38C1633.96 1100.27 1665 1084 1672.23 1064.57Z" fill="#275F52"/>
<path d="M1801 853C1801 843.094 1806 823 1828 809C1849.74 795.163 1875.4 820.401 1890.5 757.654C1890.78 756.488 1892.04 755.752 1893.07 756.369C1912.35 767.958 1901.29 836.561 1881 853C1855.97 873.277 1801 874 1801 853Z" fill="#275F52"/>
<path d="M1761.18 540.552C1751.99 539.512 1748.73 512.752 1764.87 493.651C1780.68 474.929 1817.2 464.926 1823.05 428.196C1823.24 427.007 1824.41 426.184 1825.53 426.637C1843.82 434.071 1833.63 471.644 1824.42 495.161C1802.58 550.93 1781.12 542.809 1761.18 540.552Z" fill="#368372"/>
<path d="M1412 493C1413.45 502.133 1398.89 522.633 1373.9 523.558C1349.36 524.466 1310.42 534.628 1270.19 538.78C1269.02 538.901 1267.99 537.974 1268.14 536.802C1270.78 515.1 1311.27 487.547 1334.93 478.502C1390.87 457.116 1409.43 476.784 1412 493Z" fill="#275F52"/>
<path d="M1166.02 413.934C1169.43 422.528 1159.72 445.721 1135.54 452.098C1111.79 458.362 1076.03 476.809 1037.69 489.674C1036.57 490.05 1035.37 489.37 1035.25 488.195C1033.07 466.441 1066.54 430.687 1087.64 416.676C1137.54 383.551 1159.96 398.675 1166.02 413.934Z" fill="#368372"/>
<path d="M1465.09 497.963C1458.95 499.87 1430 481 1421 461C1412.68 442.51 1411.2 432.139 1413.39 408.159C1413.68 404.991 1416.85 402.937 1419.76 404.204C1437.49 411.903 1459.38 429.199 1467.37 443.499C1487.66 479.849 1475.99 494.578 1465.09 497.963Z" fill="#368372"/>
<path d="M1545.5 550.5C1539.83 547.482 1514 527.887 1514 503C1514 480.27 1513.17 465.276 1518.9 441.598C1519.72 438.205 1523.7 436.844 1526.22 439.257C1539.92 452.356 1552.7 475.637 1558.66 490.559C1586 559 1558.66 557.5 1545.5 550.5Z" fill="#368372"/>
<path d="M1333.94 409.101C1334.65 414.693 1333.71 443.116 1315.89 455.728C1299.84 467.088 1289.59 475.215 1270.26 483.008C1267.02 484.314 1263.63 481.851 1264.19 478.405C1266.85 462.099 1276.82 441.674 1284.35 430.053C1319.5 375.793 1332.28 396.129 1333.94 409.101Z" fill="#368372"/>
<path d="M1357.13 357.811C1354.45 355.951 1339.63 348.844 1328.41 354.61C1319.18 359.35 1312.63 362.333 1304.59 368.769C1301.86 370.951 1302.52 375.046 1305.91 375.896C1314.7 378.103 1326 378.31 1333.15 377.633C1370.35 374.106 1363.34 362.125 1357.13 357.811Z" fill="#275F52"/>
<path d="M1508.32 527.281C1510.82 533.135 1498 560.218 1481.53 568.368C1466.2 575.949 1457.22 577.126 1435.46 574.527C1432.65 574.192 1430.7 571.568 1431.41 568.837C1435.77 552.108 1448.24 531.433 1459.9 524.081C1489.32 505.535 1503.88 516.885 1508.32 527.281Z" fill="#275F52"/>
<path d="M1633.52 576.355C1633.52 608 1600.5 608 1574.5 608C1550.43 608 1527.31 612.311 1500.51 612.53C1497.22 612.557 1494.89 609.369 1496.49 606.5C1504.6 591.942 1524.47 586.387 1540 576.355C1576.83 552.562 1633.52 564.903 1633.52 576.355Z" fill="#275F52"/>
<path d="M1686 598C1671.69 606.007 1646.83 572.29 1638.5 550C1630.78 529.322 1633.62 523.371 1626.86 502.148C1625.96 499.327 1627.61 496.225 1630.57 496.196C1645.62 496.047 1656.74 510.633 1670.27 519.289C1702.12 539.647 1695.65 592.602 1686 598Z" fill="#368372"/>
<path d="M1608.83 829.285C1618.88 845.834 1580.15 876.605 1554.2 887.376C1529.82 897.494 1522.8 894.183 1497.27 903.491C1494.49 904.506 1491.35 902.968 1491.11 900.017C1489.6 881.774 1506.79 867.83 1516.61 851.182C1539.28 812.742 1602.05 818.127 1608.83 829.285Z" fill="#275F52"/>
<path d="M1560.65 811.456C1578.02 802.897 1561.87 756.138 1545.76 733.115C1532.47 714.109 1523.49 703.206 1510.13 685.374C1507.23 681.498 1500.5 683.517 1499.87 688.319C1497.39 707.379 1491.86 727.01 1494.61 743.458C1503.08 794 1548.93 817.227 1560.65 811.456Z" fill="#275F52"/>
<path d="M1658.21 804.651C1685.36 795.084 1659.43 749.333 1643.33 726.31C1630.03 707.304 1621.05 696.401 1607.7 678.569C1604.8 674.693 1598.07 676.712 1597.44 681.514C1594.95 700.574 1589.42 720.205 1592.18 736.654C1600.65 787.195 1626 816 1658.21 804.651Z" fill="#368372"/>
<path d="M1776.26 1073.67C1761.28 1075.87 1762.13 1048.24 1763.98 1033.59C1765.16 1024.18 1766.33 1017.7 1767.66 1009.84C1768.47 1005.07 1775.74 1003.52 1778.69 1007.35C1783.43 1013.51 1788.2 1019.52 1790.3 1025.86C1798.75 1051.44 1794.02 1071.05 1776.26 1073.67Z" fill="#368372"/>
<path d="M1779.5 1212C1768.35 1201.77 1786.75 1180.25 1811.88 1166.38C1830.78 1155.93 1856.14 1152.02 1873.71 1147.03C1878.36 1145.71 1882.89 1150.69 1880.16 1154.69C1870.69 1168.55 1855.8 1186.78 1847.5 1194C1827.17 1211.68 1792.73 1224.14 1779.5 1212Z" fill="#368372"/>
<path d="M1723.68 1039.62C1700.41 1047.23 1694.2 1002.94 1693.14 979.07C1692.3 960.17 1692.64 948.355 1692.47 930.709C1692.42 925.867 1699.06 923.319 1702.52 926.7C1713.72 937.628 1726.65 947.615 1733 959.552C1753.46 998.03 1751.29 1030.59 1723.68 1039.62Z" fill="#368372"/>
<path d="M1729 471C1738.02 476.022 1772.95 453.932 1770.71 426.111C1768.5 398.783 1741.73 365.91 1760.5 328.663C1761.04 327.589 1760.57 326.237 1759.4 325.939C1737.83 320.416 1722.59 361.366 1715.65 388.811C1699.27 453.632 1709.42 460.097 1729 471Z" fill="#275F52"/>
<path d="M1667.95 356.445C1679.55 360.715 1721.48 332.13 1725.98 299C1730.22 267.775 1720.27 241.209 1719.11 198.922C1719.01 195.249 1715.18 192.844 1711.98 194.645C1692.47 205.616 1670.27 225.076 1656.33 253C1620.55 324.652 1645 348 1667.95 356.445Z" fill="#368372"/>
<path d="M1246 287C1222.8 285.4 1201.67 234.333 1194 209L1189 185C1195.67 199 1212.2 232.6 1225 255C1241 283 1269 282 1295 282C1315.8 282 1347.67 310.667 1361 325C1356.33 325 1345.6 323.2 1340 316C1333 307 1275 289 1246 287Z" fill="#368372"/>
<path d="M1480 298C1456.8 296.4 1412.67 266.333 1405 241L1395 222C1409 231 1423.95 251.767 1444 268C1465 285 1495.5 282 1527 295C1546.23 302.935 1587.67 362.667 1601 377C1596.33 377 1582.96 385.216 1579 377C1544 304.428 1509 300 1480 298Z" fill="#368372"/>
<path d="M1196.19 206.75C1215.39 198.225 1202.5 175 1185.5 158.5C1168.69 142.188 1148.47 164.479 1133.52 100.265C1133.24 99.0933 1131.99 98.3524 1130.93 98.9228C1113.51 108.302 1113.85 151.179 1123 169C1144.74 211.347 1185.5 211.5 1196.19 206.75Z" fill="#275F52"/>
<path d="M1573.76 332.801C1557.94 338.766 1552.27 318.376 1552.74 299.479C1553.22 280.855 1577.24 282.037 1550.07 237.693C1549.44 236.665 1549.82 235.26 1550.99 234.961C1566.29 231.053 1589.82 255.196 1594.55 270.285C1605.9 306.478 1582.58 329.477 1573.76 332.801Z" fill="#368372"/>
<path d="M1669 423C1657 407 1661 333 1653 347L1669 303C1673.33 333.667 1683 397.8 1687 409C1692 423 1752 494 1759 520C1766 546 1737 562 1740 541C1743 520 1681 439 1669 423Z" fill="#368372"/>
<path d="M1806 683C1796.4 670.2 1810 621.667 1818 599C1818 615 1814.98 608 1818 664C1818.91 680.975 1839 705 1849 743C1859 781 1830 807 1806 841C1786.8 868.2 1798 928.333 1806 955C1796.33 943 1776.2 910.2 1773 875C1769 831 1806 793 1818 773C1830 753 1818 699 1806 683Z" fill="#368372"/>
<path d="M1517 526C1490.86 489.4 1425 486.333 1397 488C1417 493.333 1460.5 498 1477 510C1513.07 536.231 1530.58 557.494 1558 564C1587.5 571 1612 563 1637 574C1657 582.8 1703.33 638.667 1710 658L1720 650C1714.67 638.333 1699.7 612.6 1672.5 583C1637 544.368 1554.14 578 1517 526Z" fill="#368372"/>
<path d="M1705.66 657.739C1711.06 641.714 1695.55 633.911 1676.91 630.814C1658.59 627.77 1641.13 650.669 1610.18 627.778C1609.27 627.102 1607.92 627.267 1607.49 628.317C1601.51 642.793 1632.32 673.355 1647.5 678C1676.91 687 1697.5 682 1705.66 657.739Z" fill="#275F52"/>
<path d="M1294 396.5C1314.5 403 1395.5 338.5 1401.5 339H1426C1397.33 356.167 1341.6 386.5 1326 396.5C1294 417.013 1281 401 1233 396.5C1192.52 392.705 1153.17 409 1138 421C1138.83 417.333 1146.5 407.3 1170.5 396.5C1200.5 383 1249.37 382.349 1294 396.5Z" fill="#368372"/>
<path d="M1606 826C1569.2 840.4 1502.33 805 1474 784C1511.33 791.667 1539.24 814 1570 814C1598 814 1668.67 801.333 1698 793L1710 807C1690.33 808.333 1642.8 811.6 1606 826Z" fill="#368372"/>
<path d="M1693 1054C1666.6 1062 1643.33 1057.33 1635 1054C1647 1052.33 1675.4 1047.2 1693 1040C1715 1031 1742 1041 1762 1049C1778 1055.4 1780.67 1095 1780 1114L1762 1136C1764.33 1125.33 1767.6 1098.6 1762 1077C1755 1050 1726 1044 1693 1054Z" fill="#368372"/>
<path d="M1741.5 1215C1729 1221.45 1669.17 1252.83 1633 1271.5L1623 1294C1665.5 1275.17 1735.39 1235.01 1757.5 1231.5C1798.5 1225 1831.83 1227.5 1846 1231.5C1794 1201 1757 1207 1741.5 1215Z" fill="#368372"/>
<defs>
<linearGradient id="paint0_linear_54_5" x1="1624" y1="1554" x2="880" y2="1765" gradientUnits="userSpaceOnUse">
<stop stop-color="#677145"/>
<stop offset="0.463542" stop-color="#845037"/>
<stop offset="1" stop-color="#677145"/>
</linearGradient>
<linearGradient id="paint1_linear_54_5" x1="784" y1="1646" x2="1451" y2="1514" gradientUnits="userSpaceOnUse">
<stop stop-color="#566E4D"/>
<stop offset="0.479167" stop-color="#845037"/>
<stop offset="1" stop-color="#546F4E"/>
</linearGradient>
<linearGradient id="paint2_linear_54_5" x1="92" y1="610" x2="616" y2="1518" gradientUnits="userSpaceOnUse">
<stop stop-color="#A9BE45" stop-opacity="0"/>
<stop offset="1" stop-color="#37835D"/>
</linearGradient>
<linearGradient id="paint3_linear_54_5" x1="356.341" y1="876.811" x2="508.967" y2="1627.13" gradientUnits="userSpaceOnUse">
<stop stop-color="#A9BE45" stop-opacity="0"/>
<stop offset="1" stop-color="#37835D"/>
</linearGradient>
<linearGradient id="paint4_linear_54_5" x1="656.721" y1="1636.02" x2="321.855" y2="1360.53" gradientUnits="userSpaceOnUse">
<stop stop-color="#36835C"/>
<stop offset="1" stop-color="#7C8C33" stop-opacity="0"/>
</linearGradient>
<linearGradient id="paint5_linear_54_5" x1="757.117" y1="1563.92" x2="608.213" y2="1209.97" gradientUnits="userSpaceOnUse">
<stop stop-color="#36835C"/>
<stop offset="1" stop-color="#7C8C33" stop-opacity="0"/>
</linearGradient>
<linearGradient id="paint6_linear_54_5" x1="1319.15" y1="222.5" x2="1319.15" y2="1378" gradientUnits="userSpaceOnUse">
<stop stop-color="#368372"/>
<stop offset="1" stop-color="#3DA774"/>
</linearGradient>
</defs>
</svg>
