<?xml version="1.0" encoding="utf-8"?>
<!-- Generator: Adobe Illustrator 26.4.1, SVG Export Plug-In . SVG Version: 6.00 Build 0)  -->
<svg version="1.1" id="Layer_1" xmlns="http://www.w3.org/2000/svg" xmlns:xlink="http://www.w3.org/1999/xlink" x="0px" y="0px"
	 viewBox="0 0 512 512" style="enable-background:new 0 0 512 512;" xml:space="preserve">
<path d="M418.8,107.8c-0.1-0.3-0.3-0.4-0.6-0.6c-30.3-13.9-62.4-23.8-95.3-29.5c-0.6-0.1-1.2,0.2-1.5,0.7c-4.4,7.9-8.3,16-11.9,24.4
	c-35.5-5.4-71.5-5.4-107,0c-3.6-8.3-7.6-16.5-12-24.4c-0.3-0.5-0.9-0.8-1.5-0.7c-32.9,5.7-64.9,15.6-95.3,29.5
	c-0.3,0.1-0.5,0.3-0.6,0.5c-60.7,90.6-77.3,179-69.1,266.3c0,0.4,0.3,0.8,0.6,1.1c35.3,26.2,74.8,46.1,116.9,59
	c0.6,0.2,1.3,0,1.6-0.5c9-12.3,17-25.3,23.9-38.9c0.4-0.7,0.1-1.6-0.7-2c-0.1,0-0.1,0-0.2-0.1c-12.6-4.8-24.8-10.6-36.5-17.4
	c-0.7-0.4-1-1.3-0.5-2.1c0.1-0.2,0.2-0.3,0.4-0.4c2.5-1.8,4.9-3.7,7.3-5.7c0.4-0.3,1-0.4,1.5-0.2c76.6,35,159.5,35,235.2,0
	c0.5-0.2,1.1-0.2,1.5,0.2c2.3,1.9,4.8,3.9,7.3,5.7c0.7,0.5,0.8,1.4,0.3,2.1c-0.1,0.2-0.3,0.3-0.4,0.4c-11.7,6.8-23.9,12.6-36.5,17.4
	c-0.8,0.3-1.2,1.2-0.9,1.9c0,0.1,0,0.1,0.1,0.2c7,13.5,15,26.5,23.9,38.9c0.4,0.5,1,0.7,1.6,0.6c42.1-12.9,81.7-32.8,117.1-59
	c0.3-0.3,0.6-0.6,0.6-1.1C497.7,273.2,471.6,185.5,418.8,107.8z M178.4,320.9c-23.1,0-42.1-21.2-42.1-47.1s18.6-47.2,42.1-47.2
	c23.6,0,42.4,21.3,42.1,47.1C220.4,299.8,201.8,320.9,178.4,320.9z M333.9,320.9c-23.1,0-42.1-21.2-42.1-47.1s18.6-47.2,42.1-47.2
	c23.6,0,42.4,21.3,42.1,47.1C376,299.8,357.5,320.9,333.9,320.9z"/>
</svg>
