<?xml version="1.0" encoding="utf-8"?>
<!-- Generator: Adobe Illustrator 26.4.1, SVG Export Plug-In . SVG Version: 6.00 Build 0)  -->
<svg version="1.1" id="Layer_1" xmlns="http://www.w3.org/2000/svg" xmlns:xlink="http://www.w3.org/1999/xlink" x="0px" y="0px"
	 viewBox="0 0 496 512" style="enable-background:new 0 0 496 512;" xml:space="preserve">
<path d="M472.8,114.8c-6.2,65.5-33.2,224.5-47,297.9c-5.8,31-17.2,41.5-28.3,42.5c-24.1,2.2-42.3-15.9-65.6-31.2
	c-36.5-23.9-57.1-38.8-92.5-62.1c-40.9-27-14.4-41.8,8.9-66c6.1-6.3,112.1-102.8,114.2-111.5c0.3-1.1,0.5-5.2-1.9-7.3
	c-2.4-2.2-6-1.4-8.6-0.8c-3.7,0.8-61.9,39.3-174.8,115.5c-16.5,11.3-31.5,16.9-44.9,16.6C117.5,308,89,300,67.9,293.1
	c-25.9-8.4-46.6-12.9-44.8-27.2c0.9-7.5,11.2-15.1,30.8-22.9c120.8-52.6,201.3-87.3,241.6-104.1c115.1-47.9,139-56.2,154.6-56.5
	c3.4-0.1,11.1,0.8,16.1,4.8c3.3,2.9,5.4,6.9,5.9,11.2C473,103.9,473.2,109.3,472.8,114.8z"/>
</svg>
