<svg width="24" height="24" viewBox="0 0 24 24" fill="none" xmlns="http://www.w3.org/2000/svg">
<path d="M19.5 6.5L20.4343 7.33045C20.8552 6.85685 20.8552 6.14315 20.4343 5.66955L19.5 6.5ZM16.4343 1.16955C15.9756 0.653567 15.1855 0.607091 14.6695 1.06574C14.1536 1.52439 14.1071 2.31448 14.5657 2.83045L16.4343 1.16955ZM14.5657 10.1695C14.1071 10.6855 14.1536 11.4756 14.6695 11.9343C15.1855 12.3929 15.9756 12.3464 16.4343 11.8305L14.5657 10.1695ZM0.75 10.5C0.75 11.1904 1.30964 11.75 2 11.75C2.69036 11.75 3.25 11.1904 3.25 10.5H0.75ZM6 7.75H19.5V5.25H6V7.75ZM14.5657 2.83045L18.5657 7.33045L20.4343 5.66955L16.4343 1.16955L14.5657 2.83045ZM16.4343 11.8305L20.4343 7.33045L18.5657 5.66955L14.5657 10.1695L16.4343 11.8305ZM3.25 10.5C3.25 8.98122 4.48122 7.75 6 7.75V5.25C3.10051 5.25 0.75 7.60051 0.75 10.5H3.25Z" fill="#227386"/>
<path opacity="0.4" d="M4.5 18L3.56574 17.1695C3.14475 17.6432 3.14475 18.3568 3.56574 18.8305L4.5 18ZM7.56574 23.3305C8.02439 23.8464 8.81448 23.8929 9.33045 23.4343C9.84643 22.9756 9.89291 22.1855 9.43426 21.6695L7.56574 23.3305ZM9.43426 14.3305C9.89291 13.8145 9.84643 13.0244 9.33046 12.5657C8.81448 12.1071 8.02439 12.1536 7.56574 12.6695L9.43426 14.3305ZM23.25 14C23.25 13.3096 22.6904 12.75 22 12.75C21.3096 12.75 20.75 13.3096 20.75 14L23.25 14ZM18 16.75L4.5 16.75L4.5 19.25L18 19.25L18 16.75ZM9.43426 21.6695L5.43426 17.1695L3.56574 18.8305L7.56574 23.3305L9.43426 21.6695ZM7.56574 12.6695L3.56574 17.1695L5.43426 18.8305L9.43426 14.3305L7.56574 12.6695ZM20.75 14C20.75 15.5188 19.5188 16.75 18 16.75L18 19.25C20.8995 19.25 23.25 16.8995 23.25 14L20.75 14Z" fill="#227386"/>
</svg>
