<svg width="2000" height="2000" viewBox="0 0 2000 2000" fill="none" xmlns="http://www.w3.org/2000/svg">
<circle cx="1476" cy="473" r="250" fill="#B4FCAF"/>
<path d="M1380 311C1420 293.4 1437.5 289.667 1444.5 297C1438.83 297 1430 305.382 1413 325C1400 340 1397 357 1422 370C1447 383 1481 345 1491 359C1501 373 1321 462 1356 532C1442.76 705.528 1527 464 1549 422C1571 380 1579 402 1587 415C1595 428 1547.48 481.978 1574 499C1655 551 1643 443 1655 458C1682.73 492.659 1642 647 1655 660C1668 673 1729.87 607.068 1739 499C1745 428 1748 331 1587 232C1426 133 1212 265 1209 311C1206 357 1330 333 1380 311Z" fill="#E8FFBB"/>
<path d="M1304 265C1285.6 249.8 1331 223.333 1356 212C1291 229 1178 283 1209 325C1245.11 373.927 1423 294 1431 299C1439 304 1386.84 332.981 1409 358C1440 393 1477 352 1491 358C1502.2 362.8 1438 400 1396 438C1366 465.143 1322 500 1370 568C1418 636 1472.33 576.333 1491 541C1514.33 492 1564.8 396.6 1580 407C1599 420 1528.82 504.273 1575 512C1652.68 525 1643 477 1653 458C1663 439 1614 666 1660 666C1713 666 1740 597.569 1740 541V449C1723 493 1727 504 1698 541C1668.12 579.118 1665.33 491.667 1667 407C1654 429 1624.2 484.8 1605 488C1585.8 491.2 1623.12 438 1614 407C1610.67 395.667 1598.2 370 1575 358C1546 343 1533 445 1504 419C1480.8 398.2 1477 402 1524 339C1497 339 1498 339 1460 334C1432.14 330.334 1459 290.667 1477 272C1427 276 1322.4 280.2 1304 265Z" fill="url(#paint0_linear_3_146)"/>
<circle cx="1132" cy="437" r="250" fill="#71D679"/>
<path d="M746 227C710 175.8 1022.5 180.5 1022.5 180.5C1022.5 180.5 1110.6 176.8 1209 192C1307.4 207.2 1355.33 303.667 1367 350C1368 364.333 1362.4 393.2 1332 394C1294 395 1305.2 305.136 1282 302.5C1260 300 1254 338.5 1233 334.5C1212 330.5 1194 286 1171 282C1148 278 1104 308 1080 300C1056 292 1085.5 277 1100 262.5C1112.35 250.151 1048.5 253.5 1017.5 256.5C986.5 259.5 791 291 746 227Z" fill="#E8FFBB"/>
<path d="M1070 295.5C1065.63 287.255 1088.17 269.5 1101 259.5C1103 262.333 1097.5 278.5 1105.5 278.5C1116.11 278.5 1170 259.5 1186.5 259.5C1203 259.5 1225 299.5 1249 295.5C1296.51 287.581 1260 209.827 1269 213.5C1293.5 223.5 1325.77 260.489 1331.5 270C1361 319 1365 342 1368 351.5C1368 377 1352.5 396 1326 396C1293.35 396 1296.5 312 1284 304C1271.5 296 1254.5 331.5 1235.5 337C1216.5 342.5 1188.53 277.25 1170 283.5C1085.5 312 1074.5 304 1070 295.5Z" fill="#ACE196"/>
<path d="M998 180.5C923.006 181.434 869 184.667 827.5 188.5C827.5 188.5 927.968 197.5 992.5 197.5C1098.5 197.5 1192.5 189.5 1192.5 189.5C1143.5 181.5 1118.5 179 998 180.5Z" fill="#F9FFEC"/>
<ellipse cx="1035" cy="201" rx="59" ry="17" fill="#F9FFEC"/>
<path d="M496 308L537 262L557 353L569 321L583 382L590 364C592 370.667 596.2 387.6 597 402C597.8 416.4 592.667 445.333 590 458L606 453C606 488.5 601.301 529.352 569 559C549.12 577.247 514.025 586.813 506.222 588.939L506 589C483.667 594.333 430.8 593.6 398 548C365.2 502.4 374.333 435 383 407L398 423.5C397.333 416.833 401 399 405 389C409 379 428.333 348.667 439 339L447 353L490 287L496 308Z" fill="url(#paint1_linear_3_146)"/>
<path d="M481.5 482C471.325 523.773 464.5 554.5 460 585C471.667 546.333 484.759 502.584 488.5 485C498.5 438 508.5 388.333 508.5 369C503.5 377.667 491 443 481.5 482Z" fill="#81BD64"/>
<path d="M647.033 285.516L643.507 243.931L697.57 276.476L687.423 255.672L723.94 277.196L718.348 265.371C722.558 267.492 732.841 273.313 740.295 279.626C747.749 285.939 759.586 301.938 764.573 309.149L769.566 298.952C787.023 315.485 804.923 336.821 804.46 366.513C804.174 384.787 792.534 406.5 789.946 411.327L789.872 411.465C782.094 424.931 757.112 450.587 719.413 445.479C681.713 440.372 652.823 404.491 643.09 387.189L658.19 387.497C654.601 384.721 647.539 374.612 644.484 367.988C641.43 361.364 635.517 337.73 635.731 327.983L646.341 330.569L633.912 278.686L647.033 285.516Z" fill="url(#paint2_linear_3_146)"/>
<path d="M725.844 373.681C741.647 398.139 753.579 415.805 766.482 432.222C752.901 408.478 737.484 381.665 730.58 371.636C712.125 344.829 692.358 316.781 682.851 307.777C684.784 314.272 711.09 350.846 725.844 373.681Z" fill="#81BD64"/>
<path d="M1000 1712C1386.6 1712 1700 1398.6 1700 1012C1700 625.401 1386.6 312 1000 312C613.401 312 300 625.401 300 1012C300 1398.6 613.401 1712 1000 1712Z" fill="#0C9A73"/>
<path d="M1006.5 1617C1337.04 1617 1605 1349.04 1605 1018.5C1605 687.958 1337.04 420 1006.5 420C675.958 420 408 687.958 408 1018.5C408 1349.04 675.958 1617 1006.5 1617Z" fill="#0AC18E" stroke="white" stroke-width="10"/>
<path d="M1191.45 819.556C1161.64 751.949 1093.13 737.494 1009.26 751.498L982.309 647L918.768 663.412L945.268 767.609C928.555 771.825 911.39 775.439 894.375 780.257L867.875 676.663L804.334 693.075L831.286 797.573C817.584 801.488 703 830.849 703 830.849L720.466 898.908C720.466 898.908 767.143 885.808 766.691 886.862C792.59 880.087 804.786 893.036 810.508 905.232L884.588 1191.62C885.492 1199.9 883.986 1214.06 866.219 1218.88C867.273 1219.48 819.994 1230.77 819.994 1230.77L826.92 1310.12C826.92 1310.12 940.45 1281.06 955.357 1277.3L982.61 1383L1046.15 1366.59L1018.9 1260.13C1036.36 1256.07 1053.38 1251.85 1069.94 1247.48L1097.04 1353.34L1160.58 1336.92L1133.33 1231.37C1231.2 1207.58 1300.31 1145.85 1286.16 1051.44C1277.13 994.522 1214.94 947.844 1163.29 942.574C1195.07 914.417 1211.18 873.311 1191.45 819.556ZM1160.89 1068.75C1173.53 1162.26 1043.59 1173.7 1000.68 1185L963.337 1045.11C1006.4 1033.82 1139.5 986.391 1160.89 1068.75ZM1082.59 878.28C1095.99 961.396 984.869 971.033 949.033 980.218L915.004 853.285C950.99 844.401 1055.34 801.337 1082.59 878.28Z" fill="white"/>
<g style="mix-blend-mode:multiply">
<path d="M688 1637C1078 1833 1522 1625 1658 1249C1658 1249 1386.6 1409 1000 1409C398 1397 367.649 699.208 338 781C214.025 1123 379.988 1482.2 688 1637Z" fill="#0F614A" fill-opacity="0.5"/>
</g>
<path d="M772 1511C629.6 1571.8 464 1433 418 1465C358 1506.74 836 1821.52 1366 1701C1784 1605.95 1800 1129 1812 1089C1824 1049 1896 999 1918 977C1940 955 1842 929 1812 949C1782 969 1764 973 1724 1015C1684 1057 1774 719 1690 755C1606 791 1624 943 1586 1163C1548 1383 1494 1435 1442 1433C1390 1431 1566 1195 1542 1179C1518 1163 1328 1317 1254 1373C1166.98 1438.85 1083.33 1458.33 1040 1465C1059.33 1445 1091.6 1406.6 1082 1373C1070 1331 950 1435 772 1511Z" fill="url(#paint3_linear_3_146)"/>
<path d="M1504 1655C1695 1550 1769 1425 1803 1141C1755 1249 1697.78 1488.35 1528 1601C1360 1712.47 1162.67 1706.33 1060 1729C1144 1727.67 1310.92 1761.15 1504 1655Z" fill="#E8FFBB"/>
<path d="M1191 1415C1139 1440.6 1068.67 1460.33 1040 1467C1104.33 1464.33 1204.97 1479.37 1295 1435C1406.41 1380.09 1456.67 1263.33 1504 1190C1436 1223 1243 1389.4 1191 1415Z" fill="#E8FFBB"/>
<path d="M1624 866C1634.4 813.2 1655 781.333 1664 772C1667.67 782.667 1664 804 1664 824C1664 846.825 1662.1 1077.43 1635 1187C1612 1280 1547.33 1368.67 1521 1380C1531.4 1362.4 1576.33 1257.33 1585 1176C1593.67 1094.67 1613.6 918.8 1624 866Z" fill="#E8FFBB"/>
<ellipse cx="1652.9" cy="1104.74" rx="39" ry="91" transform="rotate(6.76184 1652.9 1104.74)" fill="#E8FFBB"/>
<path d="M486.452 1673.38C486.452 1673.38 408.378 1619.79 278.452 1595.38C188.26 1578.43 122.452 1577.38 146.452 1495.38C170.452 1413.38 270.204 1434.31 341.514 1475.38C412.825 1516.45 486.452 1629.38 486.452 1673.38Z" fill="url(#paint4_linear_3_146)"/>
<path d="M1890.05 670.236C1867.04 715.538 1769 913.5 1757.5 916.5C1737.5 888.5 1749.2 689 1767.5 636C1791.5 566.5 1832.06 537.598 1867.52 555.605C1902.97 573.612 1913.06 624.934 1890.05 670.236Z" fill="#A2FD9C"/>
<path d="M236 1022C226.4 1024.4 232 1049.67 236 1062C223 1085.33 182 1139 226 1242C259.504 1320.43 360.5 1363.5 407.5 1341C416.833 1344.33 430 1355.5 442.5 1351C446.667 1349.5 448.833 1335.33 448.5 1323C468.5 1301 516 1227 465 1120C418.522 1022.49 319.334 1016 268 1028C261.334 1025 245.6 1019.6 236 1022Z" fill="url(#paint5_linear_3_146)"/>
<ellipse cx="290" cy="1195.75" rx="8.16667" ry="8.75" fill="#066A4A" fill-opacity="0.3"/>
<ellipse cx="322.667" cy="1296.08" rx="5.83333" ry="6.41667" fill="#066A4A" fill-opacity="0.3"/>
<circle cx="351.25" cy="1322.92" r="4.08333" fill="#066A4A" fill-opacity="0.3"/>
<circle cx="394.417" cy="1319.42" r="4.08333" fill="#066A4A" fill-opacity="0.3"/>
<ellipse cx="361.167" cy="1303.08" rx="5.83333" ry="6.41667" fill="#066A4A" fill-opacity="0.3"/>
<ellipse cx="355.333" cy="1271.58" rx="8.16667" ry="8.75" fill="#066A4A" fill-opacity="0.3"/>
<ellipse cx="386.833" cy="1275.08" rx="8.16667" ry="8.75" fill="#066A4A" fill-opacity="0.3"/>
<ellipse cx="343.667" cy="1250.58" rx="4.66667" ry="5.25" fill="#066A4A" fill-opacity="0.3"/>
<ellipse cx="374" cy="1250.58" rx="4.66667" ry="5.25" fill="#066A4A" fill-opacity="0.3"/>
<circle cx="325" cy="1266.33" r="3.5" fill="#066A4A" fill-opacity="0.3"/>
<circle cx="376.333" cy="1323.5" r="3.5" fill="#066A4A" fill-opacity="0.3"/>
<circle cx="383.333" cy="1293.17" r="3.5" fill="#066A4A" fill-opacity="0.3"/>
<circle cx="321.5" cy="1241.83" r="3.5" fill="#066A4A" fill-opacity="0.3"/>
<circle cx="272.5" cy="1241.83" r="3.5" fill="#066A4A" fill-opacity="0.3"/>
<circle cx="294.667" cy="1293.17" r="3.5" fill="#066A4A" fill-opacity="0.3"/>
<circle cx="343.667" cy="1208" r="3.5" fill="#066A4A" fill-opacity="0.3"/>
<circle cx="420.667" cy="1254.67" r="3.5" fill="#066A4A" fill-opacity="0.3"/>
<circle cx="413.667" cy="1300.17" r="3.5" fill="#066A4A" fill-opacity="0.3"/>
<ellipse cx="295.833" cy="1266.92" rx="4.66667" ry="5.25" fill="#066A4A" fill-opacity="0.3"/>
<ellipse cx="300.5" cy="1227.25" rx="4.66667" ry="5.25" fill="#066A4A" fill-opacity="0.3"/>
<path d="M451 1096.5C421.166 1051.75 376.667 1034 348.5 1027.5C369.5 1050.5 412.787 1094.99 425 1112C439 1131.5 477.5 1174.83 487.5 1201.5C486.667 1191.33 482 1143 451 1096.5Z" fill="#9BD674"/>
<ellipse cx="421.703" cy="1117.66" rx="17" ry="50" transform="rotate(-35.1823 421.703 1117.66)" fill="#9BD674"/>
<path d="M669.828 1284.32C674.929 1285.59 671.954 1299.02 669.828 1305.57C676.736 1317.97 698.524 1346.49 675.142 1401.23C657.338 1442.9 603.668 1465.79 578.693 1453.84C573.733 1455.61 566.736 1461.54 560.093 1459.15C557.879 1458.35 556.728 1450.82 556.905 1444.27C546.277 1432.58 521.035 1393.26 548.137 1336.4C572.835 1284.58 625.544 1281.13 652.823 1287.51C656.366 1285.91 664.726 1283.04 669.828 1284.32Z" fill="url(#paint6_linear_3_146)"/>
<ellipse cx="4.33978" cy="4.64977" rx="4.33978" ry="4.64977" transform="matrix(-1 0 0 1 645.472 1372)" fill="#066A4A" fill-opacity="0.3"/>
<ellipse cx="3.09985" cy="3.40983" rx="3.09985" ry="3.40983" transform="matrix(-1 0 0 1 626.873 1426.56)" fill="#066A4A" fill-opacity="0.3"/>
<circle cx="2.16989" cy="2.16989" r="2.16989" transform="matrix(-1 0 0 1 610.754 1442.06)" fill="#066A4A" fill-opacity="0.3"/>
<circle cx="2.16989" cy="2.16989" r="2.16989" transform="matrix(-1 0 0 1 587.815 1440.2)" fill="#066A4A" fill-opacity="0.3"/>
<ellipse cx="3.09985" cy="3.40983" rx="3.09985" ry="3.40983" transform="matrix(-1 0 0 1 606.414 1430.28)" fill="#066A4A" fill-opacity="0.3"/>
<ellipse cx="4.33978" cy="4.64977" rx="4.33978" ry="4.64977" transform="matrix(-1 0 0 1 610.754 1412.3)" fill="#066A4A" fill-opacity="0.3"/>
<ellipse cx="4.33978" cy="4.64977" rx="4.33978" ry="4.64977" transform="matrix(-1 0 0 1 594.015 1414.16)" fill="#066A4A" fill-opacity="0.3"/>
<ellipse cx="2.47988" cy="2.78986" rx="2.47988" ry="2.78986" transform="matrix(-1 0 0 1 615.094 1403)" fill="#066A4A" fill-opacity="0.3"/>
<ellipse cx="2.47988" cy="2.78986" rx="2.47988" ry="2.78986" transform="matrix(-1 0 0 1 598.974 1403)" fill="#066A4A" fill-opacity="0.3"/>
<circle cx="1.85991" cy="1.85991" r="1.85991" transform="matrix(-1 0 0 1 624.393 1412.3)" fill="#066A4A" fill-opacity="0.3"/>
<circle cx="1.85991" cy="1.85991" r="1.85991" transform="matrix(-1 0 0 1 597.115 1442.68)" fill="#066A4A" fill-opacity="0.3"/>
<circle cx="1.85991" cy="1.85991" r="1.85991" transform="matrix(-1 0 0 1 593.395 1426.56)" fill="#066A4A" fill-opacity="0.3"/>
<circle cx="1.85991" cy="1.85991" r="1.85991" transform="matrix(-1 0 0 1 626.253 1399.28)" fill="#066A4A" fill-opacity="0.3"/>
<circle cx="1.85991" cy="1.85991" r="1.85991" transform="matrix(-1 0 0 1 652.292 1399.28)" fill="#066A4A" fill-opacity="0.3"/>
<circle cx="1.85991" cy="1.85991" r="1.85991" transform="matrix(-1 0 0 1 640.512 1426.56)" fill="#066A4A" fill-opacity="0.3"/>
<circle cx="1.85991" cy="1.85991" r="1.85991" transform="matrix(-1 0 0 1 614.474 1381.3)" fill="#066A4A" fill-opacity="0.3"/>
<circle cx="1.85991" cy="1.85991" r="1.85991" transform="matrix(-1 0 0 1 573.556 1406.1)" fill="#066A4A" fill-opacity="0.3"/>
<circle cx="1.85991" cy="1.85991" r="1.85991" transform="matrix(-1 0 0 1 577.275 1430.28)" fill="#066A4A" fill-opacity="0.3"/>
<ellipse cx="2.47988" cy="2.78986" rx="2.47988" ry="2.78986" transform="matrix(-1 0 0 1 640.512 1411.68)" fill="#066A4A" fill-opacity="0.3"/>
<ellipse cx="2.47988" cy="2.78986" rx="2.47988" ry="2.78986" transform="matrix(-1 0 0 1 638.032 1390.6)" fill="#066A4A" fill-opacity="0.3"/>
<path d="M555.576 1323.91C571.431 1300.13 595.077 1290.69 610.045 1287.24C598.886 1299.46 575.883 1323.1 569.393 1332.14C561.953 1342.51 541.494 1365.53 536.18 1379.7C536.623 1374.3 539.103 1348.62 555.576 1323.91Z" fill="#9BD674"/>
<ellipse cx="9.03383" cy="26.5701" rx="9.03383" ry="26.5701" transform="matrix(-0.817323 -0.57618 -0.57618 0.817323 593.837 1318.64)" fill="#9BD674"/>
<path d="M481.585 933.385C426.597 953.886 366.937 951.287 315.73 926.16C264.523 901.032 225.963 855.434 208.533 799.397C191.104 743.36 196.231 681.474 222.789 627.353C249.346 573.233 295.158 531.31 350.146 510.809L415.865 722.097L481.585 933.385Z" fill="url(#paint7_linear_3_146)"/>
<path d="M467.636 890.263C423.335 904.163 375.327 899.895 334.173 878.398C293.018 856.902 262.089 819.937 248.189 775.636C234.289 731.335 238.557 683.327 260.053 642.173C281.55 601.018 318.515 570.089 362.815 556.189L415.226 723.226L467.636 890.263Z" fill="#9BD674"/>
<path d="M383.561 680.001C383.561 680.001 346 652.123 328.004 630.598C310.007 609.073 316.966 603.241 318.388 602.052C319.81 600.863 328.026 594.008 346.022 615.533C364.019 637.058 383.561 680.001 383.561 680.001Z" fill="#B9FD8C"/>
<path d="M409.4 773.704C409.4 773.704 427.289 816.924 431.663 844.638C436.037 872.352 427.069 873.778 425.239 874.067C423.408 874.356 412.837 876.014 408.463 848.299C404.09 820.585 409.4 773.704 409.4 773.704Z" fill="#B9FD8C"/>
<path d="M388.223 695.106C388.223 695.106 332.642 684.943 300.827 672.399C269.012 659.854 272.331 651.403 273.011 649.678C273.69 647.954 277.627 638.005 309.442 650.549C341.257 663.093 388.223 695.106 388.223 695.106Z" fill="#B9FD8C"/>
<path d="M401.547 753.705C401.547 753.705 395.632 809.898 385.538 842.573C375.444 875.248 366.765 872.58 364.994 872.033C363.223 871.486 353.004 868.316 363.097 835.641C373.191 802.965 401.547 753.705 401.547 753.705Z" fill="#B9FD8C"/>
<path d="M392.3 717.691C392.3 717.691 333.337 726.764 297.175 725.62C261.014 724.476 261.288 715.4 261.346 713.547C261.405 711.695 261.756 701 297.918 702.145C334.08 703.289 392.3 717.691 392.3 717.691Z" fill="#B9FD8C"/>
<path d="M396.079 741.613C396.079 741.613 347.395 776.092 322.202 802.059C297.009 828.027 303.517 834.359 304.847 835.65C306.178 836.94 313.867 844.381 339.06 818.414C364.252 792.447 396.079 741.613 396.079 741.613Z" fill="#B9FD8C"/>
<path d="M389.78 729.812C389.78 729.812 341.322 758.87 309.143 770.451C276.965 782.031 273.878 773.491 273.251 771.747C272.623 770.003 269.012 759.931 301.19 748.351C333.369 736.771 389.78 729.812 389.78 729.812Z" fill="#B9FD8C"/>
<path d="M1611 246C1526.5 190.84 1471.5 194 1430.5 197.5C1463.5 204 1558.78 242.567 1606 277C1654 312 1712.33 361.667 1731 392C1728 363 1683 293 1611 246Z" fill="#F9FFEC"/>
<ellipse cx="1612.83" cy="292.761" rx="62.5297" ry="35.5" transform="rotate(46.3921 1612.83 292.761)" fill="#F9FFEC"/>
<defs>
<linearGradient id="paint0_linear_3_146" x1="1418" y1="212" x2="1482" y2="589" gradientUnits="userSpaceOnUse">
<stop offset="0.0110132" stop-color="#B4EF9F"/>
<stop offset="1" stop-color="#7FC77E"/>
</linearGradient>
<linearGradient id="paint1_linear_3_146" x1="490.435" y1="262" x2="490.435" y2="591.257" gradientUnits="userSpaceOnUse">
<stop stop-color="#579262"/>
<stop offset="1" stop-color="#2B6736"/>
</linearGradient>
<linearGradient id="paint2_linear_3_146" x1="621.821" y1="266.829" x2="783.733" y2="420.17" gradientUnits="userSpaceOnUse">
<stop stop-color="#579262"/>
<stop offset="1" stop-color="#2B6736"/>
</linearGradient>
<linearGradient id="paint3_linear_3_146" x1="1470" y1="1377" x2="490" y2="1728" gradientUnits="userSpaceOnUse">
<stop stop-color="#A2FC9B"/>
<stop offset="1" stop-color="#0AC18E"/>
</linearGradient>
<linearGradient id="paint4_linear_3_146" x1="222" y1="1497" x2="524" y2="1699" gradientUnits="userSpaceOnUse">
<stop stop-color="#3ECF90"/>
<stop offset="1" stop-color="#A2FD9C"/>
</linearGradient>
<linearGradient id="paint5_linear_3_146" x1="346.994" y1="1021.4" x2="346.994" y2="1352.05" gradientUnits="userSpaceOnUse">
<stop stop-color="#8BC76B"/>
<stop offset="1" stop-color="#5A8F3D"/>
</linearGradient>
<linearGradient id="paint6_linear_3_146" x1="610.846" y1="1284" x2="610.846" y2="1459.71" gradientUnits="userSpaceOnUse">
<stop stop-color="#8BC76B"/>
<stop offset="1" stop-color="#5A8F3D"/>
</linearGradient>
<linearGradient id="paint7_linear_3_146" x1="305.948" y1="648.88" x2="466.179" y2="930.147" gradientUnits="userSpaceOnUse">
<stop stop-color="#81BC63"/>
<stop offset="1" stop-color="#6B9A52"/>
</linearGradient>
</defs>
</svg>
