<svg width="2000" height="2000" viewBox="0 0 2000 2000" fill="none" xmlns="http://www.w3.org/2000/svg">
<g clip-path="url(#clip0_61_392)">
<path d="M504 1727C408 1677 406 1641 360 1581C340.403 1555.44 322.779 1443.96 290 1337C261.225 1243.11 232.001 1263 214 1149C195.999 1035 384 855 384 855C368.667 897.667 426.8 1114.6 430 1241C434 1399 544 1375 606 1477C668 1579 1092 1597 1304 1565C1516 1533 1600 1163 1638 1051C1668.4 961.4 1440 653.667 1322 511C1374 529.667 1500.4 570.2 1590 583C1702 599 1746 837 1802 955C1858 1073 1814 1233 1766 1289C1718.38 1344.56 1723.91 1384.37 1733.77 1455.31L1734 1457C1744 1529 1662 1635 1590 1665C1518 1695 1426 1799.72 1346 1831.72C1266 1863.72 1007.49 1746.32 884 1799.72C810 1831.72 600 1777 504 1727Z" fill="#F2E885"/>
<path d="M1339.71 1661.4C1326.61 1671.56 1321.01 1686.26 1327.19 1694.22C1333.37 1702.19 1349 1700.4 1362.09 1690.24C1375.19 1680.08 1377.44 1661.07 1374.61 1657.42C1371.78 1653.77 1352.8 1651.24 1339.71 1661.4Z" fill="#5D8016"/>
<path d="M1264.95 1702.6C1249.31 1697.1 1233.93 1700.36 1230.59 1709.88C1227.24 1719.39 1237.21 1731.55 1252.85 1737.04C1268.49 1742.54 1285.68 1734.13 1287.21 1729.77C1288.75 1725.41 1280.59 1708.09 1264.95 1702.6Z" fill="#5D8016"/>
<path d="M1212.57 1712.04C1198.84 1702.77 1183.13 1702.03 1177.49 1710.38C1171.85 1718.74 1178.41 1733.03 1192.15 1742.3C1205.89 1751.57 1224.66 1747.79 1227.24 1743.96C1229.83 1740.13 1226.31 1721.31 1212.57 1712.04Z" fill="#5D8016"/>
<path d="M988.299 1755.79C974.56 1746.52 958.85 1745.77 953.211 1754.13C947.572 1762.49 954.138 1776.78 967.876 1786.05C981.615 1795.32 1000.38 1791.54 1002.96 1787.71C1005.55 1783.87 1002.04 1765.06 988.299 1755.79Z" fill="#5D8016"/>
<path d="M948.161 1760.94C943.766 1744.95 932.322 1734.17 922.601 1736.84C912.88 1739.51 908.563 1754.64 912.958 1770.62C917.353 1786.6 934.062 1795.94 938.518 1794.71C942.973 1793.49 952.556 1776.92 948.161 1760.94Z" fill="#5D8016"/>
<path d="M858.462 1751C840.099 1747.53 823.501 1753.77 821.39 1764.94C819.279 1776.11 832.454 1787.98 850.817 1791.45C869.18 1794.92 886.921 1782.63 887.889 1777.51C888.857 1772.39 876.825 1754.47 858.462 1751Z" fill="#5D8016"/>
<path d="M783.249 1704.93C764.561 1704.77 749.333 1713.85 749.235 1725.22C749.138 1736.59 764.208 1745.93 782.896 1746.09C801.583 1746.25 816.864 1731.01 816.909 1725.8C816.954 1720.59 801.936 1705.09 783.249 1704.93Z" fill="#5D8016"/>
<path d="M895.743 1805.85C883.182 1815.71 877.862 1829.9 883.86 1837.54C889.858 1845.18 904.902 1843.38 917.463 1833.52C930.023 1823.66 932.094 1805.34 929.345 1801.83C926.596 1798.33 908.303 1795.99 895.743 1805.85Z" fill="#5D8016"/>
<path d="M984.314 1808.05C977.949 1817.48 977.437 1828.26 983.17 1832.13C988.904 1836 998.711 1831.5 1005.08 1822.07C1011.44 1812.65 1008.85 1799.77 1006.22 1797.99C1003.59 1796.22 990.679 1798.63 984.314 1808.05Z" fill="#5D8016"/>
<path d="M1314 423C1358.8 397.4 1428.67 433.667 1458 455H1414C1378.8 455 1355.33 480.333 1348 493L1414 557L1546.5 546.5C1557.83 559.833 1587.2 581.4 1576 575C1564.8 568.6 1492.67 577.667 1458 583L1508 649L1636 629L1728 737C1722 730.333 1699.6 713.8 1658 701C1616.4 688.2 1590 706.333 1582 717C1596 737.667 1626.4 776.6 1636 767C1645.6 757.4 1706.67 777.667 1736 789L1733 840C1727.67 837.333 1717.01 824.258 1696 817C1668.5 807.5 1640 812.333 1624 817L1674 920L1688 1149C1697.19 1154.39 1719.58 1045.63 1740 1043C1762.52 1040.1 1790.96 1088.71 1796 1082C1808 1066 1758 1013 1774 1013C1786.8 1013 1824.67 1035.67 1842 1047C1848 1020 1827.6 1005.8 1818 993C1808.4 980.2 1774 963.667 1758 957C1770 952.333 1797.2 940 1818 940C1842 940 1864 945.667 1876 957C1890 940 1872 915.8 1856 903C1840 890.2 1784 897.667 1758 903C1770 885 1777.2 857 1806 817C1842 767 1900 797 1908 775C1916 753 1854.33 737 1830 737C1785 737 1768 793 1764 775C1760 757 1810 679 1842 649C1874 619 1806 621 1774 649C1758.77 662.327 1740.67 697 1736 717C1735.33 704.333 1734.4 669 1736 629C1738 579 1818 579 1830 557C1842 535 1772 527 1710 543C1660.4 555.8 1665.33 605.667 1674 629L1646 599C1642.67 580.333 1636 550 1636 510C1636 460 1646 453 1674 415C1702 377 1620.32 400.238 1598 430C1574 462 1577.33 517.667 1590 543C1579.33 526.333 1540.03 490.446 1534 455C1526 408 1593 348 1617 336C1641 324 1544.8 299.624 1508 343C1480 376 1476 403.667 1480 437C1452.67 409.667 1378 355 1298 355C1218 355 1215.33 447 1224 493C1235.33 480.333 1269.2 448.6 1314 423Z" fill="url(#paint0_linear_61_392)"/>
<path d="M1728.68 962.444C1763.65 1000.38 1743.93 1076.59 1729.7 1109.95L1719.86 1067.07C1711.99 1032.76 1682.04 1015.56 1668.06 1011.24L1620.45 1089.89L1660.32 1216.68C1649.86 1230.71 1635.41 1264.16 1639.14 1251.81C1642.88 1239.46 1617.9 1171.18 1604.95 1138.59L1551.81 1202.09L1599.94 1322.37L1515.25 1436.2C1520.41 1428.86 1531.51 1403.33 1534.68 1359.92C1537.85 1316.51 1514.27 1294.84 1502.09 1289.42C1485.07 1307.69 1453.93 1346.03 1465.43 1353.24C1476.94 1360.45 1470.85 1424.5 1466.36 1455.63L1415.98 1464.11C1417.39 1458.32 1427.75 1445.01 1430.12 1422.91C1433.23 1393.98 1422.14 1367.28 1414.02 1352.73L1324.81 1424.51L1104.75 1489.38C1101.55 1499.55 1212.56 1497.04 1219.69 1516.35C1227.56 1537.65 1186.54 1576.25 1194.21 1579.66C1212.49 1587.77 1252.96 1527.18 1256.54 1542.78C1259.4 1555.25 1245.78 1597.23 1238.61 1616.66C1266.27 1616.47 1275.55 1593.41 1285.88 1581.19C1296.21 1568.97 1304.62 1531.74 1307.54 1514.66C1314.77 1525.31 1332.88 1549.06 1337.53 1569.33C1342.9 1592.72 1342.3 1615.43 1333.94 1629.66C1353.64 1639.51 1373.2 1616.55 1382.1 1598.09C1390.99 1579.63 1371.19 1526.72 1360.17 1502.57C1380.4 1510.24 1409.3 1511 1454.73 1530.12C1511.52 1554.02 1495.25 1617.26 1518.49 1620.14C1541.72 1623.01 1543.52 1559.33 1538.07 1535.61C1528.01 1491.75 1469.62 1487.71 1486.27 1479.79C1502.92 1471.86 1590.13 1503.14 1626.53 1527.62C1662.93 1552.1 1645.76 1486.27 1611.31 1461.35C1594.92 1449.48 1557.07 1439.6 1536.54 1439.52C1548.73 1436.04 1582.96 1427.22 1622.31 1419.83C1671.49 1410.6 1689.38 1488.57 1713.51 1495.34C1737.64 1502.12 1729.78 1432.1 1700.31 1375.25C1676.74 1329.77 1629.24 1345.74 1608.44 1359.41L1631.41 1325.4C1648.86 1317.98 1676.93 1304.7 1715.92 1295.75C1764.65 1284.56 1773.71 1292.74 1817.01 1311.53C1860.31 1330.32 1819.39 1255.91 1785.39 1240.81C1748.83 1224.58 1695.32 1240.28 1673.46 1258.3C1687.32 1244.17 1713.51 1197.84 1746.71 1184.03C1790.73 1165.72 1864.19 1217.59 1881.26 1238.3C1898.32 1259.01 1900.56 1159.8 1850.05 1133.63C1811.62 1113.72 1783.76 1116.01 1752.17 1127.37C1772.7 1094.61 1809.27 1009.61 1791.38 931.637C1773.48 853.665 1683.21 871.648 1640.32 890.386C1655.2 898.598 1693.7 924.507 1728.68 962.444Z" fill="url(#paint1_linear_61_392)"/>
<path d="M327 586C377.322 528.968 479 495 545 500C521.333 464.667 498.4 384 532 320C574 240 762 247 783 254C804 261 724 284 661 330C610.6 366.8 630 455.333 646 495L327 918C310.333 835 222 705 327 586Z" fill="url(#paint2_linear_61_392)"/>
<path d="M406 365C406 418.33 451.972 445.043 481.076 453.306C484.416 454.255 487.452 451.372 486.935 447.938C483.497 425.099 478.093 389.427 471 357C464 325 448 277 433 277C418 277 406 292 406 365Z" fill="url(#paint3_linear_61_392)"/>
<path d="M320 431C392.109 416.781 451.36 459.995 471 484C480 495 388 496 356 500C316 505 296 546 249 558C223 564.639 249 445 320 431Z" fill="url(#paint4_linear_61_392)"/>
<path d="M1272 283.745C1198.56 263.938 1029.53 299.847 994.968 356.299C980.159 316.434 928.154 250.642 856.592 240.449C767.14 227.709 662.831 384.273 656.222 405.399C649.613 426.526 715.069 375.101 789.233 350.919C848.564 331.574 909.015 399.103 931.824 435.285L1456 591C1398.44 528.925 1483.75 340.856 1272 283.745Z" fill="url(#paint5_linear_61_392)"/>
<path d="M966.802 164.589C1010.05 195.789 1004.82 248.701 994.498 277.138C993.312 280.402 989.198 281.178 986.716 278.75C970.205 262.599 944.435 237.348 922.287 212.624C900.43 188.226 870.862 147.168 879.638 135.003C888.413 122.838 907.599 121.881 966.802 164.589Z" fill="url(#paint6_linear_61_392)"/>
<path d="M1070.64 133.455C1016.92 183.617 1017.31 256.951 1025.28 286.924C1028.94 300.658 1083.58 226.63 1105.54 203.018C1133 173.503 1177.95 181.27 1215.18 150.173C1235.77 132.97 1123.53 84.064 1070.64 133.455Z" fill="url(#paint7_linear_61_392)"/>
<path d="M1397 1657.5C1411 1659.5 1437.5 1643 1449 1634.5L1461 1598C1455.17 1608.33 1436.1 1631 1406.5 1639C1376.9 1647 1355.17 1649 1348 1649L1297 1677C1324.5 1669.67 1383 1655.5 1397 1657.5Z" fill="#A17D21"/>
<path d="M1699.96 1053C1699.96 1439.59 1386.59 1753 999.979 1753C613.366 1753 300 1439.59 300 1053C300 666.414 613.373 353 999.979 353C1386.59 353 1699.96 666.384 1699.96 1053Z" fill="#B9B9B9"/>
<path d="M999.934 1657.88C1334.05 1657.88 1604.86 1387.03 1604.86 1052.94C1604.86 718.827 1334.04 448 999.934 448C665.829 448 395.013 718.852 395.013 1052.94C395.013 1387.03 665.823 1657.88 999.934 1657.88Z" fill="white" stroke="white" stroke-width="10"/>
<path d="M999.935 453C668.703 453 399.655 721.994 400.077 1052.92C400.16 1119.13 410.717 1182.82 430.533 1242.39H610.024V737.707L999.935 1127.61L1389.83 737.707V1242.4H1569.36C1589.2 1182.83 1599.7 1119.14 1599.82 1052.93C1600.39 721.658 1331.2 453.08 999.935 453.08V453Z" fill="#F26822"/>
<path d="M910.266 1217.25L740.106 1047.08V1364.66H610.011L487.251 1364.68C592.55 1537.44 782.851 1653 999.935 1653C1217.02 1653 1407.33 1537.41 1512.65 1364.65H1259.73V1047.08L1089.56 1217.25L999.916 1306.89L910.272 1217.25H910.266Z" fill="#4D4D4D"/>
<path d="M179 794C172.6 767.6 187 727 195 710C195 715 196.6 732.2 202.999 761C217.221 825 295.999 837 309.999 884C323.999 931 277.999 964 272.999 999C267.999 1034 326.508 1028.81 372.999 1068C442.999 1127 413.999 1221 406.999 1236C399.999 1251 341.999 1320 318.999 1422C295.999 1524 474.999 1543 511.999 1574C548.999 1605 555.999 1635 582.999 1689C604.599 1732.2 725.333 1711 782.999 1695L814.999 1707C773.333 1715 674.799 1731.4 613.999 1733C537.999 1735 511.999 1626 495.999 1598C479.999 1570 430.999 1562 350.999 1533C270.999 1504 279.999 1406 283.999 1373C287.999 1340 324.999 1311 333.999 1258C342.999 1205 205.476 1161.54 168 1091C134 1027 171 951 187 917C203 883 187 827 179 794Z" fill="url(#paint8_linear_61_392)"/>
<path d="M124.999 1332C118.778 1311.39 128 1266.33 134 1250C133.433 1251.67 140.6 1285.77 151 1298C168 1318 203.393 1314.9 247 1332C298 1352 286 1381 286 1406C286 1431 261.825 1518.48 286 1526C331 1540 352.772 1531 388 1531C433 1531 511 1570 511 1615C501.667 1609.33 470.072 1578.64 433 1594C363 1623 313 1653 227 1615C141 1577 189 1461 196 1433C203 1405 141 1385 124.999 1332Z" fill="url(#paint9_linear_61_392)"/>
<path d="M361 1368C324.2 1396 332.333 1476.33 341 1513H350C353.667 1492 365.6 1445.2 384 1426C407 1402 500.894 1405.41 537 1355C590 1281 524 1237 537 1182C545.332 1146.75 601.467 1150 590 1064C585.2 1028 531.667 985 511 981C520.333 994.333 540.2 1028.2 545 1057C551 1093 497 1107 468 1143C439 1179 486 1242 480 1270C474 1298 407 1333 361 1368Z" fill="url(#paint10_linear_61_392)"/>
<path d="M551 1570C535.8 1587.6 544.667 1637.33 551 1660L588 1706C586.667 1690.67 573.271 1645.28 579 1630C588 1606 637 1618 680 1570C700.781 1546.8 682 1487 673 1463C664 1439 746 1398.14 746 1342C746 1266 681.333 1262.33 657 1266C668.333 1275.33 690.6 1299.6 689 1322C687 1350 618 1355 579 1387C540 1419 572 1493 579 1506C586 1519 570 1548 551 1570Z" fill="url(#paint11_linear_61_392)"/>
<path d="M584.5 1789C656.5 1789 687.667 1743 713 1714L695 1724C660 1751 636.5 1741.5 616.5 1741.5C591.5 1741.5 526.493 1706.16 511 1703C484 1697.5 454.5 1710.5 428 1708C407.476 1706.06 412 1665 372 1658C348.033 1653.81 319.5 1658 308.5 1683.5C329.5 1688 334.8 1687.3 354 1694.5C378 1703.5 357.691 1733.46 381 1754C402 1772.5 459.217 1745.99 487.5 1749C534.5 1754 557 1789 584.5 1789Z" fill="url(#paint12_linear_61_392)"/>
<path d="M230 966C245 928 230.667 851 216 816C226 838.333 247 885.704 247 909C247 941 235 973.12 235 1019C235 1078.81 286 1110 332 1146C368.8 1174.8 354.333 1235 339 1262C341 1248.33 344 1217 344 1190C344 1157.44 305 1138 264 1105C223 1072 210.142 1016.31 230 966Z" fill="#73D4C0"/>
<path d="M500 1165C522 1143 550.666 1103.67 566 1078C554.666 1100.33 528.6 1149 515 1165C498 1185 515 1245 515 1285C515 1322.66 509 1326 433 1366C382.138 1392.77 354.557 1437.03 345.923 1468.35C344.316 1475.24 343.313 1481.09 343 1485C343.272 1480.1 344.236 1474.47 345.923 1468.35C351.167 1445.88 362.845 1412.35 378 1399C420 1362 488.994 1330.08 500 1311C515 1285 484.188 1180.81 500 1165Z" fill="#73D5C0"/>
<path d="M235 1409C242.052 1375.15 167 1335 159 1332C173.333 1336.33 195.6 1349.8 218 1365C230 1373.14 259 1374 230 1489C199.248 1610.95 335.867 1561 396 1561C456 1561 489.667 1583.67 499 1601C491.667 1593.33 469 1576.2 437 1569C397 1560 316 1586 253 1578C190 1570 230 1433 235 1409Z" fill="#73D4C0"/>
<path d="M405 1735C395.383 1728.78 381.333 1696.67 374 1689C378.667 1690.67 396.008 1713.96 405 1727C415 1741.5 488 1723.57 500 1727C543 1739.31 579 1771.34 596.5 1770.5C634.421 1768.69 666.667 1743.83 685 1739C665.667 1746.33 619.7 1777.1 596.5 1775.5C567.5 1773.5 526.5 1744 506.5 1735C486.5 1726 422 1746 405 1735Z" fill="#73D4C0"/>
<path d="M687 1353C718.2 1336.2 708.667 1306 700 1293L700.202 1293.29C704.931 1300.04 714.057 1313.07 718 1332C723 1356 627.607 1383.42 611 1401C594 1419 624 1480 627 1511C630 1542 624 1547 587 1577C557.4 1601 560.667 1649.33 568 1668C565 1660.67 559 1639 559 1611C559 1576 587 1568 611 1534C635 1500 598 1454 595 1421C592 1388 648 1374 687 1353Z" fill="#73D4C0"/>
<path d="M1633.27 1548.99C1643.28 1566.1 1643.31 1584.71 1633.32 1590.54C1623.34 1596.38 1607.13 1587.24 1597.12 1570.13C1587.11 1553.02 1592.5 1531.25 1597.08 1528.57C1601.65 1525.9 1623.27 1531.87 1633.27 1548.99Z" fill="#5D8016"/>
<path d="M1602.34 1615.28C1603.57 1630.35 1596.48 1643.22 1586.51 1644.04C1576.54 1644.85 1567.46 1633.3 1566.23 1618.23C1565 1603.16 1577.48 1589.85 1582.06 1589.47C1586.63 1589.1 1601.11 1600.21 1602.34 1615.28Z" fill="#5D8016"/>
<path d="M1576.34 1667.28C1577.57 1682.35 1570.48 1695.22 1560.51 1696.04C1550.54 1696.85 1541.46 1685.3 1540.23 1670.23C1539 1655.16 1551.48 1641.85 1556.06 1641.47C1560.63 1641.1 1575.11 1652.21 1576.34 1667.28Z" fill="#5D8016"/>
<path d="M1527.73 1639.87C1510.94 1649.6 1492.1 1648.48 1485.66 1637.37C1479.22 1626.25 1487.61 1609.35 1504.41 1599.62C1521.2 1589.89 1543.52 1597.03 1546.48 1602.12C1549.43 1607.22 1544.53 1630.14 1527.73 1639.87Z" fill="#5D8016"/>
<path d="M1392.48 1634.15C1376.2 1623.59 1368.67 1606.29 1375.66 1595.51C1382.65 1584.74 1401.52 1584.56 1417.8 1595.13C1434.08 1605.69 1437.83 1628.83 1434.63 1633.77C1431.42 1638.71 1408.77 1644.72 1392.48 1634.15Z" fill="#5D8016"/>
<path d="M1305.45 1780.57C1297.21 1793.72 1283.47 1799.96 1274.76 1794.51C1266.06 1789.06 1265.68 1773.97 1273.92 1760.82C1282.16 1747.66 1300.61 1744.37 1304.6 1746.87C1308.59 1749.37 1313.69 1767.41 1305.45 1780.57Z" fill="#5D8016"/>
<path d="M1257.51 1803.25C1248.62 1817.45 1233.79 1824.19 1224.39 1818.3C1214.99 1812.42 1214.58 1796.13 1223.48 1781.93C1232.37 1767.73 1252.29 1764.18 1256.6 1766.87C1260.91 1769.57 1266.41 1789.05 1257.51 1803.25Z" fill="#5D8016"/>
<path d="M1189.31 1828.82C1179.32 1844.77 1157.56 1854.61 1147 1848C1136.44 1841.39 1141.1 1820.83 1151.09 1804.88C1161.08 1788.93 1189.16 1781.97 1194 1785C1198.84 1788.03 1199.3 1812.87 1189.31 1828.82Z" fill="#5D8016"/>
<path d="M1133.6 1835.54C1133.93 1852.21 1122.42 1870.08 1111.24 1870.3C1100.07 1870.53 1093.46 1853.02 1093.13 1836.35C1092.79 1819.67 1110.47 1800.87 1115.59 1800.77C1120.71 1800.67 1133.27 1818.86 1133.6 1835.54Z" fill="#5D8016"/>
<path d="M1089 1872C1089.33 1888.68 1074.34 1906.78 1063.16 1907C1051.99 1907.22 1040.83 1888.68 1040.5 1872C1040.5 1841 1058.04 1827.45 1063.16 1827.35C1068.29 1827.24 1088.67 1855.32 1089 1872Z" fill="#5D8016"/>
<path d="M1013.63 1913.54C1007.65 1929.11 986.935 1940.22 976.5 1936.22C966.064 1932.21 962.727 1910.83 968.707 1895.25C980.397 1866.54 1001.75 1860.61 1006.54 1862.44C1011.32 1864.28 1019.61 1897.97 1013.63 1913.54Z" fill="#5D8016"/>
<path d="M856 1918.5C839.385 1919.98 811.499 1901 823.499 1875.5C833.383 1854.5 851.5 1856.85 873.741 1858.5C907.5 1861 918.552 1886.03 919.008 1891.14C919.463 1896.24 892 1915.29 856 1918.5Z" fill="#5D8016"/>
<path d="M1097.26 1776.44C1085.98 1774.77 1072.87 1781.03 1071.75 1788.59C1070.63 1796.15 1081.92 1802.15 1093.21 1803.82C1104.49 1805.49 1118.77 1795.14 1119.28 1791.67C1119.79 1788.21 1108.55 1778.11 1097.26 1776.44Z" fill="#5D8016"/>
<path d="M1036.26 1802.44C1024.98 1800.77 1011.87 1807.03 1010.75 1814.59C1009.63 1822.15 1020.92 1828.15 1032.21 1829.82C1043.49 1831.49 1057.77 1821.14 1058.28 1817.67C1058.79 1814.21 1047.55 1804.11 1036.26 1802.44Z" fill="#5D8016"/>
<path d="M968.5 1825C955.605 1816.04 936.353 1817.7 928.5 1829C920.647 1840.3 927.604 1852.85 940.499 1861.81C953.394 1870.77 987.353 1866.99 990.952 1861.81C994.552 1856.63 981.395 1833.96 968.5 1825Z" fill="#5D8016"/>
<path d="M1161.69 1759.44C1150.41 1757.77 1137.17 1764.87 1135.93 1773.22C1134.69 1781.57 1145.92 1788.01 1157.21 1789.69C1168.49 1791.36 1182.96 1779.72 1183.52 1775.9C1184.09 1772.07 1172.97 1761.11 1161.69 1759.44Z" fill="#5D8016"/>
<path d="M1530.88 1727.57C1529.19 1744.06 1519.7 1756.6 1509.67 1755.57C1499.64 1754.54 1492.87 1740.34 1494.56 1723.85C1496.25 1707.37 1511.18 1695.39 1515.78 1695.86C1520.38 1696.33 1532.57 1711.09 1530.88 1727.57Z" fill="#5D8016"/>
<path d="M1479.38 1782.57C1477.69 1799.06 1468.19 1811.6 1458.16 1810.57C1448.13 1809.54 1441.37 1795.34 1443.06 1778.85C1444.74 1762.37 1459.68 1750.39 1464.27 1750.86C1468.87 1751.33 1481.06 1766.09 1479.38 1782.57Z" fill="#5D8016"/>
<path d="M1487.81 1657.27C1472.45 1663.5 1463.07 1676.12 1466.86 1685.47C1470.65 1694.81 1486.17 1697.34 1501.53 1691.11C1516.89 1684.88 1524.22 1667.2 1522.48 1662.92C1520.75 1658.64 1503.17 1651.05 1487.81 1657.27Z" fill="#5D8016"/>
<path d="M1387.99 1665.74C1378.61 1679.4 1377.74 1695.1 1386.05 1700.81C1394.36 1706.52 1408.7 1700.07 1418.09 1686.41C1427.47 1672.75 1423.84 1653.95 1420.03 1651.34C1416.22 1648.72 1397.38 1652.07 1387.99 1665.74Z" fill="#5D8016"/>
<path d="M1446.22 1701.77C1428.28 1702.51 1414.09 1711.95 1414.54 1722.87C1414.98 1733.78 1429.9 1742.04 1447.84 1741.3C1465.79 1740.57 1479.73 1725.21 1479.52 1720.2C1479.32 1715.2 1464.17 1701.03 1446.22 1701.77Z" fill="#5D8016"/>
<path d="M1369.48 1793.41C1354.31 1808 1349.19 1827.3 1358.07 1836.54C1366.94 1845.77 1386.43 1841.43 1401.61 1826.85C1416.79 1812.26 1417.1 1787.95 1413.03 1783.72C1408.97 1779.49 1384.66 1778.82 1369.48 1793.41Z" fill="#5D8016"/>
<path d="M644.19 1652.29C625.503 1652.13 610.274 1661.22 610.177 1672.58C610.079 1683.95 625.149 1693.3 643.837 1693.46C662.525 1693.62 677.806 1678.37 677.85 1673.16C677.895 1667.95 662.878 1652.45 644.19 1652.29Z" fill="#5D8016"/>
<path d="M697 1681C680.511 1689.8 674.337 1696.98 679.688 1707.01C685.038 1717.04 702.743 1718.04 719.231 1709.25C735.72 1700.45 741.851 1679.76 739.399 1675.16C736.946 1670.56 713.489 1672.2 697 1681Z" fill="#5D8016"/>
<path d="M1664 1417C1673.6 1388.2 1646.67 1339.67 1632 1319L1612 1339C1622 1349.67 1640 1380.2 1632 1417C1622 1463 1636 1445.82 1612 1465.82C1588 1485.82 1558 1549.82 1542 1619.82C1529.2 1675.82 1422 1781.67 1382 1817C1416 1791 1488.8 1733.8 1508 1713C1532 1687 1588 1595 1588 1559C1588 1523 1652 1453 1664 1417Z" fill="#A17D21"/>
<path d="M1487 1539C1521.4 1500.6 1578 1485.67 1602 1483C1602 1489.33 1597.6 1502.6 1580 1505C1558 1508 1514 1539 1503 1551C1492 1563 1462 1613 1454 1643C1446 1673 1419 1691 1395 1711C1371 1731 1270 1759 1259 1766C1248 1773 1161 1797 1127 1803C1093 1809 1083 1822 1067 1827C1051 1832 1010 1865 951 1887C903.8 1904.6 891.333 1894.33 891 1887C910 1895 951 1874 976 1865C1001 1856 1049 1822 1067 1809C1085 1796 1115 1792 1150 1783C1178 1775.8 1223.67 1764 1243 1759C1228.33 1761.33 1191.4 1764.6 1161 1759C1123 1752 1075 1775 1060 1783C1045 1791 980 1810 938 1809C896 1808 802 1707 795 1690C789.4 1676.4 653.667 1684.33 647 1665C656 1678.33 794.6 1651.6 805 1674C818 1702 918 1783 938 1792C958 1801 982 1785 1015 1775C1048 1765 1078 1745 1122 1739C1166 1733 1195 1739 1223 1739C1251 1739 1305 1729 1328 1719C1351 1709 1391 1679 1419 1662C1447 1645 1444 1587 1487 1539Z" fill="#A17D21"/>
</g>
<defs>
<linearGradient id="paint0_linear_61_392" x1="1565.57" y1="323.588" x2="1565.57" y2="1069.2" gradientUnits="userSpaceOnUse">
<stop stop-color="#BE6D29"/>
<stop offset="1" stop-color="#3F7B3C"/>
</linearGradient>
<linearGradient id="paint1_linear_61_392" x1="1881.85" y1="1185.4" x2="1155.13" y2="1352.2" gradientUnits="userSpaceOnUse">
<stop stop-color="#BE6D29"/>
<stop offset="1" stop-color="#3F7B3C"/>
</linearGradient>
<linearGradient id="paint2_linear_61_392" x1="288" y1="807" x2="806" y2="233" gradientUnits="userSpaceOnUse">
<stop stop-color="#B0FAC9"/>
<stop offset="0.529167" stop-color="#C1E19F"/>
<stop offset="1" stop-color="#D0CB7A"/>
</linearGradient>
<linearGradient id="paint3_linear_61_392" x1="288" y1="807" x2="806" y2="233" gradientUnits="userSpaceOnUse">
<stop stop-color="#B0FAC9"/>
<stop offset="0.529167" stop-color="#C1E19F"/>
<stop offset="1" stop-color="#D0CB7A"/>
</linearGradient>
<linearGradient id="paint4_linear_61_392" x1="288" y1="807" x2="806" y2="233" gradientUnits="userSpaceOnUse">
<stop stop-color="#B0FAC9"/>
<stop offset="0.529167" stop-color="#C1E19F"/>
<stop offset="1" stop-color="#D0CB7A"/>
</linearGradient>
<linearGradient id="paint5_linear_61_392" x1="1394.3" y1="327.476" x2="625.735" y2="411.767" gradientUnits="userSpaceOnUse">
<stop stop-color="#B0FAC9"/>
<stop offset="0.529167" stop-color="#C1E19F"/>
<stop offset="1" stop-color="#D0CB7A"/>
</linearGradient>
<linearGradient id="paint6_linear_61_392" x1="1394.3" y1="327.476" x2="625.735" y2="411.767" gradientUnits="userSpaceOnUse">
<stop stop-color="#B0FAC9"/>
<stop offset="0.529167" stop-color="#C1E19F"/>
<stop offset="1" stop-color="#D0CB7A"/>
</linearGradient>
<linearGradient id="paint7_linear_61_392" x1="1394.3" y1="327.476" x2="625.735" y2="411.767" gradientUnits="userSpaceOnUse">
<stop stop-color="#B0FAC9"/>
<stop offset="0.529167" stop-color="#C1E19F"/>
<stop offset="1" stop-color="#D0CB7A"/>
</linearGradient>
<linearGradient id="paint8_linear_61_392" x1="180" y1="923" x2="815" y2="1733" gradientUnits="userSpaceOnUse">
<stop stop-color="#3D7B70"/>
<stop offset="0.522867" stop-color="#51A263"/>
<stop offset="1" stop-color="#ACACAC"/>
</linearGradient>
<linearGradient id="paint9_linear_61_392" x1="148" y1="1511" x2="511" y2="1610" gradientUnits="userSpaceOnUse">
<stop stop-color="#3E7C71"/>
<stop offset="0.447917" stop-color="#44A05A"/>
<stop offset="1" stop-color="#789590"/>
</linearGradient>
<linearGradient id="paint10_linear_61_392" x1="592" y1="1067" x2="368" y2="1513" gradientUnits="userSpaceOnUse">
<stop stop-color="#3E7C71"/>
<stop offset="0.445833" stop-color="#4CA05F"/>
<stop offset="1" stop-color="#58A369"/>
</linearGradient>
<linearGradient id="paint11_linear_61_392" x1="671" y1="1429" x2="561" y2="1685" gradientUnits="userSpaceOnUse">
<stop stop-color="#4C9F60"/>
<stop offset="0.513542" stop-color="#52857B"/>
<stop offset="1" stop-color="#8A9D9A"/>
</linearGradient>
<linearGradient id="paint12_linear_61_392" x1="431" y1="1740.5" x2="665.5" y2="1750.5" gradientUnits="userSpaceOnUse">
<stop stop-color="#4A8278"/>
<stop offset="0.497917" stop-color="#4B9D61"/>
<stop offset="1" stop-color="#A0A7A6"/>
</linearGradient>
<clipPath id="clip0_61_392">
<rect width="2000" height="2000" fill="white"/>
</clipPath>
</defs>
</svg>
