<svg width="24" height="24" viewBox="0 0 24 24" fill="none" xmlns="http://www.w3.org/2000/svg">
<g clip-path="url(#clip0_921_26157)">
<g opacity="0.4">
<path d="M22.2 6C23.3297 5.37187 24 4.59422 24 3.75C24 1.67906 19.9688 0 15 0C9.98906 0 6 1.67906 6 3.75C6 4.59422 6.67031 5.37187 7.8 6C7.80937 6.00469 7.81758 6.00937 7.82578 6.01406C7.83398 6.01875 7.84219 6.02344 7.85156 6.02813C8.23125 6.00938 8.61094 6 9 6C11.6344 6 14.0906 6.44062 15.9422 7.21406C16.1203 7.28906 16.2984 7.36875 16.4672 7.44844C18.8062 7.28906 20.8359 6.75469 22.2 6Z" fill="#22867A"/>
<path d="M19.9435 12.9151C19.7958 12.9551 19.6477 12.9951 19.5 13.0359V13.5C20.7602 13.5 21.9296 13.8885 22.8951 14.5522C23.5995 14.0172 24 13.4028 24 12.75V11.0906C23.4141 11.5734 22.7063 11.9672 21.9422 12.2859C21.3382 12.5376 20.6447 12.7253 19.9435 12.9151Z" fill="#22867A"/>
<path d="M18.3703 8.74688C19.0031 9.37969 19.5 10.2234 19.5 11.25V11.4984C20.4328 11.2734 21.2625 10.9781 21.9469 10.6359C21.9739 10.6209 22.0009 10.6021 22.0279 10.5833C22.0852 10.5432 22.1426 10.5032 22.2 10.5C23.3297 9.87187 24 9.09375 24 8.25V6.59063C23.4141 7.07344 22.7063 7.46719 21.9422 7.78594C20.9109 8.2125 19.6969 8.54063 18.3703 8.74688Z" fill="#22867A"/>
</g>
<path d="M16.2 13.5C17.3297 12.8719 18 12.0938 18 11.25C18 9.17813 13.9688 7.5 9 7.5C4.02938 7.5 0 9.17813 0 11.25C0 12.0938 0.669375 12.8719 1.79953 13.5C1.85443 13.5031 1.91057 13.5415 1.96782 13.5807C1.9966 13.6004 2.02567 13.6203 2.055 13.6359C3.70594 14.4703 6.20625 15 9 15C11.9438 15 14.5594 14.4094 16.2 13.5Z" fill="#22867A"/>
<path d="M14.8788 15.6729C13.1948 16.2046 11.1571 16.5 9 16.5C6.36562 16.5 3.91125 16.0594 2.05922 15.2859C1.29469 14.9672 0.583594 14.5734 0 14.0906V15.75C0 16.5938 0.669375 17.3719 1.79953 18C3.44109 18.9094 6.05625 19.5 9 19.5C10.6471 19.5 12.1916 19.3159 13.5211 18.9937C13.6261 17.7367 14.1186 16.5898 14.8788 15.6729Z" fill="#22867A"/>
<path d="M13.5862 20.5191C13.7529 21.4936 14.1547 22.3879 14.731 23.1415C13.1742 23.6778 11.1771 24 9 24C4.02938 24 0 22.3219 0 20.25V18.5906C0.583594 19.0734 1.29469 19.4672 2.05922 19.7859C3.91125 20.5594 6.36562 21 9 21C10.6307 21 12.1932 20.8312 13.5862 20.5191Z" fill="#22867A"/>
<path d="M24 19.5C24 21.9844 21.9844 24 19.5 24C17.0156 24 15 21.9844 15 19.5C15 17.0156 17.0156 15 19.5 15C21.9844 15 24 17.0156 24 19.5ZM19 17.4719V18.9719H17.5C17.225 18.9719 17 19.225 17 19.4719C17 19.775 17.225 19.9719 17.5 19.9719H19V21.4719C19 21.775 19.225 21.9719 19.5 21.9719C19.775 21.9719 20 21.775 20 21.4719V19.9719H21.5C21.775 19.9719 22 19.775 22 19.4719C22 19.225 21.775 18.9719 21.5 18.9719H20V17.4719C20 17.225 19.775 16.9719 19.5 16.9719C19.225 16.9719 19 17.225 19 17.4719Z" fill="#22867A"/>
</g>
<defs>
<clipPath id="clip0_921_26157">
<rect width="24" height="24" fill="white"/>
</clipPath>
</defs>
</svg>
