<svg width="24" height="24" viewBox="0 0 24 24" fill="none" xmlns="http://www.w3.org/2000/svg">
<g clip-path="url(#clip0_1927_4645)">
<g clip-path="url(#clip1_1927_4645)">
<path d="M19.1317 10.6051L19.4851 10.8838L19.7993 10.5616C20.2459 10.1036 20.789 9.8875 21.3184 9.8875C22.5054 9.8875 23.5 10.8892 23.5 12.1375C23.5 13.0456 22.9351 13.8884 22.4353 14.4009L22.2933 14.5466V14.75V14.7516V14.7532V14.7548V14.7564V14.7581V14.7597V14.7613V14.7629V14.7645V14.7661V14.7677V14.7693V14.7709V14.7726V14.7742V14.7758V14.7774V14.779V14.7806V14.7822V14.7838V14.7854V14.7871V14.7887V14.7903V14.7919V14.7935V14.7951V14.7967V14.7983V14.8V14.8016V14.8032V14.8048V14.8064V14.808V14.8096V14.8112V14.8128V14.8145V14.8161V14.8177V14.8193V14.8209V14.8225V14.8241V14.8257V14.8273V14.829V14.8306V14.8322V14.8338V14.8354V14.837V14.8386V14.8402V14.8418V14.8435V14.8451V14.8467V14.8483V14.8499V14.8515V14.8531V14.8547V14.8563V14.858V14.8596V14.8612V14.8628V14.8644V14.866V14.8676V14.8692V14.8708V14.8725V14.8741V14.8757V14.8773V14.8789V14.8805V14.8821V14.8837V14.8854V14.887V14.8886V14.8902V14.8918V14.8934V14.895V14.8966V14.8982V14.8999V14.9015V14.9031V14.9047V14.9063V14.9079V14.9095V14.9111V14.9127V14.9144V14.916V14.9176V14.9192V14.9208V14.9224V14.924V14.9256V14.9272V14.9289V14.9305V14.9321V14.9337V14.9353V14.9369V14.9385V14.9401V14.9417V14.9434V14.945V14.9466V14.9482V14.9498V14.9514V14.953V14.9546V14.9563V14.9579V14.9595V14.9611V14.9627V14.9643V14.9659V14.9675V14.9691V14.9708V14.9724V14.974V14.9756V14.9772V14.9788V14.9804V14.982V14.9836V14.9853V14.9869V14.9885V14.9901V14.9917V14.9933V14.9949V14.9965V14.9981V14.9998V15.0014V15.003V15.0046V15.0062V15.0078V15.0094V15.011V15.0126V15.0143V15.0159V15.0175V15.0191V15.0207V15.0223V15.0239V15.0255V15.0271V15.0288V15.0304V15.032V15.0336V15.0352V15.0368V15.0384V15.04V15.0417V15.0433V15.0449V15.0465V15.0481V15.0497V15.0513V15.0529V15.0545V15.0562V15.0578V15.0594V15.061V15.0626V15.0642V15.0658V15.0674V15.069V15.0707V15.0723V15.0739V15.0755V15.0771V15.0787V15.0803V15.0819V15.0835V15.0852V15.0868V15.0884V15.09V15.0916V15.0932V15.0948V15.0964V15.098V15.0997V15.1013V15.1029V15.1045V15.1061V15.1077V15.1093V15.1109V15.1125V15.1142V15.1158V15.1174V15.119V15.1206V15.1222V15.1238V15.1254V15.1271V15.1287V15.1303V15.1319V15.1335V15.1351V15.1367V15.1383V15.1399V15.1416V15.1432V15.1448V15.1464V15.148V15.1496V15.1512V15.1528V15.1544V15.1561V15.1577V15.1593V15.1609V15.1625V15.1641V15.1657V15.1673V15.1689V15.1706V15.1722V15.1738V15.1754V15.177V15.1786V15.1802V15.1818V15.1834V15.1851V15.1867V15.1883V15.1899V15.1915V15.1931V15.1947V15.1963V15.1979V15.1996V15.2012V15.2028V15.2044V15.206V15.2076V15.2092V15.2108V15.2125V15.2141V15.2157V15.2173V15.2189V15.2205V15.2221V15.2237V15.2253V15.227V15.2286V15.2302V15.2318V15.2334V15.235V15.2366V15.2382V15.2398V15.2415V15.2431V15.2447V15.2463V15.2479V15.2495V15.2511V15.2527V15.2543V15.256V15.2576V15.2592V15.2608V15.2624V15.264V15.2656V15.2672V15.2688V15.2705V15.2721V15.2737V15.2753V15.2769V15.2785V15.2801V15.2817V15.2833V15.285V15.2866V15.2882V15.2898V15.2914V15.293V15.2946V15.2962V15.2979V15.2995V15.3011V15.3027V15.3043V15.3059V15.3075V15.3091V15.3107V15.3124V15.314V15.3156V15.3172V15.3188V15.3204V15.322V15.3236V15.3252V15.3269V15.3285V15.3301V15.3317V15.3333V15.3349V15.3365V15.3381V15.3397V15.3414V15.343V15.3446V15.3462V15.3478V15.3494V15.351V15.3526V15.3542V15.3559V15.3575V15.3591V15.3607V15.3623V15.3639V15.3655V15.3671V15.3688V15.3704V15.372V15.3736V15.3752V15.3768V15.3784V15.38V15.3816V15.3833V15.3849V15.3865V15.3881V15.3897V15.3913V15.3929V15.3945V15.3961V15.3978V15.3994V15.401V15.4026V15.4042V15.4058V15.4074V15.409V15.4106V15.4123V15.4139V15.4155V15.4171V15.4187V15.4203V15.4219V15.4235V15.4251V15.4268V15.4284V15.43V15.4316V15.4332V15.4348V15.4364V15.438V15.4396V15.4413V15.4429V15.4445V15.4461V15.4477V15.4493V15.4509V15.4525V15.4542V15.4558V15.4574V15.459V15.4606V15.4622V15.4638V15.4654V15.467V15.4687V15.4703V15.4719V15.4735V15.4751V15.4767V15.4783V15.4799V15.4815V15.4832V15.4848V15.4864V15.488V15.4896V15.4912V15.4928V15.4944V15.496V15.4977V15.4993V15.5009V15.5025V15.5041V15.5057V15.5073V15.5089V15.5105V15.5122V15.5138V15.5154V15.517V15.5186V15.5202V15.5218V15.5234V15.525V15.5267V15.5283V15.5299V15.5315V15.5331V15.5347V15.5363V15.5379V15.5396V15.5412V15.5428V15.5444V15.546V15.5476V15.5492V15.5508V15.5524V15.5541V15.5557V15.5573V15.5589V15.5605V15.5621V15.5637V15.5653V15.5669V15.5686V15.5702V15.5718V15.5734V15.575C22.2933 17.5065 21.2327 19.2588 19.4199 20.5471C17.6054 21.8366 15.0622 22.6375 12.2011 22.6375C9.34457 22.6375 6.80135 21.8046 4.9848 20.4973C3.16661 19.1888 2.10894 17.4348 2.10894 15.575V15.5734V15.5718V15.5702V15.5686V15.5669V15.5653V15.5637V15.5621V15.5605V15.5589V15.5573V15.5557V15.5541V15.5524V15.5508V15.5492V15.5476V15.546V15.5444V15.5428V15.5412V15.5396V15.5379V15.5363V15.5347V15.5331V15.5315V15.5299V15.5283V15.5267V15.525V15.5234V15.5218V15.5202V15.5186V15.517V15.5154V15.5138V15.5122V15.5105V15.5089V15.5073V15.5057V15.5041V15.5025V15.5009V15.4993V15.4977V15.496V15.4944V15.4928V15.4912V15.4896V15.488V15.4864V15.4848V15.4832V15.4815V15.4799V15.4783V15.4767V15.4751V15.4735V15.4719V15.4703V15.4687V15.467V15.4654V15.4638V15.4622V15.4606V15.459V15.4574V15.4558V15.4542V15.4525V15.4509V15.4493V15.4477V15.4461V15.4445V15.4429V15.4413V15.4396V15.438V15.4364V15.4348V15.4332V15.4316V15.43V15.4284V15.4268V15.4251V15.4235V15.4219V15.4203V15.4187V15.4171V15.4155V15.4139V15.4123V15.4106V15.409V15.4074V15.4058V15.4042V15.4026V15.401V15.3994V15.3978V15.3961V15.3945V15.3929V15.3913V15.3897V15.3881V15.3865V15.3849V15.3833V15.3816V15.38V15.3784V15.3768V15.3752V15.3736V15.372V15.3704V15.3688V15.3671V15.3655V15.3639V15.3623V15.3607V15.3591V15.3575V15.3559V15.3542V15.3526V15.351V15.3494V15.3478V15.3462V15.3446V15.343V15.3414V15.3397V15.3381V15.3365V15.3349V15.3333V15.3317V15.3301V15.3285V15.3269V15.3252V15.3236V15.322V15.3204V15.3188V15.3172V15.3156V15.314V15.3124V15.3107V15.3091V15.3075V15.3059V15.3043V15.3027V15.3011V15.2995V15.2979V15.2962V15.2946V15.293V15.2914V15.2898V15.2882V15.2866V15.285V15.2833V15.2817V15.2801V15.2785V15.2769V15.2753V15.2737V15.2721V15.2705V15.2688V15.2672V15.2656V15.264V15.2624V15.2608V15.2592V15.2576V15.256V15.2543V15.2527V15.2511V15.2495V15.2479V15.2463V15.2447V15.2431V15.2415V15.2398V15.2382V15.2366V15.235V15.2334V15.2318V15.2302V15.2286V15.227V15.2253V15.2237V15.2221V15.2205V15.2189V15.2173V15.2157V15.2141V15.2125V15.2108V15.2092V15.2076V15.206V15.2044V15.2028V15.2012V15.1996V15.1979V15.1963V15.1947V15.1931V15.1915V15.1899V15.1883V15.1867V15.1851V15.1834V15.1818V15.1802V15.1786V15.177V15.1754V15.1738V15.1722V15.1706V15.1689V15.1673V15.1657V15.1641V15.1625V15.1609V15.1593V15.1577V15.1561V15.1544V15.1528V15.1512V15.1496V15.148V15.1464V15.1448V15.1432V15.1416V15.1399V15.1383V15.1367V15.1351V15.1335V15.1319V15.1303V15.1287V15.1271V15.1254V15.1238V15.1222V15.1206V15.119V15.1174V15.1158V15.1142V15.1125V15.1109V15.1093V15.1077V15.1061V15.1045V15.1029V15.1013V15.0997V15.098V15.0964V15.0948V15.0932V15.0916V15.09V15.0884V15.0868V15.0852V15.0835V15.0819V15.0803V15.0787V15.0771V15.0755V15.0739V15.0723V15.0707V15.069V15.0674V15.0658V15.0642V15.0626V15.061V15.0594V15.0578V15.0562V15.0545V15.0529V15.0513V15.0497V15.0481V15.0465V15.0449V15.0433V15.0417V15.04V15.0384V15.0368V15.0352V15.0336V15.032V15.0304V15.0288V15.0271V15.0255V15.0239V15.0223V15.0207V15.0191V15.0175V15.0159V15.0143V15.0126V15.011V15.0094V15.0078V15.0062V15.0046V15.003V15.0014V14.9998V14.9981V14.9965V14.9949V14.9933V14.9917V14.9901V14.9885V14.9869V14.9853V14.9836V14.982V14.9804V14.9788V14.9772V14.9756V14.974V14.9724V14.9708V14.9691V14.9675V14.9659V14.9643V14.9627V14.9611V14.9595V14.9579V14.9563V14.9546V14.953V14.9514V14.9498V14.9482V14.9466V14.945V14.9434V14.9417V14.9401V14.9385V14.9369V14.9353V14.9337V14.9321V14.9305V14.9289V14.9272V14.9256V14.924V14.9224V14.9208V14.9192V14.9176V14.916V14.9144V14.9127V14.9111V14.9095V14.9079V14.9063V14.9047V14.9031V14.9015V14.8999V14.8982V14.8966V14.895V14.8934V14.8918V14.8902V14.8886V14.887V14.8854V14.8837V14.8821V14.8805V14.8789V14.8773V14.8757V14.8741V14.8725V14.8708V14.8692V14.8676V14.866V14.8644V14.8628V14.8612V14.8596V14.858V14.8563V14.8547V14.8531V14.8515V14.8499V14.8483V14.8467V14.8451V14.8435V14.8418V14.8402V14.8386V14.837V14.8354V14.8338V14.8322V14.8306V14.829V14.8273V14.8257V14.8241V14.8225V14.8209V14.8193V14.8177V14.8161V14.8145V14.8128V14.8112V14.8096V14.808V14.8064V14.8048V14.8032V14.8016V14.8V14.7983V14.7967V14.7951V14.7935V14.7919V14.7903V14.7887V14.7871V14.7854V14.7838V14.7822V14.7806V14.779V14.7774V14.7758V14.7742V14.7726V14.7709V14.7693V14.7677V14.7661V14.7645V14.7629V14.7613V14.7597V14.7581V14.7564V14.7548V14.7532V14.7516V14.75V14.4236L1.81012 14.2923C1.0479 13.9573 0.5 13.171 0.5 12.275C0.5 11.0267 1.49465 10.025 2.68156 10.025C3.22516 10.025 3.73069 10.2482 4.02099 10.6452L4.32712 11.0637L4.73426 10.7426C6.37415 9.4489 8.81226 8.64585 11.5551 8.5119L11.9417 8.49303L11.9713 8.35012L12.4437 8.37434C15.0505 8.50801 17.49 9.31002 19.1317 10.6051ZM18.0642 2.925V2.63296L18.2772 2.67929L18.4323 2.28169C18.5374 2.01228 18.6838 1.8236 18.8579 1.70083C19.0305 1.57915 19.2617 1.5 19.5754 1.5C19.9038 1.5 20.2506 1.64775 20.5003 1.89095C20.7468 2.13118 20.8639 2.42681 20.8232 2.71851L20.8184 2.75284V2.7875C20.8184 3.62331 20.226 4.2125 19.4413 4.2125C18.6325 4.2125 18.0642 3.59914 18.0642 2.925ZM16.941 18.2434L16.9058 18.171L16.8496 18.1134C16.7342 17.9951 16.5945 17.936 16.4898 17.9053C16.3786 17.8728 16.2634 17.8594 16.1564 17.8594C16.0495 17.8594 15.9342 17.8728 15.8231 17.9053C15.7183 17.936 15.5786 17.9951 15.4633 18.1134C15.1569 18.4276 14.627 18.6734 13.9736 18.8368C13.3331 18.997 12.6373 19.0625 12.067 19.0625C11.4271 19.0625 10.733 18.9965 10.113 18.8375C9.48476 18.6765 8.98211 18.4327 8.67083 18.1134C8.55545 17.9951 8.41576 17.936 8.31098 17.9053C8.19985 17.8728 8.08462 17.8594 7.97765 17.8594C7.87069 17.8594 7.75546 17.8728 7.64432 17.9053C7.53954 17.936 7.39985 17.9951 7.28448 18.1134C7.17006 18.2308 7.11418 18.371 7.08538 18.4744C7.05459 18.5849 7.0419 18.6996 7.0419 18.8062C7.0419 18.9129 7.05459 19.0276 7.08538 19.1381C7.11418 19.2415 7.17006 19.3817 7.28448 19.4991L7.64246 19.15L7.28448 19.4991C7.99216 20.2248 9.04947 20.5949 9.94986 20.7902C10.8656 20.9889 11.7074 21.025 12.067 21.025H12.0706C12.4121 21.025 13.2229 21.025 14.1265 20.8433C15.0254 20.6626 16.0781 20.2902 16.8496 19.4991C17.0353 19.3086 17.0922 19.0627 17.0922 18.8578C17.0922 18.6487 17.0352 18.4365 16.941 18.2434ZM7.91061 11.6375C6.55004 11.6375 5.53352 12.6983 5.53352 14.0625C5.53352 15.4267 6.55004 16.4875 7.91061 16.4875C9.27119 16.4875 10.2877 15.4267 10.2877 14.0625C10.2877 12.6983 9.27119 11.6375 7.91061 11.6375ZM13.7123 14.0625C13.7123 15.4267 14.7288 16.4875 16.0894 16.4875C17.45 16.4875 18.4665 15.4267 18.4665 14.0625C18.4665 12.6983 17.45 11.6375 16.0894 11.6375C14.7288 11.6375 13.7123 12.6983 13.7123 14.0625Z" fill="#767679" stroke="#767679"/>
</g>
</g>
<defs>
<clipPath id="clip0_1927_4645">
<rect width="24" height="24" fill="white"/>
</clipPath>
<clipPath id="clip1_1927_4645">
<rect width="24" height="22" fill="white" transform="translate(0 1)"/>
</clipPath>
</defs>
</svg>
