<svg width="24" height="24" viewBox="0 0 24 24" fill="none" xmlns="http://www.w3.org/2000/svg">
<g clip-path="url(#clip0_1927_4434)">
<g clip-path="url(#clip1_1927_4434)">
<path d="M22.5819 2.60238L22.5902 2.59905L22.5983 2.59543C22.9205 2.45203 23.1492 2.53176 23.255 2.64168C23.3573 2.74796 23.4915 3.03907 23.2656 3.62562L23.2507 3.66425L23.2424 3.70481L19.7665 20.6451C19.7664 20.6458 19.7662 20.6464 19.7661 20.647C19.6425 21.2233 19.4571 21.4113 19.3494 21.4643C19.2595 21.5086 19.0591 21.5355 18.6638 21.3068L13.4739 17.2985L13.1286 17.0318L12.8176 17.3378L10.2769 19.8378L10.2767 19.8377L10.2674 19.8474C10.2111 19.9058 10.1606 19.9576 10.113 20.0029L10.4436 15.425L20.0472 6.40669C20.1259 6.34387 20.199 6.27558 20.2599 6.20103C20.3229 6.12403 20.3941 6.0145 20.4244 5.87551C20.4582 5.71982 20.4353 5.5429 20.3263 5.39132C20.2285 5.25536 20.0965 5.18876 20.0012 5.15574C19.8163 5.09175 19.6111 5.09822 19.4425 5.12247C19.2603 5.14868 19.061 5.20456 18.8601 5.28802L18.8166 5.30611L18.7772 5.33203L6.94181 13.1175L1.95417 11.5235L1.941 11.5193L1.92762 11.5158C1.712 11.4598 1.60016 11.3877 1.55283 11.3417C1.54151 11.3307 1.53512 11.3224 1.53172 11.3174C1.53204 11.3163 1.53244 11.315 1.53292 11.3136C1.53533 11.3066 1.53993 11.2955 1.54851 11.2806C1.566 11.2502 1.59833 11.2067 1.65498 11.1536C1.76969 11.0461 1.96295 10.919 2.25889 10.7958C2.25967 10.7955 2.26045 10.7951 2.26123 10.7948L22.5819 2.60238ZM19.4857 5.56812C19.4856 5.56821 19.4856 5.56829 19.4855 5.56839L19.4857 5.56812Z" fill="#767679" stroke="#767679"/>
</g>
</g>
<defs>
<clipPath id="clip0_1927_4434">
<rect width="24" height="24" fill="white"/>
</clipPath>
<clipPath id="clip1_1927_4434">
<rect width="23" height="20" fill="white" transform="translate(1 2)"/>
</clipPath>
</defs>
</svg>
