<svg width="24" height="24" viewBox="0 0 24 24" fill="none" xmlns="http://www.w3.org/2000/svg">
<path d="M11.25 12C12.907 12 14.25 10.657 14.25 9C14.25 7.34297 12.907 6 11.25 6C9.59344 6 8.25 7.34297 8.25 9C8.25 10.657 9.59531 12 11.25 12ZM12.75 13.5H9.75C7.67812 13.5 6 15.1781 6 17.25C6 17.6625 6.3375 18 6.75 18H15.75C16.1642 18 16.5 17.6642 16.5 17.25C16.5 15.1781 14.8219 13.5 12.75 13.5ZM23.25 3H21V7.5H23.25C23.6625 7.5 24 7.1625 24 6.75V3.75C24 3.33562 23.6625 3 23.25 3ZM23.25 15H21V19.5H23.25C23.6642 19.5 24 19.1642 24 18.75V15.75C24 15.3375 23.6625 15 23.25 15ZM23.25 9H21V13.5H23.25C23.6625 13.5 24 13.1625 24 12.75V9.75C24 9.3375 23.6625 9 23.25 9Z" fill="#232323"/>
<path opacity="0.4" d="M18.75 0H3.75C2.50734 0 1.5 1.00734 1.5 2.25V21.75C1.5 22.9922 2.50734 24 3.75 24H18.75C19.9927 24 21 22.9927 21 21.75V2.25C21 1.00734 19.9922 0 18.75 0ZM11.25 6C12.907 6 14.25 7.34297 14.25 9C14.25 10.657 12.907 12 11.25 12C9.59344 12 8.25 10.657 8.25 9C8.25 7.34297 9.59531 6 11.25 6ZM15.75 18H6.75C6.3375 18 6 17.6625 6 17.25C6 15.1781 7.67812 13.5 9.75 13.5H12.75C14.8209 13.5 16.5 15.1791 16.5 17.25C16.5 17.6625 16.1625 18 15.75 18Z" fill="#232323"/>
</svg>
