<svg width="24" height="24" viewBox="0 0 24 24" fill="none" xmlns="http://www.w3.org/2000/svg">
<path d="M12 1C5.92422 1 1 5.92422 1 12C1 18.0758 5.92422 23 12 23C18.0758 23 23 18.0758 23 12C23 5.92422 18.0758 1 12 1ZM10.9688 7.53125C10.9688 6.96406 11.4328 6.5 12 6.5C12.5672 6.5 13.0312 6.96191 13.0312 7.53125V13.0312C13.0312 13.6006 12.5693 14.0625 12 14.0625C11.4307 14.0625 10.9688 13.6027 10.9688 13.0312V7.53125ZM12 18.1875C11.2541 18.1875 10.6491 17.5825 10.6491 16.8366C10.6491 16.0906 11.2536 15.4856 12 15.4856C12.7464 15.4856 13.3509 16.0906 13.3509 16.8366C13.3492 17.5816 12.7477 18.1875 12 18.1875Z" fill="#232323"/>
</svg>
