<svg width="24" height="24" viewBox="0 0 24 24" fill="none" xmlns="http://www.w3.org/2000/svg">
<path d="M20.25 5.50313V3.75C20.25 2.92172 20.9203 2.25 21.75 2.25C22.5797 2.25 23.25 2.92172 23.25 3.75V9C23.25 9.82969 22.5797 10.5 21.75 10.5H20.5219C20.4984 10.5 20.475 10.5 20.4516 10.5H16.5C15.6703 10.5 15 9.82969 15 9C15 8.17031 15.6703 7.5 16.5 7.5H18C16.6313 5.67656 14.4516 4.5 11.9578 4.5C8.7375 4.5 5.95781 6.58594 4.92656 9.50156C4.65047 10.2797 3.79312 10.6922 3.01219 10.4156C2.23125 10.1391 1.82156 9.23906 2.09766 8.49844C3.53859 4.42406 7.425 1.5 11.9578 1.5C15.3469 1.5 18.2859 3.06656 20.25 5.50313ZM2.25 21.75C1.42172 21.75 0.75 21.0797 0.75 20.25V15C0.75 14.1703 1.42172 13.5 2.25 13.5H7.5C8.32969 13.5 9 14.1703 9 15C9 15.8297 8.32969 16.5 7.5 16.5H5.95781C7.36875 18.3234 9.54844 19.5 12 19.5C15.2625 19.5 18.0422 17.4141 19.0734 14.4984C19.35 13.7203 20.2078 13.3078 20.9859 13.5844C21.7688 13.8609 22.1766 14.7188 21.9 15.5016C20.4609 19.575 16.575 22.5 12 22.5C8.65312 22.5 5.67188 20.9344 3.75 18.4969V20.25C3.75 21.0797 3.07828 21.75 2.25 21.75Z" fill="#232323"/>
</svg>
