<svg width="24" height="24" viewBox="0 0 24 24" fill="none" xmlns="http://www.w3.org/2000/svg">
<path fill-rule="evenodd" clip-rule="evenodd" d="M6.29794 3.41596C6.30494 2.62702 6.95349 1.99309 7.74651 2.00006L13.6024 2.05148C13.9859 2.05484 14.3522 2.21071 14.6195 2.48434C14.8868 2.75797 15.033 3.12661 15.0254 3.50811L14.9134 9.17097C14.8978 9.9598 14.2423 10.5867 13.4494 10.5711C12.6565 10.5556 12.0264 9.90356 12.042 9.11474L12.0839 6.9984L4.45134 14.5917C3.89056 15.1496 2.98136 15.1496 2.42058 14.5917C1.85981 14.0338 1.85981 13.1293 2.42058 12.5714L10.1533 4.87844L7.72117 4.85709C6.92814 4.85012 6.29094 4.20491 6.29794 3.41596ZM21.5794 9.40833C22.1402 9.96622 22.1402 10.8707 21.5794 11.4286L13.8471 19.1211L16.3621 19.1429C17.1551 19.1498 17.7924 19.7949 17.7855 20.5839C17.7786 21.3728 17.1301 22.0068 16.3371 21.9999L10.3978 21.9485C10.0106 21.9452 9.64113 21.7864 9.37328 21.5082C9.10543 21.23 8.96187 20.856 8.97516 20.471L9.17065 14.8081C9.19787 14.0196 9.86246 13.4023 10.655 13.4294C11.4476 13.4565 12.0681 14.1177 12.0409 14.9062L11.9704 16.9476L19.5487 9.40833C20.1094 8.85044 21.0186 8.85044 21.5794 9.40833Z" fill="#0056D2"/>
</svg>
