<svg width="24" height="24" viewBox="0 0 24 24" fill="none" xmlns="http://www.w3.org/2000/svg">
<rect width="24" height="24" rx="12" fill="#E0E3E3"/>
<g clip-path="url(#clip0_4634_55828)">
<path fill-rule="evenodd" clip-rule="evenodd" d="M16.5938 7.40625H7.40625C7.04347 7.40625 6.75 7.69972 6.75 8.0625V9.04688C6.75 9.22734 6.89741 9.375 7.07812 9.375H16.9219C17.1023 9.375 17.25 9.22734 17.25 9.04688V8.0625C17.25 7.69972 16.9567 7.40625 16.5938 7.40625ZM7.40625 15.6094C7.40625 16.1528 7.84696 16.5938 8.39062 16.5938H13.5725C13.0578 15.9518 12.75 15.1368 12.75 14.25C12.75 12.1789 14.4289 10.5 16.5 10.5C16.5313 10.5 16.5626 10.5004 16.5938 10.5011V10.0312H7.40625V15.6094ZM10.0312 11.5898C10.0312 11.4545 10.142 11.3438 10.2773 11.3438H12.7969C12.9781 11.3438 13.125 11.4907 13.125 11.6719C13.125 11.8531 12.9781 12 12.7969 12H10.2773C10.142 12 10.0312 11.8893 10.0312 11.7539V11.5898Z" fill="black"/>
<path d="M13.5 14.25C13.5 12.593 14.843 11.25 16.5 11.25C18.157 11.25 19.5 12.593 19.5 14.25C19.5 15.907 18.157 17.25 16.5 17.25C14.843 17.25 13.5 15.907 13.5 14.25ZM17.857 13.732C17.9848 13.6043 17.9848 13.3957 17.857 13.268C17.7293 13.1402 17.5207 13.1402 17.393 13.268L16.125 14.5359L15.607 14.018C15.4793 13.8902 15.2707 13.8902 15.143 14.018C15.0152 14.1457 15.0152 14.3543 15.143 14.482L15.893 15.232C16.0207 15.3598 16.2293 15.3598 16.357 15.232L17.857 13.732Z" fill="black"/>
</g>
<defs>
<clipPath id="clip0_4634_55828">
<rect width="12.75" height="10.5" fill="white" transform="translate(6.75 6.75)"/>
</clipPath>
</defs>
</svg>
