<svg width="24" height="24" viewBox="0 0 24 24" fill="none" xmlns="http://www.w3.org/2000/svg">
<path d="M13.4286 1.9375V2.7407C16.6652 3.25775 19.1429 6.0793 19.1429 9.48438V10.9848C19.1429 13.0242 19.8348 15.0053 21.0982 16.6L21.7634 17.4355C22.0223 17.759 22.0714 18.2037 21.8929 18.5766C21.7143 18.9494 21.3393 19.1875 20.9286 19.1875H3.07144C2.65938 19.1875 2.28416 18.9494 2.10577 18.5766C1.92733 18.2037 1.97751 17.759 2.23483 17.4355L2.90045 16.6C4.16697 15.0053 4.85715 13.0242 4.85715 10.9848V9.48438C4.85715 6.0793 7.33483 3.25775 10.5714 2.7407V1.9375C10.5714 1.14373 11.2098 0.5 12 0.5C12.7902 0.5 13.4286 1.14373 13.4286 1.9375ZM11.6429 4.8125C9.08037 4.8125 7.00001 6.90586 7.00001 9.48438V10.9848C7.00001 13.1365 6.38037 15.2344 5.22813 17.0312H18.7723C17.6205 15.2344 17 13.1365 17 10.9848V9.48438C17 6.90586 14.9197 4.8125 12.3572 4.8125H11.6429ZM14.8572 20.625C14.8572 21.3482 14.558 22.1209 14.0223 22.66C13.4866 23.199 12.7188 23.5 12 23.5C11.2411 23.5 10.5134 23.199 9.97769 22.66C9.44197 22.1209 9.14287 21.3482 9.14287 20.625H14.8572Z" fill="#20263D"/>
</svg>
