<svg width="26" height="22" viewBox="0 0 26 22" fill="none" xmlns="http://www.w3.org/2000/svg">
<g clip-path="url(#clip0_5432_15256)">
<path fill-rule="evenodd" clip-rule="evenodd" d="M20.1875 1.8125H1.8125C1.08693 1.8125 0.5 2.39943 0.5 3.125V5.09375C0.5 5.45469 0.79482 5.75 1.15625 5.75H20.8438C21.2047 5.75 21.5 5.45469 21.5 5.09375V3.125C21.5 2.39943 20.9135 1.8125 20.1875 1.8125ZM1.8125 18.2188C1.8125 19.3057 2.69393 20.1875 3.78125 20.1875H14.145C13.1157 18.9035 12.5 17.2737 12.5 15.5C12.5 11.3579 15.8579 8 20 8C20.0627 8 20.1252 8.00077 20.1875 8.0023V7.0625H1.8125V18.2188ZM7.0625 10.1797C7.0625 9.90899 7.28398 9.6875 7.55469 9.6875H12.9C13.0933 9.6875 13.25 9.8442 13.25 10.0375V10.65C13.25 10.8433 13.0933 11 12.9 11H7.55469C7.28398 11 7.0625 10.7785 7.0625 10.5078V10.1797Z" fill="black"/>
<path d="M14 15.5C14 12.1859 16.6859 9.5 20 9.5C23.3141 9.5 26 12.1859 26 15.5C26 18.8141 23.3141 21.5 20 21.5C16.6859 21.5 14 18.8141 14 15.5ZM22.7141 14.4641C22.9695 14.2086 22.9695 13.7914 22.7141 13.5359C22.4586 13.2805 22.0414 13.2805 21.7859 13.5359L19.25 16.0719L18.2141 15.0359C17.9586 14.7805 17.5414 14.7805 17.2859 15.0359C17.0305 15.2914 17.0305 15.7086 17.2859 15.9641L18.7859 17.4641C19.0414 17.7195 19.4586 17.7195 19.7141 17.4641L22.7141 14.4641Z" fill="black"/>
</g>
<defs>
<clipPath id="clip0_5432_15256">
<rect width="25.5" height="21" fill="white" transform="translate(0.5 0.5)"/>
</clipPath>
</defs>
</svg>
