<svg width="24" height="24" viewBox="0 0 24 24" fill="none" xmlns="http://www.w3.org/2000/svg">
<path d="M9.23081 2.375V3.75H14.7592V2.375C14.7592 1.61574 15.3768 1 16.1413 1C16.9058 1 17.5234 1.61574 17.5234 2.375V3.75H19.5966C20.7411 3.75 21.6697 4.6734 21.6697 5.8125V7.875H2.32031V5.8125C2.32031 4.6734 3.24848 3.75 4.39346 3.75H6.46661V2.375C6.46661 1.61574 7.08424 1 7.84871 1C8.61319 1 9.23081 1.61574 9.23081 2.375ZM2.32031 9.25H21.6697V20.9375C21.6697 22.0762 20.7411 23 19.5966 23H4.39346C3.24848 23 2.32031 22.0762 2.32031 20.9375V9.25ZM5.08451 14.0625C5.08451 14.4406 5.39376 14.75 5.77556 14.75H7.15766C7.53774 14.75 7.84871 14.4406 7.84871 14.0625V12.6875C7.84871 12.3094 7.53774 12 7.15766 12H5.77556C5.39376 12 5.08451 12.3094 5.08451 12.6875V14.0625ZM10.6129 14.0625C10.6129 14.4406 10.9239 14.75 11.304 14.75H12.6861C13.0661 14.75 13.3771 14.4406 13.3771 14.0625V12.6875C13.3771 12.3094 13.0661 12 12.6861 12H11.304C10.9239 12 10.6129 12.3094 10.6129 12.6875V14.0625ZM16.8324 12C16.4523 12 16.1413 12.3094 16.1413 12.6875V14.0625C16.1413 14.4406 16.4523 14.75 16.8324 14.75H18.2145C18.5945 14.75 18.9055 14.4406 18.9055 14.0625V12.6875C18.9055 12.3094 18.5945 12 18.2145 12H16.8324ZM5.08451 19.5625C5.08451 19.9406 5.39376 20.25 5.77556 20.25H7.15766C7.53774 20.25 7.84871 19.9406 7.84871 19.5625V18.1875C7.84871 17.8094 7.53774 17.5 7.15766 17.5H5.77556C5.39376 17.5 5.08451 17.8094 5.08451 18.1875V19.5625ZM11.304 17.5C10.9239 17.5 10.6129 17.8094 10.6129 18.1875V19.5625C10.6129 19.9406 10.9239 20.25 11.304 20.25H12.6861C13.0661 20.25 13.3771 19.9406 13.3771 19.5625V18.1875C13.3771 17.8094 13.0661 17.5 12.6861 17.5H11.304ZM16.1413 19.5625C16.1413 19.9406 16.4523 20.25 16.8324 20.25H18.2145C18.5945 20.25 18.9055 19.9406 18.9055 19.5625V18.1875C18.9055 17.8094 18.5945 17.5 18.2145 17.5H16.8324C16.4523 17.5 16.1413 17.8094 16.1413 18.1875V19.5625Z" fill="black"/>
</svg>
