<svg width="24" height="24" viewBox="0 0 24 24" fill="none" xmlns="http://www.w3.org/2000/svg">
<path d="M20.5449 14.8336V9.00229C21.2517 8.76248 21.7692 8.09352 21.7692 7.31096C21.7692 6.32645 20.974 5.53127 19.9895 5.53127C19.5225 5.53127 19.0933 5.7206 18.7652 6.02352L13.7921 3.15835C13.8174 3.03213 13.83 2.90591 13.83 2.77969C13.83 1.79518 13.0348 1 12.0503 1C11.0658 1 10.258 1.79518 10.258 2.77969C10.258 2.90591 10.2706 3.01951 10.2959 3.14573L5.27235 6.04877C4.94418 5.73322 4.50241 5.53127 4.01016 5.53127C3.02565 5.53127 2.23047 6.32645 2.23047 7.31096C2.23047 8.13138 2.78583 8.82559 3.55577 9.02754V14.8084C2.79845 15.0103 2.23047 15.7045 2.23047 16.525C2.23047 17.5095 3.02565 18.3046 4.01016 18.3046C4.47717 18.3046 4.90632 18.1153 5.23449 17.8124L10.3211 20.7533C10.2833 20.9048 10.258 21.0562 10.258 21.2203C10.258 22.2048 11.0532 23 12.0377 23C13.0222 23 13.83 22.2174 13.83 21.2329C13.83 21.0688 13.8048 20.9174 13.7669 20.7659L18.803 17.8629C19.1186 18.1406 19.5351 18.3173 19.9895 18.3173C20.974 18.3173 21.7692 17.5221 21.7692 16.5376C21.7692 15.7424 21.2517 15.0734 20.5449 14.8336ZM19.6487 17.3201C19.3584 17.1939 19.1438 16.9162 19.1312 16.5754C19.1312 16.5628 19.1312 16.5502 19.1312 16.5376V16.525C19.1312 16.5123 19.1312 16.4997 19.1312 16.4745C19.1438 16.1968 19.2953 15.9443 19.5225 15.8055C19.5351 15.7929 19.5477 15.7803 19.573 15.7803C19.5856 15.7803 19.5982 15.7676 19.6108 15.7676C19.7244 15.7045 19.8633 15.6793 20.0021 15.6793C20.1915 15.6793 20.3682 15.7424 20.5196 15.856C20.5322 15.8686 20.5575 15.8812 20.5701 15.8939C20.7468 16.0453 20.8604 16.2851 20.8604 16.5376C20.8604 17.0046 20.4818 17.3959 20.0021 17.3959C19.9012 17.3959 19.8128 17.3832 19.7244 17.3454C19.6866 17.3328 19.674 17.3201 19.6487 17.3201ZM12.0503 22.0912C11.5959 22.0912 11.2173 21.7252 11.192 21.2708C11.192 21.2582 11.192 21.2456 11.192 21.2456C11.192 21.2329 11.192 21.2329 11.192 21.2203C11.2047 20.93 11.3561 20.6776 11.5833 20.5261C11.6338 20.5009 11.6717 20.4756 11.7222 20.4504C11.7474 20.4377 11.76 20.4377 11.7853 20.4251C11.8736 20.3999 11.962 20.3873 12.0503 20.3873C12.1387 20.3873 12.227 20.3999 12.3154 20.4251C12.3406 20.4377 12.3532 20.4377 12.3785 20.4504C12.429 20.4756 12.4795 20.5009 12.5173 20.5261C12.7445 20.6776 12.896 20.93 12.9086 21.2203C12.9086 21.2329 12.9086 21.2329 12.9086 21.2456C12.9086 21.2582 12.9086 21.2708 12.9086 21.2708C12.8834 21.7252 12.5047 22.0912 12.0503 22.0912ZM4.35095 17.3201C4.24998 17.358 4.13638 17.3832 4.01016 17.3832C3.54315 17.3832 3.15187 17.0046 3.15187 16.525C3.15187 16.222 3.30333 15.957 3.54315 15.8055C3.55577 15.7929 3.56839 15.7803 3.59364 15.7803C3.71985 15.7045 3.8587 15.6667 4.01016 15.6667C4.02278 15.6667 4.04802 15.6667 4.06065 15.6667C4.23735 15.6793 4.38882 15.7424 4.52766 15.8307C4.54028 15.8434 4.56552 15.856 4.57815 15.8686C4.72961 16.0075 4.84321 16.1968 4.86845 16.4114C4.86845 16.424 4.86845 16.4492 4.86845 16.4745C4.86845 16.4871 4.86845 16.4997 4.86845 16.525C4.86845 16.5628 4.86845 16.5881 4.85583 16.6259C4.81796 16.9162 4.64125 17.1561 4.40144 17.2823C4.38882 17.2949 4.36357 17.3075 4.35095 17.3201ZM3.16449 7.31096C3.16449 6.84395 3.54315 6.45267 4.02278 6.45267C4.16162 6.45267 4.28784 6.49053 4.41406 6.54102C4.42668 6.55364 4.45193 6.55364 4.46455 6.56626C4.59077 6.642 4.70436 6.75559 4.7801 6.89443C4.84321 7.02065 4.88107 7.15949 4.88107 7.31096C4.88107 7.34882 4.88107 7.37407 4.86845 7.41193C4.86845 7.43718 4.86845 7.4498 4.85583 7.47504C4.83058 7.61388 4.76747 7.72748 4.69174 7.82846C4.65388 7.87894 4.61601 7.91681 4.57815 7.95468C4.56552 7.9673 4.5529 7.97992 4.52766 7.99254C4.38882 8.10614 4.21211 8.16925 4.01016 8.16925C3.8587 8.16925 3.71985 8.13138 3.59364 8.05565C3.58101 8.04303 3.55577 8.04303 3.54315 8.03041C3.31595 7.86632 3.16449 7.61388 3.16449 7.31096ZM12.0503 1.9214C12.4668 1.9214 12.8076 2.22433 12.8834 2.61561C12.8834 2.64085 12.896 2.65347 12.896 2.67871C12.896 2.71658 12.9086 2.74182 12.9086 2.77969C12.9086 3.09524 12.7445 3.3603 12.4921 3.51176C12.4795 3.52438 12.4542 3.52438 12.4416 3.537C12.3406 3.58749 12.227 3.62536 12.1008 3.62536C12.0882 3.62536 12.0756 3.62536 12.0503 3.62536C11.9115 3.62536 11.7853 3.58749 11.659 3.537C11.6464 3.52438 11.6212 3.52438 11.6086 3.51176C11.4697 3.42341 11.3561 3.30981 11.2804 3.15835C11.2173 3.04475 11.192 2.90591 11.192 2.76707C11.192 2.7292 11.192 2.70396 11.2047 2.66609C11.2047 2.64085 11.2047 2.62823 11.2173 2.60298C11.2804 2.22433 11.6338 1.9214 12.0503 1.9214ZM19.6487 6.5284C19.7497 6.49053 19.8633 6.46529 19.9895 6.46529C20.4565 6.46529 20.8478 6.84395 20.8478 7.32358C20.8478 7.57602 20.7342 7.81583 20.5575 7.9673C20.5449 7.97992 20.5322 7.99254 20.507 8.00516C20.3682 8.11876 20.1915 8.18187 19.9895 8.18187C19.8759 8.18187 19.7623 8.15663 19.6487 8.11876C19.6235 8.10614 19.5982 8.09352 19.5604 8.08089C19.5477 8.06827 19.5225 8.06827 19.5099 8.05565C19.3079 7.91681 19.1565 7.70224 19.1312 7.4498C19.1312 7.43718 19.1312 7.41193 19.1312 7.38669C19.1312 7.37407 19.1312 7.36144 19.1312 7.3362C19.1312 7.18474 19.1691 7.0459 19.2322 6.91968C19.3205 6.76822 19.4468 6.642 19.5982 6.56626C19.6108 6.54102 19.6361 6.5284 19.6487 6.5284ZM18.7273 15.2628L13.7669 12.3976C13.8048 12.2461 13.83 12.0947 13.83 11.9432C13.83 11.7791 13.8048 11.6277 13.7669 11.4888L18.7652 8.61101C18.9798 8.81296 19.2322 8.95181 19.5225 9.04016V14.821C19.2196 14.8967 18.9419 15.0482 18.7273 15.2628ZM5.72674 7.82846H7.70838C7.79673 8.11876 7.96082 8.3712 8.16277 8.58577L4.57815 14.7958V9.00229C5.12089 8.82559 5.55003 8.38382 5.72674 7.82846ZM9.41234 6.45267C9.87935 6.45267 10.2706 6.83133 10.2706 7.31096C10.2706 7.51291 10.2075 7.68961 10.0939 7.82846C9.95508 8.01778 9.74051 8.144 9.48807 8.15663C9.46283 8.15663 9.43758 8.15663 9.41234 8.15663C8.94533 8.15663 8.55405 7.77797 8.55405 7.29834C8.55405 7.14687 8.59192 7.00803 8.65502 6.88181C8.79387 6.62937 9.07155 6.45267 9.3871 6.44005C9.39972 6.45267 9.39972 6.45267 9.41234 6.45267ZM8.97057 9.04016C9.10941 9.07803 9.26088 9.09065 9.41234 9.09065C10.2201 9.09065 10.9017 8.56053 11.1163 7.82846H18.2477L13.2999 10.681C12.9717 10.3655 12.53 10.1635 12.0377 10.1635C11.0532 10.1635 10.258 10.9587 10.258 11.9432C10.258 12.1073 10.2833 12.2587 10.3211 12.3976L5.37333 15.2501L8.97057 9.04016ZM12.0503 12.8015C11.9115 12.8015 11.7853 12.7636 11.659 12.7131C11.6338 12.7005 11.6086 12.6879 11.5833 12.6627C11.3561 12.5112 11.192 12.2461 11.192 11.9432C11.192 11.9306 11.192 11.918 11.192 11.8927C11.2173 11.4383 11.5833 11.0849 12.0377 11.0849C12.1765 11.0849 12.3028 11.1228 12.429 11.1733C12.694 11.3121 12.8834 11.5772 12.896 11.8927C12.896 11.9053 12.896 11.918 12.896 11.9432C12.896 11.9558 12.896 11.9684 12.896 11.9937C12.8707 12.4481 12.5047 12.8015 12.0503 12.8015ZM11.1415 6.89443C11.0658 6.57889 10.9017 6.28858 10.6872 6.06139L11.5959 4.49627C11.7474 4.53414 11.8989 4.55938 12.0503 4.55938C12.5426 4.55938 12.9843 4.35743 13.3125 4.04188L18.2477 6.89443H11.1415ZM9.89197 5.59438C9.74051 5.55651 9.57642 5.53127 9.41234 5.53127C8.56667 5.53127 7.85984 6.1245 7.68314 6.90706H5.84034L10.7755 4.06713L9.89197 5.59438ZM5.75198 16.1211L10.7881 13.2054C11.0027 13.42 11.2804 13.584 11.5833 13.6598V19.5037C11.3182 19.5795 11.0784 19.7057 10.8765 19.8824L5.75198 16.9415C5.77723 16.8153 5.80247 16.6764 5.80247 16.5376C5.80247 16.3861 5.77723 16.2473 5.75198 16.1211ZM12.5173 19.5164V13.6724C12.8203 13.5841 13.0979 13.4326 13.3125 13.218L18.2729 16.0832C18.2351 16.2347 18.2098 16.3861 18.2098 16.5376C18.2098 16.7017 18.2351 16.8531 18.2729 16.992L13.2368 19.9076C13.0222 19.7183 12.7824 19.5921 12.5173 19.5164Z" fill="#22CC77"/>
</svg>
