<svg width="24" height="24" viewBox="0 0 24 24" fill="none" xmlns="http://www.w3.org/2000/svg">
<path d="M9.77444 13.4823C9.60687 13.4092 9.43072 13.3749 9.25027 13.3749H3.75081C2.99076 13.3749 2.37594 13.9897 2.37594 14.7497C2.37594 15.5098 2.99076 16.1246 3.75081 16.1246H5.93126L1.40279 20.6531C0.865736 21.1901 0.865736 22.0602 1.40279 22.5972C1.93985 23.1343 2.80988 23.1343 3.34694 22.5972L7.8754 18.0709V20.2492C7.8754 21.0092 8.49023 21.6241 9.25027 21.6241C10.0103 21.6241 10.6251 21.0092 10.6251 20.2492V14.7497C10.6251 14.5708 10.5887 14.3926 10.5192 14.2247C10.3802 13.8861 10.1139 13.6198 9.77444 13.4823ZM14.2256 10.5177C14.3931 10.5908 14.5693 10.6251 14.7497 10.6251H20.2492C21.0092 10.6251 21.6241 10.0103 21.6241 9.25027C21.6241 8.49023 21.0092 7.8754 20.2492 7.8754H18.0687L22.5972 3.34694C23.1343 2.80988 23.1343 1.93985 22.5972 1.40279C22.0606 0.866166 21.1905 0.865306 20.6531 1.40279L16.1246 5.93341V3.75081C16.1246 2.99076 15.5098 2.37594 14.7497 2.37594C13.9897 2.37594 13.3749 2.99076 13.3749 3.75081V9.25027C13.3749 9.42917 13.4113 9.60739 13.4807 9.7753C13.6198 10.1139 13.8861 10.3802 14.2256 10.5177ZM9.25027 2.37594C8.4898 2.37594 7.8754 2.99076 7.8754 3.75081V5.93126L3.34823 1.40387C2.81117 0.86681 1.94114 0.86681 1.40408 1.40387C0.867025 1.94092 0.867025 2.81096 1.40408 3.34801L5.93341 7.8754H3.75081C2.99076 7.8754 2.37594 8.4898 2.37594 9.25027C2.37594 10.0107 2.99076 10.6251 3.75081 10.6251H9.25027C9.42917 10.6251 9.60739 10.5887 9.7753 10.5192C10.1139 10.3802 10.3802 10.1139 10.5177 9.77444C10.5908 9.60687 10.6251 9.43072 10.6251 9.25027V3.75081C10.6251 2.99076 10.0107 2.37594 9.25027 2.37594ZM18.0709 16.1246H20.2492C21.0092 16.1246 21.6241 15.5098 21.6241 14.7497C21.6241 13.9897 21.0092 13.3749 20.2492 13.3749H14.7497C14.5708 13.3749 14.3926 13.4113 14.2247 13.4806C13.8879 13.6199 13.6198 13.8879 13.4806 14.2247C13.4092 14.3931 13.3749 14.5693 13.3749 14.7497V20.2492C13.3749 21.0092 13.9897 21.6241 14.7497 21.6241C15.5098 21.6241 16.1246 21.0092 16.1246 20.2492V18.0687L20.6531 22.5972C21.1901 23.1343 22.0602 23.1343 22.5972 22.5972C23.1338 22.0606 23.1347 21.1905 22.5972 20.6531L18.0709 16.1246Z" fill="black"/>
</svg>
