<svg width="20" height="20" viewBox="0 0 20 20" fill="none" xmlns="http://www.w3.org/2000/svg">
<path fill-rule="evenodd" clip-rule="evenodd" d="M15.3652 3.12516H13.4359C12.9626 1.79313 11.7021 0.833496 10.209 0.833496C8.71582 0.833496 7.4554 1.79313 6.98275 3.12516H5.05273C4.10384 3.12516 3.33398 3.8943 3.33398 4.84391V17.4481C3.33398 18.397 4.10384 19.1668 5.05273 19.1668H15.3652C16.3141 19.1668 17.084 18.3977 17.084 17.4481V4.84391C17.084 3.8943 16.3141 3.12516 15.3652 3.12516ZM10.209 3.12516C10.8417 3.12516 11.3548 3.63828 11.3548 4.271C11.3548 4.90371 10.8417 5.41683 10.209 5.41683C9.57627 5.41683 9.06315 4.90478 9.06315 4.271C9.06315 3.63828 9.5752 3.12516 10.209 3.12516ZM6.87565 8.75016C6.87565 8.52004 7.0622 8.3335 7.29232 8.3335H13.1257C13.3558 8.3335 13.5423 8.52004 13.5423 8.75016V9.16683C13.5423 9.39695 13.3558 9.5835 13.1257 9.5835H7.29232C7.0622 9.5835 6.87565 9.39695 6.87565 9.16683V8.75016ZM6.87565 12.0835C6.87565 11.8534 7.0622 11.6668 7.29232 11.6668H13.1257C13.3558 11.6668 13.5423 11.8534 13.5423 12.0835V12.5002C13.5423 12.7303 13.3558 12.9168 13.1257 12.9168H7.29232C7.0622 12.9168 6.87565 12.7303 6.87565 12.5002V12.0835ZM6.87565 15.4168C6.87565 15.1867 7.0622 15.0002 7.29232 15.0002H13.1257C13.3558 15.0002 13.5423 15.1867 13.5423 15.4168V15.8335C13.5423 16.0636 13.3558 16.2502 13.1257 16.2502H7.29232C7.0622 16.2502 6.87565 16.0636 6.87565 15.8335V15.4168Z" fill="#A9ACAC"/>
</svg>
