<svg width="48" height="48" viewBox="0 0 48 48" fill="none" xmlns="http://www.w3.org/2000/svg">
<rect width="48" height="48" rx="24" fill="#E0E3E3"/>
<g clip-path="url(#clip0_5813_29086)">
<path d="M13.5 30.5625C13.5 29.8365 14.0878 29.25 14.8125 29.25H17.0544C17.5605 28.0893 18.7172 27.2812 20.0625 27.2812C21.4078 27.2812 22.5275 28.0893 23.0689 29.25H33.1875C33.9135 29.25 34.5 29.8365 34.5 30.5625C34.5 31.2885 33.9135 31.875 33.1875 31.875H23.0689C22.5275 33.0357 21.4078 33.8438 20.0625 33.8438C18.7172 33.8438 17.5605 33.0357 17.0544 31.875H14.8125C14.0878 31.875 13.5 31.2885 13.5 30.5625ZM21.375 30.5625C21.375 29.8365 20.7885 29.25 20.0625 29.25C19.3365 29.25 18.75 29.8365 18.75 30.5625C18.75 31.2885 19.3365 31.875 20.0625 31.875C20.7885 31.875 21.375 31.2885 21.375 30.5625ZM27.9375 20.7188C29.2828 20.7188 30.4025 21.5268 30.9439 22.6875H33.1875C33.9135 22.6875 34.5 23.274 34.5 24C34.5 24.726 33.9135 25.3125 33.1875 25.3125H30.9439C30.4025 26.4732 29.2828 27.2812 27.9375 27.2812C26.5922 27.2812 25.4355 26.4732 24.9311 25.3125H14.8125C14.0878 25.3125 13.5 24.726 13.5 24C13.5 23.274 14.0878 22.6875 14.8125 22.6875H24.9311C25.4355 21.5268 26.5922 20.7188 27.9375 20.7188ZM29.25 24C29.25 23.274 28.6635 22.6875 27.9375 22.6875C27.2115 22.6875 26.625 23.274 26.625 24C26.625 24.726 27.2115 25.3125 27.9375 25.3125C28.6635 25.3125 29.25 24.726 29.25 24ZM33.1875 16.125C33.9135 16.125 34.5 16.7128 34.5 17.4375C34.5 18.1635 33.9135 18.75 33.1875 18.75H24.3814C23.84 19.9107 22.7203 20.7188 21.375 20.7188C20.0297 20.7188 18.873 19.9107 18.3686 18.75H14.8125C14.0878 18.75 13.5 18.1635 13.5 17.4375C13.5 16.7128 14.0878 16.125 14.8125 16.125H18.3686C18.873 14.9663 20.0297 14.1562 21.375 14.1562C22.7203 14.1562 23.84 14.9663 24.3814 16.125H33.1875ZM20.0625 17.4375C20.0625 18.1635 20.649 18.75 21.375 18.75C22.101 18.75 22.6875 18.1635 22.6875 17.4375C22.6875 16.7128 22.101 16.125 21.375 16.125C20.649 16.125 20.0625 16.7128 20.0625 17.4375Z" fill="black"/>
</g>
<defs>
<clipPath id="clip0_5813_29086">
<rect width="21" height="21" fill="white" transform="translate(13.5 13.5)"/>
</clipPath>
</defs>
</svg>
