<svg width="106" height="38" viewBox="0 0 106 38" fill="none" xmlns="http://www.w3.org/2000/svg">
<rect y="0.5" width="106" height="37" rx="8" fill="#B9E9D4"/>
<path d="M25.7091 17.6293H24.1579C24.0983 17.2978 23.9872 17.0062 23.8248 16.7543C23.6624 16.5024 23.4636 16.2886 23.2282 16.1129C22.9929 15.9373 22.7294 15.8047 22.4378 15.7152C22.1494 15.6257 21.8428 15.581 21.518 15.581C20.9314 15.581 20.406 15.7285 19.942 16.0234C19.4813 16.3184 19.1167 16.7509 18.8483 17.321C18.5831 17.8911 18.4506 18.5871 18.4506 19.4091C18.4506 20.2377 18.5831 20.937 18.8483 21.5071C19.1167 22.0772 19.483 22.508 19.947 22.7997C20.411 23.0914 20.933 23.2372 21.5131 23.2372C21.8345 23.2372 22.1395 23.1941 22.4278 23.108C22.7195 23.0185 22.983 22.8875 23.2183 22.7152C23.4536 22.5429 23.6525 22.3324 23.8149 22.0838C23.9806 21.8319 24.095 21.5436 24.1579 21.2188L25.7091 21.2237C25.6262 21.7242 25.4655 22.1849 25.2268 22.6058C24.9915 23.0234 24.6882 23.3847 24.317 23.6896C23.9491 23.9912 23.5282 24.2249 23.0542 24.3906C22.5803 24.5563 22.0632 24.6392 21.5031 24.6392C20.6215 24.6392 19.836 24.4304 19.1466 24.0128C18.4572 23.5919 17.9136 22.9903 17.5159 22.2081C17.1215 21.4259 16.9243 20.4929 16.9243 19.4091C16.9243 18.322 17.1231 17.389 17.5209 16.6101C17.9186 15.8279 18.4622 15.228 19.1515 14.8104C19.8409 14.3894 20.6248 14.179 21.5031 14.179C22.0434 14.179 22.5471 14.2569 23.0145 14.4126C23.4851 14.5651 23.9077 14.7905 24.2822 15.0888C24.6568 15.3838 24.9666 15.745 25.2119 16.1726C25.4572 16.5968 25.6229 17.0824 25.7091 17.6293ZM30.6446 24.6541C29.9287 24.6541 29.3039 24.4901 28.7703 24.1619C28.2367 23.8338 27.8224 23.3748 27.5274 22.7848C27.2325 22.1948 27.085 21.5054 27.085 20.7166C27.085 19.9245 27.2325 19.2318 27.5274 18.6385C27.8224 18.0452 28.2367 17.5845 28.7703 17.2564C29.3039 16.9283 29.9287 16.7642 30.6446 16.7642C31.3605 16.7642 31.9853 16.9283 32.5189 17.2564C33.0525 17.5845 33.4668 18.0452 33.7618 18.6385C34.0568 19.2318 34.2043 19.9245 34.2043 20.7166C34.2043 21.5054 34.0568 22.1948 33.7618 22.7848C33.4668 23.3748 33.0525 23.8338 32.5189 24.1619C31.9853 24.4901 31.3605 24.6541 30.6446 24.6541ZM30.6496 23.4062C31.1136 23.4062 31.4981 23.2836 31.803 23.0384C32.1079 22.7931 32.3333 22.4666 32.4791 22.0589C32.6283 21.6513 32.7029 21.2022 32.7029 20.7116C32.7029 20.2244 32.6283 19.777 32.4791 19.3693C32.3333 18.9583 32.1079 18.6286 31.803 18.38C31.4981 18.1314 31.1136 18.0071 30.6496 18.0071C30.1823 18.0071 29.7945 18.1314 29.4862 18.38C29.1813 18.6286 28.9543 18.9583 28.8051 19.3693C28.6593 19.777 28.5864 20.2244 28.5864 20.7116C28.5864 21.2022 28.6593 21.6513 28.8051 22.0589C28.9543 22.4666 29.1813 22.7931 29.4862 23.0384C29.7945 23.2836 30.1823 23.4062 30.6496 23.4062ZM37.3501 19.9659V24.5H35.8635V16.8636H37.2904V18.1065H37.3849C37.5605 17.7022 37.8356 17.3774 38.2101 17.1321C38.588 16.8868 39.0636 16.7642 39.637 16.7642C40.1573 16.7642 40.6131 16.8736 41.0042 17.0923C41.3953 17.3078 41.6985 17.6293 41.914 18.0568C42.1294 18.4844 42.2371 19.013 42.2371 19.6428V24.5H40.7506V19.8217C40.7506 19.2682 40.6064 18.8357 40.3181 18.5241C40.0297 18.2093 39.6337 18.0518 39.1299 18.0518C38.7852 18.0518 38.4786 18.1264 38.2101 18.2756C37.945 18.4247 37.7345 18.6435 37.5787 18.9318C37.4263 19.2169 37.3501 19.5616 37.3501 19.9659ZM45.7172 19.9659V24.5H44.2307V16.8636H45.6576V18.1065H45.752C45.9277 17.7022 46.2028 17.3774 46.5773 17.1321C46.9552 16.8868 47.4308 16.7642 48.0042 16.7642C48.5245 16.7642 48.9803 16.8736 49.3714 17.0923C49.7625 17.3078 50.0657 17.6293 50.2812 18.0568C50.4966 18.4844 50.6043 19.013 50.6043 19.6428V24.5H49.1178V19.8217C49.1178 19.2682 48.9736 18.8357 48.6853 18.5241C48.3969 18.2093 48.0009 18.0518 47.4971 18.0518C47.1524 18.0518 46.8458 18.1264 46.5773 18.2756C46.3122 18.4247 46.1017 18.6435 45.9459 18.9318C45.7935 19.2169 45.7172 19.5616 45.7172 19.9659ZM55.8891 24.6541C55.1367 24.6541 54.4888 24.4934 53.9452 24.1719C53.405 23.8471 52.9874 23.3913 52.6924 22.8047C52.4007 22.2147 52.2549 21.5237 52.2549 20.7315C52.2549 19.9493 52.4007 19.2599 52.6924 18.6634C52.9874 18.0668 53.3983 17.6011 53.9253 17.2663C54.4556 16.9316 55.0754 16.7642 55.7847 16.7642C56.2156 16.7642 56.6332 16.8355 57.0376 16.978C57.4419 17.1205 57.8048 17.3442 58.1263 17.6491C58.4478 17.9541 58.7014 18.3501 58.887 18.8374C59.0726 19.3213 59.1654 19.9096 59.1654 20.6023V21.1293H53.0951V20.0156H57.7087C57.7087 19.6245 57.6292 19.2782 57.4701 18.9766C57.311 18.6716 57.0873 18.4313 56.7989 18.2557C56.5139 18.08 56.1791 17.9922 55.7947 17.9922C55.377 17.9922 55.0125 18.0949 54.7009 18.3004C54.3927 18.5026 54.154 18.7678 53.985 19.0959C53.8193 19.4207 53.7364 19.7737 53.7364 20.1548V21.0249C53.7364 21.5353 53.8259 21.9695 54.0049 22.3274C54.1872 22.6854 54.4407 22.9588 54.7655 23.1477C55.0903 23.3333 55.4698 23.4261 55.904 23.4261C56.1858 23.4261 56.4426 23.3864 56.6746 23.3068C56.9066 23.224 57.1072 23.1013 57.2762 22.9389C57.4452 22.7765 57.5745 22.576 57.664 22.3374L59.0709 22.5909C58.9582 23.0052 58.7561 23.3681 58.4644 23.6797C58.176 23.9879 57.8131 24.2282 57.3756 24.4006C56.9414 24.5696 56.4459 24.6541 55.8891 24.6541ZM64.0313 24.6541C63.2922 24.6541 62.6559 24.4867 62.1222 24.152C61.5919 23.8139 61.1843 23.3482 60.8992 22.755C60.6142 22.1617 60.4717 21.4822 60.4717 20.7166C60.4717 19.9411 60.6175 19.2566 60.9092 18.6634C61.2008 18.0668 61.6118 17.6011 62.1421 17.2663C62.6724 16.9316 63.2972 16.7642 64.0164 16.7642C64.5964 16.7642 65.1135 16.8719 65.5676 17.0874C66.0216 17.2995 66.3879 17.5978 66.6663 17.9822C66.948 18.3667 67.1154 18.8158 67.1684 19.3295H65.7217C65.6421 18.9716 65.4598 18.6634 65.1748 18.4048C64.8931 18.1463 64.5152 18.017 64.0413 18.017C63.627 18.017 63.2641 18.1264 62.9525 18.3452C62.6443 18.5606 62.404 18.8688 62.2316 19.2699C62.0593 19.6676 61.9731 20.1383 61.9731 20.6818C61.9731 21.2386 62.0576 21.7192 62.2267 22.1236C62.3957 22.5279 62.6343 22.8411 62.9426 23.0632C63.2541 23.2853 63.6204 23.3963 64.0413 23.3963C64.323 23.3963 64.5782 23.3449 64.8069 23.2422C65.0389 23.1361 65.2328 22.9853 65.3886 22.7898C65.5477 22.5942 65.6587 22.3589 65.7217 22.0838H67.1684C67.1154 22.5777 66.9546 23.0185 66.6862 23.4062C66.4177 23.794 66.0581 24.099 65.6073 24.321C65.1599 24.5431 64.6346 24.6541 64.0313 24.6541ZM72.3227 16.8636V18.0568H68.1515V16.8636H72.3227ZM69.2702 15.0341H70.7567V22.2578C70.7567 22.5462 70.7997 22.7633 70.8859 22.9091C70.9721 23.0516 71.0831 23.1494 71.219 23.2024C71.3582 23.2521 71.509 23.277 71.6714 23.277C71.7907 23.277 71.8952 23.2687 71.9846 23.2521C72.0741 23.2356 72.1437 23.2223 72.1934 23.2124L72.4619 24.4403C72.3757 24.4735 72.2531 24.5066 72.094 24.5398C71.9349 24.5762 71.7361 24.5961 71.4974 24.5994C71.1063 24.6061 70.7417 24.5365 70.4037 24.3906C70.0656 24.2448 69.7922 24.0194 69.5834 23.7145C69.3746 23.4096 69.2702 23.0268 69.2702 22.5661V15.0341ZM77.1762 24.6541C76.4239 24.6541 75.7759 24.4934 75.2323 24.1719C74.6921 23.8471 74.2745 23.3913 73.9795 22.8047C73.6878 22.2147 73.542 21.5237 73.542 20.7315C73.542 19.9493 73.6878 19.2599 73.9795 18.6634C74.2745 18.0668 74.6855 17.6011 75.2124 17.2663C75.7427 16.9316 76.3625 16.7642 77.0718 16.7642C77.5027 16.7642 77.9203 16.8355 78.3247 16.978C78.729 17.1205 79.0919 17.3442 79.4134 17.6491C79.7349 17.9541 79.9885 18.3501 80.1741 18.8374C80.3597 19.3213 80.4525 19.9096 80.4525 20.6023V21.1293H74.3822V20.0156H78.9958C78.9958 19.6245 78.9163 19.2782 78.7572 18.9766C78.5981 18.6716 78.3744 18.4313 78.086 18.2557C77.801 18.08 77.4662 17.9922 77.0818 17.9922C76.6642 17.9922 76.2996 18.0949 75.988 18.3004C75.6798 18.5026 75.4411 18.7678 75.2721 19.0959C75.1064 19.4207 75.0235 19.7737 75.0235 20.1548V21.0249C75.0235 21.5353 75.113 21.9695 75.292 22.3274C75.4743 22.6854 75.7278 22.9588 76.0526 23.1477C76.3775 23.3333 76.757 23.4261 77.1911 23.4261C77.4729 23.4261 77.7297 23.3864 77.9617 23.3068C78.1937 23.224 78.3943 23.1013 78.5633 22.9389C78.7323 22.7765 78.8616 22.576 78.9511 22.3374L80.358 22.5909C80.2454 23.0052 80.0432 23.3681 79.7515 23.6797C79.4632 23.9879 79.1002 24.2282 78.6627 24.4006C78.2285 24.5696 77.733 24.6541 77.1762 24.6541ZM84.9605 24.6491C84.344 24.6491 83.7938 24.4917 83.3099 24.1768C82.8293 23.8587 82.4515 23.4062 82.1764 22.8196C81.9046 22.2296 81.7687 21.522 81.7687 20.6967C81.7687 19.8714 81.9063 19.1655 82.1814 18.5788C82.4598 17.9922 82.8409 17.5431 83.3248 17.2315C83.8087 16.92 84.3573 16.7642 84.9704 16.7642C85.4444 16.7642 85.8256 16.8438 86.1139 17.0028C86.4056 17.1586 86.6309 17.3409 86.79 17.5497C86.9524 17.7585 87.0784 17.9425 87.1679 18.1016H87.2574V14.3182H88.7439V24.5H87.2922V23.3118H87.1679C87.0784 23.4742 86.9491 23.6598 86.7801 23.8686C86.6144 24.0774 86.3857 24.2597 86.094 24.4155C85.8023 24.5713 85.4245 24.6491 84.9605 24.6491ZM85.2886 23.3814C85.7162 23.3814 86.0774 23.2687 86.3724 23.0433C86.6707 22.8146 86.8961 22.4981 87.0486 22.0938C87.2043 21.6894 87.2822 21.2187 87.2822 20.6818C87.2822 20.1515 87.206 19.6875 87.0535 19.2898C86.9011 18.892 86.6773 18.5821 86.3824 18.3601C86.0874 18.138 85.7228 18.027 85.2886 18.027C84.8412 18.027 84.4683 18.143 84.17 18.375C83.8717 18.607 83.6463 18.9235 83.4939 19.3246C83.3447 19.7256 83.2702 20.178 83.2702 20.6818C83.2702 21.1922 83.3464 21.6513 83.4988 22.0589C83.6513 22.4666 83.8767 22.7898 84.175 23.0284C84.4766 23.2637 84.8478 23.3814 85.2886 23.3814Z" fill="#006C4D"/>
</svg>
