<svg width="12" height="20" viewBox="0 0 12 20" fill="none" xmlns="http://www.w3.org/2000/svg">
<path d="M5.77172 0.666748C6.54329 0.666748 7.16402 1.29091 7.16402 2.06675V2.98842C7.91239 3.08175 8.66076 3.31508 9.39172 3.51925C10.1343 3.72341 10.5694 4.49341 10.3605 5.24008C10.1575 5.98675 9.39172 6.42425 8.64915 6.21425C8.09803 6.06258 7.54691 5.89925 6.98418 5.78842C6.1372 5.62508 5.15098 5.70092 4.3562 6.05092C3.64265 6.36008 3.05672 7.10675 3.8631 7.62592C4.62886 8.12175 5.59188 8.32008 6.45047 8.57092C7.45989 8.85675 8.74197 9.22425 9.70499 9.88342C10.9581 10.7467 11.544 12.1467 11.2655 13.6517C11.0045 15.1042 9.99505 16.0609 8.78838 16.5509C8.28947 16.7551 7.73835 16.8309 7.16402 16.9476V17.9334C7.16402 18.7092 6.54329 19.3334 5.77172 19.3334C5.00015 19.3334 4.37941 18.7092 4.37941 17.9334L4.3272 16.8076C3.4454 16.5976 2.5288 16.2942 1.6238 15.9967C0.892838 15.7517 0.498351 14.9584 0.736204 14.2292C0.979858 13.4942 1.71662 13.0976 2.49399 13.3368C3.38159 13.6284 4.28659 13.9784 5.20319 14.1184C6.29963 14.2817 7.17563 14.1826 7.74995 13.9492C8.52153 13.6401 8.88701 12.7184 8.13284 12.1934C7.35547 11.6626 6.35765 11.4526 5.47005 11.2017C4.49544 10.9217 3.28297 10.5776 2.36636 9.98842C1.10749 9.17758 0.469345 7.82425 0.742005 6.33675C0.997262 4.91925 2.0937 3.98008 3.24816 3.47841C3.60204 3.32675 3.98492 3.20425 4.3272 3.11091V2.06675C4.3272 1.29091 5.00015 0.666748 5.71951 0.666748H5.77172Z" fill="#232323"/>
</svg>
