<svg width="87" height="38" viewBox="0 0 87 38" fill="none" xmlns="http://www.w3.org/2000/svg">
<rect y="0.5" width="87" height="37" rx="8" fill="#B9E9D4"/>
<path d="M17.6167 24.5V14.3182H24.0002V15.6406H19.1529V18.7429H23.6671V20.0604H19.1529V23.1776H24.0598V24.5H17.6167ZM27.4194 19.9659V24.5H25.9329V16.8636H27.3597V18.1065H27.4542C27.6299 17.7022 27.9049 17.3774 28.2795 17.1321C28.6573 16.8868 29.1329 16.7642 29.7063 16.7642C30.2267 16.7642 30.6824 16.8736 31.0735 17.0923C31.4646 17.3078 31.7679 17.6293 31.9833 18.0568C32.1987 18.4844 32.3065 19.013 32.3065 19.6428V24.5H30.82V19.8217C30.82 19.2682 30.6758 18.8357 30.3874 18.5241C30.0991 18.2093 29.703 18.0518 29.1992 18.0518C28.8545 18.0518 28.5479 18.1264 28.2795 18.2756C28.0143 18.4247 27.8039 18.6435 27.6481 18.9318C27.4956 19.2169 27.4194 19.5616 27.4194 19.9659ZM36.5224 24.669C36.0385 24.669 35.601 24.5795 35.2099 24.4006C34.8188 24.2183 34.5089 23.9548 34.2802 23.6101C34.0548 23.2654 33.9421 22.8428 33.9421 22.3423C33.9421 21.9115 34.025 21.5568 34.1907 21.2784C34.3564 21 34.5801 20.7796 34.8619 20.6172C35.1436 20.4548 35.4585 20.3321 35.8065 20.2493C36.1545 20.1664 36.5091 20.1035 36.8704 20.0604C37.3278 20.0073 37.699 19.9643 37.984 19.9311C38.2691 19.8946 38.4762 19.8366 38.6055 19.7571C38.7347 19.6776 38.7994 19.5483 38.7994 19.3693V19.3345C38.7994 18.9003 38.6767 18.5639 38.4315 18.3253C38.1895 18.0866 37.8282 17.9673 37.3477 17.9673C36.8472 17.9673 36.4528 18.0784 36.1644 18.3004C35.8794 18.5192 35.6822 18.7628 35.5728 19.0312L34.1758 18.7131C34.3415 18.2491 34.5835 17.8745 34.9016 17.5895C35.2231 17.3011 35.5927 17.0923 36.0103 16.9631C36.4279 16.8305 36.8671 16.7642 37.3278 16.7642C37.6327 16.7642 37.9558 16.8007 38.2972 16.8736C38.6419 16.9432 38.9634 17.0724 39.2617 17.2614C39.5633 17.4503 39.8103 17.7204 40.0025 18.0717C40.1947 18.4197 40.2908 18.8722 40.2908 19.429V24.5H38.8391V23.456H38.7795C38.6834 23.6482 38.5392 23.8371 38.3469 24.0227C38.1547 24.2083 37.9078 24.3625 37.6062 24.4851C37.3046 24.6077 36.9433 24.669 36.5224 24.669ZM36.8455 23.4759C37.2565 23.4759 37.6078 23.3946 37.8995 23.2322C38.1945 23.0698 38.4182 22.8577 38.5707 22.5959C38.7264 22.3307 38.8043 22.0473 38.8043 21.7457V20.7614C38.7513 20.8144 38.6486 20.8641 38.4961 20.9105C38.3469 20.9536 38.1763 20.9917 37.984 21.0249C37.7918 21.0547 37.6045 21.0829 37.4222 21.1094C37.2399 21.1326 37.0875 21.1525 36.9648 21.169C36.6765 21.2055 36.413 21.2668 36.1744 21.353C35.939 21.4392 35.7501 21.5634 35.6076 21.7259C35.4684 21.8849 35.3988 22.0971 35.3988 22.3622C35.3988 22.7301 35.5347 23.0085 35.8065 23.1974C36.0782 23.383 36.4246 23.4759 36.8455 23.4759ZM42.3901 24.5V14.3182H43.8766V18.1016H43.9661C44.0523 17.9425 44.1766 17.7585 44.339 17.5497C44.5014 17.3409 44.7267 17.1586 45.0151 17.0028C45.3034 16.8438 45.6846 16.7642 46.1586 16.7642C46.775 16.7642 47.3252 16.92 47.8091 17.2315C48.293 17.5431 48.6725 17.9922 48.9476 18.5788C49.226 19.1655 49.3652 19.8714 49.3652 20.6967C49.3652 21.522 49.2277 22.2296 48.9526 22.8196C48.6775 23.4062 48.2997 23.8587 47.8191 24.1768C47.3385 24.4917 46.79 24.6491 46.1735 24.6491C45.7095 24.6491 45.33 24.5713 45.035 24.4155C44.7433 24.2597 44.5146 24.0774 44.3489 23.8686C44.1832 23.6598 44.0556 23.4742 43.9661 23.3118H43.8418V24.5H42.3901ZM43.8468 20.6818C43.8468 21.2187 43.9247 21.6894 44.0804 22.0938C44.2362 22.4981 44.4616 22.8146 44.7566 23.0433C45.0516 23.2687 45.4128 23.3814 45.8404 23.3814C46.2845 23.3814 46.6557 23.2637 46.954 23.0284C47.2523 22.7898 47.4777 22.4666 47.6301 22.0589C47.7859 21.6513 47.8638 21.1922 47.8638 20.6818C47.8638 20.178 47.7876 19.7256 47.6351 19.3246C47.486 18.9235 47.2606 18.607 46.959 18.375C46.6607 18.143 46.2878 18.027 45.8404 18.027C45.4095 18.027 45.0449 18.138 44.7466 18.3601C44.4516 18.5821 44.2279 18.892 44.0755 19.2898C43.923 19.6875 43.8468 20.1515 43.8468 20.6818ZM52.521 14.3182V24.5H51.0344V14.3182H52.521ZM57.812 24.6541C57.0596 24.6541 56.4116 24.4934 55.8681 24.1719C55.3278 23.8471 54.9102 23.3913 54.6152 22.8047C54.3236 22.2147 54.1777 21.5237 54.1777 20.7315C54.1777 19.9493 54.3236 19.2599 54.6152 18.6634C54.9102 18.0668 55.3212 17.6011 55.8482 17.2663C56.3785 16.9316 56.9983 16.7642 57.7076 16.7642C58.1384 16.7642 58.556 16.8355 58.9604 16.978C59.3648 17.1205 59.7277 17.3442 60.0492 17.6491C60.3707 17.9541 60.6242 18.3501 60.8098 18.8374C60.9954 19.3213 61.0882 19.9096 61.0882 20.6023V21.1293H55.0179V20.0156H59.6316C59.6316 19.6245 59.552 19.2782 59.3929 18.9766C59.2338 18.6716 59.0101 18.4313 58.7218 18.2557C58.4367 18.08 58.102 17.9922 57.7175 17.9922C57.2999 17.9922 56.9353 18.0949 56.6238 18.3004C56.3155 18.5026 56.0769 18.7678 55.9078 19.0959C55.7421 19.4207 55.6593 19.7737 55.6593 20.1548V21.0249C55.6593 21.5353 55.7488 21.9695 55.9277 22.3274C56.11 22.6854 56.3636 22.9588 56.6884 23.1477C57.0132 23.3333 57.3927 23.4261 57.8269 23.4261C58.1086 23.4261 58.3655 23.3864 58.5975 23.3068C58.8295 23.224 59.03 23.1013 59.199 22.9389C59.3681 22.7765 59.4973 22.576 59.5868 22.3374L60.9938 22.5909C60.8811 23.0052 60.6789 23.3681 60.3873 23.6797C60.0989 23.9879 59.736 24.2282 59.2985 24.4006C58.8643 24.5696 58.3688 24.6541 57.812 24.6541ZM65.5962 24.6491C64.9798 24.6491 64.4296 24.4917 63.9457 24.1768C63.4651 23.8587 63.0872 23.4062 62.8121 22.8196C62.5404 22.2296 62.4045 21.522 62.4045 20.6967C62.4045 19.8714 62.542 19.1655 62.8171 18.5788C63.0955 17.9922 63.4767 17.5431 63.9606 17.2315C64.4445 16.92 64.993 16.7642 65.6062 16.7642C66.0801 16.7642 66.4613 16.8438 66.7496 17.0028C67.0413 17.1586 67.2667 17.3409 67.4258 17.5497C67.5882 17.7585 67.7141 17.9425 67.8036 18.1016H67.8931V14.3182H69.3796V24.5H67.9279V23.3118H67.8036C67.7141 23.4742 67.5849 23.6598 67.4158 23.8686C67.2501 24.0774 67.0214 24.2597 66.7298 24.4155C66.4381 24.5713 66.0603 24.6491 65.5962 24.6491ZM65.9244 23.3814C66.3519 23.3814 66.7132 23.2687 67.0082 23.0433C67.3065 22.8146 67.5318 22.4981 67.6843 22.0938C67.8401 21.6894 67.918 21.2187 67.918 20.6818C67.918 20.1515 67.8417 19.6875 67.6893 19.2898C67.5368 18.892 67.3131 18.5821 67.0181 18.3601C66.7231 18.138 66.3585 18.027 65.9244 18.027C65.4769 18.027 65.104 18.143 64.8058 18.375C64.5075 18.607 64.2821 18.9235 64.1296 19.3246C63.9805 19.7256 63.9059 20.178 63.9059 20.6818C63.9059 21.1922 63.9821 21.6513 64.1346 22.0589C64.2871 22.4666 64.5124 22.7898 64.8107 23.0284C65.1123 23.2637 65.4835 23.3814 65.9244 23.3814Z" fill="#232323"/>
</svg>
