<svg width="16" height="16" viewBox="0 0 16 16" fill="none" xmlns="http://www.w3.org/2000/svg">
<path d="M13.3506 4.21486C14.6506 5.40747 15.5201 6.81168 15.9312 7.81744C16.0229 8.03453 16.0229 8.27635 15.9312 8.49344C15.5201 9.47446 14.6506 10.8787 13.3506 12.096C12.0422 13.2996 10.2449 14.3109 8.00035 14.3109C5.75581 14.3109 3.95851 13.2996 2.65067 12.096C1.35062 10.8787 0.481691 9.47446 0.0683675 8.49344C-0.0227892 8.27635 -0.0227892 8.03453 0.0683675 7.81744C0.481691 6.81168 1.35062 5.40747 2.65067 4.21486C3.95851 3.01235 5.75581 2 8.00035 2C10.2449 2 12.0422 3.01235 13.3506 4.21486ZM8.00035 4.19837C5.79192 4.19837 4.00018 5.97081 4.00018 8.15544C4.00018 10.3401 5.79192 12.1125 8.00035 12.1125C10.2088 12.1125 12.0005 10.3401 12.0005 8.15544C12.0005 5.97081 10.2088 4.19837 8.00035 4.19837Z" fill="#A9ACAC"/>
<path d="M10.6671 8.1536C10.6671 9.62642 9.47317 10.8204 8.00034 10.8204C6.52752 10.8204 5.33356 9.62642 5.33356 8.1536C5.33356 6.68078 6.52752 5.48682 8.00034 5.48682C9.47317 5.48682 10.6671 6.68078 10.6671 8.1536Z" fill="#A9ACAC"/>
</svg>
