<svg width="24" height="24" viewBox="0 0 24 24" fill="none" xmlns="http://www.w3.org/2000/svg">
<path d="M14.75 1V6.5H20.25L14.75 1ZM13.375 6.5V1H5.8125C4.6734 1 3.75 1.9234 3.75 3.0625V20.9375C3.75 22.0762 4.6734 23 5.8125 23H18.1875C19.3266 23 20.25 22.0766 20.25 20.9375V7.875H14.7887C13.9895 7.875 13.375 7.26055 13.375 6.5ZM16.1293 15.7855C15.966 16.0262 15.7039 16.125 15.4375 16.125C15.1711 16.125 14.9098 16.0243 14.7083 15.8229L13.0312 14.1441V18.5312C13.0312 19.1006 12.5693 19.5625 12 19.5625C11.4307 19.5625 10.9688 19.1006 10.9688 18.5312V14.1441L9.29168 15.8212C8.88885 16.224 8.23637 16.224 7.83332 15.8212C7.43027 15.4184 7.43049 14.7659 7.83332 14.3629L11.2708 10.9254C11.6737 10.5225 12.3261 10.5225 12.7292 10.9254L16.1667 14.3629C16.5676 14.7672 16.5676 15.4203 16.1293 15.7855Z" fill="#A9ACAC"/>
</svg>
