<svg width="24" height="24" viewBox="0 0 24 24" fill="none" xmlns="http://www.w3.org/2000/svg">
<path d="M22.768 12.7778C22.0427 9.72145 19.529 7.28212 16.4516 6.67196C14.9906 6.37118 13.4811 6.47323 12.0731 6.95663C12.3953 4.84042 13.7811 3.04089 15.7469 2.19569C16.3218 1.94862 16.1929 1.09999 15.575 1.04069C14.6349 0.944011 13.6895 1.01383 12.7765 1.22868C9.68399 1.95571 7.28204 4.46938 6.63321 7.54852C6.33243 9.00946 6.47423 10.5177 6.95548 11.9227C4.84012 11.6005 3.04059 10.2169 2.19755 8.24891C1.95048 7.67743 1.10176 7.80633 1.04265 8.42079C0.945952 9.3618 1.01579 10.3071 1.23066 11.2224C1.95598 14.2787 4.46965 16.7181 7.54707 17.3282C9.00801 17.629 10.5175 17.5269 11.9256 17.0435C11.6033 19.1598 10.2176 20.9593 8.25176 21.8045C7.67684 22.0515 7.80574 22.9002 8.42363 22.9595C9.36379 23.0562 10.3091 22.9863 11.2222 22.7715C14.2786 22.0462 16.7179 19.5325 17.328 16.4551C17.6288 14.9941 17.5268 13.4847 17.0434 12.0766C19.1596 12.3988 20.9591 13.7846 21.8043 15.7504C22.0514 16.3253 22.9 16.1964 22.9593 15.5785C23.0559 14.6384 22.9828 13.6931 22.768 12.7778ZM11.9613 14.0626C10.8613 14.0626 9.89884 13.1388 9.89884 12.0001C9.89884 10.8614 10.8227 9.93758 11.9613 9.93758C13.1 9.93758 14.0625 10.8614 14.0625 12.0001C14.0625 13.1388 13.1387 14.0626 11.9613 14.0626Z" fill="black"/>
</svg>
