<svg width="16" height="16" viewBox="0 0 16 16" fill="none" xmlns="http://www.w3.org/2000/svg">
<path d="M1.25 8C1.25 7.03344 2.03438 6.25 3 6.25C3.96562 6.25 4.75 7.03344 4.75 8C4.75 8.96656 3.96562 9.75 3 9.75C2.03437 9.75 1.25 8.96656 1.25 8ZM11.25 8C11.25 7.03344 12.0344 6.25 13 6.25C13.9666 6.25 14.75 7.03344 14.75 8C14.75 8.96656 13.9666 9.75 13 9.75C12.0344 9.75 11.25 8.96656 11.25 8Z" fill="black"/>
<path d="M9.75 8C9.75 8.96656 8.96562 9.75 8 9.75C7.03437 9.75 6.25 8.96656 6.25 8C6.25 7.03344 7.03438 6.25 8 6.25C8.96562 6.25 9.75 7.03344 9.75 8Z" fill="black"/>
</svg>
