<svg width="24" height="24" viewBox="0 0 24 24" fill="none" xmlns="http://www.w3.org/2000/svg">
<path d="M7.87322 12C7.87322 9.68398 9.6822 7.875 11.9982 7.875C14.2756 7.875 16.1232 9.68398 16.1232 12C16.1232 14.2773 14.2756 16.125 11.9982 16.125C9.6822 16.125 7.87322 14.2773 7.87322 12ZM11.9982 9.9375C10.8595 9.9375 9.93572 10.8613 9.93572 12C9.93572 13.1387 10.8595 14.0625 11.9982 14.0625C13.1369 14.0625 14.0607 13.1387 14.0607 12C14.0607 10.8613 13.1369 9.9375 11.9982 9.9375ZM13.5924 1.00001C14.5463 1.00001 15.3756 1.6527 15.599 2.57867L15.9342 3.97387C16.2994 4.15219 16.6474 4.35457 16.9783 4.57844L18.3576 4.17238C19.2728 3.90297 20.2525 4.29441 20.7295 5.11941L22.3236 7.8793C22.7963 8.7043 22.6459 9.74844 21.9584 10.4059L20.9142 11.3598C20.9271 11.5961 20.9357 11.798 20.9357 12C20.9357 12.202 20.9271 12.4039 20.9142 12.6016L21.9584 13.5941C22.6459 14.2516 22.7963 15.2957 22.3236 16.1207L20.7295 18.8793C20.2525 19.7043 19.2728 20.0953 18.3576 19.8289L16.9783 19.4207C16.6474 19.6441 16.2994 19.8461 15.9342 20.0266L15.599 21.423C15.3756 22.3469 14.5463 23 13.5924 23H10.4041C9.45017 23 8.62087 22.3469 8.39744 21.423L8.06228 20.0266C7.69704 19.8461 7.349 19.6441 7.01814 19.4207L5.60017 19.8289C4.7249 20.0953 3.74564 19.7043 3.26912 18.8793L1.67497 16.1207C1.19845 15.2957 1.34919 14.2516 2.03935 13.5941L3.08091 12.6016C3.06759 12.4039 3.06072 12.202 3.06072 11.9613C3.06072 11.798 3.06759 11.5961 3.08091 11.3598L2.03935 10.4059C1.34914 9.74844 1.19845 8.7043 1.67497 7.8793L3.26912 5.11941C3.74564 4.29441 4.7249 3.90297 5.60017 4.17238L7.01814 4.57844C7.349 4.35457 7.69704 4.15219 8.06228 3.97387L8.39744 2.57867C8.62087 1.65227 9.45017 1 10.4041 1L13.5924 1.00001ZM9.8283 5.45156L9.34705 5.65352C8.80134 5.88125 8.29431 6.17773 7.83455 6.53008L7.41775 6.84805L5.05533 6.15195L3.46076 8.91055L5.24396 10.6078L5.17822 11.1234C5.14212 11.4113 5.12322 11.7035 5.12322 12C5.12322 12.2965 5.14212 12.5887 5.17822 12.8766L5.24396 13.3922L3.46119 15.0895L5.05533 17.848L7.41775 17.152L7.83455 17.4699C8.29431 17.8223 8.80134 18.1188 9.34705 18.3465L9.8283 18.5484L10.4041 20.9375H13.5924L14.1681 18.5484L14.6494 18.3465C15.1951 18.1188 15.7021 17.8223 16.1619 17.4699L16.5787 17.152L18.942 17.848L20.5361 15.0895L18.7529 13.3922L18.8174 12.8766C18.856 12.5887 18.8732 12.2965 18.8732 12C18.8732 11.7035 18.856 11.4113 18.8174 11.1234L18.7529 10.6078L20.5361 8.91055L18.942 6.15195L16.5787 6.84805L16.1619 6.53008C15.7021 6.17773 15.1951 5.88125 14.6494 5.65352L14.1681 5.45156L13.5924 3.0625H10.4041L9.8283 5.45156Z" fill="#20263D"/>
</svg>
