<svg width="48" height="48" viewBox="0 0 48 48" fill="none" xmlns="http://www.w3.org/2000/svg">
<rect width="48" height="48" rx="24" fill="#E0E3E3"/>
<g clip-path="url(#clip0_5784_28907)">
<path d="M29.602 20.0474C30.0832 20.0474 30.477 20.3954 30.477 20.9067V21.0786H33.102C33.5832 21.0786 33.977 21.4267 33.977 21.938C33.977 22.4106 33.5832 22.7974 33.102 22.7974H33.0145L32.9445 22.9907C32.5551 24.0048 31.9601 24.9931 31.2076 25.8009C31.247 25.8224 31.2863 25.8095 31.3257 25.8696L32.1526 26.3552C32.5682 26.6001 32.6995 27.1286 32.4501 27.5368C32.2051 27.945 31.667 28.0739 31.2513 27.829L30.4245 27.3435C30.232 27.2274 30.0001 27.1071 29.8513 26.9782C29.392 27.3005 28.8932 27.5798 28.3682 27.8118L28.2063 27.8806C27.7645 28.0739 27.2482 27.8763 27.0513 27.4423C26.8545 27.0083 27.0557 26.5013 27.4976 26.3079L27.6551 26.2392C27.9351 26.1146 28.2063 25.9384 28.4645 25.8181L27.9351 25.2938C27.5895 24.9587 27.5895 24.4173 27.9351 24.0821C28.2763 23.7427 28.8276 23.7427 29.1688 24.0821L29.8076 24.7052L29.8338 24.6923C30.3763 24.1681 30.8182 23.5149 31.1376 22.7587H26.452C25.9313 22.7587 25.577 22.4106 25.577 21.8993C25.577 21.4267 25.9313 21.0399 26.452 21.0399H28.727V20.8681C28.727 20.3954 29.0813 20.0087 29.602 20.0087V20.0474ZM17.002 23.0208L17.8332 24.8599H16.1313L17.002 23.0208ZM10.002 18.5005C10.002 16.9815 11.2554 15.7505 12.802 15.7505H35.202C36.7463 15.7505 38.002 16.9815 38.002 18.5005V29.5005C38.002 31.0173 36.7463 32.2505 35.202 32.2505H12.802C11.2554 32.2505 10.002 31.0173 10.002 29.5005V18.5005ZM24.002 29.5005H35.202V18.5005H24.002V29.5005ZM17.8026 20.5587C17.6626 20.2493 17.3476 20.0474 17.002 20.0474C16.6563 20.0474 16.3413 20.2493 16.2013 20.5587L13.4022 26.7462C13.2062 27.1415 13.4048 27.6872 13.8467 27.8806C14.2881 28.0739 14.8057 27.8763 15.0026 27.4423L15.392 26.5399H18.612L19.0013 27.4423C19.1982 27.8763 19.7145 28.0739 20.1563 27.8806C20.5982 27.6872 20.7995 27.1415 20.6026 26.7462L17.8026 20.5587Z" fill="#232323"/>
</g>
<defs>
<clipPath id="clip0_5784_28907">
<rect width="28" height="22" fill="white" transform="translate(10.002 13.0005)"/>
</clipPath>
</defs>
</svg>
