<svg width="20" height="16" viewBox="0 0 20 16" fill="none" xmlns="http://www.w3.org/2000/svg">
<g clip-path="url(#clip0_3707_9951)">
<path d="M13.7337 5.36458C14.0545 5.36458 14.317 5.59661 14.317 5.9375V6.05208H16.067C16.3878 6.05208 16.6503 6.28411 16.6503 6.625C16.6503 6.9401 16.3878 7.19792 16.067 7.19792H16.0087L15.962 7.32682C15.7024 8.00286 15.3057 8.66172 14.8041 9.20026C14.8303 9.21458 14.8566 9.20599 14.8828 9.24609L15.4341 9.56979C15.7112 9.73307 15.7987 10.0854 15.6324 10.3576C15.4691 10.6297 15.1103 10.7156 14.8332 10.5523L14.282 10.2286C14.1537 10.1513 13.9991 10.0711 13.8999 9.98516C13.5937 10.2 13.2612 10.3862 12.9112 10.5409L12.8032 10.5867C12.5087 10.7156 12.1645 10.5839 12.0332 10.2945C11.902 10.0052 12.0362 9.66719 12.3307 9.53828L12.4357 9.49245C12.6224 9.40938 12.8032 9.29193 12.9753 9.21172L12.6224 8.86224C12.392 8.6388 12.392 8.27786 12.6224 8.05443C12.8499 7.82813 13.2174 7.82813 13.4449 8.05443L13.8707 8.46979L13.8882 8.4612C14.2499 8.11172 14.5445 7.6763 14.7574 7.17214H11.6337C11.2866 7.17214 11.0503 6.9401 11.0503 6.59922C11.0503 6.28412 11.2866 6.0263 11.6337 6.0263H13.1503V5.91172C13.1503 5.59662 13.3866 5.3388 13.7337 5.3388V5.36458ZM5.33366 7.34688L5.88783 8.57292H4.75324L5.33366 7.34688ZM0.666992 4.33333C0.666992 3.3207 1.50262 2.5 2.53366 2.5H17.467C18.4966 2.5 19.3337 3.3207 19.3337 4.33333V11.6667C19.3337 12.6779 18.4966 13.5 17.467 13.5H2.53366C1.50262 13.5 0.666992 12.6779 0.666992 11.6667V4.33333ZM10.0003 11.6667H17.467V4.33333H10.0003V11.6667ZM5.86741 5.70547C5.77408 5.49922 5.56408 5.36458 5.33366 5.36458C5.10324 5.36458 4.89324 5.49922 4.79991 5.70547L2.93383 9.83047C2.80316 10.094 2.93558 10.4578 3.23016 10.5867C3.52445 10.7156 3.86949 10.5839 4.00074 10.2945L4.26033 9.69297H6.40699L6.66658 10.2945C6.79783 10.5839 7.14199 10.7156 7.43658 10.5867C7.73116 10.4578 7.86533 10.094 7.73408 9.83047L5.86741 5.70547Z" fill="#232323"/>
</g>
<defs>
<clipPath id="clip0_3707_9951">
<rect width="18.6667" height="14.6667" fill="white" transform="translate(0.666992 0.666748)"/>
</clipPath>
</defs>
</svg>
