<svg width="48" height="48" viewBox="0 0 48 48" fill="none" xmlns="http://www.w3.org/2000/svg">
<rect width="48" height="48" rx="24" fill="#E0E3E3"/>
<g clip-path="url(#clip0_5764_28774)">
<path d="M24 10.9995C28.2589 10.9995 31.7143 14.254 31.7143 18.2687V20.6918H32.5714C34.4625 20.6918 36 22.1406 36 23.9226V33.6149C36 35.3969 34.4625 36.8457 32.5714 36.8457H15.4286C13.5348 36.8457 12 35.3969 12 33.6149V23.9226C12 22.1406 13.5348 20.6918 15.4286 20.6918H16.2857V18.2687C16.2857 14.254 19.7411 10.9995 24 10.9995ZM24 14.2303C21.6321 14.2303 19.7143 16.0385 19.7143 18.2687V20.6918H28.2857V18.2687C28.2857 16.0385 26.3679 14.2303 24 14.2303ZM25.7143 27.1534C25.7143 26.2598 24.9482 25.538 24 25.538C23.0518 25.538 22.2857 26.2598 22.2857 27.1534V30.3841C22.2857 31.2776 23.0518 31.9995 24 31.9995C24.9482 31.9995 25.7143 31.2776 25.7143 30.3841V27.1534Z" fill="#232323"/>
</g>
<defs>
<clipPath id="clip0_5764_28774">
<rect width="24" height="25.8462" fill="white" transform="translate(12 10.9995)"/>
</clipPath>
</defs>
</svg>
