<svg width="12" height="12" viewBox="0 0 12 12" fill="none" xmlns="http://www.w3.org/2000/svg">
<g clip-path="url(#clip0_5203_31720)">
<path d="M1.28098 11.7793L4.12559 8.93633V10.1246C4.12559 10.5392 4.46098 10.8746 4.87559 10.8746C5.29019 10.8746 5.62559 10.5392 5.62559 10.1246V7.12461C5.62559 7.02702 5.60572 6.9298 5.56781 6.8382C5.49199 6.65352 5.34668 6.5082 5.16152 6.4332C5.07012 6.39336 4.97402 6.37461 4.87559 6.37461H1.87559C1.46098 6.37461 1.12559 6.71 1.12559 7.12461C1.12559 7.53922 1.46098 7.87461 1.87559 7.87461H3.06504L0.219727 10.7199C-0.0732422 11.0129 -0.0732422 11.4875 0.219727 11.7805C0.512695 12.0734 0.988008 12.0723 1.28098 11.7793ZM6.43418 5.16055C6.51016 5.3443 6.65634 5.49055 6.84012 5.56648C6.93105 5.60586 7.02715 5.62461 7.12559 5.62461H10.1256C10.5402 5.62461 10.8756 5.28922 10.8756 4.87461C10.8756 4.46 10.5402 4.12461 10.1256 4.12461H8.93613L11.7814 1.2793C12.0744 0.986328 12.0744 0.511719 11.7814 0.21875C11.4887 -0.0739843 11.0141 -0.0744531 10.7209 0.21875L7.87559 3.06523V1.87461C7.87559 1.46 7.54019 1.12461 7.12559 1.12461C6.71098 1.12461 6.37559 1.46 6.37559 1.87461V4.85352C6.37559 4.97305 6.39434 5.06914 6.43418 5.16055Z" fill="#E0E3E3"/>
</g>
<defs>
<clipPath id="clip0_5203_31720">
<rect width="12" height="12" fill="white"/>
</clipPath>
</defs>
</svg>
