<svg width="24" height="19" viewBox="0 0 24 19" fill="none" xmlns="http://www.w3.org/2000/svg">
<g clip-path="url(#clip0_6129_18406)">
<path d="M14.9173 0C15.8835 0 16.6673 0.769499 16.6673 1.71875V5.15625C16.6673 6.10514 15.8835 6.875 14.9173 6.875H13.1673V8.02083H22.5007C23.146 8.02083 23.6673 8.53288 23.6673 9.16667C23.6673 9.80046 23.146 10.3125 22.5007 10.3125H19.0007V11.4583H20.7507C21.7168 11.4583 22.5007 12.2282 22.5007 13.1771V16.6146C22.5007 17.5635 21.7168 18.3333 20.7507 18.3333H14.9173C13.9512 18.3333 13.1673 17.5635 13.1673 16.6146V13.1771C13.1673 12.2282 13.9512 11.4583 14.9173 11.4583H16.6673V10.3125H7.33398V11.4583H9.08398C10.0501 11.4583 10.834 12.2282 10.834 13.1771V16.6146C10.834 17.5635 10.0501 18.3333 9.08398 18.3333H3.25065C2.28414 18.3333 1.50065 17.5635 1.50065 16.6146V13.1771C1.50065 12.2282 2.28414 11.4583 3.25065 11.4583H5.00065V10.3125H1.50065C0.856432 10.3125 0.333984 9.80046 0.333984 9.16667C0.333984 8.53288 0.856432 8.02083 1.50065 8.02083H10.834V6.875H9.08398C8.11784 6.875 7.33398 6.10514 7.33398 5.15625V1.71875C7.33398 0.769499 8.11784 0 9.08398 0H14.9173ZM9.66732 2.29167V4.58333H14.334V2.29167H9.66732ZM8.50065 16.0417V13.75H3.83398V16.0417H8.50065ZM15.5007 13.75V16.0417H20.1673V13.75H15.5007Z" fill="#232323"/>
</g>
<defs>
<clipPath id="clip0_6129_18406">
<rect width="23.3333" height="18.3333" fill="white" transform="translate(0.333984)"/>
</clipPath>
</defs>
</svg>
