<svg width="16" height="16" viewBox="0 0 16 16" fill="none" xmlns="http://www.w3.org/2000/svg">
<path d="M5.96231 7.66683C5.29009 7.66683 4.74009 8.2012 4.74009 8.83206V12.7904C4.74009 13.4658 5.29009 14.0002 5.9394 14.0002C6.5887 14.0002 7.18453 13.4658 7.18453 12.8127V8.83206C7.18453 8.2012 6.63453 7.66683 5.96231 7.66683ZM1.88824 10.8335C1.21602 10.8335 0.666016 11.3679 0.666016 11.9987V12.7904C0.666016 13.4658 1.21602 14.0002 1.86532 14.0002C2.51463 14.0002 3.11046 13.4658 3.11046 12.8127V12.021C3.11046 11.3679 2.56046 10.8335 1.88824 10.8335ZM10.0364 4.50016C9.36416 4.50016 8.81416 5.03454 8.81416 5.6654V12.7904C8.81416 13.4658 9.36416 14.0002 10.0135 14.0002C10.7086 14.0002 11.2586 13.4658 11.2586 12.8127V5.6654C11.2586 5.03454 10.7086 4.50016 10.0364 4.50016ZM14.1105 1.3335C13.4382 1.3335 12.8882 1.86787 12.8882 2.49873V12.7904C12.8882 13.4658 13.4382 14.0002 14.0875 14.0002C14.7368 14.0002 15.3327 13.4658 15.3327 12.8127V2.49873C15.3327 1.86787 14.7827 1.3335 14.1105 1.3335Z" fill="#232323"/>
</svg>
