<svg width="24" height="24" viewBox="0 0 24 24" fill="none" xmlns="http://www.w3.org/2000/svg">
<path d="M8.7 12.0002C11.1303 12.0002 13.1 10.0302 13.1 7.6002C13.1 5.17023 11.1303 3.2002 8.7 3.2002C6.26969 3.2002 4.3 5.17023 4.3 7.6002C4.3 10.0302 6.26969 12.0002 8.7 12.0002ZM10.4428 13.6502H6.95719C3.66647 13.6502 1 16.3177 1 19.6074C1 20.2674 1.5335 20.8002 2.19144 20.8002H15.2072C15.8672 20.8002 16.4 20.2674 16.4 19.6074C16.4 16.3177 13.7325 13.6502 10.4428 13.6502ZM17.4691 14.2002H14.9305C16.51 15.4961 17.5 17.4349 17.5 19.6074C17.5 20.0474 17.3694 20.453 17.1562 20.8002H21.9C22.5084 20.8002 23 20.3052 23 19.6693C23 16.6614 20.5387 14.2002 17.4691 14.2002ZM15.85 12.0002C17.9778 12.0002 19.7 10.278 19.7 8.1502C19.7 6.02238 17.9778 4.3002 15.85 4.3002C14.9868 4.3002 14.1986 4.59427 13.5565 5.07398C13.9525 5.83435 14.2 6.68582 14.2 7.6002C14.2 8.8212 13.7899 9.94251 13.1141 10.8559C13.8116 11.5602 14.7775 12.0002 15.85 12.0002Z" fill="black"/>
</svg>
