<svg width="24" height="24" viewBox="0 0 24 24" fill="none" xmlns="http://www.w3.org/2000/svg">
<rect width="24" height="24" rx="12" fill="#E0E3E3"/>
<path d="M10.8 8.03365C10.8 7.53181 11.2031 7.125 11.7 7.125H17.1C17.5969 7.125 18 7.53181 18 8.03365V15.9087C18 16.4103 17.5969 16.8173 17.1 16.8173H13.1494C13.1813 16.7056 13.2 16.6204 13.2 16.5144V11.92C13.5488 11.7951 13.8 11.4581 13.8 11.0625V10.4567C13.8 9.95508 13.3969 9.54808 12.9 9.54808H10.8V8.03365ZM16.7119 13.6995C16.83 13.5821 16.83 13.389 16.7119 13.2717L15.5119 12.0601C15.3956 11.9409 15.2044 11.9409 15.0881 12.0601L13.8881 13.2717C13.77 13.389 13.77 13.5821 13.8881 13.6995C14.0044 13.8187 14.1956 13.8187 14.3119 13.6995L15 13.0047V15.3029C15 15.4695 15.135 15.6058 15.3 15.6058C15.465 15.6058 15.6 15.4695 15.6 15.3029V13.0047L16.2881 13.6995C16.4044 13.8187 16.5956 13.8187 16.7119 13.6995ZM6 10.4567C6 10.2901 6.13432 10.1538 6.3 10.1538H12.9C13.065 10.1538 13.2 10.2901 13.2 10.4567V11.0625C13.2 11.2291 13.065 11.3654 12.9 11.3654H6.3C6.13432 11.3654 6 11.2291 6 11.0625V10.4567ZM12.6 16.2115C12.6 16.5466 12.3319 16.8173 12 16.8173H7.2C6.86869 16.8173 6.6 16.5466 6.6 16.2115V11.9712H12.6V16.2115ZM8.7 13.1827C8.535 13.1827 8.4 13.319 8.4 13.4856C8.4 13.6522 8.535 13.7885 8.7 13.7885H10.5C10.665 13.7885 10.8 13.6522 10.8 13.4856C10.8 13.319 10.665 13.1827 10.5 13.1827H8.7Z" fill="black"/>
</svg>
