<svg width="20" height="19" viewBox="0 0 20 19" fill="none" xmlns="http://www.w3.org/2000/svg">
<path d="M7.22222 9.49875C6.30556 9.49875 5.55556 10.2488 5.55556 11.1342V16.6897C5.55556 17.6376 6.30556 18.3876 7.19097 18.3876C8.07639 18.3876 8.88889 17.6376 8.88889 16.721V11.1342C8.88889 10.2488 8.13889 9.49875 7.22222 9.49875ZM1.66667 13.9432C0.75 13.9432 0 14.6932 0 15.5786V16.6897C0 17.6376 0.75 18.3876 1.63542 18.3876C2.52083 18.3876 3.33333 17.6376 3.33333 16.721V15.6099C3.33333 14.6932 2.58333 13.9432 1.66667 13.9432ZM12.7778 5.05431C11.8611 5.05431 11.1111 5.80431 11.1111 6.68972V16.6897C11.1111 17.6376 11.8611 18.3876 12.7465 18.3876C13.6944 18.3876 14.4444 17.6376 14.4444 16.721V6.68972C14.4444 5.80431 13.6944 5.05431 12.7778 5.05431ZM18.3333 0.609863C17.4167 0.609863 16.6667 1.35986 16.6667 2.24528V16.6897C16.6667 17.6376 17.4167 18.3876 18.3021 18.3876C19.1875 18.3876 20 17.6376 20 16.721V2.24528C20 1.35986 19.25 0.609863 18.3333 0.609863Z" fill="#00A578"/>
</svg>
