<svg width="24" height="24" viewBox="0 0 24 24" fill="none" xmlns="http://www.w3.org/2000/svg">
<path d="M8.94444 11.5C7.93611 11.5 7.11111 12.3016 7.11111 13.2479V19.1854C7.11111 20.1984 7.93611 21 8.91007 21C9.88403 21 10.7778 20.1984 10.7778 19.2188V13.2479C10.7778 12.3016 9.95278 11.5 8.94444 11.5ZM2.83333 16.25C1.825 16.25 1 17.0516 1 17.9979V19.1854C1 20.1984 1.825 21 2.79896 21C3.77292 21 4.66667 20.1984 4.66667 19.2188V18.0312C4.66667 17.0516 3.84167 16.25 2.83333 16.25ZM15.0556 6.75C14.0472 6.75 13.2222 7.55156 13.2222 8.49785V19.1854C13.2222 20.1984 14.0472 21 15.0212 21C16.0639 21 16.8889 20.1984 16.8889 19.2188V8.49785C16.8889 7.55156 16.0639 6.75 15.0556 6.75ZM21.1667 2C20.1583 2 19.3333 2.80156 19.3333 3.74785V19.1854C19.3333 20.1984 20.1583 21 21.1323 21C22.1062 21 23 20.1984 23 19.2188V3.74785C23 2.80156 22.175 2 21.1667 2Z" fill="#C00205"/>
<path d="M3.58371 5.7492L1.36667 7.96624C1.04448 8.28843 1.04444 8.81041 1.36655 9.13265C1.52794 9.2951 1.73922 9.375 1.94995 9.375C2.16062 9.375 2.37217 9.29513 2.53351 9.1326C2.53356 9.13254 2.53362 9.13248 2.53368 9.13243L4.74972 6.91786L6.96628 9.13326C6.96628 9.13326 6.96629 9.13327 6.9663 9.13328L6.96637 9.13335L7.05473 9.04494L3.58371 5.7492ZM3.58371 5.7492L1.36669 3.53324L1.36667 3.53322C1.04444 3.21099 1.04444 2.68891 1.36667 2.36667C1.68891 2.04444 2.21099 2.04444 2.53322 2.36667L2.53325 2.36671L4.74976 4.58479L6.96678 2.36777C7.28901 2.04554 7.81109 2.04554 8.13333 2.36777C8.45556 2.69 8.45556 3.21208 8.13333 3.53431L5.91627 5.75137L8.13223 7.96733C8.45441 8.2895 8.45446 8.81145 8.13241 9.1337L3.58371 5.7492Z" fill="#C00205" stroke="#C00205" stroke-width="0.25"/>
</svg>
