<svg width="48" height="48" viewBox="0 0 48 48" fill="none" xmlns="http://www.w3.org/2000/svg">
<rect width="48" height="48" rx="24" fill="#E0E3E3"/>
<g clip-path="url(#clip0_5813_29015)">
<path d="M16.5734 18.4328C16.8289 18.6892 17.1657 18.8173 17.5015 18.8173C17.8373 18.8173 18.1758 18.6898 18.4328 18.4328C18.9455 17.9201 18.9455 17.0897 18.4328 16.5773L15.9555 14.0999C15.4445 13.5872 14.6123 13.5872 14.0994 14.0999C13.5864 14.6126 13.5867 15.443 14.0994 15.956L16.5734 18.4328ZM24 16.125C24.7246 16.125 25.3125 15.5371 25.3125 14.8125V11.3125C25.3125 10.5879 24.7273 10 24 10C23.2727 10 22.6875 10.5879 22.6875 11.3125V14.8125C22.6875 15.5398 23.2781 16.125 24 16.125ZM16.125 24C16.125 23.2754 15.5371 22.6875 14.8125 22.6875H11.3125C10.5879 22.6875 10 23.2781 10 24C10 24.7219 10.5879 25.3125 11.3125 25.3125H14.8125C15.5398 25.3125 16.125 24.7273 16.125 24ZM30.4969 18.8156C30.8327 18.8156 31.1695 18.6874 31.4249 18.4311L33.8995 15.9549C34.4122 15.4422 34.4122 14.6117 33.8995 14.0988C33.3868 13.5858 32.5548 13.5861 32.0434 14.0988L29.5688 16.575C29.0561 17.0877 29.0561 17.9181 29.5688 18.4306C29.8242 18.6898 30.1633 18.8156 30.4969 18.8156ZM24 31.875C23.2754 31.875 22.6875 32.4629 22.6875 33.1875V36.6875C22.6875 37.4148 23.2781 38 24 38C24.7219 38 25.3125 37.4121 25.3125 36.6875V33.1875C25.3125 32.4656 24.7273 31.875 24 31.875ZM16.5734 29.5672L14.0988 32.0434C13.5861 32.5561 13.5861 33.3866 14.0988 33.8995C14.3552 34.1559 14.6911 34.284 15.0269 34.284C15.3627 34.284 15.6995 34.1559 15.9549 33.8995L18.4295 31.4233C18.9422 30.9106 18.9422 30.0802 18.4295 29.5677C17.9168 29.0553 17.0875 29.0531 16.5734 29.5672ZM36.6875 22.6875H33.1875C32.4629 22.6875 31.875 23.2754 31.875 24C31.875 24.7246 32.4629 25.3125 33.1875 25.3125H36.6875C37.4148 25.3125 38 24.7273 38 24C38 23.2727 37.4148 22.6875 36.6875 22.6875ZM31.4266 29.5672C30.9156 29.0545 30.0834 29.0547 29.5705 29.5674C29.0575 30.0801 29.0578 30.9105 29.5705 31.4229L32.0451 33.8992C32.3006 34.1555 32.6373 34.2837 32.9731 34.2837C33.3089 34.2837 33.6447 34.1555 33.9012 33.8992C34.4139 33.3865 34.4139 32.556 33.9012 32.0431L31.4266 29.5672ZM24 17.875C20.6148 17.875 17.875 20.6148 17.875 24C17.875 27.383 20.617 30.125 24 30.125C27.383 30.125 30.125 27.383 30.125 24C30.125 20.6148 27.3852 17.875 24 17.875Z" fill="#232323"/>
</g>
<defs>
<clipPath id="clip0_5813_29015">
<rect width="28" height="28" fill="white" transform="translate(10 10)"/>
</clipPath>
</defs>
</svg>
