<svg width="24" height="24" viewBox="0 0 24 24" fill="none" xmlns="http://www.w3.org/2000/svg">
<g clip-path="url(#clip0_6872_133577)">
<path d="M18 11.25C18 12.0938 17.3297 12.8719 16.2 13.5C14.5594 14.4094 11.9437 15 9 15C6.20625 15 3.70594 14.4703 2.055 13.6359C1.96734 13.5891 1.88203 13.5047 1.79953 13.5C0.669375 12.8719 0 12.0938 0 11.25C0 9.17812 4.02937 7.5 9 7.5C13.9688 7.5 18 9.17812 18 11.25ZM9 16.5C11.6344 16.5 14.0906 16.0594 15.9422 15.2859C16.7063 14.9672 17.4141 14.5734 18 14.0906V15.75C18 16.5938 17.3297 17.3719 16.2 18C16.1156 18.0047 16.0313 18.0891 15.9469 18.1359C14.2922 18.9703 11.7937 19.5 9 19.5C6.05625 19.5 3.44109 18.9094 1.79953 18C0.669375 17.3719 0 16.5938 0 15.75V14.0906C0.583594 14.5734 1.29469 14.9672 2.05922 15.2859C3.91125 16.0594 6.36562 16.5 9 16.5ZM18 18.5906V20.25C18 22.3219 13.9688 24 9 24C4.02937 24 0 22.3219 0 20.25V18.5906C0.583594 19.0734 1.29469 19.4672 2.05922 19.7859C3.91125 20.5594 6.36562 21 9 21C11.6344 21 14.0906 20.5594 15.9422 19.7859C16.7063 19.4672 17.4141 19.0734 18 18.5906Z" fill="black"/>
<path opacity="0.4" d="M24 3.75C24 4.59422 23.3297 5.37188 22.2 6C20.8359 6.75469 18.8062 7.28906 16.4672 7.44844C16.2984 7.36875 16.1203 7.28906 15.9422 7.21406C14.0906 6.44062 11.6344 6 9 6C8.61094 6 8.23125 6.00938 7.85156 6.02813C7.83281 6.01875 7.81875 6.00938 7.8 6C6.67031 5.37188 6 4.59422 6 3.75C6 1.67906 9.98906 0 15 0C19.9688 0 24 1.67906 24 3.75ZM19.5 13.0359C20.3484 12.8016 21.2109 12.5906 21.9422 12.2859C22.7063 11.9672 23.4141 11.5734 24 11.0906V12.75C24 14.1375 22.1906 15.3516 19.5 15.9984V13.0359ZM19.5 11.25C19.5 10.2234 19.0031 9.37969 18.3703 8.74688C19.6969 8.54063 20.9109 8.2125 21.9422 7.78594C22.7063 7.46719 23.4141 7.07344 24 6.59063V8.25C24 9.09375 23.3297 9.87188 22.2 10.5C22.1156 10.5047 22.0313 10.5891 21.9469 10.6359C21.2625 10.9781 20.4328 11.2734 19.5 11.4984V11.25Z" fill="black"/>
</g>
<defs>
<clipPath id="clip0_6872_133577">
<rect width="24" height="24" fill="white"/>
</clipPath>
</defs>
</svg>
