<svg width="20" height="20" viewBox="0 0 20 20" fill="none" xmlns="http://www.w3.org/2000/svg">
<g clip-path="url(#clip0_7973_141939)">
<path d="M10 0C4.47656 0 0 4.47656 0 10C0 15.5234 4.47656 20 10 20C15.5234 20 20 15.5234 20 10C20 4.47656 15.5234 0 10 0ZM14.1445 14.2891C14.017 14.3479 13.8833 14.3761 13.752 14.3761C13.3973 14.3761 13.0586 14.1738 12.9 13.8293L12.4301 12.8066H7.57031L7.10039 13.8293C6.88258 14.3015 6.32852 14.5074 5.85586 14.289C5.38594 14.0719 5.18086 13.5113 5.39766 13.0394L9.14727 4.91051C9.45359 4.24332 10.5438 4.24332 10.85 4.91051L14.5996 13.0394C14.8164 13.5117 14.6133 14.0703 14.1445 14.2891ZM8.40234 10.9219H11.5293L10 7.51953L8.40234 10.9219Z" fill="#00A578" stroke="#00A578" stroke-width="0.0371094"/>
</g>
<defs>
<clipPath id="clip0_7973_141939">
<rect width="20" height="20" fill="white"/>
</clipPath>
</defs>
</svg>
