<svg width="18" height="20" viewBox="0 0 18 20" fill="none" xmlns="http://www.w3.org/2000/svg">
<path d="M15.875 16.8755H2.08633C1.36574 16.8755 0.75 17.4899 0.75 18.2118C0.75 18.9337 1.36574 19.6255 2.08633 19.6255H15.875C16.6355 19.6255 17.25 19.011 17.25 18.2505C17.25 17.4899 16.6355 16.8755 15.875 16.8755ZM3.15625 8.61687H6.25V14.1212C6.25 14.8813 6.86574 15.4979 7.625 15.4979H10.375C11.1343 15.4979 11.75 14.8813 11.75 14.1212V8.61687H14.8438C15.2553 8.61687 15.6279 8.3716 15.7912 7.99339C15.9537 7.61514 15.8765 7.1757 15.5938 6.8762L9.75006 0.684407C9.36068 0.271864 8.63975 0.271864 8.25002 0.684407L2.40627 6.8762C2.12363 7.17587 2.04641 7.61527 2.20887 7.99339C2.37207 8.37195 2.74461 8.61687 3.15625 8.61687Z" fill="black"/>
</svg>
