<svg width="24" height="24" viewBox="0 0 24 24" fill="none" xmlns="http://www.w3.org/2000/svg">
<path d="M2.25 5.95781L21 6C21.0187 6 21.0422 6 21.0609 6C21.5859 6.01406 22.0734 6.16875 22.5 6.41719V6.40313C23.3953 6.91875 24 7.88906 24 9V19.5C24 21.1547 22.6547 22.5 21 22.5H3C1.34297 22.5 0 21.1547 0 19.5V3.75C0 4.99219 1.00734 6 2.25 6V5.95781ZM19.5 15.75C20.3297 15.75 21 15.0797 21 14.25C21 13.4203 20.3297 12.75 19.5 12.75C18.6703 12.75 18 13.4203 18 14.25C18 15.0797 18.6703 15.75 19.5 15.75Z" fill="#232323"/>
<path opacity="0.4" d="M0 3.75C0 2.50734 1.00734 1.5 2.25 1.5H20.25C21.4922 1.5 22.5 2.50734 22.5 3.75V6.40313C22.0594 6.14531 21.5484 6 21 6H2.25C1.00734 6 0 4.99219 0 3.75Z" fill="#232323"/>
</svg>
