<svg width="20" height="20" viewBox="0 0 20 20" fill="none" xmlns="http://www.w3.org/2000/svg">
<path d="M6.16811 18.29C4.45149 18.089 3.04304 17.5064 1.84171 16.5006C1.52855 16.2383 1.08929 15.7904 0.868214 15.5078C0.795124 15.4144 0.815885 15.4205 1.16357 15.5943C2.17257 16.0986 3.56529 16.3941 4.67986 16.3404C5.4666 16.3025 6.00361 16.1827 6.16709 16.0087C6.30087 15.8663 6.24663 15.772 5.85013 15.458C4.68271 14.5333 3.91789 13.4633 3.48109 12.1436C2.95876 10.5655 3.03006 8.85291 3.68121 7.33745C3.85982 6.92178 4.22353 6.25056 4.46108 5.89825C5.0569 5.01461 6.02359 4.09702 7.04772 3.443C7.53459 3.13207 8.67134 2.57608 9.28978 2.34638C10.1175 2.03895 11.0493 1.81907 11.9322 1.72278C12.5152 1.6592 13.8654 1.6973 14.3766 1.79177C15.7252 2.04096 16.8058 2.50254 17.8199 3.26249C18.1679 3.52329 18.8273 4.15363 19.0478 4.43636L19.1673 4.58953L18.7556 4.39158C17.6907 3.87949 16.4125 3.60951 15.2969 3.66106C13.9736 3.72218 13.4271 3.9979 13.8908 4.37051C14.4654 4.83219 14.718 5.05501 14.9678 5.32051C16.047 6.46745 16.6696 7.8829 16.8049 9.49648C16.8912 10.527 16.6998 11.6803 16.2805 12.6564C15.6851 14.0423 14.7972 15.1697 13.573 16.0943C13.0338 16.5014 12.6196 16.756 11.9526 17.09C10.795 17.6696 9.68552 18.033 8.49122 18.2239C8.12694 18.2821 6.49683 18.3285 6.16811 18.29ZM10.567 12.7788C11.6493 12.5494 12.5288 11.6694 12.7584 10.586C12.824 10.2766 12.8238 9.72298 12.7584 9.41267C12.6408 8.85789 12.4049 8.43337 11.9758 8.00424C11.3957 7.42417 10.7838 7.17097 9.95841 7.16954C9.16291 7.16743 8.43295 7.4925 7.88801 8.0894C7.39072 8.63413 7.14979 9.25773 7.14979 10.0002C7.14979 10.8011 7.40895 11.4213 7.98385 11.9962C8.40667 12.419 8.83591 12.6598 9.37601 12.7773C9.67249 12.8418 10.2667 12.8425 10.5673 12.7794L10.567 12.7788Z" fill="#8E9192"/>
</svg>
