<svg width="2000" height="2000" viewBox="0 0 2000 2000" fill="none" xmlns="http://www.w3.org/2000/svg">
<ellipse cx="352.586" cy="409.175" rx="74.2592" ry="130.451" transform="rotate(37.5776 352.586 409.175)" fill="#FFE494"/>
<ellipse cx="326.205" cy="584.297" rx="39.3782" ry="50.8288" transform="rotate(37.5776 326.205 584.297)" fill="#FFE494"/>
<path d="M146 1096C78.3961 1406.48 348.667 1682.67 514 1788L1506 1778C1604.67 1702 1880 1588 1950 1336C2064.26 924.656 1654 618 1534 570C1414 522 1438 288 1062 188C686 88.0002 470 392 370 640C270 888 200 848 146 1096Z" fill="#FFE494"/>
<ellipse cx="1018" cy="1789.5" rx="687" ry="52.5" fill="#836218"/>
<path d="M1783 719.464L1782.98 719.534L1782.96 719.605C1780.39 727.857 1777.66 735.369 1774.81 742.21L1779.42 744.136C1772.03 761.852 1763.7 775.329 1754.7 785.631L1750.94 782.342C1739.34 795.621 1726.66 803.292 1713.43 807.972L1715.09 812.686C1699.54 818.184 1683.32 819.732 1667.37 820.99L1666.98 816.006C1665.79 816.099 1664.6 816.191 1663.42 816.283C1648.12 817.468 1632.43 818.683 1617.89 823.361L1619.42 828.12C1605.03 832.749 1591.89 840.902 1580.92 856.24L1576.85 853.331C1568.74 864.668 1561.91 879.507 1556.57 898.956L1561.4 900.279C1557.7 913.729 1554.71 929.564 1552.51 948.226L1547.55 947.642C1546.65 955.319 1545.88 963.458 1545.26 972.089C1544.68 980.046 1543.67 987.731 1542.25 995.143L1547.16 996.086C1544.03 1012.39 1538.96 1027.46 1532.25 1041.26L1527.75 1039.07C1520.86 1053.24 1512.19 1066.03 1502.07 1077.43L1505.81 1080.75C1495.25 1092.64 1483.17 1103.04 1469.93 1111.93L1467.14 1107.78C1454.4 1116.34 1440.53 1123.47 1425.87 1129.16L1427.68 1133.82C1413.02 1139.5 1397.62 1143.74 1381.8 1146.53L1380.93 1141.61C1365.72 1144.29 1350.11 1145.59 1334.39 1145.5L1334.36 1150.5C1318.55 1150.41 1302.65 1148.93 1286.95 1146.04L1287.86 1141.13C1272.57 1138.31 1257.48 1134.14 1242.87 1128.58L1241.1 1133.25C1226.3 1127.62 1211.98 1120.6 1198.43 1112.17L1201.07 1107.92C1187.98 1099.77 1175.62 1090.28 1164.26 1079.43L1160.81 1083.05C1149.53 1072.27 1139.21 1060.18 1130.09 1046.75L1134.22 1043.94C1125.76 1031.47 1118.35 1017.81 1112.21 1002.95L1107.59 1004.86C1101.76 990.747 1097.05 975.579 1093.64 959.342L1098.53 958.313C1095.46 943.724 1093.45 928.233 1092.64 911.827L1087.65 912.074C1086.9 896.986 1087.15 881.154 1088.49 864.572L1093.47 864.976C1094.1 857.258 1094.96 849.372 1096.08 841.315C1096.29 839.797 1096.61 838.244 1097.03 836.679L1092.2 835.389C1093.11 831.969 1094.43 828.58 1096.02 825.41L1100.49 827.653C1101.22 826.184 1102.02 824.77 1102.87 823.437C1107.74 815.771 1112.35 808.295 1116.71 801.003L1112.42 798.438C1121.84 782.683 1130.07 767.806 1137.21 753.736L1141.67 755.999C1150.28 739.024 1157.34 723.18 1163.01 708.347L1158.34 706.563C1165.16 688.69 1169.92 672.356 1172.93 657.337L1177.83 658.319C1181.72 638.894 1182.76 621.518 1181.54 605.757L1176.56 606.142C1175.11 587.44 1170.4 571.232 1163.59 556.686L1168.11 554.565C1160.42 538.143 1150.19 523.864 1139.12 510.663L1135.29 513.876C1127.52 504.623 1119.27 495.824 1111.07 487.087C1107.55 483.33 1104.04 479.585 1100.58 475.821L1104.26 472.439C1092.52 459.657 1081.64 446.888 1073.11 432.803L1068.84 435.391C1060.23 421.159 1053.89 405.526 1051.47 387.334L1056.43 386.675C1054.51 372.271 1055.14 356.063 1059.3 337.358L1054.42 336.271C1057.71 321.534 1063.11 305.379 1071.05 287.511L1075.62 289.541C1078.88 282.203 1082.58 274.558 1086.75 266.585C1090.48 259.469 1094.55 252.845 1098.95 246.696L1094.89 243.785C1104.52 230.336 1115.69 219.036 1128.17 209.742L1131.16 213.752C1143.45 204.599 1157.09 197.435 1171.87 192.127L1170.18 187.422C1184.74 182.19 1200.32 178.726 1216.72 176.892L1217.28 181.861C1232.25 180.186 1247.95 179.895 1264.23 180.895L1264.53 175.904C1279.89 176.847 1295.71 178.919 1311.85 182.033L1310.91 186.942C1325.97 189.847 1341.34 193.674 1356.89 198.351L1358.33 193.563C1373.26 198.055 1388.35 203.32 1403.49 209.293L1401.65 213.944C1416.11 219.65 1430.62 226.01 1445.1 232.969L1447.27 228.462C1461.48 235.292 1475.65 242.693 1489.7 250.61L1487.25 254.966C1500.95 262.689 1514.54 270.908 1527.93 279.575L1530.65 275.377C1543.99 284.007 1557.13 293.076 1570.01 302.536L1567.05 306.565C1579.83 315.954 1592.34 325.73 1604.5 335.844L1607.7 331.999C1620.01 342.235 1631.98 352.816 1643.51 363.693L1640.08 367.331C1651.7 378.279 1662.87 389.526 1673.53 401.02L1677.19 397.621C1688.18 409.471 1698.62 421.586 1708.44 433.912L1704.53 437.027C1714.53 449.594 1723.87 462.373 1732.46 475.304L1736.62 472.539C1745.6 486.067 1753.77 499.771 1761.02 513.584L1756.59 515.908C1764.09 530.203 1770.59 544.597 1775.96 559.014L1780.65 557.266C1786.34 572.513 1790.8 587.808 1793.9 603.064L1789 604.061C1792.18 619.69 1793.9 635.246 1794.03 650.638L1799.03 650.598C1799.16 666.584 1797.6 682.427 1794.2 698.025L1789.31 696.959C1787.66 704.524 1785.56 712.03 1783 719.464Z" stroke="#BF9B30" stroke-width="10" stroke-dasharray="50 50"/>
<path d="M988 1797C1374.6 1797 1688 1483.6 1688 1097C1688 710.401 1374.6 397 988 397C601.401 397 288 710.401 288 1097C288 1483.6 601.401 1797 988 1797Z" fill="#BE9A30"/>
<path d="M988 1702C1322.13 1702 1593 1431.13 1593 1097C1593 762.868 1322.13 492 988 492C653.868 492 383 762.868 383 1097C383 1431.13 653.868 1702 988 1702Z" fill="#414141" stroke="white" stroke-width="10"/>
<path d="M995.907 662.54L1108.85 728.472L711.972 957.665V1287.32L995.907 1449.01L1392.79 1219.82V1350.12L995.907 1582.45L594.32 1350.12V893.302L995.907 662.54Z" fill="#BE9A30"/>
<path d="M1154.09 840.652L1256.17 900.406L838.226 1143.74C835.527 1145.32 832.141 1143.37 832.141 1140.25V1029.53C832.141 1028.44 832.715 1027.44 833.651 1026.9L1154.09 840.652Z" fill="white"/>
<path d="M1318.99 1129.59L1317.41 1011.35L899.87 1255.14C897.174 1256.72 897.2 1260.62 899.915 1262.16L996.119 1316.69C997.06 1317.22 998.213 1317.21 999.148 1316.67L1318.99 1129.59Z" fill="white"/>
<path d="M1277.23 891.252L1173.18 831.362L1234.68 796.008C1235.64 795.455 1236.83 795.47 1237.77 796.047L1329.85 852.146C1333.13 854.144 1333.08 858.923 1329.75 860.846L1277.23 891.252Z" fill="white"/>
<path d="M1335.67 998.234L1336.48 1117.84L1397.34 1081.91C1398.29 1081.35 1398.86 1080.31 1398.83 1079.2L1395.43 971.862C1395.31 968.024 1391.12 965.715 1387.81 967.657L1335.67 998.234Z" fill="white"/>
<g style="mix-blend-mode:multiply" opacity="0.5">
<path d="M988 1797C1374.6 1797 1688 1483.6 1688 1097C1688 1097 1412.6 1540 1026 1540C639.401 1540 288 1097 288 1097C288 1483.6 601.401 1797 988 1797Z" fill="#302B1F"/>
</g>
<path d="M1684 923.5L1674 905L1721.5 856L1751.5 890L1757.5 898L1684 923.5Z" fill="#AEAEAE" stroke="white" stroke-width="20"/>
<path d="M1605 1022L1591 996L1680.5 963.5L1692.5 992L1605 1022Z" fill="#AEAEAE" stroke="white" stroke-width="20"/>
<path d="M1612 660L1448 602.5V683.5L1569 730.5L1658.5 926L1744 871L1612 660Z" fill="#535353" stroke="white" stroke-width="20"/>
<path fill-rule="evenodd" clip-rule="evenodd" d="M1447 601.09L1612.66 659.172L1745.37 871.307L1658.07 927.465L1568.26 731.285L1447 684.184V601.09ZM1449 603.91V682.816L1569.74 729.715L1658.93 924.535L1742.63 870.693L1611.34 660.828L1449 603.91Z" fill="black" stroke="white" stroke-width="20"/>
<path d="M1253.5 746L1232.5 611H1304.5L1577 723L1693.5 977.5L1583.5 1011L1475 781L1253.5 746Z" fill="#535353" stroke="white" stroke-width="20"/>
<path fill-rule="evenodd" clip-rule="evenodd" d="M1231.33 610H1304.7L1577.74 722.225L1694.88 978.123L1582.96 1012.21L1474.32 781.905L1252.62 746.874L1231.33 610ZM1233.67 612L1254.38 745.126L1475.68 780.095L1584.04 1009.79L1692.11 976.876L1576.25 723.775L1304.3 612H1233.67Z" fill="black" stroke="white" stroke-width="20"/>
<path d="M1534.47 640.556L1523.43 635.036L1520.32 646.98L1507.82 694.98L1505.59 703.54L1513.82 706.797C1526.72 711.909 1546.43 719.46 1563.61 725.497C1572.18 728.508 1580.27 731.194 1586.62 733.012C1589.77 733.914 1592.7 734.663 1595.14 735.118C1596.35 735.344 1597.65 735.54 1598.93 735.611C1599.85 735.663 1602.17 735.765 1604.59 734.833C1608.19 733.449 1612.46 730.091 1612.92 724.14C1613.25 719.667 1611.08 716.211 1610 714.676C1609.53 714.011 1609.01 713.362 1608.47 712.736C1608.51 712.615 1608.54 712.494 1608.58 712.373C1609.85 708.127 1609.01 704.495 1607.56 701.709C1608.5 699.413 1609 696.814 1609 694C1609 689.148 1606.25 685.443 1604.69 683.581C1602.79 681.314 1600.36 679.131 1597.82 677.113C1592.7 673.038 1585.87 668.612 1578.62 664.287C1564.04 655.588 1546.52 646.578 1534.47 640.556ZM1593.67 726.223C1593.67 726.223 1593.66 726.218 1593.66 726.207C1593.66 726.218 1593.67 726.223 1593.67 726.223Z" fill="#AEAEAE" stroke="white" stroke-width="20"/>
<mask id="path-21-outside-1_1067_301" maskUnits="userSpaceOnUse" x="1487.36" y="620.133" width="142" height="132" fill="black">
<rect fill="white" x="1487.36" y="620.133" width="142" height="132"/>
<path fill-rule="evenodd" clip-rule="evenodd" d="M1517.5 652.259L1532.68 644.133C1544.71 650.146 1562.13 659.103 1576.57 667.722C1583.78 672.017 1590.42 676.335 1595.33 680.243C1597.77 682.185 1599.98 684.176 1601.62 686.147C1603.07 687.875 1605 690.639 1605 694C1605 697.124 1604.28 699.782 1602.99 701.908C1604.62 704.138 1605.91 707.348 1604.75 711.224C1604.49 712.078 1604.21 712.914 1603.89 713.711C1604.93 714.735 1605.93 715.841 1606.73 716.98C1607.68 718.322 1609.16 720.802 1608.93 723.837C1608.63 727.759 1605.83 730.069 1603.16 731.1C1601.57 731.709 1599.98 731.663 1599.15 731.617C1598.12 731.559 1596.99 731.396 1595.87 731.186C1593.61 730.765 1590.82 730.055 1587.72 729.167C1581.48 727.381 1573.48 724.726 1564.94 721.723C1547.82 715.709 1528.17 708.179 1515.29 703.078L1510.36 701.124L1517.5 652.259ZM1600.47 718.795C1599 717.218 1597.11 715.675 1595.5 714.5C1596.47 714.823 1597.72 713.581 1598.89 709.863C1598.93 709.744 1598.96 709.623 1599 709.5C1599.37 708.274 1599.15 707.143 1598.6 706.134C1597.34 703.849 1594.35 702.194 1592.5 701.5C1593.42 701.763 1596.93 701.432 1598.37 697.752C1598.76 696.762 1599 695.529 1599 694C1599 685.647 1560.24 664.806 1535.48 652.259C1533.56 651.286 1531.73 650.363 1530 649.5L1517.5 697.5C1543.17 707.667 1595.8 727.5 1601 725.5C1604.27 724.242 1602.97 721.469 1600.47 718.795Z"/>
</mask>
<path fill-rule="evenodd" clip-rule="evenodd" d="M1517.5 652.259L1532.68 644.133C1544.71 650.146 1562.13 659.103 1576.57 667.722C1583.78 672.017 1590.42 676.335 1595.33 680.243C1597.77 682.185 1599.98 684.176 1601.62 686.147C1603.07 687.875 1605 690.639 1605 694C1605 697.124 1604.28 699.782 1602.99 701.908C1604.62 704.138 1605.91 707.348 1604.75 711.224C1604.49 712.078 1604.21 712.914 1603.89 713.711C1604.93 714.735 1605.93 715.841 1606.73 716.98C1607.68 718.322 1609.16 720.802 1608.93 723.837C1608.63 727.759 1605.83 730.069 1603.16 731.1C1601.57 731.709 1599.98 731.663 1599.15 731.617C1598.12 731.559 1596.99 731.396 1595.87 731.186C1593.61 730.765 1590.82 730.055 1587.72 729.167C1581.48 727.381 1573.48 724.726 1564.94 721.723C1547.82 715.709 1528.17 708.179 1515.29 703.078L1510.36 701.124L1517.5 652.259ZM1600.47 718.795C1599 717.218 1597.11 715.675 1595.5 714.5C1596.47 714.823 1597.72 713.581 1598.89 709.863C1598.93 709.744 1598.96 709.623 1599 709.5C1599.37 708.274 1599.15 707.143 1598.6 706.134C1597.34 703.849 1594.35 702.194 1592.5 701.5C1593.42 701.763 1596.93 701.432 1598.37 697.752C1598.76 696.762 1599 695.529 1599 694C1599 685.647 1560.24 664.806 1535.48 652.259C1533.56 651.286 1531.73 650.363 1530 649.5L1517.5 697.5C1543.17 707.667 1595.8 727.5 1601 725.5C1604.27 724.242 1602.97 721.469 1600.47 718.795Z" fill="white"/>
<path d="M1532.68 644.133L1541.63 626.245L1532.37 621.616L1523.25 626.5L1532.68 644.133ZM1517.5 652.259L1508.06 634.625L1499.17 639.385L1497.71 649.366L1517.5 652.259ZM1576.57 667.722L1586.82 650.546L1586.82 650.546L1576.57 667.722ZM1595.33 680.243L1607.79 664.594L1607.79 664.594L1595.33 680.243ZM1601.62 686.147L1616.97 673.316L1616.97 673.316L1601.62 686.147ZM1602.99 701.908L1585.88 691.56L1578.98 702.959L1586.84 713.712L1602.99 701.908ZM1604.75 711.224L1585.59 705.477L1585.59 705.477L1604.75 711.224ZM1603.89 713.711L1585.34 706.237L1580.33 718.653L1589.9 728.011L1603.89 713.711ZM1606.73 716.98L1590.38 728.504L1590.38 728.504L1606.73 716.98ZM1608.93 723.837L1628.87 725.352L1628.87 725.352L1608.93 723.837ZM1603.16 731.1L1610.33 749.767L1610.33 749.767L1603.16 731.1ZM1599.15 731.617L1598.04 751.586L1598.04 751.586L1599.15 731.617ZM1595.87 731.186L1592.2 750.847L1592.2 750.847L1595.87 731.186ZM1587.72 729.167L1582.21 748.394L1582.21 748.394L1587.72 729.167ZM1564.94 721.723L1558.31 740.592L1558.31 740.592L1564.94 721.723ZM1515.29 703.078L1522.66 684.484L1522.66 684.484L1515.29 703.078ZM1510.36 701.124L1490.57 698.231L1488.28 713.89L1502.99 719.718L1510.36 701.124ZM1600.47 718.795L1585.85 732.445L1585.85 732.445L1600.47 718.795ZM1595.5 714.5L1601.83 695.526L1583.7 730.648L1595.5 714.5ZM1598.89 709.863L1617.97 715.86L1617.97 715.86L1598.89 709.863ZM1599 709.5L1618.16 715.247L1618.16 715.247L1599 709.5ZM1598.6 706.134L1581.07 715.775L1581.07 715.775L1598.6 706.134ZM1592.5 701.5L1598 682.269L1585.48 720.226L1592.5 701.5ZM1598.37 697.752L1616.99 705.065L1616.99 705.065L1598.37 697.752ZM1535.48 652.259L1544.52 634.419L1544.52 634.419L1535.48 652.259ZM1530 649.5L1538.95 631.611L1516.87 620.572L1510.65 644.46L1530 649.5ZM1517.5 697.5L1498.15 692.46L1493.69 709.579L1510.14 716.094L1517.5 697.5ZM1601 725.5L1593.82 706.833L1593.82 706.833L1601 725.5ZM1523.25 626.5L1508.06 634.625L1526.94 669.893L1542.12 661.767L1523.25 626.5ZM1586.82 650.546C1571.7 641.529 1553.74 632.302 1541.63 626.245L1523.74 662.022C1535.68 667.991 1552.55 676.676 1566.33 684.898L1586.82 650.546ZM1607.79 664.594C1601.82 659.849 1594.27 654.991 1586.82 650.546L1566.33 684.898C1573.28 689.043 1579.02 692.821 1582.88 695.891L1607.79 664.594ZM1616.97 673.316C1614.08 669.868 1610.71 666.918 1607.79 664.594L1582.88 695.891C1584.84 697.452 1585.87 698.484 1586.28 698.977L1616.97 673.316ZM1625 694C1625 683.198 1618.99 675.733 1616.97 673.316L1586.28 698.977C1586.5 699.244 1586.27 699.023 1585.97 698.408C1585.64 697.752 1585 696.206 1585 694H1625ZM1620.11 712.256C1623.53 706.585 1625 700.242 1625 694H1585C1585 694.005 1585.02 692.98 1585.88 691.56L1620.11 712.256ZM1623.9 716.971C1627.41 705.271 1623.17 695.624 1619.14 690.105L1586.84 713.712C1586.49 713.22 1585.86 712.215 1585.48 710.678C1585.07 708.979 1585.1 707.127 1585.59 705.477L1623.9 716.971ZM1622.44 721.185C1623.03 719.702 1623.51 718.271 1623.9 716.971L1585.59 705.477C1585.47 705.885 1585.38 706.125 1585.34 706.237L1622.44 721.185ZM1623.08 705.457C1621.36 703.029 1619.49 700.992 1617.87 699.411L1589.9 728.011C1590.12 728.222 1590.27 728.382 1590.36 728.489C1590.46 728.599 1590.45 728.605 1590.38 728.504L1623.08 705.457ZM1628.87 725.352C1629.65 715.131 1624.71 707.774 1623.08 705.457L1590.38 728.504C1590.37 728.489 1590.01 727.989 1589.66 727.107C1589.3 726.182 1588.82 724.502 1588.99 722.322L1628.87 725.352ZM1610.33 749.767C1617.38 747.058 1627.79 739.611 1628.87 725.352L1588.99 722.322C1589.2 719.553 1590.4 717.032 1592.03 715.215C1593.47 713.606 1594.96 712.823 1595.98 712.433L1610.33 749.767ZM1598.04 751.586C1599.42 751.663 1604.59 751.975 1610.33 749.767L1595.98 712.433C1597.4 711.885 1598.56 711.728 1599.19 711.675C1599.84 711.62 1600.3 711.65 1600.27 711.649L1598.04 751.586ZM1592.2 750.847C1593.76 751.137 1595.81 751.462 1598.04 751.586L1600.27 711.649C1600.38 711.655 1600.38 711.659 1600.22 711.639C1600.08 711.619 1599.85 711.584 1599.54 711.525L1592.2 750.847ZM1582.21 748.394C1585.55 749.35 1589.04 750.256 1592.2 750.847L1599.54 711.525C1598.19 711.273 1596.09 710.76 1593.22 709.939L1582.21 748.394ZM1558.31 740.592C1566.97 743.637 1575.41 746.446 1582.21 748.394L1593.22 709.939C1587.55 708.316 1579.99 705.814 1571.57 702.854L1558.31 740.592ZM1507.93 721.673C1520.95 726.831 1540.86 734.462 1558.31 740.592L1571.57 702.854C1554.78 696.956 1535.39 689.527 1522.66 684.484L1507.93 721.673ZM1502.99 719.718L1507.93 721.673L1522.66 684.484L1517.72 682.529L1502.99 719.718ZM1615.09 705.146C1612.43 702.296 1609.44 699.918 1607.3 698.352L1583.7 730.648C1584.17 730.987 1584.64 731.361 1585.07 731.726C1585.52 732.107 1585.77 732.357 1585.85 732.445L1615.09 705.146ZM1589.18 733.474C1601.85 737.699 1610.43 729.113 1612.82 726.086C1615.62 722.545 1617.1 718.612 1617.97 715.86L1579.81 703.866C1579.51 704.832 1579.79 703.379 1581.42 701.307C1582.28 700.222 1584.26 698 1587.69 696.369C1591.59 694.519 1596.67 693.807 1601.83 695.526L1589.18 733.474ZM1617.97 715.86C1618.03 715.656 1618.1 715.452 1618.16 715.247L1579.84 703.752C1579.83 703.795 1579.82 703.833 1579.81 703.866L1617.97 715.86ZM1618.16 715.247C1620.32 708.035 1618.8 701.37 1616.12 696.492L1581.07 715.775C1580.36 714.479 1579.64 712.692 1579.33 710.477C1579.02 708.2 1579.2 705.894 1579.84 703.753L1618.16 715.247ZM1616.12 696.492C1613.41 691.571 1609.6 688.468 1607.16 686.778C1604.53 684.957 1601.82 683.636 1599.52 682.773L1585.48 720.226C1585.03 720.057 1584.74 719.911 1584.39 719.663C1584.17 719.512 1583.74 719.196 1583.21 718.664C1582.69 718.145 1581.86 717.203 1581.07 715.775L1616.12 696.492ZM1587.01 720.73C1590.61 721.76 1593.82 721.634 1595.74 721.428C1598.07 721.178 1600.63 720.569 1603.22 719.445C1608.72 717.05 1614.12 712.366 1616.99 705.065L1579.76 690.439C1581.18 686.818 1584.1 684.139 1587.26 682.764C1588.67 682.15 1590.09 681.804 1591.47 681.657C1592.42 681.554 1594.85 681.371 1598 682.269L1587.01 720.73ZM1616.99 705.065C1618.43 701.389 1619 697.619 1619 694H1579C1579 693.439 1579.09 692.134 1579.76 690.439L1616.99 705.065ZM1619 694C1619 685.921 1614.75 680.144 1612.94 677.876C1610.61 674.94 1607.82 672.383 1605.3 670.305C1600.19 666.08 1593.63 661.721 1586.97 657.643C1573.47 649.387 1557.01 640.748 1544.52 634.419L1526.44 670.099C1538.71 676.317 1554.01 684.372 1566.09 691.762C1572.21 695.507 1576.88 698.709 1579.81 701.132C1581.32 702.378 1581.75 702.918 1581.63 702.77C1581.55 702.672 1581.03 702.012 1580.47 700.826C1579.93 699.679 1579 697.29 1579 694H1619ZM1544.52 634.419C1542.57 633.428 1540.7 632.489 1538.95 631.611L1521.06 667.388C1522.76 668.238 1524.56 669.144 1526.44 670.099L1544.52 634.419ZM1510.14 716.094C1523.11 721.235 1542.95 728.836 1560.3 734.931C1568.93 737.964 1577.23 740.726 1583.86 742.626C1587.13 743.561 1590.41 744.409 1593.3 744.949C1594.73 745.214 1596.5 745.491 1598.37 745.595C1599.53 745.66 1603.66 745.904 1608.18 744.167L1593.82 706.833C1596.08 705.965 1597.93 705.758 1598.74 705.692C1599.67 705.615 1600.34 705.643 1600.61 705.658C1601.12 705.687 1601.21 705.733 1600.64 705.627C1599.56 705.426 1597.67 704.972 1594.88 704.171C1589.38 702.596 1581.94 700.14 1573.56 697.193C1556.87 691.33 1537.56 683.931 1524.87 678.905L1510.14 716.094ZM1608.18 744.167C1611.54 742.875 1616.29 740.219 1619.62 734.883C1623.15 729.219 1623.39 723.281 1622.53 718.878C1621.15 711.741 1616.66 706.826 1615.09 705.146L1585.85 732.445C1585.95 732.551 1585.67 732.274 1585.25 731.622C1584.92 731.104 1583.81 729.312 1583.26 726.478C1582.64 723.26 1582.74 718.419 1585.68 713.712C1588.41 709.333 1592.1 707.496 1593.82 706.833L1608.18 744.167ZM1497.71 649.366L1490.57 698.231L1530.15 704.017L1537.29 655.152L1497.71 649.366ZM1510.65 644.46L1498.15 692.46L1536.86 702.54L1549.36 654.54L1510.65 644.46Z" fill="white" mask="url(#path-21-outside-1_1067_301)"/>
<path d="M1713 361.5C1711.67 387 1709 439.9 1709 447.5L1704 484L1700 496L1631 501L1639.5 390.5L1707 353L1713 361.5Z" fill="#535353"/>
<path d="M1713 361.5C1711.67 387 1709 439.9 1709 447.5L1704 484M1713 361.5L1707 353L1639.5 390.5M1713 361.5L1647 395.5M1639.5 390.5L1631 501M1639.5 390.5L1647 395.5M1631 501L1700 496L1704 484M1631 501L1639.5 492.5M1704 484L1639.5 492.5M1639.5 492.5L1647 395.5" stroke="white" stroke-width="20"/>
<path fill-rule="evenodd" clip-rule="evenodd" d="M1701 380L1704.5 376H1708C1706.67 401.524 1710 439.935 1710 447.5V447.568L1704.98 484.228L1700.74 496.949L1629.91 502.082L1656.5 404L1701 380ZM1647.07 399.5L1632.2 498.382L1638.53 492.055L1654.5 401.5H1658.93L1647.07 399.5ZM1654.5 401.5L1640.59 491.348L1703.11 483.108L1708 447.432C1708.02 439.73 1703.15 399.99 1704.5 374L1654.5 401.5ZM1704.5 374L1656.5 399.5V400.165L1703 383L1704.5 374ZM1702.55 485.2L1639.97 493.447L1633.61 499.809L1699.26 495.051L1702.55 485.2Z" fill="black"/>
<path d="M1654.5 401.5L1638.53 492.055L1632.2 498.382L1647.07 399.5L1658.93 401.5H1654.5ZM1654.5 401.5L1640.59 491.348L1703.11 483.108L1708 447.432C1708.02 439.73 1703.15 399.99 1704.5 374M1654.5 401.5L1704.5 374M1704.5 374L1656.5 399.5V400.165L1703 383L1704.5 374ZM1701 380L1704.5 376H1708C1706.67 401.524 1710 439.935 1710 447.5V447.568L1704.98 484.228L1700.74 496.949L1629.91 502.082L1656.5 404L1701 380ZM1639.97 493.447L1702.55 485.2L1699.26 495.051L1633.61 499.809L1639.97 493.447Z" stroke="white" stroke-width="20"/>
<path d="M1644.5 486.5C1638.9 488.9 1640.17 497.833 1642.5 501C1644.67 512 1649.5 534.4 1651.5 536C1653.5 537.6 1680 532 1693 529C1697.33 519.667 1706.8 498.9 1710 490.5C1714 480 1715 448.5 1714 435C1713 421.5 1704 411 1691 412.5C1680.6 413.7 1685 424.667 1688.5 430C1686.17 427.333 1679.2 422.9 1670 426.5C1660.8 430.1 1666.17 442 1670 447.5C1669.33 446.666 1666.6 445.5 1661 447.5C1655.4 449.5 1657 458.333 1658.5 462.5C1657.67 462 1654.6 461.8 1649 465C1643.4 468.2 1650 482 1654 488.5C1652.5 487.5 1650.1 484.1 1644.5 486.5Z" fill="#AEAEAE" stroke="white" stroke-width="20"/>
<path d="M1622.5 640.5L1514.5 470L1597.5 422L1645.5 556.5L1622.5 640.5Z" fill="#937725" stroke="white" stroke-width="20"/>
<path fill-rule="evenodd" clip-rule="evenodd" d="M1594 443.5L1646.55 556.461L1622.87 642.948L1513.1 469.656L1594 443.5ZM1515.9 470.345L1622.13 638.053L1644.45 556.54L1590 450L1515.9 470.345Z" fill="black" stroke="white" stroke-width="20"/>
<path d="M1290.5 417C1330.84 358.153 1391.17 327.333 1419 321C1424.17 339.833 1438.8 383.1 1456 405.5C1473.2 427.9 1546.5 431.333 1585.5 429.5C1565 443 1526.6 475.7 1501 504.5C1475.4 533.3 1448.67 607.167 1438.5 640.5C1439 644 1424.1 651.2 1360.5 652C1298.03 652.786 1250.22 644.792 1230.07 616.551C1229.36 615.564 1229.09 614.352 1229.24 613.148C1234.2 572.816 1225.01 512.527 1290.5 417Z" fill="#BF9B30" stroke="white" stroke-width="20"/>
<path fill-rule="evenodd" clip-rule="evenodd" d="M1419.71 319.812L1419.96 320.735C1422.54 330.117 1427.48 345.605 1433.92 361.538C1440.36 377.487 1448.28 393.801 1456.79 404.891C1460.89 410.231 1469 414.477 1479.71 417.767C1490.37 421.044 1503.42 423.32 1517.19 424.843C1544.72 427.89 1534.54 446.915 1554 446L1551.5 449.161L1556 446C1535.51 459.493 1527.26 476.469 1501.75 505.164C1489.07 519.43 1476.04 544.96 1464.88 571.191C1453.79 597.293 1444.6 623.961 1439.51 640.611C1439.53 641.354 1439.18 642.045 1438.64 642.638C1438.04 643.297 1437.14 643.934 1435.92 644.552C1433.48 645.792 1429.58 647.067 1423.74 648.243C1412.03 650.598 1392.34 652.599 1360.51 653C1329.25 653.393 1301.58 651.591 1279.18 646.132C1256.79 640.674 1239.53 631.529 1229.25 617.132C1228.39 615.923 1228.07 614.455 1228.25 613.026C1229.11 606.05 1229.54 598.489 1230.01 590.211C1230.22 586.567 1230.43 582.784 1230.7 578.851C1231.56 566.013 1232.92 551.661 1236.19 535.573C1242.73 503.383 1256.86 464.305 1289.68 416.434C1330.17 357.374 1390.71 326.412 1418.78 320.025L1419.71 319.812ZM1418.29 322.193C1390.3 328.938 1331.08 359.582 1291.33 417.565C1258.65 465.222 1244.63 504.052 1238.15 535.971C1234.91 551.937 1233.55 566.19 1232.69 578.985C1232.43 582.864 1232.22 586.618 1232.01 590.248C1231.54 598.561 1231.1 606.226 1230.23 613.27C1230.11 614.248 1230.33 615.205 1230.88 615.97C1240.76 629.814 1257.49 638.786 1279.65 644.189C1301.81 649.59 1329.28 651.392 1360.49 651C1392.26 650.6 1411.82 648.602 1423.34 646.282C1429.11 645.121 1432.81 643.889 1435.01 642.769C1436.12 642.208 1436.79 641.702 1437.16 641.294C1437.53 640.887 1437.52 640.677 1437.51 640.641L1437.48 640.421L1437.54 640.208C1442.64 623.513 1451.87 596.679 1463.04 570.409C1474.2 544.173 1487.33 518.369 1500.25 503.836C1524.77 476.257 1523.67 454.651 1545.5 440C1525.96 440.752 1542.99 429.711 1516.97 426.831C1503.13 425.301 1489.95 423.008 1479.12 419.679C1468.34 416.365 1459.71 411.969 1455.21 406.109C1446.52 394.799 1438.52 378.28 1432.06 362.287C1425.8 346.791 1420.95 331.715 1418.29 322.193Z" fill="black" stroke="white" stroke-width="20"/>
<path d="M1461 290.5L1448.5 292C1439.33 301.667 1420.8 321.4 1420 323C1419 325 1469.5 408 1471 409.5C1472.5 411 1560.5 432.5 1569 431C1577.5 429.5 1591 407 1590.5 399.5C1590 392 1570.5 369.5 1560.5 351C1552.5 336.2 1490.83 304.5 1461 290.5Z" fill="#886E22" stroke="white" stroke-width="20"/>
<path fill-rule="evenodd" clip-rule="evenodd" d="M1461.08 289.986L1461.21 290.047C1476.14 297.051 1499.02 308.482 1519.18 320.016C1529.26 325.782 1538.67 331.579 1546.06 336.865C1549.76 339.508 1552.96 342.028 1555.49 344.357C1558.01 346.681 1559.9 348.839 1560.94 350.762C1565.33 358.89 1571.57 367.797 1577.23 375.883C1577.99 376.968 1578.74 378.038 1579.47 379.089C1582.56 383.525 1585.37 387.633 1587.44 391.104C1588.47 392.839 1589.32 394.425 1589.93 395.82C1590.54 397.208 1590.93 398.443 1591 399.467C1591.13 401.466 1590.34 404.371 1589.01 407.567C1587.67 410.786 1585.75 414.375 1583.54 417.772C1581.34 421.167 1578.85 424.385 1576.37 426.855C1573.9 429.306 1571.37 431.089 1569.09 431.492C1568.49 431.597 1567.6 431.597 1566.48 431.521C1565.35 431.444 1563.96 431.288 1562.34 431.063C1559.11 430.614 1554.95 429.89 1550.22 428.975C1540.74 427.145 1528.89 424.55 1517.26 421.862C1505.63 419.174 1494.22 416.392 1485.62 414.187C1481.33 413.085 1477.73 412.127 1475.16 411.397C1473.87 411.032 1472.84 410.723 1472.1 410.48C1471.73 410.359 1471.43 410.252 1471.2 410.162C1471.09 410.117 1470.99 410.073 1470.91 410.03C1470.84 409.996 1470.73 409.937 1470.65 409.853C1470.56 409.768 1470.44 409.599 1470.31 409.41C1470.16 409.204 1469.98 408.924 1469.75 408.577C1469.3 407.883 1468.67 406.91 1467.91 405.701C1466.39 403.282 1464.3 399.907 1461.83 395.894C1456.9 387.869 1450.48 377.289 1444.13 366.694C1437.79 356.099 1431.52 345.487 1426.9 337.396C1424.59 333.352 1422.69 329.933 1421.4 327.461C1420.75 326.226 1420.26 325.219 1419.93 324.485C1419.77 324.12 1419.65 323.81 1419.58 323.566C1419.54 323.446 1419.51 323.327 1419.49 323.217C1419.48 323.133 1419.46 322.951 1419.55 322.776C1419.63 322.626 1419.78 322.418 1419.96 322.188C1420.14 321.945 1420.39 321.64 1420.7 321.282C1421.3 320.565 1422.13 319.621 1423.13 318.507C1425.12 316.278 1427.8 313.356 1430.74 310.185C1436.63 303.841 1443.55 296.49 1448.14 291.656L1448.26 291.525L1461.08 289.986ZM1448.74 292.475C1444.16 297.308 1437.3 304.582 1431.48 310.865C1428.54 314.035 1425.86 316.951 1423.87 319.174C1422.88 320.286 1422.06 321.221 1421.46 321.928C1421.16 322.281 1420.92 322.574 1420.75 322.8C1420.62 322.958 1420.54 323.07 1420.5 323.142C1420.5 323.175 1420.51 323.218 1420.53 323.273C1420.59 323.461 1420.69 323.73 1420.85 324.083C1421.16 324.786 1421.64 325.769 1422.29 326.998C1423.57 329.453 1425.46 332.859 1427.77 336.9C1432.38 344.982 1438.65 355.588 1444.99 366.18C1451.33 376.773 1457.75 387.349 1462.68 395.371C1465.15 399.382 1467.24 402.753 1468.76 405.168C1469.52 406.376 1470.14 407.342 1470.59 408.029C1470.81 408.373 1470.99 408.645 1471.13 408.84C1471.2 408.938 1471.25 409.015 1471.29 409.07C1471.31 409.097 1471.33 409.116 1471.34 409.128C1471.34 409.131 1471.35 409.135 1471.36 409.139C1471.41 409.163 1471.48 409.194 1471.57 409.234C1471.77 409.313 1472.05 409.412 1472.41 409.53C1473.13 409.766 1474.15 410.071 1475.43 410.435C1477.99 411.162 1481.58 412.118 1485.87 413.219C1494.46 415.421 1505.87 418.201 1517.49 420.888C1529.11 423.575 1540.95 426.167 1550.41 427.993C1555.14 428.907 1559.27 429.627 1562.48 430.073C1564.08 430.296 1565.45 430.449 1566.55 430.523C1567.66 430.598 1568.45 430.59 1568.91 430.507C1570.88 430.16 1573.22 428.568 1575.66 426.145C1578.08 423.74 1580.53 420.583 1582.7 417.228C1584.88 413.874 1586.77 410.338 1588.08 407.183C1589.41 404.004 1590.12 401.284 1590 399.533C1589.94 398.682 1589.61 397.573 1589.02 396.222C1588.43 394.879 1587.6 393.332 1586.58 391.615C1584.53 388.179 1581.75 384.099 1578.65 379.661C1577.92 378.612 1577.17 377.543 1576.41 376.459C1570.76 368.38 1564.48 359.421 1560.06 351.238C1559.1 349.46 1557.31 347.391 1554.81 345.093C1552.32 342.801 1549.16 340.307 1545.48 337.678C1538.13 332.421 1528.75 326.643 1518.69 320.884C1498.62 309.401 1475.83 298.015 1460.92 291.013L1448.74 292.475ZM1420.48 323.069C1420.48 323.069 1420.48 323.074 1420.48 323.081C1420.48 323.073 1420.48 323.069 1420.48 323.069Z" fill="black" stroke="white" stroke-width="20"/>
<path d="M1455 320.5L1462 288L1528 347.5L1521.5 373.5C1519.5 379.456 1504 374.144 1494 368.544C1484 362.944 1464.33 334.5 1455 320.5Z" fill="white" stroke="white" stroke-width="20"/>
<path d="M1494 356C1482.76 346.844 1463.67 324.5 1456.5 313L1445.5 343.5C1441.67 344.833 1435.1 353.9 1439.5 379.5C1443.9 405.1 1486.67 416.833 1507.5 419.5L1521.5 372.5C1517.67 369.833 1507.5 367 1494 356Z" fill="#AEAEAE" stroke="white" stroke-width="20"/>
<path d="M1467 385.5C1434.6 355.1 1445.17 310 1454 291.5C1447.33 289 1429 288.5 1413 304.5C1393 324.5 1393 344 1399 368.5C1405 393 1434 414 1459.5 425.5C1485 437 1538 444 1570 446C1602 448 1617 412 1617 388.5C1617 365 1598 360.5 1594 359C1590.8 357.8 1580.33 367.167 1575.5 372C1576.33 376.5 1578 389.3 1578 404.5C1578 419.7 1557.49 426.167 1547.23 427.5C1522.29 420.269 1489.78 406.871 1467 385.5Z" fill="#BF9B30"/>
<path d="M1547.23 427.5C1522.29 420.269 1489.78 406.871 1467 385.5C1434.6 355.1 1445.17 310 1454 291.5C1447.33 289 1429 288.5 1413 304.5C1393 324.5 1393 344 1399 368.5C1405 393 1434 414 1459.5 425.5C1485 437 1538 444 1570 446C1602 448 1617 412 1617 388.5C1617 365 1598 360.5 1594 359C1590.8 357.8 1580.33 367.167 1575.5 372C1576.33 376.5 1578 389.3 1578 404.5C1578 419.7 1557.49 426.167 1547.23 427.5ZM1547.23 427.5C1557.78 430.555 1566.96 432.51 1573.5 433.5" stroke="white" stroke-width="20"/>
<path fill-rule="evenodd" clip-rule="evenodd" d="M1452.62 292.097C1445.55 290.054 1428.64 290.277 1413.71 305.207C1403.83 315.081 1398.95 324.773 1397.24 334.978C1395.52 345.215 1396.98 356.057 1399.97 368.263C1402.9 380.229 1411.48 391.437 1422.59 401.121C1433.69 410.795 1447.23 418.87 1459.91 424.589C1472.5 430.267 1491.23 433.506 1510.92 435.568C1525.93 437.141 1541.41 438.022 1555.03 438.797C1559.24 439.036 1563.28 439.266 1567.06 439.502C1582.61 440.474 1578.39 423.483 1586 412C1593.63 400.492 1613 394.573 1613 383C1613 371.51 1609.11 366.244 1604.96 363.593C1602.84 362.241 1600.59 361.524 1598.58 361.052C1597.77 360.861 1597.01 360.713 1596.31 360.577C1596.14 360.544 1595.98 360.512 1595.81 360.479C1595.01 360.32 1594.24 360.158 1593.65 359.937C1593.52 359.889 1593.24 359.858 1592.73 359.986C1592.23 360.111 1591.62 360.36 1590.9 360.733C1589.47 361.478 1587.76 362.646 1585.97 364.029C1582.58 366.653 1578.98 369.96 1576.58 372.34C1577.44 377.302 1579 389.785 1579 404.5C1579 412.625 1573.5 418.308 1566.96 422.067C1562.06 424.886 1556.44 426.705 1551.73 427.725C1560.46 430.097 1568.05 431.663 1573.65 432.512L1573.35 434.489C1566.77 433.492 1557.53 431.527 1546.96 428.461C1521.95 421.212 1489.26 407.758 1466.32 386.23C1449.87 370.802 1444.34 351.643 1444.04 334.055C1443.74 317.116 1448.28 301.583 1452.62 292.097ZM1547.31 426.481C1522.45 419.254 1490.23 405.927 1467.68 384.771C1451.73 369.799 1446.34 351.207 1446.04 334.02C1445.74 316.812 1450.54 301.065 1454.9 291.931L1455.37 290.947L1454.35 290.564C1447.33 287.93 1428.58 287.51 1412.29 303.793C1402.17 313.92 1397.05 323.978 1395.26 334.648C1393.48 345.286 1395.02 356.443 1398.03 368.738C1401.1 381.272 1410.02 392.814 1421.28 402.629C1432.56 412.456 1446.27 420.63 1459.09 426.412C1472 432.234 1491.01 435.494 1510.71 437.557C1525.78 439.136 1541.33 440.021 1554.95 440.796C1559.15 441.035 1563.17 441.263 1566.94 441.498C1583.39 442.527 1588.11 417.892 1596 406C1603.87 394.133 1615 394.928 1615 383C1615 370.99 1610.89 365.006 1606.04 361.908C1603.65 360.384 1601.16 359.602 1599.04 359.105C1598.19 358.905 1597.38 358.748 1596.68 358.611C1596.51 358.579 1596.35 358.548 1596.2 358.517C1595.37 358.352 1594.76 358.218 1594.35 358.064C1593.68 357.812 1592.93 357.873 1592.24 358.046C1591.53 358.223 1590.77 358.547 1589.98 358.959C1588.39 359.784 1586.58 361.034 1584.75 362.446C1581.09 365.277 1577.23 368.858 1574.79 371.293L1574.42 371.665L1574.52 372.182C1575.34 376.623 1577 389.362 1577 404.5C1577 411.576 1572.24 416.726 1565.96 420.333C1559.78 423.885 1552.35 425.801 1547.31 426.481Z" fill="black" stroke="white" stroke-width="20"/>
<path d="M1454 291C1447.6 278.6 1456.67 235.5 1462 215.5C1470.33 205.333 1490.8 184 1506 180C1525 175 1617 191 1656.5 198.5C1688.1 204.5 1679.67 236 1671.5 251C1665.5 266.167 1651.7 299.7 1644.5 312.5C1635.5 328.5 1593 381 1566.5 384C1540 387 1462 306.5 1454 291Z" fill="#AEAEAE" stroke="white" stroke-width="20"/>
<path d="M1638.5 268.5C1627 266.5 1621 273.5 1617 278C1618.5 280 1619.49 285.998 1631 289C1642.5 292 1650 286 1652.5 282C1652.33 279.167 1649.85 270.473 1638.5 268.5Z" fill="white" stroke="white" stroke-width="20"/>
<path fill-rule="evenodd" clip-rule="evenodd" d="M1618.25 278.1C1618.32 278.217 1618.38 278.335 1618.44 278.452C1618.54 278.626 1618.62 278.788 1618.71 278.952C1618.82 279.174 1618.94 279.399 1619.08 279.663C1619.55 280.518 1620.13 281.478 1621 282.463C1622.72 284.416 1625.66 286.573 1631.25 288.032C1642 290.835 1649 285.436 1651.48 281.743C1651.17 278.91 1648.67 271.283 1638.33 269.485C1627.87 267.666 1622.23 273.626 1618.25 278.1ZM1616.48 277.085C1620.48 272.58 1626.81 265.451 1638.67 267.515C1650.62 269.592 1653.31 278.805 1653.5 281.941L1653.52 282.259L1653.35 282.53C1650.66 286.839 1642.74 293.095 1630.75 289.967C1624.83 288.424 1621.52 286.082 1619.5 283.786C1618.49 282.646 1617.83 281.544 1617.32 280.618C1617.18 280.359 1617.04 280.083 1616.91 279.836C1616.83 279.672 1616.75 279.521 1616.68 279.395C1616.49 279.04 1616.34 278.785 1616.2 278.6L1615.71 277.946L1616.25 277.336C1616.33 277.253 1616.4 277.169 1616.48 277.085Z" fill="black" stroke="white" stroke-width="20"/>
<path d="M1634 282C1634 281.245 1634.34 280.67 1634.66 280.375C1634.96 280.09 1635.28 280 1635.5 280C1635.72 280 1636.04 280.09 1636.34 280.375C1636.66 280.67 1637 281.245 1637 282C1637 282.755 1636.66 283.33 1636.34 283.625C1636.04 283.91 1635.72 284 1635.5 284C1635.28 284 1634.96 283.91 1634.66 283.625C1634.34 283.33 1634 282.755 1634 282Z" fill="black" stroke="white" stroke-width="20"/>
<path d="M1562.5 237C1544 226.5 1530.5 232 1524 238C1525 241.333 1525.91 253.753 1540 262C1560.5 274 1571.67 271.667 1581 269.5C1581.17 264.333 1580.24 247.068 1562.5 237Z" fill="white" stroke="white" stroke-width="20"/>
<path fill-rule="evenodd" clip-rule="evenodd" d="M1525.12 238.335C1525.21 238.68 1525.3 239.074 1525.39 239.512C1526.45 244.293 1528.64 254.192 1540.51 261.137C1550.66 267.082 1558.44 269.439 1564.79 270.067C1570.79 270.662 1575.58 269.719 1580.02 268.701C1580.05 262.906 1578.46 247.21 1562.01 237.87C1544.32 227.833 1531.48 232.774 1525.12 238.335ZM1523.32 237.265C1530.13 230.981 1544.1 225.408 1562.99 236.13C1581.22 246.476 1582.17 264.235 1582 269.532L1581.98 270.3L1581.23 270.474C1576.55 271.561 1571.29 272.721 1564.59 272.058C1557.89 271.395 1549.84 268.918 1539.5 262.863C1526.81 255.437 1524.46 244.627 1523.43 239.912C1523.28 239.236 1523.16 238.685 1523.04 238.287L1522.86 237.689L1523.32 237.265Z" fill="black" stroke="white" stroke-width="20"/>
<path d="M1562.06 258.234C1562.03 258.496 1561.88 258.922 1561.25 259.358C1560.61 259.806 1559.59 260.148 1558.31 259.988C1557.04 259.828 1556.13 259.242 1555.62 258.649C1555.13 258.072 1555.08 257.622 1555.12 257.36C1555.15 257.098 1555.3 256.672 1555.92 256.237C1556.57 255.788 1557.59 255.446 1558.87 255.606C1560.14 255.766 1561.05 256.352 1561.56 256.945C1562.05 257.522 1562.09 257.972 1562.06 258.234Z" fill="black" stroke="white" stroke-width="20"/>
<path d="M1320 441C1320 460.127 1321.08 566.498 1325.89 624.184C1326.24 628.374 1329 631.936 1332.93 633.411L1524 705L1534.5 641L1400 580.5L1412 441C1414.5 418.5 1402 385.4 1374 387C1339 389 1320 415 1320 441Z" fill="#BF9B30" stroke="white" stroke-width="20"/>
<path fill-rule="evenodd" clip-rule="evenodd" d="M1403.57 405.464C1397.39 394.798 1387.57 387.226 1374.06 387.999C1339.62 389.967 1321 415.499 1321 441C1321 460.128 1322.08 566.461 1326.89 624.101C1327.2 627.896 1329.7 631.132 1333.29 632.475L1523.21 703.637L1533.39 641.597L1398.94 581.121L1411 440.902L1411.01 440.89C1412.23 429.84 1409.77 416.157 1403.57 405.464ZM1412.99 441.098C1414.26 429.65 1411.73 415.54 1405.3 404.461C1398.86 393.352 1388.43 385.174 1373.94 386.002C1338.38 388.034 1319 414.502 1319 441C1319 460.126 1320.08 566.535 1324.89 624.268C1325.28 628.853 1328.29 632.74 1332.58 634.348L1524.79 706.364L1535.61 640.404L1401.06 579.879L1412.99 441.098Z" fill="black" stroke="white" stroke-width="20"/>
<path d="M1633.07 578.078C1636.86 557.589 1641.53 534.755 1645.68 515.79C1647.3 517.112 1649 518.397 1650.77 519.606C1658.89 525.156 1670.41 530.453 1682.64 527.767C1685.47 527.147 1688.12 526.282 1690.59 525.229L1667.27 623.684C1667.27 623.686 1667.27 623.688 1667.27 623.691C1665.61 630.674 1660.64 635.586 1655.31 639.278C1655.32 639.267 1655.33 639.262 1655.33 639.262C1655.33 639.259 1654.96 639.48 1654.11 639.806C1653.21 640.149 1652.02 640.516 1650.6 640.821C1647.73 641.438 1644.33 641.719 1640.99 641.303C1634.96 640.551 1629.03 637.674 1625.69 628.876C1625.69 628.856 1625.69 628.836 1625.69 628.815C1625.67 628.161 1625.69 627.144 1625.78 625.703C1625.97 622.839 1626.41 618.924 1627.07 614.1C1628.38 604.489 1630.52 591.873 1633.07 578.078ZM1625.71 629.302C1625.71 629.303 1625.71 629.282 1625.71 629.238C1625.71 629.279 1625.72 629.302 1625.71 629.302Z" fill="#BF9B30" stroke="white" stroke-width="20"/>
<mask id="path-49-inside-2_1067_301" fill="white">
<path fill-rule="evenodd" clip-rule="evenodd" d="M1640 495.5C1639.81 496.335 1639.61 497.188 1639.41 498.057C1629.5 541.032 1613.19 623.516 1616 631.5C1625.5 658.5 1654.83 651.769 1661 647.5C1667.17 643.231 1674.5 636.5 1677 626L1708.5 493C1707.78 494.959 1706.52 497.554 1704.71 500.345C1700.18 507.285 1692.2 515.432 1680.5 518C1665.32 521.331 1648.83 506.651 1641.57 497.574C1640.99 496.842 1640.46 496.147 1640 495.5ZM1641 500.034C1636.2 520.989 1630.01 550.673 1625.2 576.622C1622.64 590.465 1620.48 603.223 1619.14 613.015C1618.47 617.914 1618.01 622.042 1617.8 625.178C1617.7 626.748 1617.66 628.039 1617.69 629.038C1617.72 630.093 1617.82 630.639 1617.89 630.836C1622.34 643.505 1631.33 648.16 1640 649.241C1644.38 649.788 1648.7 649.413 1652.28 648.642C1655.92 647.861 1658.62 646.713 1659.86 645.856C1665.86 641.703 1672.72 635.335 1675.05 625.539M1675.05 625.537L1703.51 505.387C1698.54 511.556 1691.08 517.725 1680.93 519.953C1671.92 521.931 1662.75 518.105 1655.28 513.001C1649.48 509.034 1644.46 504.135 1641 500.034"/>
</mask>
<path fill-rule="evenodd" clip-rule="evenodd" d="M1640 495.5C1639.81 496.335 1639.61 497.188 1639.41 498.057C1629.5 541.032 1613.19 623.516 1616 631.5C1625.5 658.5 1654.83 651.769 1661 647.5C1667.17 643.231 1674.5 636.5 1677 626L1708.5 493C1707.78 494.959 1706.52 497.554 1704.71 500.345C1700.18 507.285 1692.2 515.432 1680.5 518C1665.32 521.331 1648.83 506.651 1641.57 497.574C1640.99 496.842 1640.46 496.147 1640 495.5ZM1641 500.034C1636.2 520.989 1630.01 550.673 1625.2 576.622C1622.64 590.465 1620.48 603.223 1619.14 613.015C1618.47 617.914 1618.01 622.042 1617.8 625.178C1617.7 626.748 1617.66 628.039 1617.69 629.038C1617.72 630.093 1617.82 630.639 1617.89 630.836C1622.34 643.505 1631.33 648.16 1640 649.241C1644.38 649.788 1648.7 649.413 1652.28 648.642C1655.92 647.861 1658.62 646.713 1659.86 645.856C1665.86 641.703 1672.72 635.335 1675.05 625.539M1675.05 625.537L1703.51 505.387C1698.54 511.556 1691.08 517.725 1680.93 519.953C1671.92 521.931 1662.75 518.105 1655.28 513.001C1649.48 509.034 1644.46 504.135 1641 500.034" fill="black"/>
<path d="M1641 500.034L1650.66 497.416L1631.35 502.652L1641 500.034ZM1684.71 622.921L1650.66 497.416L1631.35 502.652L1665.4 628.157L1684.71 622.921ZM1631.35 502.652L1665.4 628.155L1684.71 622.918L1650.66 497.416L1631.35 502.652ZM1640 495.5L1656.3 483.905L1630.59 447.78L1620.52 490.958L1640 495.5ZM1639.41 498.057L1619.92 493.564L1619.92 493.564L1639.41 498.057ZM1616 631.5L1597.13 638.138L1597.13 638.138L1616 631.5ZM1677 626L1696.46 630.633L1696.46 630.621L1696.46 630.609L1677 626ZM1708.5 493L1727.96 497.609L1689.72 486.128L1708.5 493ZM1704.71 500.345L1687.95 489.424L1687.95 489.424L1704.71 500.345ZM1680.5 518L1676.21 498.465L1676.21 498.465L1680.5 518ZM1641.57 497.574L1625.96 510.069L1625.96 510.069L1641.57 497.574ZM1625.2 576.622L1644.87 580.262L1644.87 580.262L1625.2 576.622ZM1641 500.034L1656.29 487.138L1630.46 456.512L1621.51 495.568L1641 500.034ZM1619.14 613.015L1638.95 615.729L1638.95 615.729L1619.14 613.015ZM1617.8 625.178L1637.76 626.49L1637.76 626.49L1617.8 625.178ZM1617.69 629.038L1637.68 628.48L1637.68 628.48L1617.69 629.038ZM1617.89 630.836L1599.02 637.474L1599.02 637.474L1617.89 630.836ZM1640 649.241L1637.52 669.087L1637.52 669.087L1640 649.241ZM1652.28 648.642L1648.08 629.089L1648.08 629.089L1652.28 648.642ZM1659.86 645.856L1671.24 662.3L1671.24 662.3L1659.86 645.856ZM1703.51 505.387L1722.97 509.996L1687.93 492.843L1703.51 505.387ZM1680.93 519.953L1685.22 539.488L1685.22 539.488L1680.93 519.953ZM1655.28 513.001L1644 529.514L1644 529.514L1655.28 513.001ZM1620.52 490.958C1620.32 491.81 1620.12 492.679 1619.92 493.564L1658.9 502.55C1659.09 501.697 1659.29 500.861 1659.48 500.042L1620.52 490.958ZM1619.92 493.564C1614.9 515.343 1608.28 547 1603.26 574.282C1600.76 587.9 1598.61 600.658 1597.26 610.644C1596.59 615.602 1596.07 620.181 1595.83 623.973C1595.71 625.853 1595.64 627.854 1595.7 629.774C1595.74 631.154 1595.87 634.559 1597.13 638.138L1634.87 624.862C1635.77 627.443 1635.7 629.268 1635.68 628.542C1635.68 628.356 1635.68 627.724 1635.75 626.5C1635.91 624.085 1636.28 620.575 1636.9 616.005C1638.13 606.937 1640.15 594.891 1642.6 581.518C1647.52 554.818 1654.01 523.745 1658.9 502.55L1619.92 493.564ZM1597.13 638.138C1604.81 659.952 1621.76 669.137 1637.28 671.072C1644.53 671.976 1651.35 671.345 1656.91 670.151C1661.98 669.061 1667.82 667.106 1672.38 663.945L1649.62 631.055C1650.62 630.36 1651.08 630.258 1650.54 630.466C1650.15 630.613 1649.46 630.839 1648.5 631.044C1646.52 631.47 1644.27 631.634 1642.22 631.379C1640.25 631.133 1638.95 630.565 1638.08 629.922C1637.36 629.385 1636.02 628.147 1634.87 624.862L1597.13 638.138ZM1672.38 663.945C1680.21 658.524 1692.28 648.158 1696.46 630.633L1657.54 621.367C1656.72 624.842 1654.12 627.938 1649.62 631.055L1672.38 663.945ZM1689.72 486.128C1689.58 486.513 1689.04 487.758 1687.95 489.424L1721.46 511.265C1724.01 507.351 1725.99 503.406 1727.28 499.872L1689.72 486.128ZM1687.95 489.424C1685.08 493.832 1680.96 497.423 1676.21 498.465L1684.79 537.535C1703.44 533.441 1715.29 520.738 1721.46 511.265L1687.95 489.424ZM1676.21 498.465C1676.15 498.479 1673.84 498.757 1668.77 495.545C1664.09 492.58 1659.75 488.275 1657.19 485.079L1625.96 510.069C1630.66 515.95 1638.19 523.524 1647.37 529.336C1656.15 534.9 1669.67 540.853 1684.79 537.535L1676.21 498.465ZM1657.19 485.079C1656.81 484.609 1656.52 484.214 1656.3 483.905L1623.7 507.095C1624.4 508.079 1625.16 509.075 1625.96 510.069L1657.19 485.079ZM1644.87 580.262C1649.62 554.59 1655.76 525.181 1660.5 504.5L1621.51 495.568C1616.65 516.797 1610.39 546.757 1605.54 572.982L1644.87 580.262ZM1638.95 615.729C1640.23 606.39 1642.33 593.984 1644.87 580.262L1605.54 572.982C1602.95 586.947 1600.73 600.055 1599.32 610.301L1638.95 615.729ZM1637.76 626.49C1637.92 624.035 1638.31 620.437 1638.95 615.729L1599.32 610.301C1598.63 615.391 1598.1 620.048 1597.84 623.867L1637.76 626.49ZM1637.68 628.48C1637.68 628.448 1637.68 628.266 1637.69 627.902C1637.7 627.547 1637.72 627.08 1637.76 626.49L1597.84 623.867C1597.72 625.76 1597.64 627.732 1597.7 629.596L1637.68 628.48ZM1636.75 624.198C1637.15 625.313 1637.34 626.2 1637.42 626.609C1637.53 627.103 1637.58 627.492 1637.61 627.74C1637.65 627.999 1637.66 628.192 1637.67 628.304C1637.68 628.363 1637.68 628.407 1637.68 628.436C1637.68 628.464 1637.68 628.479 1637.68 628.48L1597.7 629.596C1597.73 630.913 1597.85 634.138 1599.02 637.474L1636.75 624.198ZM1642.47 629.395C1640.76 629.182 1639.82 628.72 1639.28 628.32C1638.88 628.023 1637.78 627.111 1636.75 624.198L1599.02 637.474C1602.45 647.23 1608.07 654.979 1615.45 660.448C1622.68 665.813 1630.56 668.219 1637.52 669.087L1642.47 629.395ZM1648.08 629.089C1646.28 629.476 1644.25 629.617 1642.47 629.395L1637.52 669.087C1644.51 669.959 1651.11 669.351 1656.49 668.196L1648.08 629.089ZM1648.48 629.411C1648.85 629.152 1649.15 628.971 1649.35 628.859C1649.55 628.743 1649.69 628.668 1649.78 628.627C1649.94 628.548 1649.96 628.547 1649.82 628.598C1649.7 628.646 1649.48 628.722 1649.18 628.812C1648.87 628.902 1648.51 628.997 1648.08 629.089L1656.49 668.196C1661.42 667.134 1666.98 665.253 1671.24 662.3L1648.48 629.411ZM1655.6 620.905C1654.94 623.678 1652.81 626.411 1648.48 629.411L1671.24 662.3C1678.91 656.994 1690.5 646.992 1694.51 630.174L1655.6 620.905ZM1684.05 500.778L1655.59 620.927L1694.52 630.146L1722.97 509.996L1684.05 500.778ZM1685.22 539.488C1701.09 536.004 1712.21 526.479 1719.09 517.931L1687.93 492.843C1684.88 496.633 1681.07 499.446 1676.64 500.419L1685.22 539.488ZM1644 529.514C1653.1 535.73 1668.14 543.237 1685.22 539.488L1676.64 500.419C1676.26 500.501 1675.3 500.603 1673.44 500.027C1671.52 499.431 1669.17 498.265 1666.57 496.489L1644 529.514ZM1625.72 512.93C1630.12 518.149 1636.44 524.35 1644 529.514L1666.57 496.489C1662.51 493.718 1658.81 490.122 1656.29 487.138L1625.72 512.93ZM1696.46 630.609L1727.96 497.609L1689.04 488.391L1657.54 621.391L1696.46 630.609Z" fill="white" mask="url(#path-49-inside-2_1067_301)"/>
<path d="M1675 402.564C1674.99 402.563 1675 402.558 1675 402.548C1675 402.559 1675 402.564 1675 402.564ZM1675.23 402.847C1675.1 402.687 1675.04 402.568 1675.01 402.5C1675.04 402.432 1675.1 402.313 1675.23 402.153C1675.54 401.78 1676.47 401 1678 401C1679.53 401 1680.46 401.78 1680.77 402.153C1680.9 402.313 1680.96 402.432 1680.99 402.5C1680.96 402.568 1680.9 402.687 1680.77 402.847C1680.46 403.22 1679.53 404 1678 404C1676.47 404 1675.54 403.22 1675.23 402.847ZM1681.01 402.564C1681 402.564 1681 402.559 1681 402.548C1681 402.558 1681.01 402.563 1681.01 402.564ZM1681 402.452C1681 402.441 1681 402.436 1681.01 402.436C1681.01 402.437 1681 402.442 1681 402.452ZM1675 402.452C1675 402.442 1674.99 402.437 1675 402.436C1675 402.436 1675 402.441 1675 402.452Z" fill="black" stroke="white" stroke-width="20"/>
<path d="M1625 1064L1600.5 1013.5L1627.13 1003.69C1628.33 1003.25 1629.65 1003.28 1630.83 1003.78L1639.5 1007.5L1692.5 987.5C1714.17 994.5 1760.7 1010 1773.5 1016C1786.3 1022 1782.83 1039.17 1779.5 1047L1625 1064Z" fill="#BF9B30" stroke="white" stroke-width="20"/>
<path fill-rule="evenodd" clip-rule="evenodd" d="M1692.48 986.441L1692.81 986.549C1714.44 993.538 1761.05 1009.06 1773.93 1015.09C1780.77 1018.3 1783.22 1024.52 1783.55 1030.76C1783.88 1036.98 1782.13 1043.38 1780.42 1047.39L1780.19 1047.93L1624.41 1065.07L1599.12 1012.94L1626.79 1002.75C1628.23 1002.22 1629.81 1002.26 1631.22 1002.87L1639.52 1006.42L1692.48 986.441ZM1692.53 988.559L1639.48 1008.58L1630.44 1004.7C1629.5 1004.3 1628.44 1004.27 1627.48 1004.63L1601.88 1014.06L1625.59 1062.93L1778.8 1046.07C1780.35 1042.23 1781.84 1036.43 1781.55 1030.87C1781.25 1025.07 1779.03 1019.7 1773.08 1016.91C1760.41 1010.97 1714.37 995.62 1692.53 988.559Z" fill="black" stroke="white" stroke-width="20"/>
<path d="M1694 1020C1687.83 1017.05 1697.33 1000 1703 991.5L1717.5 996C1712.33 1005 1705.5 1025.5 1694 1020Z" fill="#D9D9D9" stroke="white" stroke-width="20"/>
<path d="M1718.5 1023.5C1712.33 1020.55 1719.34 1007.5 1725.01 999L1739.51 1003.5C1734.34 1012.5 1728 1028.04 1718.5 1023.5Z" fill="#D9D9D9" stroke="white" stroke-width="20"/>
<path d="M1741 1026.5C1736.16 1024.19 1741.19 1011.64 1745.63 1005L1757.5 1010C1753.45 1017.04 1750.02 1030.8 1741 1026.5Z" fill="#D9D9D9" stroke="white" stroke-width="20"/>
<path fill-rule="evenodd" clip-rule="evenodd" d="M1692.48 986.441L1692.81 986.549C1714.44 993.538 1761.05 1009.06 1773.93 1015.09C1780.77 1018.3 1783.22 1024.52 1783.55 1030.76C1783.88 1036.98 1782.13 1043.38 1780.42 1047.39L1780.19 1047.93L1624.41 1065.07L1599.12 1012.94L1626.79 1002.75C1628.23 1002.22 1629.81 1002.26 1631.22 1002.87L1639.52 1006.42L1692.48 986.441ZM1692.53 988.559L1639.48 1008.58L1630.44 1004.7C1629.5 1004.3 1628.44 1004.27 1627.48 1004.63L1601.88 1014.06L1625.59 1062.93L1778.8 1046.07C1780.35 1042.23 1781.84 1036.43 1781.55 1030.87C1781.25 1025.07 1779.03 1019.7 1773.08 1016.91C1760.41 1010.97 1714.37 995.62 1692.53 988.559Z" fill="black" stroke="white" stroke-width="20"/>
<path d="M1714 968L1679.5 917L1716 897L1728.5 901C1742.17 889.167 1775.7 864.2 1800.5 859C1825.3 853.8 1838.83 879.5 1842.5 893L1714 968Z" fill="#B8962E" stroke="white" stroke-width="20"/>
<path fill-rule="evenodd" clip-rule="evenodd" d="M1830.16 868.307C1837.24 875.918 1841.6 885.878 1843.47 892.738L1843.67 893.478L1713.7 969.336L1678.06 916.651L1715.9 895.917L1728.27 899.877C1735.2 893.923 1746.82 884.897 1759.79 876.668C1773.01 868.282 1787.71 860.66 1800.3 858.021C1813.13 855.33 1823.05 860.666 1830.16 868.307ZM1828.69 869.669C1821.92 862.384 1812.67 857.47 1800.71 859.979C1788.49 862.541 1774.03 870.002 1760.86 878.357C1747.71 886.699 1735.95 895.869 1729.15 901.756L1728.73 902.124L1716.1 898.083L1680.94 917.349L1714.3 966.665L1841.33 892.526C1839.42 885.924 1835.25 876.716 1828.69 869.669Z" fill="black" stroke="white" stroke-width="20"/>
<path d="M1772.5 901.5C1767.53 903.985 1758.67 889.167 1755 881.5L1764 876C1768.83 883.333 1780.5 897.5 1772.5 901.5Z" fill="#D9D9D9" stroke="white" stroke-width="20"/>
<path d="M1787 893C1782.03 895.485 1774.17 879.167 1770.5 871.5L1780 866C1784.83 873.333 1795 889 1787 893Z" fill="#D9D9D9" stroke="white" stroke-width="20"/>
<path d="M1803.5 887C1798.53 889.485 1789.67 872.167 1786 864.5L1796.5 860C1801.33 867.333 1811.5 883 1803.5 887Z" fill="#D9D9D9" stroke="white" stroke-width="20"/>
<path fill-rule="evenodd" clip-rule="evenodd" d="M1830.16 868.307C1837.24 875.918 1841.6 885.878 1843.47 892.738L1843.67 893.478L1713.7 969.336L1678.06 916.651L1715.9 895.917L1728.27 899.877C1735.2 893.923 1746.82 884.897 1759.79 876.668C1773.01 868.282 1787.71 860.66 1800.3 858.021C1813.13 855.33 1823.05 860.666 1830.16 868.307ZM1828.69 869.669C1821.92 862.384 1812.67 857.47 1800.71 859.979C1788.49 862.541 1774.03 870.002 1760.86 878.357C1747.71 886.699 1735.95 895.869 1729.15 901.756L1728.73 902.124L1716.1 898.083L1680.94 917.349L1714.3 966.665L1841.33 892.526C1839.42 885.924 1835.25 876.716 1828.69 869.669Z" fill="black" stroke="white" stroke-width="20"/>
<path d="M1540.5 350.5C1527.7 339.3 1528 318.167 1531.5 310.5C1539.83 316.667 1559.4 330.7 1569 337.5C1578.6 344.3 1581.33 353.667 1581.5 357.5C1572.16 358.833 1553.3 361.7 1540.5 350.5Z" fill="white" stroke="white" stroke-width="20" stroke-linecap="round"/>
<path fill-rule="evenodd" clip-rule="evenodd" d="M1529.47 297.5C1530.02 297.485 1530.48 297.919 1530.5 298.471C1530.66 304.219 1531.87 313.493 1534.97 322.552C1538.08 331.632 1543.02 340.337 1550.54 345.158C1565.92 355.019 1582.93 356.49 1589.43 356.003C1589.98 355.962 1590.46 356.374 1590.5 356.925C1590.54 357.476 1590.13 357.956 1589.57 357.997C1582.74 358.51 1565.28 356.981 1549.46 346.842C1541.38 341.663 1536.24 332.451 1533.08 323.198C1529.91 313.924 1528.67 304.448 1528.5 298.529C1528.48 297.977 1528.92 297.516 1529.47 297.5Z" fill="black" stroke="white" stroke-width="20" stroke-linecap="round"/>
<path fill-rule="evenodd" clip-rule="evenodd" d="M1608.81 281.017C1609.36 280.915 1609.88 281.272 1609.98 281.815C1611.91 292.018 1613.89 307.369 1613.59 320.249C1613.43 326.676 1612.71 332.58 1611.07 336.935C1609.43 341.28 1606.73 344.383 1602.53 344.5C1595.01 344.709 1587.21 341.023 1580.6 336.474C1573.96 331.908 1568.37 326.37 1565.23 322.644C1564.88 322.221 1564.93 321.59 1565.36 321.235C1565.78 320.879 1566.41 320.934 1566.77 321.357C1569.8 324.964 1575.26 330.376 1581.73 334.826C1588.22 339.294 1595.59 342.692 1602.47 342.501C1605.47 342.417 1607.67 340.275 1609.19 336.228C1610.72 332.191 1611.44 326.557 1611.59 320.201C1611.89 307.515 1609.93 292.316 1608.02 282.185C1607.92 281.643 1608.27 281.12 1608.81 281.017Z" fill="black" stroke="white" stroke-width="20" stroke-linecap="round"/>
<path d="M1479.16 247C1477.93 246.108 1476.8 245.069 1475.8 243.904C1474.16 241.986 1472.92 239.762 1472.14 237.362C1471.36 234.961 1471.06 232.431 1471.25 229.914C1471.45 227.398 1472.14 224.944 1473.29 222.695C1474.43 220.445 1476.01 218.443 1477.93 216.803C1479.09 215.808 1480.37 214.958 1481.73 214.269L1480.45 230.635L1479.16 247Z" fill="#D9D9D9" stroke="white" stroke-width="20"/>
<mask id="path-68-inside-3_1067_301" fill="white">
<path fill-rule="evenodd" clip-rule="evenodd" d="M1490.54 204.194C1487.64 204.18 1484.76 204.63 1481.99 205.529C1478.6 206.635 1475.45 208.399 1472.73 210.722C1470.01 213.044 1467.78 215.88 1466.16 219.065C1464.53 222.251 1463.56 225.725 1463.28 229.289C1463 232.853 1463.42 236.437 1464.53 239.837C1465.63 243.236 1467.4 246.385 1469.72 249.102C1472.04 251.82 1474.88 254.053 1478.07 255.675C1480.66 256.994 1483.44 257.887 1486.3 258.325L1490.54 204.194ZM1490.7 202.195C1487.54 202.164 1484.39 202.647 1481.38 203.627C1477.73 204.814 1474.35 206.708 1471.43 209.202C1468.51 211.695 1466.12 214.738 1464.37 218.158C1462.63 221.578 1461.58 225.307 1461.28 229.133C1460.98 232.959 1461.44 236.806 1462.63 240.455C1463.81 244.105 1465.71 247.484 1468.2 250.401C1470.69 253.319 1473.74 255.716 1477.16 257.457C1479.98 258.895 1483.02 259.862 1486.14 260.324C1486.8 260.421 1487.47 260.496 1488.13 260.549L1492.7 202.283C1492.03 202.231 1491.37 202.202 1490.7 202.195Z"/>
</mask>
<path fill-rule="evenodd" clip-rule="evenodd" d="M1490.54 204.194C1487.64 204.18 1484.76 204.63 1481.99 205.529C1478.6 206.635 1475.45 208.399 1472.73 210.722C1470.01 213.044 1467.78 215.88 1466.16 219.065C1464.53 222.251 1463.56 225.725 1463.28 229.289C1463 232.853 1463.42 236.437 1464.53 239.837C1465.63 243.236 1467.4 246.385 1469.72 249.102C1472.04 251.82 1474.88 254.053 1478.07 255.675C1480.66 256.994 1483.44 257.887 1486.3 258.325L1490.54 204.194ZM1490.7 202.195C1487.54 202.164 1484.39 202.647 1481.38 203.627C1477.73 204.814 1474.35 206.708 1471.43 209.202C1468.51 211.695 1466.12 214.738 1464.37 218.158C1462.63 221.578 1461.58 225.307 1461.28 229.133C1460.98 232.959 1461.44 236.806 1462.63 240.455C1463.81 244.105 1465.71 247.484 1468.2 250.401C1470.69 253.319 1473.74 255.716 1477.16 257.457C1479.98 258.895 1483.02 259.862 1486.14 260.324C1486.8 260.421 1487.47 260.496 1488.13 260.549L1492.7 202.283C1492.03 202.231 1491.37 202.202 1490.7 202.195Z" fill="white"/>
<path d="M1481.99 205.529L1488.18 224.548L1488.18 224.548L1481.99 205.529ZM1490.54 204.194L1510.48 205.756L1512.16 184.295L1490.64 184.194L1490.54 204.194ZM1472.73 210.722L1459.74 195.518L1459.74 195.518L1472.73 210.722ZM1466.16 219.065L1483.98 228.139L1483.98 228.139L1466.16 219.065ZM1463.28 229.289L1443.34 227.727L1443.34 227.727L1463.28 229.289ZM1464.53 239.837L1445.51 246.023L1445.51 246.023L1464.53 239.837ZM1469.72 249.102L1484.93 236.108L1484.93 236.108L1469.72 249.102ZM1478.07 255.675L1487.14 237.852L1487.14 237.852L1478.07 255.675ZM1486.3 258.325L1483.28 278.095L1504.56 281.349L1506.24 259.887L1486.3 258.325ZM1490.7 202.195L1490.51 222.194L1490.51 222.194L1490.7 202.195ZM1481.38 203.627L1487.56 222.646L1487.56 222.646L1481.38 203.627ZM1471.43 209.202L1458.44 193.998L1458.44 193.998L1471.43 209.202ZM1464.37 218.158L1482.2 227.232L1482.2 227.232L1464.37 218.158ZM1462.63 240.455L1443.61 246.642L1443.61 246.642L1462.63 240.455ZM1468.2 250.401L1453 263.396L1453 263.396L1468.2 250.401ZM1477.16 257.457L1486.23 239.634L1486.23 239.634L1477.16 257.457ZM1486.14 260.324L1483.22 280.109L1483.22 280.109L1486.14 260.324ZM1488.13 260.549L1486.57 280.487L1506.51 282.05L1508.07 262.111L1488.13 260.549ZM1492.7 202.283L1512.64 203.845L1514.2 183.907L1494.26 182.344L1492.7 202.283ZM1488.18 224.548C1488.91 224.309 1489.68 224.19 1490.45 224.194L1490.64 184.194C1485.61 184.171 1480.6 184.95 1475.81 186.51L1488.18 224.548ZM1485.72 225.926C1486.44 225.309 1487.28 224.841 1488.18 224.548L1475.81 186.51C1469.91 188.428 1464.45 191.489 1459.74 195.518L1485.72 225.926ZM1483.98 228.139C1484.41 227.294 1485 226.542 1485.72 225.926L1459.74 195.518C1455.02 199.547 1451.15 204.465 1448.33 209.992L1483.98 228.139ZM1483.22 230.852C1483.29 229.906 1483.55 228.984 1483.98 228.139L1448.33 209.992C1445.52 215.518 1443.82 221.544 1443.34 227.727L1483.22 230.852ZM1483.55 233.65C1483.25 232.748 1483.14 231.797 1483.22 230.852L1443.34 227.727C1442.85 233.909 1443.59 240.126 1445.51 246.023L1483.55 233.65ZM1484.93 236.108C1484.31 235.387 1483.84 234.552 1483.55 233.65L1445.51 246.023C1447.43 251.92 1450.49 257.382 1454.52 262.096L1484.93 236.108ZM1487.14 237.852C1486.29 237.421 1485.54 236.829 1484.93 236.108L1454.52 262.096C1458.55 266.81 1463.47 270.685 1468.99 273.498L1487.14 237.852ZM1489.32 238.555C1488.56 238.439 1487.83 238.202 1487.14 237.852L1468.99 273.498C1473.48 275.786 1478.31 277.335 1483.28 278.095L1489.32 238.555ZM1490.89 182.196C1485.57 182.144 1480.27 182.957 1475.19 184.608L1487.56 222.646C1488.51 222.337 1489.51 222.184 1490.51 222.194L1490.89 182.196ZM1475.19 184.608C1469.04 186.607 1463.35 189.798 1458.44 193.998L1484.42 224.405C1485.34 223.618 1486.41 223.021 1487.56 222.646L1475.19 184.608ZM1458.44 193.998C1453.52 198.197 1449.48 203.324 1446.55 209.084L1482.2 227.232C1482.75 226.153 1483.5 225.192 1484.42 224.405L1458.44 193.998ZM1446.55 209.084C1443.62 214.845 1441.85 221.126 1441.34 227.57L1481.22 230.695C1481.32 229.488 1481.65 228.311 1482.2 227.232L1446.55 209.084ZM1441.34 227.57C1440.84 234.015 1441.61 240.495 1443.61 246.642L1481.65 234.268C1481.27 233.117 1481.13 231.903 1481.22 230.695L1441.34 227.57ZM1443.61 246.642C1445.61 252.789 1448.8 258.482 1453 263.396L1483.41 237.407C1482.62 236.487 1482.02 235.42 1481.65 234.268L1443.61 246.642ZM1453 263.396C1457.2 268.309 1462.32 272.348 1468.08 275.28L1486.23 239.634C1485.15 239.085 1484.19 238.328 1483.41 237.407L1453 263.396ZM1468.08 275.28C1472.84 277.702 1477.95 279.331 1483.22 280.109L1489.07 240.539C1488.08 240.393 1487.12 240.088 1486.23 239.634L1468.08 275.28ZM1483.22 280.109C1484.33 280.273 1485.45 280.399 1486.57 280.487L1489.7 240.61C1489.48 240.593 1489.28 240.569 1489.07 240.539L1483.22 280.109ZM1494.26 182.344C1493.14 182.256 1492.02 182.207 1490.89 182.196L1490.51 222.194C1490.72 222.196 1490.93 222.205 1491.14 222.222L1494.26 182.344ZM1470.6 202.632L1466.36 256.763L1506.24 259.887L1510.48 205.756L1470.6 202.632ZM1508.07 262.111L1512.64 203.845L1472.76 200.721L1468.19 258.986L1508.07 262.111Z" fill="white" mask="url(#path-68-inside-3_1067_301)"/>
<path d="M1495.5 264.5L1486 262L1489.38 202C1486.09 201 1477.1 201.7 1467.5 212.5C1457.9 223.3 1459.17 234 1461 238C1459.33 237.5 1455.7 236 1454.5 234C1453 231.5 1446 205.5 1467.5 179.5C1489 153.5 1510.5 135 1593.5 137C1659.9 138.6 1701.83 179.333 1714.5 199.5C1718.17 206.167 1724.2 223 1719 237C1713.8 251 1682.17 256.5 1667 257.5C1667.17 256.833 1667.4 252.9 1667 242.5C1666.6 232.1 1661.17 225.891 1658.5 224.086C1644.53 225.477 1624.22 226.436 1598 225.5C1570.24 224.508 1543.98 214.248 1524.5 203.573L1495.5 264.5Z" fill="#454545"/>
<path d="M1524.5 203.573L1495.5 264.5L1486 262L1489.38 202M1524.5 203.573C1512.55 197.023 1503.14 190.317 1497.5 185.5M1524.5 203.573C1543.98 214.248 1570.24 224.508 1598 225.5C1624.22 226.436 1644.53 225.477 1658.5 224.086M1658.5 224.086C1668.4 223.101 1675.11 221.898 1678.5 221L1658.5 224.086ZM1658.5 224.086C1661.17 225.891 1666.6 232.1 1667 242.5C1667.4 252.9 1667.17 256.833 1667 257.5C1682.17 256.5 1713.8 251 1719 237C1724.2 223 1718.17 206.167 1714.5 199.5C1701.83 179.333 1659.9 138.6 1593.5 137C1510.5 135 1489 153.5 1467.5 179.5C1446 205.5 1453 231.5 1454.5 234C1455.7 236 1459.33 237.5 1461 238C1459.17 234 1457.9 223.3 1467.5 212.5C1477.1 201.7 1486.09 201 1489.38 202M1490 191L1489.38 202" stroke="white" stroke-width="20"/>
<path fill-rule="evenodd" clip-rule="evenodd" d="M1507.06 146.826C1525.68 139.124 1551.96 134.999 1593.52 136C1660.33 137.61 1702.54 178.581 1715.35 198.968L1715.36 198.993L1715.38 199.018C1717.26 202.438 1719.72 208.411 1721.06 215.31C1722.39 222.204 1722.62 230.114 1719.94 237.348C1718.53 241.136 1715.38 244.254 1711.35 246.813C1707.31 249.377 1702.31 251.44 1697.03 253.08C1686.49 256.359 1674.7 257.994 1667.07 258.498L1665.7 258.588L1666.03 257.257C1666.03 257.258 1666.03 257.256 1666.03 257.252L1666.03 257.237C1666.04 257.223 1666.04 257.204 1666.04 257.179C1666.05 257.13 1666.06 257.064 1666.07 256.979C1666.09 256.809 1666.11 256.577 1666.13 256.275C1666.17 255.672 1666.2 254.81 1666.21 253.638C1666.24 251.293 1666.2 247.728 1666 242.538C1665.63 232.849 1660.74 227.001 1658.23 225.118C1644.22 226.494 1624 227.429 1597.96 226.499C1570.43 225.516 1544.41 215.492 1524.95 204.956L1496.05 265.678L1484.96 262.759L1488.33 202.786C1484.94 202.234 1476.94 203.385 1468.25 213.164C1458.92 223.662 1460.24 233.937 1461.91 237.583L1462.83 239.593L1460.71 238.958C1459.82 238.691 1458.43 238.166 1457.1 237.441C1455.8 236.736 1454.39 235.755 1453.64 234.515C1453.38 234.086 1453.08 233.301 1452.79 232.288C1452.48 231.245 1452.16 229.883 1451.89 228.25C1451.34 224.983 1451 220.605 1451.38 215.488C1452.14 205.244 1455.83 192.041 1466.73 178.863C1477.52 165.816 1488.39 154.543 1507.06 146.826ZM1488.45 200.78L1489 190.944L1491 191.056L1487.04 261.241L1494.95 263.322L1523.19 203.994C1511.58 197.561 1502.42 191.015 1496.85 186.26L1498.15 184.739C1503.73 189.506 1513.08 196.175 1524.98 202.696C1544.38 213.327 1570.48 223.517 1598.04 224.501C1624.2 225.435 1644.45 224.479 1658.37 223.094L1678.35 220.012L1678.76 221.967C1675.57 222.811 1669.59 223.901 1660.93 224.839C1663.9 227.812 1667.66 233.738 1668 242.462C1668.2 247.672 1668.24 251.274 1668.21 253.662C1668.2 254.856 1668.16 255.753 1668.12 256.4C1668.12 256.406 1668.12 256.411 1668.12 256.417C1675.65 255.836 1686.61 254.226 1696.44 251.17C1701.62 249.56 1706.45 247.56 1710.28 245.125C1714.12 242.683 1716.87 239.864 1718.06 236.652C1720.58 229.885 1720.39 222.38 1719.09 215.69C1717.8 209.022 1715.42 203.258 1713.64 200.007C1701.09 180.052 1659.44 139.589 1593.48 138C1552.03 137.001 1526.07 141.126 1507.82 148.674C1489.61 156.207 1478.98 167.184 1468.27 180.137C1457.67 192.959 1454.11 205.756 1453.37 215.637C1453 220.582 1453.34 224.799 1453.86 227.922C1454.12 229.484 1454.42 230.767 1454.71 231.726C1454.99 232.714 1455.24 233.289 1455.36 233.486C1455.81 234.245 1456.82 235.014 1458.05 235.684C1458.49 235.92 1458.93 236.133 1459.36 236.32C1457.97 231.084 1458.2 221.451 1466.75 211.836C1475.6 201.882 1484.11 200.167 1488.45 200.78Z" fill="black" stroke="white" stroke-width="20"/>
<path d="M1684 923.5L1674 905L1721.5 856L1751.5 890L1757.5 898L1684 923.5Z" fill="#AEAEAE"/>
<path d="M1605 1022L1591 996L1680.5 963.5L1692.5 992L1605 1022Z" fill="#AEAEAE"/>
<path d="M1612 660L1448 602.5V683.5L1569 730.5L1658.5 926L1744 871L1612 660Z" fill="#535353" stroke="black" stroke-width="2"/>
<path d="M1253.5 746L1232.5 611H1304.5L1577 723L1693.5 977.5L1583.5 1011L1475 781L1253.5 746Z" fill="#535353" stroke="black" stroke-width="2"/>
<path d="M1531.34 646.817L1528.03 645.161L1527.1 648.744L1514.6 696.744L1513.93 699.312L1516.4 700.289C1529.25 705.381 1548.86 712.896 1565.93 718.893C1574.46 721.889 1582.39 724.521 1588.54 726.283C1591.61 727.161 1594.3 727.841 1596.42 728.237C1597.48 728.435 1598.46 728.574 1599.32 728.622C1600.07 728.664 1601.12 728.667 1602.08 728.3C1604.07 727.535 1605.75 726.01 1605.94 723.61C1606.08 721.654 1605.12 719.906 1604.28 718.709C1603.22 717.21 1601.73 715.724 1600.23 714.425C1600.85 713.328 1601.4 711.957 1601.87 710.362C1602.95 706.785 1601.07 703.922 1599.27 702.204C1599.21 702.15 1599.16 702.097 1599.1 702.044C1600.85 700.298 1602 697.652 1602 694C1602 691.757 1600.68 689.699 1599.32 688.071C1597.86 686.322 1595.83 684.475 1593.46 682.59C1588.71 678.808 1582.2 674.571 1575.04 670.299C1560.69 661.739 1543.35 652.823 1531.34 646.817Z" fill="#AEAEAE" stroke="white" stroke-width="6"/>
<path d="M1713 361.5C1711.67 387 1709 439.9 1709 447.5L1704 484L1700 496L1631 501L1639.5 390.5L1707 353L1713 361.5Z" fill="#535353"/>
<path d="M1713 361.5C1711.67 387 1709 439.9 1709 447.5L1704 484M1713 361.5L1707 353L1639.5 390.5M1713 361.5L1647 395.5M1639.5 390.5L1631 501M1639.5 390.5L1647 395.5M1631 501L1700 496L1704 484M1631 501L1639.5 492.5M1704 484L1639.5 492.5M1639.5 492.5L1647 395.5" stroke="black" stroke-width="2"/>
<path d="M1644.5 486.5C1638.9 488.9 1640.17 497.833 1642.5 501C1644.67 512 1649.5 534.4 1651.5 536C1653.5 537.6 1680 532 1693 529C1697.33 519.667 1706.8 498.9 1710 490.5C1714 480 1715 448.5 1714 435C1713 421.5 1704 411 1691 412.5C1680.6 413.7 1685 424.667 1688.5 430C1686.17 427.333 1679.2 422.9 1670 426.5C1660.8 430.1 1666.17 442 1670 447.5C1669.33 446.666 1666.6 445.5 1661 447.5C1655.4 449.5 1657 458.333 1658.5 462.5C1657.67 462 1654.6 461.8 1649 465C1643.4 468.2 1650 482 1654 488.5C1652.5 487.5 1650.1 484.1 1644.5 486.5Z" fill="#AEAEAE"/>
<path d="M1622.5 640.5L1514.5 470L1597.5 422L1645.5 556.5L1622.5 640.5Z" fill="#937725" stroke="black" stroke-width="2"/>
<path d="M1290.5 417C1330.84 358.153 1391.17 327.333 1419 321C1424.17 339.833 1438.8 383.1 1456 405.5C1473.2 427.9 1555.5 429.833 1594.5 428C1574 441.5 1526.6 475.7 1501 504.5C1475.4 533.3 1448.67 607.167 1438.5 640.5C1439 644 1424.1 651.2 1360.5 652C1298.03 652.786 1250.22 644.792 1230.07 616.551C1229.36 615.564 1229.09 614.352 1229.24 613.148C1234.2 572.816 1225.01 512.527 1290.5 417Z" fill="#BF9B30" stroke="black" stroke-width="2"/>
<path d="M1461 290.5L1448.5 292C1439.33 301.667 1420.8 321.4 1420 323C1419 325 1469.5 408 1471 409.5C1472.5 411 1560.5 432.5 1569 431C1577.5 429.5 1591 407 1590.5 399.5C1590 392 1570.5 369.5 1560.5 351C1552.5 336.2 1490.83 304.5 1461 290.5Z" fill="#886E22" stroke="black"/>
<path d="M1455 320.5L1462 288L1528 347.5L1521.5 373.5C1519.5 379.456 1504 374.144 1494 368.544C1484 362.944 1464.33 334.5 1455 320.5Z" fill="white"/>
<path d="M1494 356C1482.76 346.844 1463.67 324.5 1456.5 313L1445.5 343.5C1441.67 344.833 1435.1 353.9 1439.5 379.5C1443.9 405.1 1486.67 416.833 1507.5 419.5L1521.5 372.5C1517.67 369.833 1507.5 367 1494 356Z" fill="#AEAEAE"/>
<path d="M1467 385.5C1434.6 355.1 1445.17 310 1454 291.5C1447.33 289 1429 288.5 1413 304.5C1393 324.5 1393 344 1399 368.5C1405 393 1434 414 1459.5 425.5C1485 437 1535 438.5 1567 440.5C1599 442.5 1614 406.5 1614 383C1614 359.5 1598 360.5 1594 359C1590.8 357.8 1580.33 367.167 1575.5 372C1576.33 376.5 1578 389.3 1578 404.5C1578 419.7 1557.49 426.167 1547.23 427.5C1522.29 420.269 1489.78 406.871 1467 385.5Z" fill="#BF9B30"/>
<path d="M1573.5 433.5C1566.96 432.51 1557.78 430.555 1547.23 427.5M1547.23 427.5C1522.29 420.269 1489.78 406.871 1467 385.5C1434.6 355.1 1445.17 310 1454 291.5C1447.33 289 1429 288.5 1413 304.5C1393 324.5 1393 344 1399 368.5C1405 393 1434 414 1459.5 425.5C1485 437 1535 438.5 1567 440.5C1599 442.5 1614 406.5 1614 383C1614 359.5 1598 360.5 1594 359C1590.8 357.8 1580.33 367.167 1575.5 372C1576.33 376.5 1578 389.3 1578 404.5C1578 419.7 1557.49 426.167 1547.23 427.5Z" stroke="black" stroke-width="2"/>
<path d="M1454 291C1447.6 278.6 1456.67 235.5 1462 215.5C1470.33 205.333 1490.8 184 1506 180C1525 175 1617 191 1656.5 198.5C1688.1 204.5 1679.67 236 1671.5 251C1665.5 266.167 1651.7 299.7 1644.5 312.5C1635.5 328.5 1593 381 1566.5 384C1540 387 1462 306.5 1454 291Z" fill="#AEAEAE"/>
<path d="M1638.5 268.5C1627 266.5 1621 273.5 1617 278C1618.5 280 1619.49 285.998 1631 289C1642.5 292 1650 286 1652.5 282C1652.33 279.167 1649.85 270.473 1638.5 268.5Z" fill="white" stroke="black" stroke-width="2"/>
<ellipse cx="1635.5" cy="282" rx="8.5" ry="8" fill="black"/>
<path d="M1562.5 237C1544 226.5 1530.5 232 1524 238C1525 241.333 1525.91 253.753 1540 262C1560.5 274 1571.67 271.667 1581 269.5C1581.17 264.333 1580.24 247.068 1562.5 237Z" fill="white" stroke="black" stroke-width="2"/>
<ellipse cx="1558.59" cy="257.797" rx="13.5" ry="12.2085" transform="rotate(7.17016 1558.59 257.797)" fill="black"/>
<path d="M1320 441C1320 460.127 1321.08 566.498 1325.89 624.184C1326.24 628.374 1329 631.936 1332.93 633.411L1524 705L1534.5 641L1400 580.5L1412 441C1414.5 418.5 1402 385.4 1374 387C1339 389 1320 415 1320 441Z" fill="#BF9B30" stroke="black" stroke-width="2"/>
<path d="M1624.22 576.44C1629.18 549.644 1635.63 518.869 1640.49 497.818C1643.87 502.116 1649.36 507.739 1655.85 512.176C1663.23 517.223 1672.11 520.865 1680.71 518.977C1692.82 516.32 1701.02 507.881 1705.64 500.74L1676.03 625.768C1673.61 635.917 1666.51 642.467 1660.43 646.678C1659.04 647.64 1656.19 648.825 1652.49 649.62C1648.82 650.41 1644.39 650.796 1639.87 650.233C1630.89 649.114 1621.55 644.252 1616.94 631.168C1616.82 630.815 1616.72 630.136 1616.69 629.066C1616.66 628.024 1616.7 626.699 1616.8 625.113C1617.01 621.942 1617.48 617.788 1618.15 612.879C1619.49 603.064 1621.66 590.289 1624.22 576.44Z" fill="#BF9B30" stroke="black" stroke-width="2"/>
<ellipse cx="1678" cy="402.5" rx="7" ry="8.5" fill="black"/>
<path d="M1625 1064L1600.5 1013.5L1627.13 1003.69C1628.33 1003.25 1629.65 1003.28 1630.83 1003.78L1639.5 1007.5L1692.5 987.5C1714.17 994.5 1760.7 1010 1773.5 1016C1786.3 1022 1782.83 1039.17 1779.5 1047L1625 1064Z" fill="#BF9B30" stroke="black" stroke-width="2"/>
<path d="M1694 1020C1687.83 1017.05 1697.33 1000 1703 991.5L1717.5 996C1712.33 1005 1705.5 1025.5 1694 1020Z" fill="#D9D9D9"/>
<path d="M1718.5 1023.5C1712.33 1020.55 1719.34 1007.5 1725.01 999L1739.51 1003.5C1734.34 1012.5 1728 1028.04 1718.5 1023.5Z" fill="#D9D9D9"/>
<path d="M1741 1026.5C1736.16 1024.19 1741.19 1011.64 1745.63 1005L1757.5 1010C1753.45 1017.04 1750.02 1030.8 1741 1026.5Z" fill="#D9D9D9"/>
<path d="M1625 1064L1600.5 1013.5L1627.13 1003.69C1628.33 1003.25 1629.65 1003.28 1630.83 1003.78L1639.5 1007.5L1692.5 987.5C1714.17 994.5 1760.7 1010 1773.5 1016C1786.3 1022 1782.83 1039.17 1779.5 1047L1625 1064Z" stroke="black" stroke-width="2"/>
<path d="M1714 968L1679.5 917L1716 897L1728.5 901C1742.17 889.167 1775.7 864.2 1800.5 859C1825.3 853.8 1838.83 879.5 1842.5 893L1714 968Z" fill="#B8962E" stroke="black" stroke-width="2"/>
<path d="M1772.5 901.5C1767.53 903.985 1758.67 889.167 1755 881.5L1764 876C1768.83 883.333 1780.5 897.5 1772.5 901.5Z" fill="#D9D9D9"/>
<path d="M1787 893C1782.03 895.485 1774.17 879.167 1770.5 871.5L1780 866C1784.83 873.333 1795 889 1787 893Z" fill="#D9D9D9"/>
<path d="M1803.5 887C1798.53 889.485 1789.67 872.167 1786 864.5L1796.5 860C1801.33 867.333 1811.5 883 1803.5 887Z" fill="#D9D9D9"/>
<path d="M1714 968L1679.5 917L1716 897L1728.5 901C1742.17 889.167 1775.7 864.2 1800.5 859C1825.3 853.8 1838.83 879.5 1842.5 893L1714 968Z" stroke="black" stroke-width="2"/>
<path d="M1540.5 350.5C1527.7 339.3 1528 318.167 1531.5 310.5C1539.83 316.667 1559.4 330.7 1569 337.5C1578.6 344.3 1581.33 353.667 1581.5 357.5C1572.16 358.833 1553.3 361.7 1540.5 350.5Z" fill="white"/>
<path d="M1529.5 298.5C1529.83 310.167 1534.4 336 1550 346C1565.6 356 1582.83 357.5 1589.5 357" stroke="black" stroke-width="2" stroke-linecap="round"/>
<path d="M1566 322C1572.17 329.333 1588.1 343.9 1602.5 343.5C1616.9 343.1 1612.83 302.333 1609 282" stroke="black" stroke-width="2" stroke-linecap="round"/>
<mask id="path-109-inside-4_1067_301" fill="white">
<path d="M1492.7 202.283C1488.87 201.983 1485.03 202.44 1481.38 203.627C1477.73 204.814 1474.35 206.708 1471.43 209.202C1468.51 211.695 1466.12 214.738 1464.37 218.158C1462.63 221.578 1461.58 225.307 1461.28 229.133C1460.98 232.959 1461.44 236.806 1462.63 240.455C1463.81 244.105 1465.71 247.484 1468.2 250.401C1470.69 253.319 1473.74 255.716 1477.16 257.457C1480.58 259.198 1484.31 260.249 1488.13 260.549L1490.42 231.416L1492.7 202.283Z"/>
</mask>
<path d="M1492.7 202.283C1488.87 201.983 1485.03 202.44 1481.38 203.627C1477.73 204.814 1474.35 206.708 1471.43 209.202C1468.51 211.695 1466.12 214.738 1464.37 218.158C1462.63 221.578 1461.58 225.307 1461.28 229.133C1460.98 232.959 1461.44 236.806 1462.63 240.455C1463.81 244.105 1465.71 247.484 1468.2 250.401C1470.69 253.319 1473.74 255.716 1477.16 257.457C1480.58 259.198 1484.31 260.249 1488.13 260.549L1490.42 231.416L1492.7 202.283Z" fill="#D9D9D9" stroke="white" stroke-width="4" mask="url(#path-109-inside-4_1067_301)"/>
<path d="M1495.5 264.5L1486 262L1489.38 202C1486.09 201 1477.1 201.7 1467.5 212.5C1457.9 223.3 1459.17 234 1461 238C1459.33 237.5 1455.7 236 1454.5 234C1453 231.5 1446 205.5 1467.5 179.5C1489 153.5 1510.5 135 1593.5 137C1659.9 138.6 1701.83 179.333 1714.5 199.5C1718.17 206.167 1724.2 223 1719 237C1713.8 251 1682.17 256.5 1667 257.5C1667.17 256.833 1667.4 252.9 1667 242.5C1666.6 232.1 1661.17 225.891 1658.5 224.086C1644.53 225.477 1624.22 226.436 1598 225.5C1570.24 224.508 1543.98 214.248 1524.5 203.573L1495.5 264.5Z" fill="#454545"/>
<path d="M1490 191L1489.38 202M1524.5 203.573L1495.5 264.5L1486 262L1489.38 202M1497.5 185.5C1512.33 198.167 1553.2 223.9 1598 225.5C1624.22 226.436 1644.53 225.477 1658.5 224.086M1658.5 224.086C1668.4 223.101 1675.11 221.898 1678.5 221L1658.5 224.086ZM1658.5 224.086C1661.17 225.891 1666.6 232.1 1667 242.5C1667.4 252.9 1667.17 256.833 1667 257.5C1682.17 256.5 1713.8 251 1719 237C1724.2 223 1718.17 206.167 1714.5 199.5C1701.83 179.333 1659.9 138.6 1593.5 137C1510.5 135 1489 153.5 1467.5 179.5C1446 205.5 1453 231.5 1454.5 234C1455.7 236 1459.33 237.5 1461 238C1459.17 234 1457.9 223.3 1467.5 212.5C1477.1 201.7 1486.09 201 1489.38 202" stroke="black" stroke-width="2"/>
<circle cx="1739.5" cy="1541.5" r="130.5" fill="#BF9B30"/>
<circle cx="1869.5" cy="1345.5" r="65.5" fill="#BF9B30"/>
<circle cx="130.5" cy="130.5" r="130.5" transform="matrix(1 0 0 -1 115 1150)" fill="#BF9B30"/>
<circle cx="65.5" cy="65.5" r="65.5" transform="matrix(1 0 0 -1 293 1297)" fill="#BF9B30"/>
<circle cx="130.5" cy="130.5" r="123" transform="matrix(1 0 0 -1 136 1119)" stroke="white" stroke-width="15"/>
<circle cx="65.5" cy="65.5" r="58" transform="matrix(1 0 0 -1 314 1266)" stroke="white" stroke-width="15"/>
<rect x="1425" y="1182" width="377.576" height="73.141" rx="36.5705" fill="#FFF1C9"/>
<rect x="1492.42" y="1271.86" width="377.576" height="73.141" rx="36.5705" fill="#FFF1C9"/>
<path d="M1533.45 1266.32C1531.69 1256.06 1515.67 1255.6 1503.66 1253.15L1786.21 1249.92C1780.12 1250.06 1764.85 1260.62 1764.85 1266.32C1764.85 1284.74 1808.12 1276.42 1786.33 1281.26H1520.62C1523.39 1279.42 1535.36 1277.38 1533.45 1266.32Z" fill="#FFF1C9"/>
<rect width="441.212" height="59.2308" rx="29.6154" transform="matrix(-1 0 0 1 756 1411)" fill="#FFF1C9"/>
<rect width="284" height="37" rx="18.5" transform="matrix(-1 0 0 1 756 1574)" fill="#FFF1C9"/>
<rect width="441.212" height="59.2308" rx="29.6154" transform="matrix(-1 0 0 1 677.213 1483.77)" fill="#FFF1C9"/>
<path d="M629.269 1479.28C631.333 1470.97 650.048 1470.61 664.08 1468.62L333.914 1466C341.027 1466.11 358.875 1474.67 358.875 1479.28C358.875 1494.2 308.306 1487.46 333.776 1491.38H644.27C641.032 1489.89 627.044 1488.24 629.269 1479.28Z" fill="#FFF1C9"/>
<path d="M418.076 270.705C414.381 270.388 411.326 268.819 408.91 265.996C406.494 263.174 405.467 259.899 405.828 256.171C406.101 252.517 407.668 249.505 410.53 247.135C413.392 244.766 416.671 243.739 420.365 244.056C423.938 244.362 426.932 245.927 429.348 248.749C431.805 251.575 432.897 254.814 432.624 258.468C432.371 260.939 431.528 263.135 430.095 265.055C428.703 266.978 426.939 268.462 424.805 269.504C422.714 270.51 420.471 270.91 418.076 270.705Z" fill="#BF9B30"/>
<path d="M484.965 276.44C481.271 276.124 478.215 274.554 475.799 271.732C473.383 268.91 472.356 265.634 472.717 261.906C472.99 258.252 474.558 255.24 477.42 252.871C480.282 250.501 483.56 249.475 487.254 249.791C490.827 250.098 493.822 251.662 496.238 254.484C498.694 257.31 499.786 260.55 499.513 264.204C499.26 266.675 498.417 268.87 496.984 270.79C495.592 272.714 493.828 274.197 491.694 275.24C489.603 276.246 487.361 276.646 484.965 276.44Z" fill="#BF9B30"/>
<path d="M551.854 282.176C548.16 281.859 545.104 280.289 542.689 277.467C540.273 274.645 539.245 271.37 539.606 267.642C539.879 263.988 541.447 260.976 544.309 258.606C547.171 256.236 550.449 255.21 554.144 255.527C557.716 255.833 560.711 257.397 563.127 260.22C565.583 263.045 566.675 266.285 566.402 269.939C566.149 272.41 565.306 274.605 563.873 276.526C562.481 278.449 560.718 279.932 558.583 280.975C556.493 281.981 554.25 282.381 551.854 282.176Z" fill="#BF9B30"/>
<path d="M618.744 287.911C615.049 287.594 611.994 286.025 609.578 283.203C607.162 280.38 606.134 277.105 606.496 273.377C606.769 269.723 608.336 266.711 611.198 264.341C614.06 261.972 617.338 260.945 621.033 261.262C624.606 261.569 627.6 263.133 630.016 265.955C632.473 268.781 633.564 272.021 633.291 275.675C633.038 278.145 632.195 280.341 630.762 282.261C629.37 284.185 627.607 285.668 625.472 286.711C623.382 287.716 621.139 288.116 618.744 287.911Z" fill="#BF9B30"/>
<path d="M685.633 293.646C681.938 293.33 678.883 291.76 676.467 288.938C674.051 286.116 673.024 282.841 673.385 279.112C673.658 275.458 675.225 272.446 678.087 270.077C680.949 267.707 684.228 266.681 687.922 266.998C691.495 267.304 694.489 268.868 696.905 271.69C699.362 274.516 700.454 277.756 700.181 281.41C699.927 283.881 699.084 286.076 697.652 287.996C696.259 289.92 694.496 291.403 692.362 292.446C690.271 293.452 688.028 293.852 685.633 293.646Z" fill="#BF9B30"/>
<path d="M752.522 299.382C748.827 299.065 745.772 297.496 743.356 294.673C740.94 291.851 739.913 288.576 740.274 284.848C740.547 281.194 742.114 278.182 744.976 275.812C747.838 273.443 751.117 272.416 754.811 272.733C758.384 273.039 761.379 274.604 763.794 277.426C766.251 280.251 767.343 283.491 767.07 287.145C766.817 289.616 765.974 291.812 764.541 293.732C763.149 295.655 761.385 297.139 759.251 298.181C757.16 299.187 754.917 299.587 752.522 299.382Z" fill="#BF9B30"/>
<path d="M819.411 305.117C815.717 304.8 812.661 303.231 810.245 300.409C807.829 297.586 806.802 294.311 807.163 290.583C807.436 286.929 809.004 283.917 811.866 281.548C814.728 279.178 818.006 278.151 821.701 278.468C825.273 278.775 828.268 280.339 830.684 283.161C833.14 285.987 834.232 289.227 833.959 292.881C833.706 295.351 832.863 297.547 831.43 299.467C830.038 301.391 828.275 302.874 826.14 303.917C824.05 304.922 821.807 305.323 819.411 305.117Z" fill="#BF9B30"/>
<path d="M412.924 330.671C409.23 330.354 406.175 328.785 403.759 325.963C401.343 323.14 400.315 319.865 400.676 316.137C400.949 312.483 402.517 309.471 405.379 307.101C408.241 304.732 411.519 303.705 415.214 304.022C418.787 304.328 421.781 305.893 424.197 308.715C426.653 311.541 427.745 314.781 427.472 318.435C427.219 320.905 426.376 323.101 424.943 325.021C423.551 326.945 421.788 328.428 419.653 329.471C417.563 330.476 415.32 330.876 412.924 330.671Z" fill="#BF9B30"/>
<path d="M479.814 336.406C476.119 336.09 473.064 334.52 470.648 331.698C468.232 328.876 467.204 325.601 467.566 321.872C467.839 318.218 469.406 315.206 472.268 312.837C475.13 310.467 478.408 309.441 482.103 309.758C485.676 310.064 488.67 311.628 491.086 314.45C493.543 317.276 494.634 320.516 494.361 324.17C494.108 326.641 493.265 328.836 491.833 330.756C490.44 332.68 488.677 334.163 486.542 335.206C484.452 336.212 482.209 336.612 479.814 336.406Z" fill="#BF9B30"/>
<path d="M546.703 342.142C543.008 341.825 539.953 340.256 537.537 337.433C535.121 334.611 534.094 331.336 534.455 327.608C534.728 323.954 536.295 320.942 539.157 318.572C542.019 316.203 545.298 315.176 548.992 315.493C552.565 315.799 555.559 317.364 557.975 320.186C560.432 323.011 561.524 326.251 561.251 329.905C560.998 332.376 560.155 334.572 558.722 336.492C557.33 338.415 555.566 339.899 553.432 340.941C551.341 341.947 549.098 342.347 546.703 342.142Z" fill="#BF9B30"/>
<path d="M613.592 347.877C609.898 347.56 606.842 345.991 604.426 343.169C602.01 340.346 600.983 337.071 601.344 333.343C601.617 329.689 603.185 326.677 606.047 324.308C608.909 321.938 612.187 320.911 615.881 321.228C619.454 321.535 622.449 323.099 624.865 325.921C627.321 328.747 628.413 331.987 628.14 335.641C627.887 338.111 627.044 340.307 625.611 342.227C624.219 344.151 622.455 345.634 620.321 346.677C618.23 347.682 615.987 348.083 613.592 347.877Z" fill="#BF9B30"/>
<path d="M680.481 353.613C676.787 353.296 673.731 351.726 671.315 348.904C668.899 346.082 667.872 342.807 668.233 339.078C668.506 335.424 670.074 332.413 672.936 330.043C675.798 327.673 679.076 326.647 682.771 326.964C686.343 327.27 689.338 328.834 691.754 331.656C694.21 334.482 695.302 337.722 695.029 341.376C694.776 343.847 693.933 346.042 692.5 347.962C691.108 349.886 689.345 351.369 687.21 352.412C685.12 353.418 682.877 353.818 680.481 353.613Z" fill="#BF9B30"/>
<path d="M747.371 359.348C743.676 359.031 740.621 357.462 738.205 354.639C735.789 351.817 734.761 348.542 735.122 344.814C735.395 341.16 736.963 338.148 739.825 335.778C742.687 333.409 745.965 332.382 749.66 332.699C753.233 333.005 756.227 334.57 758.643 337.392C761.1 340.218 762.191 343.457 761.918 347.111C761.665 349.582 760.822 351.778 759.389 353.698C757.997 355.621 756.234 357.105 754.099 358.147C752.009 359.153 749.766 359.553 747.371 359.348Z" fill="#BF9B30"/>
<path d="M814.26 365.083C810.565 364.767 807.51 363.197 805.094 360.375C802.678 357.553 801.651 354.277 802.012 350.549C802.285 346.895 803.852 343.883 806.714 341.514C809.576 339.144 812.855 338.118 816.549 338.434C820.122 338.741 823.116 340.305 825.532 343.127C827.989 345.953 829.081 349.193 828.808 352.847C828.554 355.318 827.711 357.513 826.279 359.433C824.886 361.357 823.123 362.84 820.989 363.883C818.898 364.889 816.655 365.289 814.26 365.083Z" fill="#BF9B30"/>
<path d="M407.773 390.637C404.078 390.32 401.023 388.751 398.607 385.929C396.191 383.106 395.164 379.831 395.525 376.103C395.798 372.449 397.365 369.437 400.227 367.068C403.089 364.698 406.368 363.671 410.062 363.988C413.635 364.295 416.629 365.859 419.045 368.681C421.502 371.507 422.594 374.747 422.321 378.401C422.068 380.871 421.225 383.067 419.792 384.987C418.4 386.911 416.636 388.394 414.502 389.437C412.411 390.442 410.168 390.843 407.773 390.637Z" fill="#BF9B30"/>
<path d="M474.662 396.373C470.968 396.056 467.912 394.486 465.496 391.664C463.08 388.842 462.053 385.567 462.414 381.838C462.687 378.184 464.255 375.173 467.117 372.803C469.979 370.433 473.257 369.407 476.951 369.724C480.524 370.03 483.519 371.594 485.935 374.416C488.391 377.242 489.483 380.482 489.21 384.136C488.957 386.607 488.114 388.802 486.681 390.722C485.289 392.646 483.525 394.129 481.391 395.172C479.3 396.178 477.058 396.578 474.662 396.373Z" fill="#BF9B30"/>
<path d="M541.551 402.108C537.857 401.791 534.802 400.222 532.386 397.399C529.97 394.577 528.942 391.302 529.303 387.574C529.576 383.92 531.144 380.908 534.006 378.538C536.868 376.169 540.146 375.142 543.841 375.459C547.413 375.765 550.408 377.33 552.824 380.152C555.28 382.978 556.372 386.217 556.099 389.871C555.846 392.342 555.003 394.538 553.57 396.458C552.178 398.381 550.415 399.865 548.28 400.907C546.19 401.913 543.947 402.313 541.551 402.108Z" fill="#BF9B30"/>
<path d="M608.441 407.843C604.746 407.526 601.691 405.957 599.275 403.135C596.859 400.313 595.831 397.037 596.193 393.309C596.466 389.655 598.033 386.643 600.895 384.274C603.757 381.904 607.035 380.878 610.73 381.194C614.303 381.501 617.297 383.065 619.713 385.887C622.17 388.713 623.261 391.953 622.988 395.607C622.735 398.078 621.892 400.273 620.459 402.193C619.067 404.117 617.304 405.6 615.169 406.643C613.079 407.649 610.836 408.049 608.441 407.843Z" fill="#BF9B30"/>
<path d="M675.33 413.579C671.635 413.262 668.58 411.692 666.164 408.87C663.748 406.048 662.721 402.773 663.082 399.045C663.355 395.391 664.922 392.379 667.784 390.009C670.646 387.639 673.925 386.613 677.619 386.93C681.192 387.236 684.186 388.8 686.602 391.623C689.059 394.448 690.151 397.688 689.878 401.342C689.625 403.813 688.782 406.008 687.349 407.929C685.956 409.852 684.193 411.335 682.059 412.378C679.968 413.384 677.725 413.784 675.33 413.579Z" fill="#BF9B30"/>
<path d="M742.219 419.314C738.524 418.997 735.469 417.428 733.053 414.606C730.637 411.783 729.61 408.508 729.971 404.78C730.244 401.126 731.812 398.114 734.674 395.744C737.536 393.375 740.814 392.348 744.508 392.665C748.081 392.971 751.076 394.536 753.492 397.358C755.948 400.184 757.04 403.424 756.767 407.078C756.514 409.548 755.671 411.744 754.238 413.664C752.846 415.588 751.082 417.071 748.948 418.114C746.857 419.119 744.614 419.519 742.219 419.314Z" fill="#BF9B30"/>
<path d="M809.108 425.049C805.414 424.733 802.358 423.163 799.942 420.341C797.526 417.519 796.499 414.243 796.86 410.515C797.133 406.861 798.701 403.849 801.563 401.48C804.425 399.11 807.703 398.084 811.398 398.401C814.97 398.707 817.965 400.271 820.381 403.093C822.837 405.919 823.929 409.159 823.656 412.813C823.403 415.284 822.56 417.479 821.127 419.399C819.735 421.323 817.972 422.806 815.837 423.849C813.747 424.855 811.504 425.255 809.108 425.049Z" fill="#BF9B30"/>
<path d="M402.621 450.603C398.927 450.286 395.872 448.717 393.456 445.895C391.04 443.073 390.012 439.797 390.373 436.069C390.646 432.415 392.214 429.403 395.076 427.034C397.938 424.664 401.216 423.638 404.911 423.954C408.484 424.261 411.478 425.825 413.894 428.647C416.351 431.473 417.442 434.713 417.169 438.367C416.916 440.838 416.073 443.033 414.64 444.953C413.248 446.877 411.485 448.36 409.35 449.403C407.26 450.409 405.017 450.809 402.621 450.603Z" fill="#BF9B30"/>
<path d="M469.511 456.339C465.816 456.022 462.761 454.452 460.345 451.63C457.929 448.808 456.901 445.533 457.263 441.805C457.536 438.151 459.103 435.139 461.965 432.769C464.827 430.399 468.105 429.373 471.8 429.69C475.373 429.996 478.367 431.56 480.783 434.383C483.24 437.208 484.332 440.448 484.059 444.102C483.805 446.573 482.962 448.768 481.53 450.689C480.137 452.612 478.374 454.095 476.239 455.138C474.149 456.144 471.906 456.544 469.511 456.339Z" fill="#BF9B30"/>
<path d="M536.4 462.074C532.705 461.757 529.65 460.188 527.234 457.366C524.818 454.543 523.791 451.268 524.152 447.54C524.425 443.886 525.992 440.874 528.854 438.504C531.716 436.135 534.995 435.108 538.689 435.425C542.262 435.731 545.256 437.296 547.672 440.118C550.129 442.944 551.221 446.184 550.948 449.838C550.695 452.308 549.852 454.504 548.419 456.424C547.027 458.348 545.263 459.831 543.129 460.874C541.038 461.879 538.795 462.279 536.4 462.074Z" fill="#BF9B30"/>
<path d="M603.289 467.809C599.595 467.493 596.539 465.923 594.123 463.101C591.707 460.279 590.68 457.003 591.041 453.275C591.314 449.621 592.882 446.609 595.744 444.24C598.606 441.87 601.884 440.844 605.578 441.16C609.151 441.467 612.146 443.031 614.562 445.853C617.018 448.679 618.11 451.919 617.837 455.573C617.584 458.044 616.741 460.239 615.308 462.159C613.916 464.083 612.152 465.566 610.018 466.609C607.927 467.615 605.685 468.015 603.289 467.809Z" fill="#BF9B30"/>
<path d="M670.178 473.545C666.484 473.228 663.429 471.658 661.013 468.836C658.597 466.014 657.569 462.739 657.93 459.011C658.203 455.357 659.771 452.345 662.633 449.975C665.495 447.606 668.773 446.579 672.468 446.896C676.04 447.202 679.035 448.767 681.451 451.589C683.907 454.414 684.999 457.654 684.726 461.308C684.473 463.779 683.63 465.975 682.197 467.895C680.805 469.818 679.042 471.302 676.907 472.344C674.817 473.35 672.574 473.75 670.178 473.545Z" fill="#BF9B30"/>
<path d="M737.068 479.28C733.373 478.963 730.318 477.394 727.902 474.572C725.486 471.749 724.458 468.474 724.82 464.746C725.093 461.092 726.66 458.08 729.522 455.711C732.384 453.341 735.662 452.314 739.357 452.631C742.93 452.938 745.924 454.502 748.34 457.324C750.797 460.15 751.888 463.39 751.615 467.044C751.362 469.514 750.519 471.71 749.086 473.63C747.694 475.554 745.931 477.037 743.796 478.08C741.706 479.085 739.463 479.486 737.068 479.28Z" fill="#BF9B30"/>
<path d="M803.957 485.016C800.262 484.699 797.207 483.129 794.791 480.307C792.375 477.485 791.348 474.21 791.709 470.481C791.982 466.827 793.549 463.816 796.411 461.446C799.273 459.076 802.552 458.05 806.246 458.367C809.819 458.673 812.813 460.237 815.229 463.059C817.686 465.885 818.778 469.125 818.505 472.779C818.251 475.25 817.408 477.445 815.976 479.365C814.583 481.289 812.82 482.772 810.686 483.815C808.595 484.821 806.352 485.221 803.957 485.016Z" fill="#BF9B30"/>
<path d="M397.47 510.569C393.775 510.253 390.72 508.683 388.304 505.861C385.888 503.039 384.861 499.763 385.222 496.035C385.495 492.381 387.062 489.369 389.924 487C392.786 484.63 396.065 483.604 399.759 483.92C403.332 484.227 406.326 485.791 408.742 488.613C411.199 491.439 412.291 494.679 412.018 498.333C411.765 500.804 410.922 502.999 409.489 504.919C408.097 506.843 406.333 508.326 404.199 509.369C402.108 510.375 399.865 510.775 397.47 510.569Z" fill="#BF9B30"/>
<path d="M464.359 516.305C460.665 515.988 457.609 514.418 455.193 511.596C452.777 508.774 451.75 505.499 452.111 501.771C452.384 498.117 453.952 495.105 456.814 492.735C459.676 490.365 462.954 489.339 466.649 489.656C470.221 489.962 473.216 491.526 475.632 494.349C478.088 497.174 479.18 500.414 478.907 504.068C478.654 506.539 477.811 508.734 476.378 510.655C474.986 512.578 473.222 514.061 471.088 515.104C468.998 516.11 466.755 516.51 464.359 516.305Z" fill="#BF9B30"/>
<path d="M531.248 522.04C527.554 521.723 524.499 520.154 522.083 517.332C519.667 514.509 518.639 511.234 519 507.506C519.273 503.852 520.841 500.84 523.703 498.471C526.565 496.101 529.843 495.074 533.538 495.391C537.111 495.698 540.105 497.262 542.521 500.084C544.977 502.91 546.069 506.15 545.796 509.804C545.543 512.274 544.7 514.47 543.267 516.39C541.875 518.314 540.112 519.797 537.977 520.84C535.887 521.845 533.644 522.246 531.248 522.04Z" fill="#BF9B30"/>
<path d="M598.138 527.776C594.443 527.459 591.388 525.889 588.972 523.067C586.556 520.245 585.528 516.97 585.89 513.241C586.163 509.587 587.73 506.576 590.592 504.206C593.454 501.836 596.732 500.81 600.427 501.127C604 501.433 606.994 502.997 609.41 505.819C611.867 508.645 612.958 511.885 612.685 515.539C612.432 518.01 611.589 520.205 610.157 522.125C608.764 524.049 607.001 525.532 604.866 526.575C602.776 527.581 600.533 527.981 598.138 527.776Z" fill="#BF9B30"/>
<path d="M665.027 533.511C661.332 533.194 658.277 531.625 655.861 528.802C653.445 525.98 652.418 522.705 652.779 518.977C653.052 515.323 654.619 512.311 657.481 509.941C660.343 507.572 663.622 506.545 667.316 506.862C670.889 507.168 673.883 508.733 676.299 511.555C678.756 514.381 679.848 517.62 679.575 521.274C679.322 523.745 678.479 525.941 677.046 527.861C675.654 529.784 673.89 531.268 671.756 532.31C669.665 533.316 667.422 533.716 665.027 533.511Z" fill="#BF9B30"/>
<path d="M731.916 539.246C728.222 538.929 725.166 537.36 722.75 534.538C720.334 531.716 719.307 528.44 719.668 524.712C719.941 521.058 721.509 518.046 724.371 515.677C727.233 513.307 730.511 512.281 734.205 512.597C737.778 512.904 740.773 514.468 743.189 517.29C745.645 520.116 746.737 523.356 746.464 527.01C746.211 529.481 745.368 531.676 743.935 533.596C742.543 535.52 740.779 537.003 738.645 538.046C736.554 539.051 734.311 539.452 731.916 539.246Z" fill="#BF9B30"/>
<path d="M798.805 544.982C795.111 544.665 792.055 543.095 789.639 540.273C787.223 537.451 786.196 534.176 786.557 530.448C786.83 526.794 788.398 523.782 791.26 521.412C794.122 519.042 797.4 518.016 801.095 518.333C804.667 518.639 807.662 520.203 810.078 523.026C812.534 525.851 813.626 529.091 813.353 532.745C813.1 535.216 812.257 537.411 810.824 539.332C809.432 541.255 807.669 542.738 805.534 543.781C803.444 544.787 801.201 545.187 798.805 544.982Z" fill="#BF9B30"/>
<path d="M392.319 570.536C388.624 570.219 385.569 568.649 383.153 565.827C380.737 563.005 379.709 559.73 380.07 556.001C380.343 552.347 381.911 549.336 384.773 546.966C387.635 544.596 390.913 543.57 394.608 543.887C398.181 544.193 401.175 545.757 403.591 548.579C406.048 551.405 407.139 554.645 406.866 558.299C406.613 560.77 405.77 562.965 404.337 564.885C402.945 566.809 401.182 568.292 399.047 569.335C396.957 570.341 394.714 570.741 392.319 570.536Z" fill="#BF9B30"/>
<path d="M459.208 576.271C455.513 575.954 452.458 574.385 450.042 571.562C447.626 568.74 446.599 565.465 446.96 561.737C447.233 558.083 448.8 555.071 451.662 552.701C454.524 550.332 457.802 549.305 461.497 549.622C465.07 549.928 468.064 551.493 470.48 554.315C472.937 557.141 474.029 560.38 473.756 564.034C473.502 566.505 472.659 568.701 471.227 570.621C469.834 572.544 468.071 574.028 465.936 575.07C463.846 576.076 461.603 576.476 459.208 576.271Z" fill="#BF9B30"/>
<path d="M526.097 582.006C522.402 581.689 519.347 580.12 516.931 577.298C514.515 574.476 513.488 571.2 513.849 567.472C514.122 563.818 515.689 560.806 518.551 558.437C521.413 556.067 524.692 555.041 528.386 555.357C531.959 555.664 534.953 557.228 537.369 560.05C539.826 562.876 540.918 566.116 540.645 569.77C540.392 572.241 539.549 574.436 538.116 576.356C536.724 578.28 534.96 579.763 532.826 580.806C530.735 581.811 528.492 582.212 526.097 582.006Z" fill="#BF9B30"/>
<path d="M592.986 587.742C589.292 587.425 586.236 585.855 583.82 583.033C581.404 580.211 580.377 576.936 580.738 573.208C581.011 569.554 582.579 566.542 585.441 564.172C588.303 561.802 591.581 560.776 595.275 561.093C598.848 561.399 601.843 562.963 604.259 565.786C606.715 568.611 607.807 571.851 607.534 575.505C607.281 577.976 606.438 580.171 605.005 582.092C603.613 584.015 601.849 585.498 599.715 586.541C597.624 587.547 595.382 587.947 592.986 587.742Z" fill="#BF9B30"/>
<path d="M659.875 593.477C656.181 593.16 653.126 591.591 650.71 588.768C648.294 585.946 647.266 582.671 647.627 578.943C647.9 575.289 649.468 572.277 652.33 569.907C655.192 567.538 658.47 566.511 662.165 566.828C665.738 567.134 668.732 568.699 671.148 571.521C673.604 574.347 674.696 577.587 674.423 581.241C674.17 583.711 673.327 585.907 671.894 587.827C670.502 589.751 668.739 591.234 666.604 592.277C664.514 593.282 662.271 593.682 659.875 593.477Z" fill="#BF9B30"/>
<path d="M726.765 599.212C723.07 598.896 720.015 597.326 717.599 594.504C715.183 591.682 714.155 588.406 714.517 584.678C714.79 581.024 716.357 578.012 719.219 575.643C722.081 573.273 725.359 572.247 729.054 572.563C732.627 572.87 735.621 574.434 738.037 577.256C740.494 580.082 741.585 583.322 741.312 586.976C741.059 589.447 740.216 591.642 738.783 593.562C737.391 595.486 735.628 596.969 733.493 598.012C731.403 599.018 729.16 599.418 726.765 599.212Z" fill="#BF9B30"/>
<path d="M793.654 604.948C789.959 604.631 786.904 603.061 784.488 600.239C782.072 597.417 781.045 594.142 781.406 590.414C781.679 586.76 783.246 583.748 786.108 581.378C788.97 579.008 792.249 577.982 795.943 578.299C799.516 578.605 802.51 580.169 804.926 582.992C807.383 585.817 808.475 589.057 808.202 592.711C807.949 595.182 807.106 597.377 805.673 599.298C804.281 601.221 802.517 602.704 800.383 603.747C798.292 604.753 796.049 605.153 793.654 604.948Z" fill="#BF9B30"/>
</svg>
