<svg fill="none" height="24" viewBox="0 0 24 24" width="24" xmlns="http://www.w3.org/2000/svg" xmlns:xlink="http://www.w3.org/1999/xlink"><linearGradient id="a" gradientUnits="userSpaceOnUse" x1="12" x2="12" y1="0" y2="24"><stop offset=".00000045286" stop-color="#3a3a51"/><stop offset="1" stop-color="#191927"/></linearGradient><clipPath id="b"><rect height="24" rx="4" width="24"/></clipPath><g clip-path="url(#b)"><path d="m24 0h-24v24h24z" fill="url(#a)"/><path d="m4.20841 17.352c0-1.32 0-2.632 0-3.968.024.024.04.048.048.064.28.424.568.84.848 1.264.584.864 1.176 1.736 1.76 2.592.024.048.064.064.112.064h.704.064c0-1.616 0-3.216 0-4.824-.216 0-.44 0-.656 0v3.952c-.024-.016-.04-.024-.048-.04-.864-1.296-1.72-2.584-2.584-3.872-.024-.04-.048-.048-.088-.048-.24 0-.496 0-.736 0-.024 0-.04 0-.064 0v4.816zm1.744-10.83198v4.02398h.488c0-.024 0-.048 0-.072 0-.4 0-.81598 0-1.21598 0-.088.016-.184.024-.264.064-.352.312-.568.656-.568.28 0 .488.144.56.416.024.088.024.184.04.28v1.38398.072h.488c0-.024 0-.04 0-.064 0-.512 0-1.03198 0-1.54398 0-.088 0-.168-.024-.256-.048-.288-.192-.52-.472-.656-.192-.088-.416-.112-.632-.072-.264.048-.488.168-.632.416h-.016c0-.616 0-1.248 0-1.864-.16-.016-.32-.016-.48-.016zm8.15199 4.02398c0-.024 0-.04 0-.048 0-.51998 0-1.03998 0-1.56798 0-.072 0-.144-.016-.216-.04-.24-.144-.448-.352-.592-.312-.216-.824-.208-1.152.024-.096.072-.168.16-.24.256 0-.12 0-.24 0-.376-.088 0-.168 0-.24 0s-.16 0-.232 0v2.51998h.472c0-.024 0-.048 0-.072 0-.4 0-.79198 0-1.19198 0-.088 0-.16.016-.24.04-.36.256-.592.608-.632.28-.04.52.072.608.336.04.112.048.216.048.336v1.36798.072c.16.024.32.024.48.024zm-9.01599-.66398c-.016.016-.024.04-.04.048-.328.35198-.968.28798-1.224-.12-.168-.264-.184-.544-.096-.84.184-.632.848-.68 1.2-.424.064.048.112.088.168.136.12-.112.24-.216.352-.328-.392-.472-1.336-.568-1.88-.072-.536.488-.544 1.48-.04 1.96798.544.52 1.528.44 1.904-.04-.096-.096-.208-.208-.344-.32798z" fill="#fafdfc"/><path d="m4.20873 17.3521c-.232 0-.44 0-.656 0 0-1.6 0-3.216 0-4.816h.064.736c.048 0 .072.016.088.048.872 1.288 1.736 2.568 2.592 3.856.016.016.024.024.048.04 0-1.312 0-2.632 0-3.952h.656v4.824c-.024 0-.04 0-.064 0-.232 0-.464 0-.704 0-.048 0-.088-.016-.112-.064-.584-.864-1.168-1.736-1.76-2.592-.28-.424-.568-.84-.848-1.264-.016-.016-.024-.04-.048-.064.008 1.352.008 2.656.008 3.984z" fill="#01c16b"/><path d="m5.95234 6.52002h.472v1.864h.016c.136-.24.352-.376.632-.416.216-.04.424-.024.632.072.28.12.424.352.472.656.016.088.024.168.024.256v1.54398.064c-.16 0-.312 0-.488 0 0-.024 0-.048 0-.072 0-.464 0-.91998 0-1.38398 0-.096-.016-.192-.04-.28-.072-.264-.264-.416-.56-.416-.352 0-.592.216-.656.568-.016.088-.024.184-.024.264v1.21598.072c-.16 0-.312 0-.488 0 .008-1.32798.008-2.66398.008-4.00798z" fill="#fafdfc"/><path d="m14.1049 10.544c-.16 0-.312 0-.472 0 0-.024 0-.048 0-.072 0-.464 0-.91199 0-1.36799 0-.112-.016-.232-.048-.336-.096-.264-.328-.376-.608-.336-.352.04-.56.264-.608.632-.016.088-.016.16-.016.24v1.19199.072c-.16 0-.312 0-.472 0 0-.83999 0-1.67199 0-2.51999h.232.24v.376c.072-.096.144-.192.24-.256.328-.232.84-.24 1.152-.024.208.144.312.352.352.592.016.072.016.144.016.216v1.56799c-.008-.008-.008 0-.008.024z" fill="#fafdfc"/><path d="m5.08837 9.88005c.12.12005.24.24005.352.35205-.376.464-1.36.544-1.904.04-.512-.48805-.496-1.48005.04-1.96805.544-.496 1.488-.392 1.88.072-.12.112-.24.216-.352.328-.064-.048-.112-.096-.168-.136-.352-.256-1.016-.208-1.2.424-.088.288-.072.568.096.84.256.41605.896.47205 1.224.12.008-.04.024-.064.032-.072z" fill="#fafdfc"/><path d="m20.8323 12.544c-.048.144-.088.288-.136.44-.424 1.44-.84 2.888-1.264 4.328-.016.04-.024.048-.064.048-.192 0-.392 0-.584 0-.048 0-.064-.016-.072-.064-.208-.704-.424-1.416-.632-2.12-.168-.568-.336-1.144-.512-1.712 0-.016-.016-.024-.024-.048-.024.096-.064.184-.088.264-.352 1.216-.712 2.416-1.064 3.624-.016.048-.04.064-.088.064-.192 0-.392 0-.568 0-.048 0-.064-.016-.072-.048-.304-1.032-.608-2.064-.896-3.096-.16-.536-.312-1.064-.464-1.6-.016-.024-.016-.048-.024-.072h.04.608c.04 0 .048.024.064.048.144.544.304 1.088.448 1.624.192.704.392 1.416.584 2.12 0 .016.016.04.024.064.392-1.296.768-2.584 1.144-3.872h.44.264c.04 0 .048.016.064.048.12.416.24.824.36 1.24.24.84.496 1.688.736 2.52 0 .016.016.024.024.048.048-.184.096-.36.144-.544.304-1.088.608-2.168.896-3.264.016-.04.024-.064.072-.064.216.016.432.016.64.024 0-.008 0-.008 0 0z" fill="#01c16b"/><g fill="#fafdfc"><path d="m16.9685 8.02398v.336c-.232-.264-.512-.4-.848-.4-.472-.016-.848.16-1.104.56-.184.28-.232.584-.208.912.024.28.12.52.304.72802.304.328.68.464 1.112.416.256-.04.472-.12.64-.312.04-.04.064-.072.096-.12.016.016.016.016.016.024 0 .16 0 .312-.016.472-.016.208-.088.392-.24.52-.144.12-.312.184-.512.208-.312.04-.592-.024-.848-.216-.072-.064-.136-.12-.208-.184-.112.136-.216.264-.328.4.136.136.288.24.464.312.28.12.568.16.864.144.312-.016.592-.096.84-.288.328-.264.464-.616.464-1.032 0-.80002 0-1.61602 0-2.41602 0-.024 0-.04 0-.064-.176 0-.336 0-.488 0zm-.392 2.00002c-.288.168-.864.168-1.128-.23202-.216-.328-.184-.888.096-1.152.256-.24.544-.288.872-.192.328.112.496.36.536.688.016.048.016.096.016.136 0 .328-.112.584-.392.75202z"/><path d="m20.6483 9.45604c0-.088.016-.184-.016-.28-.016-.28-.072-.544-.24-.776-.232-.312-.56-.464-.944-.464-.464 0-.84.168-1.104.56-.216.328-.264.688-.192 1.08.048.256.16.48796.336.66396.208.208.464.328.752.352.448.048.848-.048 1.176-.376.048-.04.088-.088.12-.136-.12-.09596-.24-.18396-.36-.27996-.016.024-.04.04-.048.064-.192.20796-.424.33596-.712.31196-.328-.024-.584-.168-.728-.47196-.04-.088-.048-.168-.048-.256h1.008c.344 0 .664.008 1 .008zm-1.904-.752c.216-.336.656-.464 1.016-.288.216.112.376.352.36.656-.496 0-.992 0-1.488 0 .008-.144.056-.264.112-.368z"/><path d="m9.3285 8.60791c-.016.016-.016.016-.016.016.016-.008.016-.008.016-.016z"/><path d="m11.0967 9.90397c-.016-.392 0-.792-.016-1.176-.016-.288-.16-.52-.424-.64-.496-.232-.96804-.168-1.43204.088-.072.04-.136.096-.216.16.12.096.216.192.312.28.04-.016.072-.04.12-.064.216-.168.472-.232.75204-.184.312.048.488.328.44.616-.024 0-.048 0-.072 0-.192 0-.376 0-.56804.016-.256.024-.496.072-.712.208-.208.12-.336.304-.36.56-.04.35203.136.65603.448.77603.168.072.352.088.536.072.31204-.024.56804-.144.75204-.416.016-.016.016-.024.016-.04l.016.016c0 .12.016.24.016.36h.424c-.024-.224-.032-.424-.032-.63203zm-.472-.416v.04c0 .024 0 .048-.016.072v.024c0 .016 0 .024-.016.048-.024.144-.088.28-.208.37603-.144.136-.312.16-.49604.16-.024 0-.064 0-.088 0-.112 0-.216-.024-.304-.088-.208-.14403-.192-.44803 0-.60803.112-.088.24-.12.36-.144.136-.024.39204-.04.58404-.04h.168v.096c.016.032.016.056.016.064z"/></g><path d="m13.6409 13.968c-.232-.632-.68-1.088-1.312-1.36-.472-.192-.96-.24-1.456-.168-.488.072-.91204.264-1.27204.592-.328.304-.544.656-.68 1.064-.12.392-.16.792-.112 1.192.088.688.392 1.264.936 1.688.46404.352.98404.512 1.56804.512.112-.016.208-.016.288-.024.816-.088 1.456-.472 1.864-1.192.432-.744.472-1.52.176-2.304zm-.504 1.152c0 .024 0 .04-.016.064-.016.144-.04.288-.088.424-.088.264-.208.496-.416.712-.352.376-.8.56-1.32.56-.512-.016-.936-.184-1.288-.544-.23204-.24-.37604-.536-.44804-.848-.04-.184-.064-.352-.088-.536v-.016c0 .016 0 .016.016.016 0-.44.112-.848.376-1.2.28804-.4.68804-.64 1.19204-.704.288-.04.584-.016.872.088.336.12.616.336.84.632.256.352.36.752.36 1.176.016.048.008.112.008.176z" fill="#01c16b"/></g></svg>